<?xml version="1.0" standalone="no"?>
<!DOCTYPE svg PUBLIC "-//W3C//DTD SVG 1.1//EN" "http://www.w3.org/Graphics/SVG/1.1/DTD/svg11.dtd" >
<svg xmlns="http://www.w3.org/2000/svg" xmlns:xlink="http://www.w3.org/1999/xlink" version="1.1">
<metadata>
Created by FontForge 20190801 at Wed Jan  9 11:21:13 2013
 By Jimmy Wärting
</metadata>
<defs>
<font id="KorUM" horiz-adv-x="800" >
  <font-face 
    font-family="KorUM"
    font-weight="400"
    font-stretch="normal"
    units-per-em="1000"
    panose-1="2 2 6 3 2 1 1 2 1 1"
    ascent="858"
    descent="-142"
    x-height="514"
    cap-height="806"
    bbox="-9 -144 7242 946"
    underline-thickness="25"
    underline-position="-154"
    unicode-range="U+0020-FFE6"
  />
<missing-glyph horiz-adv-x="1000" 
d="M100 -42v800h800v-800h-800zM150 8h700v700h-700v-700z" />
    <glyph glyph-name=".notdef" horiz-adv-x="1000" 
d="M100 -42v800h800v-800h-800zM150 8h700v700h-700v-700z" />
    <glyph glyph-name="glyph1" horiz-adv-x="0" 
 />
    <glyph glyph-name="glyph2" horiz-adv-x="1000" 
 />
    <glyph glyph-name="space" unicode=" " horiz-adv-x="280" 
d="M0 58z" />
    <glyph glyph-name="exclam" unicode="!" horiz-adv-x="389" 
d="M209 202h-71l55 526h95zM113 106h99l-15 -97h-98z" />
    <glyph glyph-name="quotedbl" unicode="&#x22;" horiz-adv-x="410" 
d="M81 829h83l-13 -251h-56zM246 829h82l-13 -251h-56z" />
    <glyph glyph-name="numbersign" unicode="#" horiz-adv-x="625" 
d="M67 536h519v-72h-519v72zM39 287h519v-72h-519v72zM210 720h79q-4 -30 -12 -84.5t-17 -121.5q-10 -67 -20 -140t-19 -139q-10 -67 -17.5 -121t-11.5 -84h-80zM431 720h79q-4 -30 -11.5 -84.5t-16.5 -121.5q-10 -67 -20 -140t-19 -139q-10 -67 -18 -121t-12 -84h-80z" />
    <glyph glyph-name="dollar" unicode="$" horiz-adv-x="596" 
d="M276 -2q-5 0 -9 -0.5t-9 -0.5q-57 0 -108 9t-97 29l1 90q52 -29 106.5 -42.5t110.5 -14.5h5v275q-45 22 -75.5 36.5t-47.5 25.5q-44 29 -68.5 68t-24.5 86q0 44 18.5 76t49.5 54q30 22 68.5 34.5t79.5 17.5v86h81v-84q60 -5 120 -21v-95q-57 33 -120 42v-269
q32 -15 57 -27.5t34 -17.5q42 -26 67.5 -64.5t25.5 -82.5q0 -42 -14.5 -75t-39.5 -58t-58.5 -41.5t-71.5 -25.5v-104h-81v94zM260 449q4 -2 7.5 -4.5t8.5 -4.5v229q-21 -3 -42 -10.5t-38 -19.5t-27.5 -29t-10.5 -40q0 -38 24.5 -65.5t77.5 -55.5zM442 186q0 34 -19 61
t-66 54v-218q35 13 60 38.5t25 64.5z" />
    <glyph glyph-name="percent" unicode="%" horiz-adv-x="790" 
d="M563 729h84q-14 -24 -36 -62t-50 -86t-60 -102.5t-64 -109.5q-33 -56 -64.5 -110.5t-59.5 -102.5t-50.5 -86t-36.5 -62h-84zM50 564q0 32 10.5 59.5t29.5 47.5t46.5 31t60.5 11t60 -11t47 -31q19 -20 29.5 -47.5t10.5 -59.5q0 -31 -10.5 -58t-29.5 -47q-20 -21 -47 -32.5
t-60 -11.5t-60 11.5t-46 32.5q-20 20 -30.5 47t-10.5 58zM121 564q0 -36 19.5 -63t56.5 -27q36 0 56.5 27t20.5 63q0 37 -21 63.5t-56 26.5t-55.5 -26.5t-20.5 -63.5zM445 174q0 32 10.5 59.5t30.5 47.5q19 20 46 31t60 11t60.5 -11t47.5 -31q19 -20 29.5 -47.5t10.5 -59.5
q0 -31 -11 -58t-30 -47q-20 -21 -47 -32.5t-60 -11.5t-60 11.5t-46 32.5q-20 20 -30.5 47t-10.5 58zM516 174q0 -36 20 -63t56 -27t56.5 27t20.5 63q0 37 -21 63.5t-56 26.5t-55.5 -26.5t-20.5 -63.5z" />
    <glyph glyph-name="ampersand" unicode="&#x26;" horiz-adv-x="721" 
d="M620 391q-8 -84 -31 -142.5t-54 -104.5q6 -7 22.5 -25.5t35.5 -39.5q18 -21 35 -40.5t24 -27.5h-107l-63 69q-85 -80 -203 -80q-48 0 -89 14t-71 39q-30 26 -47 62t-17 81q0 35 12 66t34 57q21 25 50 46t63 37q-29 36 -52 74.5t-23 84.5q0 42 14.5 73.5t39.5 51.5
q24 20 57 30t71 10q34 0 65.5 -9.5t54.5 -28.5q23 -20 37 -50t14 -70q0 -29 -13.5 -56t-34.5 -50q-22 -24 -50 -44t-58 -35l145 -177q21 41 34 83.5t17 101.5h88zM144 202q0 -57 41.5 -93.5t110.5 -36.5q39 0 76.5 19.5t60.5 45.5l-171 209q-24 -10 -45 -24.5t-37 -32.5
q-17 -19 -26.5 -41t-9.5 -46zM226 561q0 -30 20 -62.5t46 -59.5q19 9 39 22t37 30q16 16 27 35t11 39q0 48 -26 68.5t-63 20.5q-42 0 -66.5 -24t-24.5 -69z" />
    <glyph glyph-name="quotesingle" unicode="'" horiz-adv-x="242" 
d="M80 829h83l-13 -251h-56z" />
    <glyph glyph-name="parenleft" unicode="(" horiz-adv-x="341" 
d="M214 -51q-33 49 -61 100t-48 105q-21 54 -33 110.5t-12 116.5t12 116t33 110t49 105t60 101h84q-29 -52 -55.5 -106.5t-46.5 -108.5q-20 -55 -32 -109.5t-12 -107.5t11.5 -107.5t32.5 -109.5q20 -55 46.5 -109t56.5 -106h-85z" />
    <glyph glyph-name="parenright" unicode=")" horiz-adv-x="341" 
d="M42 -51q30 52 56.5 106t46.5 109t32 109.5t12 107.5t-12 107.5t-32 109.5q-21 54 -47.5 108.5t-55.5 106.5h85q32 -50 60 -101t49 -105t33 -110t12 -116t-12 -116.5t-33 -110.5t-49 -105t-60 -100h-85z" />
    <glyph glyph-name="asterisk" unicode="*" horiz-adv-x="556" 
d="M277 501l-81 -136l-75 53l109 121h-1l-155 31l29 85l145 -58l-15 155h96l-17 -154l143 58l28 -87l-153 -32l105 -120l-78 -51z" />
    <glyph glyph-name="plus" unicode="+" horiz-adv-x="598" 
d="M45 443h210v214h87v-214h211v-79h-211v-215h-87v215h-210v79z" />
    <glyph glyph-name="comma" unicode="," horiz-adv-x="250" 
d="M95 157h90l-92 -221l-64 1z" />
    <glyph glyph-name="hyphen" unicode="-" horiz-adv-x="550" 
d="M44 448h461v-82h-461v82z" />
    <glyph glyph-name="period" unicode="." horiz-adv-x="217" 
d="M163 11h-109v102h109v-102z" />
    <glyph glyph-name="slash" unicode="/" horiz-adv-x="372" 
d="M267 728h78l-240 -719h-79z" />
    <glyph glyph-name="zero" unicode="0" horiz-adv-x="598" 
d="M45 371q0 78 20 146t54 119t80 80.5t99 29.5t99 -29.5t81 -80.5q34 -51 54 -119t20 -146q0 -77 -20 -145t-54 -119q-35 -51 -81 -80.5t-99 -29.5t-99 29.5t-80 80.5t-54 119t-20 145zM129 371q0 -62 13.5 -116.5t36.5 -95.5t53.5 -64.5t65.5 -23.5t66 23.5t54 64.5
t36.5 95.5t13.5 116.5q0 61 -13.5 116t-36.5 96q-23 40 -54 64t-66 24t-65.5 -24t-53.5 -64q-23 -41 -36.5 -96t-13.5 -116z" />
    <glyph glyph-name="one" unicode="1" horiz-adv-x="334" 
d="M82 715q8 1 32 3.5t52 5.5q27 3 51.5 5.5t33.5 3.5v-723h-83v646h-86v59z" />
    <glyph glyph-name="two" unicode="2" horiz-adv-x="600" 
d="M541 10h-474v12q69 72 140.5 153.5t128.5 169.5q30 48 46 88.5t16 78.5q0 33 -11 61.5t-31 50.5q-20 21 -48.5 33.5t-63.5 12.5q-45 0 -88.5 -24t-81.5 -65v98q88 67 177 67q47 0 89 -16t74 -45q31 -30 49.5 -71t18.5 -91q0 -87 -54 -175q-26 -42 -80.5 -111t-133.5 -154
h327v-73z" />
    <glyph glyph-name="three" unicode="3" horiz-adv-x="521" 
d="M90 716q32 13 68 21.5t72 8.5q43 0 83 -11t72 -33q31 -23 50 -58t19 -83q0 -54 -27 -99.5t-95 -71.5q62 -18 98 -65.5t36 -110.5q0 -50 -19 -90t-51 -68q-33 -28 -76.5 -43t-93.5 -15q-37 0 -77.5 9t-79.5 27v87q40 -25 82 -36.5t84 -11.5q30 0 56.5 9t46.5 27
q20 17 32 42.5t12 57.5q0 36 -16 62.5t-42 43.5q-27 17 -60 25t-67 8v72q81 2 126.5 33.5t45.5 88.5q0 60 -41 94t-107 34q-32 0 -64.5 -8.5t-66.5 -21.5v76z" />
    <glyph glyph-name="four" unicode="4" horiz-adv-x="632" 
d="M402 573q-59 -70 -117 -139t-116 -139h233v278zM487 728v-433h87v-74h-87v-211h-85v211h-345v45q102 118 197 231t196 231h37z" />
    <glyph glyph-name="five" unicode="5" horiz-adv-x="533" 
d="M440 654h-252v-194q56 4 109 -9t95 -42q41 -29 66 -73t25 -103q0 -52 -20 -95t-54 -74q-35 -31 -81.5 -48.5t-98.5 -17.5q-46 0 -89.5 9t-91.5 32v85q35 -23 79.5 -37.5t92.5 -14.5q32 0 63.5 10.5t56.5 31.5q25 20 40.5 49.5t15.5 67.5q0 41 -19 70.5t-49 49.5
q-30 19 -68 28t-75 9q-18 0 -36.5 -2t-38.5 -6v348h330v-74z" />
    <glyph glyph-name="six" unicode="6" horiz-adv-x="578" 
d="M293 338q-42 0 -78 -15.5t-73 -43.5q-8 -36 -3 -76.5t24 -74.5q19 -35 51 -57.5t78 -22.5q31 0 57.5 11t46.5 31q19 20 30.5 46.5t11.5 58.5q0 30 -11 56t-30 45q-20 19 -46.5 30.5t-57.5 11.5zM53 238q0 77 23 148t64 135q41 63 97 118t122 99l52 -62q-44 -26 -85 -61
t-75 -76q-34 -42 -58 -87t-34 -90q35 28 76 39t77 11q43 0 82 -17t68 -46q29 -30 46 -69.5t17 -85.5q0 -44 -18 -84t-48 -70q-31 -30 -72 -48t-87 -18q-56 0 -101.5 20t-77.5 55q-33 35 -50.5 83.5t-17.5 105.5z" />
    <glyph glyph-name="seven" unicode="7" horiz-adv-x="600" 
d="M541 728l-345 -734l-74 30l291 627h-360v77h488v0z" />
    <glyph glyph-name="eight" unicode="8" horiz-adv-x="595" 
d="M53 202q0 58 33.5 105t89.5 73q-48 26 -76 70t-28 97q0 42 18 78.5t49 63.5t72.5 42.5t89.5 15.5t89.5 -15.5t72.5 -42.5t49 -63.5t18 -78.5q0 -54 -30 -98.5t-79 -70.5q54 -26 87 -72.5t33 -103.5q0 -42 -19 -79.5t-52 -65.5q-34 -28 -78.5 -44t-95.5 -16t-95 16t-77 44
t-52 65.5t-19 79.5zM137 204q0 -27 13 -51.5t35 -42.5q21 -18 50 -28.5t62 -10.5t62 10.5t51 28.5q21 18 34 42.5t13 51.5t-13 51.5t-34 42.5q-22 18 -51 28.5t-62 10.5t-62 -10.5t-50 -28.5q-22 -18 -35 -42.5t-13 -51.5zM157 545q0 -27 11.5 -50t31.5 -40q19 -18 45 -28
t56 -10t56 10t46 28q20 17 31.5 40t11.5 50q0 26 -11.5 49.5t-31.5 41.5q-20 17 -46 27t-56 10t-56 -10t-45 -27q-20 -18 -31.5 -41.5t-11.5 -49.5z" />
    <glyph glyph-name="nine" unicode="9" horiz-adv-x="582" 
d="M292 671q-30 0 -57 -11t-47 -30q-21 -19 -32.5 -46t-11.5 -58q0 -29 11.5 -55.5t31.5 -46.5t46.5 -31.5t57.5 -11.5q42 0 77.5 16t70.5 45q8 35 3.5 75.5t-22.5 74.5q-19 34 -50.5 56.5t-77.5 22.5zM531 478q0 -75 -23.5 -146.5t-64.5 -134.5q-42 -64 -98 -119t-121 -97
l-52 61q50 31 92.5 68.5t75.5 78.5t54.5 84t29.5 85q-34 -28 -74.5 -39.5t-78.5 -11.5q-44 0 -82.5 17t-67.5 47q-30 30 -47 70t-17 85t18.5 85t49.5 70q31 29 72.5 46.5t88.5 17.5q55 0 100 -21t78 -57q32 -36 49.5 -84.5t17.5 -104.5z" />
    <glyph glyph-name="colon" unicode=":" horiz-adv-x="217" 
d="M166 140h-116v109h116v-109zM166 492h-116v109h116v-109z" />
    <glyph glyph-name="semicolon" unicode=";" horiz-adv-x="257" 
d="M186 509h-116v109h116v-109zM70 257h98l-89 -215h-72z" />
    <glyph glyph-name="less" unicode="&#x3c;" horiz-adv-x="598" 
d="M56 409q21 11 61 31.5t89 46.5q49 25 103 53t103 54q49 25 88.5 45.5t60.5 31.5v-85l-419 -210l419 -221v-84l-505 262v76z" />
    <glyph glyph-name="equal" unicode="=" horiz-adv-x="598" 
d="M40 543h518v-83h-518v83zM40 300h518v-82h-518v82z" />
    <glyph glyph-name="greater" unicode="&#x3e;" horiz-adv-x="598" 
d="M561 333l-505 -262v84l419 218l-419 213v85q21 -11 60.5 -31.5t88.5 -45.5q49 -26 103 -54t103 -53q49 -26 89 -46.5t61 -31.5v-76z" />
    <glyph glyph-name="question" unicode="?" horiz-adv-x="436" 
d="M149 249q0 29 11 56t28 53q16 26 34.5 50.5t35.5 48.5q16 24 26.5 47.5t10.5 47.5t-10 45t-28 37t-43.5 25.5t-55.5 9.5q-38 0 -76.5 -13.5t-71.5 -34.5l-9 83q36 17 77 27t89 10q41 0 79.5 -11.5t68.5 -34.5q30 -24 48 -58.5t18 -79.5q0 -31 -11 -58.5t-28 -51.5
q-17 -25 -37 -48.5t-37 -47.5t-28.5 -49.5t-12.5 -54.5v-42h-78v44zM139 109h99v-99h-99v99z" />
    <glyph glyph-name="at" unicode="@" horiz-adv-x="788" 
d="M356 227q28 0 51.5 16.5t40.5 42.5q17 25 27 55t10 56q0 18 -5.5 35t-15.5 30q-10 12 -23.5 19.5t-29.5 7.5q-31 0 -56 -15.5t-43 -39.5t-28 -52.5t-10 -54.5q0 -40 21.5 -70t60.5 -30zM672 414q0 60 -22.5 106t-59.5 78q-37 31 -84.5 47t-96.5 16q-63 0 -116 -23.5
t-91 -63.5q-38 -41 -59 -95t-21 -115q0 -71 23 -125.5t63 -92.5q39 -38 93.5 -57.5t117.5 -19.5q29 0 59.5 7.5t58.5 20.5q27 12 51 29t41 37h79q-54 -74 -131.5 -113.5t-161.5 -39.5q-76 0 -143 24t-116 70q-50 45 -79 111.5t-29 150.5q0 81 29 146.5t79 112.5
q49 46 114.5 71t139.5 25q64 0 124 -21t106 -59q45 -39 72.5 -92.5t27.5 -118.5q0 -70 -25.5 -122t-61.5 -86q-37 -34 -77.5 -50.5t-69.5 -16.5q-17 0 -32 12.5t-27 41.5q-27 -25 -55.5 -39t-52.5 -14q-30 0 -56.5 12.5t-45.5 33.5q-20 21 -31 49.5t-11 60.5q0 46 15 90.5
t42 79.5q27 34 66 55.5t87 21.5q28 0 59.5 -15t57.5 -53l12 53h70q-3 -11 -8.5 -32t-12.5 -47t-15 -54t-14 -52q-7 -24 -12 -41.5t-7 -23.5q-3 -11 -5.5 -21.5t-2.5 -22.5q0 -11 3.5 -19.5t13.5 -7.5q22 0 45 16t42 43q18 26 29.5 60t11.5 72z" />
    <glyph glyph-name="A" unicode="A" horiz-adv-x="806" 
d="M450 732q74 -182 146.5 -361t146.5 -361h-102q-29 74 -52 134q-10 25 -19.5 50t-16.5 45q-8 20 -13 33t-5 15h-285q-8 -20 -23 -59t-31 -81q-17 -43 -32 -81t-22 -56h-80q74 182 147 361t147 361h94zM503 358q-2 5 -10 25.5t-19 49.5q-12 29 -25 62t-25 63t-21 53t-12 31
q-11 -27 -26.5 -65.5t-31.5 -78.5q-16 -41 -31 -78.5t-25 -61.5h226z" />
    <glyph glyph-name="B" unicode="B" horiz-adv-x="605" 
d="M375 423q37 -7 70.5 -21.5t59.5 -36.5q25 -23 40.5 -54.5t15.5 -72.5q0 -71 -33.5 -115.5t-86.5 -69.5t-119 -34t-130 -9h-122v719h187q36 0 77 -7t76 -25t58 -50t23 -82t-30 -86t-86 -56zM159 442h47q28 0 61 3.5t61 15.5t46.5 34t18.5 60q0 32 -15 52.5t-38 32.5
t-52 16.5t-57 4.5h-35h-37v-219zM159 83q26 -1 59 -1t67 3q33 3 65 12t58 25q25 16 40 42t16 64q1 43 -19 71.5t-51 45.5q-32 17 -70.5 23.5t-75.5 6.5h-89v-292z" />
    <glyph glyph-name="C" unicode="C" horiz-adv-x="708" 
d="M654 39q-23 -11 -72.5 -26t-125.5 -15q-87 0 -161 24t-127 71q-54 47 -84.5 115t-30.5 157q0 85 31 155t86 121q55 50 130.5 77.5t164.5 27.5q35 0 64 -4.5t51 -10.5t37 -12.5t23 -9.5v-90q-38 23 -79.5 38.5t-99.5 15.5q-60 0 -115.5 -20t-98.5 -57q-44 -38 -70 -92
t-26 -122q0 -77 24.5 -135t66.5 -97t98 -58.5t119 -19.5q72 0 120.5 16.5t74.5 30.5v-80z" />
    <glyph glyph-name="D" unicode="D" horiz-adv-x="729" 
d="M277 729q79 0 151.5 -22.5t127.5 -66.5t87.5 -110.5t32.5 -153.5q0 -80 -32 -147t-86 -116q-55 -49 -129 -76t-158 -27h-203v719h209zM247 78q67 1 127 19.5t105 56.5q45 37 71 93t26 131q0 67 -23.5 119.5t-64.5 88.5q-41 35 -98 53.5t-124 18.5h-110v-580h91z" />
    <glyph glyph-name="E" unicode="E" horiz-adv-x="582" 
d="M160 84h351v-74h-440v718h393v-72h-304v-221h240v-71h-240v-280z" />
    <glyph glyph-name="F" unicode="F" horiz-adv-x="537" 
d="M161 10h-89v718h393v-72h-304v-220h240v-71h-240v-355z" />
    <glyph glyph-name="G" unicode="G" horiz-adv-x="785" 
d="M718 367v-340q-20 -3 -44.5 -8t-52.5 -10q-29 -4 -60 -7.5t-62 -3.5q-86 0 -165.5 21.5t-140.5 65.5q-62 44 -100 111t-41 157q0 93 33.5 165.5t91.5 123.5q58 50 134 76t162 26q50 0 89 -6.5t67 -14.5q27 -9 44 -17t22 -11v-92q-22 20 -51 34t-59 23q-31 8 -60.5 12
t-51.5 4q-64 0 -122 -22.5t-102 -62.5q-45 -41 -72 -96.5t-28 -121.5q0 -66 25 -122.5t69 -97.5q43 -42 101.5 -65.5t124.5 -23.5q51 0 91.5 6.5t72.5 16.5v280h85z" />
    <glyph glyph-name="H" unicode="H" horiz-adv-x="740" 
d="M582 728h89v-718h-89v357h-425v-357h-89v718h89v-292h425v292v0z" />
    <glyph glyph-name="I" unicode="I" horiz-adv-x="284" 
d="M97 728h90v-718h-90v718z" />
    <glyph glyph-name="J" unicode="J" horiz-adv-x="382" 
d="M308 207q0 -44 -8.5 -83t-28.5 -69q-20 -29 -53 -47t-82 -19q-17 0 -46 2.5t-56 12.5v70q13 -4 27 -7q12 -3 26 -5t28 -2q31 0 51 11t32 31t17 47.5t5 62.5v516h88v-521z" />
    <glyph glyph-name="K" unicode="K" horiz-adv-x="700" 
d="M555 105q16 -15 33 -30t34 -28q16 -12 29.5 -21.5t21.5 -15.5h-71q-38 0 -63.5 10t-47.5 32l-329 325v-367h-89v718h89v-342l315 342h88l-306 -333l17.5 -17.5l35.5 -35.5t47.5 -47t53.5 -52q63 -62 142 -138z" />
    <glyph glyph-name="L" unicode="L" horiz-adv-x="582" 
d="M70 729h90v-646h351v-73h-441v719v0z" />
    <glyph glyph-name="M" unicode="M" horiz-adv-x="944" 
d="M828 10l-84 625l-251 -625h-37l-273 630l-85 -630h-74l105 720h111l243 -562l228 562h108l101 -720h-92v0z" />
    <glyph glyph-name="N" unicode="N" horiz-adv-x="738" 
d="M653 728h17v-718h-76q-115 147 -228 292.5t-227 292.5v-585h-71v718h81q112 -146 224 -290.5t225 -290.5v581h55z" />
    <glyph glyph-name="O" unicode="O" horiz-adv-x="852" 
d="M145 371q0 -63 22 -118.5t60 -96.5q38 -42 89 -66t109 -24q57 0 108.5 24t89.5 66q38 41 60.5 96.5t22.5 118.5t-22.5 118t-60.5 97q-38 41 -89.5 65t-108.5 24q-58 0 -109 -24t-89 -65q-38 -42 -60 -97t-22 -118zM50 371q0 77 29.5 145t80.5 119t119.5 80.5t146.5 29.5
t146.5 -29.5t119.5 -80.5t80.5 -119t29.5 -145q0 -78 -29.5 -146t-80.5 -118q-51 -51 -119.5 -80.5t-146.5 -29.5t-146.5 29.5t-119.5 80.5q-51 50 -80.5 118t-29.5 146z" />
    <glyph glyph-name="P" unicode="P" horiz-adv-x="597" 
d="M291 728q52 0 98.5 -13t81.5 -40q34 -27 54 -67.5t20 -95.5q0 -72 -33 -116.5t-87 -69.5t-123.5 -34t-143.5 -9q0 -69 0.5 -137.5t0.5 -135.5h-89v718h221zM158 353q47 0 98.5 3.5t94.5 19.5q43 15 71 47t28 88q0 30 -11.5 56.5t-33.5 46.5t-55 31.5t-75 11.5h-117v-304z
" />
    <glyph glyph-name="Q" unicode="Q" horiz-adv-x="852" 
d="M628 116l135 -134q29 -27 56.5 -48.5t50.5 -36.5t40 -25t25 -15h-69q-24 -1 -47 3q-20 3 -42.5 11t-39.5 23q-12 10 -38.5 33t-55.5 48q-29 26 -54.5 49t-35.5 34zM145 371q0 -63 22 -118.5t60 -96.5q38 -42 89 -66t109 -24q57 0 108.5 24t89.5 66q38 41 60.5 96.5
t22.5 118.5t-22.5 118t-60.5 97q-38 41 -89.5 65t-108.5 24q-58 0 -109 -24t-89 -65q-38 -42 -60 -97t-22 -118zM50 371q0 77 29.5 145t80.5 119t119.5 80.5t146.5 29.5t146.5 -29.5t119.5 -80.5t80.5 -119t29.5 -145q0 -78 -29.5 -146t-80.5 -118q-51 -51 -119.5 -80.5
t-146.5 -29.5t-146.5 29.5t-119.5 80.5q-51 50 -80.5 118t-29.5 146z" />
    <glyph glyph-name="R" unicode="R" horiz-adv-x="697" 
d="M159 659v-122t1 -132v-128.5t1 -108.5v-76.5v-28.5v-53h-91v718h197q47 0 91 -10t79 -32q34 -22 54.5 -56t20.5 -83q0 -36 -15.5 -65t-40.5 -52q-25 -24 -57 -40.5t-66 -26.5l174 -207q40 -48 78 -85t86 -63h-72q-36 0 -66 12t-53 40q-68 81 -134.5 162.5t-134.5 162.5
q49 10 87.5 23.5t65.5 32.5q27 18 41.5 42.5t14.5 56.5q0 40 -19.5 64t-53.5 36q-35 12 -83 15.5t-105 3.5z" />
    <glyph glyph-name="S" unicode="S" horiz-adv-x="596" 
d="M448 355q42 -26 67.5 -64.5t25.5 -82.5q0 -55 -24 -94.5t-64 -65.5t-90.5 -38.5t-104.5 -12.5q-57 0 -108 9t-97 29l1 90q52 -29 106.5 -42.5t110.5 -14.5q28 0 58.5 7t55.5 22q25 14 41 36t16 53q0 36 -21.5 64t-74.5 57q-75 40 -122.5 61.5t-70.5 36.5q-44 29 -68.5 68
t-24.5 86q0 51 24.5 86t62.5 57t85.5 32t92.5 10q38 0 76 -5.5t76 -16.5v-95q-36 21 -75.5 32t-80.5 13q-23 1 -51.5 -4t-52.5 -17q-25 -12 -42 -31.5t-17 -49.5q0 -38 24.5 -65.5t77.5 -55.5q24 -13 54 -27.5t57 -27.5q27 -14 48 -24.5z" />
    <glyph glyph-name="T" unicode="T" horiz-adv-x="629" 
d="M49 728h530v-73h-45t-63 1h-65h-49v-646h-90v646h-218v72z" />
    <glyph glyph-name="U" unicode="U" horiz-adv-x="692" 
d="M553 728h70v-444q0 -66 -12.5 -120t-43.5 -92t-85 -58.5t-136 -20.5q-76 0 -129 19t-86 56q-33 36 -48 90.5t-15 125.5v444h90q-1 -124 -1 -222v-222q0 -67 16.5 -110.5t43.5 -68.5q26 -25 60 -35t70 -10h-1q65 0 105.5 16t63.5 46q22 29 30 70.5t8 91.5v444z" />
    <glyph glyph-name="V" unicode="V" horiz-adv-x="730" 
d="M682 728q-12 -32 -34 -88.5t-49 -125.5q-27 -70 -56 -145.5t-56 -144.5q-27 -70 -49 -126.5t-34 -87.5h-87l-270 718h106l221 -612l230 612h78z" />
    <glyph glyph-name="W" unicode="W" horiz-adv-x="1040" 
d="M1015 729q-56 -181 -110.5 -360t-110.5 -359h-85q-49 152 -88 273q-17 51 -33 101t-28 90q-13 39 -21.5 64t-8.5 27q-1 -3 -13.5 -41t-29.5 -94q-18 -57 -39 -124t-40 -128t-33.5 -107t-19.5 -61h-81q-63 180 -124.5 359t-124.5 360h96q51 -154 101 -305.5t101 -305.5
q47 154 93 305.5t93 305.5q14 0 28 -0.5t28 -0.5q49 -152 98 -303.5t98 -304.5q47 153 92.5 304.5t91.5 304.5h70z" />
    <glyph glyph-name="X" unicode="X" horiz-adv-x="796" 
d="M630 139q22 -32 39 -54.5t30 -37.5t21.5 -23.5t12.5 -13.5h-62q-33 0 -54.5 12.5t-35.5 34.5q-48 69 -94.5 139t-94.5 140q-58 -77 -123 -162.5t-124 -163.5h-92q74 96 147.5 191t148.5 191q-59 85 -116.5 168t-116.5 168h107q47 -69 94 -136t94 -135q50 68 99 135
t99 136h92q-63 -82 -125.5 -163t-125.5 -163q45 -66 90 -131.5t90 -131.5z" />
    <glyph glyph-name="Y" unicode="Y" horiz-adv-x="722" 
d="M367 396q57 84 112.5 166t112.5 166h83q-76 -113 -136 -201q-26 -38 -50.5 -74t-43.5 -64q-20 -29 -32 -46.5t-12 -18.5v-314h-90v313q-12 17 -32.5 49t-45.5 72q-26 39 -54 82t-53 82q-26 39 -47 71t-32 49h102q10 -15 27 -41t38 -57q20 -31 42 -65t43 -65
q21 -32 38.5 -59.5t29.5 -44.5z" />
    <glyph glyph-name="Z" unicode="Z" horiz-adv-x="682" 
d="M629 10h-577q103 163 206 324.5t207 324.5q-90 0 -178.5 -0.5t-178.5 -0.5q0 18 0.5 35.5t0.5 34.5h503l-414 -648h431v-70z" />
    <glyph glyph-name="bracketleft" unicode="[" horiz-adv-x="332" 
d="M98 838h187v-73h-100v-744h100v-73h-187v890z" />
    <glyph glyph-name="backslash" unicode="\" horiz-adv-x="1060" 
d="M20 402h1020v-70h-1020v70zM405 370q17 0 34.5 1t34.5 3q-17 -54 -35 -113t-34 -111q-17 -52 -29 -90t-16 -50h-81q-63 180 -124.5 359t-124.5 360h96q51 -154 101 -305.5t101 -305.5q20 63 38.5 126t38.5 126zM597 373q22 -1 44 -1h44l81 -252q47 153 92.5 304.5
t91.5 304.5h70q-56 -181 -110.5 -360t-110.5 -359h-85q-19 61 -39 123q-17 54 -38 117t-40 123zM693 382h-44.5t-44.5 1q-12 38 -23 72t-19 61q-9 26 -14.5 41.5t-5.5 17.5q0 -2 -5 -17.5t-13 -41.5q-9 -26 -19.5 -60t-22.5 -72q-17 -2 -34.5 -2.5t-34.5 -1.5
q27 88 54.5 174.5t54.5 174.5q14 0 28 -0.5t28 -0.5q29 -87 57.5 -173t57.5 -173z" />
    <glyph glyph-name="bracketright" unicode="]" horiz-adv-x="330" 
d="M233 -52h-187v73h101v744h-101v73h187v-890z" />
    <glyph glyph-name="asciicircum" unicode="^" horiz-adv-x="560" 
d="M235 776h90l172 -329h-99l-118 242l-118 -242h-99z" />
    <glyph glyph-name="underscore" unicode="_" horiz-adv-x="550" 
d="M20 59h510v-79h-510v79z" />
    <glyph glyph-name="grave" unicode="`" horiz-adv-x="278" 
d="M204 665h-69l-112 133h107z" />
    <glyph glyph-name="a" unicode="a" horiz-adv-x="543" 
d="M130 446q0 17 -0.5 33.5t-0.5 33.5q20 4 42 8q18 3 40.5 6t42.5 3q100 0 156 -38t56 -121v-164v-17q0 -74 9.5 -115.5t18.5 -61.5h-92q-6 13 -8 18t-5 13q-47 -24 -84.5 -30.5t-72.5 -6.5q-33 0 -65.5 10t-58.5 29t-42 47t-16 64q0 50 26 84t67 55t91 31t98 12
q12 0 21 1.5t16 7.5q6 5 9 15t3 28q0 24 -11 38.5t-29 23.5q-18 8 -40 11t-44 3q-21 0 -41 -2.5t-37 -6.5q-18 -4 -30.5 -7.5t-18.5 -4.5zM274 73q43 0 69.5 13.5t37.5 21.5v175h-30q-31 0 -67.5 -3.5t-67.5 -15.5q-32 -13 -53 -36.5t-21 -63.5q0 -48 33.5 -69.5t98.5 -21.5
z" />
    <glyph glyph-name="b" unicode="b" horiz-adv-x="627" 
d="M328 518q57 0 104 -23t80 -62t50 -90t13 -106q-4 -60 -31 -105.5t-70 -76.5q-43 -30 -99.5 -46t-118.5 -16q-9 0 -28 1.5t-45 4.5q-26 4 -56 10t-60 15v704h83v-285q38 40 84 57.5t94 17.5zM318 453q-48 0 -88.5 -21t-60.5 -62q-16 -30 -19 -102v-190q26 -11 58 -16
t58 -5q46 0 86 13.5t69 39.5q29 25 46.5 61t20.5 81q4 34 -7 70t-33 65q-23 29 -56 47.5t-74 18.5z" />
    <glyph glyph-name="c" unicode="c" horiz-adv-x="558" 
d="M376 67q30 0 60.5 8.5t52.5 18.5v-69q-16 -5 -51.5 -13.5t-80.5 -8.5q-57 0 -111.5 16.5t-97.5 49.5q-43 32 -69 78.5t-26 106.5q0 66 23.5 117t65.5 86q41 35 97 53.5t122 18.5q19 0 38.5 -2.5t36.5 -6.5t29.5 -7.5t17.5 -5.5v-83q-17 11 -39 20q-19 8 -44.5 14.5
t-57.5 6.5q-37 0 -72.5 -13t-62.5 -37q-28 -25 -45 -60t-17 -78q0 -56 18 -95.5t50 -64.5q31 -26 73 -37.5t90 -12.5z" />
    <glyph glyph-name="d" unicode="d" horiz-adv-x="627" 
d="M51 237q-3 54 13 104.5t49 89.5t80 63t106 24q47 0 93 -17.5t84 -57.5v285h83v-704q-30 -9 -60 -15t-55 -10q-26 -3 -45.5 -4.5t-27.5 -1.5q-62 0 -118.5 16t-99.5 46q-44 31 -71 76.5t-31 105.5zM458 370q-21 41 -61 62t-88 21q-42 0 -74.5 -17.5t-53.5 -45.5
q-22 -29 -33 -65t-9 -73q2 -45 19.5 -81t47.5 -61q29 -26 68.5 -39.5t86.5 -13.5q26 0 57.5 5t57.5 16v190q-2 35 -6 61.5t-12 40.5z" />
    <glyph glyph-name="e" unicode="e" horiz-adv-x="614" 
d="M546 133q0 -21 -0.5 -42t-0.5 -41q-5 -3 -21 -10.5t-40 -15.5q-25 -8 -56 -14.5t-66 -6.5q-61 0 -117 17.5t-99 51.5q-43 33 -68.5 82.5t-25.5 114.5q0 52 20 99.5t56 83.5q35 36 84 57.5t108 21.5q52 0 96.5 -18.5t76.5 -50.5q32 -33 50 -77.5t18 -96.5v-16h-415
q0 -99 60.5 -149.5t162.5 -50.5q33 0 62 7.5t52 18.5q23 10 39 20zM471 332q-3 25 -14 49.5t-30 43.5q-20 19 -48 30.5t-65 11.5q-32 0 -58.5 -11t-46.5 -29q-21 -19 -36 -43.5t-22 -51.5h320z" />
    <glyph glyph-name="f" unicode="f" horiz-adv-x="464" 
d="M205 688q16 19 36.5 31t46.5 18t59 7.5t74 0.5l1 -69q-54 1 -87.5 -1.5t-56.5 -20.5q-25 -20 -25 -72v-70h150v-68h-150v-435h-84v435h-109v68h109v29q0 18 0.5 37t4.5 39q3 19 10.5 37.5t20.5 33.5z" />
    <glyph glyph-name="g" unicode="g" horiz-adv-x="614" 
d="M36 24q0 35 28.5 68t76.5 58q-7 11 -11 26t-4 24q0 8 8 16.5t20 15.5q11 7 24 13t23 9q-24 7 -47 20t-41 31t-29 41.5t-11 53.5q0 40 18 69.5t47 49.5q29 19 65.5 29t73.5 10h287q-9 -17 -15 -29.5t-13 -26.5q-19 -1 -52.5 -1t-72.5 -1q35 -22 52 -53.5t17 -62.5
q0 -38 -18 -64t-46 -43q-29 -17 -63 -26t-67 -13q-23 -3 -41.5 -12t-18.5 -17q0 -3 1.5 -8t9.5 -10q7 -5 23 -8.5t44 -3.5q62 0 111.5 -7.5t84.5 -24.5q35 -18 53.5 -48t18.5 -75q0 -32 -21 -60.5t-57 -49.5t-85 -33.5t-105 -12.5q-126 0 -197 39t-71 117zM120 27
q0 -49 50 -74t131 -25q39 0 73.5 6t60.5 18q25 12 39.5 30.5t14.5 44.5q0 53 -49 75.5t-134 22.5q-35 0 -68.5 -5.5t-59.5 -17.5t-42 -30.5t-16 -44.5zM155 413q0 -25 11 -46.5t30 -36.5q18 -16 41.5 -24.5t48.5 -8.5q21 0 41 5.5t36 17.5t25.5 29.5t9.5 41.5
q0 26 -11.5 46.5t-29.5 34.5q-19 14 -43 21.5t-48 7.5q-20 0 -39.5 -5.5t-35.5 -15.5q-16 -11 -26 -28t-10 -39z" />
    <glyph glyph-name="h" unicode="h" horiz-adv-x="574" 
d="M422 295q0 89 -34.5 125.5t-96.5 36.5q-33 0 -58.5 -13t-43.5 -35q-18 -23 -28 -53t-10 -64v-58t1 -83v-83.5v-57.5h-84v718h83v-286q30 38 75.5 60t98.5 22q82 0 131 -50.5t49 -155.5v-308h-84l1 285v0z" />
    <glyph glyph-name="i" unicode="i" horiz-adv-x="274" 
d="M178 9h-82v493h82v-493zM78 646q0 26 17.5 43.5t43.5 17.5t43.5 -17.5t17.5 -43.5t-17.5 -43.5t-43.5 -17.5t-43.5 17.5t-17.5 43.5z" />
    <glyph glyph-name="j" unicode="j" horiz-adv-x="271" 
d="M198 85q0 -57 -9 -98.5t-32 -69.5q-24 -27 -64 -40t-102 -11v68q42 -2 66.5 7t38.5 28q13 19 17 49t4 71l1 416h80v-420zM96 661q0 26 17.5 43.5t43.5 17.5t43.5 -17.5t17.5 -43.5t-17.5 -43.5t-43.5 -17.5t-43.5 17.5t-17.5 43.5z" />
    <glyph glyph-name="k" unicode="k" horiz-adv-x="560" 
d="M150 726l-1 -717h-81v717h82zM460 64q13 -16 34.5 -31.5t35.5 -23.5h-73q-31 0 -58 16t-52 45l-194 219l231 229h86q-61 -59 -109 -107q-21 -20 -40.5 -40t-35.5 -35q-16 -16 -26.5 -27t-11.5 -13q2 -3 12 -14t26 -28q15 -17 33.5 -37.5t38.5 -41.5q46 -49 103 -111z" />
    <glyph glyph-name="l" unicode="l" horiz-adv-x="274" 
d="M178 728v-718h-83v718h83v0z" />
    <glyph glyph-name="m" unicode="m" horiz-adv-x="915" 
d="M770 273q0 95 -36 141.5t-99 46.5q-40 0 -66.5 -22.5t-41.5 -52.5q-16 -31 -22 -64t-6 -54v-258h-83v273q0 28 -7 59t-23 58q-16 26 -40.5 43t-59.5 17q-36 0 -62 -20t-43 -49q-18 -30 -26.5 -64.5t-8.5 -63.5v-253h-83v505h83v-90q28 54 74.5 78.5t92.5 23.5
q52 -1 91 -27t71 -79q35 53 83 79.5t99 26.5q50 0 87 -17.5t61 -47.5q24 -31 36 -73.5t12 -92.5v-58v-85q-1 -45 -1 -85v-58h-82v263v0z" />
    <glyph glyph-name="n" unicode="n" horiz-adv-x="573" 
d="M421 10l1 269q0 33 -5.5 65.5t-19.5 58.5q-15 26 -41 42t-67 16q-28 0 -53 -15t-43 -38q-19 -24 -30 -53.5t-11 -60.5v-284h-84v507h84v-92q13 25 32.5 44t42.5 32q22 13 45.5 19.5t44.5 6.5q55 0 90.5 -17.5t57.5 -48.5q21 -32 29.5 -75.5t9.5 -95.5v-280h-83z" />
    <glyph glyph-name="o" unicode="o" horiz-adv-x="654" 
d="M137 267q0 -42 15 -79t41 -64q25 -27 59.5 -43t73.5 -16t73.5 16t60.5 43q25 27 40 64t15 79t-15 78.5t-40 64.5q-26 27 -60.5 43t-73.5 16t-73.5 -16t-59.5 -43q-26 -28 -41 -64.5t-15 -78.5zM49 268q0 55 22 104t60 86q37 36 87.5 57t108.5 21q57 0 107.5 -21t88.5 -57
q37 -37 59 -86t22 -104q0 -56 -22 -104.5t-59 -84.5q-38 -37 -88.5 -58t-107.5 -21q-58 0 -108.5 21t-87.5 58q-38 36 -60 84.5t-22 104.5z" />
    <glyph glyph-name="p" unicode="p" horiz-adv-x="635" 
d="M270 556q79 0 137.5 -18.5t97.5 -51.5t58 -77t19 -95q0 -47 -21.5 -86.5t-58.5 -67.5t-87 -43.5t-106 -15.5q-49 0 -92 10.5t-65 18.5v-105v-157h-85v657q32 9 64.5 15t60.5 10q28 3 48.5 4.5t29.5 1.5zM291 167q43 0 80.5 12t64.5 33t42.5 50t15.5 64q0 37 -16 67
t-44 52t-66.5 34t-84.5 12q-63 0 -131 -17v-274q20 -11 57 -21.5t82 -11.5z" />
    <glyph glyph-name="q" unicode="q" horiz-adv-x="635" 
d="M364 556q9 0 30 -1.5t49 -4.5q28 -4 60 -10t64 -15v-657h-85v262q-22 -8 -64.5 -18.5t-92.5 -10.5q-56 0 -106 15.5t-87 43.5t-58.5 67.5t-21.5 86.5q0 51 19.5 95t58.5 77t97.5 51.5t136.5 18.5zM344 167q45 1 82 11.5t57 21.5v274q-32 8 -63 12.5t-60 4.5
q-48 0 -88 -11.5t-69 -32.5q-29 -22 -45.5 -52.5t-16.5 -68.5q0 -35 15.5 -64t42.5 -50t64 -33t81 -12z" />
    <glyph glyph-name="r" unicode="r" horiz-adv-x="392" 
d="M332 444q-45 3 -78.5 -4.5t-55.5 -27.5q-23 -21 -34.5 -56.5t-11.5 -87.5v-53v-76q-1 -41 -1 -77v-52h-82v505h83v-90q17 46 64.5 72t115.5 24v-77z" />
    <glyph glyph-name="s" unicode="s" horiz-adv-x="506" 
d="M376 276q36 -20 56 -49t20 -67q0 -43 -22.5 -73.5t-56.5 -49.5q-35 -19 -78 -28t-83 -9q-37 0 -77.5 7.5t-81.5 26.5v77q14 -8 34 -16t43 -14q23 -7 48.5 -11t49.5 -4q16 0 39.5 3.5t45.5 12.5q22 8 37.5 23t15.5 38q0 22 -16 41.5t-54 36.5q-24 10 -63 22.5t-76 31.5
q-38 19 -65.5 47.5t-27.5 70.5q0 38 20 64t51 43q31 16 69 23.5t73 7.5q33 0 60.5 -3.5t53.5 -8.5v-78q-19 7 -39 13q-18 5 -40.5 9t-47.5 4q-22 0 -42.5 -3.5t-36.5 -10.5q-16 -8 -25.5 -19t-9.5 -25q0 -20 18 -39.5t60 -36.5q51 -20 88 -32.5t60 -24.5z" />
    <glyph glyph-name="t" unicode="t" horiz-adv-x="447" 
d="M394 66q-1 -16 -1 -32.5t-1 -32.5h-22q-58 0 -98 9.5t-64 33.5q-25 25 -36 67t-11 107v235h-101v66h102v165h81v-165h143v-67q-35 0 -71 0.5t-72 0.5v-222q0 -48 3.5 -79.5t18.5 -50.5t45.5 -26.5t83.5 -8.5z" />
    <glyph glyph-name="u" unicode="u" horiz-adv-x="572" 
d="M422 10v85q-29 -44 -72 -70.5t-100 -26.5q-89 0 -135 54t-48 163v299h82v-271q0 -86 29.5 -130.5t96.5 -44.5q30 0 56 13.5t46 35.5q20 21 32 49t13 58v290h82v-504h-82z" />
    <glyph glyph-name="v" unicode="v" horiz-adv-x="640" 
d="M593 515l-237 -505h-74q-10 22 -28.5 61.5t-41.5 88.5t-48 102.5t-48 102.5t-41.5 88.5t-28.5 61.5h95l186 -416l193 416h73z" />
    <glyph glyph-name="w" unicode="w" horiz-adv-x="884" 
d="M860 513q-52 -127 -104 -252t-104 -251h-66q-37 99 -68 181q-13 35 -26 69t-23 63q-11 28 -18.5 48t-9.5 26q-3 -8 -14.5 -37t-26.5 -69q-16 -40 -34 -85.5t-34 -85.5q-16 -41 -27.5 -71t-15.5 -39h-69q-50 126 -98.5 251t-98.5 252q22 0 43.5 0.5t43.5 0.5
q38 -100 76 -198.5t76 -198.5q38 100 77 198t77 198h70q36 -100 72.5 -197.5t72.5 -197.5q40 100 80 197.5t80 197.5h69z" />
    <glyph glyph-name="x" unicode="x" horiz-adv-x="664" 
d="M536 86q30 -36 49.5 -54.5t25.5 -21.5h-78q-15 0 -35 10t-38 33l-129 166l-186 -209h-94l240 263l-192 244h107l141 -186l163 186h87l-209 -238l148 -193v0z" />
    <glyph glyph-name="y" unicode="y" horiz-adv-x="556" 
d="M505 518l-178 -436q-11 -25 -22.5 -51.5t-23.5 -50.5q-13 -23 -27 -42.5t-30 -31.5q-29 -21 -68.5 -30t-82.5 -8l-43 68q23 0 46.5 0.5t46.5 3.5q22 4 42 12.5t35 24.5q9 9 18 24t18 33t17 37t14 36q-9 17 -25.5 49.5t-36.5 72.5t-42 83.5t-42 83.5q-21 39 -37.5 71.5
t-25.5 50.5h87l161 -317l123 317h76z" />
    <glyph glyph-name="z" unicode="z" horiz-adv-x="584" 
d="M200 74l333 1v-65h-484l324 441l-282 1v66h428l-319 -444v0z" />
    <glyph glyph-name="braceleft" unicode="{" horiz-adv-x="330" 
d="M296 767h-36q-29 0 -41.5 -20t-12.5 -58v-179q0 -22 -7 -40t-18 -33t-24.5 -26.5t-27.5 -20.5q13 -7 27 -17.5t25 -25.5t18 -34.5t7 -44.5v-171q0 -38 12.5 -58t41.5 -20h36v-67h-61q-18 0 -37.5 8t-35.5 24q-17 16 -27.5 39.5t-10.5 54.5v175q0 20 -7.5 37t-19.5 30
t-27 21.5t-31 11.5v76q16 3 31.5 10.5t27.5 19.5t19 28t7 36v186q0 31 10.5 54.5t27.5 39.5q16 16 35.5 24t37.5 8h61v-68z" />
    <glyph glyph-name="bar" unicode="|" horiz-adv-x="314" 
d="M197 798v-818h-80v818h80v0z" />
    <glyph glyph-name="braceright" unicode="}" horiz-adv-x="330" 
d="M35 835h60q18 0 37.5 -8t36.5 -24q16 -16 27 -39.5t11 -54.5v-186q0 -20 7 -36t19 -28t27.5 -19.5t31.5 -10.5v-76q-16 -3 -31 -11.5t-27 -21.5t-19.5 -30t-7.5 -37v-175q0 -31 -11 -54.5t-27 -39.5q-17 -16 -36.5 -24t-37.5 -8h-60v67h35q30 0 42.5 20t12.5 58v171
q0 49 24.5 78.5t52.5 43.5q-14 9 -27.5 20.5t-24.5 26.5t-18 33t-7 40v179q0 38 -12.5 58t-42.5 20h-35v68z" />
    <glyph glyph-name="asciitilde" unicode="~" horiz-adv-x="593" 
d="M526 369q-9 -16 -21 -31.5t-27 -27.5q-16 -12 -35 -19.5t-41 -7.5q-30 0 -57 10.5t-53 23.5t-51 23.5t-50 10.5q-24 0 -48.5 -20.5t-39.5 -49.5l-37 62q9 16 21 31t28 27q15 12 34.5 19t42.5 7q29 0 56 -10.5t53 -22.5t51 -22.5t51 -10.5q23 0 47.5 21t39.5 50z" />
    <glyph glyph-name="uni007F" horiz-adv-x="1000" 
 />
    <glyph glyph-name="uni00A0" unicode="&#xa0;" horiz-adv-x="280" 
d="M0 58z" />
    <glyph glyph-name="exclamdown" unicode="&#xa1;" horiz-adv-x="950" 
d="M450 637h51l13 -269v-382h-79v382zM523 746h-96v100h96v-100z" />
    <glyph glyph-name="currency" unicode="&#xa4;" horiz-adv-x="950" 
d="M475 677q-104 0 -175 -77q-73 -76 -73 -184q0 -106 73 -185q73 -76 175 -76q104 0 174 76q74 77 74 185q0 105 -74 184q-35 37 -79.5 57t-94.5 20zM168 49l-43 46l110 116q-32 43 -51.5 95t-19.5 110q0 121 70 208l-109 116l43 46l111 -117q42 35 90.5 54t105.5 19
q112 0 196 -72l110 116l43 -46l-109 -116q36 -43 53 -95.5t17 -112.5t-16.5 -111.5t-52.5 -95.5l108 -114l-43 -46l-108 114q-85 -73 -198 -73q-57 0 -107 19.5t-92 54.5z" />
    <glyph glyph-name="section" unicode="&#xa7;" horiz-adv-x="950" 
d="M237 826q68 1 105 -52q9 -14 14.5 -27t5.5 -24q0 -19 -18 -32q-38 -27 -58 14q-8 15 -11.5 29t-3.5 26q1 8 -9.5 12t-30.5 5q-41 1 -43 -65q-1 -80 97 -160h-1q107 -86 98 -195q-6 -36 -23.5 -52t-37.5 -23q6 -8 13.5 -22t14.5 -30q6 -17 10.5 -35t4.5 -34
q0 -21 -4.5 -44t-15.5 -46q-35 -64 -104 -63q-32 0 -59 13t-46 34q-36 47 -20 81q18 38 59 20q18 -8 24.5 -22t0.5 -37q-1 -5 -1.5 -8t-0.5 -5q-1 -3 -1 -4q2 -4 11.5 -8t19.5 -7q26 -5 45 20q14 20 14 46q0 16 -6 37q-7 24 -21.5 47t-32.5 40q-22 22 -49.5 53t-47.5 57
q-13 19 -20.5 40.5t-7.5 41.5q0 13 2 25t7 25q9 21 23 33t31 18q2 1 6 2t6 1l-18 27q-14 21 -23 47t-11 53q-3 71 29 108t83 40h1zM292 424q-19 29 -43 50t-43 24q-37 7 -38 -22q0 -21 6.5 -40.5t17.5 -34.5q29 -36 54.5 -54t40.5 -19q14 0 22 7t8 26q0 14 -9 33t-16 30z
" />
    <glyph glyph-name="dieresis" unicode="&#xa8;" horiz-adv-x="950" 
d="M769 908v-112h-110v112h110zM291 908v-112h-110v112h110z" />
    <glyph glyph-name="ordfeminine" unicode="&#xaa;" horiz-adv-x="950" 
d="M770 42h-575v63h575v-63zM684 314q0 -12 2 -26t5 -26q2 -13 4.5 -23.5t4.5 -16.5h-71q-3 11 -7.5 27t-6.5 37q-13 -12 -28 -22t-35 -22q-29 -17 -59 -26.5t-61 -11.5q-40 -2 -73 6t-62 25q-55 37 -60 105q-2 34 6.5 61t25.5 48q16 20 39.5 34.5t50.5 22.5q29 9 57.5 13
t56.5 9q15 2 32 5t33 7t29.5 7.5t22.5 7.5q12 4 18 15t6 23q0 42 -34 76q-31 34 -105 34q-61 0 -106 -31q-39 -30 -39 -95h-69q-1 45 15 80.5t46 61.5q66 51 153 51t148 -49q61 -53 61 -135v-272zM614 493q-11 -5 -23.5 -9t-21.5 -6q-17 -5 -39.5 -9t-50.5 -8
q-30 -4 -49 -6.5t-30 -4.5q-53 -11 -74 -39t-20 -59q2 -42 37.5 -63.5t92.5 -17.5q26 2 57 14.5t60 31.5q61 40 61 87v89z" />
    <glyph glyph-name="uni00AD" unicode="&#xad;" horiz-adv-x="950" 
d="M731 447v-62h-513v62h513z" />
    <glyph glyph-name="registered" unicode="&#xae;" horiz-adv-x="950" 
d="M755 884q83 0 124.5 -40.5t41.5 -114.5v-608q0 -48 -13.5 -82.5t-37.5 -52.5q-47 -38 -101 -38h-589q-32 0 -59.5 9.5t-47.5 29.5q-21 21 -32.5 54t-11.5 80v608q0 74 40.5 114.5t125.5 40.5h560zM771 5q43 0 68.5 28t25.5 76v617q0 42 -22 71.5t-75 29.5h-586
q-54 0 -75.5 -29.5t-21.5 -71.5v-617q0 -23 6.5 -45.5t21.5 -36.5q12 -10 29.5 -16t36.5 -6h592zM787 335l-20 -251h-597v91q0 24 11.5 49t32.5 50t49.5 49t62.5 46q39 24 73 42t63 32q29 12 49.5 26.5t33.5 30.5q13 17 20.5 34t7.5 32q0 16 -2 22q-9 25 -33 39.5t-81 16.5
q-25 1 -48 -6t-37 -15q8 -12 14.5 -27.5t6.5 -28.5q0 -20 -6.5 -39t-18.5 -34q-13 -15 -31.5 -24t-42.5 -9q-56 0 -82 32t-26 80q0 67 84 128q81 57 184 57q181 0 253 -59t72 -138q0 -35 -16 -75q-14 -32 -42 -60.5t-58 -45.5q-26 -14 -62.5 -28t-69.5 -25
q-46 -14 -85.5 -31t-68.5 -31q29 0 59 -0.5t61 -0.5h136q8 0 18 5t16 11q15 20 15 27q7 28 44 28h61z" />
    <glyph glyph-name="degree" unicode="&#xb0;" horiz-adv-x="950" 
d="M6 775q0 28 10 52t27 42t40.5 28.5t49.5 10.5t49 -10.5t41 -28.5q17 -18 27 -42t10 -52t-10 -52t-27 -42q-18 -18 -41 -28t-49 -10t-49.5 10t-40.5 28t-27 42t-10 52zM73 776q0 -26 17.5 -45t42.5 -19t42.5 19t17.5 45t-17.5 45t-42.5 19t-42.5 -19t-17.5 -45z" />
    <glyph glyph-name="plusminus" unicode="&#xb1;" horiz-adv-x="950" 
d="M156 525h284v236h69v-236h285v-66h-285v-236h-69v236h-284v66zM156 143h638v-65h-638v65z" />
    <glyph glyph-name="uni00B2" unicode="&#xb2;" horiz-adv-x="950" 
d="M232 660q-8 -5 -16 -11t-15 -14h143v-59h-223q1 41 20 74.5t59 59.5q8 5 21 14.5t26 18.5q14 11 22.5 23t8.5 26q0 40 -41 40q-24 0 -33.5 -18t-10.5 -40h-64q1 26 8 46t18 34q30 36 83 36q27 0 46.5 -8t32.5 -21q13 -14 19 -32t6 -37t-6 -34.5t-15 -27.5t-20 -21
t-21 -16z" />
    <glyph glyph-name="uni00B3" unicode="&#xb3;" horiz-adv-x="950" 
d="M186 685q0 -20 12 -38.5t38 -18.5q22 0 34 11.5t12 29.5q0 13 -8.5 22t-20.5 11q-10 2 -22 2.5t-29 0.5v58q14 0 28 0.5t20 2.5q11 5 17.5 14t6.5 20q0 14 -10.5 23t-29.5 9q-22 0 -32 -16t-11 -34h-61q1 51 31.5 79.5t73.5 28.5q21 0 39.5 -7.5t32.5 -19.5t22.5 -28.5
t8.5 -34.5q0 -23 -8.5 -39t-19.5 -25q17 -13 27 -30t10 -39q0 -42 -30 -70t-81 -28q-24 0 -45 9.5t-36 25.5t-24 37t-9 44h64z" />
    <glyph glyph-name="acute" unicode="&#xb4;" horiz-adv-x="950" 
d="M487 777q-15 -24 -34.5 -49t-39.5 -48q-21 -24 -40.5 -45.5t-35.5 -37.5q5 20 13 47.5t18 58.5q9 30 19.5 61t21.5 58q2 5 6 14t9 19q5 9 10.5 18t10.5 15q26 37 64 17q35 -21 16 -64q-13 -28 -38 -64z" />
    <glyph glyph-name="paragraph" unicode="&#xb6;" horiz-adv-x="950" 
d="M641 856v-880h-89v817h-68v-817h-89v485q-44 2 -77 16t-59 41q-52 58 -52 141q0 82 54 139q58 58 134 58h246z" />
    <glyph glyph-name="periodcentered" unicode="&#xb7;" horiz-adv-x="200" 
d="M155 472v-112h-110v112h110z" />
    <glyph glyph-name="cedilla" unicode="&#xb8;" horiz-adv-x="200" 
d="M16 25l83 91l-83 86v82l168 -168l-168 -178v87z" />
    <glyph glyph-name="uni00B9" unicode="&#xb9;" horiz-adv-x="950" 
d="M229 582v202h-62v55q17 0 32.5 2.5t22.5 8.5q5 5 9 14.5t6 24.5h52v-307h-60z" />
    <glyph glyph-name="ordmasculine" unicode="&#xba;" horiz-adv-x="950" 
d="M704 493q0 -115 -60 -199q-62 -86 -172 -86t-173 84q-58 83 -58 199q0 117 60 198q64 85 172 85q112 0 172 -84q59 -80 59 -197zM770 42h-575v63h575v-63zM639 491q0 45 -11.5 84.5t-34.5 71.5q-41 62 -118 62q-35 0 -65 -16t-53 -46q-22 -31 -34.5 -71t-12.5 -85
q0 -93 46 -157q40 -61 117 -61q79 0 119 61q47 62 47 157z" />
    <glyph glyph-name="onequarter" unicode="&#xbc;" horiz-adv-x="950" 
d="M138 447h674v-62h-674v62zM290 24v62l210 271h60v-267h67v-66h-67v-79h-71v79h-199zM489 234l-118 -144h118v144zM453 471v274h-88v63q25 1 45.5 5t31.5 11q9 6 16 20t7 34h58v-407h-70z" />
    <glyph glyph-name="onehalf" unicode="&#xbd;" horiz-adv-x="950" 
d="M138 447h674v-63h-674v63zM453 471v274h-88v63q25 1 45.5 5t31.5 11q9 6 16 20t7 34h58v-407h-70zM535 86q-15 -8 -33 -19.5t-35 -26.5q-18 -14 -33 -29.5t-22 -30.5h213v-63h-310q1 29 9 54.5t22 48.5q9 13 18.5 25.5t22.5 24.5q13 11 31 23t44 26q15 8 31 18t30 23
q13 13 21.5 29t8.5 37q0 32 -19 50.5t-56 18.5q-43 0 -64 -24q-8 -11 -13 -29t-6 -38h-69q1 31 10.5 58t24.5 47q20 23 50 36.5t68 13.5q37 0 64.5 -10.5t45.5 -28.5q18 -19 27 -43.5t9 -52.5q0 -54 -30 -88q-12 -14 -28 -26.5t-32 -23.5z" />
    <glyph glyph-name="threequarters" unicode="&#xbe;" horiz-adv-x="950" 
d="M138 448h674v-63h-674v63zM290 24v62l210 271h60v-267h67v-66h-67v-79h-71v79h-199zM489 234l-118 -144h118v144zM388 623q0 -44 20 -67q21 -26 66 -26q38 0 60 21.5t22 54.5q0 19 -9.5 31.5t-23.5 20.5q-15 7 -33 10t-34 2h-26l2 60q14 0 34.5 1t30.5 6q21 10 33.5 25.5
t12.5 35.5q0 26 -18.5 43t-52.5 17q-35 0 -53.5 -20t-18.5 -62h-71q0 36 11.5 63t31.5 46q19 18 45.5 27t56.5 9q26 0 51.5 -8.5t46.5 -24.5q20 -16 32.5 -39t12.5 -53q0 -56 -47 -92q27 -16 43.5 -40.5t16.5 -58.5q0 -30 -11 -55t-31 -43q-21 -19 -49.5 -29t-63.5 -10
q-72 0 -114 41q-43 40 -43 114h70z" />
    <glyph glyph-name="questiondown" unicode="&#xbf;" horiz-adv-x="950" 
d="M693 238q2 -51 -9 -95t-38 -80q-54 -77 -177 -77q-52 0 -95 18.5t-75 56.5q-21 28 -33 58t-12 63q0 75 32.5 126t83.5 77q30 16 50 44.5t20 71.5v136h69v-134q0 -60 -23.5 -102.5t-68.5 -65.5q-43 -23 -69.5 -59t-26.5 -98q0 -27 10.5 -49t28.5 -38q49 -40 114 -40
q82 0 118 51q38 54 34 136h67zM523 746h-96v100h96v-100z" />
    <glyph glyph-name="AE" unicode="&#xc6;" horiz-adv-x="950" 
d="M552 250h-359l-85 -209h-72l305 746h534v-62h-444l108 -265h318v-63h-293l120 -294h200v-62h-247zM219 312h307l-153 377z" />
    <glyph glyph-name="Eth" unicode="&#xd0;" horiz-adv-x="950" 
d="M316 360h270v-63h-270v-194h161q135 0 203 92q74 95 74 219q0 134 -73 222q-71 89 -204 89h-161v-365zM245 297h-153v63h153v427h242q75 0 137.5 -27t109.5 -79q45 -52 69 -120.5t24 -146.5q0 -81 -24 -147.5t-69 -120.5q-47 -51 -110 -78t-137 -27h-242v256z" />
    <glyph glyph-name="multiply" unicode="&#xd7;" horiz-adv-x="950" 
d="M735 46l-261 271l-251 -266l-47 51l254 263l-241 252l45 51l242 -254l239 251l43 -48l-235 -251l258 -267z" />
    <glyph glyph-name="Oslash" unicode="&#xd8;" horiz-adv-x="950" 
d="M338 137q57 -45 136 -45q65 0 111.5 28t76.5 74q30 45 44.5 103.5t14.5 118.5q0 64 -14 117.5t-40 98.5zM623 684q-29 27 -66.5 41.5t-82.5 14.5q-64 0 -110.5 -29t-76.5 -75t-44.5 -104t-14.5 -116q0 -70 16.5 -128t46.5 -103zM250 122q-48 53 -72 127.5t-24 166.5
q0 76 20 147t60 126q40 54 100 86.5t140 32.5q111 0 190 -65l91 140l56 -37l-103 -150q40 -53 63 -124t23 -156q0 -71 -19 -141t-58 -126t-99.5 -90.5t-143.5 -34.5q-97 0 -175 55l-96 -146l-54 38z" />
    <glyph glyph-name="Thorn" unicode="&#xde;" horiz-adv-x="950" 
d="M480 79q-61 0 -105.5 21.5t-73.5 56.5v-126h-70v766h70v-199q32 38 79.5 61.5t99.5 23.5q59 0 105 -26t78 -69q31 -43 47.5 -97t16.5 -110q0 -53 -15.5 -106.5t-45.5 -96.5q-31 -44 -77.5 -71.5t-108.5 -27.5zM475 614q-44 0 -76 -21.5t-52 -55.5q-21 -34 -31 -75
t-10 -81q0 -38 8.5 -79t28.5 -75q20 -35 52.5 -57.5t79.5 -22.5q46 0 78 21t53 55q20 33 29.5 75t9.5 83q0 37 -9 78.5t-29 75.5q-21 34 -53.5 56.5t-78.5 22.5z" />
    <glyph glyph-name="germandbls" unicode="&#xdf;" horiz-adv-x="950" 
d="M301 24v562q-4 48 9.5 84.5t40.5 62.5q26 25 62 38t77 13q38 0 70.5 -14t55.5 -38t36.5 -56.5t14.5 -69.5q1 -25 -3.5 -50.5t-14.5 -47.5q-11 -22 -27.5 -40t-40.5 -28l-1 -1q26 -8 48 -25t38 -41q15 -25 23.5 -56.5t7.5 -68.5q0 -45 -14 -83t-41 -65
q-27 -28 -67.5 -43.5t-94.5 -15.5h-61v67h47q36 0 65.5 7.5t50.5 24.5q21 16 32.5 42.5t11.5 64.5q0 79 -43 113t-118 34h-45v70h37q26 0 51.5 8.5t45.5 25.5q20 16 32.5 39.5t12.5 53.5q0 61 -30 93t-92 32q-26 0 -46 -10t-34 -26q-14 -17 -21.5 -38.5t-6.5 -43.5v-574h-68
z" />
    <glyph glyph-name="ae" unicode="&#xe6;" horiz-adv-x="950" 
d="M736 374q-2 75 -31.5 118t-86.5 43q-29 0 -50.5 -14.5t-36.5 -37.5q-16 -24 -25 -52.5t-12 -56.5h242zM423 325q-5 -6 -25 -10.5t-46 -8.5q-26 -5 -52 -9.5t-42 -9.5q-38 -13 -54.5 -39t-15.5 -55q2 -39 29.5 -59.5t69.5 -17.5q17 1 41 13.5t46 30.5q21 18 35.5 39
t13.5 41v85zM618 40q-38 1 -71 18.5t-57 46.5q2 -15 5 -27t5 -19h-67q-4 9 -7 22t-5 27q-14 -12 -30.5 -23.5t-35.5 -20.5q-19 -10 -38 -16t-37 -7q-32 -2 -61 6.5t-51 26.5q-23 17 -36.5 43.5t-14.5 61.5q-2 52 14 85t43 54q27 20 63 30.5t75 16.5q15 2 34 4.5t36 9.5
q17 6 28.5 18.5t11.5 34.5q0 47 -29 77t-78 30q-46 0 -76 -33.5t-30 -91.5h-70q-2 42 10.5 77t36.5 61t57 40.5t72 14.5q50 0 91.5 -25.5t64.5 -73.5q27 45 63 71.5t84 26.5q93 0 143 -73.5t50 -226.5h-318q-1 -32 6.5 -66t23.5 -63q15 -29 38.5 -47.5t54.5 -18.5
q48 0 73.5 29t36.5 75h73q-9 -32 -23.5 -63.5t-35.5 -56.5q-22 -25 -52 -40.5t-70 -14.5z" />
    <glyph glyph-name="eth" unicode="&#xf0;" horiz-adv-x="950" 
d="M301 282q4 -37 18.5 -69.5t37.5 -56.5q22 -25 52.5 -39.5t67.5 -14.5q36 0 66 14.5t53 39.5q23 24 37.5 57t18.5 69h-351zM447 393l-40 48l123 110q-29 12 -53 12q-66 0 -105 -32t-56 -83h-74q10 40 30.5 74t49.5 58t68 37.5t87 12.5q29 0 57 -7t54 -22l98 89l40 -48
l-87 -78q42 -42 64.5 -102t22.5 -129q0 -56 -16.5 -109.5t-47.5 -95.5q-32 -42 -78.5 -67.5t-106.5 -25.5q-59 0 -107 25t-81 68q-34 42 -50.5 98t-11.5 119h428q-2 57 -21.5 99.5t-49.5 71.5z" />
    <glyph glyph-name="divide" unicode="&#xf7;" horiz-adv-x="950" 
d="M146 450h657v-69h-657v69zM474 749q29 0 48.5 -22t19.5 -51t-19.5 -49t-48.5 -20t-48.5 20t-19.5 49t19.5 51t48.5 22zM475 225q13 0 25 -6t22 -15q9 -10 15 -23t6 -27t-6 -27t-15 -22q-10 -10 -22 -16t-25 -6q-26 0 -47 18t-21 53q0 28 19.5 49.5t48.5 21.5z" />
    <glyph glyph-name="oslash" unicode="&#xf8;" horiz-adv-x="950" 
d="M293 128q-33 42 -50.5 96t-17.5 116q0 57 16 110.5t48 95.5q31 42 77.5 67t107.5 25q37 0 69 -9t63 -32l60 89l46 -37l-61 -91q36 -42 54 -97t18 -121q0 -56 -16 -109.5t-47 -94.5q-32 -42 -78.5 -67.5t-107.5 -25.5q-77 0 -137 43l-54 -79l-48 36zM376 146
q23 -18 46.5 -27.5t51.5 -9.5q44 0 77.5 21t56.5 55q22 33 33 74t11 81q0 94 -42 154zM567 541q-20 14 -44 22t-49 8q-44 0 -77 -21t-55 -54q-23 -34 -34.5 -75t-11.5 -81q0 -85 39 -149z" />
    <glyph glyph-name="thorn" unicode="&#xfe;" horiz-adv-x="950" 
d="M249 787h69v-249q36 38 81 58t103 20q41 0 77 -16t63 -44t42 -65t13 -80v-370h-69v362q0 34 -10.5 61t-28.5 46t-43.5 29.5t-55.5 10.5t-60.5 -12.5t-54.5 -32.5q-24 -21 -40 -48t-17 -56v-360h-69v746z" />
    <glyph glyph-name="dcroat" unicode="&#x111;" horiz-adv-x="950" 
d="M477 474q-39 0 -70.5 -16t-53.5 -43t-34 -61.5t-12 -70.5q0 -37 11.5 -71.5t33.5 -60.5q22 -27 53.5 -43t71.5 -16q39 0 70.5 16t54.5 42q22 26 34 60.5t12 72.5q0 36 -12 70.5t-34 61.5q-23 27 -54.5 43t-70.5 16zM472 542q54 0 99.5 -19.5t76.5 -55.5v145h-327v63h327
v124h71v-124h124v-63h-124v-570h-71v55q-32 -39 -77 -56.5t-99 -17.5t-98 21.5t-75 57.5t-48 83t-17 98q0 54 16 101.5t47 82.5q30 35 74.5 55t100.5 20z" />
    <glyph glyph-name="Hbar" unicode="&#x126;" horiz-adv-x="950" 
d="M198 664v123h69v-123h418v123h69v-123h103v-63h-103v-560h-69v361h-418v-361h-69v560h-106v63h106zM267 601v-137h418v137h-418z" />
    <glyph glyph-name="hbar" unicode="&#x127;" horiz-adv-x="950" 
d="M255 656v132h71v-132h321v-62h-321v-141q28 35 73 57t111 22q41 0 77.5 -17.5t63.5 -46.5q27 -30 41.5 -69t12.5 -82v-275h-71v267q-1 31 -10 59t-26 50q-18 21 -43 33.5t-58 12.5q-30 0 -60.5 -14.5t-54.5 -37.5q-24 -24 -39.5 -53t-16.5 -57v-260h-71v552h-130v62h130z
" />
    <glyph glyph-name="dotlessi" unicode="&#x131;" horiz-adv-x="950" 
d="M510 41h-70v556h70v-556zM510 715h-70v72h70v-72z" />
    <glyph glyph-name="IJ" unicode="&#x132;" horiz-adv-x="950" 
d="M197 789h70v-747h-70v747zM430 295v-75q0 -32 12 -55.5t31 -39.5q19 -17 42.5 -25t46.5 -8q24 0 47.5 8t42.5 24q18 16 30 40t12 56v569h70v-563q0 -42 -15 -79t-41 -64q-27 -28 -64 -44t-82 -16q-42 0 -79.5 14t-65.5 40t-44 63.5t-13 85.5v69h70z" />
    <glyph glyph-name="ij" unicode="&#x133;" horiz-adv-x="950" 
d="M367 42h-71v557h71v-557zM367 717h-71v72h71v-72zM655 726h-71v72h71v-72zM655 -24q0 -20 -4.5 -40t-13.5 -37q-10 -16 -26.5 -26.5t-40.5 -10.5h-48v62h20q24 0 33 14t9 40v630h71v-632z" />
    <glyph glyph-name="kgreenlandic" unicode="&#x138;" horiz-adv-x="950" 
d="M314 41h-69v566h69v-275l263 275h84l-215 -237l271 -329h-85l-234 285l-84 -81v-204z" />
    <glyph glyph-name="Ldot" unicode="&#x13f;" horiz-adv-x="950" 
d="M657 407q19 0 35 -16t16 -37q0 -20 -16 -36t-35 -16q-20 0 -36 16t-16 36q0 21 16 37t36 16zM304 787v-684h425v-62h-494v746h69z" />
    <glyph glyph-name="ldot" unicode="&#x140;" horiz-adv-x="950" 
d="M639 580q50 0 50 -51q0 -50 -49 -50q-51 0 -51 50q1 51 50 51zM417 787h69v-746h-69v746z" />
    <glyph glyph-name="Lslash" unicode="&#x141;" horiz-adv-x="950" 
d="M232 453v334h69v-273l115 101l42 -45l-157 -140v-327h425v-62h-494v327l-82 -72l-40 50z" />
    <glyph glyph-name="lslash" unicode="&#x142;" horiz-adv-x="950" 
d="M440 353l-142 -124l-44 54l186 161v343h70v-283l148 130l43 -53l-191 -167v-373h-70v312z" />
    <glyph glyph-name="napostrophe" unicode="&#x149;" horiz-adv-x="950" 
d="M250 598h69v-59q36 38 81 58t103 20q41 0 77 -16t63 -44t42 -65.5t13 -79.5v-371h-69v362q0 34 -10.5 61t-28.5 46t-43.5 29.5t-55.5 10.5t-60.5 -12.5t-54.5 -32.5q-24 -21 -40 -48t-17 -56v-360h-69v557z" />
    <glyph glyph-name="Eng" unicode="&#x14a;" horiz-adv-x="950" 
d="M416 23q43 4 78.5 22.5t61.5 49.5q25 30 39.5 71.5t14.5 92.5q0 42 -9 83.5t-29 74.5q-21 33 -53 54t-77 21q-43 0 -72 -21t-47 -53q-18 -33 -26 -73t-9 -77v-226h-71v699h71v-250q25 31 64 50.5t88 19.5q60 0 106 -26t78 -68q31 -43 47 -97.5t16 -110.5q0 -132 -71 -215
q-34 -38 -85 -61.5t-115 -26.5v67z" />
    <glyph glyph-name="eng" unicode="&#x14b;" horiz-adv-x="950" 
d="M629 403q0 34 -10.5 61.5t-28.5 46.5t-43.5 29.5t-55.5 10.5q-74 0 -122 -53q-50 -52 -50 -96v-360h-69v556h69v-59q37 38 81.5 58t102.5 20q41 0 77 -16t63 -44t42 -65t13 -80v-352q0 -22 -4.5 -45t-15.5 -43q-11 -19 -29 -31.5t-44 -13.5h-66v62h24q32 2 49.5 21
t16.5 53v340z" />
    <glyph glyph-name="OE" unicode="&#x152;" horiz-adv-x="950" 
d="M875 763h-354q57 -48 89 -118.5t38 -165.5h209v-63h-208q-5 -98 -37.5 -179.5t-89.5 -133.5h362v-62h-530q-137 0 -217 112q-78 109 -78 280t78 280q80 112 217 112h521v-62zM354 757q-100 0 -162 -89q-30 -46 -46.5 -106t-16.5 -129q0 -143 63 -236q60 -88 162 -88
t162 88q62 94 62 236q0 69 -16 129t-46 106q-62 89 -162 89z" />
    <glyph glyph-name="oe" unicode="&#x153;" horiz-adv-x="950" 
d="M317 535q-36 0 -59.5 -21t-37.5 -53t-20 -69t-6 -69t5.5 -69.5t20.5 -68.5q14 -32 37.5 -53t59.5 -21t59.5 21.5t37.5 53.5t20 69t6 68t-6 68t-20 69t-37.5 53.5t-59.5 21.5zM754 374q-1 75 -30.5 118t-86.5 43q-28 0 -50 -15t-38 -38t-25 -51.5t-11 -56.5h241zM317 606
q56 0 95.5 -31.5t64.5 -85.5q25 54 64.5 85.5t95.5 31.5q91 0 141.5 -73.5t50.5 -226.5h-317q-1 -32 6.5 -66t23.5 -63q15 -29 38.5 -47.5t54.5 -18.5q45 0 71.5 29t38.5 75h73q-9 -32 -23.5 -63.5t-35.5 -56.5q-22 -25 -52 -40.5t-70 -14.5q-52 1 -92.5 33t-66.5 85
q-26 -54 -66.5 -86t-94.5 -32q-51 0 -87 27t-59 69q-24 42 -34.5 92t-10.5 95q0 46 10.5 96t33.5 92q23 41 59.5 68t87.5 27z" />
    <glyph glyph-name="Tbar" unicode="&#x166;" horiz-adv-x="950" 
d="M440 430h-248v63h248v241h-248v63h566v-63h-248v-241h248v-63h-248v-389h-70v389z" />
    <glyph glyph-name="tbar" unicode="&#x167;" horiz-adv-x="950" 
d="M411 420v115h-54v63h54v161h69v-161h64v-63h-64v-115h169v-63h-169v-199q0 -14 0.5 -24t4.5 -16q3 -7 12 -10t26 -4h21v-63h-55q-21 0 -36 10t-24 27q-10 16 -14 36t-4 41v202h-158v63h158z" />
    <glyph glyph-name="caron" unicode="&#x2c7;" horiz-adv-x="950" 
d="M475 754v1l-219 117l41 63l178 -103l176 102l34 -54zM475 754h-1h1z" />
    <glyph glyph-name="uni02D0" unicode="&#x2d0;" horiz-adv-x="950" 
d="M230 508l-91 161h177zM226 324l90 -161h-177z" />
    <glyph glyph-name="breve" unicode="&#x2d8;" horiz-adv-x="950" 
d="M308 932q29 -43 74.5 -70.5t92.5 -27.5q48 0 93.5 27.5t75.5 71.5l58 -44q-42 -57 -101 -91.5t-126 -34.5q-66 0 -125.5 34.5t-101.5 91.5z" />
    <glyph glyph-name="dotaccent" unicode="&#x2d9;" horiz-adv-x="950" 
d="M474 673q-97 0 -97 100q0 101 97 101t97 -101q0 -100 -97 -100z" />
    <glyph glyph-name="ring" unicode="&#x2da;" horiz-adv-x="950" 
d="M475 842q-26 0 -41.5 -16t-15.5 -45t15.5 -45t41.5 -16t41.5 16t15.5 45t-15.5 45t-41.5 16zM475 909q26 0 48 -10.5t39 -28.5q16 -18 25.5 -41t9.5 -48t-9.5 -48t-25.5 -41q-17 -18 -39 -28.5t-48 -10.5t-48 10.5t-38 28.5q-17 18 -26.5 41t-9.5 48t9.5 48t26.5 41
q16 18 38 28.5t48 10.5z" />
    <glyph glyph-name="ogonek" unicode="&#x2db;" horiz-adv-x="950" 
d="M540 -60l-168 176l168 168v-82l-85 -87l85 -90v-85z" />
    <glyph glyph-name="hungarumlaut" unicode="&#x2dd;" horiz-adv-x="950" 
d="M437 777q-15 -24 -34.5 -49t-39.5 -48q-21 -24 -40.5 -45.5t-35.5 -37.5q5 20 13 47.5t18 58.5q9 30 19.5 61t21.5 58q2 5 6 14t9 19q5 9 10.5 18t10.5 15q26 37 64 17q35 -21 16 -64q-13 -28 -38 -64zM597 777q-15 -24 -34.5 -49t-39.5 -48q-21 -24 -40.5 -45.5
t-35.5 -37.5q5 20 13 47.5t18 58.5q9 30 19.5 61t21.5 58q2 5 6 14t9 19q5 9 10.5 18t10.5 15q26 37 64 17q35 -21 16 -64q-13 -28 -38 -64z" />
    <glyph glyph-name="Alpha" unicode="&#x391;" horiz-adv-x="950" 
d="M584 727q12 21 28 21q17 0 21 -25l63 -602q2 -19 7 -23q3 -2 13.5 -2.5t27.5 -0.5q36 0 28 -31q-8 -22 -36 -22h-184q-29 0 -29 27q0 14 12 20t24 6q23 0 35 1t16 6q2 3 2.5 10t-0.5 15l-13 137h-238q-34 -56 -54.5 -87.5t-30.5 -47.5q-11 -17 -13.5 -22.5t-0.5 -7.5
q2 -3 13 -3.5t29 -0.5q37 0 29 -31q-8 -22 -36 -22h-162q-14 0 -21 5t-7 20q0 12 10.5 20t24.5 8q19 0 32 3t23 11q9 7 17.5 19t19.5 29zM592 321l-28 273l-168 -273h196z" />
    <glyph glyph-name="Beta" unicode="&#x392;" horiz-adv-x="950" 
d="M145 41q-38 0 -30 30q7 23 36 23q53 0 63 7q5 3 10 12.5t9 20.5l129 508q3 11 3.5 18.5t-1.5 9.5q-8 6 -58 6q-29 0 -29 27q5 14 14.5 20t21.5 6h270q38 2 76.5 -7.5t66.5 -30.5q28 -22 40.5 -55.5t0.5 -79.5q-15 -55 -55 -97.5t-94 -59.5q21 -8 39.5 -18.5t33.5 -25.5
q14 -15 22.5 -34t8.5 -43q0 -21 -6 -48q-17 -56 -52 -92.5t-80 -57.5q-46 -22 -99.5 -30.5t-106.5 -8.5h-233zM386 421h37q48 0 81.5 3.5t58.5 12.5q23 10 45.5 25t40.5 34q17 19 28 42.5t11 52.5q0 33 -14.5 50t-39.5 25t-59 9t-74 1q-17 0 -29.5 -2t-17.5 -4
q-2 -4 -5.5 -12.5t-7.5 -19.5zM312 128q-9 -28 -7 -30q4 -4 42 -4q22 0 47.5 0.5t51.5 2.5q39 -3 74.5 12t61.5 41t41.5 61t15.5 73q0 34 -18.5 49.5t-45.5 21.5t-59 7t-59 5h-84z" />
    <glyph glyph-name="Gamma" unicode="&#x393;" horiz-adv-x="950" 
d="M352 642q4 15 2 22t-9 10q-8 3 -21 2.5t-29 -0.5q-36 0 -28 29q6 24 36 24h470q21 0 26 -4.5t0 -26.5l-40 -200q-11 -28 -32 -28q-8 0 -14 6t-6 20q2 23 3.5 44t1.5 37q0 64 -16 75q-32 24 -205 24q-16 0 -25.5 -0.5t-15.5 -3.5t-10 -11t-8 -23l-123 -488
q-5 -20 -9 -31.5t0 -18.5q3 -5 17 -5.5t43 -0.5q35 0 29 -29q-5 -24 -37 -24h-218q-20 0 -27 8t-4 22q7 23 37 23q58 0 67 9q4 4 10 19t12 34z" />
    <glyph glyph-name="uni0394" unicode="&#x394;" horiz-adv-x="950" 
d="M565 594l-288 -468q-9 -14 -11 -20.5t2 -8.5q4 -3 14 -3.5t26 -0.5h252q38 0 47.5 7t6.5 25zM702 125q2 -15 3.5 -29.5t-1.5 -25.5q-4 -12 -14 -19.5t-31 -8.5h-422q-24 0 -35.5 5.5t-11.5 23.5q0 9 6.5 23t18.5 35l370 599q7 11 14.5 16t13.5 5q16 0 20 -26z" />
    <glyph glyph-name="Epsilon" unicode="&#x395;" horiz-adv-x="950" 
d="M651 279q4 10 13 14t18 2t15 -8.5t3 -16.5l-64 -210q-3 -10 -12 -14.5t-20 -4.5h-482q-36 0 -30 30q7 23 36 23h29.5t22.5 3q9 3 16.5 11.5t13.5 25.5l129 508q4 15 2 22.5t-10 10.5q-8 2 -20.5 1.5t-27.5 -0.5q-29 0 -29 27q5 14 14.5 20t21.5 6h472q21 0 26 -4.5
t0 -26.5l-40 -200q-7 -20 -17.5 -29.5t-18.5 -9.5q-22 0 -15 38v-1q1 16 4 40t3 48q0 23 -4 42t-16 27q-34 23 -206 23h-24.5t-15.5 -3t-10.5 -11t-8.5 -24q-14 -55 -27.5 -110t-27.5 -109q50 0 76.5 4t40.5 9q17 5 30.5 32t27.5 63q8 20 17 31.5t17 11.5t13.5 -12.5
t0.5 -36.5l-65 -256q-7 -17 -16.5 -25.5t-17.5 -8.5q-20 0 -17 33v-1l2.5 22.5t2.5 26.5q0 13 -1.5 23.5t-6.5 13.5q-24 14 -118 16l-61 -237q-7 -20 1 -27t34 -7q95 0 152 6.5t79 18.5q45 25 96 160z" />
    <glyph glyph-name="Zeta" unicode="&#x396;" horiz-adv-x="950" 
d="M609 677q-141 0 -178 -23q-17 -10 -40 -53.5t-49 -109.5q-4 -10 -13 -13t-17 -1q-9 2 -14.5 8.5t-2.5 15.5q10 34 21 69.5t22 70.5q5 16 9.5 31.5t9.5 31.5q8 26 34 26h403q13 0 19 -3.5t6 -9.5q0 -7 -5 -16t-12 -19l-532 -587h122q144 0 179 23q17 10 40 53.5t49 108.5
q3 7 11 9.5t17 0.5q8 -2 13.5 -7t4.5 -12l-64 -210q-4 -10 -12.5 -14.5t-19.5 -4.5h-435q-28 0 -25.5 14t16.5 34l528 587h-85z" />
    <glyph glyph-name="Eta" unicode="&#x397;" horiz-adv-x="950" 
d="M637 424l51 196q6 22 8.5 34t-1.5 17q-5 4 -18.5 4.5t-40.5 0.5q-16 0 -24 7t-5 21q4 25 37 25h219q38 0 28 -31q-8 -22 -36 -22q-29 0 -44 -1.5t-22 -7.5q-8 -6 -12 -18.5t-10 -34.5l-118 -464q-6 -21 -7.5 -32.5t3.5 -16.5q5 -6 18 -6.5t37 -0.5q36 0 31 -29
q-2 -12 -12.5 -18t-25.5 -6h-218q-37 0 -29 30q6 23 37 23q22 0 36 1.5t24 7.5q9 6 15 18.5t12 34.5l54 211h-307l-56 -217q-5 -22 -7 -33.5t3 -16.5t18.5 -5.5t37.5 -0.5q36 0 30 -29q-5 -24 -37 -24h-219q-37 0 -29 30q7 23 37 23q21 0 35.5 0.5t24.5 6.5q9 6 15 18.5
t12 36.5l119 464q7 22 8.5 33.5t-4.5 16.5t-19.5 5.5t-36.5 0.5q-35 0 -30 28q2 13 12 19t25 6h219q38 0 28 -31q-7 -22 -36 -22q-24 0 -38 -1t-22 -7t-14 -18.5t-13 -35.5l-49 -190h306z" />
    <glyph glyph-name="Theta" unicode="&#x398;" horiz-adv-x="950" 
d="M560 749q76 0 126 -33.5t77 -85.5q26 -53 30 -117t-11 -126q-18 -65 -55.5 -129t-89.5 -114q-53 -50 -117.5 -81t-135.5 -31q-73 0 -124 33t-79 85t-33 116.5t13 126.5q16 67 54 131t92 114q53 50 118 80.5t135 30.5zM552 690q-61 0 -109.5 -27.5t-85.5 -70.5
q-38 -44 -65 -98t-43 -107q-14 -45 -15.5 -97t14.5 -96q15 -45 49.5 -74.5t94.5 -29.5t109.5 27t88.5 71q38 43 64.5 97t40.5 108q13 45 15 97t-13 97q-15 44 -49.5 73.5t-95.5 29.5zM390 362q-9 0 -15.5 -6t-8.5 -13q-5 -14 -14.5 -29.5t-26.5 -15.5q-18 0 -20 14t3 35
l29 99q6 17 13.5 31.5t20.5 14.5q11 0 17.5 -10t4.5 -21q-1 -10 -1.5 -21t13.5 -12h157q13 0 20 10.5t12 21.5q5 12 12 22.5t22 10.5q17 0 19.5 -14.5t-5.5 -40.5l-28 -100q-6 -17 -13 -29t-21 -12q-17 0 -20.5 17.5t-2.5 32.5q0 6 -2.5 10.5t-7.5 4.5h-157z" />
    <glyph glyph-name="Iota" unicode="&#x399;" horiz-adv-x="950" 
d="M462 150q-5 -23 -8 -34.5t1 -16.5t17.5 -5h40.5q37 0 29 -30q-9 -23 -36 -23h-220q-38 0 -30 30q7 23 38 23q28 0 42.5 1t22.5 7q8 5 12 17.5t11 36.5l117 464q5 21 6.5 32.5t-2.5 16.5q-5 5 -18 6t-37 1q-38 0 -30 29q7 24 37 24h220q38 0 28 -31q-7 -22 -36 -22
q-30 0 -44 -1t-20 -7q-7 -6 -11 -18.5t-13 -35.5z" />
    <glyph glyph-name="Kappa" unicode="&#x39a;" horiz-adv-x="950" 
d="M298 257l-26 -106q-6 -21 -7.5 -32.5t4.5 -16.5q5 -6 18 -6.5t36 -0.5q36 0 30 -29q-5 -24 -37 -24h-218q-20 0 -27 8t-4 22q7 23 37 23q22 0 36.5 1t24.5 7t16 18.5t12 35.5l118 464q4 21 5.5 32t-2.5 17q-5 5 -18 6t-37 1q-30 0 -30 27q1 14 12.5 20t24.5 6h218
q40 0 30 -31q-8 -22 -36 -22q-24 0 -38 -1t-23 -6q-9 -6 -15 -18.5t-13 -36.5l-66 -261l342 300q20 18 9.5 20t-62.5 3q-36 0 -28 29q7 24 35 24h231q37 0 29 -31q-8 -22 -35 -22q-31 0 -54.5 -5.5t-49.5 -27.5l-246 -216l153 -301q11 -22 29 -27t46 -5q32 0 27 -29
q-2 -11 -11.5 -17.5t-23.5 -6.5h-240q-29 0 -29 28q10 25 37 25q48 0 62 5t9 17l-125 255z" />
    <glyph glyph-name="Lambda" unicode="&#x39b;" horiz-adv-x="950" 
d="M564 592l-286 -465q-8 -13 -12.5 -19.5t-2.5 -9.5t11.5 -3.5t29.5 -0.5q37 0 29 -31q-8 -22 -36 -22h-162q-14 0 -23 7.5t-5 22.5q2 9 11.5 16t23.5 7q19 0 32 3t23 11q10 7 18.5 19t18.5 29l350 570q12 21 28 21q17 0 21 -25l63 -602q2 -18 10.5 -22t37.5 -4
q36 0 28 -31q-8 -22 -36 -22h-184q-15 0 -24 7t-5 20q3 14 13.5 20t22.5 6q32 0 43.5 7.5t9.5 24.5z" />
    <glyph glyph-name="Mu" unicode="&#x39c;" horiz-adv-x="950" 
d="M311 604l-117 -458q-5 -19 -7.5 -29.5t1.5 -15.5q3 -5 14 -6t34 -1q35 0 29 -30q-5 -23 -36 -23h-182q-38 0 -30 29q7 24 37 24q21 0 33 1t20 7q7 5 11.5 16.5t11.5 33.5l121 471q4 19 6 29.5t-2 15.5t-14.5 6t-31.5 1q-15 0 -24 7.5t-6 20.5q2 14 13 20t24 6h148
q16 0 19 -6t5 -23l45 -502l292 508h-1q5 9 12.5 16t17.5 7h148q17 0 24.5 -8t4.5 -22q-5 -24 -35 -24q-17 0 -30.5 1t-22.5 -2q-10 -3 -17 -11.5t-11 -26.5l-124 -486q-6 -22 -7.5 -33.5t3.5 -16.5q4 -5 17.5 -5.5t37.5 -0.5q35 0 29 -30q-5 -23 -36 -23h-218q-20 0 -27 7.5
t-4 21.5q7 24 37 24q24 0 38.5 0.5t23.5 6.5t15 18.5t12 36.5l111 438l-311 -538q-16 -29 -31 -29q-9 0 -15.5 6.5t-6.5 17.5z" />
    <glyph glyph-name="Nu" unicode="&#x39d;" horiz-adv-x="950" 
d="M712 623q4 18 7 28.5t0 16.5q-4 5 -15 6t-33 1q-33 0 -31 28q0 14 12 20t26 6h182q38 0 28 -31q-9 -23 -36 -23q-21 0 -33 -1t-19 -6t-12 -17t-12 -34l-145 -571q-4 -8 -11 -13.5t-16 -5.5q-17 0 -25 19l-226 565l-118 -465q-5 -18 -7.5 -28.5t1.5 -15.5q3 -5 13.5 -6.5
t33.5 -1.5q36 0 30 -30q-5 -23 -37 -23h-182q-37 0 -29 29q7 24 37 24q21 0 33.5 1t20.5 7t12.5 17.5t9.5 32.5l120 471q5 19 7 29.5t-1 15.5q-4 5 -15 6t-33 1q-14 0 -22.5 7.5t-6.5 20.5q2 14 13 20t23 6h122q10 0 17 -6.5t12 -15.5l199 -499z" />
    <glyph glyph-name="Xi" unicode="&#x39e;" horiz-adv-x="950" 
d="M155 42q-31 0 -25 30l42 194q2 11 8.5 19t15.5 10q16 2 21.5 -9t5.5 -23q-6 -44 -6 -73q0 -28 6 -43.5t19 -22.5q13 -8 33.5 -10t49.5 -3h171q46 0 74.5 9t47.5 29q19 19 33.5 49t31.5 72q6 18 14.5 25.5t16.5 7.5q10 0 16 -11t1 -31l-62 -194q-5 -14 -12 -19.5t-21 -5.5
h-481zM778 730q17 0 24 -7t2 -24l-42 -193q-3 -12 -10.5 -19.5t-15.5 -9.5q-11 -2 -19 6t-6 24q2 20 3.5 37.5t1.5 31.5q0 29 -6 46t-18 26q-13 8 -33.5 10.5t-49.5 2.5h-117q-47 0 -75 -8.5t-47 -27.5t-33 -49.5t-31 -74.5q-5 -10 -14.5 -14t-18.5 -3t-15.5 6t-4.5 14
l66 201q8 25 32 25h427zM376 352q-9 0 -15.5 -6.5t-9.5 -14.5q-5 -14 -15 -28.5t-26 -14.5q-22 0 -22.5 14t6.5 39l28 95q7 17 14 31.5t20 14.5q11 0 17 -9.5t6 -20.5q0 -4 -1 -9.5t-1 -10.5q0 -6 2.5 -9.5t9.5 -4.5h192q12 0 20 12t11 22q5 11 13 21t22 10q17 0 19.5 -13.5
t-4.5 -39.5l-28 -94q-7 -21 -14 -35t-21 -14t-18.5 10t-5.5 22t-1.5 22t-7.5 11h-190z" />
    <glyph glyph-name="Omicron" unicode="&#x39f;" horiz-adv-x="950" 
d="M560 749q75 0 125 -33.5t77 -85.5q26 -53 30.5 -117.5t-10.5 -125.5q-18 -65 -55.5 -129t-89.5 -114q-53 -50 -117.5 -81t-135.5 -31q-76 0 -125.5 32t-75.5 84q-26 51 -31 115.5t9 129.5q16 67 54 131t92 114q53 50 118 80.5t135 30.5zM552 690q-61 0 -109.5 -27.5
t-85.5 -70.5q-38 -44 -65 -98t-43 -107q-14 -45 -15.5 -97t13.5 -96q15 -45 50 -74.5t95 -29.5t109.5 27t88.5 71q38 43 64.5 97t40.5 108q12 44 14 96t-12 97q-15 44 -49.5 74t-95.5 30z" />
    <glyph glyph-name="Pi" unicode="&#x3a0;" horiz-adv-x="950" 
d="M539 676q-25 0 -45 1t-36 -3q-17 -5 -29.5 -18.5t-22.5 -41.5l-110 -438q-8 -29 -12 -45t0 -24q4 -9 17 -11t40 -2q37 0 28 -30q-7 -23 -36 -23h-219q-36 0 -30 30q7 23 37 23q26 0 40.5 2.5t23.5 11.5t15.5 26.5t15.5 47.5l111 438q4 21 6 32t-3 17q-5 5 -18 6t-37 1
q-37 0 -29 29q7 24 37 24h547q37 0 29 -31q-8 -22 -36 -22q-24 0 -38 -1t-23 -6q-9 -6 -15 -18.5t-13 -36.5l-114 -438q-8 -29 -11.5 -45t0.5 -24q4 -9 18 -11t42 -2q37 0 28 -30q-9 -23 -36 -23h-219q-39 0 -31 30q7 23 38 23q30 0 44.5 2t22.5 11t13 26.5t15 48.5l110 438
q8 21 4 32.5t-19 17.5q-15 5 -40.5 5.5t-59.5 0.5z" />
    <glyph glyph-name="Rho" unicode="&#x3a1;" horiz-adv-x="950" 
d="M485 676h-22t-15 -3q-7 -3 -12 -11t-10 -24l-63 -244h97q43 0 84.5 11t73.5 34t51.5 59t19.5 86q0 44 -28.5 68t-84.5 24h-91zM577 729q36 -1 71.5 -9t63.5 -25q27 -17 44 -44t17 -66q0 -50 -23.5 -94.5t-61.5 -77.5q-39 -34 -88.5 -54t-101.5 -20h-148l-49 -189
q-6 -21 -8 -32.5t4 -16.5q5 -6 18.5 -6.5t37.5 -0.5q35 0 30 -29q-5 -24 -37 -24h-219q-37 0 -29 30q6 23 37 23q24 0 38.5 1t23.5 7q8 6 13 18.5t12 35.5l125 486q5 14 2 21t-12 10t-21.5 3h-25.5q-37 0 -29 29q7 24 36 24h280z" />
    <glyph glyph-name="Sigma" unicode="&#x3a3;" horiz-adv-x="950" 
d="M180 41q-20 0 -30 6t-10 14t7.5 19.5t18.5 25.5l258 280l-116 289q-6 18 -6 30q0 14 8.5 19t28.5 5h438q21 0 26 -4.5t0 -26.5l-40 -196q-9 -28 -31 -28q-8 0 -14 6.5t-7 20.5l2 58q0 82 -21 93q-22 11 -83 19t-162 5q-14 0 -24 0.5t-15 -1.5t-5.5 -8.5t4.5 -21.5v1
l94 -225v-1q5 -11 3 -23.5t-16 -29.5l-250 -264q-4 -9 10 -9q121 0 197 6.5t108 18.5q29 11 58 52t55 104q3 8 11.5 10.5t17.5 0.5q8 -2 14 -7.5t4 -12.5l-60 -201q-1 -12 -12.5 -18t-21.5 -6h-439z" />
    <glyph glyph-name="Tau" unicode="&#x3a4;" horiz-adv-x="950" 
d="M759 730q21 0 26 -4.5t0 -26.5l-41 -200q-2 -19 -14 -29t-21 -10t-14 9.5t-2 29.5q2 12 5.5 34t5.5 46q1 23 -1.5 44t-11.5 32q-22 25 -99 25q-23 0 -32.5 -3.5t-17.5 -25.5l-127 -500q-6 -21 -8 -32.5t4 -16.5q5 -6 18.5 -6.5t37.5 -0.5q35 0 29 -29q-5 -24 -37 -24
h-219q-36 0 -30 30q7 23 37 23q23 0 37 0.5t23 6.5q9 5 15 18t13 37l127 500q3 14 -2 18.5t-29 4.5q-78 0 -115 -26q-17 -14 -39 -55.5t-47 -107.5q-4 -10 -13 -13.5t-17 -1.5q-9 2 -15 8.5t-3 16.5l62 203q5 17 12.5 21.5t21.5 4.5h481z" />
    <glyph glyph-name="Upsilon" unicode="&#x3a5;" horiz-adv-x="950" 
d="M402 151q-4 -18 -7 -29t0 -17q2 -6 12 -8t33 -2q37 0 31 -29q-5 -24 -37 -24h-188q-39 0 -31 30q7 23 38 23q21 0 32.5 1t17.5 7t10 18.5t10 35.5l64 250q12 48 20 99.5t0 101.5q-11 66 -110 66q-27 0 -27 19q0 9 9.5 17.5t24.5 9.5q84 3 127.5 -32.5t55.5 -120.5
q18 29 44.5 58.5t58.5 53.5q31 23 65.5 38t67.5 14q36 0 54 -25t9 -62q-5 -28 -28 -44.5t-48 -16.5q-18 0 -32.5 16t-11.5 42q1 5 3 11.5t4 10.5q-33 -12 -67 -41.5t-62 -66.5q-29 -37 -49.5 -77t-26.5 -71z" />
    <glyph glyph-name="Phi" unicode="&#x3a6;" horiz-adv-x="950" 
d="M454 168q45 7 83 26.5t69 48.5q30 29 51.5 65.5t33.5 78.5q24 79 -8 137t-118 78zM245 381q-12 -40 -9.5 -75t19.5 -63q16 -29 45.5 -48.5t71.5 -28.5l111 435q-44 -7 -82.5 -26.5t-69.5 -48.5q-31 -30 -53 -66.5t-33 -78.5zM344 102q8 3 14 15q-52 3 -95 27t-71 62
q-29 37 -39 84t4 97q13 51 47.5 98t81.5 84q47 36 102 58.5t108 25.5q2 12 -7 19q-5 4 -52 4q-31 0 -31 27q10 26 37 26h220q38 0 28 -31q-7 -22 -35 -22q-47 0 -64 -7q-2 -3 -6.5 -8t-7.5 -10q52 -4 95 -28t71 -61q28 -38 37.5 -85t-3.5 -96q-13 -52 -47 -98t-80 -82
q-47 -36 -101.5 -58t-108.5 -26q-2 -14 11.5 -18.5t48.5 -4.5t30 -29q-5 -24 -36 -24h-220q-38 0 -30 30q6 23 37 23q46 0 62 8z" />
    <glyph glyph-name="Chi" unicode="&#x3a7;" horiz-adv-x="950" 
d="M434 393l-91 246q-6 15 -12 22.5t-14 10.5t-19.5 3.5t-29.5 0.5q-17 0 -24.5 7.5t-3.5 21.5q7 24 36 24h224q37 0 29 -31q-8 -22 -36 -22h-34t-22 -2t-9.5 -8.5t4.5 -19.5l66 -180l176 210h-54q-29 0 -29 27q10 26 37 26h196q36 0 28 -31q-8 -22 -34 -22q-20 0 -32.5 -1
t-21.5 -5q-10 -4 -20 -12.5t-25 -23.5l-198 -231l91 -250q7 -21 17 -33t21 -17q11 -6 22.5 -7.5t23.5 -1.5q34 0 28 -29q-3 -24 -35 -24h-234q-30 0 -30 28q10 25 36 25q24 0 39.5 -1t23.5 3q7 4 6.5 15t-7.5 35l-67 183l-161 -188l-27 -30t-7 -14t16.5 -3.5t44.5 0.5
q17 0 24.5 -8t2.5 -22q-7 -23 -35 -23h-208q-17 0 -22.5 9t-5.5 19q5 13 14 18.5t21 6.5q23 1 37.5 3t26.5 9q11 7 23 19t30 33z" />
    <glyph glyph-name="Psi" unicode="&#x3a8;" horiz-adv-x="950" 
d="M452 293q45 7 75 21.5t50 38.5q19 23 30.5 57.5t19.5 82.5q10 39 20.5 80.5t28.5 75.5t47.5 56t77.5 22q51 0 59 -33q7 -29 -3 -50.5t-50 -21.5q-21 0 -29 25q-3 11 -4 21t-9 8q-17 -2 -29 -37.5t-17 -92.5q-5 -139 -78 -219.5t-203 -84.5l-22 -92q-6 -22 -8.5 -33.5
t2.5 -16.5q4 -5 17.5 -5.5t39.5 -0.5q37 0 29 -30q-9 -23 -37 -23h-219q-38 0 -30 30q6 23 38 23q24 0 38 1t23 7q8 6 13.5 18.5t13.5 35.5l21 87q-33 2 -63.5 12.5t-53.5 30.5q-23 19 -37 47t-14 64q0 69 45 161q35 73 35 102q0 14 -13 15q-13 -2 -29 -32q-15 -25 -34 -25
q-18 0 -34 18q-19 26 4 62q20 29 70 29q38 0 64 -17t31 -61q3 -27 -7.5 -72t-26.5 -88q-12 -32 -20 -60.5t-8 -48.5t9 -35.5t24 -26.5q14 -11 32 -17.5t37 -9.5l85 329q6 21 7.5 32.5t-3.5 17.5q-5 5 -18 5.5t-37 0.5q-31 0 -31 27q1 14 12.5 20t25.5 6h220q38 0 28 -31
q-8 -22 -36 -22q-24 0 -38 -1t-22 -6q-9 -6 -15 -18.5t-13 -36.5z" />
    <glyph glyph-name="uni03A9" unicode="&#x3a9;" horiz-adv-x="950" 
d="M494 112h12q40 0 67 6.5t46 22.5q19 15 34 40.5t31 64.5q5 11 12.5 16.5t14.5 5.5q9 0 13.5 -11t-1.5 -30l-53 -166q-4 -8 -9.5 -13.5t-21.5 -5.5h-221l43 171q54 4 103.5 32t86.5 72q37 43 59 97t22 110q0 37 -11 68t-32 53t-52 34.5t-71 12.5q-51 0 -97 -20t-83 -53
q-38 -34 -64.5 -77.5t-38.5 -91.5q-11 -41 -9.5 -82.5t17.5 -74.5q16 -34 48.5 -56t83.5 -25l-43 -170h-221q-34 0 -27 31q8 39 15.5 79.5t15.5 79.5q2 9 9.5 13.5t16.5 4.5q8 0 14.5 -4.5t6.5 -13.5q-2 -12 -2.5 -23t-0.5 -19q0 -30 7.5 -45.5t22.5 -22.5q14 -7 36 -8
t52 -2h14l14 58q-47 10 -82 39.5t-56 69.5t-26.5 86.5t8.5 90.5q14 60 51.5 113t89.5 92t113 61.5t123 22.5q52 0 96.5 -16.5t77.5 -45.5q32 -30 50.5 -71.5t18.5 -91.5q0 -73 -33.5 -137.5t-90.5 -115.5q-42 -38 -84.5 -63t-99.5 -36z" />
    <glyph glyph-name="alpha" unicode="&#x3b1;" horiz-adv-x="950" 
d="M265 502q30 0 64 -17q26 -14 40 -36.5t15 -57.5l30 56q5 10 10.5 20t13.5 17q7 6 17 8.5t22 -2.5q18 -8 18 -32q0 -23 -20 -52q-9 -15 -19.5 -31.5t-22.5 -38.5q-13 -22 -28 -50.5t-34 -67.5q-9 -18 -12.5 -38.5t-1.5 -37.5v1q3 -18 14 -28t24 -11q27 2 38.5 -8.5
t2.5 -28.5q-20 -32 -67 -27q-20 3 -35 9.5t-27 18.5q-13 14 -21 34q-10 -10 -25.5 -22.5t-32.5 -23.5q-18 -13 -35.5 -20t-36.5 -7q-32 0 -57 14t-42 37q-18 23 -27 52t-7 59q2 26 11 59.5t24 68.5q15 34 36 67t48 59q26 26 57 41.5t66 15.5zM298 441q-40 13 -88 -35
q-45 -45 -74 -107.5t-34 -122.5q-1 -14 1.5 -28.5t10.5 -26.5q7 -12 19 -19.5t29 -7.5q34 0 65 34q51 56 73.5 111t27.5 120q2 31 -5.5 52.5t-24.5 29.5z" />
    <glyph glyph-name="beta" unicode="&#x3b2;" horiz-adv-x="950" 
d="M101 25q-8 -53 -19 -78t-39 -21q-30 9 -27 46q9 68 28 151.5t42 168.5q22 84 46 162.5t43 136.5q12 31 26 56.5t32 43.5t41.5 28t53.5 10q34 0 64 -13.5t52 -36.5q22 -24 34.5 -56t12.5 -69q0 -23 -7.5 -50t-20.5 -51q-14 -24 -34.5 -42t-45.5 -22q11 -6 21 -22t17 -37
t10 -44.5t1 -44.5q-3 -32 -15 -68t-32 -67t-48.5 -52t-65.5 -22q-48 -3 -84.5 15t-65.5 74zM121 122v-1v1zM277 376q-27 6 -44.5 21t-16.5 32q5 20 18 24.5t37 -0.5q14 -3 28 -7l28 -8q18 -5 33 7.5t26 31.5t18 40t9 34q2 46 -9.5 77.5t-50.5 43.5q-40 8 -73 -21.5
t-53 -86.5q-29 -92 -54.5 -187.5t-32.5 -195.5q6 -16 17 -31t26 -26q15 -12 33 -18.5t38 -4.5q30 3 49.5 22t31.5 45t17 54.5t6 51.5q0 14 -3 29.5t-8 29.5q-5 13 -10.5 23.5t-9.5 16.5q-11 0 -25 0.5t-25 2.5z" />
    <glyph glyph-name="gamma" unicode="&#x3b3;" horiz-adv-x="950" 
d="M97 425q-29 -61 -53 -48q-24 18 10 88q18 34 47 48.5t66 11.5q55 -7 82 -49t29 -111v-107q1 1 8.5 14t19.5 34q12 20 27 44.5t30 49.5q14 24 26.5 45t21.5 34q42 62 79 31q31 -27 -14 -86q-60 -58 -107.5 -125.5t-81.5 -145.5q-9 -19 -16 -33.5t-13 -28.5
q-6 -15 -12.5 -31t-13.5 -39q-17 -48 -38 -75t-47 -13q-32 21 -26 59q1 8 12.5 30.5t27.5 49.5q15 27 31.5 53.5t28.5 42.5q1 10 2 47t1 101q1 58 -16 93t-49 46q-42 9 -62 -30z" />
    <glyph glyph-name="delta" unicode="&#x3b4;" horiz-adv-x="950" 
d="M355 319q0 22 -4 45t-15 42t-29.5 31t-47.5 12q-34 0 -60 -25t-43 -60q-17 -36 -26 -75.5t-9 -67.5q0 -22 5 -46t16 -44t30 -33t48 -13q34 0 59.5 26t42.5 63q17 36 25 76t8 69zM377 449q15 -15 26.5 -34.5t20.5 -41.5q8 -22 12.5 -45t4.5 -45q0 -41 -14.5 -85t-41.5 -81
t-65 -61t-85 -24q-45 0 -81.5 18t-61.5 49q-26 30 -40 69.5t-14 81.5q0 44 14.5 88.5t41.5 80.5q27 35 65.5 58t86.5 24q-20 24 -38.5 56.5t-18.5 70.5q0 20 7.5 39t21.5 34q13 15 30.5 24t37.5 9q38 0 76 -19.5t68 -49.5t49 -65.5t19 -67.5q0 -16 -13.5 -29.5t-30.5 -13.5
q-22 0 -42 37q-9 16 -20 39t-25 45q-14 21 -31.5 37t-39.5 18q-14 2 -29.5 -5t-15.5 -33q0 -22 14 -47t34 -49q19 -24 40.5 -45.5t37.5 -36.5z" />
    <glyph glyph-name="epsilon" unicode="&#x3b5;" horiz-adv-x="950" 
d="M342 428q-2 17 -11 27t-23 15t-31 6.5t-34 1.5q-38 0 -64 -21t-26 -57q0 -24 12.5 -39.5t31.5 -23.5q19 -9 41 -12t42 -3q23 1 41 -2t18 -26q0 -20 -23.5 -22.5t-56.5 -0.5q-57 -3 -89 -26t-32 -65q0 -45 34 -70.5t95 -25.5q33 0 59 16t29 54q1 23 16 42.5t42 16.5
q20 -4 29.5 -22.5t3.5 -39.5q-19 -54 -70 -85.5t-115 -31.5q-35 0 -71.5 7.5t-66.5 24.5t-49.5 44.5t-19.5 66.5q0 42 24 72.5t67 46.5q-32 14 -54 41t-22 65q0 32 16.5 55.5t42.5 39.5q25 15 55.5 22.5t59.5 7.5q26 0 56.5 -3.5t58.5 -13.5q28 -11 49 -30t27 -51
q3 -20 -8.5 -34t-28.5 -19q-25 -5 -38.5 10.5t-16.5 41.5z" />
    <glyph glyph-name="zeta" unicode="&#x3b6;" horiz-adv-x="950" 
d="M236 742q16 -20 4.5 -35t-36.5 -33q-22 -17 -33.5 -33.5t-11.5 -30.5q0 -9 6.5 -17.5t15.5 -13.5q31 -4 54 8t43 30q19 18 37.5 35.5t40.5 23.5q13 7 25 9.5t22 2.5q27 0 38 -22q7 -17 -3 -33.5t-26 -31.5q-17 -15 -36.5 -27.5t-32.5 -19.5q-29 -16 -61.5 -29.5
t-66.5 -15.5q-17 -24 -37.5 -52.5t-37.5 -59.5q-18 -32 -29.5 -64.5t-11.5 -64.5q0 -48 30.5 -77t84.5 -29q57 -1 88 -22t39 -73q5 -32 -8.5 -58t-37.5 -44t-54.5 -27.5t-59.5 -9.5q-11 0 -29 0.5t-35 4.5q-17 5 -29.5 14t-12.5 26t16.5 29.5t54.5 9.5q10 -1 30 -5t41 -5
q20 0 36.5 6t19.5 24q5 27 -36 33q-39 4 -75.5 13.5t-63.5 28.5q-28 18 -45 48t-17 77q0 39 11 78t29 76q17 37 38.5 71.5t42.5 66.5q-27 13 -42.5 36t-15.5 59q1 27 15 52.5t40 47.5q60 49 82 23z" />
    <glyph glyph-name="eta" unicode="&#x3b7;" horiz-adv-x="950" 
d="M172 396q-2 22 -12 33t-24 12q-32 -5 -46.5 1t-5.5 26q11 17 28 26.5t39 7.5q32 -4 52.5 -19.5t35.5 -46.5q10 12 23.5 25t29.5 23t33.5 16.5t34.5 6.5q32 0 59 -11t46 -30q18 -20 27.5 -47.5t5.5 -61.5v1q-1 -23 -8 -58t-18 -75t-25 -81.5t-28 -77.5q-14 -37 -27 -65.5
t-22 -41.5q-14 -21 -28.5 -28.5t-34.5 1.5q-20 10 -24.5 24t5.5 36q7 15 15 31.5t16 34.5q4 9 8 17l9 18q4 9 9.5 22t13.5 33q22 56 40 111.5t23 117.5q3 30 -11 52t-55 22q-21 0 -41 -15t-36 -37q-17 -22 -29.5 -46.5t-18.5 -43.5q-12 -38 -22 -78t-22 -85
q-31 -117 -80 -98q-24 11 -24 41q0 15 10.5 41t27.5 55q26 47 40.5 102t10.5 109z" />
    <glyph glyph-name="theta" unicode="&#x3b8;" horiz-adv-x="950" 
d="M344 735q39 -8 65 -32.5t42 -58.5q16 -35 22 -76.5t6 -83.5q-1 -42 -8 -81.5t-17 -70.5q-15 -45 -36.5 -96.5t-51.5 -95.5q-30 -45 -70 -74.5t-91 -29.5q-45 0 -75.5 21.5t-49.5 56.5q-19 34 -27.5 78t-9.5 89t4 87t13 74q18 69 47.5 126.5t67.5 99.5q32 34 76 55.5
t93 11.5zM235 625q-25 -38 -47 -89.5t-39 -112.5h231q5 29 7.5 58t2.5 55q0 17 -2.5 40t-8.5 45q-7 22 -17.5 38.5t-26.5 21.5q-24 5 -51.5 -11t-48.5 -45zM136 372q-8 -37 -11 -71t-3 -64q0 -20 3 -43.5t10 -44.5q6 -21 17 -36.5t27 -19.5q26 -8 49.5 4t43.5 36t36.5 56.5
t28.5 66.5q12 33 19.5 64t10.5 52h-231z" />
    <glyph glyph-name="iota" unicode="&#x3b9;" horiz-adv-x="950" 
d="M237 517q16 -4 24 -17.5t3 -31.5q-10 -41 -24.5 -77.5t-29.5 -72.5q-15 -37 -28.5 -76.5t-21.5 -85.5q-5 -35 30 -41q11 -3 26 0t25 13q41 41 56 5q11 -26 -36 -67q-23 -19 -45 -25.5t-44 -3.5q-30 2 -49.5 21t-26.5 45q-5 17 -5 38t2 32q9 68 31 134t39 134q3 15 8 30
t14 27q8 11 20.5 16.5t31.5 2.5z" />
    <glyph glyph-name="kappa" unicode="&#x3ba;" horiz-adv-x="950" 
d="M203 503q38 -6 38 -37q0 -10 -6.5 -26.5t-15.5 -36.5q-9 -21 -18 -43t-13 -42h32q25 0 42 23.5t37 65.5q28 50 60 76.5t71 19.5q24 -5 43 -22t18 -49q-2 -24 -17.5 -33.5t-35.5 -10.5q-26 -1 -47 28q-29 -7 -45 -43q-11 -30 -28 -52.5t-45 -42.5h-1q17 -11 26.5 -30
t9.5 -41q0 -49 4.5 -70.5t18.5 -25.5q14 -2 26 7t20 23q25 51 54 40q14 -7 14.5 -22.5t-10.5 -38.5q-10 -23 -25 -42t-33 -31q-19 -12 -42 -16t-48 4q-22 7 -33 22t-16 35q-5 19 -5.5 40t-0.5 41v21t-2 25t-7.5 21t-16.5 10l-37 2q-9 -27 -15 -55t-11 -54q-6 -26 -11.5 -48
t-11.5 -37q-8 -14 -20.5 -19.5t-29.5 2.5q-22 8 -22 36q0 19 7 37q5 14 13.5 39.5t18.5 57.5q9 32 19.5 68t20.5 71q9 34 16.5 64.5t11.5 51.5q9 43 48 37z" />
    <glyph glyph-name="lambda" unicode="&#x3bb;" horiz-adv-x="950" 
d="M179 688q0 17 14 30.5t32 13.5q22 0 53 -22q35 -25 51.5 -54.5t22.5 -62.5q5 -34 3.5 -71t-2.5 -77q-1 -45 0 -78.5t4 -59.5q3 -27 9 -48.5t15 -42.5q4 -10 13.5 -28.5t19.5 -39.5q9 -21 16.5 -40t7.5 -29q0 -14 -11.5 -29.5t-28.5 -15.5q-15 0 -28 15.5t-23 37.5
q-10 21 -17.5 43t-11.5 36q-16 51 -18.5 106.5t-3.5 123.5q-19 -31 -39 -62.5t-38 -63.5q-19 -33 -35 -68t-27 -74q-13 -46 -36 -74t-50 -21q-28 10 -28 38q0 17 6 34.5t15 35.5q9 17 19.5 33.5t20.5 31.5q45 68 91 136t98 141q0 4 6 51q-4 34 -18.5 58t-46.5 39
q-18 11 -29 19.5t-17 15.5q-6 6 -7.5 11.5t-1.5 10.5z" />
    <glyph glyph-name="uni03BC" unicode="&#x3bc;" horiz-adv-x="950" 
d="M124 240q13 57 26.5 112t38.5 112q14 32 33 43t41 -1q20 -12 20 -37q0 -13 -5.5 -30.5t-15.5 -37.5q-15 -29 -30.5 -60t-29.5 -63t-25 -65t-15 -67q4 -8 10 -17.5t15 -16.5q8 -8 20 -11.5t29 1.5q21 2 36.5 10t26.5 19t18 24t12 26q23 64 38.5 131t35.5 133q3 11 8.5 22
t13.5 20q8 8 19 12t26 1q15 -5 20 -17.5t4 -27.5q-1 -16 -5.5 -31.5t-8.5 -26.5q-18 -51 -39.5 -100.5t-44.5 -108.5q-3 -8 -5.5 -20t-1.5 -23t7.5 -18.5t21.5 -7.5q10 0 17.5 5t14.5 12q6 6 13.5 11t16.5 5q8 0 10.5 -10.5t-2.5 -25.5q-4 -15 -12.5 -29t-20.5 -24
q-13 -10 -28.5 -14.5t-32.5 -1.5q-20 7 -33.5 21t-19.5 30q-33 -34 -58.5 -44.5t-56.5 -10.5q-27 0 -48 11t-39 31q-4 -14 -5.5 -32.5t-5.5 -48.5q0 -19 -6 -34t-14 -25q-9 -9 -18.5 -13t-17.5 -2q-16 5 -24 16t-8 26q0 12 4.5 28.5t11.5 35.5q14 25 24 48.5t18 47.5
t14 50.5t12 57.5z" />
    <glyph glyph-name="nu" unicode="&#x3bd;" horiz-adv-x="950" 
d="M145 502q34 10 54 -36q9 -21 13 -46t4 -52q2 -32 -4 -68t-16 -69q-11 -34 -25 -61t-28 -41q38 14 79 42.5t75 66.5t56.5 83.5t23.5 92.5q1 45 11.5 66.5t26.5 19.5q8 -4 13.5 -14.5t5.5 -30.5q0 -15 -2 -35t-6 -46q-20 -104 -79.5 -186t-160.5 -130q-44 -18 -77.5 -24
t-43.5 5q-13 18 10 64q12 22 23.5 50t20.5 58t14 59.5t4 55.5q0 8 -1 17.5t-3 24.5q-3 14 -6 33.5t-8 48.5q-3 40 26 52z" />
    <glyph glyph-name="xi" unicode="&#x3be;" horiz-adv-x="950" 
d="M246 368q-32 4 -60 -7t-48 -32q-21 -21 -32 -50t-9 -61q11 -74 101 -70q112 3 124 -97q2 -27 -9 -49.5t-30 -39.5t-44 -26.5t-51 -9.5q-31 0 -39 29q-4 16 13 29t46 12q40 -1 41 30q1 12 -13 19.5t-33 12.5t-38 8t-29 6q-59 22 -81 63.5t-21 88.5q1 61 28 102t76 76
q-16 16 -29 35.5t-13 45.5q0 49 22.5 76.5t49.5 41.5q0 11 0.5 22.5t3.5 23.5q6 22 18.5 39.5t30.5 29.5t39.5 18t44.5 6q44 0 45 -38q1 -39 -77 -36q-24 1 -37.5 -7.5t-11.5 -22.5q0 -6 13.5 -7t31.5 0q17 0 34.5 2t26.5 2q11 0 30 -1.5t37 -7.5t29.5 -17.5t7.5 -30.5
q-7 -32 -52 -32q-35 0 -70.5 9t-72.5 8q-16 -1 -32.5 -5t-29.5 -13q-14 -9 -21.5 -23t-5.5 -33q3 -44 45 -42q32 1 54.5 1.5t33.5 0.5q13 0 35 -1.5t43 -7.5q21 -7 35 -20t10 -35q-8 -41 -68 -30q-47 9 -92 15z" />
    <glyph glyph-name="omicron" unicode="&#x3bf;" horiz-adv-x="950" 
d="M254 518q45 1 82.5 -18t64.5 -51q27 -33 42.5 -74t15.5 -84q0 -45 -16 -90.5t-45 -81.5q-29 -37 -68.5 -60t-87.5 -23q-45 0 -82.5 19t-64.5 51q-27 31 -42 71.5t-15 84.5q0 47 15.5 92.5t44.5 82.5q28 36 67.5 58.5t88.5 22.5zM362 244q7 29 9 67t-7 72t-32 57.5
t-66 23.5q-38 0 -65 -21.5t-44 -53.5q-18 -32 -26.5 -70.5t-8.5 -72.5q0 -25 6 -52.5t19 -50.5q13 -24 33.5 -39t50.5 -15q28 0 50.5 15.5t39.5 39.5q16 23 26.5 50t14.5 50z" />
    <glyph glyph-name="pi" unicode="&#x3c0;" horiz-adv-x="950" 
d="M59 373q-12 11 -8.5 29t18.5 43q14 23 46.5 35t65.5 12q23 1 50.5 -0.5t59.5 -2.5q41 0 87 1t87 12q25 7 38 -3t11 -40q-5 -42 -32 -46q-3 0 -15 -0.5t-28 -0.5q-17 0 -35 -0.5t-32 -1.5q-12 -56 -22.5 -120.5t-10.5 -124.5q0 -8 2 -19t7 -19q5 -9 13 -12.5t20 3.5
q9 6 22 6q22 0 19 -35q-3 -14 -13 -25t-24 -18t-30 -9t-29 3q-20 7 -31.5 18t-16.5 26q-5 14 -6 31t1 37q5 65 18.5 129t19.5 134q-20 0 -39 -0.5t-40 1.5q-15 -65 -28 -130.5t-35 -133.5l-19 -47.5t-21 -39.5q-8 -11 -21 -17.5t-25 -5.5q-13 1 -22 10t-9 28q0 22 11.5 45.5
t23.5 40.5q21 31 34.5 59t23.5 57q10 28 16.5 59.5t13.5 70.5q-10 0 -21.5 -0.5t-22.5 -2.5q-11 -3 -20.5 -8.5t-15.5 -15.5q-8 -14 -15.5 -16t-20.5 4z" />
    <glyph glyph-name="rho" unicode="&#x3c1;" horiz-adv-x="950" 
d="M403 373q-5 15 -13.5 29t-20.5 25t-26.5 18t-31.5 7q-35 0 -60.5 -23t-42.5 -56t-25 -70t-8 -65q0 -22 5 -47t16 -46q11 -22 30 -36t48 -14q34 0 58.5 16t41.5 42t26 57.5t13 62.5q3 31 0 57.5t-10 42.5zM286 42q-52 0 -94 27t-70 78v-1q-5 -30 -1 -60.5t4 -62.5v-29
t-4 -33t-14 -27t-29 -12q-18 2 -25.5 18t-7.5 46q0 69 10.5 137.5t28.5 140.5q9 40 25 82.5t43 77.5q26 35 62.5 57.5t86.5 22.5q42 0 77.5 -18t61.5 -48q26 -31 40.5 -70.5t14.5 -81.5q0 -41 -14.5 -84t-41.5 -78q-27 -36 -66 -59t-87 -23z" />
    <glyph glyph-name="sigma" unicode="&#x3c3;" horiz-adv-x="950" 
d="M400 447q-17 5 -37 7.5t-40 2.5q51 -25 81.5 -69.5t30.5 -106.5t-29 -122q-20 -37 -52 -66t-67 -44q-19 -7 -35.5 -10.5t-33.5 -3.5q-51 0 -90 24.5t-61 65.5q-23 40 -27 92t16 106q13 37 36 71t55 62q31 27 70 45t85 22q24 2 57.5 0.5t58.5 -12.5q15 -8 23 -19t4 -24
q-5 -14 -16.5 -20.5t-28.5 -0.5zM168 102q19 -11 41.5 -8t40.5 17q23 17 42.5 39t36.5 54q15 30 23 59.5t7 58.5q0 55 -44 79q-27 14 -52 10t-47 -19t-40.5 -38t-32.5 -47q-11 -23 -19.5 -51.5t-7.5 -56.5q0 -29 11.5 -55t40.5 -42z" />
    <glyph glyph-name="tau" unicode="&#x3c4;" horiz-adv-x="950" 
d="M288 424q-23 -48 -38.5 -101t-28.5 -105q-2 -8 -6 -23t-5 -31t3 -29.5t18 -17.5q29 -8 58 4q22 9 37.5 4t13.5 -22q-1 -16 -12 -28.5t-28 -21.5q-17 -8 -38 -12t-41 -3q-53 2 -72.5 35.5t-12.5 85.5q5 23 17.5 62t30.5 93q16 45 25 74t8 37q-14 0 -31.5 0.5t-34.5 -0.5
q-17 -2 -32.5 -8.5t-24.5 -19.5q-10 -14 -19.5 -17t-20.5 5q-21 19 15 77q15 21 43 31.5t66 8.5q14 0 29 -0.5t34 -0.5q19 -1 43.5 -1.5t57.5 -0.5q29 1 51 3.5t37 9.5q23 10 35.5 -1t10.5 -42q-5 -43 -28 -46q-28 -4 -57 -2t-59 3q-44 2 -44 0z" />
    <glyph glyph-name="upsilon" unicode="&#x3c5;" horiz-adv-x="950" 
d="M103 441q0 68 49 68q26 -1 35.5 -17.5t9.5 -39.5t-6.5 -47t-12.5 -39v1q-8 -18 -19 -44t-21 -53q-10 -28 -17.5 -55.5t-7.5 -49.5q0 -14 4.5 -28t13.5 -25t21.5 -17.5t28.5 -6.5q13 0 28.5 4.5t29.5 13.5q30 18 59 54.5t51 80.5q22 43 33 88t4 80q-3 21 -3 36q0 44 36 43
q19 -1 30.5 -15.5t16.5 -34.5q5 -21 5 -43.5t-3 -37.5q-8 -43 -32.5 -98.5t-60.5 -105.5q-37 -50 -84 -84.5t-100 -34.5q-71 0 -105.5 38.5t-32.5 104.5q4 33 12.5 65t17.5 65q8 32 14 65.5t6 68.5z" />
    <glyph glyph-name="phi" unicode="&#x3c6;" horiz-adv-x="950" 
d="M31 258q0 44 17 88.5t48 79.5q30 34 72 54t92 15q20 -2 29.5 -9t9.5 -15q0 -6 -3 -7q7 2 13 3.5t14 1.5q28 0 51.5 -20.5t40.5 -50.5t26.5 -63.5t9.5 -59.5q0 -45 -15.5 -87t-45.5 -75t-73 -53.5t-98 -21.5q-1 -7 -5.5 -20.5t-6.5 -25.5q-10 -41 -26.5 -55t-38.5 -6
q-20 8 -22.5 21t3.5 35q4 17 12.5 33t14.5 35q-26 13 -47.5 35t-37.5 50t-25 58.5t-9 59.5zM217 347q8 28 22.5 54t37.5 49q-23 0 -46.5 -9.5t-44.5 -27.5q-21 -19 -37.5 -47t-26.5 -64q-6 -23 -8 -49.5t3 -52.5q4 -26 15 -49.5t32 -41.5q8 29 15 61l14 64q6 32 12 61t12 52
zM228 89q35 3 61 25.5t44 54.5q17 31 25.5 68t8.5 69q0 33 -10 62.5t-28 53.5q-15 5 -26.5 -14t-20.5 -46t-14.5 -53.5t-7.5 -36.5z" />
    <glyph glyph-name="chi" unicode="&#x3c7;" horiz-adv-x="950" 
d="M229 272q-5 27 -8 53.5t-6 54.5q-5 51 -27 61q-7 4 -15 2t-14 -10q-32 -40 -50 -18q-9 12 -5 30t17 35q13 16 33.5 28t44.5 12q35 1 56.5 -26t23.5 -71l2 -40t4 -43q19 21 39.5 46t37.5 48q7 8 15 22t18 28q9 13 19 22.5t21 9.5q8 0 16.5 -4t16.5 -10q7 -7 11.5 -15
t4.5 -17q0 -19 -20 -34q-50 -50 -92 -88.5t-74 -84.5q0 -4 2.5 -15t6.5 -24q3 -13 6 -25.5t5 -18.5q15 -50 34 -59q23 -10 36 9q28 44 47 19q8 -10 8 -26t-15 -39q-15 -22 -33 -33.5t-33 -13.5q-10 -2 -23 2.5t-25 13.5q-13 10 -25 23.5t-19 31.5q-8 19 -13.5 43t-10.5 45
q-27 -34 -54 -68.5t-59 -66.5q-36 -35 -63 -6q-11 14 -10 29t15 29z" />
    <glyph glyph-name="psi" unicode="&#x3c8;" horiz-adv-x="950" 
d="M125 171q0 -21 9 -41t31 -31q3 5 8 20.5t11 35.5q5 20 11 41t10 38q14 50 20.5 102t20.5 106q7 25 21 37t35 7q20 -6 26.5 -23.5t0.5 -39.5q-4 -17 -11.5 -38t-15.5 -43q-14 -35 -23 -68t-20 -62q-2 -3 -7 -20.5t-10 -38.5l-11 -38.5t-6 -20.5q22 5 44.5 20.5t40.5 34.5
q39 44 47 123q4 42 14.5 78.5t28.5 66.5q6 10 14.5 22t19.5 23q10 10 23.5 17t30.5 9q20 2 27 -9.5t0 -19.5q-8 -10 -15 -14.5t-16 -7.5q-34 -19 -41 -126q-6 -111 -66 -183q-16 -18 -36.5 -32t-41.5 -24q-22 -10 -44 -16.5t-41 -9.5q-2 -11 -6 -31t-9 -36q-7 -26 -25 -43
t-44 -8q-15 4 -25.5 18t-1.5 34q3 7 7 10.5t9 5.5q4 2 8.5 5.5t8.5 10.5q5 11 7 19.5t6 19.5q-46 13 -71.5 51t-25.5 87q0 29 7 61.5t23 69.5q13 31 19.5 53t6.5 39q0 20 -11 29q-9 8 -16 17t-7 17q0 9 9.5 13.5t31.5 -0.5q27 -8 40.5 -29t15.5 -43q2 -29 -4.5 -67
t-20.5 -80q-8 -26 -14.5 -53t-6.5 -45z" />
    <glyph glyph-name="omega" unicode="&#x3c9;" horiz-adv-x="950" 
d="M256 472q2 -11 -11.5 -25t-37.5 -31q-21 -18 -35.5 -43t-23.5 -54q-10 -29 -14 -59.5t-3 -57.5q0 -12 2 -30t8 -35q5 -17 14.5 -28.5t24.5 -10.5q11 -2 21 4.5t18 18.5q7 12 12 27t7 32q4 42 9 78.5t13 67.5q3 12 9 28.5t16 31.5q9 15 22 25t30 9q15 -2 24.5 -16.5
t9.5 -33.5q0 -32 -10.5 -66t-26.5 -63q-4 -12 -9.5 -26t-10.5 -29q-6 -16 -10 -32t-4 -31q0 -16 10 -29.5t29 -13.5q21 0 36.5 13t26.5 34t18.5 47.5t12.5 54.5q4 27 5.5 53t1.5 46q0 23 -2.5 42.5t-7.5 33.5q-8 25 -9.5 49t6.5 32q39 35 75 -80q5 -16 9 -39t6 -49
q2 -27 0.5 -54.5t-7.5 -52.5q-24 -87 -67.5 -137t-98.5 -50q-32 2 -54 21t-36 47q-15 -20 -38 -37t-58 -17q-26 0 -54 22q-28 24 -40.5 61.5t-11.5 87.5q1 38 8 75.5t22 72.5q14 34 37 64.5t57 53.5q33 22 52 22q12 0 20 -7.5t8 -16.5z" />
    <glyph glyph-name="uni0401" unicode="&#x401;" horiz-adv-x="950" 
d="M220 787h512v-62h-443v-265h425v-63h-425v-294h451v-62h-520v746zM381 944q23 0 38 -16t15 -39t-15 -39t-38 -16q-20 0 -36 16t-16 39t16 39t36 16zM569 944q21 0 37 -16t16 -39t-16 -39t-37 -16q-20 0 -36.5 16t-16.5 39t16.5 39t36.5 16z" />
    <glyph glyph-name="uni0410" unicode="&#x410;" horiz-adv-x="950" 
d="M658 250h-365l-87 -209h-73l311 746h64l311 -746h-73zM320 312h312l-156 377z" />
    <glyph glyph-name="uni0411" unicode="&#x411;" horiz-adv-x="950" 
d="M299 102h244q72 0 115.5 41.5t43.5 113.5q0 32 -12.5 57.5t-33.5 44.5q-22 18 -50.5 28.5t-59.5 11.5h-247v-297zM723 724h-424v-263h236q51 0 93.5 -14t74.5 -41q31 -28 49 -70t20 -97q-5 -44 -23.5 -80.5t-50.5 -62.5q-32 -27 -77 -41.5t-103 -14.5h-289v746h494v-62z
" />
    <glyph glyph-name="uni0412" unicode="&#x412;" horiz-adv-x="950" 
d="M229 41v746h298q41 0 78 -11.5t66 -34.5t47.5 -57.5t23.5 -80.5q0 -60 -20.5 -99.5t-60.5 -69.5q55 -32 84 -79.5t27 -114.5q-5 -44 -23.5 -80.5t-50.5 -62.5q-32 -27 -77 -41.5t-103 -14.5h-289zM299 103h244q72 0 115.5 41.5t43.5 113.5q0 32 -12.5 57.5t-33.5 44.5
q-22 18 -50.5 28.5t-59.5 11.5h-247v-297zM299 462h236q30 0 56 7.5t45 23.5q18 15 29 39.5t11 58.5q0 64 -38.5 98t-101.5 36h-237v-263z" />
    <glyph glyph-name="uni0413" unicode="&#x413;" horiz-adv-x="950" 
d="M227 807h513v-63h-442v-703h-71v766z" />
    <glyph glyph-name="uni0414" unicode="&#x414;" horiz-adv-x="950" 
d="M222 180q27 57 44 135t25 168q6 97 9 188.5t3 164.5h419v-656h72v-252h-70v189h-499v-189h-69v252h66zM652 180v593h-280q0 -47 -2.5 -117t-7.5 -164q-11 -188 -65 -312h355z" />
    <glyph glyph-name="uni0415" unicode="&#x415;" horiz-adv-x="950" 
d="M220 786h512v-62h-443v-265h425v-63h-425v-294h451v-62h-520v746z" />
    <glyph glyph-name="uni0416" unicode="&#x416;" horiz-adv-x="950" 
d="M440 807h70v-428l292 428h83l-242 -355l298 -411h-86l-254 347l-91 -133v-214h-70v216l-96 136l-255 -352h-86l300 411l-243 355h82l298 -429v429z" />
    <glyph glyph-name="uni0417" unicode="&#x417;" horiz-adv-x="950" 
d="M288 245q5 -81 52.5 -116.5t134.5 -35.5q35 0 66.5 11t55.5 31t38 49t14 65q1 27 -9.5 51t-28.5 43q-18 18 -41 30.5t-47 15.5q-21 3 -48.5 3.5t-63.5 0.5v70q35 0 61.5 1t49.5 6q42 14 71 45.5t32 84.5q1 32 -11.5 58t-33.5 44q-22 18 -50.5 28t-59.5 10
q-69 0 -109 -29.5t-45 -95.5h-69q3 47 20.5 83t47.5 61q29 24 69.5 36.5t89.5 12.5q43 0 83.5 -15t71.5 -42q30 -28 48.5 -66t17.5 -83q-1 -54 -22.5 -95.5t-68.5 -74.5q52 -30 84.5 -74.5t31.5 -109.5q-1 -53 -20.5 -94.5t-52.5 -70.5q-34 -29 -79 -44t-97 -15
q-51 0 -97.5 13.5t-81.5 41.5t-55.5 69t-19.5 97h71z" />
    <glyph glyph-name="uni0418" unicode="&#x418;" horiz-adv-x="950" 
d="M197 41v746h69v-631l414 631h73v-746h-69v633l-414 -633h-73z" />
    <glyph glyph-name="uni0419" unicode="&#x419;" horiz-adv-x="950" 
d="M191 41v758h81v-616l404 616h83v-758h-81v618l-404 -618h-83zM655 946q-9 -33 -27 -61t-42 -48q-24 -21 -52.5 -32.5t-58.5 -11.5q-32 0 -60 11.5t-51 31.5q-24 20 -42 48.5t-28 61.5h67q17 -37 46.5 -63t67.5 -26q18 0 35.5 7.5t32.5 20.5q15 12 26.5 28t18.5 33h67z
" />
    <glyph glyph-name="uni041A" unicode="&#x41a;" horiz-adv-x="950" 
d="M258 40h-70v746h70v-391l381 391h87l-278 -309l355 -437h-89l-318 388l-138 -124v-264z" />
    <glyph glyph-name="uni041B" unicode="&#x41b;" horiz-adv-x="950" 
d="M351 743v-510q0 -41 -5.5 -77.5t-21.5 -63.5t-46 -43.5t-78 -18.5v73q25 1 40.5 7.5t24.5 19.5q8 12 11.5 30.5t4.5 43.5v602h468v-766h-70v703h-328z" />
    <glyph glyph-name="uni041C" unicode="&#x41c;" horiz-adv-x="950" 
d="M740 40v590l-229 -590h-71l-228 590v-590h-69v746h81l252 -651l252 651h81v-746h-69z" />
    <glyph glyph-name="uni041D" unicode="&#x41d;" horiz-adv-x="950" 
d="M685 401h-418v-361h-69v746h69v-323h418v323h69v-746h-69v361z" />
    <glyph glyph-name="uni041E" unicode="&#x41e;" horiz-adv-x="950" 
d="M471 808q81 0 141 -33t100 -87q39 -55 59 -126t20 -146q0 -76 -19.5 -147t-59.5 -125q-40 -55 -100 -87.5t-141 -32.5q-82 0 -142 32.5t-99 86.5q-40 54 -59.5 125t-19.5 148q0 76 20 147t60 126q40 54 100 86.5t140 32.5zM471 740q-65 0 -111.5 -28t-76.5 -74
t-44.5 -104t-14.5 -118q0 -59 14.5 -117t45.5 -104q30 -46 76.5 -74.5t110.5 -28.5t111 28.5t77 75.5q30 46 44.5 103.5t14.5 116.5q0 58 -14.5 116t-44.5 105q-31 46 -77.5 74.5t-110.5 28.5z" />
    <glyph glyph-name="uni041F" unicode="&#x41f;" horiz-adv-x="950" 
d="M271 743v-703h-70v766h549v-766h-70v703h-409z" />
    <glyph glyph-name="uni0420" unicode="&#x420;" horiz-adv-x="950" 
d="M207 786h302q52 0 97 -16t79 -46q33 -30 52 -72.5t19 -96.5q0 -52 -20 -93t-53 -70q-34 -29 -79 -44t-95 -14h-231v-294h-71v746zM278 397h232q36 1 68 10.5t56 29.5q23 19 36.5 48.5t13.5 69.5q0 42 -13 73t-36 52t-55 32t-70 12h-232v-327z" />
    <glyph glyph-name="uni0421" unicode="&#x421;" horiz-adv-x="950" 
d="M787 274q-16 -54 -41 -99.5t-62 -78.5q-37 -34 -86.5 -52.5t-114.5 -18.5q-81 0 -141 32.5t-99 87.5q-40 54 -60 125t-20 147t19.5 147t59.5 126q40 54 100 86.5t141 32.5q62 0 111.5 -19.5t87.5 -53.5t64.5 -79t42.5 -97h-74q-14 37 -34.5 70t-48.5 58q-29 24 -66 38.5
t-83 14.5q-64 0 -110.5 -28.5t-76.5 -74.5q-30 -47 -44.5 -105t-14.5 -116q0 -60 14 -118.5t44 -103.5q30 -46 76.5 -74t111.5 -28q46 0 83.5 14t65.5 39t48 57.5t32 70.5h75z" />
    <glyph glyph-name="uni0422" unicode="&#x422;" horiz-adv-x="950" 
d="M440 733h-248v63h566v-63h-248v-693h-70v693z" />
    <glyph glyph-name="uni0423" unicode="&#x423;" horiz-adv-x="950" 
d="M475 342l176 454h74l-257 -658q-16 -44 -41 -70t-77 -28h-38v64h43q15 0 26.5 12.5t18.5 30.5l37 99l-215 550h74z" />
    <glyph glyph-name="uni0424" unicode="&#x424;" horiz-adv-x="950" 
d="M505 178q55 6 101 24.5t80 50.5q33 31 51.5 76t18.5 104q0 58 -19 103t-52 77q-34 31 -80 50t-100 25v-510zM445 688q-55 -6 -101 -24.5t-79 -50.5q-34 -32 -52.5 -77t-18.5 -103q0 -59 19 -103.5t53 -75.5q33 -32 79 -50.5t100 -25.5v510zM445 112q-68 3 -127 28.5
t-102 68.5q-43 42 -67.5 99.5t-24.5 124.5t24.5 124.5t67.5 100.5q43 42 102 67.5t127 28.5v71h60v-71q68 -3 126.5 -28.5t102.5 -68.5q43 -43 67.5 -100t24.5 -124q0 -66 -24.5 -124t-67.5 -101t-102 -68.5t-127 -27.5v-71h-60v71z" />
    <glyph glyph-name="uni0425" unicode="&#x425;" horiz-adv-x="950" 
d="M474 367l-230 -327h-80l269 385l-251 361h80l211 -305l214 305h80l-253 -361l270 -385h-80z" />
    <glyph glyph-name="uni0426" unicode="&#x426;" horiz-adv-x="950" 
d="M281 103h391v684h70v-685h72v-176h-70v114h-533v747h70v-684z" />
    <glyph glyph-name="uni0427" unicode="&#x427;" horiz-adv-x="950" 
d="M765 40h-70v331q-39 -52 -102 -78.5t-135 -22.5q-42 1 -89 16.5t-87 44.5q-40 28 -66.5 70t-26.5 97v308h70v-270q0 -53 17.5 -89t47.5 -59t69 -34t81 -12q35 -3 73.5 11t71.5 40q32 25 53.5 58.5t22.5 68.5v286h70v-766z" />
    <glyph glyph-name="uni0428" unicode="&#x428;" horiz-adv-x="950" 
d="M739 103v703h69v-766h-666v766h69v-703h229v703h70v-703h229z" />
    <glyph glyph-name="uni0429" unicode="&#x429;" horiz-adv-x="950" 
d="M143 40v766h70v-703h229v703h70v-703h229v703h69v-703h73v-187h-70v124h-670z" />
    <glyph glyph-name="uni042A" unicode="&#x42a;" horiz-adv-x="950" 
d="M369 449v-346h223q37 -2 69 12.5t56 39.5q23 24 36.5 56t13.5 65t-13.5 65t-37.5 57q-24 24 -56 38.5t-68 12.5h-223zM300 743h-199v63h268v-295h223q52 1 97 -16t79 -48q33 -32 52 -75.5t19 -95.5q0 -53 -19 -96.5t-52 -74.5q-34 -32 -79 -49t-97 -16h-292v703z" />
    <glyph glyph-name="uni042B" unicode="&#x42b;" horiz-adv-x="950" 
d="M193 103h244q72 0 116 41.5t44 113.5q0 32 -13 58.5t-35 45.5q-22 18 -50.5 28.5t-59.5 9.5h-246v-297zM193 462h237q44 2 89 -12t80 -42q35 -29 54.5 -71.5t12.5 -96.5q-5 -44 -23.5 -80.5t-49.5 -62.5q-32 -27 -77 -41.5t-103 -14.5h-290v746h70v-325zM738 787h70v-746
h-70v746z" />
    <glyph glyph-name="uni042C" unicode="&#x42c;" horiz-adv-x="950" 
d="M282 103h244q72 0 115.5 41.5t43.5 113.5q0 32 -12.5 57.5t-33.5 44.5q-22 18 -50.5 28.5t-59.5 11.5h-247v-297zM282 462h236q51 0 94 -14t75 -41q32 -28 50 -70t18 -97q0 -44 -18 -80.5t-51 -62.5q-33 -27 -80 -41.5t-105 -14.5h-289v746h70v-325z" />
    <glyph glyph-name="uni042D" unicode="&#x42d;" horiz-adv-x="950" 
d="M336 384v64h389q-2 57 -18 110t-47 94q-31 40 -76 64.5t-104 24.5q-37 0 -72 -9t-64 -27q-30 -19 -51 -46.5t-30 -64.5h-77q37 107 107.5 162t185.5 55q81 0 141 -32.5t99 -87.5t58 -126t19 -148q0 -76 -19 -147t-58 -125q-39 -55 -98.5 -88t-140.5 -33q-115 0 -192.5 54
t-110.5 160h78q23 -72 83 -108.5t141 -36.5q59 0 103.5 24t75.5 64q30 40 47 92.5t21 110.5h-390z" />
    <glyph glyph-name="uni042E" unicode="&#x42e;" horiz-adv-x="950" 
d="M562 737q-61 0 -102.5 -30t-66.5 -77q-26 -47 -37.5 -104.5t-11.5 -112.5q0 -56 11.5 -113.5t37.5 -104.5q25 -47 66.5 -76.5t102.5 -29.5q60 0 101.5 30.5t67.5 78.5q26 47 37.5 104t11.5 111q0 55 -11.5 113t-36.5 105q-26 46 -68 76t-102 30zM173 444h100q1 67 20 132
t55 116t89.5 82t124.5 31q77 0 131.5 -34.5t89.5 -90.5t51.5 -126t16.5 -141t-16.5 -141t-51.5 -126t-89.5 -90.5t-131.5 -34.5q-71 0 -124.5 31t-89.5 82t-55 115.5t-20 132.5h-100v-342h-70v746h70v-342z" />
    <glyph glyph-name="uni042F" unicode="&#x42f;" horiz-adv-x="950" 
d="M331 358q-34 10 -62.5 29.5t-48.5 46.5q-21 27 -32.5 60.5t-11.5 71.5q0 48 18.5 89.5t51.5 71.5q32 30 75.5 46.5t94.5 13.5h308v-746h-69v304h-251q-51 -75 -100 -151.5t-100 -152.5h-80zM655 407v318h-234q-36 -2 -67.5 -11t-54.5 -28t-36 -48.5t-13 -71.5
q0 -40 13.5 -69.5t36.5 -48.5q23 -20 54.5 -30t66.5 -11h234z" />
    <glyph glyph-name="uni0430" unicode="&#x430;" horiz-adv-x="950" 
d="M713 136q0 -12 2 -26.5t5 -27.5q2 -14 4.5 -25t4.5 -17h-70q-4 11 -9 30t-7 39q-20 -17 -43.5 -32.5t-49.5 -27.5t-53 -19.5t-54 -8.5q-36 -2 -72 5.5t-65 25.5q-30 18 -49.5 45.5t-22.5 66.5q-3 51 16 85.5t52 56.5t76 34t88 17q15 2 44.5 4.5t58.5 10.5q29 7 51 20.5
t22 37.5q0 29 -14 51t-35 37q-22 15 -49.5 23t-54.5 8q-31 0 -60 -7.5t-51 -23.5q-22 -17 -34.5 -42.5t-10.5 -61.5h-70q-3 48 16 85.5t52 63.5q32 25 74 38.5t84 13.5q43 0 83.5 -12.5t72.5 -37.5q31 -25 50 -61t18 -82v-286zM642 329q-26 -11 -67 -20t-82 -14
q-28 -3 -60.5 -8t-60.5 -17q-29 -12 -48 -34.5t-20 -61.5q2 -45 42 -67t103 -19q25 1 58.5 12.5t64.5 30.5q30 19 50.5 44t19.5 54v100z" />
    <glyph glyph-name="uni0431" unicode="&#x431;" horiz-adv-x="950" 
d="M474 547q-44 0 -77 -20.5t-55 -53.5q-23 -33 -34 -73.5t-11 -80.5q0 -41 11 -81.5t33 -72.5q22 -33 55 -53.5t78 -20.5q44 0 77 20.5t56 53.5q22 33 33 73.5t11 80.5t-11 80.5t-33 73.5q-23 33 -56 53.5t-77 20.5zM335 709q65 56 153 56q23 0 48 -3.5t48 -1.5
q23 1 41.5 13t28.5 44h69q-8 -40 -28.5 -66t-58.5 -43q-35 -15 -73.5 -19t-77.5 1q-27 4 -53.5 -6.5t-48.5 -29.5q-22 -20 -37.5 -45t-21.5 -50q64 55 150 55q60 0 106 -25t77 -66q31 -42 47 -95t16 -109t-16 -109t-47 -94t-77 -66t-106 -25q-61 0 -107 25t-77 66t-46.5 94
t-15.5 109q0 50 2 104.5t12 106.5q10 51 32 97.5t61 81.5z" />
    <glyph glyph-name="uni0432" unicode="&#x432;" horiz-adv-x="950" 
d="M264 41v566h215q31 1 60.5 -8t53.5 -27t40.5 -42.5t20.5 -54.5q5 -43 -12 -78t-52 -63q40 -15 64 -52t22 -85q-3 -35 -18 -63.5t-40 -48.5q-25 -21 -58.5 -32.5t-73.5 -11.5h-222zM333 365h130q23 -1 45 4.5t40 16.5q17 11 27.5 28t10.5 38q0 47 -33.5 69.5t-89.5 22.5
h-130v-179zM333 104h130q61 -2 101 22.5t42 77.5q1 22 -11.5 41t-32.5 33q-20 13 -46 19.5t-51 4.5h-132v-198z" />
    <glyph glyph-name="uni0433" unicode="&#x433;" horiz-adv-x="950" 
d="M282 607h386v-63h-317v-503h-69v566z" />
    <glyph glyph-name="uni0434" unicode="&#x434;" horiz-adv-x="950" 
d="M294 258q37 84 43 213q5 69 7 135t2 117h312v-465h54v-217h-70v154h-333v-154h-70v217h55zM589 258v402h-175q0 -32 -2 -80.5t-5 -112.5q-4 -64 -13 -115.5t-27 -93.5h222z" />
    <glyph glyph-name="uni0435" unicode="&#x435;" horiz-adv-x="950" 
d="M475 625q58 0 106.5 -25t82.5 -67q33 -42 49.5 -98t11.5 -119h-428q-2 -39 11.5 -78.5t38.5 -70.5q24 -31 57 -50.5t71 -19.5q66 0 106 33t55 83h74q-15 -42 -36 -76t-49 -58q-29 -24 -66 -36.5t-84 -11.5q-61 1 -107.5 26t-77.5 67q-32 41 -48 94t-16 110t16.5 110.5
t48.5 95.5q31 41 77.5 66t106.5 25zM651 378q-4 37 -18.5 69.5t-37.5 57.5t-53.5 39.5t-66.5 14.5q-35 0 -66 -15t-54 -40t-37.5 -57.5t-17.5 -68.5h351z" />
    <glyph glyph-name="uni0436" unicode="&#x436;" horiz-adv-x="950" 
d="M440 40v191l-66 75l-204 -266h-86l245 316l-215 250h87l239 -272v272h70v-274l240 274h86l-214 -250l245 -316h-87l-204 266l-66 -75v-191h-70z" />
    <glyph glyph-name="uni0437" unicode="&#x437;" horiz-adv-x="950" 
d="M347 228q2 -60 33.5 -96.5t97.5 -36.5q54 0 87 29.5t35 80.5q1 25 -9 44t-28 32t-42 19.5t-51 6.5h-45l1 70h40q22 0 42.5 4.5t36.5 16.5q15 11 24.5 29.5t11.5 45.5q3 44 -27.5 70.5t-79.5 26.5q-54 0 -79.5 -28t-27.5 -80h-67q1 78 48 125.5t129 47.5q34 0 65.5 -12
t55.5 -33q24 -22 38 -51.5t13 -64.5q-2 -48 -18.5 -77t-50.5 -53q42 -23 66 -56.5t22 -84.5q-1 -41 -16 -73.5t-41 -54.5q-26 -23 -61 -34.5t-75 -11.5q-43 0 -80 14t-64 41q-27 26 -42 62.5t-12 81.5h70z" />
    <glyph glyph-name="uni0438" unicode="&#x438;" horiz-adv-x="950" 
d="M333 41h-67v566h69v-437l282 437h67v-566h-69v437z" />
    <glyph glyph-name="uni0439" unicode="&#x439;" horiz-adv-x="950" 
d="M646 756q-10 -32 -27 -59t-39 -46q-23 -20 -49.5 -30.5t-55.5 -10.5t-55.5 10.5t-48.5 30.5q-23 19 -40 46t-27 59h62q17 -35 45.5 -59.5t63.5 -24.5t64.5 25t43.5 59h63zM333 40h-67v566h69v-437l282 437h67v-566h-69v437z" />
    <glyph glyph-name="uni043A" unicode="&#x43a;" horiz-adv-x="950" 
d="M335 212v-171h-70v566h70v-303l284 303h86l-243 -261l267 -305h-85l-230 254z" />
    <glyph glyph-name="uni043B" unicode="&#x43b;" horiz-adv-x="950" 
d="M391 544v-360q0 -35 -6 -62.5t-20 -46.5q-15 -19 -39.5 -29.5t-62.5 -11.5v65q34 2 45.5 19t12.5 52v437h346v-566h-69v503h-207z" />
    <glyph glyph-name="uni043C" unicode="&#x43c;" horiz-adv-x="950" 
d="M657 607h62v-566h-67v365l-155 -365h-44l-155 365v-365h-67v566h62l182 -447z" />
    <glyph glyph-name="uni043D" unicode="&#x43d;" horiz-adv-x="950" 
d="M610 306h-270v-266h-69v566h69v-237h270v237h69v-566h-69v266z" />
    <glyph glyph-name="uni043E" unicode="&#x43e;" horiz-adv-x="950" 
d="M474 623q61 0 107.5 -25.5t78.5 -66.5q31 -42 47 -95.5t16 -109.5t-16 -109.5t-47 -94.5q-32 -42 -78.5 -67.5t-107.5 -25.5t-107.5 25t-77.5 67q-32 41 -48 94.5t-16 110.5t16 111t48 95q31 41 77.5 66t107.5 25zM474 557q-44 0 -77.5 -21t-55.5 -54q-23 -34 -34 -75
t-11 -81q0 -41 11 -82.5t34 -74.5q22 -33 55 -53.5t78 -20.5q44 0 77.5 21t56.5 54q22 33 33 74t11 82t-11 82t-33 74q-23 33 -56.5 54t-77.5 21z" />
    <glyph glyph-name="uni043F" unicode="&#x43f;" horiz-adv-x="950" 
d="M338 544v-503h-69v566h411v-566h-69v503h-273z" />
    <glyph glyph-name="uni0440" unicode="&#x440;" horiz-adv-x="950" 
d="M484 42q-57 0 -101.5 24t-76.5 67v-202h-69v687h69v-73q32 42 76.5 67t101.5 25q60 0 104.5 -26t73.5 -68t43.5 -95.5t14.5 -108.5q0 -54 -15 -107t-44 -95q-30 -43 -74 -69t-103 -26zM477 571q-43 0 -75 -21.5t-53 -55.5q-22 -34 -32.5 -75t-10.5 -80q0 -40 10 -81
t31 -74q21 -34 53 -55t77 -21q44 0 76.5 21t53.5 55q21 33 31 74t10 81q0 39 -10.5 80.5t-31.5 75.5q-21 33 -53.5 54.5t-75.5 21.5z" />
    <glyph glyph-name="uni0441" unicode="&#x441;" horiz-adv-x="950" 
d="M721 221q-24 -88 -82.5 -140t-153.5 -52q-61 0 -108 25t-78 67q-32 41 -48 94.5t-16 110.5t16 111t48 95q31 41 78 66t108 25q46 0 85.5 -16t70.5 -43t51.5 -64t28.5 -79h-73q-17 58 -56 97t-107 39q-45 0 -79 -20t-56 -53q-23 -33 -34 -74.5t-11 -83.5t11 -83.5
t34 -74.5q22 -33 55.5 -53t79.5 -20q60 0 102.5 35t60.5 91h73z" />
    <glyph glyph-name="uni0442" unicode="&#x442;" horiz-adv-x="950" 
d="M440 544h-183v63h437v-63h-184v-503h-70v503z" />
    <glyph glyph-name="uni0443" unicode="&#x443;" horiz-adv-x="950" 
d="M476 222l178 447h74l-257 -649q-8 -21 -18 -38.5t-23 -30.5q-14 -13 -33 -20t-45 -8h-38v62h44q16 0 25 13t16 30l40 101l-215 540h75z" />
    <glyph glyph-name="uni0444" unicode="&#x444;" horiz-adv-x="950" 
d="M289 632q-42 0 -71 -21t-48 -53t-27.5 -71.5t-8.5 -76.5q0 -38 8.5 -77t27.5 -71q18 -32 47.5 -52.5t71.5 -20.5t70.5 20.5t46.5 52.5q17 32 25 71t8 77q0 37 -8 76.5t-26 72.5q-18 32 -46.5 52.5t-69.5 20.5zM661 632q-41 0 -69.5 -21t-46.5 -53t-26 -71.5t-8 -76.5
q0 -38 8 -77t26 -71q17 -32 45.5 -52.5t70.5 -20.5t71.5 20.5t48.5 52.5t27.5 71t8.5 77q0 37 -9 76.5t-27 72.5q-19 32 -48.5 52.5t-71.5 20.5zM440 903h70v-286q27 34 65 55.5t86 21.5q55 0 96.5 -25.5t69.5 -65.5q28 -41 42 -91.5t14 -101.5q0 -50 -14 -100.5t-42 -91.5
t-69.5 -66.5t-96.5 -25.5q-45 0 -83.5 22t-67.5 57v-276h-70v269q-30 -33 -68.5 -52.5t-82.5 -19.5q-53 0 -94 27t-69 69q-29 42 -44 92t-15 96q0 53 15.5 104t44.5 91q28 40 69 64.5t93 24.5q45 0 83 -20t68 -54v283z" />
    <glyph glyph-name="uni0445" unicode="&#x445;" horiz-adv-x="950" 
d="M475 269l-170 -228h-84l210 285l-201 271h84l161 -216l161 216h84l-204 -272l214 -284h-86z" />
    <glyph glyph-name="uni0446" unicode="&#x446;" horiz-adv-x="950" 
d="M345 103h264v504h69v-505h64v-155h-71v93h-397v567h71v-504z" />
    <glyph glyph-name="uni0447" unicode="&#x447;" horiz-adv-x="950" 
d="M694 41h-71v216q-29 -29 -73 -48t-102 -17q-35 1 -69 15.5t-60 39.5t-42 59.5t-16 75.5v225h71v-207q0 -41 11 -68t31 -43q19 -17 47 -24.5t61 -7.5q23 0 48 11t45 29q20 17 33.5 39.5t14.5 45.5v225h71v-566z" />
    <glyph glyph-name="uni0448" unicode="&#x448;" horiz-adv-x="950" 
d="M652 103v503h70v-566h-494v566h69v-503h142v503h71v-503h142z" />
    <glyph glyph-name="uni0449" unicode="&#x449;" horiz-adv-x="950" 
d="M253 40v566h69v-503h143v503h70v-503h142v503h70v-503h55v-154h-71v91h-478z" />
    <glyph glyph-name="uni044A" unicode="&#x44a;" horiz-adv-x="950" 
d="M397 104h143q30 1 56.5 7t46.5 21q20 14 31.5 36.5t11.5 56.5q0 32 -12.5 54.5t-32.5 36.5t-46 21t-54 8h-144v-241zM326 41v503h-144v63h215v-199h148q47 2 86.5 -11.5t68.5 -39.5q28 -27 43 -64t12 -82q-2 -40 -19.5 -72t-45.5 -54t-63.5 -33.5t-73.5 -10.5h-227z" />
    <glyph glyph-name="uni044B" unicode="&#x44b;" horiz-adv-x="950" 
d="M252 104h149q34 0 61 9.5t46 26.5q19 16 28.5 38t9.5 47q0 27 -12 49.5t-32 39.5q-21 16 -47 24t-53 7h-150v-241zM252 607v-199h154q47 2 86.5 -11.5t68.5 -39.5q28 -27 43 -64t12 -82q-2 -40 -19.5 -71.5t-44.5 -53.5q-28 -22 -63.5 -33.5t-73.5 -11.5h-232v566h69z
M675 607h69v-566h-69v566z" />
    <glyph glyph-name="uni044C" unicode="&#x44c;" horiz-adv-x="950" 
d="M335 104h149q34 0 60.5 9.5t45.5 26.5q18 16 27.5 38t9.5 47q0 28 -12 50t-31 38q-20 15 -46 23.5t-53 8.5h-150v-241zM335 607v-199h154q47 0 86.5 -14t67.5 -40t42.5 -62.5t13.5 -80.5q-2 -40 -19.5 -72t-45.5 -54t-63.5 -33.5t-74.5 -10.5h-232v566h71z" />
    <glyph glyph-name="uni044D" unicode="&#x44d;" horiz-adv-x="950" 
d="M445 300v62h203q-5 40 -17 78t-33 67q-22 28 -54 45.5t-75 17.5q-29 0 -55.5 -11t-48.5 -30t-38.5 -44t-25.5 -53h-72q13 45 36 82t54 64q30 26 67.5 40.5t81.5 14.5q62 0 109.5 -25.5t79.5 -67.5q31 -42 47 -96.5t16 -112.5q0 -59 -16 -113.5t-47 -96.5
q-32 -42 -79.5 -67t-109.5 -25q-88 0 -150 53.5t-88 147.5h79q12 -62 56 -96.5t102 -34.5q44 0 76 16t54 44q22 27 34 63.5t16 77.5h-202z" />
    <glyph glyph-name="uni044E" unicode="&#x44e;" horiz-adv-x="950" 
d="M565 554q-45 0 -78.5 -21t-55.5 -54q-23 -33 -34 -74.5t-11 -81.5q0 -42 11 -83t34 -74q22 -33 55.5 -53.5t78.5 -20.5q44 0 77 21t56 54q22 33 33.5 74t11.5 82t-11.5 82t-33.5 74q-23 33 -56 54t-77 21zM230 360h87q4 52 22.5 99t50.5 83q31 36 75.5 57t99.5 21
q61 0 107.5 -25.5t78.5 -66.5q31 -42 47 -95.5t16 -109.5t-16 -109.5t-47 -94.5q-32 -42 -78.5 -67.5t-107.5 -25.5q-56 0 -100.5 22.5t-76.5 60.5q-32 37 -50.5 86t-21.5 102h-86v-256h-70v566h70v-247z" />
    <glyph glyph-name="uni044F" unicode="&#x44f;" horiz-adv-x="950" 
d="M369 280q-52 19 -82.5 59.5t-30.5 98.5q0 39 15 70t41 53q25 21 58.5 33t71.5 13h215v-566h-70v228h-149l-145 -228h-78zM587 331v213h-123q-66 0 -102 -25.5t-36 -81.5q0 -31 11 -51t30 -32t44 -17t53 -6h123z" />
    <glyph glyph-name="uni0451" unicode="&#x451;" horiz-adv-x="950" 
d="M381 766q21 0 37 -16.5t16 -39.5t-16 -39t-37 -16t-36.5 16t-15.5 39t15.5 39.5t36.5 16.5zM569 766q21 0 37 -16.5t16 -39.5t-16 -39t-37 -16q-20 0 -36.5 16t-16.5 39t16.5 39.5t36.5 16.5zM475 633q62 0 111 -26t83 -70q33 -44 49.5 -102.5t12.5 -122.5h-428
q-2 -37 10 -74t35 -66q23 -30 55.5 -48.5t71.5 -18.5q65 0 103.5 33.5t53.5 82.5h86q-15 -44 -36 -80t-50 -61q-30 -26 -69 -40t-88 -13q-61 1 -108.5 27t-79.5 69q-33 42 -50 96t-17 111t17 111.5t49 97.5q32 42 79.5 68t109.5 26zM645 386q-4 35 -18 66t-36 54
q-23 23 -52.5 36.5t-63.5 13.5q-33 0 -62.5 -14t-52.5 -37q-23 -24 -37.5 -54.5t-16.5 -64.5h339z" />
    <glyph glyph-name="uni2015" unicode="&#x2015;" horiz-adv-x="950" 
d="M939 447v-62h-928v62h928z" />
    <glyph glyph-name="quoteleft" unicode="&#x2018;" horiz-adv-x="205" 
d="M156 708h-108v78q0 23 2.5 46.5t10.5 38.5q5 11 16.5 20.5t23.5 14.5l37 -24q-19 -7 -29 -21q-9 -14 -11 -28.5t-2 -25.5h60v-99z" />
    <glyph glyph-name="quoteright" unicode="&#x2019;" horiz-adv-x="205" 
d="M43 906h108v-78q0 -23 -2.5 -46.5t-10.5 -38.5q-5 -11 -16.5 -20.5t-23.5 -14.5l-37 24q19 7 29 21q9 14 11 28.5t2 25.5h-60v99z" />
    <glyph glyph-name="quotedblleft" unicode="&#x201c;" horiz-adv-x="300" 
d="M134 708h-108v78q0 23 2.5 46.5t10.5 38.5q5 11 16.5 20.5t23.5 14.5l37 -24q-19 -7 -29 -21q-9 -14 -11 -28.5t-2 -25.5h60v-99zM274 708h-108v78q0 23 2.5 46.5t10.5 38.5q5 11 16.5 20.5t23.5 14.5l37 -24q-19 -7 -29 -21q-9 -14 -11 -28.5t-2 -25.5h60v-99z" />
    <glyph glyph-name="quotedblright" unicode="&#x201d;" horiz-adv-x="300" 
d="M166 906h108v-78q0 -23 -2.5 -46.5t-10.5 -38.5q-5 -11 -16.5 -20.5t-23.5 -14.5l-37 24q19 7 29 21q9 14 11 28.5t2 25.5h-60v99zM26 906h108v-78q0 -23 -2.5 -46.5t-10.5 -38.5q-5 -11 -16.5 -20.5t-23.5 -14.5l-37 24q19 7 29 21q9 14 11 28.5t2 25.5h-60v99z" />
    <glyph glyph-name="dagger" unicode="&#x2020;" horiz-adv-x="950" 
d="M524 807q0 -34 -9 -67t-11 -68q35 4 69 14.5t72 5.5q44 -8 44 -50q0 -20 -12 -32.5t-32 -17.5q-17 -3 -34.5 -1t-34.5 6q-18 4 -35.5 8.5t-35.5 7.5q1 -9 4.5 -25.5t9.5 -33.5q6 -18 15 -32t21 -19q-20 -20 -30.5 -53t-14.5 -70q-4 -38 -4.5 -76.5t-1.5 -68.5v-108
q0 -38 0.5 -69.5t-1.5 -48.5q-8 -56 -28 -56q-23 0 -28 56q-1 17 -1 47v68v111v75t-4 82q-5 40 -16.5 70.5t-33.5 40.5q26 19 38 47.5t16 62.5q-18 -3 -35 -7.5t-34 -8.5q-18 -4 -36.5 -6t-37.5 1q-42 10 -42 50q0 43 43 50q18 2 34.5 0.5t33.5 -5.5q16 -4 34 -8t39 -7
q0 33 -9.5 64t-10.5 67q0 12 2 26t7 26t15 20.5t26 8.5q15 0 24.5 -7t15.5 -18q5 -11 7 -25t2 -27z" />
    <glyph glyph-name="daggerdbl" unicode="&#x2021;" horiz-adv-x="950" 
d="M445 622q-14 -2 -33.5 -6.5t-33.5 -8.5q-35 -12 -71 -5q-42 10 -42 50q0 41 43 48q37 5 69 -5q14 -4 34 -8.5t34 -6.5q-2 16 -6.5 40t-7.5 38q-4 18 -6 37.5t2 39.5q9 49 48 49t47 -48q4 -40 -5 -78q-5 -19 -7.5 -38.5t-4.5 -39.5q14 2 33.5 6.5t33.5 7.5q17 6 34 7
t35 -1q44 -7 44 -48q0 -38 -43 -50q-37 -6 -69 4q-15 5 -35 10t-33 6v-76q14 2 33.5 6.5t33.5 8.5q32 10 69 5q44 -7 44 -48q0 -38 -43 -50q-34 -6 -69 4q-15 5 -35 10t-33 6q-2 -16 2 -31t11 -28q6 -14 14.5 -25t15.5 -17q-16 -22 -24.5 -47.5t-12.5 -52.5q-5 -27 -6.5 -56
t-1.5 -57v-119v-46q-5 -56 -28 -56q-11 0 -18.5 14.5t-9.5 42.5q0 9 -0.5 11.5t-0.5 4.5v7.5v21.5v119q0 26 -0.5 54t-4.5 56t-13 54t-26 48q19 16 29.5 42t13.5 60q-14 -2 -33.5 -6.5t-33.5 -8.5q-17 -5 -34.5 -7t-36.5 2q-42 10 -42 50q0 41 43 48q37 5 69 -5q16 -5 35 -9
t33 -6v76z" />
    <glyph glyph-name="twodotenleader" unicode="&#x2025;" horiz-adv-x="950" 
d="M769 472v-112h-110v112h110zM291 472v-112h-110v112h110z" />
    <glyph glyph-name="ellipsis" unicode="&#x2026;" horiz-adv-x="950" 
d="M824 472v-112h-108v112h108zM530 472v-112h-109v112h109zM234 472v-112h-108v112h108z" />
    <glyph glyph-name="perthousand" unicode="&#x2030;" horiz-adv-x="950" 
d="M599 794h72l-537 -758h-70zM296 790q45 0 72.5 -31t26.5 -87q0 -35 -14.5 -73.5t-39.5 -70.5q-25 -33 -59.5 -54.5t-74.5 -21.5q-48 0 -73.5 31.5t-25.5 85.5q0 35 15.5 74t41.5 72q25 32 59 53.5t72 21.5zM333 671q1 8 0 18t-5 19t-11.5 15t-18.5 6q-24 0 -46 -16.5
t-39 -40.5q-18 -25 -29.5 -52t-13.5 -48q-1 -9 0 -19t5 -19t11 -15t19 -6q24 0 47 16.5t41 41.5q18 24 29 51.5t11 48.5zM497 381q45 0 72.5 -31t26.5 -87q0 -35 -14.5 -73.5t-39.5 -70.5q-25 -33 -59.5 -54.5t-74.5 -21.5q-48 0 -73.5 31.5t-25.5 85.5q0 35 15.5 74
t41.5 72q25 32 59 53.5t72 21.5zM534 262q1 8 0 18t-5 19t-11.5 15t-18.5 6q-24 0 -46 -16.5t-39 -40.5q-18 -25 -29.5 -52t-13.5 -48q-1 -9 0 -19t5 -19t11 -15t19 -6q24 0 47 16.5t41 41.5q18 24 29 51.5t11 48.5zM787 381q45 0 72.5 -31t26.5 -87q0 -35 -14.5 -73.5
t-39.5 -70.5q-25 -33 -59.5 -54.5t-74.5 -21.5q-48 0 -73.5 31.5t-25.5 85.5q0 35 15.5 74t41.5 72q25 32 59 53.5t72 21.5zM824 262q1 8 0 18t-5 19t-11.5 15t-18.5 6q-24 0 -46 -16.5t-39 -40.5q-18 -25 -29.5 -52t-13.5 -48q-1 -9 0 -19t5 -19t11 -15t19 -6q24 0 47 16.5
t41 41.5q18 24 29 51.5t11 48.5z" />
    <glyph glyph-name="minute" unicode="&#x2032;" horiz-adv-x="950" 
d="M238 899l-178 -279l-27 11l92 268h113z" />
    <glyph glyph-name="second" unicode="&#x2033;" horiz-adv-x="950" 
d="M238 899l-178 -279l-27 11l92 268h113zM368 899l-178 -279l-27 11l92 268h113z" />
    <glyph glyph-name="uni203B" unicode="&#x203b;" horiz-adv-x="950" 
d="M690 476q24 0 41.5 -17t17.5 -43t-16.5 -43t-42.5 -17q-23 0 -40 17.5t-17 41.5q0 23 16 42t41 19zM260 476q23 0 40 -17t17 -43t-16 -43t-41 -17q-24 0 -41.5 17.5t-17.5 41.5q0 23 16.5 42t42.5 19zM475 703q11 0 21.5 -5t18.5 -13q8 -9 13 -19.5t5 -22.5
q0 -26 -16 -43.5t-42 -17.5q-22 0 -40 17.5t-18 43.5q0 23 16 41.5t42 18.5zM475 249q22 0 40 -17.5t18 -41.5q0 -26 -16 -43.5t-42 -17.5q-22 0 -40 17t-18 43q0 23 16 41.5t42 18.5zM762 670l-240 -253q60 -65 119 -128t121 -127l-47 -48l-240 252l-240 -251l-47 48
l240 253l-240 254l47 48l240 -252l241 253z" />
    <glyph glyph-name="uni2074" unicode="&#x2074;" horiz-adv-x="950" 
d="M120 635v56l142 198h56v-196h44v-58h-44v-53h-61v53h-137zM257 779l-63 -86h63v86z" />
    <glyph glyph-name="uni207F" unicode="&#x207f;" horiz-adv-x="969" 
d="M113 887h54v-20q17 17 40.5 23.5t51.5 5.5q19 -2 36 -11.5t30 -23.5q12 -15 19 -33.5t8 -38.5v-206h-55v186q0 16 -2.5 29.5t-9.5 23.5t-18.5 15.5t-30.5 5.5q-13 0 -25 -6.5t-21 -16.5q-10 -11 -15.5 -25t-5.5 -30v-182h-56v304z" />
    <glyph glyph-name="uni2081" unicode="&#x2081;" horiz-adv-x="950" 
d="M204 -27v202h-62v55q29 0 47 8.5t23 41.5h52v-307h-60z" />
    <glyph glyph-name="uni2082" unicode="&#x2082;" horiz-adv-x="950" 
d="M279 90q-22 -15 -35.5 -24.5t-21.5 -15.5q-9 -6 -14 -10t-8 -8h143v-59h-223q1 30 11.5 53.5t28.5 42.5q17 19 39.5 36t46.5 35q14 9 22.5 22t8.5 27q0 40 -41 40q-24 0 -33.5 -18t-10.5 -40h-64q1 23 8.5 44t21.5 37q13 16 33 25.5t46 9.5q27 0 46.5 -8t32.5 -21
q13 -14 19 -32t6 -37t-6 -34.5t-15 -27.5t-20 -21t-21 -16z" />
    <glyph glyph-name="uni2083" unicode="&#x2083;" horiz-adv-x="950" 
d="M187 86q0 -20 12 -38.5t38 -18.5q22 0 34 11.5t12 29.5q0 13 -8.5 22t-20.5 11q-10 2 -22.5 2.5t-28.5 0.5l2 58q12 0 26 0.5t20 2.5q11 5 17.5 14t6.5 20q0 14 -10.5 23t-29.5 9q-22 0 -32 -16t-11 -34h-61q1 51 31.5 79.5t73.5 28.5q21 0 39.5 -7.5t32.5 -19.5
t22.5 -28.5t8.5 -34.5q0 -23 -8.5 -39t-19.5 -25q17 -13 27 -30t10 -39q0 -42 -30 -70t-81 -28q-24 0 -45 9.5t-36 25.5t-24 37t-9 44h64z" />
    <glyph glyph-name="uni2084" unicode="&#x2084;" horiz-adv-x="950" 
d="M121 26v56l142 198h56v-196h44v-58h-44v-53h-61v53h-137zM258 170l-63 -86h63v86z" />
    <glyph glyph-name="Euro" unicode="&#x20ac;" horiz-adv-x="950" 
d="M383 583h-112v90l212 75h28q13 0 24.5 -2t20.5 -7q8 -5 12.5 -14.5t3.5 -25.5v-479q0 -26 26 -29q35 -5 52.5 -13t17.5 -38v-57h-382v57q0 29 18.5 38t51.5 13q12 2 19.5 9t7.5 20v363zM755 884q83 0 124.5 -40.5t41.5 -114.5v-608q0 -48 -13.5 -82.5t-37.5 -52.5
q-47 -38 -101 -38h-589q-32 0 -59.5 9.5t-47.5 29.5q-21 21 -32.5 54t-11.5 80v608q0 74 40.5 114.5t125.5 40.5h560zM771 5q43 0 68.5 28t25.5 76v617q0 42 -22 71.5t-75 29.5h-586q-54 0 -75.5 -29.5t-21.5 -71.5v-617q0 -23 6.5 -45.5t21.5 -36.5q12 -10 29.5 -16
t36.5 -6h592z" />
    <glyph glyph-name="uni2103" unicode="&#x2103;" horiz-adv-x="950" 
d="M849 258q-12 -54 -37.5 -99t-61.5 -77q-37 -32 -83 -50t-100 -18q-74 0 -129 29.5t-92 78.5q-38 49 -56.5 113.5t-18.5 133.5q0 70 18.5 134t56.5 113q37 49 92 78.5t129 29.5q56 0 102.5 -17t82.5 -47q35 -31 59.5 -72.5t37.5 -90.5h-73q-26 71 -79 115.5t-134 44.5
q-58 0 -99.5 -24.5t-68.5 -64.5t-39.5 -92t-12.5 -107t12.5 -106.5t39.5 -91.5q27 -41 68.5 -65.5t99.5 -24.5q39 0 74.5 14t63.5 38t47 56t27 69h74zM208 837q23 0 44.5 -10t37.5 -26q16 -17 25.5 -39t9.5 -46q0 -23 -9 -45t-25 -39t-37 -27.5t-46 -10.5q-24 0 -45.5 10
t-36.5 27q-16 16 -25 38t-9 47q0 24 8.5 45.5t24.5 38.5q15 17 36 27t47 10zM208 773q-23 0 -38 -15.5t-15 -41.5q0 -25 15 -41t38 -16q24 0 39 16t15 41q0 26 -15 41.5t-39 15.5z" />
    <glyph glyph-name="uni2109" unicode="&#x2109;" horiz-adv-x="950" 
d="M348 715h454v-63h-384v-245h341v-59h-341v-306h-70v673zM208 837q23 0 44.5 -10t37.5 -26q16 -17 25.5 -39t9.5 -46q0 -23 -9 -45t-25 -39t-37 -27.5t-46 -10.5q-24 0 -45.5 10t-36.5 27q-16 16 -25 38t-9 47q0 24 8.5 45.5t24.5 38.5q15 17 36 27t47 10zM208 773
q-23 0 -38 -15.5t-15 -41.5q0 -25 15 -41t38 -16q24 0 39 16t15 41q0 26 -15 41.5t-39 15.5z" />
    <glyph glyph-name="uni2113" unicode="&#x2113;" horiz-adv-x="950" 
d="M283 764q-19 0 -34 -18t-26 -46q-11 -29 -18.5 -64t-11.5 -69q-5 -35 -7 -64.5t-1 -47.5q1 -83 10.5 -145.5t26.5 -110.5q31 31 53 75.5t37 94.5q14 49 20.5 100t6.5 96q0 7 -0.5 25t-2.5 40t-6 45.5t-10 43.5t-15.5 32.5t-21.5 12.5zM289 837q27 0 46 -17t32 -44
q12 -27 19.5 -60.5t11.5 -65.5q3 -33 4 -61.5t1 -44.5q0 -48 -9 -105t-27 -112q-18 -56 -46.5 -106t-67.5 -84q17 -26 32 -38t29 -12q18 0 32 11t26 28q11 17 19 36.5t14 36.5q8 -9 17 -19q8 -8 17.5 -17t18.5 -17q-44 -104 -126 -122q-78 -17 -138 82q-27 -5 -52.5 -10.5
t-57.5 -6.5q-4 14 -6 20.5t-3 11.5q-2 5 -3.5 12t-5.5 22q18 0 47 2.5t51 10.5q-23 63 -34 128t-11 135q0 32 3 74t11 87q7 44 19.5 87t31.5 78q19 34 45 56t60 24z" />
    <glyph glyph-name="uni2116" unicode="&#x2116;" horiz-adv-x="950" 
d="M367 70l-270 571v-571h-58v693h63l270 -571v571h58v-693h-63zM653 548q48 0 83.5 -21.5t59.5 -55.5q24 -35 35.5 -79t11.5 -88q0 -43 -11.5 -86.5t-35.5 -77.5q-24 -35 -59.5 -57t-83.5 -22t-84 21.5t-59 56.5q-24 35 -35.5 78t-11.5 87q0 45 11.5 88.5t35.5 78.5
q23 34 58.5 55.5t84.5 21.5zM653 489q-34 0 -59 -17.5t-41 -44.5t-23.5 -59.5t-7.5 -63.5t7.5 -63.5t23.5 -59.5t41 -44t59 -17t59 17.5t41 44.5q15 27 22.5 59.5t7.5 62.5q0 31 -7 64t-23 60t-40.5 44t-59.5 17zM864 170q22 0 39.5 -18.5t17.5 -40.5q0 -23 -17.5 -40
t-39.5 -17t-39.5 17t-17.5 40q0 22 17.5 40.5t39.5 18.5z" />
    <glyph glyph-name="uni2121" unicode="&#x2121;" horiz-adv-x="950" 
d="M238 700h-204v59h469v-59h-202v-630h-63v630zM561 549q52 0 92.5 -21.5t68.5 -57.5q28 -37 41.5 -85.5t10.5 -102.5h-350q0 -29 10.5 -57.5t29.5 -51.5t44 -37t53 -14q51 0 81.5 27t42.5 67h79q-13 -38 -30.5 -68.5t-41.5 -51.5t-56.5 -32.5t-74.5 -11.5q-51 1 -90.5 22
t-66.5 56q-27 34 -41.5 78.5t-14.5 92.5q0 47 14.5 91.5t42.5 79.5t67 56t89 21zM695 350q-2 26 -14 49.5t-30 41.5q-19 18 -42.5 28.5t-47.5 10.5q-26 0 -49 -10.5t-41 -27.5q-18 -18 -29 -41.5t-14 -50.5h267zM820 760h65v-689h-65v689z" />
    <glyph glyph-name="trademark" unicode="&#x2122;" horiz-adv-x="950" 
d="M160 727h-74v59h226v-59h-75v-304h-77v304zM494 786h80v-368h-68v127l-35 -127h-63l-35 127v-127h-68v368h81l53 -193z" />
    <glyph glyph-name="Omega" unicode="&#x2126;" horiz-adv-x="950" 
d="M402 186q0 22 8.5 31t19.5 10q43 11 72.5 35.5t48.5 58.5q18 33 26 74.5t8 85.5q0 49 -14 95.5t-40 82.5q-27 36 -66 58t-90 22q-49 0 -87.5 -23t-64.5 -59q-27 -37 -41 -83.5t-14 -93.5q0 -46 8 -87.5t27 -74.5q18 -33 49 -56.5t78 -34.5q3 -1 8.5 -3t10.5 -6
q4 -5 7 -12.5t2 -19.5v-94q0 -19 -7.5 -34t-33.5 -15h-140v62h120v63q-49 15 -85.5 46.5t-60.5 73.5q-25 41 -37 90.5t-12 100.5q0 59 19.5 117t55.5 104q36 45 86 73t112 28q64 0 115 -27t87 -71q36 -45 55 -103t19 -119q0 -48 -12.5 -96.5t-36.5 -90.5q-25 -42 -60 -75
t-80 -49v-65h119v-62h-137q-26 0 -34 13.5t-8 33.5v96z" />
    <glyph glyph-name="uni212B" unicode="&#x212b;" horiz-adv-x="950" 
d="M475 829q-21 0 -35.5 -15t-14.5 -39t14.5 -39t35.5 -15q23 0 37 15t14 39t-14 39t-37 15zM475 897q24 0 45.5 -10t37.5 -27q15 -17 24 -39t9 -46t-9 -46t-24 -39q-16 -17 -37 -27t-46 -10t-46 10t-36 27q-16 17 -25 39t-9 46t9 46t25 39q15 17 36.5 27t45.5 10zM618 201
h-283l-67 -166h-72l253 589h55l252 -589h-71zM361 265h229l-114 256z" />
    <glyph glyph-name="onethird" unicode="&#x2153;" horiz-adv-x="950" 
d="M138 447h674v-63h-674v63zM453 471v274h-88v63q19 1 36.5 3.5t31.5 9.5q13 7 22 20.5t10 36.5h58v-407h-70zM388 74q-1 -45 20.5 -68.5t66.5 -23.5q39 0 61.5 21t22.5 55q0 23 -16.5 39.5t-39.5 21.5q-11 3 -26.5 3t-46.5 -1v60q17 0 38 1t31 6q21 10 33.5 25.5
t12.5 36.5q0 26 -18.5 42.5t-53.5 16.5q-21 0 -35.5 -7t-23.5 -18t-12.5 -25.5t-3.5 -29.5h-5h-10q-8 -1 -21.5 -1h-34.5q-3 35 8.5 62t32.5 45t49 27.5t58 9.5q27 0 53 -8.5t47 -24.5t33.5 -39t12.5 -52q0 -30 -12 -52t-36 -41q26 -17 43.5 -41.5t17.5 -56.5
q0 -61 -43 -99.5t-115 -38.5q-33 0 -63 11t-52 31q-23 20 -35 49t-10 65z" />
    <glyph glyph-name="twothirds" unicode="&#x2154;" horiz-adv-x="950" 
d="M138 447h674v-63h-674v63zM534 640q-17 -10 -35.5 -21t-36.5 -23q-18 -13 -33 -28t-25 -33h218v-64h-304q1 27 9.5 53.5t22.5 50.5t33.5 44t43.5 33q37 24 61.5 42t38.5 33q13 14 18.5 27t5.5 26q0 32 -19 50.5t-54 18.5q-46 0 -62.5 -24.5t-18.5 -66.5h-69q2 34 12 62.5
t29 49.5t46.5 32.5t63.5 11.5t63 -11t45 -29q18 -19 26.5 -43.5t8.5 -52.5q0 -47 -24.5 -79.5t-63.5 -58.5zM388 74q-1 -45 20.5 -68.5t66.5 -23.5q39 0 61.5 21t22.5 55q0 23 -16.5 39.5t-39.5 21.5q-11 3 -26.5 3t-46.5 -1v60q17 0 38 1t31 6q21 10 33.5 25.5t12.5 36.5
q0 26 -18.5 42.5t-53.5 16.5q-21 0 -35.5 -7t-23.5 -18t-12.5 -25.5t-3.5 -29.5h-5h-10q-8 -1 -21.5 -1h-34.5q-3 35 8.5 62t32.5 45t49 27.5t58 9.5q27 0 53 -8.5t47 -24.5t33.5 -39t12.5 -52q0 -30 -12 -52t-36 -41q26 -17 43.5 -41.5t17.5 -56.5q0 -61 -43 -99.5
t-115 -38.5q-33 0 -63 11t-52 31q-23 20 -35 49t-10 65z" />
    <glyph glyph-name="oneeighth" unicode="&#x215b;" horiz-adv-x="950" 
d="M138 447h674v-63h-674v63zM629 240q0 -53 -44 -88q27 -19 43 -44t16 -61q0 -33 -12.5 -58.5t-34.5 -43.5q-23 -17 -54 -26t-67 -9q-35 0 -65.5 9.5t-52.5 27.5q-23 18 -36 43.5t-13 56.5q0 68 60 103q-23 18 -34.5 41t-11.5 49q0 60 42 92.5t111 32.5q67 0 110 -32.5
t43 -92.5zM476 121q-45 0 -70 -21t-25 -53q0 -30 25 -51t70 -21q46 0 70.5 21t24.5 51q0 32 -24.5 53t-70.5 21zM476 301q-41 0 -60 -17t-19 -43q0 -24 19 -41.5t60 -17.5q40 0 60 17.5t20 41.5q0 26 -20 43t-60 17zM453 471v274h-88v63q25 1 45.5 4.5t31.5 11.5
q9 5 16 19.5t7 34.5h58v-407h-70z" />
    <glyph glyph-name="threeeighths" unicode="&#x215c;" horiz-adv-x="950" 
d="M138 447h674v-62h-674v62zM629 240q0 -53 -44 -88q27 -19 43 -44t16 -61q0 -33 -12.5 -58.5t-34.5 -43.5q-23 -17 -54 -26t-67 -9q-35 0 -65.5 9.5t-52.5 27.5q-23 18 -36 43.5t-13 56.5q0 68 60 103q-23 18 -34.5 41t-11.5 49q0 60 42 92.5t111 32.5q67 0 110 -32.5
t43 -92.5zM476 121q-45 0 -70 -21t-25 -53q0 -30 25 -51t70 -21q46 0 70.5 21t24.5 51q0 32 -24.5 53t-70.5 21zM476 301q-41 0 -60 -17t-19 -43q0 -24 19 -41.5t60 -17.5q40 0 60 17.5t20 41.5q0 26 -20 43t-60 17zM388 622q-1 -45 20.5 -68.5t66.5 -23.5q39 0 61.5 21
t22.5 55q0 23 -16.5 39.5t-39.5 21.5q-11 3 -26.5 3t-46.5 -1v60q17 0 38 1t31 6q21 10 33.5 25.5t12.5 36.5q0 26 -18.5 42.5t-53.5 16.5q-21 0 -35.5 -7t-23.5 -18t-12.5 -25.5t-3.5 -29.5h-5h-10q-8 -1 -21.5 -1h-34.5q-3 35 8.5 62t32.5 45t49 27.5t58 9.5q27 0 53 -8.5
t47 -24.5t33.5 -39t12.5 -52q0 -30 -12 -52t-36 -41q26 -17 43.5 -41.5t17.5 -56.5q0 -61 -43 -99.5t-115 -38.5q-33 0 -63 11t-52 31q-23 20 -35 49t-10 65z" />
    <glyph glyph-name="fiveeighths" unicode="&#x215d;" horiz-adv-x="950" 
d="M138 447h674v-63h-674v63zM318 665q2 13 7.5 46.5t11.5 72.5q6 38 11.5 72.5t8.5 49.5h245v-63h-188q-2 -14 -4 -24.5t-4 -20.5t-4 -20.5t-4 -23.5q22 11 45 15.5t41 2.5q28 -2 52.5 -14t42.5 -31q18 -20 28.5 -46.5t10.5 -58.5q0 -33 -12 -61.5t-33 -48.5
q-21 -21 -49 -32.5t-59 -11.5q-66 0 -107 35.5t-51 98.5h78q3 -30 24.5 -52t57.5 -22t58.5 24.5t22.5 64.5q0 39 -20.5 65.5t-58.5 26.5q-26 0 -46 -12t-33 -30zM629 240q0 -53 -44 -88q27 -19 43 -44t16 -61q0 -33 -12.5 -58.5t-34.5 -43.5q-23 -17 -54 -26t-67 -9
q-35 0 -65.5 9.5t-52.5 27.5q-23 18 -36 43.5t-13 56.5q0 68 60 103q-23 18 -34.5 41t-11.5 49q0 60 42 92.5t111 32.5q67 0 110 -32.5t43 -92.5zM476 121q-45 0 -70 -21t-25 -53q0 -30 25 -51t70 -21q46 0 70.5 21t24.5 51q0 32 -24.5 53t-70.5 21zM476 301q-41 0 -60 -17
t-19 -43q0 -24 19 -41.5t60 -17.5q40 0 60 17.5t20 41.5q0 26 -20 43t-60 17z" />
    <glyph glyph-name="seveneighths" unicode="&#x215e;" horiz-adv-x="950" 
d="M138 447h674v-63h-674v63zM324 888h305v-54q-32 -40 -59 -81t-47 -85q-21 -45 -33.5 -93.5t-13.5 -103.5h-72q0 39 13 87.5t34 97.5q20 49 45.5 93.5t51.5 75.5h-224v63zM629 240q0 -53 -44 -88q27 -19 43 -44t16 -61q0 -33 -12.5 -58.5t-34.5 -43.5q-23 -17 -54 -26
t-67 -9q-35 0 -65.5 9.5t-52.5 27.5q-23 18 -36 43.5t-13 56.5q0 68 60 103q-23 18 -34.5 41t-11.5 49q0 60 42 92.5t111 32.5q67 0 110 -32.5t43 -92.5zM476 121q-45 0 -70 -21t-25 -53q0 -30 25 -51t70 -21q46 0 70.5 21t24.5 51q0 32 -24.5 53t-70.5 21zM476 301
q-41 0 -60 -17t-19 -43q0 -24 19 -41.5t60 -17.5q40 0 60 17.5t20 41.5q0 26 -20 43t-60 17z" />
    <glyph glyph-name="uni2160" unicode="&#x2160;" horiz-adv-x="950" 
d="M440 789h70v-746h-70v746z" />
    <glyph glyph-name="uni2161" unicode="&#x2161;" horiz-adv-x="950" 
d="M323 789h69v-746h-69v746zM558 789h69v-746h-69v746z" />
    <glyph glyph-name="uni2162" unicode="&#x2162;" horiz-adv-x="950" 
d="M277 789h71v-746h-71v746zM602 789h71v-746h-71v746zM441 789h70v-746h-70v746z" />
    <glyph glyph-name="uni2163" unicode="&#x2163;" horiz-adv-x="950" 
d="M188 789h70v-746h-70v746zM575 43h-64l-229 746h73l188 -634l187 634h74z" />
    <glyph glyph-name="uni2164" unicode="&#x2164;" horiz-adv-x="950" 
d="M511 43h-64l-284 746h74l242 -647l242 647h72z" />
    <glyph glyph-name="uni2165" unicode="&#x2165;" horiz-adv-x="950" 
d="M753 789v-746h-71v746h71zM366 43l-229 746h74l187 -634l188 634h73l-229 -746h-64z" />
    <glyph glyph-name="uni2166" unicode="&#x2166;" horiz-adv-x="950" 
d="M663 789v-746h-71v746h71zM297 43l-199 746h73l160 -630l160 630h73l-200 -746h-67zM798 789v-746h-70v746h70z" />
    <glyph glyph-name="uni2167" unicode="&#x2167;" horiz-adv-x="950" 
d="M848 789v-746h-70v746h70zM595 789v-746h-70v746h70zM252 43l-191 746h72l152 -629l151 629h72l-191 -746h-65zM722 789v-746h-70v746h70z" />
    <glyph glyph-name="uni2168" unicode="&#x2168;" horiz-adv-x="950" 
d="M577 427l249 -384h-77l-211 325l-211 -325h-78l250 384l-234 362h77l196 -303l196 303h77zM161 789h70v-746h-70v746z" />
    <glyph glyph-name="uni2169" unicode="&#x2169;" horiz-adv-x="950" 
d="M513 427l250 -384h-78l-211 325l-211 -325h-78l249 384l-234 362h78l196 -303l197 303h77z" />
    <glyph glyph-name="uni2170" unicode="&#x2170;" horiz-adv-x="950" 
d="M509 43h-70v556h70v-556zM512 713h-79v81h79v-81z" />
    <glyph glyph-name="uni2171" unicode="&#x2171;" horiz-adv-x="950" 
d="M392 43h-69v556h69v-556zM396 713h-77v80h77v-80zM628 43h-69v556h69v-556zM632 713h-77v80h77v-80z" />
    <glyph glyph-name="uni2172" unicode="&#x2172;" horiz-adv-x="950" 
d="M348 43h-71v556h71v-556zM352 713h-78v80h78v-80zM674 43h-71v556h71v-556zM677 713h-78v80h78v-80zM511 43h-70v556h70v-556zM515 713h-78v80h78v-80z" />
    <glyph glyph-name="uni2173" unicode="&#x2173;" horiz-adv-x="950" 
d="M268 43h-70v556h70v-556zM272 713h-79v81h79v-81zM588 43h-63l-230 556h76l185 -445l186 445h77z" />
    <glyph glyph-name="uni2174" unicode="&#x2174;" horiz-adv-x="950" 
d="M506 38h-62l-230 556h76l185 -445l185 445h76z" />
    <glyph glyph-name="uni2175" unicode="&#x2175;" horiz-adv-x="950" 
d="M427 43h-62l-230 556h76l185 -445l185 445h77zM764 43h-71v556h71v-556zM767 713h-79v81h79v-81z" />
    <glyph glyph-name="uni2176" unicode="&#x2176;" horiz-adv-x="950" 
d="M364 43h-62l-204 556h76l159 -443l158 443h77zM664 43h-71v556h71v-556zM668 713h-77v80h77v-80zM799 43h-71v556h71v-556zM801 713h-76v80h76v-80z" />
    <glyph glyph-name="uni2177" unicode="&#x2177;" horiz-adv-x="950" 
d="M310 43h-62l-194 556h76l149 -444l149 444h76zM595 43h-71v556h71v-556zM598 713h-77v80h77v-80zM721 43h-70v556h70v-556zM725 713h-77v80h77v-80zM848 43h-70v556h70v-556zM852 713h-77v80h77v-80z" />
    <glyph glyph-name="uni2178" unicode="&#x2178;" horiz-adv-x="950" 
d="M286 43h-71v556h71v-556zM289 713h-78v81h78v-81zM548 271l-170 -228h-84l211 285l-201 271h84l161 -216l159 216h85l-201 -272l211 -284h-85z" />
    <glyph glyph-name="uni2179" unicode="&#x2179;" horiz-adv-x="950" 
d="M475 266l-170 -228h-84l210 285l-201 271h84l161 -216l161 216h84l-204 -272l214 -284h-86z" />
    <glyph glyph-name="arrowleft" unicode="&#x2190;" horiz-adv-x="950" 
d="M919 385h-658q12 -12 23.5 -21.5t23.5 -20.5q5 -4 8 -6.5t5 -4.5l-13 -22l-306 106l304 104l13 -22l-57 -51h657v-62z" />
    <glyph glyph-name="arrowup" unicode="&#x2191;" horiz-adv-x="950" 
d="M444 -50v691l-48 -63l-24 12l102 328l103 -327l-22 -14l-51 63v-690h-60z" />
    <glyph glyph-name="arrowright" unicode="&#x2192;" horiz-adv-x="950" 
d="M30 447h656l-59 52l13 22l308 -105l-307 -106l-13 22l60 53h-658v62z" />
    <glyph glyph-name="arrowdown" unicode="&#x2193;" horiz-adv-x="950" 
d="M555 258l23 -14l-104 -324l-102 324l24 12l48 -63v691h60v-692z" />
    <glyph glyph-name="arrowboth" unicode="&#x2194;" horiz-adv-x="950" 
d="M319 326l-13 -24l-306 113l308 115l13 -24l-66 -59h442l-67 59l13 24l305 -114l-303 -114l-13 24l62 59h-439z" />
    <glyph glyph-name="arrowupdn" unicode="&#x2195;" horiz-adv-x="950" 
d="M390 587l-22 13l107 320l107 -320l-22 -13l-55 64v-471l55 66l22 -13l-107 -321l-107 320l23 13l54 -65v472z" />
    <glyph glyph-name="uni2196" unicode="&#x2196;" horiz-adv-x="950" 
d="M872 -48l-693 729v-121l-26 -5l-132 338l317 -142l-5 -27h-108l689 -725z" />
    <glyph glyph-name="uni2197" unicode="&#x2197;" horiz-adv-x="950" 
d="M28 -12l692 730h-118l-4 27l324 140l-136 -333l-27 4v113l-688 -726z" />
    <glyph glyph-name="uni2198" unicode="&#x2198;" horiz-adv-x="950" 
d="M74 885l693 -729v120l26 5l133 -339l-318 144l5 27h108l-689 725z" />
    <glyph glyph-name="uni2199" unicode="&#x2199;" horiz-adv-x="950" 
d="M913 834l-692 -730h118l4 -27l-323 -139l135 332l27 -4v-112l688 725z" />
    <glyph glyph-name="arrowdblright" unicode="&#x21d2;" horiz-adv-x="950" 
d="M688 523l-114 85l39 50l335 -243l-337 -244l-37 53l116 85h-678v62h764l61 44l-64 46h-761v62h676z" />
    <glyph glyph-name="arrowdblboth" unicode="&#x21d4;" horiz-adv-x="950" 
d="M688 523l-115 85l40 51l335 -243l-337 -244l-37 53l116 84h-430l118 -84l-39 -51l-336 242l340 246l37 -53l-117 -86h425zM775 371l62 45l-63 45h-598l-62 -44l63 -46h598z" />
    <glyph glyph-name="universal" unicode="&#x2200;" horiz-adv-x="950" 
d="M312 581h363l89 209h73l-311 -746h-64l-311 746h73zM649 519h-312l156 -378z" />
    <glyph glyph-name="partialdiff" unicode="&#x2202;" horiz-adv-x="950" 
d="M429 238q52 20 82.5 65t48.5 102q-29 -1 -62 -9t-71 -34q-18 -14 -30 -30.5t-16 -35.5q-3 -11 -1.5 -24t7.5 -22q6 -10 16.5 -14.5t25.5 2.5zM458 558q-23 -4 -39.5 -14t-26.5 -21q-16 -21 -24.5 -27t-21.5 5q-5 16 1.5 26.5t13.5 20.5q14 14 29 27t33 23
q17 10 36.5 14.5t41.5 1.5q45 -2 74.5 -24t44.5 -55q15 -34 16.5 -75.5t-9.5 -83.5q-11 -35 -32 -69t-50 -61q-29 -28 -65 -45t-76 -17q-81 0 -95 82q-5 28 5 56.5t31 52.5q20 23 49 40t62 24q30 8 60.5 9.5t48.5 1.5q1 19 -3 36.5t-12 37.5q-14 24 -38.5 31.5t-53.5 2.5z
" />
    <glyph glyph-name="existential" unicode="&#x2203;" horiz-adv-x="950" 
d="M730 789v-746h-520v62h451v294h-425v63h425v265h-443v62h512z" />
    <glyph glyph-name="gradient" unicode="&#x2207;" horiz-adv-x="950" 
d="M475 76l-363 649h726zM219 663l257 -455l249 455h-506z" />
    <glyph glyph-name="element" unicode="&#x2208;" horiz-adv-x="950" 
d="M194 385q3 -42 19.5 -76t44.5 -57q28 -24 65 -37.5t82 -14.5h398v-62h-387q-60 0 -112.5 19t-90.5 55q-39 36 -61.5 87.5t-22.5 116.5q0 63 21 113.5t59 86.5t91 56t116 22h387v-62h-398q-44 0 -81 -12.5t-65 -36.5t-45 -58.5t-20 -77.5h608v-62h-608z" />
    <glyph glyph-name="suchthat" unicode="&#x220b;" horiz-adv-x="950" 
d="M150 385v62h608q-3 43 -20 77.5t-45 58.5t-65.5 36.5t-80.5 12.5h-398v62h387q63 -2 116 -22t91 -56t59 -86.5t21 -113.5q0 -65 -22.5 -116.5t-60.5 -87.5q-39 -36 -91.5 -55t-112.5 -19h-387v62h398q45 1 82 14.5t65 37.5q28 23 44.5 57t19.5 76h-608z" />
    <glyph glyph-name="product" unicode="&#x220f;" horiz-adv-x="950" 
d="M794 751v-62h-162v-608h-61v608h-192v-608h-61v608h-162v62h638z" />
    <glyph glyph-name="summation" unicode="&#x2211;" horiz-adv-x="950" 
d="M745 751v-240h-62v178h-405l251 -273l-252 -273h413v179h63v-241h-534q-14 0 -24 6.5t-13 22.5q2 13 11.5 28.5t17.5 24.5l231 253l-239 263v72h542z" />
    <glyph glyph-name="radical" unicode="&#x221a;" horiz-adv-x="950" 
d="M92 284l99 74l74 -146l81 490h492v-64h-440l-96 -561q-4 -13 -16 -13.5t-22 9.5l-97 191l-46 -36z" />
    <glyph glyph-name="proportional" unicode="&#x221d;" horiz-adv-x="950" 
d="M800 535q-21 17 -40.5 22.5t-45.5 5.5q-39 0 -63.5 -12.5t-41.5 -32.5q-17 -21 -29 -47.5t-26 -54.5q9 -26 21.5 -52.5t31.5 -47.5q18 -21 44.5 -34t62.5 -13q47 0 86 28l36 -51q-32 -21 -59.5 -31.5t-62.5 -10.5q-42 0 -75 12.5t-57 32.5q-25 19 -40.5 44t-22.5 49
q-14 -29 -31.5 -54t-40.5 -44q-24 -19 -53.5 -29.5t-66.5 -10.5q-43 0 -80 17t-64 46t-42 67.5t-15 81.5q0 42 15.5 80.5t42.5 68.5q27 29 64 46t79 17q37 0 67 -11t54 -29q23 -19 40.5 -44.5t31.5 -55.5q15 29 33 54.5t42 44.5q23 19 52 30t67 11q35 0 65 -11t56 -31z
M187 416q0 -29 10.5 -55.5t29.5 -46.5q19 -21 44.5 -33t55.5 -12q33 0 58 12.5t44 33.5q18 21 32 47t25 53q-11 26 -24.5 52.5t-32.5 47.5t-44 34.5t-58 13.5q-29 0 -54.5 -12t-44.5 -32q-19 -21 -30 -47.5t-11 -55.5z" />
    <glyph glyph-name="infinity" unicode="&#x221e;" horiz-adv-x="950" 
d="M474 480q12 25 28 46.5t36 38.5q20 16 46 25.5t58 9.5q36 0 68.5 -15t56.5 -40q24 -26 38 -59.5t14 -69.5t-14 -69.5t-38 -58.5q-24 -26 -56.5 -41t-68.5 -15q-56 0 -94.5 30.5t-72.5 87.5q-23 -51 -65.5 -84.5t-101.5 -33.5q-37 0 -69 15t-56 40t-38 58.5t-14 70.5
t14 70.5t38 58.5t56 40t69 15q23 0 43.5 -5.5t40.5 -18.5q20 -14 40 -37.5t42 -58.5zM753 416q0 23 -8.5 44t-22.5 38q-15 16 -35.5 26t-44.5 10t-44.5 -12t-36.5 -30t-27.5 -38.5t-16.5 -37.5q6 -18 17.5 -38.5t27.5 -38.5t36 -29.5t44 -11.5t44.5 10t35.5 27
q14 16 22.5 37t8.5 44zM198 416q0 -23 8 -44t23 -37q15 -17 35 -27t44 -10q27 0 46 10.5t34 27.5q14 17 24.5 37.5t20.5 41.5q-10 21 -20.5 42t-24.5 39q-15 17 -34 27.5t-46 10.5q-24 0 -44 -10t-35 -26q-15 -17 -23 -38.5t-8 -43.5z" />
    <glyph glyph-name="angle" unicode="&#x2220;" horiz-adv-x="950" 
d="M261 163h551v-63h-634q-20 0 -29 20q-2 9 4.5 20.5t14.5 18.5l549 583l47 -47z" />
    <glyph glyph-name="uni2225" unicode="&#x2225;" horiz-adv-x="950" 
d="M363 884h61v-936h-61v936zM525 884h61v-936h-61v936z" />
    <glyph glyph-name="logicaland" unicode="&#x2227;" horiz-adv-x="950" 
d="M740 77l-265 567l-264 -567l-52 32l287 619q3 8 12 16.5t17 8.5q22 0 29 -26v1l287 -620zM740 76q-1 0 0 1v-1z" />
    <glyph glyph-name="logicalor" unicode="&#x2228;" horiz-adv-x="950" 
d="M791 726l-287 -620v1q-6 -12 -12 -19t-17 -7q-8 0 -17 8.5t-12 16.5l-287 619l52 32l264 -567l265 567z" />
    <glyph glyph-name="intersection" unicode="&#x2229;" horiz-adv-x="950" 
d="M480 715q-44 0 -82 -15t-66 -44t-44.5 -71t-16.5 -95v-418h-61v407q0 62 19 116.5t54 95.5q34 41 83 65t109 24q64 0 113 -24t83 -65t51.5 -96t17.5 -116v-407h-61v418q0 45 -13 85.5t-38 71.5t-62.5 49.5t-85.5 18.5z" />
    <glyph glyph-name="union" unicode="&#x222a;" horiz-adv-x="950" 
d="M480 117q48 0 85.5 18.5t62.5 49.5t38 71.5t13 85.5v418h61v-407q0 -62 -17.5 -116.5t-51.5 -95.5t-83 -65t-113 -24q-60 0 -109 24t-83 65q-35 41 -54 95.5t-19 116.5v407h61v-418q0 -53 16.5 -95t44.5 -71t66 -44t82 -15z" />
    <glyph glyph-name="integral" unicode="&#x222b;" horiz-adv-x="950" 
d="M444 537q6 58 18 107t29 86q17 36 39 59.5t48 31.5q16 4 30 -0.5t26 -20.5q18 -26 2 -51q-10 -14 -22.5 -18.5t-24.5 0.5q-5 2 -11.5 5t-14.5 3q-16 1 -24.5 -21.5t-10.5 -54.5q-1 -35 -2.5 -70t-3.5 -69q0 -11 -1 -23.5t-3 -36.5t-5 -63.5t-7 -104.5q-7 -57 -19 -105.5
t-28 -85.5q-17 -38 -39 -62t-48 -31q-35 -6 -59 22q-7 11 -7.5 23.5t4.5 23.5q8 16 24.5 24t25.5 3q8 -5 13 -11t13 -3q15 7 24.5 28t11.5 48q5 92 8 182.5t14 184.5z" />
    <glyph glyph-name="uni222C" unicode="&#x222c;" horiz-adv-x="950" 
d="M324 537q6 58 18 107t29 86q17 36 39 59.5t48 31.5q16 4 30 -0.5t26 -20.5q18 -26 2 -51q-10 -14 -22.5 -18.5t-24.5 0.5q-5 2 -11.5 5t-14.5 3q-16 1 -24.5 -21.5t-10.5 -54.5q-1 -35 -2.5 -70t-3.5 -69q0 -11 -1 -23.5t-3 -36.5t-5 -63.5t-7 -104.5q-7 -57 -19 -105.5
t-28 -85.5q-17 -38 -39 -62t-48 -31q-35 -6 -59 22q-7 11 -7.5 23.5t4.5 23.5q8 16 24.5 24t25.5 3q8 -5 13 -11t13 -3q15 7 24.5 28t11.5 48q5 92 8 182.5t14 184.5zM564 537q6 58 18 107t29 86q17 36 39 59.5t48 31.5q16 4 30 -0.5t26 -20.5q18 -26 2 -51
q-10 -14 -22.5 -18.5t-24.5 0.5q-5 2 -11.5 5t-14.5 3q-16 1 -24.5 -21.5t-10.5 -54.5q-1 -35 -2.5 -70t-3.5 -69q0 -11 -1 -23.5t-3 -36.5t-5 -63.5t-7 -104.5q-7 -57 -19 -105.5t-28 -85.5q-17 -38 -39 -62t-48 -31q-35 -6 -59 22q-7 11 -7.5 23.5t4.5 23.5q8 16 24.5 24
t25.5 3q8 -5 13 -11t13 -3q15 7 24.5 28t11.5 48q5 92 8 182.5t14 184.5z" />
    <glyph glyph-name="uni222E" unicode="&#x222e;" horiz-adv-x="950" 
d="M379 196q13 39 23 78q-29 20 -47.5 51.5t-18.5 69.5q0 28 11 55t30 48t44 33t54 11l9 -2q14 46 26.5 74.5t20.5 44.5q19 38 49 55.5t56 12.5q47 -9 53 -46q2 -18 -3.5 -31.5t-16.5 -20.5q-16 -9 -34 -3t-27 26q-1 2 -2.5 6t-2.5 9q-3 -4 -15.5 -27t-24.5 -63
q-5 -14 -8.5 -28t-8.5 -31q31 -21 49.5 -53.5t18.5 -69.5q0 -27 -11 -53.5t-30 -46.5q-19 -21 -44.5 -33.5t-53.5 -10.5h-10q-26 -82 -54 -131q-23 -37 -47.5 -50.5t-50.5 -8.5q-25 4 -38 18t-15 28q-5 32 26 52q12 7 29.5 5t26.5 -14q5 -7 4.5 -16.5t-0.5 -11.5
q10 12 33 74zM399 395q0 -35 22 -57l43 138q-28 -4 -46.5 -26.5t-18.5 -54.5zM551 395q0 34 -21 57l-43 -136q27 5 45.5 27t18.5 52z" />
    <glyph glyph-name="therefore" unicode="&#x2234;" horiz-adv-x="950" 
d="M703 242q22 0 39.5 -17.5t17.5 -41.5t-17.5 -41.5t-39.5 -17.5t-39 17.5t-17 41.5t17 41.5t39 17.5zM247 242q22 0 39 -17.5t17 -41.5t-17 -41.5t-39 -17.5t-39.5 17.5t-17.5 41.5t17.5 41.5t39.5 17.5zM475 696q22 0 39.5 -17.5t17.5 -41.5t-17.5 -41.5t-39.5 -17.5
t-39.5 17.5t-17.5 41.5t17.5 41.5t39.5 17.5z" />
    <glyph glyph-name="uni2235" unicode="&#x2235;" horiz-adv-x="950" 
d="M703 589q-22 0 -39 17.5t-17 41.5t17 41.5t39 17.5t39.5 -17.5t17.5 -41.5t-17.5 -41.5t-39.5 -17.5zM247 589q-22 0 -39.5 17.5t-17.5 41.5t17.5 41.5t39.5 17.5t39 -17.5t17 -41.5t-17 -41.5t-39 -17.5zM475 135q-22 0 -39.5 17.5t-17.5 41.5t17.5 41.5t39.5 17.5
t39.5 -17.5t17.5 -41.5t-17.5 -41.5t-39.5 -17.5z" />
    <glyph glyph-name="similar" unicode="&#x223c;" horiz-adv-x="950" 
d="M81 354q3 48 19.5 91.5t45.5 76.5t71 51.5t95 15.5q104 -12 155 -111q49 -88 131 -94q39 -2 66 11.5t46 38.5q18 24 29.5 56t19.5 67h63q-9 -50 -26 -94t-45 -76q-29 -33 -70 -50.5t-99 -13.5q-48 9 -88 36.5t-70 75.5q-24 42 -55.5 66t-64.5 29q-41 -1 -69 -14t-46 -35
q-19 -23 -29.5 -55t-16.5 -72h-62z" />
    <glyph glyph-name="uni223D" unicode="&#x223d;" horiz-adv-x="950" 
d="M681 642q43 -1 78.5 -17.5t60.5 -45.5t38 -67.5t12 -83.5q-1 -40 -15.5 -75.5t-39.5 -61.5q-26 -27 -60.5 -42.5t-76.5 -15.5q-32 0 -66.5 8.5t-57.5 28.5l25 54q24 -10 49 -18.5t55 -8.5q25 0 47.5 10.5t39.5 27.5q16 17 26 40t11 47q2 63 -32 107.5t-97 49.5
q-36 1 -63.5 -13.5t-47.5 -38.5q-21 -24 -36 -53t-27 -57q-13 -27 -34.5 -62.5t-51.5 -65.5t-66.5 -47t-79.5 -7q-41 3 -76 20t-60 45t-39 66t-13 82q1 39 15.5 74.5t40.5 62.5q25 27 60 43t76 16q14 0 31 -3t34 -8q17 -6 32.5 -14.5t26.5 -19.5l-29 -51q-21 16 -45.5 24.5
t-53.5 8.5q-26 0 -48.5 -10t-39.5 -27q-18 -18 -28 -41.5t-11 -49.5q0 -68 34.5 -111.5t97.5 -46.5q34 -2 61 14t48 40t36.5 52.5t26.5 51.5q19 33 39.5 67.5t47.5 62.5q27 27 62 43.5t83 15.5z" />
    <glyph glyph-name="uni2252" unicode="&#x2252;" horiz-adv-x="950" 
d="M138 531h674v-68h-674v68zM138 369h674v-68h-674v68zM292 732q26 0 42.5 -18.5t16.5 -43.5q0 -26 -16.5 -44.5t-42.5 -18.5t-43 18.5t-17 44.5q0 25 17 43.5t43 18.5zM659 226q24 0 42 -18.5t18 -44.5q0 -25 -18 -43.5t-42 -18.5q-23 0 -42 18.5t-19 43.5q0 26 19 44.5
t42 18.5z" />
    <glyph glyph-name="notequal" unicode="&#x2260;" horiz-adv-x="950" 
d="M474 546l74 229l63 -16l-64 -213h275v-66h-299l-42 -132h341v-68h-363l-77 -225l-68 13l72 212h-238v68h262l42 132h-304v66h326z" />
    <glyph glyph-name="equivalence" unicode="&#x2261;" horiz-adv-x="950" 
d="M138 599h674v-62h-674v62zM138 447h674v-62h-674v62zM138 295h674v-62h-674v62z" />
    <glyph glyph-name="lessequal" unicode="&#x2264;" horiz-adv-x="950" 
d="M277 513l525 -232l-31 -64l-597 264q-9 5 -18.5 14t-9.5 18q0 16 24 30l607 269l24 -66zM128 182h693v-69h-693v69z" />
    <glyph glyph-name="greaterequal" unicode="&#x2265;" horiz-adv-x="950" 
d="M158 746l24 66l607 -269q24 -14 24 -30q0 -9 -9.5 -18t-18.5 -14l-597 -264l-31 64l525 232zM831 113h-693v69h693v-69z" />
    <glyph glyph-name="uni226A" unicode="&#x226a;" horiz-adv-x="950" 
d="M594 776l37 -48l-427 -312l427 -312l-39 -46l-450 330q-10 8 -16 14t-6 14t7 15.5t16 13.5zM814 776l37 -48l-427 -312l427 -312l-39 -46l-450 330q-10 8 -16 14t-6 14t7 15.5t16 13.5z" />
    <glyph glyph-name="uni226B" unicode="&#x226b;" horiz-adv-x="950" 
d="M808 445q9 -6 16 -13.5t7 -15.5t-6 -14t-16 -14l-450 -330l-39 46l427 312l-427 312l37 48zM588 445q9 -6 16 -13.5t7 -15.5t-6 -14t-16 -14l-450 -330l-39 46l427 312l-427 312l37 48z" />
    <glyph glyph-name="propersubset" unicode="&#x2282;" horiz-adv-x="950" 
d="M192 421q0 -98 56 -157.5t157 -63.5h398v-62h-387q-60 0 -112.5 19t-90.5 55q-39 36 -61.5 87.5t-22.5 116.5q0 63 21 114t59 87t91 56t116 21h387v-62h-398q-45 0 -83 -15t-66 -43q-29 -28 -46 -67t-18 -86z" />
    <glyph glyph-name="propersuperset" unicode="&#x2283;" horiz-adv-x="950" 
d="M760 421q-2 47 -18.5 86t-44.5 67q-29 28 -67 43t-83 15h-398v62h387q63 -1 116 -21t91 -56t59 -87t21 -114q0 -65 -22.5 -116.5t-60.5 -87.5q-39 -36 -91.5 -55t-112.5 -19h-387v62h398q101 4 157 63.5t56 157.5z" />
    <glyph glyph-name="reflexsubset" unicode="&#x2286;" horiz-adv-x="950" 
d="M128 162h693v-62h-693v62zM191 492q0 -42 16 -76t45 -57q28 -24 67 -35.5t86 -9.5h398v-62h-388q-61 -3 -113.5 12.5t-90.5 47.5q-39 31 -61 77t-22 103t22 103t61 78q38 31 90.5 46.5t113.5 12.5h388v-62h-398q-46 2 -85.5 -9.5t-67.5 -34.5q-29 -24 -45 -58t-16 -76z
" />
    <glyph glyph-name="reflexsuperset" unicode="&#x2287;" horiz-adv-x="950" 
d="M821 100h-693v62h693v-62zM758 492q0 42 -16 76t-44 58q-29 23 -68.5 34.5t-85.5 9.5h-398v62h388q61 3 113.5 -12.5t91.5 -46.5q38 -32 60 -78t22 -103t-22 -103t-60 -77q-39 -32 -91.5 -47.5t-113.5 -12.5h-388v62h398q46 -2 85.5 9.5t68.5 35.5q28 23 44 57t16 76z
" />
    <glyph glyph-name="uni2299" unicode="&#x2299;" horiz-adv-x="950" 
d="M476 816q81 0 151 -32.5t121 -87.5t80.5 -128t29.5 -153t-29.5 -152.5t-80.5 -127.5q-52 -55 -122 -87.5t-150 -32.5q-82 0 -152 32t-121 87q-52 55 -81.5 127.5t-29.5 153.5t29.5 154t81.5 128q51 54 121.5 86.5t151.5 32.5zM476 747q-68 0 -126 -27t-100 -72
q-43 -46 -67 -106t-24 -127q0 -66 24 -126.5t67 -105.5q42 -46 100 -73t126 -27q67 0 125 27.5t100 73.5q42 45 66 105t24 126q0 65 -24 125t-66 106q-43 46 -100.5 73.5t-124.5 27.5zM476 582q33 0 62 -14t51 -37t34.5 -53.5t12.5 -63.5t-12.5 -63t-33.5 -53
q-22 -23 -51.5 -36.5t-62.5 -13.5t-62.5 13.5t-50.5 36.5q-22 23 -34.5 53t-12.5 63t12.5 63.5t34.5 53.5t51 37t62 14z" />
    <glyph glyph-name="perpendicular" unicode="&#x22a5;" horiz-adv-x="950" 
d="M156 162h286v551h66v-551h286v-63h-638v63z" />
    <glyph glyph-name="uni2312" unicode="&#x2312;" horiz-adv-x="950" 
d="M136 431q7 66 36.5 124t74.5 101t103.5 68t124.5 25t124.5 -25t103.5 -68t74.5 -101t37.5 -124h-68q-8 53 -31.5 99t-59.5 80t-82.5 53.5t-98.5 19.5q-53 0 -98.5 -19.5t-80.5 -53.5t-59 -80t-34 -99h-67z" />
    <glyph glyph-name="uni2460" unicode="&#x2460;" horiz-adv-x="1000" 
d="M42 376q0 94 35.5 177t97.5 145t145.5 98t179.5 36q94 0 177.5 -36t145.5 -98q61 -62 97 -145t36 -177q0 -95 -36 -178t-97 -146q-62 -62 -145.5 -98t-177.5 -36q-96 0 -179.5 36t-145.5 98q-62 63 -97.5 146t-35.5 178zM105 376q0 -81 31 -153t85 -126t126 -85t153 -31
t153 31t126 85q53 54 84.5 126t31.5 153t-31.5 153t-84.5 126q-54 53 -126 84.5t-153 31.5t-153 -31.5t-126 -84.5q-54 -54 -85 -126t-31 -153zM413 652q7 0 27 2t44 4q23 2 43.5 4t28.5 3v-584h-70v520h-73v51z" />
    <glyph glyph-name="uni2461" unicode="&#x2461;" horiz-adv-x="1000" 
d="M42 376q0 94 35.5 177t97.5 145t145.5 98t179.5 36q94 0 177.5 -36t145.5 -98q61 -62 97 -145t36 -177q0 -95 -36 -178t-97 -145q-62 -62 -145.5 -98t-177.5 -36q-96 0 -179.5 36t-145.5 98t-97.5 145t-35.5 178zM105 376q0 -81 31 -153t85 -126t126 -85t153 -31t153 31
t126 85q53 54 84.5 126t31.5 153t-31.5 153t-84.5 126q-54 53 -126 84.5t-153 31.5t-153 -31.5t-126 -84.5q-54 -54 -85 -126t-31 -153zM705 86h-382v11q40 40 87.5 90.5t88.5 103.5q41 52 69 103.5t28 93.5q0 27 -9 50.5t-26 40.5t-40.5 27t-51.5 10q-37 0 -72.5 -19.5
t-67.5 -51.5v78q74 54 147 54q38 0 72.5 -12.5t60.5 -35.5q26 -24 41.5 -57t15.5 -74q0 -71 -45 -141q-22 -34 -66 -89.5t-109 -123.5h259v-58z" />
    <glyph glyph-name="uni2462" unicode="&#x2462;" horiz-adv-x="1000" 
d="M42 376q0 94 35.5 177t97.5 145t145.5 98t179.5 36q94 0 177.5 -36t145.5 -98q61 -62 97 -145t36 -177q0 -95 -36 -178t-97 -146q-62 -62 -145.5 -98t-177.5 -36q-96 0 -179.5 36t-145.5 98q-62 63 -97.5 146t-35.5 178zM105 376q0 -81 31 -153t85 -126t126 -85t153 -31
t153 31t126 85q53 54 84.5 126t31.5 153t-31.5 153t-84.5 126q-54 53 -126 84.5t-153 31.5t-153 -31.5t-126 -84.5q-54 -54 -85 -126t-31 -153zM381 652q26 11 56 18t60 7q34 0 67.5 -8.5t59.5 -26.5t42 -46t16 -68q0 -44 -22 -80t-78 -57q50 -14 80 -52t30 -90
q0 -41 -16 -73t-43 -54q-27 -23 -63.5 -34.5t-76.5 -11.5q-30 0 -63.5 7t-65.5 21v70q32 -20 67 -29t70 -9q24 0 46 7t39 21q16 14 26 34.5t10 47.5q0 30 -14 51t-35 34q-22 13 -49.5 19t-54.5 7v58q67 2 104.5 27t37.5 71q0 49 -34 76t-88 27q-27 0 -53.5 -6.5t-54.5 -17.5
v60z" />
    <glyph glyph-name="uni2463" unicode="&#x2463;" horiz-adv-x="1000" 
d="M42 376q0 94 35.5 177t97.5 145t145.5 98t179.5 36q94 0 177.5 -36t145.5 -98q61 -62 97 -145t36 -177q0 -95 -36 -178t-97 -146q-62 -62 -145.5 -98t-177.5 -36q-96 0 -179.5 36t-145.5 98q-62 63 -97.5 146t-35.5 178zM105 376q0 -81 31 -153t85 -126t126 -85t153 -31
t153 31t126 85q53 54 84.5 126t31.5 153t-31.5 153t-84.5 126q-54 53 -126 84.5t-153 31.5t-153 -31.5t-126 -84.5q-54 -54 -85 -126t-31 -153zM543 540l-191 -223h192v223h-1zM614 663v-346h72v-62h-72v-170h-70v170h-285v38q14 16 39.5 45.5t56.5 65.5q31 35 65 74t66 75
q31 35 56 64.5t39 45.5h33z" />
    <glyph glyph-name="uni2464" unicode="&#x2464;" horiz-adv-x="1000" 
d="M42 376q0 94 35.5 177t97.5 145t145.5 98t179.5 36q94 0 177.5 -36t145.5 -98q61 -62 97 -145t36 -177q0 -95 -36 -178t-97 -145q-62 -62 -145.5 -98t-177.5 -36q-96 0 -179.5 36t-145.5 98t-97.5 145t-35.5 178zM105 376q0 -81 31 -153t85 -126t126 -85t153 -31t153 31
t126 85q53 54 84.5 126t31.5 153t-31.5 153t-84.5 126q-54 53 -126 84.5t-153 31.5t-153 -31.5t-126 -84.5q-54 -54 -85 -126t-31 -153zM649 603h-207v-155h18q43 0 83.5 -11.5t72.5 -34.5q31 -23 50 -57.5t19 -79.5q0 -42 -17 -77t-45 -60q-29 -25 -67.5 -38.5t-80.5 -13.5
q-38 0 -74 7.5t-75 25.5v69q29 -19 65.5 -31t76.5 -12q26 0 52 8.5t47 25.5q20 16 33 39.5t13 54.5q0 33 -16 57t-41 40q-25 15 -56 22.5t-61 7.5q-14 0 -29.5 -2t-32.5 -5v280h272v-60z" />
    <glyph glyph-name="uni2465" unicode="&#x2465;" horiz-adv-x="1000" 
d="M42 376q0 94 35.5 177t97.5 145t145.5 98t179.5 36q94 0 177.5 -36t145.5 -98q61 -62 97 -145t36 -177q0 -95 -36 -178t-97 -145q-62 -62 -145.5 -98t-177.5 -36q-96 0 -179.5 36t-145.5 98t-97.5 145t-35.5 178zM105 376q0 -81 31 -153t85 -126t126 -85t153 -31t153 31
t126 85q53 54 84.5 126t31.5 153t-31.5 153t-84.5 126q-54 53 -126 84.5t-153 31.5t-153 -31.5t-126 -84.5q-54 -54 -85 -126t-31 -153zM499 378q-35 0 -64.5 -12.5t-59.5 -34.5q-2 -13 -3.5 -25t-1.5 -24q1 -26 10.5 -50.5t26.5 -43.5q16 -20 39 -31.5t52 -11.5q25 0 47 9
t38 25q16 15 25.5 37t9.5 48q0 24 -9.5 44.5t-25.5 36.5q-16 15 -37.5 24t-46.5 9zM301 298q0 63 19.5 120t53.5 108t80 94.5t100 79.5q11 -13 21.5 -25.5t21.5 -24.5q-36 -21 -69.5 -49t-60.5 -61q-28 -33 -48 -69t-30 -73q29 22 62.5 31t63.5 9q35 0 67 -13.5t56 -36.5
q24 -24 38 -56t14 -69q0 -36 -15 -68.5t-40 -56.5t-59 -38t-71 -14q-45 0 -82.5 15.5t-64.5 44.5q-27 28 -42 66.5t-15 85.5z" />
    <glyph glyph-name="uni2466" unicode="&#x2466;" horiz-adv-x="1000" 
d="M42 376q0 94 35.5 177t97.5 145t145.5 98t179.5 36q94 0 177.5 -36t145.5 -98q61 -62 97 -145t36 -177q0 -95 -36 -178t-97 -145q-62 -62 -145.5 -98t-177.5 -36q-96 0 -179.5 36t-145.5 98t-97.5 145t-35.5 178zM105 376q0 -81 31 -153t85 -126t126 -85t153 -31t153 31
t126 85q53 54 84.5 126t31.5 153t-31.5 153t-84.5 126q-54 53 -126 84.5t-153 31.5t-153 -31.5t-126 -84.5q-54 -54 -85 -126t-31 -153zM719 646q-72 -149 -142.5 -295t-142.5 -294q-15 5 -30.5 11t-30.5 12q60 127 119.5 252t119.5 252h-296v62h403z" />
    <glyph glyph-name="uni2467" unicode="&#x2467;" horiz-adv-x="1000" 
d="M42 376q0 94 35.5 177t97.5 145t145.5 98t179.5 36q94 0 177.5 -36t145.5 -98q61 -62 97 -145t36 -177q0 -95 -36 -178t-97 -146q-62 -62 -145.5 -98t-177.5 -36q-96 0 -179.5 36t-145.5 98q-62 63 -97.5 146t-35.5 178zM105 376q0 -81 31 -153t85 -126t126 -85t153 -31
t153 31t126 85q53 54 84.5 126t31.5 153t-31.5 153t-84.5 126q-54 53 -126 84.5t-153 31.5t-153 -31.5t-126 -84.5q-54 -54 -85 -126t-31 -153zM296 241q0 47 28 85t73 59q-39 21 -62 56t-23 78q0 33 14.5 62.5t40.5 51.5q25 21 59.5 33.5t73.5 12.5t74 -12.5t61 -33.5
q25 -22 40 -51.5t15 -62.5q0 -44 -25 -80t-65 -56q45 -22 72 -59t27 -83q0 -34 -16 -64t-43 -52q-27 -23 -64 -36t-79 -13t-78.5 13t-63.5 36q-28 22 -43.5 52t-15.5 64zM366 243q0 -22 10.5 -41.5t28.5 -33.5q17 -15 41 -23.5t51 -8.5t51 8.5t42 23.5q18 14 28.5 33.5
t10.5 41.5t-10.5 41.5t-28.5 34.5q-18 14 -42 22.5t-51 8.5t-51 -8.5t-41 -22.5q-18 -15 -28.5 -34.5t-10.5 -41.5zM382 517q0 -21 9.5 -40t25.5 -32q16 -14 37.5 -22t45.5 -8t46 8t39 22q16 13 25.5 32t9.5 40t-9.5 39.5t-25.5 33.5q-17 14 -39 22t-46 8t-45.5 -8
t-37.5 -22q-16 -15 -25.5 -33.5t-9.5 -39.5z" />
    <glyph glyph-name="uni2468" unicode="&#x2468;" horiz-adv-x="1000" 
d="M42 376q0 94 35.5 177t97.5 145t145.5 98t179.5 36q94 0 177.5 -36t145.5 -98q61 -62 97 -145t36 -177q0 -95 -36 -178t-97 -146q-62 -62 -145.5 -98t-177.5 -36q-96 0 -179.5 36t-145.5 98q-62 63 -97.5 146t-35.5 178zM105 376q0 -81 31 -153t85 -126t126 -85t153 -31
t153 31t126 85q53 54 84.5 126t31.5 153t-31.5 153t-84.5 126q-54 53 -126 84.5t-153 31.5t-153 -31.5t-126 -84.5q-54 -54 -85 -126t-31 -153zM509 616q-24 0 -46 -8.5t-38 -23.5q-17 -15 -27 -36.5t-10 -47.5q0 -24 9.5 -45t26.5 -36q16 -16 38 -25.5t47 -9.5
q35 0 63.5 12.5t57.5 35.5q7 29 3 61.5t-19 59.5q-16 27 -42.5 45t-62.5 18zM707 461q0 -61 -19.5 -118t-53.5 -108t-80.5 -95t-99.5 -78l-44 49q41 24 76 54.5t62 63.5t45 67.5t24 68.5q-27 -23 -60 -32t-65 -9q-35 0 -67 13.5t-56 37.5t-38.5 56t-14.5 69t15.5 69t41.5 56
q25 24 59 37.5t72 13.5q45 0 82.5 -16.5t64.5 -45.5q26 -29 41 -68t15 -85z" />
    <glyph glyph-name="uni2469" unicode="&#x2469;" horiz-adv-x="1000" 
d="M42 376q0 94 35.5 177t97.5 145t145.5 98t179.5 36q94 0 177.5 -36t145.5 -98q61 -62 97 -145t36 -177q0 -95 -36 -178t-97 -146q-62 -62 -145.5 -98t-177.5 -36q-96 0 -179.5 36t-145.5 98q-62 63 -97.5 146t-35.5 178zM105 376q0 -81 31 -153t85 -126t126 -85t153 -31
t153 31t126 85q53 54 84.5 126t31.5 153t-31.5 153t-84.5 126q-54 53 -126 84.5t-153 31.5t-153 -31.5t-126 -84.5q-54 -54 -85 -126t-31 -153zM238 656q7 0 24.5 1.5t38.5 3.5q20 1 38 3t26 3v-587h-63v524h-64v52zM425 371q0 62 14.5 117t39.5 96q24 41 57.5 64.5
t71.5 23.5t71.5 -23.5t58.5 -64.5t39.5 -96t14.5 -117t-14.5 -117t-39.5 -96t-58.5 -64.5t-71.5 -23.5t-71.5 23.5t-57.5 64.5q-25 41 -39.5 96t-14.5 117zM486 371q0 -50 10 -93.5t27 -76.5q16 -33 38 -52t47 -19t47.5 19t39.5 52q16 33 26 76.5t10 93.5q0 49 -10 93
t-26 77q-17 33 -39.5 52t-47.5 19t-47 -19t-38 -52q-17 -33 -27 -77t-10 -93z" />
    <glyph glyph-name="uni246A" unicode="&#x246a;" horiz-adv-x="1000" 
d="M42 376q0 94 35.5 177t97.5 145t145.5 98t179.5 36q94 0 177.5 -36t145.5 -98q61 -62 97 -145t36 -177q0 -95 -36 -178t-97 -146q-62 -62 -145.5 -98t-177.5 -36q-96 0 -179.5 36t-145.5 98q-62 63 -97.5 146t-35.5 178zM105 376q0 -81 31 -153t85 -126t126 -85t153 -31
t153 31t126 85q53 54 84.5 126t31.5 153t-31.5 153t-84.5 126q-54 53 -126 84.5t-153 31.5t-153 -31.5t-126 -84.5q-54 -54 -85 -126t-31 -153zM418 656q7 0 24.5 1.5t38.5 3.5q20 1 38 3t26 3v-587h-63v524h-64v52zM419 604h63v-524h64v587q-8 -1 -26 -3t-38 -3
q-21 -2 -38.5 -3.5t-24.5 -1.5v-52z" />
    <glyph glyph-name="uni246B" unicode="&#x246b;" horiz-adv-x="1000" 
d="M42 376q0 94 35.5 177t97.5 145t145.5 98t179.5 36q94 0 177.5 -36t145.5 -98q61 -62 97 -145t36 -177q0 -95 -36 -178t-97 -145q-62 -62 -145.5 -98t-177.5 -36q-96 0 -179.5 36t-145.5 98t-97.5 145t-35.5 178zM105 376q0 -81 31 -153t85 -126t126 -85t153 -31t153 31
t126 85q53 54 84.5 126t31.5 153t-31.5 153t-84.5 126q-54 53 -126 84.5t-153 31.5t-153 -31.5t-126 -84.5q-54 -54 -85 -126t-31 -153zM243 656q32 2 63 5t64 6v-587h-63v524h-64v52zM781 85h-339v12q37 41 79.5 91t79.5 103q37 52 61.5 103t24.5 94q0 26 -8 49t-22 41
q-15 17 -36 27.5t-47 10.5q-34 0 -65.5 -19.5t-60.5 -52.5v78q64 54 132 54q35 0 66 -13t55 -36q23 -24 36.5 -57t13.5 -73q0 -71 -41 -141q-19 -33 -58.5 -88.5t-99.5 -123.5h229v-59z" />
    <glyph glyph-name="uni246C" unicode="&#x246c;" horiz-adv-x="1000" 
d="M42 376q0 94 35.5 177t97.5 145t145.5 98t179.5 36q94 0 177.5 -36t145.5 -98q61 -62 97 -145t36 -177q0 -95 -36 -178t-97 -146q-62 -62 -145.5 -98t-177.5 -36q-96 0 -179.5 36t-145.5 98q-62 63 -97.5 146t-35.5 178zM105 376q0 -81 31 -153t85 -126t126 -85t153 -31
t153 31t126 85q53 54 84.5 126t31.5 153t-31.5 153t-84.5 126q-54 53 -126 84.5t-153 31.5t-153 -31.5t-126 -84.5q-54 -54 -85 -126t-31 -153zM488 652q24 11 51 17.5t53 6.5q33 0 63 -9t54 -27q23 -18 36.5 -46t13.5 -66q0 -44 -19.5 -80t-70.5 -57q46 -15 72.5 -53.5
t26.5 -88.5q0 -39 -14 -71.5t-38 -54.5q-24 -23 -56.5 -35.5t-70.5 -12.5q-27 0 -57 7.5t-59 21.5v70q29 -20 60.5 -29t62.5 -9q45 0 77 29t32 80q0 30 -12 50.5t-31 34.5q-20 13 -45 19.5t-50 7.5v57q60 2 94 27t34 71q0 48 -30 75.5t-79 27.5q-25 0 -48.5 -6.5
t-49.5 -17.5v61zM243 656q7 0 24.5 1.5t38.5 3.5q20 1 38 3t26 3v-587h-63v524h-64v52z" />
    <glyph glyph-name="uni246D" unicode="&#x246d;" horiz-adv-x="1000" 
d="M42 376q0 94 35.5 177t97.5 145t145.5 98t179.5 36q94 0 177.5 -36t145.5 -98q61 -62 97 -145t36 -177q0 -95 -36 -178t-97 -146q-62 -62 -145.5 -98t-177.5 -36q-96 0 -179.5 36t-145.5 98q-62 63 -97.5 146t-35.5 178zM105 376q0 -81 31 -153t85 -126t126 -85t153 -31
t153 31t126 85q53 54 84.5 126t31.5 153t-31.5 153t-84.5 126q-54 53 -126 84.5t-153 31.5t-153 -31.5t-126 -84.5q-54 -54 -85 -126t-31 -153zM504 317h157v215zM725 663v-346h65v-62h-65v-170h-64v170h-240v38q12 16 34 45.5t48 65.5q26 35 55 74t55 75q26 35 47.5 64.5
t34.5 45.5h30zM243 656q7 0 24.5 1.5t38.5 3.5q20 1 38 3t26 3v-587h-63v524h-64v52z" />
    <glyph glyph-name="uni246E" unicode="&#x246e;" horiz-adv-x="1000" 
d="M42 376q0 94 35.5 177t97.5 145t145.5 98t179.5 36q94 0 177.5 -36t145.5 -98q61 -62 97 -145t36 -177q0 -95 -36 -178t-97 -145q-62 -62 -145.5 -98t-177.5 -36q-96 0 -179.5 36t-145.5 98t-97.5 145t-35.5 178zM105 376q0 -81 31 -153t85 -126t126 -85t153 -31t153 31
t126 85q53 54 84.5 126t31.5 153t-31.5 153t-84.5 126q-54 53 -126 84.5t-153 31.5t-153 -31.5t-126 -84.5q-54 -54 -85 -126t-31 -153zM238 656q29 2 60.5 5t62.5 6v-584h-63v522h-60v51zM740 604h-188v-157q5 0 9.5 0.5t9.5 0.5q40 0 76 -12t64 -35q27 -24 43.5 -58.5
t16.5 -78.5q0 -41 -14.5 -75.5t-39.5 -59.5q-26 -26 -60.5 -40.5t-74.5 -14.5q-34 0 -66.5 7.5t-67.5 25.5v68q26 -18 58.5 -30t68.5 -12q24 0 47.5 9t42.5 26q18 16 29.5 40t11.5 54q0 33 -13.5 56.5t-35.5 39.5q-23 16 -51 23.5t-56 7.5q-13 0 -27 -2t-29 -5v281h246v-59z
" />
    <glyph glyph-name="uni2474" unicode="&#x2474;" horiz-adv-x="1000" 
d="M174 -34q-55 92 -92 194t-37 216t37 216t92 194h65q-23 -46 -45 -96t-39 -102q-17 -53 -27 -106.5t-10 -105.5q0 -53 10 -106.5t27 -105.5q16 -52 38 -102t46 -96h-65zM764 -34q24 46 46 96t39 102q16 52 26 105.5t10 106.5q0 52 -10 105.5t-27 106.5q-17 52 -39 102
t-45 96h65q55 -92 92 -194t37 -216t-37 -216t-92 -194h-65zM409 670q7 1 28.5 2.5t45.5 4.5q24 2 45.5 4t29.5 3v-618h-73v551h-76v53z" />
    <glyph glyph-name="uni2475" unicode="&#x2475;" horiz-adv-x="1000" 
d="M174 -34q-55 92 -92 194t-37 216t37 216t92 194h65q-23 -46 -45 -96t-39 -102q-17 -53 -27 -106.5t-10 -105.5q0 -53 10 -106.5t27 -105.5q16 -52 38 -102t46 -96h-65zM764 -34q24 46 46 96t39 102q16 52 26 105.5t10 106.5q0 52 -10 105.5t-27 106.5q-17 52 -39 102
t-45 96h65q55 -92 92 -194t37 -216t-37 -216t-92 -194h-65zM720 68h-403v13q43 44 93.5 97t94.5 109q43 55 72 108.5t29 98.5q0 28 -9.5 52.5t-27.5 43.5q-18 18 -42.5 28.5t-54.5 10.5q-40 0 -77 -20.5t-71 -54.5v82q77 57 155 57q40 0 76 -13.5t64 -37.5q28 -25 44.5 -60
t16.5 -78q0 -38 -12.5 -74.5t-35.5 -74.5q-23 -36 -70 -94.5t-116 -130.5h274v-62z" />
    <glyph glyph-name="uni2476" unicode="&#x2476;" horiz-adv-x="1000" 
d="M174 -34q-55 92 -92 194t-37 216t37 216t92 194h65q-23 -46 -45 -96t-39 -102q-17 -53 -27 -106.5t-10 -105.5q0 -53 10 -106.5t27 -105.5q16 -52 38 -102t46 -96h-65zM764 -34q24 46 46 96t39 102q16 52 26 105.5t10 106.5q0 52 -10 105.5t-27 106.5q-17 52 -39 102
t-45 96h65q55 -92 92 -194t37 -216t-37 -216t-92 -194h-65zM368 667q28 12 59 19t63 7q37 0 72 -9t63 -27q27 -19 43.5 -49t16.5 -72q0 -46 -23 -84t-82 -60q52 -17 84 -56.5t32 -93.5q0 -43 -17 -77t-45 -58q-29 -24 -67 -36.5t-81 -12.5q-32 0 -67 7.5t-70 22.5v74
q35 -20 72 -30t73 -10q25 0 48.5 7.5t41.5 22.5q17 15 27.5 36.5t10.5 49.5q0 32 -14.5 54t-37.5 36t-52 20.5t-57 7.5v60q71 2 110.5 29t39.5 75q0 52 -36 80.5t-93 28.5q-29 0 -57 -7t-57 -18v63z" />
    <glyph glyph-name="uni2477" unicode="&#x2477;" horiz-adv-x="1000" 
d="M174 -34q-55 92 -92 194t-37 216t37 216t92 194h65q-23 -46 -45 -96t-39 -102q-17 -53 -27 -106.5t-10 -105.5q0 -53 10 -106.5t27 -105.5q16 -52 38 -102t46 -96h-65zM764 -34q24 46 46 96t39 102q16 52 26 105.5t10 106.5q0 52 -10 105.5t-27 106.5q-17 52 -39 102
t-45 96h65q55 -92 92 -194t37 -216t-37 -216t-92 -194h-65zM552 548l-202 -235h203v235h-1zM627 678v-365h76v-66h-76v-179h-74v179h-300v41q15 17 41.5 47.5t59.5 68.5t68.5 79t68.5 79q33 37 59.5 68t41.5 48h35z" />
    <glyph glyph-name="uni2478" unicode="&#x2478;" horiz-adv-x="1000" 
d="M174 -34q-55 92 -92 194t-37 216t37 216t92 194h65q-23 -46 -45 -96t-39 -102q-17 -53 -27 -106.5t-10 -105.5q0 -53 10 -106.5t27 -105.5q16 -52 38 -102t46 -96h-65zM764 -34q24 46 46 96t39 102q16 52 26 105.5t10 106.5q0 52 -10 105.5t-27 106.5q-17 52 -39 102
t-45 96h65q55 -92 92 -194t37 -216t-37 -216t-92 -194h-65zM658 616h-220v-165q5 0 10.5 0.5t10.5 0.5q45 0 87.5 -12.5t75.5 -36.5q32 -24 52 -60.5t20 -84.5q0 -45 -17.5 -81.5t-47.5 -62.5q-30 -27 -70 -41.5t-85 -14.5q-40 0 -78 8t-80 27v73q31 -20 69 -32.5t81 -12.5
q27 0 54.5 9t49.5 26t35.5 42.5t13.5 57.5q0 36 -16.5 61t-42.5 42q-27 16 -59.5 23.5t-64.5 7.5q-16 0 -32.5 -2t-33.5 -5v295h288v-62z" />
    <glyph glyph-name="uni2479" unicode="&#x2479;" horiz-adv-x="1000" 
d="M174 -34q-55 92 -92 194t-37 216t37 216t92 194h65q-23 -46 -45 -96t-39 -102q-17 -53 -27 -106.5t-10 -105.5q0 -53 10 -106.5t27 -105.5q16 -52 38 -102t46 -96h-65zM764 -34q24 46 46 96t39 102q16 52 26 105.5t10 106.5q0 52 -10 105.5t-27 106.5q-17 52 -39 102
t-45 96h65q55 -92 92 -194t37 -216t-37 -216t-92 -194h-65zM504 377q-37 0 -67.5 -13.5t-62.5 -36.5q-8 -32 -3.5 -66.5t21.5 -63.5q16 -29 44 -47.5t68 -18.5q26 0 49 9.5t40 26.5q17 16 27 39t10 50q0 25 -10 47t-27 39q-17 16 -40 25.5t-49 9.5zM295 292q0 66 20.5 126.5
t56.5 114.5q36 53 84.5 99t105.5 84l45 -53q-38 -22 -73 -51.5t-64 -63.5q-29 -35 -50.5 -73.5t-31.5 -77.5q31 23 66 33t67 10q37 0 71 -14t59 -39t40 -59t15 -73q0 -38 -15.5 -72t-42.5 -59q-27 -26 -62.5 -41t-75.5 -15q-47 0 -86.5 16.5t-67.5 46.5q-29 30 -45 71
t-16 90z" />
    <glyph glyph-name="uni247A" unicode="&#x247a;" horiz-adv-x="1000" 
d="M174 -34q-55 92 -92 194t-37 216t37 216t92 194h65q-23 -46 -45 -96t-39 -102q-17 -53 -27 -106.5t-10 -105.5q0 -53 10 -106.5t27 -105.5q16 -52 38 -102t46 -96h-65zM764 -34q24 46 46 96t39 102q16 52 26 105.5t10 106.5q0 52 -10 105.5t-27 106.5q-17 52 -39 102
t-45 96h65q55 -92 92 -194t37 -216t-37 -216t-92 -194h-65zM735 662q-75 -157 -150.5 -311.5t-150.5 -310.5l-32 12t-33 12q64 134 127 266.5t126 266.5h-313v65h426z" />
    <glyph glyph-name="uni247B" unicode="&#x247b;" horiz-adv-x="1000" 
d="M174 -34q-55 92 -92 194t-37 216t37 216t92 194h65q-23 -46 -45 -96t-39 -102q-17 -53 -27 -106.5t-10 -105.5q0 -53 10 -106.5t27 -105.5q16 -52 38 -102t46 -96h-65zM764 -34q24 46 46 96t39 102q16 52 26 105.5t10 106.5q0 52 -10 105.5t-27 106.5q-17 52 -39 102
t-45 96h65q55 -92 92 -194t37 -216t-37 -216t-92 -194h-65zM290 233q0 49 29.5 89t77.5 62q-41 23 -65.5 60t-24.5 82q0 35 15.5 66t42.5 54t63.5 36.5t77.5 13.5q42 0 78.5 -13.5t63.5 -36.5t42.5 -54t15.5 -66q0 -46 -26 -83.5t-69 -59.5q47 -23 76 -62.5t29 -87.5
q0 -36 -17 -67.5t-46 -55.5t-68 -37.5t-83 -13.5t-82.5 13.5t-67.5 37.5t-45.5 55.5t-16.5 67.5zM364 235q0 -23 11 -43.5t30 -35.5q19 -16 44 -25t54 -9q28 0 53.5 9t44.5 25q19 15 30 35.5t11 43.5t-11 43.5t-30 36.5q-19 15 -44.5 24t-53.5 9q-29 0 -54 -9t-44 -24
q-19 -16 -30 -36.5t-11 -43.5zM381 524q0 -23 10 -42.5t27 -33.5q17 -15 39.5 -23.5t48.5 -8.5t49 8.5t40 23.5q17 14 27 33.5t10 42.5q0 22 -10 42t-27 35t-40 23.5t-49 8.5t-48.5 -8.5t-39.5 -23.5t-27 -35t-10 -42z" />
    <glyph glyph-name="uni247C" unicode="&#x247c;" horiz-adv-x="1000" 
d="M174 -34q-55 92 -92 194t-37 216t37 216t92 194h65q-23 -46 -45 -96t-39 -102q-17 -53 -27 -106.5t-10 -105.5q0 -53 10 -106.5t27 -105.5q16 -52 38 -102t46 -96h-65zM764 -34q24 46 46 96t39 102q16 52 26 105.5t10 106.5q0 52 -10 105.5t-27 106.5q-17 52 -39 102
t-45 96h65q55 -92 92 -194t37 -216t-37 -216t-92 -194h-65zM509 628q-26 0 -49 -9t-40 -25q-18 -17 -28.5 -39t-10.5 -49q0 -26 10 -48.5t28 -38.5q17 -17 40.5 -27t49.5 -10q37 0 67.5 13t60.5 38q7 31 3 65.5t-20 63.5q-17 28 -44.5 47t-66.5 19zM718 464
q0 -65 -20.5 -125t-56.5 -113q-36 -54 -85 -100.5t-105 -83.5l-46 52q43 26 80.5 57.5t66.5 66.5q28 35 46.5 72t25.5 73q-29 -24 -64.5 -34t-68.5 -10q-37 0 -71 14.5t-59 39.5q-26 25 -41 59t-15 73t16.5 73t44.5 59q27 25 63 39.5t76 14.5q47 0 86.5 -17.5t67.5 -47.5
q28 -31 43.5 -72.5t15.5 -89.5z" />
    <glyph glyph-name="uni247D" unicode="&#x247d;" horiz-adv-x="1000" 
d="M174 -34q-55 92 -92 194t-37 216t37 216t92 194h65q-23 -46 -45 -96t-39 -102q-17 -53 -27 -106.5t-10 -105.5q0 -53 10 -106.5t27 -105.5q16 -52 38 -102t46 -96h-65zM764 -34q24 46 46 96t39 102q16 52 26 105.5t10 106.5q0 52 -10 105.5t-27 106.5q-17 52 -39 102
t-45 96h65q55 -92 92 -194t37 -216t-37 -216t-92 -194h-65zM218 676q6 0 26 1t43 2t43 2t27 2v-615h-66v549h-73v59zM417 374q0 66 15.5 123.5t41.5 101.5q26 43 61.5 68t75.5 25t75.5 -25t62.5 -68q26 -44 41 -101.5t15 -123.5t-15 -123.5t-41 -100.5q-27 -44 -62.5 -69
t-75.5 -25t-75.5 25t-61.5 69q-26 43 -41.5 100.5t-15.5 123.5zM482 374q0 -53 10.5 -99t28.5 -80q17 -35 40.5 -55t49.5 -20q27 0 50.5 20t41.5 55q17 34 27.5 80t10.5 99q0 52 -10.5 98.5t-27.5 81.5q-18 34 -41.5 54t-50.5 20q-26 0 -49.5 -20t-40.5 -54
q-18 -35 -28.5 -81.5t-10.5 -98.5z" />
    <glyph glyph-name="uni247E" unicode="&#x247e;" horiz-adv-x="1000" 
d="M174 -34q-55 92 -92 194t-37 216t37 216t92 194h65q-23 -46 -45 -96t-39 -102q-17 -53 -27 -106.5t-10 -105.5q0 -53 10 -106.5t27 -105.5q16 -52 38 -102t46 -96h-65zM764 -34q24 46 46 96t39 102q16 52 26 105.5t10 106.5q0 52 -10 105.5t-27 106.5q-17 52 -39 102
t-45 96h65q55 -92 92 -194t37 -216t-37 -216t-92 -194h-65zM274 671q6 0 24 1.5t39 3.5t40 4t26 3v-615h-66v549h-63v54zM579 671q6 0 24 1.5t39 3.5t40 4t26 3v-615h-66v549h-63v54z" />
    <glyph glyph-name="uni247F" unicode="&#x247f;" horiz-adv-x="1000" 
d="M174 -34q-55 92 -92 194t-37 216t37 216t92 194h65q-23 -46 -45 -96t-39 -102q-17 -53 -27 -106.5t-10 -105.5q0 -53 10 -106.5t27 -105.5q16 -52 38 -102t46 -96h-65zM764 -34q24 46 46 96t39 102q16 52 26 105.5t10 106.5q0 52 -10 105.5t-27 106.5q-17 52 -39 102
t-45 96h65q55 -92 92 -194t37 -216t-37 -216t-92 -194h-65zM229 671q31 2 64 5t65 7v-615h-66v549h-63v54zM787 68h-348v12q39 44 84.5 97.5t84.5 109.5q39 55 65 108.5t26 97.5q0 27 -8.5 52t-23.5 44q-16 18 -38.5 29t-50.5 11q-35 0 -68.5 -20.5t-64.5 -55.5v83
q71 57 140 57q37 0 70 -14t58 -39q24 -25 38.5 -59.5t14.5 -76.5q0 -38 -11 -74.5t-32 -74.5q-20 -36 -62.5 -94.5t-105.5 -130.5h232v-62z" />
    <glyph glyph-name="uni2480" unicode="&#x2480;" horiz-adv-x="1000" 
d="M174 -34q-55 92 -92 194t-37 216t37 216t92 194h65q-23 -46 -45 -96t-39 -102q-17 -53 -27 -106.5t-10 -105.5q0 -53 10 -106.5t27 -105.5q16 -52 38 -102t46 -96h-65zM764 -34q24 46 46 96t39 102q16 52 26 105.5t10 106.5q0 52 -10 105.5t-27 106.5q-17 52 -39 102
t-45 96h65q55 -92 92 -194t37 -216t-37 -216t-92 -194h-65zM478 667q26 12 54 19t56 7q34 0 66 -9.5t57 -28.5q24 -19 38.5 -49t14.5 -70q0 -47 -20.5 -85t-74.5 -60q48 -17 76.5 -56.5t28.5 -93.5q0 -42 -14.5 -75.5t-39.5 -57.5q-26 -24 -61 -37t-75 -13q-29 0 -60.5 7.5
t-61.5 22.5v74q31 -21 64 -30.5t66 -9.5q24 0 44.5 8t36.5 23t25 36.5t9 48.5q0 31 -12.5 53t-32.5 36t-46.5 21t-53.5 8v59q63 2 99 29t36 76q0 50 -32 79t-84 29q-26 0 -51.5 -7t-51.5 -18v64zM229 671q6 0 24 1.5t39 3.5t40 4t26 3v-615h-66v549h-63v54z" />
    <glyph glyph-name="uni2481" unicode="&#x2481;" horiz-adv-x="1000" 
d="M174 -34q-55 92 -92 194t-37 216t37 216t92 194h65q-23 -46 -45 -96t-39 -102q-17 -53 -27 -106.5t-10 -105.5q0 -53 10 -106.5t27 -105.5q16 -52 38 -102t46 -96h-65zM764 -34q24 46 46 96t39 102q16 52 26 105.5t10 106.5q0 52 -10 105.5t-27 106.5q-17 52 -39 102
t-45 96h65q55 -92 92 -194t37 -216t-37 -216t-92 -194h-65zM500 313h166v227zM734 678v-365h68v-66h-68v-179h-68v179h-254v41q13 17 36 47.5t51 68.5t58 79t58 79q28 37 51 68t36 48h32zM224 671q6 0 24 1.5t39 3.5t40 4t26 3v-615h-66v549h-63v54z" />
    <glyph glyph-name="uni2482" unicode="&#x2482;" horiz-adv-x="1000" 
d="M174 -34q-55 92 -92 194t-37 216t37 216t92 194h65q-23 -46 -45 -96t-39 -102q-17 -53 -27 -106.5t-10 -105.5q0 -53 10 -106.5t27 -105.5q16 -52 38 -102t46 -96h-65zM764 -34q24 46 46 96t39 102q16 52 26 105.5t10 106.5q0 52 -10 105.5t-27 106.5q-17 52 -39 102
t-45 96h65q55 -92 92 -194t37 -216t-37 -216t-92 -194h-65zM224 671q31 2 64 5t65 7v-615h-66v549h-63v54zM752 616h-197v-165q5 0 9.5 0.5t9.5 0.5q42 0 80 -12.5t68 -37.5q29 -25 46 -61t17 -83q0 -43 -15.5 -79.5t-41.5 -63.5q-27 -27 -63.5 -42t-78.5 -15q-35 0 -69.5 8
t-71.5 27v72q27 -20 61.5 -32t72.5 -12q25 0 50 9.5t45 26.5q19 17 31 42t12 57q0 34 -14.5 59.5t-37.5 42.5q-24 16 -53.5 24t-59.5 8q-14 0 -28.5 -2t-30.5 -5v295h259v-62z" />
    <glyph glyph-name="uni249C" unicode="&#x249c;" horiz-adv-x="1000" 
d="M174 -34q-55 92 -92 194t-37 216t37 216t92 194h65q-23 -46 -45 -96t-39 -102q-17 -53 -27 -106.5t-10 -105.5q0 -53 10 -106.5t27 -105.5q16 -52 38 -102t46 -96h-65zM764 -34q24 46 46 96t39 102q16 52 26 105.5t10 106.5q0 52 -10 105.5t-27 106.5q-17 52 -39 102
t-45 96h65q55 -92 92 -194t37 -216t-37 -216t-92 -194h-65zM362 534q0 15 -0.5 30t-0.5 31q19 3 39 7q17 3 37 5.5t39 2.5q91 0 141.5 -34.5t50.5 -110.5v-149v-16q0 -68 8.5 -105t16.5 -56h-83q-5 11 -7 16t-5 13q-42 -23 -76.5 -28.5t-66.5 -5.5q-30 0 -59.5 9t-52.5 27
q-24 17 -38.5 42t-14.5 58q0 46 24 77t62 51q37 19 82 27.5t88 10.5q11 0 19.5 1.5t14.5 6.5q5 5 8 14t3 25q0 22 -10.5 35.5t-26.5 21.5q-16 7 -36.5 10t-39.5 3q-38 0 -71.5 -8t-44.5 -11zM493 194q39 0 63.5 12t34.5 20v160h-21q-29 0 -63.5 -3t-63.5 -14
q-30 -11 -50 -33t-20 -59q0 -43 30.5 -63t89.5 -20z" />
    <glyph glyph-name="uni249D" unicode="&#x249d;" horiz-adv-x="1000" 
d="M174 -34q-55 92 -92 194t-37 216t37 216t92 194h65q-23 -46 -45 -96t-39 -102q-17 -53 -27 -106.5t-10 -105.5q0 -53 10 -106.5t27 -105.5q16 -52 38 -102t46 -96h-65zM764 -34q24 46 46 96t39 102q16 52 26 105.5t10 106.5q0 52 -10 105.5t-27 106.5q-17 52 -39 102
t-45 96h65q55 -92 92 -194t37 -216t-37 -216t-92 -194h-65zM528 478q-142 0 -149 -169v-173q23 -9 52 -14t52 -5q43 0 79 13t63 38q26 24 40.5 60t14.5 81q0 33 -11 64t-31 54t-48 37t-62 14zM757 282q-3 -54 -27 -96t-62 -70q-39 -28 -89.5 -42.5t-105.5 -14.5
q-8 0 -25 1.5t-39 4.5q-23 3 -49.5 8.5t-52.5 13.5v651h72v-270q34 37 75.5 53t83.5 16q49 0 89 -20t69 -53t45 -76t16 -90v-16z" />
    <glyph glyph-name="uni249E" unicode="&#x249e;" horiz-adv-x="1000" 
d="M174 -34q-55 92 -92 194t-37 216t37 216t92 194h65q-23 -46 -45 -96t-39 -102q-17 -53 -27 -106.5t-10 -105.5q0 -53 10 -106.5t27 -105.5q16 -52 38 -102t46 -96h-65zM764 -34q24 46 46 96t39 102q16 52 26 105.5t10 106.5q0 52 -10 105.5t-27 106.5q-17 52 -39 102
t-45 96h65q55 -92 92 -194t37 -216t-37 -216t-92 -194h-65zM577 187q30 0 54.5 7t43.5 18v-64q-14 -5 -46.5 -12.5t-73.5 -7.5q-51 0 -99 16t-85 46t-59.5 72t-22.5 95q0 58 20.5 104.5t57.5 79.5q36 32 86 49t109 17q40 0 69.5 -8t38.5 -11v-76q-15 10 -34 18q-17 7 -40 13
t-51 6q-33 0 -65 -12t-56 -34q-25 -23 -40 -54.5t-15 -70.5q0 -51 16 -87t45 -59q28 -23 65.5 -34t81.5 -11z" />
    <glyph glyph-name="uni249F" unicode="&#x249f;" horiz-adv-x="1000" 
d="M174 -34q-55 92 -92 194t-37 216t37 216t92 194h65q-23 -46 -45 -96t-39 -102q-17 -53 -27 -106.5t-10 -105.5q0 -53 10 -106.5t27 -105.5q16 -52 38 -102t46 -96h-65zM764 -34q24 46 46 96t39 102q16 52 26 105.5t10 106.5q0 52 -10 105.5t-27 106.5q-17 52 -39 102
t-45 96h65q55 -92 92 -194t37 -216t-37 -216t-92 -194h-65zM478 478q-35 0 -63.5 -14t-47.5 -38q-20 -24 -30.5 -55t-10.5 -65q0 -45 15 -80t42 -59q26 -25 62 -37.5t79 -12.5q23 0 52 5t52 14v173q-9 169 -150 169zM250 282q0 4 -0.5 8t-0.5 8q0 47 16 90t45 76t69.5 53
t89.5 20q42 0 83 -16t76 -53v270h72v-651q-26 -8 -52.5 -13.5t-49.5 -8.5t-40.5 -4.5t-24.5 -1.5q-56 0 -105.5 14.5t-87.5 42.5q-39 28 -63 70t-27 96z" />
    <glyph glyph-name="uni24A0" unicode="&#x24a0;" horiz-adv-x="1000" 
d="M174 -34q-55 92 -92 194t-37 216t37 216t92 194h65q-23 -46 -45 -96t-39 -102q-17 -53 -27 -106.5t-10 -105.5q0 -53 10 -106.5t27 -105.5q16 -52 38 -102t46 -96h-65zM764 -34q24 46 46 96t39 102q16 52 26 105.5t10 106.5q0 52 -10 105.5t-27 106.5q-17 52 -39 102
t-45 96h65q55 -92 92 -194t37 -216t-37 -216t-92 -194h-65zM706 244q0 -19 -0.5 -37.5t-0.5 -37.5q-5 -3 -19 -10t-35 -14q-22 -8 -49.5 -13.5t-58.5 -5.5q-56 0 -105.5 16.5t-87.5 47.5t-60 76t-22 103q0 46 17.5 89t49.5 76q31 33 74.5 53t96.5 20q49 0 88 -17t67 -47
t43 -70.5t15 -86.5v-15h-369v-8q0 -42 14.5 -74t40.5 -54q26 -23 63 -34.5t81 -11.5q29 0 54.5 7t46.5 16q20 9 34.5 18t21.5 14zM641 426q-3 23 -12.5 45t-26.5 40q-18 17 -43 27.5t-58 10.5q-29 0 -52.5 -10t-42.5 -27t-32 -39t-19 -47h286z" />
    <glyph glyph-name="uni24A1" unicode="&#x24a1;" horiz-adv-x="1000" 
d="M174 -34q-55 92 -92 194t-37 216t37 216t92 194h65q-23 -46 -45 -96t-39 -102q-17 -53 -27 -106.5t-10 -105.5q0 -53 10 -106.5t27 -105.5q16 -52 38 -102t46 -96h-65zM764 -34q24 46 46 96t39 102q16 52 26 105.5t10 106.5q0 52 -10 105.5t-27 106.5q-17 52 -39 102
t-45 96h65q55 -92 92 -194t37 -216t-37 -216t-92 -194h-65zM669 697q0 -16 0.5 -31.5t0.5 -31.5q-11 1 -20.5 1h-19.5q-24 0 -44.5 -2.5t-35.5 -11.5t-24 -26t-10 -46v-64h138v-62h-138v-385h-75v385h-100v62h100v26q0 33 4 70t28 64q29 33 68 43t89 10q9 0 18.5 -0.5
t20.5 -0.5z" />
    <glyph glyph-name="uni24A2" unicode="&#x24a2;" horiz-adv-x="1000" 
d="M174 -34q-55 92 -92 194t-37 216t37 216t92 194h65q-23 -46 -45 -96t-39 -102q-17 -53 -27 -106.5t-10 -105.5q0 -53 10 -106.5t27 -105.5q16 -52 38 -102t46 -96h-65zM764 -34q24 46 46 96t39 102q16 52 26 105.5t10 106.5q0 52 -10 105.5t-27 106.5q-17 52 -39 102
t-45 96h65q55 -92 92 -194t37 -216t-37 -216t-92 -194h-65zM257 203q0 31 25.5 60t68.5 50q-6 10 -10 23t-4 21q0 7 7 14t18 14q10 6 22 11t21 8q-22 6 -42.5 17t-36.5 27t-26 36.5t-10 46.5q0 34 16 59.5t42 43.5q26 17 58.5 25.5t65.5 8.5h256q-8 -14 -13.5 -25.5
t-10.5 -22.5q-17 0 -47.5 -0.5t-65.5 -0.5q32 -20 47.5 -47.5t15.5 -54.5q0 -34 -17 -56t-42 -36t-54.5 -21.5t-54.5 -12.5q-25 -6 -42 -12t-17 -15q0 -2 1 -6.5t8 -8.5q7 -5 20.5 -8t39.5 -3q55 0 99.5 -6.5t76.5 -21.5q31 -16 47.5 -42t16.5 -65q0 -29 -19 -53.5
t-51 -42.5q-33 -19 -76.5 -29.5t-93.5 -10.5q-112 0 -175.5 34t-63.5 102zM331 205q0 -42 44.5 -64t117.5 -22q36 0 66.5 5t53.5 16q23 10 36 26.5t13 38.5q0 47 -43.5 66.5t-120.5 19.5q-31 0 -61 -5t-53 -15q-24 -11 -38.5 -27t-14.5 -39zM362 542q0 -22 10 -40.5
t27 -31.5q16 -14 37 -21.5t44 -7.5q19 0 37 5t32 16q14 10 23 25.5t9 36.5q0 22 -10.5 39.5t-26.5 30.5q-17 12 -38.5 18.5t-43.5 6.5q-17 0 -35 -4.5t-32 -13.5q-15 -10 -24 -24.5t-9 -34.5z" />
    <glyph glyph-name="uni24A3" unicode="&#x24a3;" horiz-adv-x="1000" 
d="M174 -34q-55 92 -92 194t-37 216t37 216t92 194h65q-23 -46 -45 -96t-39 -102q-17 -53 -27 -106.5t-10 -105.5q0 -53 10 -106.5t27 -105.5q16 -52 38 -102t46 -96h-65zM764 -34q24 46 46 96t39 102q16 52 26 105.5t10 106.5q0 52 -10 105.5t-27 106.5q-17 52 -39 102
t-45 96h65q55 -92 92 -194t37 -216t-37 -216t-92 -194h-65zM637 316q0 82 -31 115t-88 33q-30 0 -54 -12t-40 -32q-17 -21 -25.5 -48.5t-8.5 -58.5v-53t1 -75v-76v-52h-76v671h75v-279q27 35 68.5 55t89.5 20q75 0 119.5 -45t44.5 -142v-280h-76z" />
    <glyph glyph-name="uni24A4" unicode="&#x24a4;" horiz-adv-x="1000" 
d="M174 -34q-55 92 -92 194t-37 216t37 216t92 194h65q-23 -46 -45 -96t-39 -102q-17 -53 -27 -106.5t-10 -105.5q0 -53 10 -106.5t27 -105.5q16 -52 38 -102t46 -96h-65zM764 -34q24 46 46 96t39 102q16 52 26 105.5t10 106.5q0 52 -10 105.5t-27 106.5q-17 52 -39 102
t-45 96h65q55 -92 92 -194t37 -216t-37 -216t-92 -194h-65zM536 66h-74v449h74v-449zM445 655q0 23 16.5 39.5t39.5 16.5t39 -16.5t16 -39.5t-16 -39t-39 -16t-39.5 16t-16.5 39z" />
    <glyph glyph-name="uni24A5" unicode="&#x24a5;" horiz-adv-x="1000" 
d="M174 -34q-55 92 -92 194t-37 216t37 216t92 194h65q-23 -46 -45 -96t-39 -102q-17 -53 -27 -106.5t-10 -105.5q0 -53 10 -106.5t27 -105.5q16 -52 38 -102t46 -96h-65zM764 -34q24 46 46 96t39 102q16 52 26 105.5t10 106.5q0 52 -10 105.5t-27 106.5q-17 52 -39 102
t-45 96h65q55 -92 92 -194t37 -216t-37 -216t-92 -194h-65zM569 203q0 -54 -8.5 -92t-29.5 -62q-22 -24 -58.5 -35t-92.5 -11v62q38 0 61 8t35 26q12 17 16 43.5t4 63.5v318h73v-321zM476 666q0 23 16.5 39.5t39.5 16.5t39 -16.5t16 -39.5t-16 -39t-39 -16t-39.5 16
t-16.5 39z" />
    <glyph glyph-name="uni24A6" unicode="&#x24a6;" horiz-adv-x="1000" 
d="M174 -34q-55 92 -92 194t-37 216t37 216t92 194h65q-23 -46 -45 -96t-39 -102q-17 -53 -27 -106.5t-10 -105.5q0 -53 10 -106.5t27 -105.5q16 -52 38 -102t46 -96h-65zM764 -34q24 46 46 96t39 102q16 52 26 105.5t10 106.5q0 52 -10 105.5t-27 106.5q-17 52 -39 102
t-45 96h65q55 -92 92 -194t37 -216t-37 -216t-92 -194h-65zM403 728v-660h-74v660h74zM683 68q-29 0 -53.5 14.5t-46.5 39.5l-177 200l210 208h79q-55 -54 -99 -97q-19 -18 -37 -36t-32 -33l-24.5 -24.5t-10.5 -11.5q1 -2 10.5 -12.5t23.5 -25.5t31 -34t35 -38
q41 -45 93 -101q12 -13 28 -25.5t36 -23.5h-66z" />
    <glyph glyph-name="uni24A7" unicode="&#x24a7;" horiz-adv-x="1000" 
d="M174 -34q-55 92 -92 194t-37 216t37 216t92 194h65q-23 -46 -45 -96t-39 -102q-17 -53 -27 -106.5t-10 -105.5q0 -53 10 -106.5t27 -105.5q16 -52 38 -102t46 -96h-65zM764 -34q24 46 46 96t39 102q16 52 26 105.5t10 106.5q0 52 -10 105.5t-27 106.5q-17 52 -39 102
t-45 96h65q55 -92 92 -194t37 -216t-37 -216t-92 -194h-65zM535 55h-75v663h75v-663z" />
    <glyph glyph-name="uni24A8" unicode="&#x24a8;" horiz-adv-x="1000" 
d="M174 -34q-55 92 -92 194t-37 216t37 216t92 194h65q-23 -46 -45 -96t-39 -102q-17 -53 -27 -106.5t-10 -105.5q0 -53 10 -106.5t27 -105.5q16 -52 38 -102t46 -96h-65zM764 -34q24 46 46 96t39 102q16 52 26 105.5t10 106.5q0 52 -10 105.5t-27 106.5q-17 52 -39 102
t-45 96h65q55 -92 92 -194t37 -216t-37 -216t-92 -194h-65zM705 381q0 87 -18.5 126.5t-62.5 39.5q-28 0 -45 -19.5t-26 -46.5q-10 -28 -13 -57t-3 -48l-1 -235h-69v249q0 23 -3.5 50t-12.5 51q-10 23 -26.5 39t-41.5 16q-24 0 -40.5 -17.5t-25.5 -43.5q-10 -26 -14 -56.5
t-4 -57.5v-230h-70v459h60v-81q20 49 50.5 71.5t62.5 21.5q68 -1 111 -97q25 48 58 72.5t68 24.5q37 0 63 -18t43 -47q16 -29 23 -67.5t7 -78.5v-31.5v-45.5t-0.5 -53t-0.5 -53v-45.5v-31.5h-69v240z" />
    <glyph glyph-name="uni24A9" unicode="&#x24a9;" horiz-adv-x="1000" 
d="M174 -34q-55 92 -92 194t-37 216t37 216t92 194h65q-23 -46 -45 -96t-39 -102q-17 -53 -27 -106.5t-10 -105.5q0 -53 10 -106.5t27 -105.5q16 -52 38 -102t46 -96h-65zM764 -34q24 46 46 96t39 102q16 52 26 105.5t10 106.5q0 52 -10 105.5t-27 106.5q-17 52 -39 102
t-45 96h65q55 -92 92 -194t37 -216t-37 -216t-92 -194h-65zM628 142l1 245q0 30 -5.5 59.5t-18.5 53.5q-14 24 -37.5 38.5t-59.5 13.5q-26 0 -48.5 -13.5t-39.5 -34.5q-17 -22 -27 -49t-10 -55v-258h-76v461h76v-84q12 23 30 40.5t38 29.5q20 11 41.5 17t40.5 6q49 0 82 -16
t53 -44q19 -29 27 -68.5t8 -86.5v-255h-75z" />
    <glyph glyph-name="uni24AA" unicode="&#x24aa;" horiz-adv-x="1000" 
d="M174 -34q-55 92 -92 194t-37 216t37 216t92 194h65q-23 -46 -45 -96t-39 -102q-17 -53 -27 -106.5t-10 -105.5q0 -53 10 -106.5t27 -105.5q16 -52 38 -102t46 -96h-65zM764 -34q24 46 46 96t39 102q16 52 26 105.5t10 106.5q0 52 -10 105.5t-27 106.5q-17 52 -39 102
t-45 96h65q55 -92 92 -194t37 -216t-37 -216t-92 -194h-65zM257 369q0 49 19 93t52 77q33 32 77.5 51t95.5 19t95.5 -19t77.5 -51q33 -33 52 -77t19 -93q0 -50 -19 -94t-52 -76q-33 -33 -77.5 -52t-95.5 -19t-95.5 19t-77.5 52q-33 32 -52 76t-19 94zM333 368q0 -38 13 -71
t35 -57q22 -25 52 -39t65 -14q34 0 64.5 14t53.5 39q23 24 36 57t13 71q0 37 -13 70t-36 58t-53.5 39t-64.5 14q-35 0 -65 -14t-52 -39t-35 -58t-13 -70z" />
    <glyph glyph-name="uni24AB" unicode="&#x24ab;" horiz-adv-x="1000" 
d="M174 -34q-55 92 -92 194t-37 216t37 216t92 194h65q-23 -46 -45 -96t-39 -102q-17 -53 -27 -106.5t-10 -105.5q0 -53 10 -106.5t27 -105.5q16 -52 38 -102t46 -96h-65zM764 -34q24 46 46 96t39 102q16 52 26 105.5t10 106.5q0 52 -10 105.5t-27 106.5q-17 52 -39 102
t-45 96h65q55 -92 92 -194t37 -216t-37 -216t-92 -194h-65zM488 682q69 0 120.5 -17t85.5 -46q33 -30 50 -69.5t17 -85.5q0 -43 -19 -78.5t-51 -60.5q-33 -25 -77 -38.5t-93 -13.5q-44 0 -81 9t-56 17v-95v-142h-74v592q28 9 56.5 14.5t53.5 8.5q24 3 42 4t26 1zM506 332
q38 0 71 10.5t57 29.5t37.5 45t13.5 58q0 33 -14 60.5t-38 47.5q-25 19 -59.5 30t-74.5 11q-58 0 -115 -15v-247q17 -10 50 -19.5t72 -10.5z" />
    <glyph glyph-name="uni24AC" unicode="&#x24ac;" horiz-adv-x="1000" 
d="M174 -34q-55 92 -92 194t-37 216t37 216t92 194h65q-23 -46 -45 -96t-39 -102q-17 -53 -27 -106.5t-10 -105.5q0 -53 10 -106.5t27 -105.5q16 -52 38 -102t46 -96h-65zM764 -34q24 46 46 96t39 102q16 52 26 105.5t10 106.5q0 52 -10 105.5t-27 106.5q-17 52 -39 102
t-45 96h65q55 -92 92 -194t37 -216t-37 -216t-92 -194h-65zM515 682q8 0 26.5 -1t43.5 -4q24 -3 52.5 -8.5t56.5 -14.5v-592h-75v237q-20 -8 -56.5 -17t-80.5 -9q-49 0 -92.5 13.5t-76.5 38.5t-52 60.5t-19 78.5q0 46 17 85.5t51 69.5q34 29 85 46t120 17zM497 332
q39 1 72.5 10.5t50.5 19.5v247q-28 6 -55.5 10.5t-52.5 4.5q-42 0 -77.5 -10.5t-60.5 -29.5q-26 -19 -40.5 -47t-14.5 -62q0 -32 13.5 -58t37.5 -45t56.5 -29.5t70.5 -10.5z" />
    <glyph glyph-name="uni24AD" unicode="&#x24ad;" horiz-adv-x="1000" 
d="M174 -34q-55 92 -92 194t-37 216t37 216t92 194h65q-23 -46 -45 -96t-39 -102q-17 -53 -27 -106.5t-10 -105.5q0 -53 10 -106.5t27 -105.5q16 -52 38 -102t46 -96h-65zM764 -34q24 46 46 96t39 102q16 52 26 105.5t10 106.5q0 52 -10 105.5t-27 106.5q-17 52 -39 102
t-45 96h65q55 -92 92 -194t37 -216t-37 -216t-92 -194h-65zM650 529q-41 3 -71.5 -4t-50.5 -26t-30.5 -50.5t-10.5 -79.5v-48v-69q-1 -37 -1 -70v-48h-75v459h76v-82q15 38 57 65t106 23v-70z" />
    <glyph glyph-name="uni24AE" unicode="&#x24ae;" horiz-adv-x="1000" 
d="M174 -34q-55 92 -92 194t-37 216t37 216t92 194h65q-23 -46 -45 -96t-39 -102q-17 -53 -27 -106.5t-10 -105.5q0 -53 10 -106.5t27 -105.5q16 -52 38 -102t46 -96h-65zM764 -34q24 46 46 96t39 102q16 52 26 105.5t10 106.5q0 52 -10 105.5t-27 106.5q-17 52 -39 102
t-45 96h65q55 -92 92 -194t37 -216t-37 -216t-92 -194h-65zM626 378q33 -18 51 -44.5t18 -61.5q0 -39 -19.5 -67t-50.5 -45t-70 -25.5t-78 -8.5q-34 0 -71 7.5t-74 24.5v70q26 -15 70 -28t89 -13q16 0 38 3t42 11q19 7 32.5 21t13.5 35q0 19 -14.5 38t-48.5 33q-5 2 -24 9
t-42 16q-23 8 -45 16.5t-32 14.5q-30 17 -49.5 41t-19.5 60q0 34 18 58t47 39q28 15 62.5 21.5t66.5 6.5q57 0 104 -10v-71q-18 6 -36 11q-17 5 -37 8.5t-43 3.5q-20 0 -38.5 -3.5t-32.5 -10.5q-15 -7 -24 -16.5t-9 -22.5q0 -18 16.5 -36t54.5 -33q46 -19 82 -31.5t53 -20.5
z" />
    <glyph glyph-name="uni24AF" unicode="&#x24af;" horiz-adv-x="1000" 
d="M174 -34q-55 92 -92 194t-37 216t37 216t92 194h65q-23 -46 -45 -96t-39 -102q-17 -53 -27 -106.5t-10 -105.5q0 -53 10 -106.5t27 -105.5q16 -52 38 -102t46 -96h-65zM764 -34q24 46 46 96t39 102q16 52 26 105.5t10 106.5q0 52 -10 105.5t-27 106.5q-17 52 -39 102
t-45 96h65q55 -92 92 -194t37 -216t-37 -216t-92 -194h-65zM513 271q0 -42 3.5 -70t17.5 -44q13 -17 40 -24.5t75 -8.5l-1 -59q-60 0 -100.5 8t-64.5 31q-25 22 -35 60.5t-10 98.5v206h-92v60h93v151h74v-151h130v-61l-130 1v-198z" />
    <glyph glyph-name="uni24B0" unicode="&#x24b0;" horiz-adv-x="1000" 
d="M174 -34q-55 92 -92 194t-37 216t37 216t92 194h65q-23 -46 -45 -96t-39 -102q-17 -53 -27 -106.5t-10 -105.5q0 -53 10 -106.5t27 -105.5q16 -52 38 -102t46 -96h-65zM764 -34q24 46 46 96t39 102q16 52 26 105.5t10 106.5q0 52 -10 105.5t-27 106.5q-17 52 -39 102
t-45 96h65q55 -92 92 -194t37 -216t-37 -216t-92 -194h-65zM620 140v78q-27 -40 -65.5 -64.5t-91.5 -24.5q-163 0 -166 198v267h74v-211q0 -94 24 -142t91 -48q26 0 50 12t43 32q18 20 29.5 45.5t11.5 52.5v259h74v-454h-74z" />
    <glyph glyph-name="uni24B1" unicode="&#x24b1;" horiz-adv-x="1000" 
d="M174 -34q-55 92 -92 194t-37 216t37 216t92 194h65q-23 -46 -45 -96t-39 -102q-17 -53 -27 -106.5t-10 -105.5q0 -53 10 -106.5t27 -105.5q16 -52 38 -102t46 -96h-65zM764 -34q24 46 46 96t39 102q16 52 26 105.5t10 106.5q0 52 -10 105.5t-27 106.5q-17 52 -39 102
t-45 96h65q55 -92 92 -194t37 -216t-37 -216t-92 -194h-65zM742 595l-210 -455h-65l-210 455l83 1l166 -375l173 374h63z" />
    <glyph glyph-name="uni24B2" unicode="&#x24b2;" horiz-adv-x="1000" 
d="M174 -34q-55 92 -92 194t-37 216t37 216t92 194h65q-23 -46 -45 -96t-39 -102q-17 -53 -27 -106.5t-10 -105.5q0 -53 10 -106.5t27 -105.5q16 -52 38 -102t46 -96h-65zM764 -34q24 46 46 96t39 102q16 52 26 105.5t10 106.5q0 52 -10 105.5t-27 106.5q-17 52 -39 102
t-45 96h65q55 -92 92 -194t37 -216t-37 -216t-92 -194h-65zM831 593q-42 -114 -82 -226.5t-82 -227.5h-54q-28 90 -52 164l-20 62t-18 57q-9 25 -14.5 43t-7.5 24q-2 -7 -11 -33.5t-21 -62.5t-25.5 -77t-25.5 -77q-12 -37 -21.5 -64.5t-12.5 -35.5h-57q-38 115 -77 227.5
t-77 226.5q18 0 36 0.5t36 0.5q29 -90 58 -179t58 -179l120 357h57q29 -89 56.5 -178t55.5 -178q32 89 62.5 178t61.5 178h57z" />
    <glyph glyph-name="uni24B3" unicode="&#x24b3;" horiz-adv-x="1000" 
d="M174 -34q-55 92 -92 194t-37 216t37 216t92 194h65q-23 -46 -45 -96t-39 -102q-17 -53 -27 -106.5t-10 -105.5q0 -53 10 -106.5t27 -105.5q16 -52 38 -102t46 -96h-65zM764 -34q24 46 46 96t39 102q16 52 26 105.5t10 106.5q0 52 -10 105.5t-27 106.5q-17 52 -39 102
t-45 96h65q55 -92 92 -194t37 -216t-37 -216t-92 -194h-65zM669 210q25 -32 41.5 -49t21.5 -21h-65q-13 0 -30 9.5t-33 30.5l-113 151l-162 -191h-78l207 240l-166 223h90l123 -171l142 171h74l-181 -218z" />
    <glyph glyph-name="uni24B4" unicode="&#x24b4;" horiz-adv-x="1000" 
d="M174 -34q-55 92 -92 194t-37 216t37 216t92 194h65q-23 -46 -45 -96t-39 -102q-17 -53 -27 -106.5t-10 -105.5q0 -53 10 -106.5t27 -105.5q16 -52 38 -102t46 -96h-65zM764 -34q24 46 46 96t39 102q16 52 26 105.5t10 106.5q0 52 -10 105.5t-27 106.5q-17 52 -39 102
t-45 96h65q55 -92 92 -194t37 -216t-37 -216t-92 -194h-65zM728 648l-166 -413q-9 -23 -19.5 -47t-21.5 -45q-12 -22 -25 -40t-28 -28q-26 -20 -62 -28t-75 -7l-39 62q21 0 42.5 0.5t42.5 4.5q20 3 37.5 10.5t31.5 21.5q8 9 16.5 22.5t16.5 29.5t15 33.5l13 32.5l-23.5 47
l-34.5 69t-40 79.5t-40 79.5t-34.5 68.5t-23.5 47.5h78l153 -305l117 305h69z" />
    <glyph glyph-name="uni24B5" unicode="&#x24b5;" horiz-adv-x="1000" 
d="M174 -34q-55 92 -92 194t-37 216t37 216t92 194h65q-23 -46 -45 -96t-39 -102q-17 -53 -27 -106.5t-10 -105.5q0 -53 10 -106.5t27 -105.5q16 -52 38 -102t46 -96h-65zM764 -34q24 46 46 96t39 102q16 52 26 105.5t10 106.5q0 52 -10 105.5t-27 106.5q-17 52 -39 102
t-45 96h65q55 -92 92 -194t37 -216t-37 -216t-92 -194h-65zM705 200v-59l-428 -1l288 397h-251v61h379l-284 -399z" />
    <glyph glyph-name="uni24D0" unicode="&#x24d0;" horiz-adv-x="1000" 
d="M42 376q0 94 35.5 177t97.5 145t145.5 98t179.5 36q94 0 177.5 -36t145.5 -98q61 -62 97 -145t36 -177q0 -95 -36 -178t-97 -145q-62 -62 -145.5 -98t-177.5 -36q-96 0 -179.5 36t-145.5 98t-97.5 145t-35.5 178zM105 376q0 -81 31 -153t85 -126t126 -85t153 -31t153 31
t126 85q53 54 84.5 126t31.5 153t-31.5 153t-84.5 126q-54 53 -126 84.5t-153 31.5t-153 -31.5t-126 -84.5q-54 -54 -85 -126t-31 -153zM362 535q0 16 -0.5 31t-0.5 30q19 4 39 8q17 3 37 5.5t39 2.5q91 0 141.5 -35t50.5 -110v-150v-16q0 -67 8.5 -104.5t16.5 -56.5h-83
q-5 12 -7 17t-5 12q-42 -22 -76.5 -28t-66.5 -6q-30 0 -59.5 9t-52.5 27q-24 17 -38.5 42.5t-14.5 58.5q0 46 24 77t62 50q37 19 82 28t88 11q11 0 19.5 1.5t14.5 6.5q5 4 8 13.5t3 25.5q0 22 -10.5 35.5t-26.5 21.5q-16 7 -36.5 9.5t-39.5 2.5q-38 0 -71.5 -8t-44.5 -11z
M493 195q39 0 63.5 12.5t34.5 19.5v160h-31q-29 0 -62 -3t-60 -14q-28 -12 -46.5 -33.5t-18.5 -57.5q0 -44 30.5 -64t89.5 -20z" />
    <glyph glyph-name="uni24D1" unicode="&#x24d1;" horiz-adv-x="1000" 
d="M42 376q0 94 35.5 177t97.5 145t145.5 98t179.5 36q94 0 177.5 -36t145.5 -98q61 -62 97 -145t36 -177q0 -95 -36 -178t-97 -146q-62 -62 -145.5 -98t-177.5 -36q-96 0 -179.5 36t-145.5 98q-62 63 -97.5 146t-35.5 178zM105 376q0 -81 31 -153t85 -126t126 -85t153 -31
t153 31t126 85q53 54 84.5 126t31.5 153t-31.5 153t-84.5 126q-54 53 -126 84.5t-153 31.5t-153 -31.5t-126 -84.5q-54 -54 -85 -126t-31 -153zM538 528q48 0 87 -20t66 -53q26 -34 39.5 -77t11.5 -89q-3 -51 -25.5 -89.5t-58.5 -64.5q-36 -27 -82.5 -40.5t-98.5 -13.5
q-7 0 -23 1t-37 4t-46 8.5t-49 13.5v587h67v-232q32 35 70.5 50t78.5 15zM529 473q-40 0 -74 -18t-51 -53q-5 -12 -9 -34.5t-6 -52.5v-162q22 -9 48.5 -13t48.5 -4q78 0 129 44.5t56 120.5q1 31 -8 61.5t-27 55.5q-19 24 -46 39.5t-61 15.5z" />
    <glyph glyph-name="uni24D2" unicode="&#x24d2;" horiz-adv-x="1000" 
d="M42 376q0 94 35.5 177t97.5 145t145.5 98t179.5 36q94 0 177.5 -36t145.5 -98q61 -62 97 -145t36 -177q0 -95 -36 -178t-97 -145q-62 -62 -145.5 -98t-177.5 -36q-96 0 -179.5 36t-145.5 98t-97.5 145t-35.5 178zM105 376q0 -81 31 -153t85 -126t126 -85t153 -31t153 31
t126 85q53 54 84.5 126t31.5 153t-31.5 153t-84.5 126q-54 53 -126 84.5t-153 31.5t-153 -31.5t-126 -84.5q-54 -54 -85 -126t-31 -153zM577 187q26 0 52.5 8t45.5 17v-64q-14 -5 -46.5 -12.5t-73.5 -7.5q-51 0 -99 16t-85 46t-59.5 72t-22.5 95q0 58 20.5 104.5t57.5 79.5
q36 32 86 49t109 17q16 0 33.5 -2.5t32.5 -5.5t26 -6.5t16 -4.5v-76q-15 10 -34 18q-17 7 -40 13t-51 6q-33 0 -65 -12t-56 -34q-25 -23 -40 -54.5t-15 -70.5q0 -51 16 -87t44 -59t66 -34t82 -11z" />
    <glyph glyph-name="uni24D3" unicode="&#x24d3;" horiz-adv-x="1000" 
d="M42 376q0 94 35.5 177t97.5 145t145.5 98t179.5 36q94 0 177.5 -36t145.5 -98q61 -62 97 -145t36 -177q0 -95 -36 -178t-97 -146q-62 -62 -145.5 -98t-177.5 -36q-96 0 -179.5 36t-145.5 98q-62 63 -97.5 146t-35.5 178zM105 376q0 -81 31 -153t85 -126t126 -85t153 -31
t153 31t126 85q53 54 84.5 126t31.5 153t-31.5 153t-84.5 126q-54 53 -126 84.5t-153 31.5t-153 -31.5t-126 -84.5q-54 -54 -85 -126t-31 -153zM462 528q39 0 78 -15t71 -50v232h67v-587q-25 -8 -49.5 -13.5t-45.5 -8.5q-22 -3 -38 -4t-23 -1q-52 0 -98.5 13.5t-82.5 40.5
q-36 26 -58.5 64.5t-25.5 89.5q-2 46 11.5 89t40.5 77q27 33 66 53t87 20zM471 473q-34 0 -61 -15.5t-45 -39.5q-19 -25 -28.5 -55.5t-7.5 -61.5q2 -38 16.5 -68.5t39.5 -51.5q24 -22 57 -33.5t72 -11.5q21 0 48 4t49 13v162q-3 61 -16 87q-17 35 -50.5 53t-73.5 18z" />
    <glyph glyph-name="uni24D4" unicode="&#x24d4;" horiz-adv-x="1000" 
d="M42 376q0 94 35.5 177t97.5 145t145.5 98t179.5 36q94 0 177.5 -36t145.5 -98q61 -62 97 -145t36 -177q0 -95 -36 -178t-97 -145q-62 -62 -145.5 -98t-177.5 -36q-96 0 -179.5 36t-145.5 98t-97.5 145t-35.5 178zM105 376q0 -81 31 -153t85 -126t126 -85t153 -31t153 31
t126 85q53 54 84.5 126t31.5 153t-31.5 153t-84.5 126q-54 53 -126 84.5t-153 31.5t-153 -31.5t-126 -84.5q-54 -54 -85 -126t-31 -153zM706 244q0 -19 -0.5 -37.5t-0.5 -37.5q-5 -3 -19 -10t-35 -14q-22 -8 -49.5 -13.5t-58.5 -5.5q-56 0 -105.5 16t-87.5 47t-60 76
t-22 104q0 46 17.5 89t49.5 76q31 33 74.5 53t96.5 20q47 0 86 -17.5t68 -47.5q28 -30 43.5 -70.5t15.5 -86.5v-14h-369v-8q0 -42 14.5 -74t40.5 -54q26 -23 63 -34.5t81 -11.5q29 0 54.5 7t46.5 16q20 9 34.5 18t21.5 14zM641 426q-3 23 -12.5 45t-26.5 40q-18 17 -43 27.5
t-58 10.5q-29 0 -52.5 -10t-42.5 -27t-32 -39t-19 -47h286z" />
    <glyph glyph-name="uni24D5" unicode="&#x24d5;" horiz-adv-x="1000" 
d="M42 376q0 94 35.5 177t97.5 145t145.5 98t179.5 36q94 0 177.5 -36t145.5 -98q61 -62 97 -145t36 -177q0 -95 -36 -178t-97 -146q-62 -62 -145.5 -98t-177.5 -36q-96 0 -179.5 36t-145.5 98q-62 63 -97.5 146t-35.5 178zM105 376q0 -81 31 -153t85 -126t126 -85t153 -31
t153 31t126 85q53 54 84.5 126t31.5 153t-31.5 153t-84.5 126q-54 53 -126 84.5t-153 31.5t-153 -31.5t-126 -84.5q-54 -54 -85 -126t-31 -153zM473 645q17 19 38 30t46 16q24 5 52 5.5t60 0.5l1 -63q-18 0 -37.5 0.5t-36.5 -0.5q-18 -2 -33 -7t-25 -15q-11 -10 -16.5 -26
t-5.5 -47v-54h138v-62h-138v-386h-75v386h-100v62h100v26q0 33 4 70t28 64z" />
    <glyph glyph-name="uni24D6" unicode="&#x24d6;" horiz-adv-x="1000" 
d="M42 376q0 94 35.5 177t97.5 145t145.5 98t179.5 36q94 0 177.5 -36t145.5 -98q61 -62 97 -145t36 -177q0 -95 -36 -178t-97 -145q-62 -62 -145.5 -98t-177.5 -36q-96 0 -179.5 36t-145.5 98t-97.5 145t-35.5 178zM105 376q0 -81 31 -153t85 -126t126 -85t153 -31t153 31
t126 85q53 54 84.5 126t31.5 153t-31.5 153t-84.5 126q-54 53 -126 84.5t-153 31.5t-153 -31.5t-126 -84.5q-54 -54 -85 -126t-31 -153zM265 216q1 29 25.5 55.5t65.5 46.5q-6 10 -10 22t-4 20q0 6 7 12.5t18 12.5q10 6 21.5 11t20.5 8q-21 6 -41.5 16t-35.5 25
q-16 14 -25.5 33.5t-9.5 43.5q0 32 15.5 56.5t40.5 40.5t56.5 24t63.5 8h247q-8 -14 -13 -24.5t-10 -21.5h-110q32 -18 46.5 -44t14.5 -51q0 -32 -16.5 -53t-40.5 -34t-53 -20.5t-53 -12.5t-40.5 -10t-16.5 -14q0 -2 1.5 -6t8.5 -8q6 -4 19.5 -7t38.5 -3q54 0 96.5 -6
t72.5 -20q30 -15 46 -39t16 -61q0 -27 -18 -50t-49 -40t-73.5 -27t-90.5 -10q-108 0 -169.5 31.5t-61.5 95.5zM336 218q0 -40 43 -60.5t114 -20.5q34 0 64 5t53 15q22 9 34.5 24.5t12.5 36.5q0 44 -42 62t-117 18q-30 0 -59.5 -4.5t-51.5 -13.5q-23 -10 -37 -25.5t-14 -36.5
zM366 533q0 -21 9.5 -38t25.5 -29q16 -13 37 -20t43 -7q18 0 35.5 4.5t31.5 14.5q14 9 22.5 23t8.5 34q0 21 -10 37.5t-26 28.5q-17 11 -37.5 17.5t-42.5 6.5q-17 0 -34 -4.5t-31 -13.5t-23 -22.5t-9 -31.5z" />
    <glyph glyph-name="uni24D7" unicode="&#x24d7;" horiz-adv-x="1000" 
d="M42 376q0 94 35.5 177t97.5 145t145.5 98t179.5 36q94 0 177.5 -36t145.5 -98q61 -62 97 -145t36 -177q0 -95 -36 -178t-97 -146q-62 -62 -145.5 -98t-177.5 -36q-96 0 -179.5 36t-145.5 98q-62 63 -97.5 146t-35.5 178zM105 376q0 -81 31 -153t85 -126t126 -85t153 -31
t153 31t126 85q53 54 84.5 126t31.5 153t-31.5 153t-84.5 126q-54 53 -126 84.5t-153 31.5t-153 -31.5t-126 -84.5q-54 -54 -85 -126t-31 -153zM633 319q0 79 -30.5 111t-84.5 32q-29 0 -52 -11.5t-39 -31.5t-24.5 -46.5t-8.5 -57.5v-226h-72v606h72v-249q26 35 66 54.5
t87 19.5q72 0 115 -44t43 -137v-250h-72v230z" />
    <glyph glyph-name="uni24D8" unicode="&#x24d8;" horiz-adv-x="1000" 
d="M42 376q0 94 35.5 177t97.5 145t145.5 98t179.5 36q94 0 177.5 -36t145.5 -98q61 -62 97 -145t36 -177q0 -95 -36 -178t-97 -146q-62 -62 -145.5 -98t-177.5 -36q-96 0 -179.5 36t-145.5 98q-62 63 -97.5 146t-35.5 178zM105 376q0 -81 31 -153t85 -126t126 -85t153 -31
t153 31t126 85q53 54 84.5 126t31.5 153t-31.5 153t-84.5 126q-54 53 -126 84.5t-153 31.5t-153 -31.5t-126 -84.5q-54 -54 -85 -126t-31 -153zM536 76h-74v444h74v-444zM445 655q0 23 16.5 39.5t39.5 16.5t39 -16.5t16 -39.5t-16 -39t-39 -16t-39.5 16t-16.5 39z" />
    <glyph glyph-name="uni24D9" unicode="&#x24d9;" horiz-adv-x="1000" 
d="M42 376q0 94 35.5 177t97.5 145t145.5 98t179.5 36q94 0 177.5 -36t145.5 -98q61 -62 97 -145t36 -177q0 -95 -36 -178t-97 -146q-62 -62 -145.5 -98t-177.5 -36q-96 0 -179.5 36t-145.5 98q-62 63 -97.5 146t-35.5 178zM105 376q0 -81 31 -153t85 -126t126 -85t153 -31
t153 31t126 85q53 54 84.5 126t31.5 153t-31.5 153t-84.5 126q-54 53 -126 84.5t-153 31.5t-153 -31.5t-126 -84.5q-54 -54 -85 -126t-31 -153zM569 253q0 -50 -7 -88t-27 -63q-21 -26 -58 -38t-97 -11v62q38 0 61 8t35 26q12 17 16 43.5t4 63.5v258h73v-261zM475 651
q0 23 16.5 39.5t39.5 16.5t39.5 -16.5t16.5 -39.5t-16.5 -39t-39.5 -16t-39.5 16t-16.5 39z" />
    <glyph glyph-name="uni24DA" unicode="&#x24da;" horiz-adv-x="1000" 
d="M42 376q0 94 35.5 177t97.5 145t145.5 98t179.5 36q94 0 177.5 -36t145.5 -98q61 -62 97 -145t36 -177q0 -95 -36 -178t-97 -146q-62 -62 -145.5 -98t-177.5 -36q-96 0 -179.5 36t-145.5 98q-62 63 -97.5 146t-35.5 178zM105 376q0 -81 31 -153t85 -126t126 -85t153 -31
t153 31t126 85q53 54 84.5 126t31.5 153t-31.5 153t-84.5 126q-54 53 -126 84.5t-153 31.5t-153 -31.5t-126 -84.5q-54 -54 -85 -126t-31 -153zM408 695v-606h-71v606h71zM679 89q-28 0 -52 14t-45 37l-171 187l203 195h75q-54 -51 -96 -91q-18 -17 -35.5 -34t-31.5 -30
q-15 -14 -24 -23t-10 -11q1 -2 10 -12t23 -24q13 -14 30 -31.5t34 -35.5q40 -42 91 -94q24 -27 61 -47h-62z" />
    <glyph glyph-name="uni24DB" unicode="&#x24db;" horiz-adv-x="1000" 
d="M42 376q0 94 35.5 177t97.5 145t145.5 98t179.5 36q94 0 177.5 -36t145.5 -98q61 -62 97 -145t36 -177q0 -95 -36 -178t-97 -146q-62 -62 -145.5 -98t-177.5 -36q-96 0 -179.5 36t-145.5 98q-62 63 -97.5 146t-35.5 178zM105 376q0 -81 31 -153t85 -126t126 -85t153 -31
t153 31t126 85q53 54 84.5 126t31.5 153t-31.5 153t-84.5 126q-54 53 -126 84.5t-153 31.5t-153 -31.5t-126 -84.5q-54 -54 -85 -126t-31 -153zM535 55h-75v643h75v-643z" />
    <glyph glyph-name="uni24DC" unicode="&#x24dc;" horiz-adv-x="1000" 
d="M42 376q0 94 35.5 177t97.5 145t145.5 98t179.5 36q94 0 177.5 -36t145.5 -98q61 -62 97 -145t36 -177q0 -95 -36 -178t-97 -146q-62 -62 -145.5 -98t-177.5 -36q-96 0 -179.5 36t-145.5 98q-62 63 -97.5 146t-35.5 178zM105 376q0 -81 31 -153t85 -126t126 -85t153 -31
t153 31t126 85q53 54 84.5 126t31.5 153t-31.5 153t-84.5 126q-54 53 -126 84.5t-153 31.5t-153 -31.5t-126 -84.5q-54 -54 -85 -126t-31 -153zM705 381q0 87 -18.5 126.5t-62.5 39.5q-28 0 -45 -19.5t-26 -46.5q-10 -28 -13 -57t-3 -48l-1 -235h-69v249q0 23 -3.5 50
t-12.5 51q-10 23 -26.5 39t-41.5 16q-24 0 -40.5 -17.5t-25.5 -43.5q-10 -26 -14 -56.5t-4 -57.5v-230h-70v459h60v-81q20 49 50.5 71.5t62.5 21.5q68 -1 111 -97q25 48 58 72.5t68 24.5q37 0 63 -18t43 -47q16 -29 23 -67.5t7 -78.5v-31.5v-45.5t-0.5 -53t-0.5 -53v-45.5
v-31.5h-69v240z" />
    <glyph glyph-name="uni24DD" unicode="&#x24dd;" horiz-adv-x="1000" 
d="M42 376q0 94 35.5 177t97.5 145t145.5 98t179.5 36q94 0 177.5 -36t145.5 -98q61 -62 97 -145t36 -177q0 -95 -36 -178t-97 -146q-62 -62 -145.5 -98t-177.5 -36q-96 0 -179.5 36t-145.5 98q-62 63 -97.5 146t-35.5 178zM105 376q0 -81 31 -153t85 -126t126 -85t153 -31
t153 31t126 85q53 54 84.5 126t31.5 153t-31.5 153t-84.5 126q-54 53 -126 84.5t-153 31.5t-153 -31.5t-126 -84.5q-54 -54 -85 -126t-31 -153zM628 142l1 245q0 30 -5.5 59.5t-18.5 53.5q-14 24 -37.5 38.5t-59.5 13.5q-26 0 -48.5 -13.5t-39.5 -34.5q-17 -22 -27 -49
t-10 -55v-258h-76v461h76v-84q12 23 30 40.5t38 29.5q20 11 41.5 17t40.5 6q49 0 82 -16t53 -44q19 -29 27 -68.5t8 -86.5v-255h-75z" />
    <glyph glyph-name="uni24DE" unicode="&#x24de;" horiz-adv-x="1000" 
d="M42 376q0 94 35.5 177t97.5 145t145.5 98t179.5 36q94 0 177.5 -36t145.5 -98q61 -62 97 -145t36 -177q0 -95 -36 -178t-97 -146q-62 -62 -145.5 -98t-177.5 -36q-96 0 -179.5 36t-145.5 98q-62 63 -97.5 146t-35.5 178zM105 376q0 -81 31 -153t85 -126t126 -85t153 -31
t153 31t126 85q53 54 84.5 126t31.5 153t-31.5 153t-84.5 126q-54 53 -126 84.5t-153 31.5t-153 -31.5t-126 -84.5q-54 -54 -85 -126t-31 -153zM257 379q0 49 19 93t52 77q33 32 77 51t94 19t94 -19t77 -51q33 -33 52 -77t19 -93q0 -50 -19 -94t-52 -76q-33 -33 -77 -52
t-94 -19t-94 19t-77 52q-33 32 -52 76t-19 94zM333 378q0 -38 13 -71t35 -57q22 -25 52 -39t65 -14q34 0 64.5 14t53.5 39q23 24 36 57t13 71q0 37 -13 70t-36 58t-53.5 39t-64.5 14q-35 0 -65 -14t-52 -39t-35 -58t-13 -70z" />
    <glyph glyph-name="uni24DF" unicode="&#x24df;" horiz-adv-x="1000" 
d="M42 376q0 94 35.5 177t97.5 145t145.5 98t179.5 36q94 0 177.5 -36t145.5 -98q61 -62 97 -145t36 -177q0 -95 -36 -178t-97 -145q-62 -62 -145.5 -98t-177.5 -36q-96 0 -179.5 36t-145.5 98t-97.5 145t-35.5 178zM105 376q0 -81 31 -153t85 -126t126 -85t153 -31t153 31
t126 85q53 54 84.5 126t31.5 153t-31.5 153t-84.5 126q-54 53 -126 84.5t-153 31.5t-153 -31.5t-126 -84.5q-54 -54 -85 -126t-31 -153zM488 672q69 0 120.5 -17t85.5 -46q33 -30 50 -69.5t17 -85.5q0 -43 -19 -78.5t-51 -60.5q-33 -25 -77 -38.5t-93 -13.5q-44 0 -81 9
t-56 17v-95v-141h-74v591q28 9 56.5 14.5t53.5 8.5q24 3 42 4t26 1zM506 322q38 0 71 10.5t57 29.5t37.5 45t13.5 58q0 33 -14 60.5t-38 47.5q-25 19 -59.5 30t-74.5 11q-58 0 -115 -15v-247q17 -10 50 -19.5t72 -10.5z" />
    <glyph glyph-name="uni24E0" unicode="&#x24e0;" horiz-adv-x="1000" 
d="M42 376q0 94 35.5 177t97.5 145t145.5 98t179.5 36q94 0 177.5 -36t145.5 -98q61 -62 97 -145t36 -177q0 -95 -36 -178t-97 -145q-62 -62 -145.5 -98t-177.5 -36q-96 0 -179.5 36t-145.5 98t-97.5 145t-35.5 178zM105 376q0 -81 31 -153t85 -126t126 -85t153 -31t153 31
t126 85q53 54 84.5 126t31.5 153t-31.5 153t-84.5 126q-54 53 -126 84.5t-153 31.5t-153 -31.5t-126 -84.5q-54 -54 -85 -126t-31 -153zM514 677q7 0 25.5 -1t43.5 -4q24 -3 52.5 -8.5t56.5 -14.5v-591h-74q0 20 -0.5 57.5t-0.5 83.5q0 23 0.5 47t0.5 48q-20 -8 -56.5 -17
t-81.5 -9q-49 0 -92.5 13.5t-75.5 38.5q-33 25 -52 60.5t-19 78.5q0 46 17 85.5t51 69.5q33 29 84.5 46t120.5 17zM496 327q39 1 72 10.5t50 19.5v247q-27 6 -55 10.5t-53 4.5q-42 0 -77.5 -10.5t-60.5 -29.5q-26 -19 -40.5 -47t-14.5 -62q0 -32 13.5 -58t37.5 -45t57 -29.5
t71 -10.5z" />
    <glyph glyph-name="uni24E1" unicode="&#x24e1;" horiz-adv-x="1000" 
d="M42 376q0 94 35.5 177t97.5 145t145.5 98t179.5 36q94 0 177.5 -36t145.5 -98q61 -62 97 -145t36 -177q0 -95 -36 -178t-97 -146q-62 -62 -145.5 -98t-177.5 -36q-96 0 -179.5 36t-145.5 98q-62 63 -97.5 146t-35.5 178zM105 376q0 -81 31 -153t85 -126t126 -85t153 -31
t153 31t126 85q53 54 84.5 126t31.5 153t-31.5 153t-84.5 126q-54 53 -126 84.5t-153 31.5t-153 -31.5t-126 -84.5q-54 -54 -85 -126t-31 -153zM650 529q-41 1 -71.5 -5.5t-50.5 -24.5t-30.5 -49.5t-10.5 -80.5v-48v-69q-1 -37 -1 -70v-48h-75v459h76v-82q18 42 58.5 66
t104.5 22v-70z" />
    <glyph glyph-name="uni24E2" unicode="&#x24e2;" horiz-adv-x="1000" 
d="M42 376q0 94 35.5 177t97.5 145t145.5 98t179.5 36q94 0 177.5 -36t145.5 -98q61 -62 97 -145t36 -177q0 -95 -36 -178t-97 -145q-62 -62 -145.5 -98t-177.5 -36q-96 0 -179.5 36t-145.5 98t-97.5 145t-35.5 178zM105 376q0 -81 31 -153t85 -126t126 -85t153 -31t153 31
t126 85q53 54 84.5 126t31.5 153t-31.5 153t-84.5 126q-54 53 -126 84.5t-153 31.5t-153 -31.5t-126 -84.5q-54 -54 -85 -126t-31 -153zM626 378q33 -18 51 -44.5t18 -61.5q0 -39 -18 -67t-48 -45q-31 -18 -70.5 -26t-81.5 -8q-34 0 -71 7.5t-74 24.5v70q26 -15 70 -28
t89 -13q15 0 36.5 3t41.5 11q20 7 34 21t14 35q0 18 -14.5 37.5t-48.5 33.5q-11 4 -31 10.5t-44 15.5t-48 21t-44 28q-20 15 -32.5 35.5t-12.5 46.5q0 34 18 58t47 39q28 15 62.5 21.5t66.5 6.5q29 0 53.5 -2.5t50.5 -7.5v-71q-18 6 -36 11q-17 5 -37 8.5t-43 3.5
q-20 0 -38.5 -3.5t-32.5 -10.5q-15 -7 -24 -16.5t-9 -22.5q0 -18 16.5 -36t54.5 -33q46 -19 82 -31.5t53 -20.5z" />
    <glyph glyph-name="uni24E3" unicode="&#x24e3;" horiz-adv-x="1000" 
d="M42 376q0 94 35.5 177t97.5 145t145.5 98t179.5 36q94 0 177.5 -36t145.5 -98q61 -62 97 -145t36 -177q0 -95 -36 -178t-97 -146q-62 -62 -145.5 -98t-177.5 -36q-96 0 -179.5 36t-145.5 98q-62 63 -97.5 146t-35.5 178zM105 376q0 -81 31 -153t85 -126t126 -85t153 -31
t153 31t126 85q53 54 84.5 126t31.5 153t-31.5 153t-84.5 126q-54 53 -126 84.5t-153 31.5t-153 -31.5t-126 -84.5q-54 -54 -85 -126t-31 -153zM513 271q0 -42 3.5 -70t17.5 -45q13 -18 40 -25t75 -7l-1 -59q-62 -4 -102.5 5.5t-64.5 33.5t-33.5 63.5t-9.5 95.5v206h-92v60
h93v151h74v-151h130v-61l-130 1v-198z" />
    <glyph glyph-name="uni24E4" unicode="&#x24e4;" horiz-adv-x="1000" 
d="M42 376q0 94 35.5 177t97.5 145t145.5 98t179.5 36q94 0 177.5 -36t145.5 -98q61 -62 97 -145t36 -177q0 -95 -36 -178t-97 -145q-62 -62 -145.5 -98t-177.5 -36q-96 0 -179.5 36t-145.5 98t-97.5 145t-35.5 178zM105 376q0 -81 31 -153t85 -126t126 -85t153 -31t153 31
t126 85q53 54 84.5 126t31.5 153t-31.5 153t-84.5 126q-54 53 -126 84.5t-153 31.5t-153 -31.5t-126 -84.5q-54 -54 -85 -126t-31 -153zM620 140v78q-27 -40 -65.5 -64.5t-91.5 -24.5q-163 0 -166 198v267h74v-211q0 -94 24 -142t91 -48q26 0 50 12t43 32q18 20 29.5 45.5
t11.5 52.5v259h74v-454h-74z" />
    <glyph glyph-name="uni24E5" unicode="&#x24e5;" horiz-adv-x="1000" 
d="M42 376q0 94 35.5 177t97.5 145t145.5 98t179.5 36q94 0 177.5 -36t145.5 -98q61 -62 97 -145t36 -177q0 -95 -36 -178t-97 -146q-62 -62 -145.5 -98t-177.5 -36q-96 0 -179.5 36t-145.5 98q-62 63 -97.5 146t-35.5 178zM105 376q0 -81 31 -153t85 -126t126 -85t153 -31
t153 31t126 85q53 54 84.5 126t31.5 153t-31.5 153t-84.5 126q-54 53 -126 84.5t-153 31.5t-153 -31.5t-126 -84.5q-54 -54 -85 -126t-31 -153zM742 595l-210 -455h-65l-210 455l83 1l166 -375l173 374h63z" />
    <glyph glyph-name="uni24E6" unicode="&#x24e6;" horiz-adv-x="1000" 
d="M42 376q0 94 35.5 177t97.5 145t145.5 98t179.5 36q94 0 177.5 -36t145.5 -98q61 -62 97 -145t36 -177q0 -95 -36 -178t-97 -145q-62 -62 -145.5 -98t-177.5 -36q-96 0 -179.5 36t-145.5 98t-97.5 145t-35.5 178zM105 376q0 -81 31 -153t85 -126t126 -85t153 -31t153 31
t126 85q53 54 84.5 126t31.5 153t-31.5 153t-84.5 126q-54 53 -126 84.5t-153 31.5t-153 -31.5t-126 -84.5q-54 -54 -85 -126t-31 -153zM831 593q-42 -114 -82 -226.5t-82 -227.5h-54q-28 90 -52 164l-20 62t-18 57q-9 25 -14.5 43t-7.5 24q-2 -7 -11 -33.5t-21 -62.5
t-25.5 -77t-25.5 -77q-12 -37 -21.5 -64.5t-12.5 -35.5h-57q-38 115 -77 227.5t-77 226.5q18 0 36 0.5t36 0.5q29 -90 58 -179t58 -179l120 357h57q29 -89 56.5 -178t55.5 -178q32 89 62.5 178t61.5 178h57z" />
    <glyph glyph-name="uni24E7" unicode="&#x24e7;" horiz-adv-x="1000" 
d="M42 376q0 94 35.5 177t97.5 145t145.5 98t179.5 36q94 0 177.5 -36t145.5 -98q61 -62 97 -145t36 -177q0 -95 -36 -178t-97 -146q-62 -62 -145.5 -98t-177.5 -36q-96 0 -179.5 36t-145.5 98q-62 63 -97.5 146t-35.5 178zM105 376q0 -81 31 -153t85 -126t126 -85t153 -31
t153 31t126 85q53 54 84.5 126t31.5 153t-31.5 153t-84.5 126q-54 53 -126 84.5t-153 31.5t-153 -31.5t-126 -84.5q-54 -54 -85 -126t-31 -153zM669 210q25 -32 41.5 -49t21.5 -21h-65q-13 0 -30 9.5t-33 30.5l-113 151l-162 -191h-78l207 240l-166 223h90l123 -171l142 171
h74l-181 -218z" />
    <glyph glyph-name="uni24E8" unicode="&#x24e8;" horiz-adv-x="1000" 
d="M42 376q0 94 35.5 177t97.5 145t145.5 98t179.5 36q94 0 177.5 -36t145.5 -98q61 -62 97 -145t36 -177q0 -95 -36 -178t-97 -146q-62 -62 -145.5 -98t-177.5 -36q-96 0 -179.5 36t-145.5 98q-62 63 -97.5 146t-35.5 178zM105 376q0 -81 31 -153t85 -126t126 -85t153 -31
t153 31t126 85q53 54 84.5 126t31.5 153t-31.5 153t-84.5 126q-54 53 -126 84.5t-153 31.5t-153 -31.5t-126 -84.5q-54 -54 -85 -126t-31 -153zM728 645l-166 -402q-9 -23 -19.5 -46t-21.5 -44q-12 -21 -25 -38.5t-28 -27.5q-26 -19 -62.5 -27t-74.5 -8l-39 60
q21 0 42.5 0.5t42.5 4.5q20 3 37.5 10t31.5 21q8 9 16.5 22.5t16.5 29.5q8 15 15 32t13 32l-196 381h78l153 -297l117 297h69z" />
    <glyph glyph-name="uni24E9" unicode="&#x24e9;" horiz-adv-x="1000" 
d="M42 376q0 94 35.5 177t97.5 145t145.5 98t179.5 36q94 0 177.5 -36t145.5 -98q61 -62 97 -145t36 -177q0 -95 -36 -178t-97 -146q-62 -62 -145.5 -98t-177.5 -36q-96 0 -179.5 36t-145.5 98q-62 63 -97.5 146t-35.5 178zM105 376q0 -81 31 -153t85 -126t126 -85t153 -31
t153 31t126 85q53 54 84.5 126t31.5 153t-31.5 153t-84.5 126q-54 53 -126 84.5t-153 31.5t-153 -31.5t-126 -84.5q-54 -54 -85 -126t-31 -153zM705 200v-59l-428 -1l288 397h-251v61h379l-284 -399z" />
    <glyph glyph-name="SF100000" unicode="&#x2500;" horiz-adv-x="950" 
d="M3 433h944v-34h-944v34z" />
    <glyph glyph-name="uni2501" unicode="&#x2501;" horiz-adv-x="950" 
d="M3 453h944v-74h-944v74z" />
    <glyph glyph-name="SF110000" unicode="&#x2502;" horiz-adv-x="950" 
d="M492 913v-994h-34v994h34z" />
    <glyph glyph-name="uni2503" unicode="&#x2503;" horiz-adv-x="950" 
d="M512 913v-994h-74v994h74z" />
    <glyph glyph-name="SF010000" unicode="&#x250c;" horiz-adv-x="950" 
d="M492 -81h-34v514h489v-34h-455v-480z" />
    <glyph glyph-name="uni250D" unicode="&#x250d;" horiz-adv-x="950" 
d="M492 -81h-34v534h489v-74h-455v-460z" />
    <glyph glyph-name="uni250E" unicode="&#x250e;" horiz-adv-x="950" 
d="M512 -81h-73v514h508v-34h-435v-480z" />
    <glyph glyph-name="uni250F" unicode="&#x250f;" horiz-adv-x="950" 
d="M947 453v-74h-435v-460h-73v534h508z" />
    <glyph glyph-name="SF030000" unicode="&#x2510;" horiz-adv-x="950" 
d="M458 399h-455v34h489v-514h-34v480z" />
    <glyph glyph-name="uni2511" unicode="&#x2511;" horiz-adv-x="950" 
d="M458 379h-455v74h489v-534h-34v460z" />
    <glyph glyph-name="uni2512" unicode="&#x2512;" horiz-adv-x="950" 
d="M438 399h-435v34h508v-514h-73v480z" />
    <glyph glyph-name="uni2513" unicode="&#x2513;" horiz-adv-x="950" 
d="M511 453v-534h-73v460h-435v74h508z" />
    <glyph glyph-name="SF020000" unicode="&#x2514;" horiz-adv-x="950" 
d="M492 433h455v-34h-489v514h34v-480z" />
    <glyph glyph-name="uni2515" unicode="&#x2515;" horiz-adv-x="950" 
d="M492 453h455v-74h-489v534h34v-460z" />
    <glyph glyph-name="uni2516" unicode="&#x2516;" horiz-adv-x="950" 
d="M512 433h435v-34h-508v514h73v-480z" />
    <glyph glyph-name="uni2517" unicode="&#x2517;" horiz-adv-x="950" 
d="M439 379v534h73v-460h435v-74h-508z" />
    <glyph glyph-name="SF040000" unicode="&#x2518;" horiz-adv-x="950" 
d="M458 913h34v-514h-489v34h455v480z" />
    <glyph glyph-name="uni2519" unicode="&#x2519;" horiz-adv-x="950" 
d="M458 913h34v-534h-489v74h455v460z" />
    <glyph glyph-name="uni251A" unicode="&#x251a;" horiz-adv-x="950" 
d="M438 913h73v-514h-508v34h435v480z" />
    <glyph glyph-name="uni251B" unicode="&#x251b;" horiz-adv-x="950" 
d="M3 379v74h435v460h73v-534h-508z" />
    <glyph glyph-name="SF080000" unicode="&#x251c;" horiz-adv-x="950" 
d="M492 433h455v-34h-455v-480h-34v994h34v-480z" />
    <glyph glyph-name="uni251D" unicode="&#x251d;" horiz-adv-x="950" 
d="M492 453h455v-74h-455v-460h-34v994h34v-460z" />
    <glyph glyph-name="uni251E" unicode="&#x251e;" horiz-adv-x="950" 
d="M512 433h435v-34h-456q0 -120 0.5 -240t0.5 -240h-34v500h-19v494h73v-480z" />
    <glyph glyph-name="uni251F" unicode="&#x251f;" horiz-adv-x="950" 
d="M492 433h455v-34h-435v-480h-73v494h19v500h34v-480z" />
    <glyph glyph-name="uni2520" unicode="&#x2520;" horiz-adv-x="950" 
d="M439 -81v994h73v-480h435v-34h-435v-480h-73z" />
    <glyph glyph-name="uni2521" unicode="&#x2521;" horiz-adv-x="950" 
d="M512 453h435v-74h-455v-460h-34v500h-19v494h73v-460z" />
    <glyph glyph-name="uni2522" unicode="&#x2522;" horiz-adv-x="950" 
d="M492 453h455v-74h-435v-460h-73v494h19v500h34v-460z" />
    <glyph glyph-name="uni2523" unicode="&#x2523;" horiz-adv-x="950" 
d="M439 -81v994h73v-460h435v-74h-435v-460h-73z" />
    <glyph glyph-name="SF090000" unicode="&#x2524;" horiz-adv-x="950" 
d="M458 399h-455v34h455v480h34v-993h-34v479z" />
    <glyph glyph-name="uni2525" unicode="&#x2525;" horiz-adv-x="950" 
d="M458 379h-455v74h455v460h34v-993h-34v459z" />
    <glyph glyph-name="uni2526" unicode="&#x2526;" horiz-adv-x="950" 
d="M458 399h-455v34h435v480h73v-494h-20v-500h-33v480z" />
    <glyph glyph-name="uni2527" unicode="&#x2527;" horiz-adv-x="950" 
d="M438 399h-435v34h455v480h33v-500h20v-494h-73v480z" />
    <glyph glyph-name="uni2528" unicode="&#x2528;" horiz-adv-x="950" 
d="M438 -81v480h-435v34h435v480h73v-994h-73z" />
    <glyph glyph-name="uni2529" unicode="&#x2529;" horiz-adv-x="950" 
d="M458 379h-455v74h435v460h73v-494h-20v-499h-33v459z" />
    <glyph glyph-name="uni252A" unicode="&#x252a;" horiz-adv-x="950" 
d="M438 379h-435v74h455v460h33v-500h20v-494h-73v460z" />
    <glyph glyph-name="uni252B" unicode="&#x252b;" horiz-adv-x="950" 
d="M438 -81v460h-435v74h435v460h73v-994h-73z" />
    <glyph glyph-name="SF060000" unicode="&#x252c;" horiz-adv-x="950" 
d="M492 399v-480h-34v480h-455v34h944v-34h-455z" />
    <glyph glyph-name="uni252D" unicode="&#x252d;" horiz-adv-x="950" 
d="M492 399v-480h-34v460h-455v74h469v-20h475v-34h-455z" />
    <glyph glyph-name="uni252E" unicode="&#x252e;" horiz-adv-x="950" 
d="M492 379v-460h-34v480h-455v34h475v20h469v-74h-455z" />
    <glyph glyph-name="uni252F" unicode="&#x252f;" horiz-adv-x="950" 
d="M458 -81v460h-455v74h944v-74h-455v-460h-34z" />
    <glyph glyph-name="uni2530" unicode="&#x2530;" horiz-adv-x="950" 
d="M512 399v-480h-74v480h-435v34h944v-34h-435z" />
    <glyph glyph-name="uni2531" unicode="&#x2531;" horiz-adv-x="950" 
d="M512 399v-480h-74v460h-435v74h469v-20h475v-34h-435z" />
    <glyph glyph-name="uni2532" unicode="&#x2532;" horiz-adv-x="950" 
d="M3 399v34h475v20h469v-74h-435v-460h-74v480h-435z" />
    <glyph glyph-name="uni2533" unicode="&#x2533;" horiz-adv-x="950" 
d="M438 -81v460h-435v74h944v-74h-435v-460h-74z" />
    <glyph glyph-name="SF070000" unicode="&#x2534;" horiz-adv-x="950" 
d="M458 433v479h34v-479h455v-34h-944v34h455z" />
    <glyph glyph-name="uni2535" unicode="&#x2535;" horiz-adv-x="950" 
d="M458 453v459h34v-479h455v-34h-475v-20h-469v74h455z" />
    <glyph glyph-name="uni2536" unicode="&#x2536;" horiz-adv-x="950" 
d="M947 453v-74h-469v20h-475v34h455v479h34v-459h455z" />
    <glyph glyph-name="uni2537" unicode="&#x2537;" horiz-adv-x="950" 
d="M492 913v-460h455v-74h-944v74h455v460h34z" />
    <glyph glyph-name="uni2538" unicode="&#x2538;" horiz-adv-x="950" 
d="M438 433v480h74v-480h435v-34h-944v34h435z" />
    <glyph glyph-name="uni2539" unicode="&#x2539;" horiz-adv-x="950" 
d="M438 453v460h74v-480h435v-34h-475v-20h-469v74h435z" />
    <glyph glyph-name="uni253A" unicode="&#x253a;" horiz-adv-x="950" 
d="M947 453v-74h-469v20h-475v34h435v480h74v-460h435z" />
    <glyph glyph-name="uni253B" unicode="&#x253b;" horiz-adv-x="950" 
d="M512 913v-460h435v-74h-944v74h435v460h74z" />
    <glyph glyph-name="SF050000" unicode="&#x253c;" horiz-adv-x="950" 
d="M458 399h-455v34h455v480h34v-480h455v-34h-455v-480h-34v480z" />
    <glyph glyph-name="uni253D" unicode="&#x253d;" horiz-adv-x="950" 
d="M458 379h-455v78h455v456h34v-480h455v-34h-455v-480h-34v460z" />
    <glyph glyph-name="uni253E" unicode="&#x253e;" horiz-adv-x="950" 
d="M458 399h-455v34h455v480h34v-460h455v-74h-455v-460h-34v480z" />
    <glyph glyph-name="uni253F" unicode="&#x253f;" horiz-adv-x="950" 
d="M492 913v-460h455v-74h-455v-460h-34v460h-455v74h455v460h34z" />
    <glyph glyph-name="uni2540" unicode="&#x2540;" horiz-adv-x="950" 
d="M458 399h-455v34h435v480h74v-480h435v-34h-455v-480h-34v480z" />
    <glyph glyph-name="uni2541" unicode="&#x2541;" horiz-adv-x="950" 
d="M458 913h34v-480h455v-34h-435v-480h-74v480h-435v34h455v480z" />
    <glyph glyph-name="uni2542" unicode="&#x2542;" horiz-adv-x="950" 
d="M438 399h-435v34h435v480h74v-480h435v-34h-435v-480h-74v480z" />
    <glyph glyph-name="uni2543" unicode="&#x2543;" horiz-adv-x="950" 
d="M492 -81h-34v460h-455v74h435v460h74v-480h435v-34h-455v-480z" />
    <glyph glyph-name="uni2544" unicode="&#x2544;" horiz-adv-x="950" 
d="M458 399h-455v34h435v480h74v-460h435v-74h-455v-460h-34v480z" />
    <glyph glyph-name="uni2545" unicode="&#x2545;" horiz-adv-x="950" 
d="M492 433h455v-34h-435v-480h-74v460h-435v74h455v460h34v-480z" />
    <glyph glyph-name="uni2546" unicode="&#x2546;" horiz-adv-x="950" 
d="M458 913h34v-460h455v-74h-435v-460h-74v480h-435v34h455v480z" />
    <glyph glyph-name="uni2547" unicode="&#x2547;" horiz-adv-x="950" 
d="M458 379h-455v74h435v460h74v-460h435v-74h-455v-460h-34v460z" />
    <glyph glyph-name="uni2548" unicode="&#x2548;" horiz-adv-x="950" 
d="M458 913h34v-460h455v-74h-435v-460h-74v460h-435v74h455v460z" />
    <glyph glyph-name="uni2549" unicode="&#x2549;" horiz-adv-x="950" 
d="M512 -81h-74v460h-435v74h435v460h74v-480h435v-34h-435v-480z" />
    <glyph glyph-name="uni254A" unicode="&#x254a;" horiz-adv-x="950" 
d="M438 399h-435v34h435v480h74v-460h435v-74h-435v-460h-74v480z" />
    <glyph glyph-name="uni254B" unicode="&#x254b;" horiz-adv-x="950" 
d="M512 913v-460h435v-74h-435v-460h-74v460h-435v74h435v460h74z" />
    <glyph glyph-name="shade" unicode="&#x2592;" horiz-adv-x="950" 
d="M845 29h-741v776h741v-776z" />
    <glyph glyph-name="filledbox" unicode="&#x25a0;" horiz-adv-x="950" 
d="M207 698h536v-564h-536v564z" />
    <glyph glyph-name="H22073" unicode="&#x25a1;" horiz-adv-x="950" 
d="M207 698h536v-564h-536v564zM269 634v-436h412v436h-412z" />
    <glyph glyph-name="uni25A3" unicode="&#x25a3;" horiz-adv-x="950" 
d="M806 765v-698h-663v698h663zM210 698v-564h530v564h-530zM643 593v-354h-336v354h336z" />
    </font>
</defs>
</svg>
