<?xml version="1.0" standalone="no"?>
<!DOCTYPE svg PUBLIC "-//W3C//DTD SVG 1.1//EN" "http://www.w3.org/Graphics/SVG/1.1/DTD/svg11.dtd" >
<svg xmlns="http://www.w3.org/2000/svg" xmlns:xlink="http://www.w3.org/1999/xlink" version="1.1">
<metadata>
Created by FontForge 20190801 at Wed Jan  9 11:23:04 2013
 By Jimmy Wärting
</metadata>
<defs>
<font id="KorUB" horiz-adv-x="800" >
  <font-face 
    font-family="KorUB"
    font-weight="400"
    font-stretch="normal"
    units-per-em="1000"
    panose-1="2 2 6 3 2 1 1 2 1 1"
    ascent="858"
    descent="-142"
    x-height="515"
    cap-height="752"
    bbox="-21 -153 7242 902"
    underline-thickness="25"
    underline-position="-154"
    unicode-range="U+0020-FFE6"
  />
<missing-glyph horiz-adv-x="1000" 
d="M100 -42v800h800v-800h-800zM150 8h700v700h-700v-700z" />
    <glyph glyph-name=".notdef" horiz-adv-x="1000" 
d="M100 -42v800h800v-800h-800zM150 8h700v700h-700v-700z" />
    <glyph glyph-name="glyph1" horiz-adv-x="0" 
 />
    <glyph glyph-name="glyph2" horiz-adv-x="1000" 
 />
    <glyph glyph-name="space" unicode=" " horiz-adv-x="280" 
d="M0 58z" />
    <glyph glyph-name="exclam" unicode="!" horiz-adv-x="389" 
d="M223 196h-100l55 532h126zM104 128h127l-20 -118h-127z" />
    <glyph glyph-name="quotedbl" unicode="&#x22;" horiz-adv-x="410" 
d="M65 837h112l-18 -267h-76zM233 837h112l-18 -267h-76z" />
    <glyph glyph-name="numbersign" unicode="#" horiz-adv-x="625" 
d="M67 544h518v-96h-518v96zM40 304h518v-96h-518v96zM198 720h111l-97 -690h-111zM414 720h111l-97 -690h-111z" />
    <glyph glyph-name="dollar" unicode="$" horiz-adv-x="596" 
d="M263 398v428h112v-477zM355 349v-428h-112v477zM453 374q98 -62 98 -150q0 -98 -76 -161q-40 -32 -94.5 -48.5t-120.5 -16.5q-104 0 -192 32l-25 10l2 116l14 -8q97 -55 213 -57q51 0 94 26q50 28 50 76q0 60 -90 109l-142 69l-18 9q-8 3 -12 6q-3 2 -6 3q-98 63 -98 163
q0 97 89 148q73 43 185 43q85 0 160 -24l5 -1v-126l-12 10q-25 19 -68.5 31.5t-90.5 13.5q-58 3 -90 -17q-42 -20 -42 -67q0 -54 90 -102l81 -41q27 -13 48 -23q18 -9 32.5 -16t15.5 -7z" />
    <glyph glyph-name="percent" unicode="%" horiz-adv-x="790" 
d="M547 728h115l-419 -718h-115zM45 557q0 71 41 113t118 42t118.5 -42t41.5 -113q0 -32 -11 -60t-32 -49t-50.5 -33.5t-66.5 -12.5t-66.5 12.5t-49.5 33.5q-21 21 -32 49t-11 60zM145 557q0 -28 13 -51.5t46 -23.5t46.5 23.5t13.5 51.5q0 30 -14 53t-46 23q-31 0 -45 -23
t-14 -53zM426 181q0 71 41 113t118 42t118.5 -42t41.5 -113q0 -32 -11 -60t-32 -49t-50.5 -33.5t-66.5 -12.5t-66.5 12.5t-49.5 33.5q-21 21 -32 49t-11 60zM526 181q0 -28 13 -52t46 -24t46.5 24t13.5 52q0 30 -14 52.5t-46 22.5q-31 0 -45 -22.5t-14 -52.5z" />
    <glyph glyph-name="ampersand" unicode="&#x26;" horiz-adv-x="721" 
d="M633 404q-3 -44 -11 -80t-19 -66t-23.5 -55t-25.5 -46l127 -147h-158l-47 56q-38 -32 -86 -49.5t-108 -17.5q-55 0 -99 14.5t-74 40.5q-31 27 -47.5 64.5t-16.5 83.5q0 36 11.5 66.5t31.5 55.5t47 45t58 36q-26 32 -46.5 67.5t-20.5 81.5q0 44 15.5 76.5t42.5 54.5
q26 21 61.5 31.5t76.5 10.5q37 0 71 -10t60 -31q25 -21 40 -52t15 -73q0 -30 -12 -57t-31 -50q-20 -23 -46 -41.5t-53 -32.5l108 -131q12 28 19 67t11 88h129zM175 208q0 -49 33 -79.5t90 -30.5q35 0 63 15t45 35l-147 176q-16 -10 -31 -21t-27 -25t-19 -31.5t-7 -38.5z
M251 554q0 -26 16 -51t36 -45q14 7 28.5 16.5t26.5 22.5q11 13 18.5 28t7.5 33q0 38 -19.5 54t-46.5 16q-26 0 -46.5 -18.5t-20.5 -55.5z" />
    <glyph glyph-name="quotesingle" unicode="'" horiz-adv-x="242" 
d="M65 837h112l-18 -267h-76z" />
    <glyph glyph-name="parenleft" unicode="(" horiz-adv-x="341" 
d="M201 -51q-33 49 -61.5 100.5t-49.5 105.5t-33 110.5t-12 115.5q0 60 12 116t33 110q21 53 49.5 104.5t61.5 101.5h120q-29 -51 -56 -105t-48 -109t-33.5 -110t-12.5 -108t12.5 -108t33.5 -109q20 -55 47.5 -109.5t57.5 -105.5h-121z" />
    <glyph glyph-name="parenright" unicode=")" horiz-adv-x="341" 
d="M19 -51q30 51 57.5 105.5t48.5 109.5q20 54 32.5 109t12.5 108t-12.5 108t-33.5 110t-48 109t-56 105h120q33 -50 61.5 -101.5t49.5 -104.5q21 -54 33 -110t12 -116q0 -59 -12 -115.5t-33 -110.5t-49.5 -105.5t-61.5 -100.5h-121z" />
    <glyph glyph-name="asterisk" unicode="*" horiz-adv-x="556" 
d="M277 470l-71 -119l-102 70l100 111h-2l-142 29l37 111l134 -54l-15 140h129l-15 -139l131 54l36 -112l-142 -30l97 -111l-104 -69z" />
    <glyph glyph-name="plus" unicode="+" horiz-adv-x="598" 
d="M40 460h199v198h120v-198h199v-112h-199v-200h-120v200h-199v112z" />
    <glyph glyph-name="comma" unicode="," horiz-adv-x="250" 
d="M84 166h122l-99 -238h-90z" />
    <glyph glyph-name="hyphen" unicode="-" horiz-adv-x="550" 
d="M39 463h472v-112h-472v112z" />
    <glyph glyph-name="period" unicode="." horiz-adv-x="217" 
d="M177 -2h-137v128h137v-128z" />
    <glyph glyph-name="slash" unicode="/" horiz-adv-x="372" 
d="M250 728h112l-240 -718h-112z" />
    <glyph glyph-name="zero" unicode="0" horiz-adv-x="598" 
d="M402 170q37 73 37 202q0 128 -37 201q-38 72 -103 72q-66 0 -103 -72q-37 -73 -37 -201q0 -129 37 -202q37 -72 103 -72q65 0 103 72zM483 643q70 -100 70 -271q0 -170 -70 -270q-35 -54 -81 -79t-103 -25t-103 25t-81 79q-70 100 -70 270q0 171 70 271q68 103 184 103
t184 -103z" />
    <glyph glyph-name="one" unicode="1" horiz-adv-x="334" 
d="M70 713l194 20v-723h-110v625h-84v78z" />
    <glyph glyph-name="two" unicode="2" horiz-adv-x="600" 
d="M550 10h-500v7q53 60 88.5 100.5t55.5 63.5q43 51 75 93.5t55 77.5q55 88 55 156q0 60 -38 98q-38 39 -97 39q-94 0 -178 -100v132q94 69 187 69q104 0 173 -63q67 -64 67 -164q0 -85 -56 -176q-26 -41 -73 -99.5t-116 -134.5h302v-99z" />
    <glyph glyph-name="three" unicode="3" horiz-adv-x="521" 
d="M80 716q34 14 71.5 22t79.5 8q104 0 170 -51q32 -27 47.5 -60.5t15.5 -78.5q0 -56 -25.5 -97t-76.5 -66q56 -17 87 -70q27 -42 27 -104q0 -50 -17 -89t-52 -71q-35 -30 -79.5 -45.5t-100.5 -15.5q-78 0 -167 40v114q45 -26 88.5 -40t87.5 -14q56 0 92 30q35 32 35 86
q0 56 -44 92q-44 33 -125 29v96q156 0 156 106q0 52 -37 80t-99 28q-58 0 -134 -29v100z" />
    <glyph glyph-name="four" unicode="4" horiz-adv-x="632" 
d="M383 525l-1 1l-181 -214h182v213zM449 728h48v-416h85v-97h-85v-205h-114v205h-333v50z" />
    <glyph glyph-name="five" unicode="5" horiz-adv-x="533" 
d="M450 631h-248v-159q132 8 210 -62q76 -66 76 -173q0 -105 -72 -172q-73 -67 -186 -67q-95 0 -190 46v110q84 -54 172 -54q65 0 114 41q48 39 48 94q0 60 -48 99q-52 43 -138 43q-42 0 -88 -12v363h350v-97z" />
    <glyph glyph-name="six" unicode="6" horiz-adv-x="578" 
d="M288 312q-61 0 -126 -38q-3 -14 -5 -27t-2 -26q0 -64 43 -107q40 -38 94 -38q56 0 92 34q35 35 35 89q0 48 -38 81q-35 32 -93 32zM127 514q82 132 234 228l68 -82q-83 -46 -150 -122q-33 -38 -56 -76t-35 -77q63 30 124 30q94 0 158 -62q63 -63 63 -155q0 -91 -69 -158
q-69 -66 -164 -66q-114 0 -184 73q-71 74 -71 193q0 140 82 274z" />
    <glyph glyph-name="seven" unicode="7" horiz-adv-x="600" 
d="M555 728l-347 -738l-101 41l278 595h-340v102h510v0z" />
    <glyph glyph-name="eight" unicode="8" horiz-adv-x="595" 
d="M388 460q36 31 36 76q0 48 -34 79q-32 32 -87 32q-57 0 -90 -30q-35 -30 -35 -78q0 -46 37 -78q36 -33 86 -33t87 32zM439 380q111 -54 111 -176q0 -89 -73 -147q-71 -59 -177 -59q-110 0 -182 59q-73 60 -73 148q0 115 112 175q-93 63 -93 157q0 90 69 150q69 59 173 59
q98 0 166 -60q66 -60 66 -151q0 -95 -99 -155zM401 133q35 32 35 80q0 49 -38 82q-20 16 -44 24.5t-54 8.5q-64 0 -102 -32q-39 -33 -39 -83t39 -83q38 -32 99 -32q68 0 104 35z" />
    <glyph glyph-name="nine" unicode="9" horiz-adv-x="582" 
d="M196 610q-37 -34 -37 -85q0 -49 40 -83q40 -35 94 -35q60 0 122 41q6 27 6 60q0 55 -39 96q-39 39 -93 39q-57 0 -93 -33zM448 197q-90 -140 -228 -219l-70 78q205 126 241 281q-54 -32 -123 -32q-94 0 -158 64q-65 63 -65 155q0 88 66 153q69 69 175 69q108 0 180 -77
q71 -77 71 -196q0 -136 -89 -276z" />
    <glyph glyph-name="colon" unicode=":" horiz-adv-x="217" 
d="M177 131h-137v128h137v-128zM177 483h-137v128h137v-128z" />
    <glyph glyph-name="semicolon" unicode=";" horiz-adv-x="257" 
d="M197 500h-137v128h137v-128zM60 266h122l-99 -238h-90z" />
    <glyph glyph-name="less" unicode="&#x3c;" horiz-adv-x="598" 
d="M50 414l518 268v-114l-388 -192l388 -202v-114l-518 268v86z" />
    <glyph glyph-name="equal" unicode="=" horiz-adv-x="598" 
d="M40 556h518v-113h-518v113zM40 318h518v-112h-518v112z" />
    <glyph glyph-name="greater" unicode="&#x3e;" horiz-adv-x="598" 
d="M568 328l-518 -268v114l388 202l-388 192v114l518 -268v-86z" />
    <glyph glyph-name="question" unicode="?" horiz-adv-x="436" 
d="M135 253q0 42 22 81t49 76q27 36 49 70t22 67q0 21 -8.5 39.5t-23.5 33.5q-16 14 -38 22t-48 8q-41 0 -81.5 -16.5t-75.5 -42.5l-11 111q38 17 82 28t95 11q43 0 83 -12t71 -35q31 -24 50 -59.5t19 -82.5q0 -31 -11 -58t-27 -52q-17 -25 -36.5 -48.5t-35.5 -46.5
q-17 -23 -28 -47t-11 -49v-52h-107v54zM125 128h127v-118h-127v118z" />
    <glyph glyph-name="at" unicode="@" horiz-adv-x="788" 
d="M362 246q24 0 44 14.5t35 36.5q14 22 22 48t8 50q0 32 -17.5 53t-42.5 21q-26 0 -47.5 -13.5t-36.5 -33.5q-16 -21 -24.5 -46t-8.5 -49q0 -34 18.5 -57.5t49.5 -23.5zM516 550h94q-35 45 -87.5 67.5t-113.5 22.5q-58 0 -106.5 -22t-82.5 -59q-35 -38 -54.5 -88
t-19.5 -107q0 -66 21 -116.5t58 -84.5q36 -35 85.5 -53t107.5 -18q27 0 55 6.5t54 18.5t50 28t43 35h99q-54 -82 -134 -126t-170 -44q-77 0 -144.5 24t-117.5 70q-50 45 -79 111.5t-29 150.5q0 81 29 146.5t79 112.5q49 46 115.5 71.5t141.5 25.5q66 0 126 -21.5t106 -59.5
q46 -39 73.5 -93t27.5 -120q0 -71 -26 -123t-63 -86q-38 -34 -79.5 -51t-71.5 -17q-23 0 -39.5 10t-25.5 32q-20 -19 -45.5 -30t-51.5 -11q-33 0 -61 13t-49 35t-33 51.5t-12 62.5q0 46 15.5 91t44.5 81q28 35 68.5 56.5t90.5 21.5q31 0 56.5 -11t48.5 -37zM654 413
q0 39 -11 72t-30 59l-65 -250q-2 -5 -4.5 -16t-2.5 -22q0 -13 5 -13q19 0 38 13.5t35 37.5q15 23 25 53.5t10 65.5z" />
    <glyph glyph-name="A" unicode="A" horiz-adv-x="806" 
d="M463 732l293 -722h-138q-27 72 -49 130l-18 48t-16 43q-8 19 -12.5 31.5t-4.5 14.5h-259q-1 -2 -5.5 -14.5t-11.5 -31.5t-15.5 -43t-17.5 -48q-21 -58 -48 -130h-111l293 722h120zM478 372q-2 4 -8.5 21.5t-15.5 41.5q-9 23 -19.5 50t-19.5 52q-10 24 -17.5 43.5
t-10.5 27.5q-3 -8 -10.5 -27t-17.5 -43q-10 -25 -20.5 -52.5t-19.5 -50.5q-10 -24 -16.5 -41t-8.5 -22h184z" />
    <glyph glyph-name="B" unicode="B" horiz-adv-x="605" 
d="M519 369q53 -53 53 -131q0 -62 -38 -115q-37 -52 -94 -79q-51 -24 -120 -30q-17 -2 -47.5 -3t-75.5 -1h-137v719h214q105 0 168 -43q62 -45 62 -120q0 -87 -94 -137q69 -18 109 -60zM184 451h27q32 0 62 3t51 14q28 14 36 36.5t8 44.5q0 24 -8.5 40.5t-22.5 27.5
q-18 14 -41 18t-52 3q-16 1 -29 1h-31v-188zM386 136q19 13 35 38t17 60q1 28 -12.5 54t-43.5 45q-26 17 -59.5 24t-70.5 5h-68v-250q3 -1 16.5 -1h29.5h40q39 -2 66 3.5t50 21.5z" />
    <glyph glyph-name="C" unicode="C" horiz-adv-x="708" 
d="M663 45q-10 -5 -28.5 -13t-44.5 -16q-27 -7 -61.5 -12.5t-75.5 -5.5q-191 0 -298 100q-110 99 -110 268q0 162 105 264q52 52 122.5 81t157.5 34q53 3 93.5 -3.5t68.5 -14.5q33 -11 57 -24v-114v-7q-23 15 -45 27t-46 21q-25 9 -53.5 13.5t-63.5 3.5q-63 -2 -112 -26
t-83 -59q-66 -69 -66 -180q0 -116 70 -197q38 -43 84 -63.5t104 -22.5q45 -2 82 4t66 15q28 9 47 19.5t30 17.5v-110z" />
    <glyph glyph-name="D" unicode="D" horiz-adv-x="729" 
d="M575 634q109 -95 109 -258q0 -162 -114 -264t-295 -102h-215v719h221q185 0 294 -95zM458 166q45 35 67 91.5t22 120.5q0 57 -18.5 105t-53.5 83q-71 69 -204 69h-89v-533h70q127 0 206 64z" />
    <glyph glyph-name="E" unicode="E" horiz-adv-x="582" 
d="M185 110h337v-100h-462v718h417v-96h-292v-186h230v-95h-230v-241z" />
    <glyph glyph-name="F" unicode="F" horiz-adv-x="537" 
d="M60 10v718h417v-96h-292v-185h230v-94h-109h-41.5t-37.5 1h-28h-14v-344h-125z" />
    <glyph glyph-name="G" unicode="G" horiz-adv-x="785" 
d="M725 380v-351q-58 -10 -115 -19.5t-114 -11.5q-84 -3 -164 18.5t-143 66.5q-63 44 -102.5 112t-41.5 158q-2 97 34 171.5t98 124.5q61 50 143 74t171 21q51 -2 90.5 -10.5t66.5 -18.5q32 -11 55 -25v-129h-2q-2 0 -6.5 6t-5.5 7q-10 9 -20 16.5t-21 14.5q-25 14 -54 23.5
t-59 15.5q-44 9 -88.5 6.5t-84.5 -17.5q-41 -15 -76.5 -41.5t-60.5 -64.5q-27 -40 -38 -88t-6 -96q4 -48 23.5 -93t53.5 -79q89 -83 208 -83q36 0 70.5 5t68.5 14v273h120z" />
    <glyph glyph-name="H" unicode="H" horiz-adv-x="740" 
d="M556 728h124v-718h-124v345h-372l-1 -345h-123v718h123l1 -282h372v282v0z" />
    <glyph glyph-name="I" unicode="I" horiz-adv-x="284" 
d="M80 728h124v-718h-124v718z" />
    <glyph glyph-name="J" unicode="J" horiz-adv-x="382" 
d="M322 213q0 -54 -7.5 -88t-18.5 -51q-28 -43 -69 -63t-88 -21q-16 -1 -47 2t-72 17v95q15 -5 31 -9q14 -3 29 -6t27 -2q36 1 56 15t28 35q5 11 7 31.5t2 53.5v506h122v-515z" />
    <glyph glyph-name="K" unicode="K" horiz-adv-x="700" 
d="M564 125q20 -20 39.5 -37.5t35.5 -31.5q18 -16 35 -29l24 -17h-102q-92 0 -126 48l-286 318v-366h-124v718h124v-342l274 342h123l-15 -15q-68 -84 -123 -152q-23 -29 -45.5 -57t-40.5 -50t-30 -36.5t-13 -16.5q6 -7 20 -22.5t33 -36.5q18 -21 40 -45l44 -48
q51 -57 113 -124z" />
    <glyph glyph-name="L" unicode="L" horiz-adv-x="582" 
d="M60 730h125v-620h336l1 -100h-462v720v0z" />
    <glyph glyph-name="M" unicode="M" horiz-adv-x="944" 
d="M797 10l-69 582l-226 -582h-57l-248 579l-75 -579h-102l105 720h140l217 -506l200 506h142l100 -720h-127v0z" />
    <glyph glyph-name="N" unicode="N" horiz-adv-x="738" 
d="M583 729v0h87h8v-720l-103 1l-421 537v-537h-94v719h108l415 -528v528v0z" />
    <glyph glyph-name="O" unicode="O" horiz-adv-x="852" 
d="M435 744q161 -2 268 -112q104 -106 104 -254q0 -81 -28 -149t-85 -122q-56 -55 -123.5 -82t-145.5 -27q-159 0 -267 105q-113 106 -113 270q0 155 114 263q111 108 276 108zM430 91q111 0 179 75q66 73 66 191q0 60 -16 110.5t-49 92.5q-71 91 -183 91q-115 0 -182 -75
q-69 -77 -69 -194q0 -115 69 -200q73 -91 185 -91z" />
    <glyph glyph-name="P" unicode="P" horiz-adv-x="597" 
d="M478 679q18 -14 32 -33.5t24 -42.5q9 -23 13.5 -47.5t4.5 -47.5t-5.5 -48t-16.5 -49t-26.5 -44.5t-35.5 -33.5q-21 -15 -46 -26t-58 -18q-34 -8 -79 -11.5t-106 -3.5q-17 0 -23 15t-6 32q0 20 5 47q58 -1 99.5 0t77.5 12q15 4 31.5 14t30.5 26t23.5 37.5t9.5 49.5
q0 26 -10 49t-29 41q-19 17 -47.5 27.5t-64.5 10.5h-93l1 -625h-124v718h246q55 0 96.5 -12.5t75.5 -36.5z" />
    <glyph glyph-name="Q" unicode="Q" horiz-adv-x="852" 
d="M434 744q161 0 269 -110q51 -54 77.5 -117.5t26.5 -138.5q0 -163 -113 -271q-112 -109 -270 -109q-157 0 -267 105q-112 106 -112 270q0 155 113 264q57 55 126 81.5t150 25.5zM429 91q111 0 180 75q66 73 66 191q0 60 -16 111t-49 93q-72 91 -183 91q-115 0 -182 -75
q-35 -38 -52.5 -86.5t-17.5 -107.5q0 -115 69 -200q36 -46 83 -69t102 -23zM624 140l142 -141q39 -37 75 -63.5t65 -43.5q33 -20 63 -34l-116 -1q-25 0 -49 4q-20 3 -43.5 11t-41.5 24l-192 168z" />
    <glyph glyph-name="R" unicode="R" horiz-adv-x="697" 
d="M521 172q35 -45 75 -84.5t78 -65.5l21 -14h-102q-85 0 -130 56l-251 325l13 2q176 25 178 144q0 51 -36 77q-7 5 -20 10t-34 9q-22 4 -53 6t-75 2v-472q0 -65 0.5 -96.5t2.5 -49.5v-11h-128v718h239q107 0 169 -51q59 -50 59 -129q0 -70 -54 -127q-25 -26 -53.5 -40.5
t-47.5 -21.5q6 -7 15 -19t21 -26q11 -15 24 -31l26 -32q29 -37 63 -79z" />
    <glyph glyph-name="S" unicode="S" horiz-adv-x="596" 
d="M453 374q98 -62 98 -150q0 -98 -76 -161q-40 -32 -94.5 -48.5t-120.5 -16.5q-104 0 -192 32l-25 10l2 116l14 -8q97 -55 213 -57q51 0 94 26q50 28 50 76q0 62 -90 109q-53 27 -87 44l-54 27q-20 9 -28.5 12.5l-8.5 3.5q-98 63 -98 163q0 97 89 148q73 43 185 43
q85 0 160 -24l5 -1v-126l-12 10q-25 19 -68.5 31.5t-90.5 13.5q-58 3 -90 -17q-42 -20 -42 -67q0 -56 90 -102q30 -16 61.5 -31.5t57.5 -27.5q25 -13 41.5 -20.5z" />
    <glyph glyph-name="T" unicode="T" horiz-adv-x="629" 
d="M50 728h529v-95h-97h-36t-33 1h-25h-13v-31.5v-72.5q-1 -45 -1 -100.5v-113.5v-306h-124v624h-200v94z" />
    <glyph glyph-name="U" unicode="U" horiz-adv-x="692" 
d="M632 729v-443q0 -79 -6 -112q-12 -61 -50 -104q-71 -77 -200 -77h-60q-129 0 -200 77q-38 43 -50 104q-6 33 -6 112v443h125q-1 -123 -1 -221v-222q0 -203 163 -203h-2q61 0 99 13.5t59 39.5q21 25 28 63t7 87v443h86h8z" />
    <glyph glyph-name="V" unicode="V" horiz-adv-x="730" 
d="M695 728l-278 -718h-113l-269 718h142q53 -146 96 -266q18 -51 36 -101t33 -91t25 -69t13 -35q3 7 13 35t25 69t33 91t37 101q44 120 98 266h109z" />
    <glyph glyph-name="W" unicode="W" horiz-adv-x="1040" 
d="M1020 730l-221 -720h-111q-45 136 -80 244q-15 46 -29.5 90.5t-25.5 79.5q-12 35 -19.5 57.5t-7.5 24.5q-1 -2 -8 -24.5t-17 -57.5q-11 -35 -25 -79.5t-28 -90.5q-33 -108 -75 -244h-105l-248 720h131l178 -557l168 557l78 -1l178 -552l168 553h99z" />
    <glyph glyph-name="X" unicode="X" horiz-adv-x="796" 
d="M642 154q29 -45 51.5 -72.5t37.5 -43.5q18 -18 30 -28h-104q-38 -1 -62 15t-38 36l-166 251l-225 -302h-131l295 382l-233 336h149l169 -243l175 243h127h4l-248 -323l169 -251v0z" />
    <glyph glyph-name="Y" unicode="Y" horiz-adv-x="722" 
d="M567 728h120q-75 -112 -134 -201q-25 -38 -49 -74.5t-43 -64.5q-19 -29 -31 -46.5t-12 -18.5v-313h-125v313q0 1 -11.5 18.5t-29.5 46.5q-19 28 -42 64.5t-47 74.5q-56 89 -128 201h143q50 -80 91 -144l34 -54t32 -48q14 -22 23.5 -37t11.5 -19z" />
    <glyph glyph-name="Z" unicode="Z" horiz-adv-x="682" 
d="M647 103v-93h-612l396 627l-333 -1l1 92h530h3l-394 -625h409v0z" />
    <glyph glyph-name="bracketleft" unicode="[" horiz-adv-x="332" 
d="M83 838h218v-95h-97v-700h97v-95h-218v890z" />
    <glyph glyph-name="backslash" unicode="\" horiz-adv-x="1060" 
d="M499 386q-17 -56 -37.5 -121t-37.5 -122q-20 -67 -41 -133h-105l-248 720h131l178 -557l62 205zM697 382l66 -205l168 553h99l-221 -720h-111q-22 66 -43 132q-19 57 -40 121.5t-39 120.5zM581 404q-17 51 -28 85.5t-12 36.5q-1 -2 -11 -35.5t-26 -84.5l-98 -8l106 332
l78 -1l112 -327zM20 414h1020v-94h-1020v94z" />
    <glyph glyph-name="bracketright" unicode="]" horiz-adv-x="330" 
d="M249 -52h-218v95h97v700h-97v95h218v-890z" />
    <glyph glyph-name="asciicircum" unicode="^" horiz-adv-x="560" 
d="M226 783h108l181 -342h-136l-99 209l-99 -209h-136z" />
    <glyph glyph-name="underscore" unicode="_" horiz-adv-x="550" 
d="M20 80h510v-112h-510v112z" />
    <glyph glyph-name="grave" unicode="`" horiz-adv-x="278" 
d="M221 660h-92l-129 148h141z" />
    <glyph glyph-name="a" unicode="a" horiz-adv-x="543" 
d="M118 513q21 6 44 10q20 4 44 7t49 3q104 2 162 -39t58 -126v-159q-1 -46 2.5 -79.5t9.5 -57.5q5 -24 11 -38.5t10 -23.5h-122q-5 9 -6.5 12t-1.5 4q-1 2 -1.5 2.5t-2.5 4.5q-45 -22 -80.5 -25.5t-60.5 -3.5q-82 0 -137 47q-31 27 -45 63t-6 77q7 36 27.5 60.5t47.5 41.5
q27 16 57.5 25t59.5 15q18 4 35.5 6t35.5 4q20 2 28.5 2.5t17.5 8.5q5 5 6 13t1 30q0 15 -9 26.5t-23 18.5q-9 5 -31 7t-40 2q-26 0 -50.5 -3.5t-44.5 -8.5q-23 -5 -44 -12zM274 91q37 0 58 10t29 16v155h-40t-53 -5q-27 -5 -44 -12.5t-28 -17.5q-9 -9 -20 -26t-11 -43
q0 -41 27 -59t82 -18z" />
    <glyph glyph-name="b" unicode="b" horiz-adv-x="627" 
d="M514 446q16 -17 30 -40.5t24 -51.5q10 -29 14 -62t0 -69q-8 -59 -36.5 -102t-72.5 -72q-44 -28 -99.5 -41.5t-115.5 -13.5q-9 0 -29 1.5t-46 4.5q-27 4 -58.5 10.5t-64.5 16.5v701h111v-125v-47t1 -41v-31.5v-14.5q69 55 156 55q112 0 186 -78zM318 438q-93 0 -130 -73
q-13 -24 -16 -94v-173q50 -19 96 -19q76 0 130 39t64 122q0 4 1 8q0 4 0.5 9.5t0.5 12.5q0 26 -10.5 60.5t-31.5 58.5q-43 49 -104 49z" />
    <glyph glyph-name="c" unicode="c" horiz-adv-x="558" 
d="M498 26q-6 -2 -20 -6.5t-34 -9.5q-20 -4 -46 -7.5t-55 -2.5q-63 2 -115 18t-95 52q-88 74 -88 182q0 136 95 211q85 69 218 69q23 0 46.5 -4t43.5 -9q23 -5 44 -12v-110q-20 13 -44 24q-20 9 -48 16.5t-60 7.5q-76 0 -126 -48q-46 -45 -46 -118q0 -43 13 -81.5t45 -65.5
q32 -28 71 -35.5t84 -9.5q16 -1 32.5 2.5t31.5 8.5t28.5 10.5t24.5 10.5v-93z" />
    <glyph glyph-name="d" unicode="d" horiz-adv-x="627" 
d="M45 223q-5 36 -0.5 69t14.5 62q10 28 24 51.5t30 40.5q73 78 186 78q87 0 156 -55v259h112v-701q-33 -10 -64.5 -16.5t-57.5 -10.5q-27 -3 -47 -4.5t-29 -1.5q-60 0 -115.5 13.5t-99.5 41.5q-44 29 -73 72t-36 102zM439 365q-37 73 -130 73q-61 0 -104 -49
q-21 -24 -31.5 -58.5t-10.5 -60.5v-12.5t1 -9.5q0 -4 1 -8q10 -83 64 -122t130 -39q46 0 96 19v173q-3 70 -16 94z" />
    <glyph glyph-name="e" unicode="e" horiz-adv-x="614" 
d="M553 51q-26 -15 -57 -26q-26 -10 -61.5 -18t-77.5 -7q-69 2 -125 18.5t-101 54.5q-45 39 -65.5 89t-20.5 107q0 116 77 190q76 75 198 75q111 0 182 -72q33 -34 50 -84t17 -100q0 -2 -0.5 -4.5t-0.5 -5.5v-7h-392q-1 -42 10.5 -71.5t39.5 -55.5q29 -26 62.5 -34t78.5 -8
q40 -1 74.5 10t59.5 25q29 16 53 36zM440 338q-5 24 -15.5 44t-26.5 35t-38 23.5t-49 7.5q-23 -2 -40.5 -7.5t-35.5 -19.5q-20 -14 -33.5 -35.5t-19.5 -47.5h258z" />
    <glyph glyph-name="f" unicode="f" horiz-adv-x="464" 
d="M357 746q14 0 26.5 -0.5t23.5 -0.5h24l1 -88q-18 -1 -35 -1h-58q-11 0 -26.5 -4.5t-26.5 -16.5q-7 -9 -12 -19.5t-5 -34.5v-62h145v-88h-145v-421h-113l-1 421h-105v88h105v17q0 29 1.5 47.5t3.5 29.5q4 17 11.5 36.5t21.5 36.5q32 36 71 48t93 12z" />
    <glyph glyph-name="g" unicode="g" horiz-adv-x="614" 
d="M29 30q0 37 25 68t70 54q-5 8 -6.5 24.5t-1.5 24.5q0 20 35 38q5 2 9 4t8.5 3.5t9.5 3.5q-42 14 -74 47q-39 43 -39 97q0 77 69 125q60 39 144 39h300l-39 -74h-30q-14 0 -32 -0.5t-38 -0.5q51 -43 51 -104q0 -75 -72 -115q-55 -30 -139 -38q-33 -2 -33 -17l1 -3t6 -6
q5 -4 15.5 -6.5t28.5 -2.5h7q64 0 115 -7.5t87 -25.5q35 -19 54 -50t19 -78q0 -34 -21.5 -63.5t-58.5 -51.5t-87.5 -34.5t-107.5 -12.5q-129 0 -202 40.5t-73 121.5zM140 33q0 -43 45.5 -65.5t120.5 -22.5q34 0 64 5.5t52 16.5q22 12 35 28.5t13 37.5q0 46 -44.5 66.5
t-119.5 20.5q-31 0 -60.5 -5t-52.5 -16q-24 -11 -38.5 -27.5t-14.5 -38.5zM175 407q0 -41 34 -73q31 -31 78 -31q41 0 67 22q26 24 26 61q0 42 -32 69q-34 28 -81 28q-40 0 -66 -20t-26 -56z" />
    <glyph glyph-name="h" unicode="h" horiz-adv-x="574" 
d="M400 298q0 146 -111 146q-64 0 -89 -36q-25 -31 -25 -104l1 -294h-116v718h115v-252q23 23 60 38q42 16 89 16q190 0 190 -200v-320h-115l1 288v0z" />
    <glyph glyph-name="i" unicode="i" horiz-adv-x="274" 
d="M142 572q-34 0 -55 22q-22 22 -22 56q0 30 23 50t54 20t50 -22q21 -21 21 -51q0 -31 -21 -53q-19 -22 -50 -22zM194 10h-114v499h114v-499z" />
    <glyph glyph-name="j" unicode="j" horiz-adv-x="271" 
d="M155 720q30 0 50 -23q22 -22 22 -52q0 -29 -22 -51q-21 -22 -51 -22q-32 0 -53 22t-21 55q0 30 23 51q22 20 52 20zM211 86q0 -85 -14 -124q-17 -48 -52.5 -70t-91.5 -28q-15 -2 -28.5 -2.5t-23.5 0.5q-12 1 -22 2v89h37q35 0 49 13t26 34q6 10 7.5 37.5t1.5 59.5l1 412
h110v-423z" />
    <glyph glyph-name="k" unicode="k" horiz-adv-x="560" 
d="M171 726l-1 -716h-110v716h111zM560 10h-109q-69 0 -115 63l-162 219l194 226h117q-50 -57 -90 -104q-17 -20 -33.5 -39t-29.5 -34q-14 -16 -22.5 -26.5t-9.5 -11.5q4 -5 13.5 -17.5t22.5 -28.5q13 -17 28.5 -37t31.5 -40q37 -47 82 -103q31 -36 60 -53z" />
    <glyph glyph-name="l" unicode="l" horiz-adv-x="274" 
d="M194 728v-718h-114v718h114v0z" />
    <glyph glyph-name="m" unicode="m" horiz-adv-x="915" 
d="M742 273q0 87 -29 129t-83 42q-35 0 -57 -20.5t-35 -48.5t-18 -58t-5 -49l-1 -258h-113v273q0 77 -35 121q-15 20 -32 29.5t-42 9.5q-34 0 -57 -16.5t-36 -41.5q-14 -26 -19.5 -55.5t-5.5 -56.5v-263h-114v506h114v-57q54 71 144 71q107 0 167 -89q68 89 171 89
q57 0 94 -17t62 -48q25 -30 34.5 -69t9.5 -96l-1 -290h-113v263v0z" />
    <glyph glyph-name="n" unicode="n" horiz-adv-x="573" 
d="M399 10l1 269q0 86 -26 124q-14 20 -34.5 30.5t-53.5 10.5q-27 0 -48 -12.5t-35 -32.5q-15 -21 -22 -47t-7 -54v-288h-114v507h114v-57q59 70 143 70q115 0 168 -77q28 -40 28 -163v-280h-114z" />
    <glyph glyph-name="o" unicode="o" horiz-adv-x="654" 
d="M525 78q-86 -78 -202 -78t-197 75q-81 73 -81 189q0 121 87 198q82 74 204 74q109 0 183 -66q90 -78 90 -197q0 -117 -84 -195zM211 402q-44 -49 -44 -119q0 -79 42 -134q46 -63 119 -63q69 0 114 48q44 47 44 117q0 82 -40 137q-45 61 -122 61q-69 0 -113 -47z" />
    <glyph glyph-name="p" unicode="p" horiz-adv-x="635" 
d="M259 556q82 0 144.5 -20t103.5 -54t62 -78t21 -93q0 -50 -21 -89.5t-58 -66.5q-37 -28 -86 -44t-105 -17q-53 -2 -90 6.5t-54 14.5v-170v-77h-116v655q33 10 64.5 16.5t58.5 10.5q27 3 47 4.5t29 1.5zM283 182q37 -1 70.5 9t58.5 30q25 19 40 47t15 64q0 32 -15 57.5
t-40 43.5q-26 17 -59 26.5t-69 10.5q-28 1 -54.5 -4t-54.5 -13v-245q15 -8 41 -16.5t67 -9.5z" />
    <glyph glyph-name="q" unicode="q" horiz-adv-x="635" 
d="M376 556q9 0 29 -1.5t47 -4.5q27 -4 58.5 -10.5t64.5 -16.5v-655h-116v77q0 35 -0.5 79t0.5 91q-17 -6 -54 -14.5t-90 -6.5q-56 1 -105 17t-86 44q-37 27 -58 66.5t-21 89.5q0 49 21 93t62 78t103 54t145 20zM352 182q41 1 67 9.5t41 16.5v245q-28 8 -54.5 13t-54.5 4
q-36 -1 -69 -10.5t-58 -26.5q-26 -18 -41 -43.5t-15 -57.5q0 -36 15 -64t40 -47q25 -20 58.5 -30t70.5 -9z" />
    <glyph glyph-name="r" unicode="r" horiz-adv-x="392" 
d="M342 424h-13h-15.5t-21.5 1q-29 0 -52 -7t-39 -27q-17 -22 -21.5 -47.5t-4.5 -65.5l-1 -268h-114v506h115v-58q17 26 41 43q18 12 34 16.5t43 4.5h49v-98z" />
    <glyph glyph-name="s" unicode="s" horiz-adv-x="506" 
d="M382 293q79 -44 79 -120q0 -79 -71 -127q-69 -48 -176 -48q-78 0 -142 27l-27 11v100q12 -6 32 -14t45 -15t54 -12t59 -5q42 0 71 13q38 16 38 49q0 36 -69 63q-39 15 -69 26q-13 5 -25 9.5t-22 8.5l-22 8q-78 42 -78 116q0 82 75 121q56 29 142 29q35 0 65 -3t56 -11
l5 -1v-101q-17 8 -38 15q-18 5 -43.5 10t-56.5 5q-36 0 -63.5 -10.5t-27.5 -33.5q0 -32 69 -57q64 -23 98.5 -36t41.5 -17z" />
    <glyph glyph-name="t" unicode="t" horiz-adv-x="447" 
d="M352 88q15 0 25 -0.5t16 -0.5h11l-1 -85q-11 -2 -26 -3q-13 -1 -31.5 -1t-42.5 2q-56 5 -91.5 27.5t-52.5 70.5q-14 40 -14 124v216h-95v87h96v159h113v-159h138v-88l-138 1v-207q0 -33 1.5 -57t5.5 -35q10 -28 31 -39t55 -12z" />
    <glyph glyph-name="u" unicode="u" horiz-adv-x="572" 
d="M399 10v56q-13 -16 -26 -29t-27 -21q-37 -20 -94 -20q-189 0 -192 221v298h113v-271q0 -153 112 -153q49 0 82 37q32 37 32 97v290h113v-505h-113z" />
    <glyph glyph-name="v" unicode="v" horiz-adv-x="640" 
d="M504 515h101l-239 -505h-93l-238 505l126 1l168 -376l175 375v0z" />
    <glyph glyph-name="w" unicode="w" horiz-adv-x="884" 
d="M864 514l-208 -505h-88q-33 87 -60 158q-12 30 -23 60t-20 55q-10 25 -16.5 43t-8.5 24q-3 -6 -10 -24t-16 -43l-22 -55l-24 -60q-28 -71 -62 -158h-89l-197 505l116 1l136 -356l138 355h86l130 -354l144 354h94z" />
    <glyph glyph-name="x" unicode="x" horiz-adv-x="664" 
d="M544 101q20 -26 36 -43t27 -28q12 -12 22 -20h-114q-39 0 -74 46l-111 144l-163 -190h-132l239 265l-191 243h142l125 -164l139 164h125l-206 -238l136 -179v0z" />
    <glyph glyph-name="y" unicode="y" horiz-adv-x="556" 
d="M526 554l-187 -471q-21 -51 -45 -100t-59 -76q-26 -20 -53.5 -28.5t-70.5 -10.5q-10 0 -10.5 -0.5t2.5 -0.5h7t3 0q-1 1 -9.5 1h-30.5l-61 96h77q10 0 24 1.5t28 5.5t27.5 11t23.5 17q16 17 31.5 50t26.5 64l-220 441h121l154 -312l114 312h107z" />
    <glyph glyph-name="z" unicode="z" horiz-adv-x="584" 
d="M243 96l306 1v-86l-514 -1l304 420l-260 1v87h456l-292 -422v0z" />
    <glyph glyph-name="braceleft" unicode="{" horiz-adv-x="330" 
d="M310 741h-53q-17 0 -23 -18.5t-6 -39.5v-177q0 -45 -21 -72.5t-44 -42.5q12 -6 23.5 -15.5t20.5 -23.5q9 -15 15 -34.5t6 -44.5l1 -169q0 -21 6 -39.5t23 -18.5h53v-95h-77q-20 0 -42 8.5t-41 25.5t-31 42t-12 58v173q0 20 -8 35.5t-19 27.5q-12 11 -26.5 17t-29.5 7v92
q15 1 29.5 6.5t26.5 16.5q11 10 19 25t8 34v183q0 33 11.5 58t30.5 42t41 25.5t42 8.5h77v-95z" />
    <glyph glyph-name="bar" unicode="|" horiz-adv-x="314" 
d="M214 798v-818h-114v818h114v0z" />
    <glyph glyph-name="braceright" unicode="}" horiz-adv-x="330" 
d="M21 836h77q20 0 42 -8.5t41 -25.5t31 -42t12 -58v-183q0 -19 7.5 -34t19.5 -25q11 -11 25.5 -16.5t30.5 -6.5v-92q-16 -1 -30.5 -7t-25.5 -17q-12 -12 -19.5 -27.5t-7.5 -35.5v-173q0 -33 -12 -58t-31 -42t-41 -25.5t-42 -8.5h-77v95h53q17 0 23 18.5t6 39.5l1 169
q0 25 5.5 44.5t14.5 34.5q9 14 20.5 23.5t23.5 15.5q-23 15 -44 42.5t-21 72.5v177q0 21 -6 39.5t-23 18.5h-53v95z" />
    <glyph glyph-name="asciitilde" unicode="~" horiz-adv-x="593" 
d="M538 365q-9 -18 -22 -35t-30 -30q-18 -14 -39.5 -22t-48.5 -8q-29 0 -56.5 9t-56.5 22q-21 9 -42.5 21.5t-47.5 12.5q-12 0 -25 -7t-25 -19t-22 -27.5t-16 -31.5l-52 97q9 18 22 34.5t31 30.5q17 13 39 21t49 8q25 0 56 -10t57 -21q23 -10 43.5 -21.5t46.5 -11.5
q12 0 25.5 7t25.5 19t22 27t15 31z" />
    <glyph glyph-name="uni007F" horiz-adv-x="1000" 
 />
    <glyph glyph-name="uni00A0" unicode="&#xa0;" horiz-adv-x="280" 
d="M0 58z" />
    <glyph glyph-name="exclamdown" unicode="&#xa1;" horiz-adv-x="950" 
d="M436 588h80l13 -277v-386h-109v386zM537 672h-124v129h124v-129z" />
    <glyph glyph-name="currency" unicode="&#xa4;" horiz-adv-x="950" 
d="M475 596q-47 0 -88 -19t-71 -52q-31 -33 -48.5 -76t-17.5 -91q0 -44 16.5 -86t46.5 -76t71 -54.5t91 -20.5q47 0 88 19t72 52q30 32 47.5 75t17.5 91q0 43 -16.5 86t-46.5 77q-30 33 -71.5 54t-90.5 21zM177 -20l-63 67l108 112q-28 42 -46 93.5t-18 105.5q0 117 63 201
q-26 26 -53.5 56t-53.5 57l63 67l108 -114q81 65 190 65q108 0 189 -63q12 12 26 26.5t29 29.5q14 15 28 29.5t25 26.5l63 -67l-106 -112q34 -42 48 -92t14 -110q0 -58 -14.5 -108t-47.5 -94q24 -25 53.5 -54t52.5 -55l-63 -67l-105 110q-42 -33 -88.5 -48.5t-103.5 -15.5
q-109 0 -193 66z" />
    <glyph glyph-name="section" unicode="&#xa7;" horiz-adv-x="950" 
d="M237 771q76 2 115 -58q10 -16 16 -31t6 -26q0 -28 -19 -41q-22 -14 -44.5 -14t-39.5 30q-9 16 -12.5 32t-3.5 30q0 -1 -24 -1q-14 1 -19.5 -11.5t-6.5 -35.5q-1 -35 22 -70.5t66 -71.5q53 -44 80 -96.5t21 -108.5q-4 -32 -19 -49.5t-33 -26.5q12 -21 23 -52.5t11 -58.5
q0 -23 -4.5 -47t-16.5 -48q-38 -71 -115 -69q-35 0 -64.5 13.5t-49.5 36.5q-43 51 -21 96q23 49 77 27q29 -14 35 -34t-3 -47q4 -2 8.5 -4t9.5 -2q18 0 27.5 16t9.5 33q0 29 -15.5 59t-37.5 50q-12 12 -25 25.5t-25 28.5q-13 14 -25 28t-21 26q-14 20 -22 43.5t-8 45.5
q0 33 14 63t49 47q-17 23 -28 53.5t-13 59.5q-3 77 32.5 117.5t92.5 42.5zM278 358q-16 26 -36.5 44t-37.5 20q-14 3 -17 -5.5t0 -20.5q2 -12 8 -24.5t11 -18.5q23 -31 46 -47.5t34 -17.5q13 0 13 17q0 11 -7.5 27.5t-13.5 25.5z" />
    <glyph glyph-name="dieresis" unicode="&#xa8;" horiz-adv-x="950" 
d="M781 864v-140h-138v140h138zM307 864v-140h-138v140h138z" />
    <glyph glyph-name="ordfeminine" unicode="&#xaa;" horiz-adv-x="950" 
d="M777 -21h-589v93h589v-93zM694 259q0 -11 2.5 -26t5.5 -30t6.5 -28.5t5.5 -20.5h-101q-3 11 -6 23t-7 25q-8 -8 -19.5 -14.5t-22.5 -12.5q-29 -16 -60.5 -26.5t-63.5 -12.5q-34 -2 -69 5t-64 25q-30 18 -49.5 46.5t-22.5 70.5q-2 36 7 65t27 51q17 22 41.5 37.5
t53.5 24.5q28 8 56.5 12.5t57.5 9.5q28 4 57 9.5t58 16.5q2 2 4.5 8t2.5 12q0 24 -10.5 41t-27.5 29q-17 11 -38 16t-43 5q-63 0 -93 -29t-32 -93h-98q0 49 15 89.5t44 69.5t70 44.5t94 15.5q44 0 83.5 -12.5t69.5 -36.5q30 -25 48 -61.5t18 -83.5v-264zM594 408
q-26 -9 -55 -14t-58 -8q-20 -3 -47 -6t-51 -12t-40 -25.5t-16 -45.5q1 -33 32 -50.5t77 -13.5q23 2 53 13t54 28t37.5 36t13.5 36v62z" />
    <glyph glyph-name="uni00AD" unicode="&#xad;" horiz-adv-x="950" 
d="M739 404v-92h-529v92h529z" />
    <glyph glyph-name="registered" unicode="&#xae;" horiz-adv-x="950" 
d="M747 828q88 0 132 -44t44 -122v-590q0 -36 -10.5 -69t-30.5 -58q-21 -25 -51.5 -40.5t-70.5 -16.5h-571q-34 0 -63.5 10t-51.5 32q-22 23 -34.5 57.5t-12.5 84.5v590q0 78 42.5 122t133.5 44h544zM762 -25q35 0 55.5 23t20.5 62v599q0 34 -17.5 58t-61.5 24h-568
q-44 0 -61.5 -24t-17.5 -58v-599q0 -36 19 -60.5t57 -24.5h574zM794 295l-21 -275h-610v104q0 48 31 90t77 77q45 35 95.5 62t89.5 45q15 6 32.5 16t32.5 24q14 13 23.5 29.5t9.5 35.5q0 17 -8.5 28.5t-22.5 18.5t-31 10t-34 3q-17 1 -32.5 -2.5t-27.5 -8.5q5 -12 7.5 -25
t2.5 -26q0 -22 -7 -42.5t-21 -36.5t-34 -26t-47 -10q-31 0 -53.5 9.5t-37.5 26.5q-15 16 -22 39t-7 49q0 37 20 71.5t64 65.5q42 30 90.5 44t101.5 14q180 0 255 -60q37 -31 56.5 -66.5t19.5 -79.5q0 -51 -21.5 -89.5t-56.5 -66.5q-36 -29 -81.5 -50t-92.5 -37
q-16 -6 -26.5 -9t-19.5 -6t-17.5 -6.5t-20.5 -8.5h178q10 0 21 9t11 20q0 21 17.5 30.5t40.5 9.5h76z" />
    <glyph glyph-name="degree" unicode="&#xb0;" horiz-adv-x="950" 
d="M14 717q0 30 11 56.5t30 46.5q18 19 43.5 30.5t54.5 11.5t54.5 -11.5t44.5 -30.5q18 -20 29 -46.5t11 -56.5t-11 -56.5t-29 -45.5q-19 -20 -44.5 -31t-54.5 -11t-54.5 11t-43.5 31q-19 19 -30 45.5t-11 56.5zM110 718q0 -20 12.5 -33t30.5 -13t30 13t12 33t-12 33t-30 13
t-30.5 -13t-12.5 -33z" />
    <glyph glyph-name="plusminus" unicode="&#xb1;" horiz-adv-x="950" 
d="M150 480h275v228h99v-228h276v-96h-276v-229h-99v229h-275v96zM150 109h650v-94h-650v94z" />
    <glyph glyph-name="uni00B2" unicode="&#xb2;" horiz-adv-x="950" 
d="M288 626q-11 -7 -21.5 -14.5t-21.5 -15.5h111v-89h-250q1 50 19.5 86.5t66.5 71.5q15 11 26 19t19 13q10 8 17 17.5t7 17.5q0 23 -24 23q-14 0 -20 -17.5t-7 -38.5h-94q2 38 9.5 63t19.5 40q32 41 93 41q30 0 52 -9t36 -24q14 -16 21 -36t7 -42q0 -21 -6 -37.5t-15 -28.5
q-10 -13 -21.5 -22.5t-23.5 -17.5z" />
    <glyph glyph-name="uni00B3" unicode="&#xb3;" horiz-adv-x="950" 
d="M117 715q1 63 35.5 95.5t82.5 32.5q23 0 44 -8.5t37 -22.5q16 -15 25.5 -33.5t9.5 -38.5q0 -21 -5.5 -36t-14.5 -26q12 -14 20 -31t8 -36q0 -48 -33 -79.5t-90 -31.5q-27 0 -50 10t-40 28t-26.5 42.5t-9.5 53.5h83q0 -20 11 -32.5t27 -12.5q17 0 25.5 6.5t8.5 17.5
q0 10 -5.5 19t-19.5 9h-39l1 71h31q15 0 19.5 7.5t4.5 15.5q0 20 -33 20q-17 0 -25.5 -12.5t-10.5 -27.5h-71z" />
    <glyph glyph-name="acute" unicode="&#xb4;" horiz-adv-x="950" 
d="M498 709q-16 -23 -39 -51.5t-48 -57.5q-26 -30 -52.5 -58t-49.5 -50q7 27 17.5 63.5t22.5 75.5q11 38 23 74t23 63q7 16 18 36.5t26 36.5q14 16 33 22t43 -7q23 -12 27 -30.5t-2 -38.5q-6 -21 -18.5 -41.5t-23.5 -36.5z" />
    <glyph glyph-name="paragraph" unicode="&#xb6;" horiz-adv-x="950" 
d="M650 800v-885h-118v793h-34v-793h-118v471q-39 4 -72.5 21.5t-57.5 45.5q-25 27 -38.5 63t-13.5 78q0 40 15 77t42 66q26 28 62 45.5t79 17.5h254z" />
    <glyph glyph-name="periodcentered" unicode="&#xb7;" horiz-adv-x="200" 
d="M169 428v-140h-138v140h138z" />
    <glyph glyph-name="cedilla" unicode="&#xb8;" horiz-adv-x="200" 
d="M3 -25l75 82l-75 78v123l200 -200l-200 -211v128z" />
    <glyph glyph-name="uni00B9" unicode="&#xb9;" horiz-adv-x="950" 
d="M213 513v196h-60v85q20 0 35.5 1.5t20.5 6.5q7 5 9 13t4 27h81v-329h-90z" />
    <glyph glyph-name="ordmasculine" unicode="&#xba;" horiz-adv-x="950" 
d="M713 432q0 -52 -15 -104t-45 -94t-75.5 -68t-105.5 -26t-104.5 24t-74.5 65q-30 40 -45 92.5t-15 109.5q0 49 14.5 100.5t44.5 93.5t75 69t106 27q59 0 104 -24t75 -64t45.5 -92.5t15.5 -108.5zM777 -21h-589v93h589v-93zM619 431q0 31 -8 65.5t-25 63.5
q-18 29 -45.5 47.5t-65.5 18.5q-36 0 -63 -18t-45 -46q-18 -29 -27 -63.5t-9 -67.5q0 -32 7.5 -66.5t24.5 -62.5q17 -29 44 -48t66 -19q37 0 64.5 17.5t45.5 45.5t27 63t9 70z" />
    <glyph glyph-name="onequarter" unicode="&#xbc;" horiz-adv-x="950" 
d="M132 401h686v-76h-686v76zM280 -38v82l211 262h82v-249h65v-95h-65v-77h-100v77h-193zM473 136q-18 -22 -32.5 -39t-33.5 -40h66v79zM438 421v245h-85v93q29 1 51 4t30 8q6 5 11 19t5 37h87v-406h-99z" />
    <glyph glyph-name="onehalf" unicode="&#xbd;" horiz-adv-x="950" 
d="M636 159q0 -48 -23 -78t-54 -52q-32 -22 -64.5 -40.5t-50.5 -44.5h192v-89h-332q1 38 9.5 67.5t22.5 51.5q9 14 19 26t24 23q13 12 31.5 24t44.5 26q13 7 27 15.5t26 19.5q12 10 19.5 23t7.5 29q0 23 -14.5 36.5t-42.5 13.5q-38 0 -51 -24t-14 -62h-98q1 37 11 69.5
t30 56.5t50.5 37.5t72.5 13.5q40 0 69.5 -11.5t49.5 -30.5q19 -20 28.5 -45.5t9.5 -54.5zM438 421v245h-85v93q29 1 51 4t30 8q6 5 11 19t5 37h87v-406h-99zM132 401h686v-76h-686v76z" />
    <glyph glyph-name="threequarters" unicode="&#xbe;" horiz-adv-x="950" 
d="M406 592q0 -17 3 -32.5t11 -27.5t21 -19t33 -7q30 0 47 15.5t17 39.5q0 12 -7.5 20.5t-19.5 13.5t-26.5 7t-27.5 2h-41l2 86h37q12 0 24.5 2t22.5 7t16.5 14t6.5 23q0 17 -13.5 29t-39.5 12q-54 0 -54 -76h-100q0 40 12.5 70.5t33.5 51.5q21 20 49.5 30t60.5 10
q28 0 56 -8.5t50 -24.5q21 -17 34.5 -41t13.5 -55q0 -48 -35 -81q48 -36 48 -92q0 -63 -45.5 -102t-120.5 -39q-36 0 -66 10t-55 33q-47 42 -47 129h99zM280 -38v82l211 262h82v-249h65v-95h-65v-77h-100v77h-193zM473 136q-18 -22 -32.5 -39t-33.5 -40h66v79zM132 401h686
v-76h-686v76z" />
    <glyph glyph-name="questiondown" unicode="&#xbf;" horiz-adv-x="950" 
d="M702 201q2 -57 -10.5 -107.5t-40.5 -88.5q-29 -37 -74 -58.5t-108 -21.5q-42 0 -82 15t-71 42q-32 27 -51.5 65t-19.5 84q0 36 9.5 68.5t26.5 59.5q16 27 38 48t46 35t42 38.5t18 59.5v148h99v-146q0 -62 -26 -106.5t-71 -69.5q-37 -20 -61.5 -52.5t-24.5 -86.5
q0 -28 13 -48t33 -33q19 -13 42.5 -19.5t44.5 -6.5q39 0 64.5 14t40.5 39q15 24 21 57t5 71h97zM537 662h-124v129h124v-129z" />
    <glyph glyph-name="AE" unicode="&#xc6;" horiz-adv-x="950" 
d="M538 181h-327l-82 -203h-104l309 756h544v-92h-422l90 -226h315v-92h-277l103 -254h200v-92h-266zM249 273h251q-17 43 -32 79.5t-30 72.5t-30 73.5t-32 81.5z" />
    <glyph glyph-name="Eth" unicode="&#xd0;" horiz-adv-x="950" 
d="M336 319h262v-92h-262v-157h140q59 0 106 22t80 61q32 38 49.5 90t17.5 113q0 57 -16 109t-47 92q-32 39 -79.5 62t-110.5 23h-140v-323zM236 227h-149v92h149v415h250q78 0 142 -29.5t109 -80.5t70 -120t25 -148q0 -76 -23.5 -144.5t-67.5 -120.5t-108.5 -82.5
t-146.5 -30.5h-250v249z" />
    <glyph glyph-name="multiply" unicode="&#xd7;" horiz-adv-x="950" 
d="M728 -26l-254 265l-243 -259l-67 72l247 255l-234 244l63 73l236 -247l233 243l62 -69l-229 -244l252 -258z" />
    <glyph glyph-name="Oslash" unicode="&#xd8;" horiz-adv-x="950" 
d="M363 91q25 -18 52 -25t59 -7q59 0 101.5 26t69.5 68t40 95.5t13 109.5q0 101 -39 178zM598 615q-48 41 -124 41q-58 0 -100 -26.5t-69 -68.5q-28 -43 -41 -96.5t-13 -106.5q0 -116 46 -196zM237 71q-44 53 -66.5 126t-22.5 161q0 77 20.5 148.5t61.5 126.5
q40 55 101.5 88t142.5 33q51 0 97.5 -14.5t84.5 -41.5l87 134l80 -52l-103 -150q35 -52 57.5 -123t22.5 -149q0 -72 -19 -142.5t-59 -126.5q-40 -57 -101.5 -92t-146.5 -35q-90 0 -166 47l-92 -141l-79 53z" />
    <glyph glyph-name="Thorn" unicode="&#xde;" horiz-adv-x="950" 
d="M480 15q-49 0 -89 15.5t-69 38.5v-100h-99v774h99v-171q32 26 74 43.5t84 17.5q61 0 108.5 -27t80.5 -70q32 -44 49 -99.5t17 -112.5q0 -54 -16 -109.5t-47 -99.5q-32 -44 -80 -72t-112 -28zM475 534q-39 0 -67 -19.5t-46 -49.5q-18 -31 -26.5 -68t-8.5 -73
q0 -34 7.5 -71.5t25.5 -68.5q17 -31 45 -51t70 -20q40 0 68.5 19t46.5 50q18 30 26 67.5t8 74.5q0 34 -8 71t-25 68q-18 31 -46.5 51t-69.5 20z" />
    <glyph glyph-name="germandbls" unicode="&#xdf;" horiz-adv-x="950" 
d="M291 -38v560q0 49 15 87.5t42 65.5t63.5 41t78.5 14q41 0 75 -15t59 -40q25 -26 39 -60t15 -73q2 -45 -13 -88.5t-50 -70.5q45 -23 68.5 -71t23.5 -117q0 -47 -14.5 -87t-42.5 -69q-29 -29 -71.5 -45t-98.5 -16h-74v97h61q62 0 100.5 26.5t38.5 92.5q0 69 -37 98t-103 29
h-59v99h51q22 0 44 7.5t40 21.5q17 13 27.5 32.5t10.5 45.5q0 106 -102 106q-21 0 -38 -8.5t-28 -21.5q-11 -14 -17 -32t-6 -37v-572h-98z" />
    <glyph glyph-name="ae" unicode="&#xe6;" horiz-adv-x="950" 
d="M712 330q-5 56 -30 90.5t-69 34.5q-23 0 -40.5 -10.5t-29.5 -27.5q-13 -18 -21 -40.5t-11 -46.5h201zM408 241q-11 -3 -25 -5t-28 -5q-20 -5 -41.5 -7t-44.5 -9q-30 -9 -44 -31.5t-13 -43.5q2 -31 24 -47t54 -13q15 1 35.5 11.5t39.5 25.5t31.5 32.5t11.5 33.5v58z
M613 -25q-28 1 -53 9.5t-45 23.5q2 -8 3 -11t2 -4h-95q-6 14 -8.5 21.5t-4.5 12.5q-26 -20 -60 -34.5t-66 -16.5q-35 -2 -66 7t-54 28q-24 19 -38.5 47.5t-15.5 66.5q-2 52 15.5 86.5t48.5 56.5q30 22 69.5 34.5t81.5 20.5q13 2 27 4.5t26 7.5t19.5 13.5t7.5 22.5
q0 38 -23.5 63t-64.5 25q-38 0 -62.5 -29t-24.5 -85h-99q-3 47 10 86t39 67q25 27 60.5 42.5t76.5 15.5q48 0 87.5 -20.5t65.5 -60.5q27 34 63 57t78 23q97 0 150 -79.5t53 -242.5h-308q2 -27 9.5 -55t20.5 -51t31.5 -37.5t41.5 -14.5q39 0 61 28t33 73h105
q-10 -36 -26 -72.5t-40 -65.5q-24 -28 -56 -46t-75 -17z" />
    <glyph glyph-name="eth" unicode="&#xf0;" horiz-adv-x="950" 
d="M325 211q6 -29 20 -55t34 -45q19 -20 44 -31.5t54 -11.5t54 11.5t45 31.5q19 19 32.5 45t19.5 55h-303zM446 312l-58 71l109 98q-5 1 -10 1.5t-10 0.5q-57 0 -92 -30.5t-51 -80.5h-106q12 46 34 84.5t54 66.5q31 28 71 43t90 14q28 0 54.5 -5.5t51.5 -18.5
q24 23 49.5 44.5t49.5 44.5l58 -70l-84 -76q35 -42 56.5 -101t21.5 -122q0 -57 -17 -112t-49 -97q-33 -43 -81 -69.5t-110 -26.5q-57 0 -104.5 23t-81.5 62q-35 39 -54 91.5t-19 111.5q0 6 0.5 14.5t2.5 29.5h412q-5 40 -19 72.5t-34 56.5z" />
    <glyph glyph-name="divide" unicode="&#xf7;" horiz-adv-x="950" 
d="M140 407h669v-99h-669v99zM474 697q35 0 58.5 -26t23.5 -61q0 -34 -23.5 -58t-58.5 -24t-58.5 24t-23.5 58q0 35 23.5 61t58.5 26zM475 188q15 0 30 -7t27 -18q11 -12 18 -27.5t7 -31.5q0 -17 -7 -32t-18 -27q-12 -12 -27 -19t-30 -7q-31 0 -56.5 21.5t-25.5 63.5
q0 16 6.5 31.5t17.5 27.5q11 11 26 18t32 7z" />
    <glyph glyph-name="oslash" unicode="&#xf8;" horiz-adv-x="950" 
d="M280 76q-31 42 -47 94t-16 112q0 58 16.5 113t49.5 98q32 42 80 68t111 26q35 0 65.5 -7.5t59.5 -26.5q14 20 29 44t29 44l68 -55l-60 -89q32 -42 49 -97t17 -118q0 -57 -16.5 -112t-48.5 -97q-33 -43 -81 -69t-111 -26q-38 0 -69 8t-60 28q-12 -18 -27 -39.5t-26 -37.5
l-71 53zM400 98q17 -11 35.5 -17.5t38.5 -6.5q39 0 68.5 19t49.5 49q19 30 29 67t10 73q0 38 -5 66.5t-20 54.5zM543 472q-16 8 -34 13.5t-35 5.5q-38 0 -67.5 -19.5t-49.5 -49.5t-30 -67t-10 -73q0 -33 6 -60.5t18 -53.5z" />
    <glyph glyph-name="thorn" unicode="&#xfe;" horiz-adv-x="950" 
d="M240 734h98v-221q34 28 73 41.5t90 13.5q43 0 80 -17t65 -46t44 -68t16 -84v-375h-98v367q0 59 -33.5 93t-84.5 34q-27 0 -54.5 -11t-48.5 -29q-22 -18 -35.5 -41.5t-13.5 -48.5v-364h-98v756z" />
    <glyph glyph-name="dcroat" unicode="&#x111;" horiz-adv-x="950" 
d="M479 398q-35 0 -62.5 -14.5t-46.5 -37.5q-19 -24 -29.5 -54.5t-10.5 -62.5q0 -33 10 -63.5t30 -54.5q19 -24 46.5 -38t62.5 -14q34 0 62 14t48 38q19 23 29.5 54t10.5 64q0 32 -11 62.5t-30 54.5q-20 23 -47.5 37.5t-61.5 14.5zM474 496q45 0 84 -13.5t71 -37.5v87h-317
v93h317v120h100v-120h121v-93h-121v-553h-100v31q-32 -27 -71 -38t-84 -11q-56 0 -102 22.5t-78 59.5t-49.5 85.5t-17.5 100.5q0 56 17 104.5t49 84.5q31 36 77 57t104 21z" />
    <glyph glyph-name="Hbar" unicode="&#x126;" horiz-adv-x="950" 
d="M191 614v120h98v-120h374v120h98v-120h100v-92h-100v-544h-98v351h-374v-351h-98v544h-103v92h103zM289 522v-102h374v102h-374z" />
    <glyph glyph-name="hbar" unicode="&#x127;" horiz-adv-x="950" 
d="M244 606v129h100v-129h312v-91h-312v-82q29 25 69 39t94 14q44 0 82.5 -18.5t66.5 -49.5t43 -71.5t13 -85.5v-282h-100v275q-1 27 -9 51.5t-23 43.5q-15 18 -36.5 29t-48.5 11t-53.5 -13t-47.5 -33q-21 -21 -35 -46t-15 -50v-268h-100v536h-126v91h126z" />
    <glyph glyph-name="dotlessi" unicode="&#x131;" horiz-adv-x="950" 
d="M525 -22h-100v571h100v-571zM525 632h-100v102h100v-102z" />
    <glyph glyph-name="IJ" unicode="&#x132;" horiz-adv-x="950" 
d="M190 735h99v-756h-99v756zM447 256v-88q0 -27 10 -47t27 -34q16 -14 36.5 -21t39.5 -7q20 0 40 7t36 21q16 13 26 33.5t10 47.5v567h99v-562q0 -44 -15.5 -83t-42.5 -68q-28 -28 -67 -44.5t-86 -16.5q-44 0 -83.5 14.5t-68.5 41.5q-30 28 -46.5 67.5t-13.5 89.5v82h99z
" />
    <glyph glyph-name="ij" unicode="&#x133;" horiz-adv-x="950" 
d="M386 37h-100v542h100v-542zM386 662h-100v101h100v-101zM665 670h-100v102h100v-102zM665 -11q0 -23 -5 -45.5t-16 -40.5t-30 -29.5t-47 -11.5h-62v92h35q14 0 19.5 9.5t5.5 27.5v596h100v-598z" />
    <glyph glyph-name="kgreenlandic" unicode="&#x138;" horiz-adv-x="950" 
d="M335 -24h-98v580h98v-243l233 243h122l-222 -245l275 -335h-123l-221 268l-64 -61v-207z" />
    <glyph glyph-name="Ldot" unicode="&#x13f;" horiz-adv-x="950" 
d="M652 365q12 0 23.5 -5.5t21.5 -14.5q9 -10 14.5 -22t5.5 -25t-5.5 -25t-14.5 -21q-10 -9 -21.5 -14.5t-23.5 -5.5q-25 0 -45.5 20t-20.5 46q0 13 5.5 25t15.5 22q9 9 21 14.5t24 5.5zM325 734v-664h412v-92h-510v756h98z" />
    <glyph glyph-name="ldot" unicode="&#x140;" horiz-adv-x="950" 
d="M636 533q65 0 65 -65t-64 -65q-65 0 -65 65q2 65 64 65zM405 734h99v-756h-99v756z" />
    <glyph glyph-name="Lslash" unicode="&#x141;" horiz-adv-x="950" 
d="M222 402v332h98v-247q24 21 48.5 43.5t47.5 42.5l62 -67l-158 -142v-294h412v-92h-510v298q-15 -14 -33.5 -29.5t-32.5 -27.5l-59 74z" />
    <glyph glyph-name="lslash" unicode="&#x142;" horiz-adv-x="950" 
d="M425 262q-29 -26 -62 -55t-62 -54l-63 78l187 162v341h100v-255q32 28 65 57t65 57l62 -78l-192 -168v-369h-100v284z" />
    <glyph glyph-name="napostrophe" unicode="&#x149;" horiz-adv-x="950" 
d="M241 548h98v-37q67 55 163 55q43 0 80.5 -17t65.5 -46q27 -29 43 -68t16 -83v-376h-98v367q0 58 -33.5 92.5t-84.5 34.5q-27 0 -54 -11t-48 -29t-35 -41.5t-15 -48.5v-364h-98v572z" />
    <glyph glyph-name="Eng" unicode="&#x14a;" horiz-adv-x="950" 
d="M401 -12q42 4 76.5 21.5t59.5 44.5q25 28 39 66t14 84q0 37 -8 74.5t-26 67.5t-46 49t-68 19q-37 0 -62 -19t-40 -48q-16 -29 -23 -65t-8 -70v-235h-101v710h101v-221q26 20 59.5 33t71.5 13q61 0 109 -26.5t81 -69.5q32 -44 49 -99.5t17 -112.5q0 -137 -74.5 -217.5
t-220.5 -93.5v95z" />
    <glyph glyph-name="eng" unicode="&#x14b;" horiz-adv-x="950" 
d="M609 341q0 60 -33.5 94t-84.5 34q-25 0 -51.5 -10t-48.5 -27q-23 -17 -37.5 -41t-14.5 -51v-365h-98v571h98v-38q34 28 73.5 42t89.5 14q43 0 80 -16.5t65 -45.5t44 -68t16 -84v-342q0 -24 -5 -49.5t-17 -46.5q-13 -20 -33.5 -33.5t-50.5 -14.5h-80v91h39q23 0 36 15
t13 41v330z" />
    <glyph glyph-name="OE" unicode="&#x152;" horiz-adv-x="950" 
d="M879 679h-320q43 -45 68 -105t31 -139h203v-92h-203q-6 -85 -29 -153t-71 -119h329v-92h-529q-79 0 -136 34.5t-94 90.5t-54.5 127t-17.5 144q0 69 16.5 139.5t52.5 127.5t93.5 93t139.5 36h521v-92zM358 674q-56 0 -94.5 -28.5t-62.5 -71.5q-24 -44 -35 -97t-11 -102
q0 -45 10.5 -97t34.5 -97q23 -45 62 -75t96 -30q55 0 93.5 29t62.5 73t34.5 96.5t10.5 100.5q0 43 -10 95t-33 98q-23 45 -61.5 75.5t-96.5 30.5z" />
    <glyph glyph-name="oe" unicode="&#x153;" horiz-adv-x="950" 
d="M322 455q-30 0 -50 -19t-32 -47q-12 -29 -17 -62t-5 -62t5 -62.5t17 -61.5q12 -29 32 -47.5t50 -18.5t49.5 19.5t31.5 48.5q12 28 17 61t5 61t-5 61t-17 62q-12 28 -31.5 47.5t-49.5 19.5zM730 330q-5 56 -29.5 90.5t-68.5 34.5q-21 0 -38.5 -11t-30.5 -28
q-13 -18 -21.5 -40.5t-11.5 -45.5h200zM322 555q53 0 91 -24t64 -71q26 43 65 69t90 26q95 0 148.5 -79.5t53.5 -242.5h-307q1 -27 8 -55t20 -51t32 -37.5t43 -14.5q37 0 60 28t34 73h105q-10 -36 -26 -72.5t-40 -65.5q-24 -28 -56 -46t-75 -17q-49 1 -88 26.5t-66 70.5
q-27 -46 -65.5 -71.5t-90.5 -25.5q-54 0 -92 28t-62 71q-24 42 -35.5 93t-11.5 98t11 98t36 94q24 43 62 70.5t92 27.5z" />
    <glyph glyph-name="Tbar" unicode="&#x166;" horiz-adv-x="950" 
d="M425 356h-240v92h240v203h-240v92h580v-92h-240v-203h240v-92h-240v-377h-100v377z" />
    <glyph glyph-name="tbar" unicode="&#x167;" horiz-adv-x="950" 
d="M396 377v80h-52v93h52v156h99v-156h62v-93h-62v-80h164v-92h-164v-183q0 -17 3 -24t23 -7h36v-93h-69q-25 0 -42.5 11t-28.5 29t-16 40.5t-5 45.5v181h-153v92h153z" />
    <glyph glyph-name="caron" unicode="&#x2c7;" horiz-adv-x="950" 
d="M475 681l-235 126l56 89l179 -103l176 102l49 -79z" />
    <glyph glyph-name="uni02D0" unicode="&#x2d0;" horiz-adv-x="950" 
d="M230 415l-115 204h225zM226 301l114 -204h-225z" />
    <glyph glyph-name="breve" unicode="&#x2d8;" horiz-adv-x="950" 
d="M318 893q30 -44 73 -72.5t84 -28.5q42 0 85.5 29t75.5 74l82 -62q-47 -64 -110.5 -102.5t-132.5 -38.5t-132.5 38.5t-110.5 102.5z" />
    <glyph glyph-name="dotaccent" unicode="&#x2d9;" horiz-adv-x="950" 
d="M474 602q-110 0 -110 113q0 114 110 114t110 -114q0 -113 -110 -113z" />
    <glyph glyph-name="ring" unicode="&#x2da;" horiz-adv-x="950" 
d="M475 766q-17 0 -28.5 -11.5t-11.5 -31.5t11.5 -31.5t28.5 -11.5t28.5 11.5t11.5 31.5t-11.5 31.5t-28.5 11.5zM475 863q28 0 52.5 -11.5t42.5 -30.5q18 -20 28.5 -45.5t10.5 -52.5t-10.5 -52.5t-28.5 -44.5q-18 -20 -42.5 -31.5t-52.5 -11.5q-29 0 -53.5 11.5t-42.5 31.5
q-18 19 -28 44.5t-10 52.5t10 52.5t28 45.5q18 19 42.5 30.5t53.5 11.5z" />
    <glyph glyph-name="ogonek" unicode="&#x2db;" horiz-adv-x="950" 
d="M553 -151l-200 209l200 200v-123l-77 -78l77 -82v-126z" />
    <glyph glyph-name="hungarumlaut" unicode="&#x2dd;" horiz-adv-x="950" 
d="M440 709q-16 -23 -39 -51.5t-48 -57.5q-26 -30 -52.5 -58t-49.5 -50q7 27 17.5 63.5t22.5 75.5q11 38 23 74t23 63q7 16 18 36.5t26 36.5q14 16 33 22t43 -7q23 -12 27 -30.5t-2 -38.5q-6 -21 -18.5 -41.5t-23.5 -36.5zM614 709q-16 -23 -39 -51.5t-48 -57.5
q-26 -30 -52.5 -58t-49.5 -50q7 27 17.5 63.5t22.5 75.5q11 38 23 74t23 63q7 16 18 36.5t26 36.5q14 16 33 22t43 -7q23 -12 27 -30.5t-2 -38.5q-6 -21 -18.5 -41.5t-23.5 -36.5z" />
    <glyph glyph-name="Alpha" unicode="&#x391;" horiz-adv-x="950" 
d="M566 667q8 12 19 20t22 8q13 0 23.5 -10t12.5 -28q15 -143 28.5 -286t30.5 -283q2 -14 6 -20t27 -6q26 0 38 -12.5t6 -32.5q-7 -21 -19.5 -29.5t-32.5 -8.5h-178q-44 0 -44 42q0 21 17 31t34 10q12 0 19 5.5t10 13.5q3 7 3 13.5v9.5q-2 24 -4 45t-4 45h-208
q-17 -29 -35.5 -57.5t-35.5 -57.5q-3 -5 -4 -11t11 -6q29 0 40 -12.5t5 -32.5q-7 -21 -19.5 -29.5t-32.5 -8.5h-157q-22 0 -32.5 8t-10.5 32q0 18 15 30.5t35 12.5q29 0 44 12.5t32 39.5zM570 281q-2 25 -4.5 49.5t-5.5 47.5q-2 14 -3 25.5t-2 23.5q-2 11 -3.5 23.5
t-2.5 29.5q-33 -53 -61.5 -98.5t-62.5 -100.5h145z" />
    <glyph glyph-name="Beta" unicode="&#x392;" horiz-adv-x="950" 
d="M154 -22q-58 0 -45 49q5 18 18 25.5t33 7.5q12 0 22.5 -0.5t18.5 1.5t13.5 8t9.5 19q20 74 38.5 148.5t37.5 149.5q6 22 13 49.5t14 53.5q7 25 12.5 45t7.5 28q3 12 4 18.5t-2 9.5q-4 3 -13 3.5t-26 0.5q-44 0 -44 42q0 22 17 31t34 9h261q53 0 95 -11.5t69 -34.5
q26 -23 35 -58.5t-4 -83.5q-14 -48 -45.5 -86.5t-76.5 -61.5q34 -18 56 -46.5t22 -70.5q0 -68 -32 -114.5t-82 -75.5q-51 -29 -113 -42t-122 -13h-226zM408 378q57 0 90.5 2.5t54.5 10.5t41.5 21t36.5 30q15 17 24.5 38t9.5 47t-12.5 39.5t-34.5 19.5q-23 6 -53.5 7t-65.5 1
h-21.5t-11.5 -2q-4 -3 -6.5 -9.5t-5.5 -20.5q-5 -20 -15.5 -63t-30.5 -121zM337 93q-3 -12 -2.5 -18t11.5 -9q10 -3 33.5 -3h66.5q35 0 66 13.5t55 36.5q23 22 36.5 52.5t13.5 63.5q0 26 -17.5 39.5t-42.5 19.5q-26 5 -53.5 5.5t-47.5 0.5h-68z" />
    <glyph glyph-name="Gamma" unicode="&#x393;" horiz-adv-x="950" 
d="M339 579q3 11 -3.5 13t-21.5 2q-38 0 -50.5 12t-6.5 34q5 18 18 27t32 9h456q21 0 31 -4.5t13 -13.5q2 -9 -1 -23.5t-7 -34.5q-3 -20 -7 -43.5t-8 -45.5q-5 -23 -9.5 -43.5t-8.5 -33.5q-6 -21 -19.5 -30.5t-27.5 -9.5q-16 0 -25.5 9.5t-9.5 32.5q0 19 2.5 37.5t2.5 39.5
q0 54 -10 60q-29 21 -195 21q-10 0 -15.5 -0.5t-9.5 -2.5q-4 -3 -6 -8t-5 -15q-20 -70 -37.5 -140t-34.5 -141q-13 -51 -25.5 -102t-26.5 -103q-3 -10 -3.5 -14.5t3.5 -5.5q3 -2 12 -2h27q28 0 38.5 -12.5t5.5 -33.5q-3 -17 -16.5 -26.5t-35.5 -9.5h-211q-31 0 -41 12.5
t-4 37.5q5 18 19 25t43 7q14 0 23.5 0.5t15.5 5.5q6 4 10.5 13.5t9.5 28.5z" />
    <glyph glyph-name="uni0394" unicode="&#x394;" horiz-adv-x="950" 
d="M551 481q-64 -104 -128 -206.5t-128 -206.5q-4 -6 -3 -7t9 -1h256q25 0 31 2.5t5 9.5zM643 657q17 -148 29 -250.5t20 -169.5q8 -68 12 -106.5t7 -57.5q2 -20 2.5 -26t0.5 -9q0 -25 -12 -41.5t-49 -17.5h-410q-32 0 -46.5 8.5t-14.5 35.5q0 23 26 64q88 142 179.5 290.5
t179.5 290.5q8 14 19.5 21t21.5 7q30 0 35 -39z" />
    <glyph glyph-name="Epsilon" unicode="&#x395;" horiz-adv-x="950" 
d="M630 229q5 15 15.5 20.5t22.5 5.5q17 0 31.5 -12t8.5 -32q-15 -50 -31.5 -102.5t-30.5 -101.5q-5 -14 -18.5 -21.5t-28.5 -7.5h-467q-56 0 -44 50q5 18 18.5 25t42.5 7q22 0 34.5 3t17.5 23q34 123 64.5 247t60.5 246q3 11 -5 13t-33 2q-44 0 -44 41q0 23 17 32t34 9h457
q32 0 40 -8t1 -40q-8 -44 -18.5 -96t-19.5 -94q-7 -28 -23.5 -41.5t-27.5 -13.5q-19 0 -24 12t-5 27q0 23 2.5 46.5t2.5 50.5q0 19 -2.5 34.5t-10.5 20.5q-28 20 -190 20q-22 0 -29.5 -3t-12.5 -23l-16 -62t-16 -65q-5 -17 -8 -32.5t-8 -32.5q35 1 55.5 3.5t31.5 7.5
q11 4 22.5 28t24.5 56q9 23 22 37t26 14q15 0 26 -16.5t3 -49.5l-63 -246q-7 -26 -22 -37t-26 -11q-12 0 -18.5 5t-9.5 13q-3 7 -3.5 16t-0.5 18q0 4 1.5 14.5t2.5 21.5v19.5t-3 10.5q-15 10 -90 12q-12 -53 -26.5 -105t-28.5 -106q-3 -12 0 -16.5t17 -4.5q89 0 142.5 6
t73.5 17q19 11 41.5 47.5t44.5 98.5z" />
    <glyph glyph-name="Zeta" unicode="&#x396;" horiz-adv-x="950" 
d="M605 595q-67 0 -107.5 -5.5t-57.5 -15.5q-13 -8 -33.5 -48.5t-45.5 -101.5q-5 -13 -15.5 -18.5t-21.5 -5.5q-18 0 -31.5 12t-7.5 32q16 50 31 97.5t29 98.5q5 21 17 29t32 8h391q40 0 40 -29q0 -19 -21 -43q-125 -137 -246 -272t-246 -272h83q68 0 109 5.5t57 14.5
q13 8 33.5 48.5t45.5 101.5q5 12 18.5 14.5t27.5 -1.5q13 -4 22 -13.5t6 -20.5q-14 -49 -30.5 -102t-31.5 -101q-5 -14 -18.5 -21t-27.5 -7h-422q-41 0 -41 29q0 18 21 42q121 136 244 272.5t245 272.5h-48z" />
    <glyph glyph-name="Eta" unicode="&#x397;" horiz-adv-x="950" 
d="M620 381q5 16 8 31.5t8 30.5q8 29 15.5 58t14.5 58q5 20 1 27.5t-23 7.5h-13q-23 0 -35.5 12.5t-8.5 32.5q8 37 52 37h212q27 0 38.5 -14t3.5 -37q-12 -31 -49 -31q-17 0 -29 -0.5t-20 -4.5q-9 -5 -13.5 -15t-7.5 -28q-27 -104 -45.5 -177t-30.5 -122
q-13 -49 -20.5 -77.5t-10.5 -44.5q-4 -16 -6 -23.5t-3 -12.5q-2 -10 -3.5 -16t1.5 -9q2 -3 10.5 -3.5t26.5 -0.5q26 1 38 -12t8 -34q-4 -18 -18 -27t-35 -9h-211q-29 0 -39 13t-5 35q5 17 18.5 25.5t33.5 8.5q16 0 27.5 1.5t19.5 6.5q7 4 12 13.5t9 26.5q4 15 7.5 29.5
t7.5 28.5q9 34 16 63.5t17 64.5h-265q-12 -48 -24.5 -96.5t-26.5 -101.5q-4 -15 -6.5 -22.5t0.5 -10.5q2 -3 11.5 -3h29.5q27 0 38.5 -12.5t6.5 -33.5q-4 -17 -17 -26.5t-35 -9.5h-212q-27 0 -38.5 13t-5.5 36q5 18 18 25.5t33 7.5q18 0 29 0.5t19 5.5q7 4 11.5 13.5
t9.5 28.5q30 114 50.5 193.5t34.5 133.5q13 53 20.5 83.5t11.5 46.5q2 10 3.5 15.5t-1.5 8.5t-11.5 4t-26.5 1q-53 0 -45 45q3 20 16.5 28.5t35.5 8.5h212q29 0 40 -13.5t3 -36.5q-12 -32 -51 -32q-18 0 -29 -1t-18 -5q-7 -5 -11 -15t-10 -29q-13 -45 -23 -81t-21 -82h265z
" />
    <glyph glyph-name="Theta" unicode="&#x398;" horiz-adv-x="950" 
d="M557 696q63 0 109 -23t76 -60q30 -38 44 -87.5t14 -101.5q0 -54 -12 -100q-17 -65 -55 -128.5t-91 -113.5q-53 -51 -118 -82t-137 -31q-61 0 -107 22.5t-77 60.5t-46.5 86.5t-15.5 101.5q0 27 4 51.5t10 47.5q18 66 56.5 130.5t91.5 114.5t118 81t136 31zM550 607
q-42 0 -80 -17t-70 -46q-33 -30 -59.5 -68t-44.5 -80q-19 -43 -29 -86t-10 -82q0 -33 7 -63.5t24 -54.5q16 -24 42 -38.5t64 -14.5q55 0 100.5 25t81.5 65q35 40 60 90.5t37 100.5q6 24 10 49.5t4 50.5q0 32 -7 62.5t-23 54.5q-16 23 -42 37.5t-65 14.5zM392 289q-6 0 -6 -3
q-4 -9 -8.5 -19.5t-10.5 -19.5q-7 -9 -16 -14.5t-22 -5.5q-20 0 -28.5 9t-8.5 26q0 14 5 32l28 97q5 20 17 38t32 18q17 0 28 -16.5t9 -32.5q0 -3 0.5 -8t11.5 -5h136q5 0 9.5 7t7.5 14q6 14 15.5 28t31.5 14q35 0 35 -37q0 -16 -5 -36l-3 -12q-6 -21 -12.5 -43.5
t-13.5 -42.5t-17 -35.5t-30 -15.5q-14 0 -22 5.5t-11 14.5q-4 9 -4.5 20.5t-0.5 22.5h-147z" />
    <glyph glyph-name="Iota" unicode="&#x399;" horiz-adv-x="950" 
d="M599 568q-36 -133 -59.5 -225t-37.5 -150q-15 -58 -21 -85t-7 -31q-2 -7 -2 -10.5t4 -4.5q4 -2 12.5 -2h23.5q59 0 45 -43q-8 -21 -20 -30t-32 -9h-213q-58 0 -45 49q5 18 18.5 25.5t34.5 7.5q22 0 34 0.5t18 5.5q6 4 9 14t8 29q19 71 37 141.5t36 142.5q11 42 21 82.5
t20 82.5q2 10 3.5 17t-0.5 11q-3 4 -11.5 6t-25.5 2q-29 0 -40.5 12.5t-4.5 35.5q11 34 52 34h213q29 0 40 -13.5t3 -36.5q-8 -22 -25 -26.5t-34 -4.5q-18 0 -33.5 -3.5t-20.5 -23.5z" />
    <glyph glyph-name="Kappa" unicode="&#x39a;" horiz-adv-x="950" 
d="M317 195q-3 -12 -8.5 -30t-10.5 -37q-5 -20 -8.5 -37t-3.5 -27q0 -2 9.5 -2.5t32.5 -0.5q26 0 37.5 -12.5t6.5 -33.5q-8 -36 -51 -36h-212q-31 0 -41 12.5t-4 37.5q5 18 18 25t33 7q18 0 30 1t20 6q7 4 11.5 14t9.5 27l114 450q3 10 5 17t0 11q-3 4 -12 6t-28 2
q-44 0 -44 41q1 22 17.5 31.5t33.5 9.5h212q29 0 40.5 -13.5t3.5 -37.5q-6 -17 -18.5 -24t-31.5 -7q-20 0 -31.5 -0.5t-18.5 -4.5q-7 -5 -11.5 -15t-9.5 -29q-12 -45 -21 -81t-19 -74q-4 -15 -5 -22t-6 -25q67 59 134 117t134 118q14 14 12.5 15t-13.5 1q-41 0 -53 12.5
t-5 35.5q11 34 50 34h224q29 0 39.5 -12t5.5 -32q-7 -22 -20.5 -30t-30.5 -8q-28 0 -48.5 -5t-41.5 -24l-229 -202q36 -69 70 -140t72 -139q8 -14 23.5 -19t35.5 -5q27 0 35.5 -13t5.5 -33q-3 -17 -16.5 -26.5t-32.5 -9.5h-233q-44 0 -44 43q0 23 17 31t35 8q29 0 41 2.5
t4 18.5l-104 208z" />
    <glyph glyph-name="Lambda" unicode="&#x39b;" horiz-adv-x="950" 
d="M549 480q-63 -103 -125.5 -204.5t-127.5 -207.5q-3 -5 -2 -6t14 -1q29 0 40 -12.5t5 -32.5q-7 -21 -19.5 -29.5t-32.5 -8.5h-157q-23 0 -35.5 12.5t-7.5 35.5q2 13 16 24t34 11q15 0 25.5 3t18.5 10q8 6 15.5 16t15.5 23q85 137 170 276.5t170 276.5q8 12 19 20t22 8
q13 0 23.5 -10t12.5 -28q15 -143 30.5 -292t30.5 -292q1 -7 6.5 -9t24.5 -2q26 0 38 -12.5t6 -32.5q-7 -21 -20 -29.5t-32 -8.5h-178q-25 0 -37.5 12t-6.5 34q6 19 20 28t30 9q20 0 28.5 2.5t6.5 18.5z" />
    <glyph glyph-name="Mu" unicode="&#x39c;" horiz-adv-x="950" 
d="M308 446q-11 -40 -21 -80.5t-20 -78.5q-12 -48 -24.5 -96.5t-24.5 -98.5q-2 -9 -4 -15.5t0 -9.5q2 -4 8.5 -5.5t20.5 -1.5q26 0 37.5 -12.5t6.5 -35.5q-4 -16 -16 -25.5t-35 -9.5h-176q-29 0 -40.5 13t-4.5 36q9 34 52 34q16 0 25 0.5t15 4.5t9.5 13.5t8.5 26.5
q32 113 59.5 226.5t57.5 229.5q1 5 2 10.5t-1 10.5q-2 4 -8 7t-18 3q-21 0 -35 13t-10 33q4 19 19 28.5t33 9.5h143q26 0 31.5 -9t7.5 -33l39 -438q63 109 128 217.5t130 231.5q7 13 18 22t25 9h143q23 0 36 -13.5t8 -34.5q-3 -16 -15 -26t-35 -10q-32 0 -45 -2.5t-18 -22.5
l-120 -472q-5 -21 4.5 -28t29.5 -7q27 0 38 -12.5t6 -35.5q-4 -16 -16 -25.5t-35 -9.5h-211q-31 0 -41 12.5t-4 37.5q9 33 50 33q19 0 30.5 1t19.5 6q7 4 11.5 14t9.5 28q21 77 39.5 154t39.5 156q-20 -35 -41 -71.5t-48 -84.5q-28 -48 -65 -111.5t-89 -151.5
q-10 -17 -21.5 -26.5t-22.5 -9.5q-14 0 -24.5 10t-12.5 27z" />
    <glyph glyph-name="Nu" unicode="&#x39d;" horiz-adv-x="950" 
d="M424 645q42 -106 87 -218t88 -220q22 89 38 150.5t26 102.5q10 40 16 63t9 34q2 11 3 13.5t1 3.5q4 13 0 15.5t-27 2.5q-46 0 -46 43q0 21 17 31t36 10h176q28 0 39 -13.5t3 -37.5q-11 -33 -49 -33q-17 0 -26.5 -0.5t-14.5 -4.5q-6 -4 -9.5 -13t-7.5 -26
q-35 -136 -69 -272t-72 -282q-4 -13 -16 -21.5t-26 -8.5q-12 0 -23 7.5t-16 20.5l-201 501q-26 -103 -51 -201t-51 -201q-5 -16 -3 -23.5t27 -7.5q27 0 38.5 -12.5t6.5 -35.5q-4 -16 -17 -25.5t-35 -9.5h-176q-27 0 -38.5 13t-5.5 36q11 34 51 34q16 0 25.5 1t15.5 6
q6 4 9.5 12.5t7.5 24.5l117 457q2 9 4 15t1 10q-2 3 -8.5 4.5t-21.5 1.5q-22 0 -35 13t-9 33q4 19 19 28.5t32 9.5h118q12 0 25 -10t18 -21z" />
    <glyph glyph-name="Xi" unicode="&#x39e;" horiz-adv-x="950" 
d="M164 -21q-23 0 -33.5 13t-6.5 34q3 15 6.5 30.5t7.5 31.5q7 32 14 64.5t13 62.5q3 14 13.5 26t22.5 14q13 2 21.5 -2t13.5 -11t7.5 -16t2.5 -18q0 -17 -3 -34t-3 -36q0 -21 5 -33.5t16 -18.5q10 -6 27 -7.5t41 -1.5h166q41 0 67 8t44 26q17 17 29.5 44t26.5 65
q8 24 20.5 33.5t24.5 9.5q16 0 28.5 -16t3.5 -45l-60 -188q-7 -20 -17.5 -27.5t-30.5 -7.5h-467zM769 677q28 0 37.5 -10.5t3.5 -37.5q-11 -47 -20.5 -93.5t-20.5 -94.5q-4 -17 -15.5 -27.5t-22.5 -12.5q-13 -2 -21.5 3t-12.5 14q-5 9 -7 20.5t-1 22.5q1 12 2.5 25.5
t1.5 25.5q0 23 -4.5 36.5t-14.5 20.5q-11 6 -28 8t-41 2h-114q-41 0 -66.5 -8t-41.5 -25q-17 -17 -29.5 -44.5t-28.5 -67.5q-6 -14 -18 -20.5t-24 -6.5q-18 0 -31.5 11t-6.5 31l63 193q5 15 16.5 25t30.5 10h414zM379 279q-3 0 -6 -3.5t-4 -6.5q-7 -17 -20 -34.5t-34 -17.5
q-43 0 -38 34q5 32 15.5 65t19.5 66q6 23 18.5 39t30.5 16q23 0 30 -17t5 -36q-1 -4 1 -6.5t15 -2.5h164q8 0 10.5 7t4.5 12q6 17 18.5 30.5t32.5 13.5q30 0 34 -21.5t-4 -50.5l-27 -91q-8 -24 -17.5 -41.5t-32.5 -17.5q-12 0 -19.5 4.5t-11.5 12.5q-4 7 -5.5 16t-2.5 17
q0 13 -15 13h-162z" />
    <glyph glyph-name="Omicron" unicode="&#x39f;" horiz-adv-x="950" 
d="M557 696q63 0 109 -23t76 -61q29 -38 43.5 -87.5t14.5 -101.5q0 -53 -12 -99q-17 -65 -55 -128.5t-91 -113.5q-53 -51 -118 -82t-137 -31q-64 0 -110 22.5t-75 59.5q-29 38 -43 87.5t-14 103.5q0 52 10 96q15 67 53.5 131.5t92.5 114.5q53 50 119 81t137 31zM550 607
q-55 0 -100 -25.5t-79 -66.5q-35 -41 -60 -91.5t-40 -99.5q-15 -47 -15 -97q0 -33 7.5 -63.5t24.5 -53.5q16 -24 42 -38.5t64 -14.5q55 0 100.5 25t81.5 65q35 40 60 90.5t37 100.5q6 23 9.5 48.5t3.5 50.5q0 32 -7 62.5t-23 54.5t-42 38.5t-64 14.5z" />
    <glyph glyph-name="Pi" unicode="&#x3a0;" horiz-adv-x="950" 
d="M537 594q-26 0 -45 -0.5t-32 -4.5q-14 -4 -22.5 -14.5t-13.5 -29.5q-2 -5 -2.5 -10.5t-2.5 -10.5q-26 -100 -50.5 -202t-51.5 -203q-2 -8 -6 -18t-5 -19t4.5 -15.5t22.5 -6.5q30 0 40.5 -13.5t2.5 -35.5q-5 -15 -19 -24t-32 -9h-200q-57 0 -43 54q4 16 16.5 22t33.5 6
t32.5 2t19.5 9q7 7 12 21.5t12 40.5q28 106 54.5 212.5t53.5 212.5q2 10 3 16.5t-2 11.5q-3 4 -11.5 6t-24.5 2q-28 0 -39.5 12.5t-4.5 35.5q11 34 52 34h530q29 0 40 -12t5 -32q-7 -21 -19.5 -29.5t-32.5 -8.5q-19 0 -30.5 -1t-18.5 -6q-8 -5 -12.5 -15t-8.5 -27
q-26 -103 -55 -212.5t-56 -212.5q-5 -19 -8.5 -33.5t-3.5 -19.5t9.5 -6t34.5 -1q29 0 39.5 -13.5t2.5 -36.5q-12 -32 -50 -32h-200q-59 0 -46 49q5 18 18.5 25.5t34.5 7.5q18 0 28.5 5t16.5 15q6 9 10 23t9 31q10 37 20.5 76.5t23.5 89.5q12 49 27.5 111.5t35.5 144.5
q4 15 0 23t-16 11t-32 3.5t-48 0.5z" />
    <glyph glyph-name="Rho" unicode="&#x3a1;" horiz-adv-x="950" 
d="M476 594q-14 0 -21.5 -3t-12.5 -23q-8 -29 -15 -55.5t-13 -52.5q-7 -26 -14 -52.5t-14 -56.5h73q39 0 76.5 10t66.5 31q29 20 46.5 52t17.5 76q0 35 -24 54.5t-70 19.5h-96zM573 676q38 0 75 -8.5t66 -26.5q29 -19 46.5 -48.5t17.5 -71.5q0 -51 -24 -97t-63 -81
q-40 -35 -90.5 -55.5t-104.5 -20.5h-131q-3 -14 -7 -27t-7 -27q-8 -31 -16 -64.5t-16 -62.5q-4 -16 0 -21t36 -5q28 0 38.5 -12.5t6.5 -33.5q-8 -36 -51 -36h-213q-29 0 -39 12.5t-5 34.5q5 20 18.5 27.5t33.5 7.5q18 0 29.5 1t18.5 6t11.5 14.5t9.5 27.5q12 41 23.5 86
t25.5 100t31.5 124t40.5 159q3 13 -7 14.5t-24 1.5q-65 0 -53 48q10 34 51 34h272z" />
    <glyph glyph-name="Sigma" unicode="&#x3a3;" horiz-adv-x="950" 
d="M189 -22q-28 0 -42.5 9.5t-14.5 25.5q0 10 9.5 24t22.5 28l244 266q-14 34 -27.5 67t-27.5 67q-6 15 -17 38t-21 47q-11 24 -19 47.5t-8 40.5q0 23 14 30.5t41 7.5h425q33 0 40.5 -8t0.5 -40q-10 -45 -19.5 -92t-18.5 -94q-4 -22 -18 -33t-29 -11q-14 0 -25.5 10
t-10.5 31q0 14 1 28.5t1 28.5q0 34 -7 54t-22 30t-38.5 12.5t-57.5 2.5h-91q-25 0 -29.5 -17t1.5 -40q6 -24 17 -49.5t19 -43.5l33 -78q6 -15 4.5 -31t-21.5 -37l-226 -239q111 0 177.5 6.5t95.5 17.5q26 10 50.5 48.5t50.5 93.5q4 8 13.5 14t19.5 6q8 0 16.5 -3.5
t15.5 -8.5q6 -5 9.5 -12.5t1.5 -14.5q-12 -49 -28.5 -98t-30.5 -97q-5 -17 -20 -25.5t-28 -8.5h-426z" />
    <glyph glyph-name="Tau" unicode="&#x3a4;" horiz-adv-x="950" 
d="M751 677q22 0 31 -6t10 -20t-3.5 -36t-10.5 -53q-6 -35 -13.5 -69.5l-12.5 -57.5q-5 -24 -20.5 -37.5t-29.5 -13.5q-12 0 -18.5 7t-9.5 17t-3.5 21t1.5 19q4 17 7 41.5t3 46.5q0 21 -6.5 33.5t-18.5 18.5t-29 7.5t-39 1.5q-15 0 -22.5 -2.5t-11.5 -14.5
q-30 -113 -61.5 -237.5t-60.5 -246.5q-6 -24 -0.5 -29.5t35.5 -5.5q28 0 38 -12.5t5 -33.5q-4 -17 -16.5 -26.5t-34.5 -9.5h-213q-29 0 -38.5 12.5t-4.5 37.5q5 18 17.5 25t32.5 7q18 0 29.5 0.5t18.5 5.5q7 4 12 14t10 29q32 118 60.5 237.5t62.5 247.5q-2 2 -14 2
q-35 0 -61.5 -5.5t-40.5 -16.5q-15 -11 -35.5 -50.5t-43.5 -100.5q-5 -14 -15.5 -19.5t-22.5 -5.5q-17 0 -31 12t-8 32q14 49 29.5 99t29.5 99q7 21 19.5 28.5t32.5 7.5h465z" />
    <glyph glyph-name="Upsilon" unicode="&#x3a5;" horiz-adv-x="950" 
d="M644 569q-60 -41 -96.5 -97.5t-59.5 -121.5q-24 -65 -39 -134t-32 -135q-3 -12 -0.5 -16t25.5 -4q26 0 38 -12.5t8 -33.5q-8 -36 -52 -36h-182q-59 0 -46 49q5 18 18.5 25.5t33.5 7.5q16 0 25 1t15 6q5 4 8 13.5t8 27.5q15 58 29.5 116.5t30.5 125.5q7 29 15 66t8 72
q0 21 -4.5 39.5t-15.5 33.5q-11 14 -29.5 22t-46.5 8q-42 0 -42 34q0 14 14 27.5t35 14.5q78 3 122.5 -26.5t62.5 -98.5q20 27 46 51t55 43q28 19 59 30t61 11q43 0 65 -30t12 -73q-7 -31 -33.5 -51.5t-55.5 -20.5q-21 0 -40 18.5t-20 47.5z" />
    <glyph glyph-name="Phi" unicode="&#x3a6;" horiz-adv-x="950" 
d="M476 137q36 9 66.5 27.5t55.5 44.5q24 26 42 58t29 67q9 31 9 57q0 45 -26 78t-78 49zM267 318q-9 -32 -9 -56q0 -46 27 -80t78 -49q22 87 45 178.5t52 204.5q-74 -18 -123 -72t-70 -126zM288 45q14 0 21 2t10 4q4 3 4 6q-40 8 -73 28t-57 49t-37 64.5t-13 75.5
q0 57 26.5 109.5t70.5 95.5q43 43 100 73.5t117 44.5q-2 7 -11 9t-20 5q-11 2 -21 6.5t-13 18.5q-5 23 11 31.5t41 8.5h213q29 0 40 -13.5t3 -36.5q-6 -14 -21 -17t-30 -3h-28t-13 -9q41 -8 75 -28.5t58 -49.5q24 -30 37.5 -66t13.5 -76q0 -29 -8 -58q-14 -48 -44.5 -92
t-71.5 -79q-41 -36 -90 -60t-100 -33q-1 -3 1 -5q3 -5 21 -5q28 0 38 -11.5t7 -25.5q-4 -17 -16.5 -23.5t-34.5 -6.5h-213q-57 0 -45 42q5 17 18.5 21t33.5 4z" />
    <glyph glyph-name="Chi" unicode="&#x3a7;" horiz-adv-x="950" 
d="M416 339l-84 228q-8 19 -17.5 23t-31.5 4q-32 0 -45.5 12.5t-6.5 35.5q11 34 51 34h217q29 0 40 -12t5 -32q-7 -21 -19.5 -29.5t-32.5 -8.5q-28 0 -37 -1.5t-7 -7.5l55 -149l113 137q15 15 8 19q-3 2 -9 2q-43 0 -43 42q0 23 17 31.5t34 8.5h190q27 0 38.5 -12t5.5 -32
q-7 -21 -19.5 -29.5t-29.5 -8.5t-28 -0.5t-20 -3.5q-9 -4 -17 -11.5t-20 -20.5l-186 -218l85 -233q13 -33 30.5 -40t36.5 -7q24 0 35 -13t8 -33q-3 -17 -15 -26.5t-35 -9.5h-227q-44 0 -44 43q0 12 7 19t18 10q10 3 22 4t22 1q18 -1 27 5t0 30l-56 151l-140 -161
q-12 -13 -11.5 -16.5t26.5 -3.5q27 0 38.5 -13.5t3.5 -35.5q-5 -15 -18.5 -24t-30.5 -9h-202q-26 0 -34.5 13.5t-8.5 28.5q0 23 16 31t33 9q20 1 32.5 3t22.5 8t20 17.5t26 29.5z" />
    <glyph glyph-name="Psi" unicode="&#x3a8;" horiz-adv-x="950" 
d="M476 259q36 10 59.5 29.5t38.5 45.5t24 57t16 66q9 37 21 76t32 70q19 31 49 51t76 20q62 0 73 -44q8 -36 -7.5 -60.5t-50.5 -24.5q-17 0 -25.5 8.5t-12.5 17.5q-5 9 -8 15t-8 2q-10 -8 -16.5 -35.5t-8.5 -69.5q-9 -138 -79 -219.5t-197 -89.5l-22 -97q-4 -17 5 -19.5
t33 -2.5q59 0 45 -42q-8 -22 -20.5 -28.5t-32.5 -6.5h-212q-30 0 -40.5 13t-4.5 35q5 17 19 25.5t34 8.5q18 0 29 1t18 6q7 4 12 14t10 28l17 67q-33 3 -62 15t-50 33q-22 20 -34.5 49t-12.5 66q0 34 11.5 76t34.5 87v-1q14 32 21.5 55.5t9.5 38.5q0 2 -3 3.5t-7 0.5
q-5 -2 -10.5 -8.5t-11.5 -21.5q-8 -20 -23 -27t-29 -2q-14 4 -24.5 18.5t-10.5 37.5q0 20 8.5 35t22.5 25q14 9 32 13.5t37 4.5q43 0 72.5 -19.5t35.5 -69.5q3 -28 -7 -73.5t-27 -89.5q-10 -27 -18 -55.5t-8 -44.5q0 -29 21.5 -46t49.5 -23l87 339q0 2 -9.5 2h-32.5
q-46 0 -46 41q1 22 18.5 31.5t34.5 9.5h207q28 0 39 -13.5t3 -37.5q-6 -17 -18 -24t-31 -7t-29 -0.5t-16 -4.5q-6 -5 -9.5 -15t-9.5 -29v1z" />
    <glyph glyph-name="uni03A9" unicode="&#x3a9;" horiz-adv-x="950" 
d="M822 458q0 -60 -22.5 -117.5t-60.5 -105.5t-88.5 -82.5t-107.5 -49.5q-2 -8 -4 -12.5t-4 -12.5q22 0 39 1t31 6t25 15.5t21 30.5l-1 -1q5 13 12 24q6 9 14.5 16.5t19.5 7.5q28 -1 35.5 -15t1.5 -37v1q-8 -34 -14.5 -58.5t-17.5 -56.5q-5 -14 -15 -23.5t-32 -9.5h-233
l50 196q52 4 95.5 30t75.5 66q31 40 49 89.5t18 101.5q0 65 -37.5 106t-108.5 41q-45 0 -87.5 -18.5t-76.5 -48.5q-35 -31 -60 -71.5t-35 -83.5q-5 -17 -6.5 -33.5t-1.5 -33.5q0 -28 4.5 -53.5t18.5 -45.5q13 -20 38 -32.5t65 -14.5l-49 -195h-205q-23 0 -34 13.5t-7 35.5
q6 36 14 76q2 9 3 17.5t2 16.5q2 8 3 16t3 18q4 14 15.5 22t24.5 8q19 0 30 -13q-21 31 -31.5 68t-10.5 76q0 17 2.5 34t7.5 33q18 58 57 111t91 94q51 40 111.5 63.5t121.5 23.5q54 0 99.5 -17t79.5 -47q34 -31 53 -74.5t19 -95.5zM315 106q-34 10 -52 30t-37 47
q3 -6 3 -14q0 -26 2 -44.5t10 -29.5q7 -11 22.5 -15t43.5 -2q2 5 4 13.5t4 14.5z" />
    <glyph glyph-name="alpha" unicode="&#x3b1;" horiz-adv-x="950" 
d="M265 453q34 0 69 -19q38 -22 53 -58q7 14 15.5 28t19.5 25q11 10 24 13.5t30 -3.5q14 -7 22 -18t6 -28t-18 -46.5t-38 -67.5q-17 -29 -35 -60t-32 -63q-5 -13 -8 -32.5t-3 -32.5q0 -10 7 -16t14 -8q31 -5 49 -19.5t5 -37.5q-11 -20 -33 -30.5t-49 -6.5q-23 3 -46 15
t-36 35q-24 -22 -56 -41.5t-66 -19.5t-61.5 15.5t-46.5 39.5q-20 25 -29.5 56t-7.5 63q3 40 22 94.5t52 104.5q32 49 77 83.5t100 34.5zM291 363q-29 10 -69 -30q-21 -21 -39 -46.5t-31 -53.5q-14 -28 -22 -57t-8 -56q0 -10 2.5 -21t7.5 -20q5 -10 13.5 -16t19.5 -6
q27 0 52 28q48 51 68 102.5t25 111.5q2 25 -3 42t-16 22z" />
    <glyph glyph-name="beta" unicode="&#x3b2;" horiz-adv-x="950" 
d="M271 -33q-42 -2 -79 10.5t-66 49.5q-9 -46 -16.5 -78.5t-16.5 -52.5t-21 -27.5t-29 -4.5q-20 4 -30.5 20.5t-5.5 42.5q11 65 29 146t40 164q21 83 43.5 160t43.5 133q12 32 27 58.5t35 46.5q19 19 44 29.5t57 10.5q37 0 68.5 -14.5t55.5 -39.5q23 -25 36.5 -59t13.5 -73
q0 -21 -6 -45.5t-18 -47.5q-12 -24 -29 -44t-38 -30q17 -25 26.5 -64.5t6.5 -73.5q-3 -33 -16 -70t-34 -69q-22 -32 -52 -54t-69 -24zM339 218q1 22 -7.5 47t-15.5 39q-17 0 -35.5 4t-33.5 12t-23.5 20.5t-6.5 29.5q3 20 15 27.5t29 7.5q16 0 34.5 -4.5t33.5 -8.5
q13 -3 24 7t20 26q8 16 13 33t6 28q3 39 -6 66.5t-40 35.5q-32 8 -59.5 -17.5t-44.5 -76.5q-29 -86 -52.5 -180t-30.5 -185q5 -12 15 -23.5t23 -20.5q13 -10 27.5 -15.5t28.5 -4.5q22 1 38 18t27 40q10 23 15 49t6 46z" />
    <glyph glyph-name="gamma" unicode="&#x3b3;" horiz-adv-x="950" 
d="M157 375q-20 5 -32.5 -7t-23.5 -27q-11 -17 -25 -28.5t-34 -3.5q-8 3 -13.5 12t-5.5 21q0 11 5 28t16 37q19 37 54 54t74 13q57 -6 89 -52.5t32 -118.5v-55q26 45 50.5 88.5t50.5 85.5q8 13 19 24.5t24 17.5t27 4.5t29 -13.5q12 -11 15.5 -24.5t1.5 -27.5
q-3 -14 -10.5 -28t-17.5 -25q-53 -60 -98.5 -125.5t-83.5 -134.5q-14 -26 -27 -59t-25 -67q-9 -27 -20.5 -49t-24.5 -36q-14 -14 -29.5 -18.5t-32.5 4.5q-22 11 -30.5 31.5t-3.5 44.5q1 8 12.5 28.5t27.5 45.5q16 26 33 53.5t30 50.5l-1 136q0 51 -13 82t-39 38z" />
    <glyph glyph-name="delta" unicode="&#x3b4;" horiz-adv-x="950" 
d="M337 263q0 18 -3.5 37.5t-12.5 35.5t-24 26.5t-38 10.5q-29 0 -51 -22.5t-37 -54.5t-22.5 -67t-7.5 -61q0 -19 4 -39.5t13 -37.5t24.5 -28t38.5 -11q30 0 51.5 23.5t36.5 56.5q14 33 21 69t7 62zM358 427q51 -51 72.5 -102.5t21.5 -96.5q0 -42 -15.5 -87.5t-43.5 -84.5
q-28 -38 -68 -62.5t-89 -24.5q-48 0 -86 19t-65 50q-27 32 -41.5 73t-14.5 85q0 41 14 82t39 77q25 35 59.5 60.5t74.5 36.5q-15 23 -27.5 51t-12.5 60q0 22 8.5 43.5t23.5 38.5q15 16 35 26t42 10q40 0 79.5 -20.5t71.5 -51.5q31 -31 51 -68.5t20 -70.5q0 -22 -18 -40
t-41 -18q-13 0 -23.5 7t-18.5 18q-8 10 -15 23t-13 25q-8 15 -16.5 32.5t-18.5 32.5q-11 14 -23 23.5t-27 9.5q-8 0 -17 -3.5t-9 -17.5q0 -18 8.5 -36t22.5 -35q13 -17 29 -33z" />
    <glyph glyph-name="epsilon" unicode="&#x3b5;" horiz-adv-x="950" 
d="M324 364q-3 23 -27.5 28.5t-53.5 5.5t-50 -16t-21 -44q0 -19 10.5 -30.5t26.5 -18.5t34.5 -9t35.5 -2h27.5t23.5 -4t16 -12.5t6 -25.5q0 -25 -17.5 -32t-43.5 -7q-17 0 -23 0.5t-10 0.5q-48 1 -74.5 -19.5t-26.5 -53.5q0 -36 29 -56.5t81 -20.5q26 0 46.5 12t22.5 41
q1 14 6 28t15 25q9 10 22.5 16t30.5 3q27 -5 40.5 -29t4.5 -52q-9 -29 -28 -51.5t-45 -39.5q-26 -16 -57 -24.5t-64 -8.5q-36 0 -74.5 8t-69.5 26q-32 19 -52.5 48.5t-20.5 71.5q0 38 18.5 67t51.5 49q-24 17 -39.5 43t-15.5 59q0 36 17.5 61.5t44.5 42.5t59.5 25t62.5 8
q27 0 60 -3.5t63 -14.5q29 -12 50.5 -33.5t27.5 -56.5q5 -26 -9.5 -44.5t-34.5 -25.5q-35 -6 -53 13.5t-23 51.5z" />
    <glyph glyph-name="zeta" unicode="&#x3b6;" horiz-adv-x="950" 
d="M249 682q11 -14 12.5 -25.5t-4.5 -21.5q-6 -11 -17.5 -21.5t-24.5 -20.5q-16 -13 -27 -26.5t-11 -22.5q0 -4 2 -7.5t7 -4.5q11 -3 23.5 0.5t25.5 10.5q13 6 25 15t21 18q23 23 52 44t65 21q37 0 51 -30q9 -20 -0.5 -41t-27.5 -39q-18 -19 -39 -33.5t-34 -21.5
q-28 -15 -59.5 -28.5t-63.5 -17.5q-17 -22 -35.5 -48t-33.5 -54q-16 -29 -26.5 -58.5t-10.5 -57.5q0 -38 25.5 -62.5t70.5 -24.5q61 -1 96 -26t44 -79q5 -35 -9.5 -63t-40.5 -48t-58.5 -31t-63.5 -11q-12 0 -32 1t-39 6q-19 6 -33 18t-14 34q0 21 21 38.5t64 15.5
q17 0 34 -4.5t37 -4.5q13 0 23.5 3t12.5 11q1 5 -5.5 11.5t-16.5 7.5q-38 4 -75 14t-66 30q-30 20 -48.5 51t-18.5 78q0 38 10 75t26 72q15 35 35 68t40 63q-23 15 -36.5 40t-13.5 58q0 29 15.5 57.5t43.5 51.5q9 8 22 17t27 14t28 3.5t25 -14.5z" />
    <glyph glyph-name="eta" unicode="&#x3b7;" horiz-adv-x="950" 
d="M160 331q-2 14 -8.5 23t-17.5 6q-18 -5 -32.5 -2t-23.5 12q-9 8 -10.5 21.5t6.5 28.5q11 20 34 29t49 6q29 -4 49.5 -18.5t35.5 -37.5q23 22 54 39.5t62 17.5q36 0 64 -13t47 -35q18 -22 28 -51t10 -62q0 -25 -7 -60t-18 -74q-11 -40 -25 -80.5t-28 -76.5
q-14 -35 -27 -63t-22 -41q-17 -24 -35.5 -33.5t-44.5 2.5q-34 16 -34 46q0 19 9 42t21 47t25 48.5t21 45.5q9 24 19.5 51t19.5 55t15 56.5t6 55.5q0 19 -11 36.5t-37 17.5q-17 0 -33.5 -13.5t-30.5 -32.5q-15 -20 -26 -42t-16 -39q-12 -38 -20 -78t-22 -80
q-18 -57 -44.5 -86.5t-54.5 -18.5q-34 14 -34 55q0 16 11 44t28 57q12 21 21.5 45.5t16.5 50.5q7 25 9.5 50.5t0.5 48.5z" />
    <glyph glyph-name="theta" unicode="&#x3b8;" horiz-adv-x="950" 
d="M344 682q40 -9 67.5 -33t44.5 -58t24 -75t7 -83q0 -45 -6.5 -87.5t-16.5 -74.5q-15 -45 -37 -97.5t-53 -96.5q-31 -45 -72 -74.5t-95 -29.5q-50 0 -83.5 23.5t-53.5 62.5q-20 38 -28 85.5t-8 95.5q0 42 4 79t12 66q7 28 21 63.5t34 71.5q19 36 44.5 69t55.5 57
q30 23 65 33.5t74 2.5zM329 598q-20 5 -38 -5t-34 -29q-16 -20 -29.5 -46t-23.5 -51q-11 -26 -19 -49.5t-12 -37.5h191q3 24 4.5 49t1.5 45q0 14 -2 34t-6 39q-5 19 -13 33.5t-20 17.5zM152 299q-3 -19 -7.5 -55t-3.5 -74t10.5 -69.5t34.5 -40.5q20 -7 39 1.5t35 28.5
q16 19 30 46t25 56t18.5 57t11.5 50h-193z" />
    <glyph glyph-name="iota" unicode="&#x3b9;" horiz-adv-x="950" 
d="M239 468q23 -5 34 -24t5 -43q-8 -32 -20.5 -65.5t-26.5 -66.5q-17 -39 -30.5 -80t-23.5 -89q-4 -17 21 -23q6 -2 14.5 -1t18.5 9q15 11 26 20t19 9q20 0 32 -29q7 -18 -2 -38t-37 -45q-23 -20 -49 -26.5t-49 -4.5q-28 3 -47 16.5t-30 34.5t-14 46.5t0 51.5q8 48 19.5 91
t24.5 87q6 20 12 41.5t12 42.5q5 17 11.5 34t16.5 30t25 19.5t38 2.5z" />
    <glyph glyph-name="kappa" unicode="&#x3ba;" horiz-adv-x="950" 
d="M208 454q23 -5 36.5 -17t13.5 -35q0 -22 -11 -44t-20 -43q-4 -10 -8.5 -20t-7.5 -21q16 1 27.5 9.5t20.5 20.5q8 12 14 25t11 23q27 49 65 80.5t79 24.5q29 -5 51 -25t21 -60q-1 -32 -21 -45t-45 -13q-14 0 -27.5 8t-21.5 20q-8 -5 -15.5 -15.5t-11.5 -20.5
q-11 -25 -25 -47.5t-37 -40.5q12 -14 19.5 -32t7.5 -35q0 -36 0.5 -56t7.5 -22q9 -3 16.5 5t12.5 16q15 31 32 43.5t40 2.5q13 -5 18 -15.5t5 -22.5q0 -11 -3.5 -22t-7.5 -20q-20 -41 -50.5 -68.5t-75.5 -27.5q-31 0 -50.5 11t-30.5 31q-12 20 -16 48.5t-4 63.5v19t-1 19
t-3 15t-5 6q-5 0 -11.5 0.5t-11.5 1.5q-7 -23 -13 -48t-9 -43q-5 -26 -11 -50t-16 -43q-9 -17 -26 -23.5t-40 3.5q-27 11 -30.5 38.5t7.5 53.5q5 13 13 37.5t17 55.5q9 30 19 64.5t19 68.5q9 33 16.5 62t11.5 50q12 58 65 49z" />
    <glyph glyph-name="lambda" unicode="&#x3bb;" horiz-adv-x="950" 
d="M165 621q0 25 13 37.5t32 15.5q18 3 39 -2.5t37 -16.5q49 -36 65.5 -85.5t16.5 -105.5q0 -6 -0.5 -12.5t-0.5 -17.5q0 -12 -0.5 -31t-0.5 -49q0 -56 6.5 -109t32.5 -105q7 -14 14.5 -30t14.5 -31q6 -15 10 -28t4 -21q0 -9 -4 -19.5t-11 -19.5q-8 -8 -18 -14t-22 -6
q-20 0 -35 16.5t-26 38.5q-12 23 -20 46t-12 37q-12 40 -16 82.5t-5 93.5q-30 -48 -58.5 -99t-45.5 -113q-7 -25 -17.5 -46t-22.5 -36q-13 -14 -27.5 -21t-29.5 -2q-19 5 -32 19.5t-13 34.5t14.5 51t37.5 68q22 37 49.5 77t54.5 79q27 38 50.5 72t37.5 59q3 14 5 44
q1 28 -15.5 47.5t-43.5 34.5q-20 11 -31.5 20t-17.5 17t-7.5 15t-1.5 15z" />
    <glyph glyph-name="uni03BC" unicode="&#x3bc;" horiz-adv-x="950" 
d="M51 -5q10 18 20.5 44.5t19.5 55.5t15.5 57.5t9.5 49.5t9 47t15 53q8 27 18 53.5t20 49.5h-1q17 38 41 51t53 -3q27 -15 27 -49q0 -28 -12.5 -55t-26.5 -52q-25 -48 -46.5 -97.5t-31.5 -107.5q7 -11 19.5 -22t30.5 -7q34 6 53.5 26t27.5 40q25 62 38.5 126.5t32.5 129.5
q4 12 11 25.5t17 23.5q9 10 22 15t29 1q23 -6 32 -21.5t9 -32.5q0 -18 -5 -37t-10 -30q-9 -26 -22.5 -55t-26.5 -59q-13 -31 -23.5 -61.5t-14.5 -58.5q-1 -6 2 -10.5t10 -4.5q5 0 11 3.5t10 7.5q8 8 17 14.5t23 6.5q17 0 23 -16t0 -39q-5 -17 -15 -33.5t-24 -28.5t-31.5 -17
t-36.5 0q-20 6 -34 16.5t-22 23.5q-28 -23 -53.5 -33t-53.5 -10q-23 0 -40 5t-33 19q-3 -11 -4 -23t-2 -26q-3 -23 -11 -40t-18 -28q-11 -11 -23.5 -15.5t-22.5 -1.5q-21 6 -31.5 21t-10.5 36q0 12 4 31.5t16 41.5z" />
    <glyph glyph-name="nu" unicode="&#x3bd;" horiz-adv-x="950" 
d="M142 452q46 17 72 -43q10 -22 14.5 -48t4.5 -53q0 -23 -3.5 -49t-9.5 -52t-14 -51t-17 -45q31 18 60.5 44.5t53.5 58.5q24 31 38.5 66.5t15.5 71.5q1 54 18 79.5t39 19.5q14 -5 22 -20t8 -40q0 -15 -1.5 -36t-6.5 -45q-10 -50 -30 -97.5t-50 -88.5q-31 -42 -71.5 -75.5
t-90.5 -55.5q-29 -14 -55 -20.5t-45 -6.5q-26 0 -36 13q-19 25 8 78q10 21 21 47t20 54q8 28 13.5 56t4.5 52q0 28 -7 56.5t-11 60.5q-2 24 7 42.5t28 26.5z" />
    <glyph glyph-name="xi" unicode="&#x3be;" horiz-adv-x="950" 
d="M244 293q-28 3 -51 -6.5t-39 -26.5q-17 -18 -26.5 -40t-9.5 -43q0 -14 4.5 -27.5t14.5 -23.5q9 -11 24.5 -17t37.5 -5q27 1 50.5 -6t42.5 -20q18 -14 29.5 -33t13.5 -42q2 -29 -9.5 -54.5t-32.5 -44.5q-21 -18 -48 -28.5t-55 -10.5q-22 0 -38.5 10t-15.5 28q1 25 18 33.5
t36 11.5t33 7.5t10 21.5q-1 4 -8 7.5t-17 6.5q-11 3 -23.5 5.5t-23.5 4.5q-63 11 -100 55.5t-37 112.5q1 60 25 100t69 75q-14 15 -23.5 34.5t-9.5 42.5q0 49 21 77.5t48 45.5q0 9 1 19.5t3 19.5q13 50 53.5 76.5t91.5 26.5q28 0 43 -9.5t16 -33.5q1 -27 -20.5 -40
t-69.5 -11q-11 1 -19 -4t-11 -11q20 0 41 2.5t44 2.5q12 0 34 -2.5t42 -10.5t33 -22.5t8 -38.5q-5 -23 -22 -32t-44 -9q-35 0 -69 8.5t-70 7.5q-13 0 -26 -4t-23 -11q-11 -7 -17 -17.5t-5 -25.5q2 -28 28 -26q17 0 35 1.5t41 1.5q27 0 54.5 -3t49.5 -11q22 -9 34 -25t7 -42
t-23 -35t-43 -9q-27 0 -53 6.5t-54 9.5z" />
    <glyph glyph-name="omicron" unicode="&#x3bf;" horiz-adv-x="950" 
d="M254 469q46 0 85.5 -20t68.5 -53q28 -34 44 -76.5t16 -86.5q0 -47 -16.5 -94t-46.5 -85q-30 -37 -71.5 -60.5t-91.5 -23.5q-47 0 -86.5 19.5t-67.5 51.5q-28 33 -43.5 75.5t-15.5 87.5q0 49 16 96t46 85q29 37 70.5 60.5t92.5 23.5zM232 52q31 0 54 22.5t38 55.5
q14 33 21 69.5t7 63.5q0 22 -4 44t-14 40q-10 17 -27 27.5t-42 10.5q-33 0 -56.5 -19t-38.5 -48t-22 -63.5t-7 -65.5q0 -22 5 -46t16 -44q11 -21 28 -34t42 -13z" />
    <glyph glyph-name="pi" unicode="&#x3c0;" horiz-adv-x="950" 
d="M59 298q-12 9 -16 20t-2 23t7.5 24.5t13.5 24.5q7 12 20.5 21.5t29.5 16.5t34 10.5t36 4.5q38 4 76.5 0.5t82.5 -3.5q28 0 56.5 2.5t58.5 10.5q33 8 51.5 -5.5t15.5 -54.5q-4 -26 -14 -41t-30 -17q-27 -2 -50.5 -0.5t-46.5 -0.5q-12 -54 -20.5 -112t-8.5 -112
q0 -5 1 -11.5t3 -11.5q2 -6 5 -9t7 -1q6 3 15 6t15 3q22 0 30 -14t4 -39q-2 -16 -14.5 -29t-28.5 -21q-17 -8 -36 -11t-34 2q-21 7 -34 20t-20 29q-7 17 -8.5 36.5t-0.5 39.5q5 60 18 118t18 120h-48q-5 -25 -9.5 -50t-10.5 -51q-8 -35 -17 -72.5t-21 -71.5
q-6 -16 -13 -36.5t-18 -38.5t-27 -30t-38 -12q-30 0 -39.5 17t-6.5 40q3 24 14 48t21 39q18 26 30 51t21 51q9 25 15.5 53t12.5 60q-13 -2 -26.5 -6t-18.5 -12q-11 -21 -26.5 -23.5t-28.5 5.5z" />
    <glyph glyph-name="rho" unicode="&#x3c1;" horiz-adv-x="950" 
d="M394 244q0 18 -4.5 40t-14.5 42q-10 19 -26 32t-39 13q-30 0 -52 -20.5t-36 -49.5q-14 -30 -21 -63.5t-7 -58.5q0 -19 4 -40.5t13 -39.5q9 -19 24.5 -31t38.5 -12q33 0 56 18.5t37 46.5t20.5 61t6.5 62zM286 -27q-45 0 -81 21.5t-65 56.5q0 -24 3 -48t3 -51
q0 -18 -2.5 -34.5t-9.5 -30.5q-7 -13 -19.5 -21.5t-31.5 -8.5q-26 0 -36.5 20t-10.5 58q0 68 11 136t27 136q10 40 27.5 83.5t44.5 79.5t65 59.5t89 23.5q44 0 81.5 -19t64.5 -50q27 -32 42.5 -73t15.5 -85q0 -42 -15 -87t-43 -82q-29 -36 -69.5 -60t-90.5 -24z" />
    <glyph glyph-name="sigma" unicode="&#x3c3;" horiz-adv-x="950" 
d="M454 399q-4 -12 -12 -17t-18 -6q-11 -2 -23.5 -1t-24.5 1q31 -28 50 -66.5t19 -86.5q0 -32 -7 -64t-23 -62q-14 -26 -34.5 -49.5t-45.5 -41.5q-26 -17 -55.5 -27t-60.5 -10q-42 0 -77 16.5t-60 44.5q-25 29 -39 66.5t-14 79.5q0 45 18 93q14 35 38.5 69.5t57.5 62.5
t72 47t83 25q15 1 44.5 -0.5t57.5 -8.5q28 -8 46 -23t8 -42zM178 63q20 -10 40.5 -3.5t38.5 22.5q18 15 32.5 35.5t23.5 37.5q14 28 21 54.5t6 53.5q0 29 -19 50t-49 21q-17 0 -33 -8t-30 -21q-15 -13 -27.5 -30t-21.5 -34q-11 -20 -17.5 -45.5t-6.5 -51.5q0 -24 8.5 -46.5
t33.5 -34.5z" />
    <glyph glyph-name="tau" unicode="&#x3c4;" horiz-adv-x="950" 
d="M337 347q-8 0 -19.5 0.5t-20.5 0.5q-13 -29 -25.5 -61.5t-22.5 -64.5q-10 -33 -16 -63.5t-6 -55.5q0 -14 8 -20.5t20 -6.5q14 0 27.5 6.5t29.5 6.5q20 0 31 -10t10 -29q-1 -20 -13 -34.5t-31 -24.5t-42 -15t-45 -4q-51 2 -76.5 29.5t-25.5 71.5q0 45 17.5 92t34.5 95
q9 28 17 52t11 35q-27 1 -52 -1.5t-36 -18.5q-14 -20 -28.5 -25.5t-33.5 9.5q-14 12 -12.5 37t23.5 58q17 25 47.5 36t72.5 11q37 0 74.5 -1.5t84.5 -1.5q54 0 78 11q34 14 51.5 -1t15.5 -57q-2 -28 -18 -40t-38 -15q-23 -4 -48 -2.5t-44 1.5z" />
    <glyph glyph-name="upsilon" unicode="&#x3c5;" horiz-adv-x="950" 
d="M92 378q0 42 15 62t48 20q35 0 47.5 -21t12.5 -49q0 -25 -7 -49.5t-13 -40.5q-9 -23 -20 -45t-20 -45q-10 -24 -16 -48.5t-6 -51.5q0 -22 14.5 -42t38.5 -22q19 -1 42.5 14.5t46.5 41.5q22 26 42.5 60.5t34.5 72.5q13 38 17 76t-5 71q-7 24 8.5 41t41.5 16q19 -1 32 -11
t21 -25q7 -16 10 -35t3 -38q0 -22 -3 -37q-7 -29 -20.5 -64.5t-33.5 -71.5q-20 -37 -45 -71t-54 -61q-30 -26 -63 -42t-68 -16q-77 0 -115.5 42t-33.5 114q3 32 10.5 63t16.5 63q8 31 14.5 63t6.5 66z" />
    <glyph glyph-name="phi" unicode="&#x3c6;" horiz-adv-x="950" 
d="M22 199q0 46 18 91.5t50 81.5t75.5 56.5t95.5 15.5q20 -2 32 -9.5t17 -16.5q2 0 5.5 0.5t5.5 0.5q31 0 56.5 -21.5t44.5 -52.5q18 -32 28 -67.5t10 -62.5q0 -45 -15.5 -88t-44.5 -77q-29 -33 -72 -55t-97 -25q-2 -8 -3.5 -16t-3.5 -16q-8 -47 -32 -64.5t-53 -6.5
q-19 8 -26 18t-7 24q0 23 10 43.5t18 43.5q-24 15 -44.5 38t-35.5 50t-23.5 56.5t-8.5 58.5zM202 290q5 18 13 35.5t20 34.5q-29 -13 -54.5 -45t-39.5 -79q-7 -25 -7 -59q0 -26 4 -49t20 -43q13 51 21.5 101.5t22.5 103.5zM248 57q23 11 41.5 32.5t31.5 47.5t20 54.5t7 53.5
q0 27 -8 52.5t-21 45.5q-7 -1 -13.5 -15.5t-12.5 -34.5t-10.5 -41.5t-6.5 -34.5z" />
    <glyph glyph-name="chi" unicode="&#x3c7;" horiz-adv-x="950" 
d="M213 218q-4 10 -5 35.5t-4 50.5t-9.5 42.5t-19.5 13.5q-43 -55 -74 -17q-11 14 -7.5 35.5t18.5 42.5q14 20 37.5 34.5t51.5 14.5q42 1 67.5 -29t25.5 -80v-17.5v-10.5v-8.5t1 -9.5q17 20 35 42.5t32 45.5q13 22 29.5 43t38.5 21q10 0 21 -5.5t21 -13.5q9 -9 15 -20t6 -22
q0 -21 -18 -40.5t-39 -36.5q-32 -29 -64 -59.5t-59 -68.5q3 -17 8 -35.5t11 -35.5q1 -3 5 -14t9 -21t12 -15t14 4q23 27 40 33.5t31 -13.5q12 -20 9 -40.5t-16 -40.5q-17 -25 -37.5 -38t-37.5 -15q-11 -2 -25.5 3t-29.5 15q-15 11 -28 26t-22 34q-6 14 -9.5 28t-8.5 28
q-23 -23 -43.5 -51t-46.5 -54q-18 -18 -41 -23t-43 17q-16 17 -13 39t19 39z" />
    <glyph glyph-name="psi" unicode="&#x3c8;" horiz-adv-x="950" 
d="M166 204q-4 -13 -10 -31t-9 -37t-0.5 -37t14.5 -30q19 49 31 103t20 108q4 26 8.5 51.5t11.5 48.5q9 32 27.5 47.5t46.5 7.5t36 -31t1 -49q-6 -26 -14 -49.5t-17 -48.5q-16 -42 -30.5 -84.5t-26.5 -88.5q-2 -8 -3 -12.5t-2 -7.5q79 47 89 150q4 41 15.5 79t28.5 68
q6 11 15.5 23.5t21.5 23.5t27 19t33 10q16 1 26.5 -4t15.5 -13q5 -9 5 -19t-6 -17q-8 -9 -17 -12.5t-18 -8.5q-26 -14 -32 -114q-4 -56 -21 -103.5t-47 -83.5q-31 -36 -74.5 -56.5t-81.5 -27.5q-2 -13 -6 -29t-7 -25q-5 -15 -12.5 -28t-18.5 -22t-24.5 -12.5t-30.5 1.5
q-9 3 -18.5 9.5t-15.5 15.5q-6 10 -7.5 22t4.5 25q4 8 9.5 13.5t11.5 10.5t11 11t8 16v1q-42 17 -66.5 56.5t-24.5 87.5q0 30 7.5 64t22.5 69q11 26 18 47.5t7 36.5q0 9 -5 16t-11 14q-7 6 -12 13.5t-5 17.5q0 17 13 26.5t45 1.5t48.5 -33t18.5 -50q2 -30 -5 -70t-19 -80z
" />
    <glyph glyph-name="omega" unicode="&#x3c9;" horiz-adv-x="950" 
d="M170 423q13 9 30 15.5t33 7.5q16 0 27.5 -8t12.5 -29q1 -17 -15 -33t-39 -35q-18 -16 -31.5 -39t-21.5 -49q-8 -27 -12 -55t-3 -52q0 -9 1.5 -23.5t5.5 -27.5q3 -14 9 -24t16 -10q16 0 27.5 19.5t13.5 45.5q4 42 8.5 78.5t12.5 65.5q4 13 11 32t18 36q11 16 26.5 27
t36.5 8t34 -21.5t13 -42.5q0 -31 -9 -58.5t-20 -53.5q-12 -29 -26 -62.5t-14 -65.5q0 -9 5.5 -17.5t16.5 -8.5q25 0 41.5 25t25.5 61q9 35 12.5 73.5t3.5 65.5q0 32 -9.5 62t-9.5 64q0 12 3 22.5t8 15.5q26 22 52.5 2t46.5 -86q14 -45 17.5 -98t-9.5 -101
q-25 -89 -71 -140.5t-106 -51.5q-30 0 -52.5 15t-37.5 38q-16 -16 -38 -28t-52 -12q-33 0 -55.5 17t-36.5 44q-15 27 -21 59t-6 62q0 39 7 77.5t22 73.5t39 66t59 54z" />
    <glyph glyph-name="uni0401" unicode="&#x401;" horiz-adv-x="950" 
d="M212 736h528v-92h-430v-225h413v-93h-413v-254h438v-91h-536v755zM381 902q30 0 48.5 -20t18.5 -49q0 -28 -18.5 -48.5t-48.5 -20.5q-26 0 -46 20.5t-20 48.5q0 29 20 49t46 20zM568 899q26 0 46.5 -20t20.5 -49q0 -14 -5.5 -26.5t-14.5 -21.5q-10 -10 -22 -15.5
t-25 -5.5q-26 0 -46.5 20.5t-20.5 48.5q0 29 20.5 49t46.5 20z" />
    <glyph glyph-name="uni0410" unicode="&#x410;" horiz-adv-x="950" 
d="M642 181h-334l-84 -203h-104l314 756h84l314 -756h-104zM348 273h256l-128 308z" />
    <glyph glyph-name="uni0411" unicode="&#x411;" horiz-adv-x="950" 
d="M321 69h221q62 0 100 36t38 99q0 27 -11 49t-29 38q-19 16 -43.5 25t-51.5 10h-224v-257zM732 641h-411v-224h213q53 0 99 -14.5t80 -43.5t52 -73t15 -102q-2 -46 -21 -84t-53 -66q-34 -27 -81.5 -42t-107.5 -15h-296v756h511v-92z" />
    <glyph glyph-name="uni0412" unicode="&#x412;" horiz-adv-x="950" 
d="M221 -22v756h305q43 0 83.5 -12t71.5 -36t50 -60.5t19 -85.5q0 -57 -16 -95t-50 -68q47 -31 73 -79.5t23 -111.5q-5 -44 -25 -81.5t-53 -66.5q-34 -28 -80 -44t-104 -16h-297zM321 70h221q62 0 100 36t38 99q0 27 -11 49.5t-29 38.5q-19 16 -43.5 25t-51.5 9h-224v-257z
M321 418h213q52 0 86.5 26t34.5 84q0 54 -33 84t-87 30h-214v-224z" />
    <glyph glyph-name="uni0413" unicode="&#x413;" horiz-adv-x="950" 
d="M219 753h529v-92h-429v-682h-100v774z" />
    <glyph glyph-name="uni0414" unicode="&#x414;" horiz-adv-x="950" 
d="M220 144q11 26 21 59t19 70q8 37 13.5 75t7.5 75q3 46 5 94.5t4 95.5q1 46 1.5 89t0.5 78h438v-636h70v-276h-99v183h-453v-183h-98v276h70zM631 144v544h-240q0 -45 -2.5 -109t-7.5 -149q-10 -169 -55 -286h305z" />
    <glyph glyph-name="uni0415" unicode="&#x415;" horiz-adv-x="950" 
d="M212 733h528v-92h-430v-226h413v-92h-413v-254h438v-92h-536v756z" />
    <glyph glyph-name="uni0416" unicode="&#x416;" horiz-adv-x="950" 
d="M425 753h100v-381l259 381h118l-244 -359l300 -415h-123l-239 325l-71 -106v-219h-100v220l-77 110l-239 -330h-123l303 415l-246 359h117l265 -382v382z" />
    <glyph glyph-name="uni0417" unicode="&#x417;" horiz-adv-x="950" 
d="M308 208q5 -79 47.5 -113.5t119.5 -34.5q31 0 58.5 9.5t48.5 27.5t33.5 43t12.5 56q0 23 -9 43.5t-24 36.5q-16 16 -35.5 26.5t-40.5 13.5q-20 3 -50.5 3.5t-71.5 0.5v99q46 0 72.5 1t45.5 6q37 11 62.5 38.5t27.5 71.5q1 28 -9.5 50t-29.5 38t-44 24.5t-52 8.5
q-60 0 -95 -29t-40 -93h-98q3 54 21.5 94.5t49.5 68.5t73 42t93 14q45 0 87 -16t74 -44q32 -29 51 -68.5t18 -87.5q-1 -51 -18 -91t-57 -73q45 -30 73 -73.5t26 -105.5q-1 -55 -21 -98.5t-54 -73.5q-35 -30 -81.5 -45.5t-100.5 -15.5q-53 0 -101 15.5t-84 45.5
q-36 31 -57 77t-20 108h99z" />
    <glyph glyph-name="uni0418" unicode="&#x418;" horiz-adv-x="950" 
d="M190 -22v756h98v-577l378 577h94v-756h-98v579q-342 -524 -378 -579h-94z" />
    <glyph glyph-name="uni0419" unicode="&#x419;" horiz-adv-x="950" 
d="M184 -19v767h110v-562l368 562h104v-767h-110v563l-368 -563h-104zM671 895q-11 -39 -31 -72t-46 -57t-56.5 -37.5t-62.5 -13.5q-33 0 -63.5 13.5t-55.5 37.5q-26 24 -46 57t-32 72h96q17 -35 43 -60.5t58 -25.5q15 0 30 7t28 19t23.5 27.5t17.5 32.5h97z" />
    <glyph glyph-name="uni041A" unicode="&#x41a;" horiz-adv-x="950" 
d="M281 -23h-99v756h99v-358l348 358h125l-284 -316l357 -440h-127l-303 370l-116 -104v-266z" />
    <glyph glyph-name="uni041B" unicode="&#x41b;" horiz-adv-x="950" 
d="M370 660v-479q0 -43 -6.5 -81t-25.5 -67q-19 -28 -53.5 -45t-91.5 -20v102q25 1 39.5 6.5t23.5 15.5q8 10 11 25t4 35v600h485v-774h-99v682h-287z" />
    <glyph glyph-name="uni041C" unicode="&#x41c;" horiz-adv-x="950" 
d="M716 -23v504l-195 -504h-91l-194 505v-505h-99v756h105l234 -604l234 604h105v-756h-99z" />
    <glyph glyph-name="uni041D" unicode="&#x41d;" horiz-adv-x="950" 
d="M663 328h-374v-351h-98v756h98v-314h374v314h98v-756h-98v351z" />
    <glyph glyph-name="uni041E" unicode="&#x41e;" horiz-adv-x="950" 
d="M471 754q82 0 143.5 -33.5t102.5 -88.5q40 -55 60 -126.5t20 -147.5q0 -77 -20 -148.5t-60 -126.5q-41 -55 -102.5 -88t-143.5 -33q-83 0 -144.5 32.5t-101.5 87.5q-41 55 -60.5 126.5t-19.5 149.5q0 77 20.5 148.5t61.5 126.5q40 55 101 88t143 33zM471 657
q-59 0 -101.5 -26t-69.5 -68q-27 -43 -40 -96.5t-13 -108.5q0 -54 13 -107.5t41 -95.5q27 -43 69.5 -69.5t100.5 -26.5t100.5 26.5t70.5 69.5q27 43 40 96t13 107t-13 107t-40 96q-28 43 -70.5 69.5t-100.5 26.5z" />
    <glyph glyph-name="uni041F" unicode="&#x41f;" horiz-adv-x="950" 
d="M293 660v-682h-99v774h563v-774h-99v682h-365z" />
    <glyph glyph-name="uni0420" unicode="&#x420;" horiz-adv-x="950" 
d="M200 733h308q54 0 100.5 -16.5t81.5 -47.5q34 -32 53.5 -76.5t19.5 -99.5q0 -54 -20.5 -96.5t-55.5 -72.5t-81 -45.5t-98 -15.5h-208v-286h-100v756zM300 355h209q32 1 60 9.5t49 25.5q20 16 32 42t12 61q0 73 -43 109.5t-110 38.5h-209v-286z" />
    <glyph glyph-name="uni0421" unicode="&#x421;" horiz-adv-x="950" 
d="M799 236q-17 -59 -43.5 -109t-64.5 -87q-39 -36 -90.5 -56.5t-117.5 -20.5q-82 0 -143.5 33t-101.5 88q-41 55 -61 126.5t-20 148.5t20 148.5t61 126.5q40 55 101 88t144 33q63 0 114.5 -21.5t91.5 -57.5q39 -37 67 -87t45 -107h-104q-13 36 -32.5 68t-45.5 56t-60 38
t-76 14q-58 0 -100 -26.5t-69 -69.5q-28 -43 -41 -96t-13 -107q0 -56 12.5 -109.5t39.5 -95.5t69.5 -68t101.5 -26q41 0 74.5 14t59.5 38t44.5 56t30.5 68h107z" />
    <glyph glyph-name="uni0422" unicode="&#x422;" horiz-adv-x="950" 
d="M425 650h-240v92h580v-92h-240v-672h-100v672z" />
    <glyph glyph-name="uni0423" unicode="&#x423;" horiz-adv-x="950" 
d="M475 331l160 411h105l-257 -659q-9 -23 -19.5 -42t-25.5 -33t-35.5 -22t-48.5 -8h-53v93h58q8 0 15.5 9.5t12.5 21.5q9 23 17.5 45.5t16.5 45.5l-214 549h105z" />
    <glyph glyph-name="uni0424" unicode="&#x424;" horiz-adv-x="950" 
d="M520 145q45 7 84 25.5t68 47.5q28 28 44 67.5t16 89.5t-16 89.5t-44 68.5q-29 28 -67.5 46t-84.5 26v-460zM430 605q-45 -8 -84 -26t-67 -47q-29 -29 -45 -68t-16 -89q0 -51 16 -90t45 -67q28 -29 67 -47t84 -26v460zM430 49q-67 5 -124 31.5t-98 69.5
q-42 43 -65.5 100.5t-23.5 124.5t23.5 124.5t65.5 100.5q41 43 98 69.5t124 31.5v70h90v-70q67 -5 124 -31.5t99 -69.5q41 -43 64.5 -100.5t23.5 -124.5q0 -66 -23.5 -124t-64.5 -101q-42 -44 -99 -70.5t-124 -30.5v-70h-90v70z" />
    <glyph glyph-name="uni0425" unicode="&#x425;" horiz-adv-x="950" 
d="M474 282l-215 -305h-115l272 390l-255 366h115l197 -286l200 286h115l-257 -366l273 -390h-115z" />
    <glyph glyph-name="uni0426" unicode="&#x426;" horiz-adv-x="950" 
d="M304 68h348v664h99v-665h70v-202h-100v111h-517v756h100v-664z" />
    <glyph glyph-name="uni0427" unicode="&#x427;" horiz-adv-x="950" 
d="M772 -22h-99v295q-42 -36 -98.5 -55t-115.5 -17q-43 2 -91.5 17.5t-89.5 45.5q-42 29 -69 72.5t-27 101.5v314h99v-277q0 -47 16 -79t43 -52q26 -20 61 -30t73 -12q31 -2 66 10.5t65 35.5q29 22 48.5 51t19.5 60v293h99v-774z" />
    <glyph glyph-name="uni0428" unicode="&#x428;" horiz-adv-x="950" 
d="M715 70v682h99v-774h-678v774h99v-682h190v682h100v-682h190z" />
    <glyph glyph-name="uni0429" unicode="&#x429;" horiz-adv-x="950" 
d="M138 -24v774h100v-682h190v682h100v-682h190v682h99v-682h71v-212h-100v120h-650z" />
    <glyph glyph-name="uni042A" unicode="&#x42a;" horiz-adv-x="950" 
d="M388 374v-304h200q33 -2 61 11t49 35q20 21 32 49t12 57t-12 57t-33 50t-49 34.5t-60 10.5h-200zM289 660h-193v92h292v-286h200q54 0 100.5 -18t81.5 -50q34 -32 54 -77t20 -99t-20 -99t-54 -78q-35 -32 -81.5 -49.5t-100.5 -17.5h-299v682z" />
    <glyph glyph-name="uni042B" unicode="&#x42b;" horiz-adv-x="950" 
d="M217 70h221q62 0 100.5 36t38.5 99q0 27 -11.5 49.5t-29.5 38.5q-19 16 -44 25t-52 9h-223v-257zM217 418h213q44 0 88 -14t79 -41q35 -28 57 -68.5t22 -93.5q0 -54 -19 -96t-53 -70q-35 -28 -83 -42.5t-106 -14.5h-297v756h99v-316zM714 734h99v-756h-99v756z" />
    <glyph glyph-name="uni042C" unicode="&#x42c;" horiz-adv-x="950" 
d="M304 70h221q62 0 100 36t38 99q0 27 -11 49.5t-29 38.5q-19 16 -43.5 25t-51.5 9h-224v-257zM304 418h213q52 0 97 -14.5t78 -42.5q33 -29 52 -72.5t19 -101.5q0 -46 -18.5 -84.5t-52.5 -66.5q-34 -27 -83 -42.5t-109 -15.5h-296v756h100v-316z" />
    <glyph glyph-name="uni042D" unicode="&#x42d;" horiz-adv-x="950" 
d="M325 311v94h376q-3 51 -18.5 96.5t-42.5 80.5q-28 35 -68 55.5t-92 20.5q-33 0 -64.5 -9t-58.5 -26q-27 -18 -46.5 -45t-28.5 -63h-109q42 119 115.5 180.5t190.5 61.5q83 0 144 -33t101 -88q39 -56 58.5 -127.5t19.5 -149.5q0 -77 -19.5 -148.5t-59.5 -126.5
q-40 -56 -100.5 -89t-142.5 -33q-118 0 -198.5 60.5t-116.5 178.5h110q22 -70 76.5 -105.5t127.5 -35.5q51 0 90 20.5t66 55.5t43.5 80t22.5 95h-376z" />
    <glyph glyph-name="uni042E" unicode="&#x42e;" horiz-adv-x="950" 
d="M559 654q-55 0 -92 -28t-60 -71q-23 -44 -33 -97t-10 -103q0 -51 10 -104.5t33 -96.5t60 -70.5t92 -27.5q54 0 91.5 28t60.5 72t33.5 96.5t10.5 102.5q0 51 -10 104t-33 97q-23 43 -60.5 70.5t-92.5 27.5zM198 401h65q3 67 22.5 130t56.5 112t91.5 78.5t125.5 29.5
q79 0 135 -35t92 -91q36 -57 52.5 -127.5t16.5 -142.5t-16.5 -142.5t-52.5 -126.5q-36 -57 -92 -92t-135 -35q-72 0 -126 29.5t-90 78.5q-37 49 -57 112t-23 130h-65v-332h-99v756h99v-332z" />
    <glyph glyph-name="uni042F" unicode="&#x42f;" horiz-adv-x="950" 
d="M309 292q-31 12 -57 33t-44 49q-19 28 -29.5 61t-10.5 69q0 50 19 93t53 74t79 48t98 15h314v-755h-99v294h-220l-194 -294h-114zM632 365v277h-211q-32 -2 -59.5 -10t-47.5 -24q-20 -17 -31.5 -42.5t-11.5 -61.5q0 -35 12 -60.5t32 -42.5t47.5 -26t58.5 -10h211z" />
    <glyph glyph-name="uni0430" unicode="&#x430;" horiz-adv-x="950" 
d="M722 83q0 -11 2.5 -26t5.5 -31t6.5 -30t5.5 -21h-98q-5 14 -9.5 27.5t-7.5 24.5q-38 -29 -86 -49t-96 -22q-36 -2 -74.5 6.5t-70.5 27.5q-33 19 -53.5 49t-20.5 71q0 58 23.5 95t60.5 60q36 22 81.5 33t90.5 17q17 2 41 5t46 9q21 6 36.5 15.5t15.5 24.5q0 24 -12 42.5
t-31 31.5q-19 12 -42.5 18.5t-46.5 6.5q-27 0 -52.5 -7.5t-44.5 -23.5t-29.5 -41t-8.5 -59h-99q-4 55 15.5 97t53.5 71t77.5 44t87.5 15q45 0 87 -13.5t75 -39.5q32 -26 51.5 -63.5t19.5 -86.5v-278zM621 247q-26 -9 -60 -15t-66 -10q-25 -3 -55 -7.5t-55 -14.5
q-26 -11 -43 -30t-17 -50q0 -35 35.5 -52.5t89.5 -14.5q22 1 51.5 10.5t56.5 26.5q26 16 44.5 37.5t18.5 45.5v74z" />
    <glyph glyph-name="uni0431" unicode="&#x431;" horiz-adv-x="950" 
d="M474 470q-39 0 -68 -19t-48 -48q-20 -30 -30 -66.5t-10 -72.5q0 -37 9.5 -73.5t29.5 -65.5q19 -30 48.5 -48t68.5 -18t68 18.5t49 48.5q19 29 29 65.5t10 72.5t-10 72.5t-29 66.5q-20 30 -49 48.5t-68 18.5zM328 653q68 59 160 59q23 0 45 -3t42 -1q19 2 34.5 13.5
t26.5 41.5h98q-6 -26 -12 -46.5t-15 -36.5q-10 -16 -23.5 -28.5t-32.5 -23.5q-18 -10 -36.5 -14t-38.5 -5q-21 -2 -42.5 -1.5t-44.5 0.5q-38 0 -72.5 -14.5t-54.5 -53.5q49 26 112 26q62 0 109.5 -25.5t79.5 -67.5q32 -43 48.5 -97.5t16.5 -111.5t-16.5 -111.5t-48.5 -96.5
t-79.5 -67.5t-109.5 -25.5q-63 0 -110.5 25.5t-79.5 67.5q-32 43 -48 97t-16 111q0 50 2 103.5t13 105.5q10 52 31.5 98.5t61.5 81.5z" />
    <glyph glyph-name="uni0432" unicode="&#x432;" horiz-adv-x="950" 
d="M255 -24v580h224q38 0 71.5 -10.5t59.5 -28.5q25 -19 39.5 -45.5t14.5 -57.5q0 -30 -3.5 -50.5t-10.5 -34.5q-7 -15 -16 -26t-19 -22q35 -20 54 -55.5t17 -83.5q-2 -37 -18 -67.5t-42 -52.5q-27 -22 -63 -34t-77 -12h-231zM353 322h110q20 -1 38.5 3t33.5 13q14 9 23 22
t9 30q0 38 -28.5 56t-75.5 18h-110v-142zM353 68h110q26 0 48.5 4.5t39.5 14.5q16 10 25.5 25.5t9.5 37.5q0 20 -11 35.5t-28 26.5q-17 10 -38.5 14.5t-43.5 2.5h-112v-161z" />
    <glyph glyph-name="uni0433" unicode="&#x433;" horiz-adv-x="950" 
d="M272 556h406v-92h-308v-488h-98v580z" />
    <glyph glyph-name="uni0434" unicode="&#x434;" horiz-adv-x="950" 
d="M289 219q16 43 25.5 93.5t13.5 103.5q4 52 5 105.5t1 103.5v45h334v-451h53v-241h-100v149h-291v-149h-100v241h59zM570 219v359h-138q0 -42 -0.5 -88t-4.5 -92t-11.5 -91.5t-21.5 -87.5h176z" />
    <glyph glyph-name="uni0435" unicode="&#x435;" horiz-adv-x="950" 
d="M475 574q59 0 107 -24.5t82 -65.5q33 -41 51.5 -93.5t18.5 -108.5q0 -13 -0.5 -22t-1.5 -17h-414q0 -34 12.5 -66.5t34.5 -57.5q21 -26 49.5 -41.5t60.5 -15.5q57 0 93 32t50 80h108q-17 -48 -40 -86.5t-54 -66.5q-31 -27 -69.5 -41.5t-87.5 -13.5q-63 1 -111 27t-80 68
q-33 42 -49.5 96.5t-16.5 112.5t17 112.5t50 97.5q32 42 80 68t110 26zM627 334q-6 29 -19.5 55t-33.5 46t-45 31.5t-54 11.5t-54 -11.5t-45 -30.5q-20 -20 -33.5 -46.5t-18.5 -55.5h303z" />
    <glyph glyph-name="uni0436" unicode="&#x436;" horiz-adv-x="950" 
d="M425 -25v193l-48 55l-190 -248h-124l250 321l-224 259h128l208 -235v235h100v-238l210 238h126l-223 -259l250 -321h-125l-191 248l-1 -1l-46 -53v-194h-100z" />
    <glyph glyph-name="uni0437" unicode="&#x437;" horiz-adv-x="950" 
d="M366 189q2 -58 29 -93.5t83 -35.5q45 0 72.5 24.5t29.5 66.5q1 40 -31.5 61.5t-78.5 21.5h-59l1 99h54q19 0 35.5 4t29.5 14q13 9 21 24t10 37q3 34 -22.5 55.5t-65.5 21.5q-44 0 -65 -27t-23 -78h-97q0 45 13.5 82t37.5 63t58.5 40.5t78.5 14.5q37 0 70 -12.5t59 -35.5
q25 -23 39.5 -54.5t13.5 -69.5q-1 -23 -4 -41t-9 -32q-6 -15 -15.5 -27.5t-24.5 -24.5q32 -23 53 -58t19 -80q-1 -44 -17 -78.5t-43 -58.5q-28 -23 -64.5 -35.5t-78.5 -12.5q-45 0 -84 16t-67 45q-29 30 -44 71.5t-12 92.5h98z" />
    <glyph glyph-name="uni0438" unicode="&#x438;" horiz-adv-x="950" 
d="M345 -24h-88v580h98v-387l250 387h88v-580h-98v387z" />
    <glyph glyph-name="uni0439" unicode="&#x439;" horiz-adv-x="950" 
d="M662 703q-11 -38 -30 -70t-44 -55t-53.5 -35.5t-59.5 -12.5t-59.5 12.5t-53.5 35.5t-44 55t-30 70h91q16 -34 41.5 -58t54.5 -24t55 24.5t40 57.5h92zM345 -23h-88v580h98v-387l250 387h88v-580h-98v387z" />
    <glyph glyph-name="uni043A" unicode="&#x43a;" horiz-adv-x="950" 
d="M356 151v-175h-100v580h100v-270q63 67 127 135t127 135h124l-249 -267q67 -76 137.5 -156.5t136.5 -156.5h-125l-218 239z" />
    <glyph glyph-name="uni043B" unicode="&#x43b;" horiz-adv-x="950" 
d="M409 464v-334q0 -38 -7 -67.5t-25 -50.5q-18 -20 -48 -31t-76 -12v94q34 2 45.5 15t11.5 39v439h367v-580h-99v488h-169z" />
    <glyph glyph-name="uni043C" unicode="&#x43c;" horiz-adv-x="950" 
d="M641 556h86v-580h-96v290l-125 -290h-62l-125 291v-291h-96v580h86l166 -406z" />
    <glyph glyph-name="uni043D" unicode="&#x43d;" horiz-adv-x="950" 
d="M590 233h-230v-258h-99v580h99v-230h230v230h99v-580h-99v258z" />
    <glyph glyph-name="uni043E" unicode="&#x43e;" horiz-adv-x="950" 
d="M474 572q63 0 111 -26t81 -68q32 -43 48.5 -98t16.5 -112t-16.5 -112t-48.5 -97q-33 -43 -81 -69t-111 -26t-111.5 26t-80.5 69q-32 42 -48.5 96.5t-16.5 112.5t16.5 113t48.5 98q32 42 80.5 67.5t111.5 25.5zM474 476q-39 0 -68.5 -19t-48.5 -49q-20 -30 -30 -67
t-10 -73q0 -37 10 -74t30 -67q19 -30 48.5 -48.5t68.5 -18.5t68.5 19t49.5 49q19 30 29 67t10 73q0 37 -10 74t-29 67q-20 30 -49.5 48.5t-68.5 18.5z" />
    <glyph glyph-name="uni043F" unicode="&#x43f;" horiz-adv-x="950" 
d="M358 464v-488h-99v580h431v-580h-99v488h-233z" />
    <glyph glyph-name="uni0440" unicode="&#x440;" horiz-adv-x="950" 
d="M484 -24q-44 0 -85 18t-72 45v-171h-98v698h98v-46q31 29 71.5 46.5t85.5 17.5q62 0 108 -26.5t76 -69.5t45 -97.5t15 -111.5q0 -55 -15 -109.5t-45 -97.5q-31 -43 -77 -69.5t-107 -26.5zM477 489q-38 0 -66 -19.5t-47 -49.5q-19 -31 -28 -68.5t-9 -72.5q0 -36 8.5 -73
t27.5 -67q18 -30 46.5 -49t67.5 -19t67.5 19t46.5 49t27 67t9 73q0 35 -9 72.5t-27 68.5q-19 30 -47.5 49.5t-66.5 19.5z" />
    <glyph glyph-name="uni0441" unicode="&#x441;" horiz-adv-x="950" 
d="M735 182q-27 -99 -89.5 -158.5t-160.5 -59.5q-63 0 -111.5 25.5t-80.5 67.5q-33 43 -49.5 98t-16.5 113t16.5 113t49.5 98q32 42 80.5 67.5t111.5 25.5q47 0 88.5 -18t74.5 -48q32 -31 54 -72.5t30 -89.5h-102q-8 28 -20.5 52t-30.5 42t-41.5 28t-52.5 10
q-40 0 -69.5 -18t-49.5 -47q-20 -30 -30 -67.5t-10 -75.5t9.5 -75.5t29.5 -66.5q20 -30 49.5 -48t70.5 -18q53 0 90.5 34t54.5 88h105z" />
    <glyph glyph-name="uni0442" unicode="&#x442;" horiz-adv-x="950" 
d="M425 464h-177v92h455v-92h-178v-488h-100v488z" />
    <glyph glyph-name="uni0443" unicode="&#x443;" horiz-adv-x="950" 
d="M476 209q40 102 81 203.5t81 203.5h106l-258 -652q-8 -21 -19 -39t-26 -33q-16 -14 -36.5 -22.5t-48.5 -9.5h-53v92h59q12 0 21.5 12t16.5 30q7 19 12.5 41t9.5 41q-53 134 -107 270t-107 270h107z" />
    <glyph glyph-name="uni0444" unicode="&#x444;" horiz-adv-x="950" 
d="M295 552q-36 0 -62 -18.5t-42 -47.5q-16 -30 -23.5 -65.5t-7.5 -68.5q0 -34 7.5 -69t23.5 -63q16 -29 41.5 -47.5t62.5 -18.5q36 0 60.5 18.5t40.5 47.5q15 28 21.5 63t6.5 69q0 33 -7 68.5t-22 65.5q-15 29 -39.5 47.5t-60.5 18.5zM655 552q-36 0 -60.5 -18.5
t-39.5 -47.5q-15 -30 -22 -65.5t-7 -68.5q0 -34 6.5 -69t22.5 -63q15 -29 39.5 -47.5t60.5 -18.5q37 0 62.5 18.5t42.5 47.5q16 28 23.5 63t7.5 69q0 33 -7.5 68.5t-23.5 65.5q-17 29 -43 47.5t-62 18.5zM425 846h100v-254q26 26 57.5 38.5t72.5 12.5q58 0 101 -26t72 -67
q29 -42 43.5 -94t14.5 -104q0 -51 -14.5 -103t-43.5 -94t-72.5 -68t-100.5 -26q-37 0 -70 14.5t-60 38.5v-244h-100v240q-28 -23 -61 -36t-69 -13q-55 0 -98 27.5t-72 70.5q-30 43 -45.5 94.5t-15.5 98.5q0 54 16 106.5t46 93.5q29 41 72 66t97 25q37 0 70 -13.5t60 -36.5
v253z" />
    <glyph glyph-name="uni0445" unicode="&#x445;" horiz-adv-x="950" 
d="M475 186l-156 -210h-122l216 292l-207 278h122l147 -197l147 197h123l-210 -279l219 -291h-124z" />
    <glyph glyph-name="uni0446" unicode="&#x446;" horiz-adv-x="950" 
d="M366 66h224v489h99v-490h62v-182h-101v90h-385v582h101v-489z" />
    <glyph glyph-name="uni0447" unicode="&#x447;" horiz-adv-x="950" 
d="M703 -24h-100v190q-29 -22 -67.5 -34t-86.5 -10q-37 1 -72.5 16.5t-62.5 41.5q-28 26 -45 62.5t-17 79.5v234h100v-216q0 -69 36 -96t94 -27q19 0 40.5 9t39.5 24t29.5 33.5t11.5 38.5v234h100v-580z" />
    <glyph glyph-name="uni0448" unicode="&#x448;" horiz-adv-x="950" 
d="M631 67v488h99v-580h-510v580h98v-488h106v488h101v-488h106z" />
    <glyph glyph-name="uni0449" unicode="&#x449;" horiz-adv-x="950" 
d="M246 -27v581h98v-488h107v488h99v-488h107v488h99v-488h53v-181h-100v88h-463z" />
    <glyph glyph-name="uni044A" unicode="&#x44a;" horiz-adv-x="950" 
d="M415 68h123q26 0 49 5t40 17t27 31.5t10 48.5q0 27 -10.5 46t-27.5 32q-18 12 -40.5 17.5t-46.5 5.5h-124v-203zM315 -24v488h-140v92h240v-193h128q47 0 87.5 -16t70.5 -44t46.5 -66t14.5 -82q-2 -41 -20.5 -74t-47.5 -56q-30 -23 -67.5 -36t-76.5 -13h-235z" />
    <glyph glyph-name="uni044B" unicode="&#x44b;" horiz-adv-x="950" 
d="M274 68h109q60 0 92.5 30t32.5 72q0 23 -10.5 41.5t-27.5 32.5q-18 13 -40 20t-46 7h-110v-203zM274 556v-193h114q47 0 87.5 -16t70.5 -44t46.5 -66t14.5 -82q-2 -41 -20.5 -74t-47.5 -56q-30 -23 -67 -36t-76 -13h-220v580h98zM653 556h98v-580h-98v580z" />
    <glyph glyph-name="uni044C" unicode="&#x44c;" horiz-adv-x="950" 
d="M355 68h129q59 0 91 30t32 72q0 23 -10 42t-27 32t-39 20t-46 7h-130v-203zM355 556v-193h134q49 0 90.5 -15t70.5 -42t44.5 -65.5t13.5 -85.5q-2 -42 -20.5 -75.5t-47.5 -56.5t-66.5 -35t-77.5 -12h-241v580h100z" />
    <glyph glyph-name="uni044D" unicode="&#x44d;" horiz-adv-x="950" 
d="M430 227v92h195q-5 33 -16.5 64t-30.5 55q-19 23 -46 37t-63 14q-26 0 -49 -11t-42 -29q-20 -18 -35 -42.5t-24 -51.5h-104q15 51 39.5 92.5t57.5 71.5q32 30 71.5 46.5t84.5 16.5q64 0 113 -26t82 -69q32 -43 48.5 -98.5t16.5 -115.5t-16.5 -116t-48.5 -98
q-33 -43 -82 -69t-113 -26q-91 0 -156.5 60.5t-95.5 166.5h111q11 -60 50.5 -93.5t89.5 -33.5q36 0 63 13t47 35q19 22 30.5 51.5t16.5 63.5h-194z" />
    <glyph glyph-name="uni044E" unicode="&#x44e;" horiz-adv-x="950" 
d="M563 473q-39 0 -69 -19t-49 -49q-20 -30 -30 -67t-10 -73q0 -38 10 -75t30 -66q19 -30 49 -48.5t69 -18.5q38 0 67.5 19t49.5 49t30 67t10 73q0 37 -10 74t-30 67t-49.5 48.5t-67.5 18.5zM253 317h54q5 51 25 97t53 81q33 34 77.5 54t100.5 20q63 0 111 -26t81 -68
q32 -43 48.5 -98t16.5 -112t-16.5 -112t-48.5 -98q-33 -42 -81 -68t-111 -26q-56 0 -101 21.5t-78 57.5q-33 37 -53 84.5t-25 99.5h-53v-248h-99v580h99v-239z" />
    <glyph glyph-name="uni044F" unicode="&#x44f;" horiz-adv-x="950" 
d="M348 216q-45 23 -73.5 64.5t-28.5 96.5q0 41 15.5 73.5t42.5 56.5q27 23 62.5 35.5t75.5 13.5h224v-580h-99v221h-121q-35 -54 -70.5 -110.5t-70.5 -110.5h-112zM567 288v176h-104q-57 0 -87.5 -21t-30.5 -67q0 -26 9.5 -42.5t25.5 -26.5t37.5 -14t45.5 -5h104z" />
    <glyph glyph-name="uni0451" unicode="&#x451;" horiz-adv-x="950" 
d="M379 733q13 0 25 -5.5t22 -14.5q9 -10 14.5 -23t5.5 -27t-5.5 -26.5t-14.5 -21.5q-10 -10 -22 -15.5t-25 -5.5q-26 0 -46 20.5t-20 48.5q0 29 20 49.5t46 20.5zM571 733q13 0 25 -5.5t22 -14.5q9 -10 14.5 -23t5.5 -27t-5.5 -26.5t-14.5 -21.5q-10 -10 -22 -15.5
t-25 -5.5q-26 0 -46.5 20.5t-20.5 48.5q0 29 20.5 49.5t46.5 20.5zM475 584q64 0 114.5 -28t85.5 -75q34 -47 50.5 -109t12.5 -131h-414q0 -32 11.5 -62.5t31.5 -54.5q19 -24 47 -38.5t61 -14.5q56 0 90.5 33t49.5 80h117q-16 -49 -39 -90t-54 -70q-32 -29 -72.5 -45
t-91.5 -15q-63 1 -111.5 27.5t-82.5 70.5q-34 43 -51.5 98.5t-17.5 113.5t17.5 114t51.5 100q33 43 82 69.5t112 26.5zM621 344q-6 27 -19 51.5t-32 42.5t-43 28.5t-52 10.5q-26 0 -49.5 -11t-42.5 -29q-20 -19 -34 -43t-20 -50h292z" />
    <glyph glyph-name="uni2015" unicode="&#x2015;" horiz-adv-x="950" 
d="M941 404v-92h-932v92h932z" />
    <glyph glyph-name="quoteleft" unicode="&#x2018;" horiz-adv-x="242" 
d="M105 837h112l-18 -267h-76z" />
    <glyph glyph-name="quoteright" unicode="&#x2019;" horiz-adv-x="242" 
d="M25 837h112l-18 -267h-76z" />
    <glyph glyph-name="quotedblleft" unicode="&#x201c;" horiz-adv-x="410" 
d="M125 837h112l-18 -267h-76zM293 837h112l-18 -267h-76z" />
    <glyph glyph-name="quotedblright" unicode="&#x201d;" horiz-adv-x="410" 
d="M5 837h112l-18 -267h-76zM173 837h112l-18 -267h-76z" />
    <glyph glyph-name="dagger" unicode="&#x2020;" horiz-adv-x="950" 
d="M538 737q0 -28 -8 -63q-5 -22 -9 -49q6 1 11.5 2.5t13.5 3.5q23 5 46.5 9t49.5 1q56 -8 56 -64q0 -26 -14 -42.5t-39 -21.5q-24 -5 -45.5 -1t-43.5 10q-9 3 -15.5 4.5t-16.5 3.5q5 -22 18.5 -46.5t37.5 -35.5q-22 -22 -34 -51t-18 -62t-7 -66.5t-1 -64.5v-14.5v-27.5
q-1 -18 -1 -47v-74v-52.5t-1 -27.5q-3 -32 -16 -50t-27 -18q-20 0 -30.5 18t-12.5 51q-1 17 -1 46.5v66.5v129q0 31 -1 67.5t-7 70.5t-20 60.5t-40 37.5q30 22 45 45t20 46q-6 -2 -12.5 -3.5t-12.5 -3.5q-23 -6 -47.5 -11t-51.5 0q-26 5 -39 21.5t-13 42.5q0 56 54 64
q23 3 44.5 -0.5t44.5 -8.5q9 -2 16.5 -4t17.5 -4q-2 12 -5 24.5t-5 24.5q-2 13 -5 28t-3 32q0 13 2.5 30t9.5 31q6 14 18.5 24t33.5 10q19 0 31.5 -8t19.5 -21t9.5 -29.5t2.5 -32.5z" />
    <glyph glyph-name="daggerdbl" unicode="&#x2021;" horiz-adv-x="950" 
d="M310 519q4 1 8 1h8q-4 1 -8 1.5t-9 1.5q-53 12 -53 64q0 26 14 42t40 20q30 4 57.5 -2t59.5 -14q-2 13 -5 26.5t-5 27.5q-2 18 -5 38.5t1 41.5q6 29 21.5 45t40.5 16q52 0 61 -61q4 -22 2 -42t-7 -40q-7 -27 -10 -52q29 4 56.5 11t60.5 5q56 -10 56 -62q0 -53 -52 -64
q-26 -5 -49.5 -1t-46.5 10q-8 2 -12.5 3l-13.5 3v-35q5 1 11 2.5t13 3.5q21 5 43.5 9t50.5 1q29 -3 42.5 -19.5t13.5 -42.5q0 -54 -52 -64q-25 -5 -48 -1t-47 10q-8 2 -12.5 4t-13.5 4q5 -23 19 -45t26 -33q-34 -49 -41 -102.5t-7 -106.5v-161q0 -69 -43 -69q-16 0 -29.5 18
t-13.5 52v15v26q-1 18 -1 46v73q0 24 -0.5 50.5t-4.5 53.5q-5 26 -15 52.5t-29 51.5q17 15 29 36t17 42q-5 -2 -13.5 -3.5t-13.5 -3.5q-22 -6 -45 -10t-47 1q-25 6 -39 22t-14 42t14 42t40 20zM430 540l-14 -4l-14 -4q-15 -5 -30 -8t-31 -4q19 -1 37 -5t35 -8l17 -4v37z" />
    <glyph glyph-name="twodotenleader" unicode="&#x2025;" horiz-adv-x="950" 
d="M776 428v-140h-138v140h138zM312 428v-140h-138v140h138z" />
    <glyph glyph-name="ellipsis" unicode="&#x2026;" horiz-adv-x="950" 
d="M829 428v-140h-136v140h136zM544 428v-140h-137v140h137zM257 428v-140h-136v140h136z" />
    <glyph glyph-name="perthousand" unicode="&#x2030;" horiz-adv-x="950" 
d="M587 740h97l-542 -766h-95zM290 732q47 0 76.5 -32t28.5 -89q0 -34 -14 -72t-39 -69q-25 -32 -58.5 -52.5t-73.5 -20.5q-50 0 -77.5 32.5t-27.5 88.5q0 34 15 72t41 70q25 31 58.5 51.5t70.5 20.5zM313 613q0 13 -3 27t-15 14q-20 0 -38 -14.5t-32 -35.5q-15 -22 -25 -46
t-13 -43q0 -11 4 -25t14 -14q21 0 40.5 14.5t34.5 35.5t24 45t9 42zM493 324q47 0 76.5 -32.5t28.5 -89.5q0 -34 -14.5 -72t-38.5 -69q-25 -32 -59 -52.5t-73 -20.5q-50 0 -77.5 32.5t-27.5 88.5q0 34 15 72t41 70q25 32 58.5 52.5t70.5 20.5zM516 205q0 12 -3 26t-15 14
q-20 0 -38 -14.5t-32 -35.5q-15 -21 -25 -45t-13 -43q0 -11 4 -25.5t14 -14.5q21 0 40.5 14.5t34.5 35.5t24 45t9 43zM789 324q48 0 76.5 -32.5t27.5 -89.5q0 -34 -14 -72t-39 -69q-25 -32 -58.5 -52.5t-73.5 -20.5q-50 0 -77.5 32.5t-27.5 88.5q0 34 15.5 72t41.5 70
q25 32 58.5 52.5t70.5 20.5zM808 205q0 12 -3 26t-16 14q-20 0 -38 -14.5t-32 -35.5q-15 -21 -25 -45t-13 -43q0 -11 4 -25.5t14 -14.5q21 0 40.5 14.5t34.5 35.5t24.5 45t9.5 43z" />
    <glyph glyph-name="minute" unicode="&#x2032;" horiz-adv-x="950" 
d="M263 852l-195 -305l-51 20l97 285h149z" />
    <glyph glyph-name="second" unicode="&#x2033;" horiz-adv-x="950" 
d="M275 852l-195 -304l-52 19l98 285h149zM472 852l-196 -305l-51 20l97 285h150z" />
    <glyph glyph-name="uni203B" unicode="&#x203b;" horiz-adv-x="950" 
d="M694 432q29 0 50.5 -21t21.5 -53t-20.5 -53t-51.5 -21q-14 0 -27 6t-22 16q-10 10 -16 23t-6 28q0 29 19.5 52t51.5 23zM256 432q28 0 49.5 -21t21.5 -53t-19.5 -53t-51.5 -21q-14 0 -27 6t-23 16t-16 23t-6 28q0 29 20.5 52t51.5 23zM475 662q13 0 26 -6t24 -16
q10 -11 16 -24.5t6 -27.5q0 -32 -20 -53.5t-52 -21.5q-14 0 -26.5 6t-22.5 16q-11 10 -17 23.5t-6 29.5q0 29 20 51.5t52 22.5zM475 202q13 0 26 -6t24 -16q10 -10 16 -23t6 -28q0 -32 -20 -53.5t-52 -21.5q-27 0 -49.5 21t-22.5 53q0 29 20 51.5t52 22.5zM775 604
l-233 -245q56 -60 116 -124t117 -123l-67 -69l-233 244q-26 -28 -55.5 -58.5t-60.5 -62.5q-29 -30 -61 -63t-56 -59l-67 69l233 245q-20 20 -40.5 42t-40.5 44q-37 38 -78 81.5t-74 78.5l67 69l233 -245q42 44 85 89.5t86 90.5q15 16 32 33.5t31 32.5z" />
    <glyph glyph-name="uni2074" unicode="&#x2074;" horiz-adv-x="950" 
d="M108 564v75l146 203h77v-190h43v-88h-43v-51h-75v51h-148zM255 705l-42 -57h42v57z" />
    <glyph glyph-name="uni207F" unicode="&#x207f;" horiz-adv-x="969" 
d="M101 848h84v-17q15 12 34 16t39 2q22 -2 41.5 -12t33.5 -26q14 -17 22.5 -38t8.5 -43v-216h-85v196q0 24 -8 40t-35 16q-20 0 -34.5 -17.5t-14.5 -42.5v-192h-86v334z" />
    <glyph glyph-name="uni2081" unicode="&#x2081;" horiz-adv-x="950" 
d="M188 -96v196h-60v85q29 0 47 8t23 40h80v-329h-90z" />
    <glyph glyph-name="uni2082" unicode="&#x2082;" horiz-adv-x="950" 
d="M353 129q0 -26 -10 -46t-26 -36q-16 -15 -35.5 -28t-38.5 -26h112v-89h-247q-1 34 7 59.5t22 44.5q14 20 32 35t37 29q6 4 15.5 10t18.5 14q8 7 14 15.5t6 17.5q0 23 -24 23q-14 0 -20 -17.5t-7 -38.5h-94q1 29 9 55t24 46q15 20 37.5 31.5t51.5 11.5q30 0 52 -9t36 -24
q14 -16 21 -36t7 -42z" />
    <glyph glyph-name="uni2083" unicode="&#x2083;" horiz-adv-x="950" 
d="M118 113q1 62 35.5 96.5t82.5 34.5q23 0 44 -8.5t37 -22.5q16 -15 25.5 -33.5t9.5 -38.5q0 -21 -5.5 -36t-14.5 -26q12 -14 20 -31t8 -36q0 -48 -33 -79.5t-90 -31.5q-27 0 -50 11t-40 29q-17 19 -26.5 44.5t-9.5 54.5h83q0 -20 9 -35t29 -15q17 0 25.5 9t8.5 23
q0 10 -4.5 15.5t-10.5 7.5q-8 2 -21.5 2.5t-27.5 0.5v57h26.5t16.5 2q13 4 13 26q0 10 -7.5 16.5t-21.5 6.5q-16 0 -22.5 -13t-7.5 -30h-81z" />
    <glyph glyph-name="uni2084" unicode="&#x2084;" horiz-adv-x="950" 
d="M109 -45v75l146 203h77v-190h43v-88h-43v-51h-77v51h-146zM255 97l-43 -65h43v65z" />
    <glyph glyph-name="Euro" unicode="&#x20ac;" horiz-adv-x="950" 
d="M370 504h-109v114l220 78h29q33 0 54 -11.5t21 -51.5v-465q0 -11 11 -13q20 -3 35.5 -5.5t26.5 -8.5q10 -7 15 -19t5 -32v-71h-402v71q0 19 5.5 31t16.5 19q10 7 25 10t35 5q12 2 12 13v336zM747 828q88 0 132 -44t44 -122v-590q0 -50 -14.5 -87t-40.5 -57
q-25 -19 -52 -29.5t-56 -10.5h-571q-34 0 -63.5 10t-51.5 32q-22 23 -34.5 57.5t-12.5 84.5v590q0 78 42.5 122t133.5 44h544zM762 -25q35 0 55.5 23t20.5 62v599q0 34 -17.5 58t-61.5 24h-568q-44 0 -61.5 -24t-17.5 -58v-599q0 -38 18.5 -61.5t57.5 -23.5h574z" />
    <glyph glyph-name="uni2103" unicode="&#x2103;" horiz-adv-x="950" 
d="M858 221q-14 -60 -41 -109t-65 -85q-38 -35 -85.5 -54.5t-102.5 -19.5q-75 0 -132 30t-95 80q-38 49 -57 114t-19 136q0 70 19 135.5t57 115.5q38 49 95 79t132 30q57 0 105 -19t85 -52q37 -34 63 -80.5t41 -100.5h-102q-25 69 -73.5 112t-122.5 43q-52 0 -89 -22.5
t-61 -58.5q-24 -37 -35.5 -84.5t-11.5 -97.5t11 -97.5t35 -84.5t61.5 -59.5t89.5 -22.5q35 0 67 13.5t58 37.5q25 23 43 54t25 67h105zM206 785q24 0 46.5 -10.5t39.5 -27.5t27 -40t10 -48q0 -24 -9.5 -47t-25.5 -41q-17 -18 -39.5 -28.5t-48.5 -10.5t-48 10.5t-38 27.5
q-17 17 -26.5 40t-9.5 49q0 25 9 47.5t25 40.5q16 17 38.5 27.5t49.5 10.5zM206 699q-16 0 -26 -11.5t-10 -28.5t10 -28t26 -11q17 0 27 11t10 28t-10 28.5t-27 11.5z" />
    <glyph glyph-name="uni2109" unicode="&#x2109;" horiz-adv-x="950" 
d="M345 664h462v-92h-362v-206h320v-89h-320v-297h-100v684zM196 785q24 0 46.5 -10.5t39.5 -27.5t27 -40t10 -48q0 -24 -9.5 -47t-25.5 -41q-17 -18 -39.5 -28.5t-48.5 -10.5t-48 10.5t-38 27.5q-17 17 -26.5 40t-9.5 49q0 25 9 47.5t25 40.5q16 17 38.5 27.5t49.5 10.5z
M196 699q-16 0 -26 -11.5t-10 -28.5t10 -28t26 -11q17 0 27 11t10 28t-10 28.5t-27 11.5z" />
    <glyph glyph-name="uni2113" unicode="&#x2113;" horiz-adv-x="950" 
d="M282 680q-16 0 -27.5 -16.5t-20.5 -42.5t-15 -58t-9 -64q-4 -32 -5.5 -59.5t-1.5 -43.5q3 -132 26 -218q24 31 41.5 70.5t29.5 83.5q11 43 16 87.5t5 83.5q0 10 -1 38.5t-5 59.5t-12 55t-21 24zM287 782q30 0 51.5 -17.5t35.5 -45.5t22 -62t12 -67q4 -34 5 -62.5t1 -45.5
q0 -46 -8.5 -101t-25.5 -109t-43.5 -103.5t-63.5 -84.5q11 -17 20.5 -23t18.5 -6q13 0 25.5 12t23.5 31q10 18 18.5 39.5t14.5 39.5q11 -12 23 -24l24.5 -24.5t30.5 -27.5q-51 -121 -139 -139q-81 -18 -145 78q-25 -7 -48.5 -10t-62.5 -5l-26 96q19 0 47.5 1t48.5 6
q-20 59 -29.5 120t-9.5 125q0 33 3.5 75.5t11.5 88.5q7 45 20.5 89t33.5 79q19 34 46.5 55.5t63.5 21.5z" />
    <glyph glyph-name="uni2116" unicode="&#x2116;" horiz-adv-x="950" 
d="M335 6l-224 501v-501h-82v704h80l224 -502v502h82v-704h-80zM643 502q48 0 83 -22.5t59 -58.5q23 -36 34.5 -81t11.5 -91q0 -45 -11.5 -89.5t-34.5 -80.5q-24 -36 -59 -58.5t-83 -22.5t-83.5 22.5t-58.5 58.5q-23 35 -34.5 80t-11.5 90q0 46 11 91.5t35 81.5
q23 36 58.5 58t83.5 22zM643 413q-28 0 -48 -15.5t-32 -39.5q-13 -24 -19 -53t-6 -56t6 -56t19 -53q12 -24 32 -39t48 -15t47.5 15.5t32.5 39.5q12 23 18 52t6 56q0 28 -5.5 57t-17.5 53q-13 24 -33 39t-48 15zM871 122q12 0 23.5 -6t20.5 -15t14.5 -21t5.5 -24
q0 -25 -20 -44.5t-44 -19.5t-44 19.5t-20 44.5q0 12 5.5 24t14.5 21t20.5 15t23.5 6z" />
    <glyph glyph-name="uni2121" unicode="&#x2121;" horiz-adv-x="950" 
d="M229 617h-198v89h486v-89h-196v-611h-92v611zM558 502q51 0 91 -23.5t67 -62.5q27 -40 40.5 -93t10.5 -111h-318q2 -23 11.5 -45.5t24.5 -39.5q14 -18 33 -28.5t40 -10.5q39 0 64.5 26.5t36.5 64.5h106q-14 -44 -32.5 -79t-43.5 -60q-25 -24 -57 -37.5t-74 -13.5
q-50 1 -88.5 22.5t-64.5 57.5q-27 36 -41 82t-14 95q0 48 14 94t41 82t65.5 58t87.5 22zM666 309q-5 19 -15.5 36.5t-25.5 30.5t-32 20.5t-35 7.5q-19 0 -36 -7.5t-31 -20.5t-24.5 -30.5t-14.5 -36.5h214zM793 707h95v-700h-95v700z" />
    <glyph glyph-name="trademark" unicode="&#x2122;" horiz-adv-x="950" 
d="M149 650h-71v88h250v-88h-73v-295h-106v295zM476 738h106v-388h-81v123l-25 -123h-75l-25 123v-123h-86v388h107l40 -140z" />
    <glyph glyph-name="Omega" unicode="&#x2126;" horiz-adv-x="950" 
d="M391 135q0 28 11.5 40.5t26.5 15.5q36 10 61.5 32.5t41.5 53.5t23.5 68t7.5 76q0 44 -12.5 86.5t-36.5 75.5t-59 53t-80 20q-44 0 -78.5 -21t-57.5 -54q-24 -34 -36.5 -76t-12.5 -85q0 -41 7 -78t24 -67q16 -30 42.5 -52t65.5 -32q5 -1 12.5 -4.5t14.5 -9.5
q6 -7 10 -17.5t3 -25.5v-90q0 -24 -10.5 -43.5t-44.5 -19.5h-147v91h112v33q-48 16 -83 48t-57 74q-23 42 -33.5 91.5t-10.5 100.5q0 60 20 119t57 106q36 46 88 74.5t115 28.5q66 0 118.5 -27.5t89.5 -72.5q36 -46 55.5 -104.5t19.5 -121.5q0 -48 -11 -96t-33 -90
q-23 -43 -56 -76t-78 -50v-37h111v-91h-144q-35 0 -45.5 17.5t-10.5 43.5v93z" />
    <glyph glyph-name="uni212B" unicode="&#x212b;" horiz-adv-x="950" 
d="M475 758q-13 0 -22.5 -10t-9.5 -25q0 -16 9.5 -26t22.5 -10q14 0 23.5 10t9.5 26q0 15 -9.5 25t-23.5 10zM475 849q25 0 47 -10.5t39 -27.5q16 -18 25 -40.5t9 -47.5t-9 -47.5t-25 -39.5q-16 -18 -38 -28.5t-48 -10.5t-48 10.5t-38 28.5q-16 17 -25 39.5t-9 47.5t9 47.5
t26 40.5q16 17 37.5 27.5t47.5 10.5zM602 135h-251q-17 -40 -33.5 -80.5t-32.5 -80.5h-104l259 603h73l258 -603h-103zM387 229h176l-87 196z" />
    <glyph glyph-name="onethird" unicode="&#x2153;" horiz-adv-x="950" 
d="M406 26q0 -17 3 -32.5t11 -27.5t21 -19t33 -7q30 0 47 15.5t17 39.5q0 12 -7.5 20.5t-19.5 13.5t-26.5 7t-27.5 2h-41l2 86h37q12 0 24.5 2t22.5 7t16.5 14t6.5 23q0 17 -13.5 29t-39.5 12q-54 0 -54 -76h-100q0 40 12.5 70.5t33.5 51.5q21 20 49.5 30t60.5 10
q28 0 56 -8.5t50 -24.5q21 -17 34.5 -41t13.5 -55q0 -48 -35 -81q48 -36 48 -92q0 -63 -45.5 -102t-120.5 -39q-36 0 -66 10t-55 33q-47 42 -47 129h99zM132 391h686v-76h-686v76zM438 421v245h-85v93q29 1 51 4t30 8q6 5 11 19t5 37h87v-406h-99z" />
    <glyph glyph-name="twothirds" unicode="&#x2154;" horiz-adv-x="950" 
d="M132 391h686v-76h-686v76zM406 26q0 -17 3 -32.5t11 -27.5t21 -19t33 -7q30 0 47 15.5t17 39.5q0 12 -7.5 20.5t-19.5 13.5t-26.5 7t-27.5 2h-41l2 86h37q12 0 24.5 2t22.5 7t16.5 14t6.5 23q0 17 -13.5 29t-39.5 12q-54 0 -54 -76h-100q0 40 12.5 70.5t33.5 51.5
q21 20 49.5 30t60.5 10q28 0 56 -8.5t50 -24.5q21 -17 34.5 -41t13.5 -55q0 -48 -35 -81q48 -36 48 -92q0 -63 -45.5 -102t-120.5 -39q-36 0 -66 10t-55 33q-47 42 -47 129h99zM636 719q0 -48 -23 -78t-54 -52q-32 -22 -64.5 -40.5t-50.5 -44.5h192v-89h-332q1 38 9.5 67.5
t22.5 51.5q9 14 19 26t24 24q13 11 31.5 23t44.5 26q13 7 27 15.5t26 19.5q12 10 19.5 23t7.5 29q0 23 -14.5 36.5t-42.5 13.5q-38 0 -51 -24t-14 -62h-98q1 37 11 69.5t30 56.5t50.5 37.5t72.5 13.5q40 0 69.5 -11.5t49.5 -30.5q19 -20 28.5 -45.5t9.5 -54.5z" />
    <glyph glyph-name="oneeighth" unicode="&#x215b;" horiz-adv-x="950" 
d="M640 167q0 -21 -9 -42t-25 -38q24 -18 36.5 -41.5t12.5 -57.5q0 -33 -13.5 -59t-37.5 -44t-56.5 -27.5t-71.5 -9.5q-38 0 -70.5 10t-56.5 28t-37.5 44t-13.5 58q0 62 49 97q-17 17 -26 39t-9 43q0 62 45 96t119 34q36 0 66 -9t52 -25q21 -17 33.5 -41t12.5 -55zM476 41
q-36 0 -56 -15t-20 -38q0 -21 20 -36t56 -15q37 0 56.5 15t19.5 36q0 23 -19.5 38t-56.5 15zM476 208q-32 0 -46.5 -11.5t-14.5 -28.5t14.5 -28.5t46.5 -11.5q31 0 46.5 11.5t15.5 28.5t-15.5 28.5t-46.5 11.5zM132 391h686v-76h-686v76zM438 421v245h-85v93q29 1 51 4t30 8
q6 5 11 19t5 37h87v-406h-99z" />
    <glyph glyph-name="threeeighths" unicode="&#x215c;" horiz-adv-x="950" 
d="M640 167q0 -21 -9 -42t-25 -38q24 -18 36.5 -41.5t12.5 -57.5q0 -33 -13.5 -59t-37.5 -44t-56.5 -27.5t-71.5 -9.5q-38 0 -70.5 10t-56.5 28t-37.5 44t-13.5 58q0 62 49 97q-17 17 -26 39t-9 43q0 62 45 96t119 34q36 0 66 -9t52 -25q21 -17 33.5 -41t12.5 -55zM476 41
q-36 0 -56 -15t-20 -38q0 -21 20 -36t56 -15q37 0 56.5 15t19.5 36q0 23 -19.5 38t-56.5 15zM476 208q-32 0 -46.5 -11.5t-14.5 -28.5t14.5 -28.5t46.5 -11.5q31 0 46.5 11.5t15.5 28.5t-15.5 28.5t-46.5 11.5zM132 391h686v-76h-686v76zM406 592q0 -17 3 -32.5t11 -27.5
t21 -19t33 -7q30 0 47 15.5t17 39.5q0 12 -7.5 20.5t-19.5 13.5t-26.5 7t-27.5 2h-41l2 86h37q12 0 24.5 2t22.5 7t16.5 14t6.5 23q0 17 -13.5 29t-39.5 12q-54 0 -54 -76h-100q0 40 12.5 70.5t33.5 51.5q21 20 49.5 30t60.5 10q28 0 56 -8.5t50 -24.5q21 -17 34.5 -41
t13.5 -55q0 -48 -35 -81q48 -36 48 -92q0 -63 -45.5 -102t-120.5 -39q-36 0 -66 10t-55 33q-47 42 -47 129h99z" />
    <glyph glyph-name="fiveeighths" unicode="&#x215d;" horiz-adv-x="950" 
d="M304 606q2 12 8 47.5t13 76.5t13 77.5t9 50.5h267v-89h-184l-9 -42q16 4 33 5.5t31 1.5q29 0 55 -12t46 -32q20 -21 31.5 -49t11.5 -60q0 -34 -13 -63t-35 -50q-23 -21 -53 -33t-63 -12q-70 0 -115 40.5t-57 114.5h108q3 -28 20 -48.5t46 -20.5q28 0 45.5 19t17.5 48
t-16 49t-45 20q-21 0 -38.5 -10.5t-30.5 -27.5zM640 167q0 -21 -9 -42t-25 -38q24 -18 36.5 -41.5t12.5 -57.5q0 -33 -13.5 -59t-37.5 -44t-56.5 -27.5t-71.5 -9.5q-38 0 -70.5 10t-56.5 28t-37.5 44t-13.5 58q0 62 49 97q-17 17 -26 39t-9 43q0 62 45 96t119 34q36 0 66 -9
t52 -25q21 -17 33.5 -41t12.5 -55zM476 41q-36 0 -56 -15t-20 -38q0 -21 20 -36t56 -15q37 0 56.5 15t19.5 36q0 23 -19.5 38t-56.5 15zM476 208q-32 0 -46.5 -11.5t-14.5 -28.5t14.5 -28.5t46.5 -11.5q31 0 46.5 11.5t15.5 28.5t-15.5 28.5t-46.5 11.5zM132 391h686v-76
h-686v76z" />
    <glyph glyph-name="seveneighths" unicode="&#x215e;" horiz-adv-x="950" 
d="M313 840h327v-70q-30 -37 -56.5 -75.5t-46.5 -80.5t-32 -88.5t-13 -99.5h-102q0 37 10.5 80.5t27.5 88.5q17 44 39 85t45 72h-199v88zM640 167q0 -21 -9 -42t-25 -38q24 -18 36.5 -41.5t12.5 -57.5q0 -33 -13.5 -59t-37.5 -44t-56.5 -27.5t-71.5 -9.5q-38 0 -70.5 10
t-56.5 28t-37.5 44t-13.5 58q0 62 49 97q-17 17 -26 39t-9 43q0 62 45 96t119 34q36 0 66 -9t52 -25q21 -17 33.5 -41t12.5 -55zM476 41q-36 0 -56 -15t-20 -38q0 -21 20 -36t56 -15q37 0 56.5 15t19.5 36q0 23 -19.5 38t-56.5 15zM476 208q-32 0 -46.5 -11.5t-14.5 -28.5
t14.5 -28.5t46.5 -11.5q31 0 46.5 11.5t15.5 28.5t-15.5 28.5t-46.5 11.5zM132 396h686v-76h-686v76z" />
    <glyph glyph-name="uni2160" unicode="&#x2160;" horiz-adv-x="950" 
d="M425 736h100v-756h-100v756z" />
    <glyph glyph-name="uni2161" unicode="&#x2161;" horiz-adv-x="950" 
d="M312 736h98v-756h-98v756zM540 736h98v-756h-98v756z" />
    <glyph glyph-name="uni2162" unicode="&#x2162;" horiz-adv-x="950" 
d="M267 736h101v-756h-101v756zM582 736h101v-756h-101v756zM426 736h100v-756h-100v756z" />
    <glyph glyph-name="uni2163" unicode="&#x2163;" horiz-adv-x="950" 
d="M182 736h99v-756h-99v756zM585 -20h-87l-231 756h105l170 -570l168 570h106z" />
    <glyph glyph-name="uni2164" unicode="&#x2164;" horiz-adv-x="950" 
d="M521 -20h-84l-287 756h105l224 -600l225 600h102z" />
    <glyph glyph-name="uni2165" unicode="&#x2165;" horiz-adv-x="950" 
d="M760 736v-756h-100v756h100zM356 -20l-231 756h106l168 -571l170 571h105l-231 -756h-87z" />
    <glyph glyph-name="uni2166" unicode="&#x2166;" horiz-adv-x="950" 
d="M667 736v-756h-100v756h100zM289 -20l-201 756h104l142 -564l143 564h104l-202 -756h-90zM803 736v-756h-99v756h99z" />
    <glyph glyph-name="uni2167" unicode="&#x2167;" horiz-adv-x="950" 
d="M852 736v-756h-99v756h99zM606 736v-756h-99v756h99zM245 -20l-193 756h103l135 -556l134 556h103l-193 -756h-89zM730 736v-756h-100v756h100z" />
    <glyph glyph-name="uni2168" unicode="&#x2168;" horiz-adv-x="950" 
d="M592 369l253 -389h-111l-197 303l-197 -303h-112l253 389l-237 367h111l182 -282l182 282h111zM155 736h100v-756h-100v756z" />
    <glyph glyph-name="uni2169" unicode="&#x2169;" horiz-adv-x="950" 
d="M529 369l254 -389h-112l-197 303l-197 -303h-112l253 389l-238 367h112l182 -283l183 283h111z" />
    <glyph glyph-name="uni2170" unicode="&#x2170;" horiz-adv-x="950" 
d="M524 -19h-100v570h100v-570zM527 630h-109v110h109v-110z" />
    <glyph glyph-name="uni2171" unicode="&#x2171;" horiz-adv-x="950" 
d="M410 -19h-98v570h98v-570zM414 630h-106v109h106v-109zM639 -19h-98v570h98v-570zM643 630h-106v109h106v-109z" />
    <glyph glyph-name="uni2172" unicode="&#x2172;" horiz-adv-x="950" 
d="M368 -19h-101v570h101v-570zM371 630h-107v109h107v-109zM684 -19h-101v570h101v-570zM687 630h-107v109h107v-109zM526 -19h-100v570h100v-570zM530 630h-108v109h108v-109z" />
    <glyph glyph-name="uni2173" unicode="&#x2173;" horiz-adv-x="950" 
d="M291 -19h-99v570h99v-570zM295 630h-108v110h108v-110zM596 -19h-82l-236 570h108l169 -405l170 405h108z" />
    <glyph glyph-name="uni2174" unicode="&#x2174;" horiz-adv-x="950" 
d="M516 -27h-82l-236 570h108l169 -405l169 405h108z" />
    <glyph glyph-name="uni2175" unicode="&#x2175;" horiz-adv-x="950" 
d="M438 -19h-81l-236 570h108l169 -405l168 405h109zM770 -19h-100v570h100v-570zM773 630h-108v110h108v-110z" />
    <glyph glyph-name="uni2176" unicode="&#x2176;" horiz-adv-x="950" 
d="M377 -19h-81l-210 570h107l143 -399l142 399h109zM673 -19h-100v570h100v-570zM677 630h-106v109h106v-109zM804 -19h-100v570h100v-570zM806 630h-105v109h105v-109z" />
    <glyph glyph-name="uni2177" unicode="&#x2177;" horiz-adv-x="950" 
d="M326 -19h-84l-198 570h107l133 -396l133 396h108zM600 -19h-94v570h94v-570zM603 630h-100v109h100v-109zM726 -19h-94v570h94v-570zM729 630h-100v109h100v-109zM852 -19h-93v570h93v-570zM856 630h-100v109h100v-109z" />
    <glyph glyph-name="uni2178" unicode="&#x2178;" horiz-adv-x="950" 
d="M308 -19h-100v570h100v-570zM311 630h-107v110h107v-110zM547 190l-156 -209h-123l218 292l-208 278h123l147 -197l145 197h123l-206 -279l217 -291h-124z" />
    <glyph glyph-name="uni2179" unicode="&#x2179;" horiz-adv-x="950" 
d="M475 182l-156 -209h-122l216 292l-208 278h123l147 -197l148 197h121l-209 -278l220 -292h-125z" />
    <glyph glyph-name="arrowleft" unicode="&#x2190;" horiz-adv-x="950" 
d="M941 312h-584q9 -8 20 -17t19 -16l-27 -42l-352 121l350 119l27 -43l-34 -30h581v-92z" />
    <glyph glyph-name="arrowup" unicode="&#x2191;" horiz-adv-x="950" 
d="M429 -129v588q-6 -8 -13.5 -17t-12.5 -17l-47 25l118 381l119 -379l-44 -28l-30 36v-589h-90z" />
    <glyph glyph-name="arrowright" unicode="&#x2192;" horiz-adv-x="950" 
d="M8 404h589q-6 5 -15 13.5t-18 18.5l24 43l355 -121l-354 -122l-24 43l37 33h-594v92z" />
    <glyph glyph-name="arrowdown" unicode="&#x2193;" horiz-adv-x="950" 
d="M549 265l45 -28l-120 -376l-119 377l48 25l26 -34v598h90v-600z" />
    <glyph glyph-name="arrowboth" unicode="&#x2194;" horiz-adv-x="950" 
d="M362 274l-23 -46l-349 129l351 131l24 -48l-39 -36h302l-42 36l24 48l349 -130l-347 -130l-23 46l40 38h-308z" />
    <glyph glyph-name="arrowupdn" unicode="&#x2195;" horiz-adv-x="950" 
d="M397 463l-44 27l122 366l122 -366l-44 -27l-33 38v-288l34 41l44 -27l-122 -369l-123 368l45 27l32 -39v289z" />
    <glyph glyph-name="uni2196" unicode="&#x2196;" horiz-adv-x="950" 
d="M860 -113l-657 690v-93l-50 -9l-147 375l353 -158l-8 -51h-83l653 -687z" />
    <glyph glyph-name="uni2197" unicode="&#x2197;" horiz-adv-x="950" 
d="M20 -57l657 692h-92l-8 52l361 155l-151 -370l-52 8v84l-652 -686z" />
    <glyph glyph-name="uni2198" unicode="&#x2198;" horiz-adv-x="950" 
d="M86 834l657 -690v92l50 9l148 -376l-354 160l8 51h83l-653 687z" />
    <glyph glyph-name="uni2199" unicode="&#x2199;" horiz-adv-x="950" 
d="M921 763l-657 -692h92l8 -52l-360 -155l150 370l52 -8v-83l652 685z" />
    <glyph glyph-name="arrowdblright" unicode="&#x21d2;" horiz-adv-x="950" 
d="M614 477q-20 16 -43.5 33.5t-41.5 30.5l57 74l356 -258l-358 -259l-54 78l85 62h-585v92h712q12 8 18 12.5t19 14.5q-11 8 -20.5 14t-20.5 15h-708v91h584z" />
    <glyph glyph-name="arrowdblboth" unicode="&#x21d4;" horiz-adv-x="950" 
d="M614 478q-20 15 -44.5 32.5t-42.5 30.5l59 75l355 -258l-357 -259l-56 77l86 63h-279q22 -17 45.5 -33t43.5 -30l-58 -75l-356 257l360 261l54 -78l-85 -63h275zM739 330l41 27l-39 29h-532l-37 -27l38 -29h529z" />
    <glyph glyph-name="universal" unicode="&#x2200;" horiz-adv-x="950" 
d="M328 534h331l87 203h104l-314 -756h-84l-314 756h104zM621 442h-255l127 -309z" />
    <glyph glyph-name="partialdiff" unicode="&#x2202;" horiz-adv-x="950" 
d="M424 200q41 17 67.5 50.5t43.5 78.5q-22 -3 -47.5 -11t-50.5 -26q-15 -11 -24 -25t-14 -30q-2 -6 -1.5 -14t3.5 -14q3 -7 8.5 -10t14.5 1zM461 480q-19 -3 -32.5 -11t-21.5 -17q-23 -26 -39.5 -33.5t-30.5 11.5q-10 14 -4 33t19 32q28 28 63.5 49.5t86.5 20.5
q33 -1 60 -16.5t46 -39.5q19 -25 29.5 -55.5t10.5 -62.5q0 -43 -10 -77q-11 -35 -32.5 -70.5t-51.5 -63.5q-31 -28 -68.5 -45.5t-79.5 -17.5q-45 0 -72.5 24.5t-35.5 67.5q-6 30 5 59.5t34 55.5q22 25 52.5 44.5t63.5 27.5q23 5 48.5 7.5t44.5 2.5q-3 38 -22.5 59t-62.5 15z
" />
    <glyph glyph-name="existential" unicode="&#x2203;" horiz-adv-x="950" 
d="M738 736v-756h-536v92h438v254h-413v92h413v226h-430v92h528z" />
    <glyph glyph-name="gradient" unicode="&#x2207;" horiz-adv-x="950" 
d="M475 -5l-379 678h758zM253 581l223 -393l215 393h-438z" />
    <glyph glyph-name="element" unicode="&#x2208;" horiz-adv-x="950" 
d="M220 312q10 -71 59.5 -108t127.5 -40h402v-91h-392q-62 0 -115.5 19.5t-92.5 56.5q-40 36 -63 89t-23 120q0 65 21.5 117t60.5 89t93 57t119 22h392v-91h-402q-77 0 -128 -37.5t-59 -110.5h588v-92h-588z" />
    <glyph glyph-name="suchthat" unicode="&#x220b;" horiz-adv-x="950" 
d="M144 312v92h588q-8 73 -59 110.5t-128 37.5h-402v91h391q65 -2 119.5 -22t93.5 -57t60.5 -89t21.5 -117q0 -67 -23 -120t-62 -89q-40 -37 -94 -56.5t-116 -19.5h-391v91h402q78 3 127.5 40t59.5 108h-588z" />
    <glyph glyph-name="product" unicode="&#x220f;" horiz-adv-x="950" 
d="M800 699v-92h-157v-590h-91v590h-154v-590h-91v590h-157v92h650z" />
    <glyph glyph-name="summation" unicode="&#x2211;" horiz-adv-x="950" 
d="M752 699v-265h-91v173h-343l230 -249l-230 -249h350v174h92v-266h-534q-19 0 -34.5 10t-16.5 33q0 15 11.5 33.5t21.5 29.5l214 235q-104 114 -160.5 176t-66.5 73v92h557z" />
    <glyph glyph-name="radical" unicode="&#x221a;" horiz-adv-x="950" 
d="M83 234l122 90l58 -116q18 109 37 222t36 220h506v-93h-428l-91 -534q-2 -11 -13 -18.5t-22 -7.5q-10 0 -18.5 4.5t-13.5 14.5l-85 168l-46 -35z" />
    <glyph glyph-name="proportional" unicode="&#x221d;" horiz-adv-x="950" 
d="M793 451q-26 21 -44.5 27.5t-41.5 6.5q-29 0 -50 -11t-37 -29q-17 -18 -29 -41t-21 -47q7 -23 18.5 -45.5t27.5 -40.5t38.5 -29t52.5 -11q40 0 86 34l54 -77q-39 -26 -70.5 -38.5t-69.5 -12.5q-37 0 -67.5 9t-54.5 25q-24 15 -41.5 35t-28.5 42q-29 -48 -73 -79.5
t-110 -31.5q-45 0 -84 18t-67 49q-28 30 -44 70t-16 84t16 84t45 71q28 30 66.5 48t83.5 18q71 0 114.5 -32.5t72.5 -85.5q30 52 73.5 85t114.5 33q37 0 71 -13t68 -39zM212 358q0 -25 9 -48t25 -40q16 -18 38 -28.5t48 -10.5q28 0 49.5 10.5t37.5 28.5q15 18 27 40.5
t22 46.5q-9 23 -21.5 46t-28.5 41t-37.5 29.5t-48.5 11.5q-25 0 -47 -10.5t-38 -27.5t-25.5 -40.5t-9.5 -48.5z" />
    <glyph glyph-name="infinity" unicode="&#x221e;" horiz-adv-x="950" 
d="M313 552q44 0 81.5 -21.5t78.5 -80.5q26 45 63.5 73.5t100.5 28.5q38 0 72 -16t60 -43q25 -27 40 -62t15 -73t-15 -73t-40 -62q-26 -27 -60 -43t-72 -16q-55 0 -92 23.5t-69 74.5q-26 -45 -67 -71.5t-96 -26.5q-39 0 -73 15.5t-59 42.5q-26 27 -40.5 62t-14.5 74t14.5 74
t40.5 62q25 27 59 42.5t73 15.5zM729 358q0 19 -7 37t-19 32q-12 13 -29 21.5t-37 8.5q-19 0 -36 -10t-30 -25q-14 -15 -23.5 -32.5t-14.5 -32.5q6 -16 16 -33t24 -31q13 -15 29 -24.5t35 -9.5q20 0 37 8.5t29 22.5q12 13 19 31t7 37zM222 358q0 -19 7 -36.5t19 -31.5
t28.5 -22.5t36.5 -8.5q21 0 37 8.5t28 22.5t21.5 31.5t18.5 35.5q-9 18 -18.5 36t-21.5 33q-12 14 -28 22.5t-37 8.5q-20 0 -36.5 -8.5t-28.5 -22.5t-19 -31.5t-7 -36.5z" />
    <glyph glyph-name="angle" unicode="&#x2220;" horiz-adv-x="950" 
d="M303 128h515v-92h-631q-15 0 -26.5 7.5t-17.5 24.5q-5 14 5 28.5t19 24.5l543 575l67 -67z" />
    <glyph glyph-name="uni2225" unicode="&#x2225;" horiz-adv-x="950" 
d="M351 828h90v-940h-90v940zM508 828h90v-940h-90v940z" />
    <glyph glyph-name="logicaland" unicode="&#x2227;" horiz-adv-x="950" 
d="M725 7l-250 535l-249 -535l-77 47l284 613q5 10 18 21.5t24 11.5q16 0 26 -10.5t17 -24.5l283 -613z" />
    <glyph glyph-name="logicalor" unicode="&#x2228;" horiz-adv-x="950" 
d="M801 666l-283 -613q-7 -14 -17 -24.5t-26 -10.5q-11 0 -24 11.5t-18 21.5l-284 613l77 47l249 -535l250 535z" />
    <glyph glyph-name="intersection" unicode="&#x2229;" horiz-adv-x="950" 
d="M480 633q-39 0 -73 -13.5t-59 -39.5q-26 -27 -40.5 -64.5t-14.5 -85.5v-421h-91v410q0 63 19.5 119t55.5 98q35 42 85.5 66.5t112.5 24.5q66 0 116.5 -24.5t85.5 -66.5t53 -98t18 -119v-410h-91v421q0 40 -11.5 77t-33.5 65q-23 28 -56 44.5t-76 16.5z" />
    <glyph glyph-name="union" unicode="&#x222a;" horiz-adv-x="950" 
d="M480 83q43 0 76 16.5t56 44.5q22 28 33.5 64.5t11.5 77.5v421h91v-410q0 -63 -18 -119t-53 -98t-85.5 -66.5t-116.5 -24.5q-62 0 -112.5 24.5t-85.5 66.5q-36 42 -55.5 98t-19.5 119v410h91v-421q0 -48 14.5 -85.5t40.5 -63.5q25 -27 59 -40.5t73 -13.5z" />
    <glyph glyph-name="integral" unicode="&#x222b;" horiz-adv-x="950" 
d="M429 477q6 58 19 107.5t31 87.5q18 37 41.5 61.5t50.5 33.5q22 7 41 0t31 -22q11 -16 12.5 -36t-11.5 -38q-14 -18 -30 -24t-31 1q-5 2 -11.5 4.5t-12.5 3.5q-5 1 -8.5 -21t-6.5 -54t-5.5 -68.5t-3.5 -64.5q-2 -51 -5.5 -102.5t-8.5 -105.5q-6 -57 -18.5 -107t-30.5 -89
q-19 -38 -42.5 -63t-51.5 -31q-19 -3 -37.5 2.5t-32.5 22.5q-11 14 -12.5 32.5t5.5 32.5q5 10 14 17.5t19 12.5q10 4 20 5t16 -2q20 -8 27.5 5t10.5 43q8 89 9 176t12 180z" />
    <glyph glyph-name="uni222C" unicode="&#x222c;" horiz-adv-x="950" 
d="M312 477q7 58 19.5 107.5t30.5 87.5q18 37 41.5 61.5t50.5 33.5q22 7 41 0t31 -22q11 -16 12.5 -36t-11.5 -38q-14 -18 -30 -24t-31 1q-5 2 -11.5 4.5t-12.5 3.5q-5 1 -9 -21t-7 -54t-5 -68.5t-3 -64.5q-2 -51 -5.5 -102.5t-8.5 -105.5q-6 -57 -18.5 -107t-30.5 -89
q-19 -38 -42.5 -63t-51.5 -31q-19 -3 -37.5 2.5t-32.5 22.5q-11 14 -12.5 32.5t5.5 32.5q5 10 14 17.5t19 12.5q10 4 20 5t16 -2q20 -8 27.5 5t10.5 43q4 44 6 88l4 88q1 44 3.5 89t7.5 91zM546 477q7 58 19.5 107.5t30.5 87.5q18 37 41.5 61.5t50.5 33.5q22 7 41 0t31 -22
q11 -16 12.5 -36t-11.5 -38q-14 -18 -30 -24t-31 1q-5 2 -11.5 4.5t-12.5 3.5q-5 1 -9 -21t-7 -54t-5 -68.5t-3 -64.5q-2 -51 -5.5 -102.5t-8.5 -105.5q-6 -57 -18.5 -107t-30.5 -89q-19 -38 -42.5 -63t-51.5 -31q-19 -3 -37.5 2.5t-32.5 22.5q-11 14 -12.5 32.5t5.5 32.5
q5 10 14 17.5t19 12.5q10 4 20 5t16 -2q20 -8 27.5 5t10.5 43q4 44 6 88l4 88q1 44 3.5 89t7.5 91z" />
    <glyph glyph-name="uni222E" unicode="&#x222e;" horiz-adv-x="950" 
d="M354 112q10 23 16.5 47.5t14.5 53.5q-28 22 -44.5 54t-16.5 70q0 30 11.5 58.5t31.5 51.5q20 22 46.5 35.5t57.5 12.5q12 37 24.5 63.5t20.5 41.5q22 39 55 59.5t63 15.5q56 -12 64 -59q3 -23 -5 -39.5t-22 -26.5q-17 -11 -37.5 -5t-35.5 23q-5 -11 -13.5 -35t-22.5 -70
q28 -23 46 -57t18 -69q0 -29 -12 -56.5t-32 -49.5t-47 -35.5t-57 -13.5q-12 -38 -24.5 -66.5t-26.5 -53.5q-24 -41 -53.5 -55.5t-58.5 -9.5t-45.5 23t-18.5 35q-3 20 5 37t28 29q13 8 34.5 6t35.5 -15zM453 419q-23 -11 -35.5 -28.5t-16.5 -35.5q-4 -19 -1 -36t10 -27z
M500 261q7 3 19 12t21 24t11 36t-11 47z" />
    <glyph glyph-name="therefore" unicode="&#x2234;" horiz-adv-x="950" 
d="M703 198q13 0 26 -6t23 -16t16 -23t6 -28t-6 -28t-16 -23t-23 -16t-26 -6q-14 0 -26.5 6t-21.5 16q-10 10 -16 23t-6 28t6 28t16 23q9 10 21.5 16t26.5 6zM247 198q13 0 26 -6t23 -16q9 -10 15 -23t6 -28t-6 -28t-15 -23q-10 -10 -23 -16t-26 -6q-14 0 -26.5 6t-22.5 16
t-16 23t-6 28t6 28t16 23t22.5 16t26.5 6zM475 652q13 0 26 -6t23 -16t16 -23t6 -28t-6 -28t-16 -23t-23 -16t-26 -6q-14 0 -26.5 6t-22.5 16t-16 23t-6 28t6 28t16 23t22.5 16t26.5 6z" />
    <glyph glyph-name="uni2235" unicode="&#x2235;" horiz-adv-x="950" 
d="M703 517q-14 0 -26.5 6t-21.5 16q-10 10 -16 23t-6 28t6 28t16 23q9 10 21.5 16t26.5 6q13 0 26 -6t23 -16t16 -23t6 -28t-6 -28t-16 -23t-23 -16t-26 -6zM247 517q-14 0 -26.5 6t-22.5 16t-16 23t-6 28t6 28t16 23t22.5 16t26.5 6q13 0 26 -6t23 -16q9 -10 15 -23t6 -28
t-6 -28t-15 -23q-10 -10 -23 -16t-26 -6zM475 63q-14 0 -26.5 6t-22.5 16t-16 23t-6 28t6 28t16 23t22.5 16t26.5 6q13 0 26 -6t23 -16t16 -23t6 -28t-6 -28t-16 -23t-23 -16t-26 -6z" />
    <glyph glyph-name="similar" unicode="&#x223c;" horiz-adv-x="950" 
d="M75 283q3 52 20.5 101t48.5 86t74.5 57.5t99.5 15.5t94.5 -35t67.5 -81q45 -79 115 -83q33 -2 56.5 11.5t40.5 37.5q16 23 26.5 54.5t18.5 64.5h93q-10 -51 -26.5 -97.5t-43.5 -82.5t-65 -58t-90 -23q-62 -2 -111.5 31t-82.5 88q-22 36 -49 59t-55 25q-35 2 -59 -10
t-40 -35q-17 -23 -26.5 -55t-15.5 -71h-91z" />
    <glyph glyph-name="uni223D" unicode="&#x223d;" horiz-adv-x="950" 
d="M675 594q46 -1 83 -18.5t64 -47.5q26 -30 39.5 -71t12.5 -87q-1 -41 -16 -78.5t-42 -65.5t-63.5 -44.5t-80.5 -16.5q-33 0 -71 10.5t-68 36.5l36 78q25 -13 53 -22t55 -9q21 0 40 8.5t33 23.5t22 34t9 40q1 26 -6.5 50t-21.5 43q-15 18 -36 29.5t-46 13.5q-29 2 -53 -12
t-42 -36q-19 -22 -33.5 -48.5t-25.5 -50.5q-16 -34 -39.5 -69t-53.5 -63q-31 -28 -68 -44t-80 -11q-47 5 -83.5 23.5t-61.5 47.5q-26 29 -39 67.5t-12 84.5q1 40 16 77.5t42 66.5q27 28 63.5 45t80.5 17q15 0 33.5 -4t37.5 -11t36.5 -18t31.5 -24l-41 -76q-26 19 -51 29.5
t-51 10.5q-22 0 -41.5 -8.5t-33.5 -22.5q-15 -15 -23.5 -35t-8.5 -42q0 -59 29 -97t83 -41q30 -2 53.5 12.5t42.5 37.5q18 22 32 47.5t25 46.5q18 35 39 69.5t49 62.5t65 45t86 16z" />
    <glyph glyph-name="uni2252" unicode="&#x2252;" horiz-adv-x="950" 
d="M132 485h686v-97h-686v97zM132 328h686v-97h-686v97zM290 687q32 0 52.5 -23t20.5 -53t-20.5 -53t-52.5 -23t-52.5 23t-20.5 53t20.5 53t52.5 23zM658 183q15 0 28 -6.5t24 -16.5q10 -11 16 -24.5t6 -28.5t-6 -29t-16 -25q-11 -10 -24 -16t-28 -6q-14 0 -27 6t-23 16
q-11 11 -17.5 25t-6.5 29t6.5 28.5t17.5 24.5q10 10 23 16.5t27 6.5z" />
    <glyph glyph-name="notequal" unicode="&#x2260;" horiz-adv-x="950" 
d="M462 500l73 226l93 -25l-61 -201h261v-96h-294l-31 -96h325v-98h-357l-76 -220l-96 18l68 202h-225v98h258q0 1 1 3.5t4 12.5q3 9 9 28t17 52h-289v96h320z" />
    <glyph glyph-name="equivalence" unicode="&#x2261;" horiz-adv-x="950" 
d="M132 551h686v-91h-686v91zM132 404h686v-92h-686v92zM132 256h686v-91h-686v91z" />
    <glyph glyph-name="lessequal" unicode="&#x2264;" horiz-adv-x="950" 
d="M321 454l492 -219l-43 -88l-593 261q-12 5 -24.5 18.5t-12.5 27.5q0 9 7.5 21.5t20.5 18.5l609 270l34 -91zM123 148h703v-98h-703v98z" />
    <glyph glyph-name="greaterequal" unicode="&#x2265;" horiz-adv-x="950" 
d="M148 673l34 91l609 -270q14 -6 21 -18.5t7 -21.5q0 -14 -12.5 -27.5t-24.5 -18.5l-593 -261l-43 89l492 218zM836 50h-703v98h703v-98z" />
    <glyph glyph-name="uni226A" unicode="&#x226a;" horiz-adv-x="950" 
d="M594 730l55 -72l-410 -300l411 -301l-58 -69l-449 330q-12 9 -20 17.5t-8 22.5t9 23.5t20 17.5zM807 730l56 -72l-411 -300l412 -301l-60 -68l-448 329q-12 9 -19.5 17.5t-7.5 22.5q0 13 8.5 23t19.5 18z" />
    <glyph glyph-name="uni226B" unicode="&#x226b;" horiz-adv-x="950" 
d="M807 399q11 -8 20 -17.5t9 -23.5t-8 -22.5t-20 -17.5l-449 -330l-58 69l410 301l-409 300l55 72zM594 399q11 -8 19.5 -18t8.5 -23q0 -14 -7.5 -22.5t-19.5 -17.5l-448 -329l-60 68l411 301l-410 300l56 72z" />
    <glyph glyph-name="propersubset" unicode="&#x2282;" horiz-adv-x="950" 
d="M216 363q0 -43 14 -78t39 -60q25 -26 60.5 -41.5t77.5 -19.5h402v-91h-392q-62 0 -115.5 19.5t-92.5 56.5q-40 36 -63 89t-23 120q0 65 21.5 117t60.5 89t93 57.5t119 21.5h392v-91h-402q-40 0 -74.5 -13.5t-59.5 -38.5q-26 -26 -41 -60.5t-16 -76.5z" />
    <glyph glyph-name="propersuperset" unicode="&#x2283;" horiz-adv-x="950" 
d="M736 363q-2 42 -16.5 76.5t-39.5 60.5q-26 25 -60.5 38.5t-74.5 13.5h-402v91h391q65 -1 119.5 -21.5t93.5 -57.5t60.5 -89t21.5 -117q0 -67 -23 -120t-62 -89q-40 -37 -94 -56.5t-116 -19.5h-391v91h402q42 4 77.5 19.5t60.5 41.5q25 25 39 60t14 78z" />
    <glyph glyph-name="reflexsubset" unicode="&#x2286;" horiz-adv-x="950" 
d="M123 127h703v-91h-703v91zM215 432q0 -37 14.5 -67t40.5 -51q25 -21 60 -31t77 -8h402v-92h-392q-62 -3 -116 13.5t-93 49.5q-40 32 -62.5 79t-22.5 107t22.5 107t62.5 80q39 32 93 48t116 13h392v-91h-402q-41 2 -76.5 -8t-60.5 -31q-26 -21 -40.5 -51t-14.5 -67z" />
    <glyph glyph-name="reflexsuperset" unicode="&#x2287;" horiz-adv-x="950" 
d="M826 36h-703v91h703v-91zM734 432q0 37 -14.5 67t-39.5 51q-26 21 -61.5 31t-76.5 8h-402v91h392q62 3 116 -13t94 -48q39 -33 61.5 -80t22.5 -107t-22.5 -107t-61.5 -79q-40 -33 -94 -49.5t-116 -13.5h-392v92h402q42 -2 77 8t61 31q25 21 39.5 51t14.5 67z" />
    <glyph glyph-name="uni2299" unicode="&#x2299;" horiz-adv-x="950" 
d="M476 762q82 0 152.5 -33t122.5 -89t81.5 -129t29.5 -154t-30 -154t-82 -128q-52 -56 -122.5 -89t-151.5 -33q-83 0 -153.5 32.5t-122.5 88.5q-53 55 -82.5 128.5t-29.5 154.5t30 154.5t82 129.5q52 55 123 88t153 33zM476 663q-63 0 -116.5 -24.5t-92.5 -66.5t-61 -97.5
t-22 -117.5t22 -117.5t61 -97.5t92.5 -66.5t116.5 -24.5q62 0 115 25t92 67t61 97.5t22 116.5q0 60 -22.5 115.5t-61.5 97.5t-92 67.5t-114 25.5zM476 535q35 0 66 -15t55 -39q23 -25 36.5 -57.5t13.5 -67.5t-13.5 -66.5t-36.5 -56.5t-54 -39.5t-67 -14.5t-67 14.5t-54 39.5
t-36.5 56.5t-13.5 66.5t13.5 67.5t36.5 57.5q23 24 54.5 39t66.5 15z" />
    <glyph glyph-name="perpendicular" unicode="&#x22a5;" horiz-adv-x="950" 
d="M150 127h277v534h96v-534h277v-92h-650v92z" />
    <glyph glyph-name="uni2312" unicode="&#x2312;" horiz-adv-x="950" 
d="M129 362q8 71 38 133t76 108t105.5 72.5t126.5 26.5t126.5 -26.5t106.5 -72.5q46 -46 76 -108t38 -133h-97q-8 51 -30 96t-55 78t-75 52t-90 19t-89.5 -19t-73.5 -52q-33 -33 -55.5 -78t-31.5 -96h-96z" />
    <glyph glyph-name="uni2460" unicode="&#x2460;" horiz-adv-x="1000" 
d="M38 376q0 95 36 179t99 147q62 62 146.5 98.5t180.5 36.5t180 -36.5t147 -98.5q62 -63 98 -147t36 -179t-36 -179t-98 -147q-63 -63 -147 -99.5t-180 -36.5t-180.5 36.5t-146.5 99.5q-63 63 -99 147t-36 179zM120 376q0 -78 30 -147t82 -121t121 -82t147 -30t147 30
t121 82t82 121t30 147t-30 147t-82 121t-121 82t-147 30t-147 -30t-121 -82t-82 -121t-30 -147zM398 655l170 13v-587h-96v505h-74v69z" />
    <glyph glyph-name="uni2461" unicode="&#x2461;" horiz-adv-x="1000" 
d="M38 376q0 95 36 179t99 147q62 62 146.5 98.5t180.5 36.5t180 -36.5t147 -98.5q62 -63 98 -147t36 -179t-36 -179t-98 -147q-63 -63 -147 -99.5t-180 -36.5t-180.5 36.5t-146.5 99.5q-63 63 -99 147t-36 179zM120 376q0 -78 30 -147t82 -121t121 -82t147 -30t147 30
t121 82t82 121t30 147t-30 147t-82 121t-121 82t-147 30t-147 -30t-121 -82t-82 -121t-30 -147zM712 163v-79h-405v5q45 48 75.5 81t47.5 52q74 83 110 138q47 70 47 125q0 50 -32 80q-32 32 -83 32q-79 0 -151 -81v106q82 56 159 56q88 0 147 -51q57 -51 57 -132
q0 -70 -48 -143q-43 -66 -160 -189h236z" />
    <glyph glyph-name="uni2462" unicode="&#x2462;" horiz-adv-x="1000" 
d="M38 376q0 95 36 179t99 147q62 62 146.5 98.5t180.5 36.5t180 -36.5t147 -98.5q62 -63 98 -147t36 -179t-36 -179t-98 -147q-63 -63 -147 -99.5t-180 -36.5t-180.5 36.5t-146.5 99.5q-63 63 -99 147t-36 179zM120 376q0 -78 30 -147t82 -121t121 -82t147 -30t147 30
t121 82t82 121t30 147t-30 147t-82 121t-121 82t-147 30t-147 -30t-121 -82t-82 -121t-30 -147zM368 653q56 25 129 25q88 0 144 -41q27 -22 40.5 -49t13.5 -64q0 -91 -87 -131q48 -14 74 -57q23 -34 23 -84q0 -78 -59 -129q-61 -49 -153 -49q-67 0 -142 32v92
q77 -43 150 -43q48 0 78 24t30 70q0 44 -38 74q-18 14 -44.5 19.5t-61.5 4.5v76q133 0 133 86q0 41 -32 65q-29 22 -84 22q-52 0 -114 -23v80z" />
    <glyph glyph-name="uni2463" unicode="&#x2463;" horiz-adv-x="1000" 
d="M38 376q0 95 36 179t99 147q62 62 146.5 98.5t180.5 36.5t180 -36.5t147 -98.5q62 -63 98 -147t36 -179t-36 -179t-98 -147q-63 -63 -147 -99.5t-180 -36.5t-180.5 36.5t-146.5 99.5q-63 63 -99 147t-36 179zM120 376q0 -78 30 -147t82 -121t121 -82t147 -30t147 30
t121 82t82 121t30 147t-30 147t-82 121t-121 82t-147 30t-147 -30t-121 -82t-82 -121t-30 -147zM526 504l-154 -172h155v172h-1zM624 663v-331h72v-83h-72v-166h-97v166h-283v45l334 369h46z" />
    <glyph glyph-name="uni2464" unicode="&#x2464;" horiz-adv-x="1000" 
d="M38 376q0 95 36 179t99 147q62 62 146.5 98.5t180.5 36.5t180 -36.5t147 -98.5q62 -63 98 -147t36 -179t-36 -179t-98 -147q-63 -63 -147 -99.5t-180 -36.5t-180.5 36.5t-146.5 99.5q-63 63 -99 147t-36 179zM120 376q0 -78 30 -147t82 -121t121 -82t147 -30t147 30
t121 82t82 121t30 147t-30 147t-82 121t-121 82t-147 30t-147 -30t-121 -82t-82 -121t-30 -147zM662 663v-77h-211v-129q113 6 179 -50q64 -52 64 -140q0 -84 -61 -138q-61 -55 -158 -55q-82 0 -161 38v88q71 -44 146 -44q53 0 97 33q20 16 30 35.5t10 40.5q0 49 -40 80
q-44 35 -118 35q-35 0 -74 -9v292h297z" />
    <glyph glyph-name="uni2465" unicode="&#x2465;" horiz-adv-x="1000" 
d="M38 376q0 95 36 179t99 147q62 62 146.5 98.5t180.5 36.5t180 -36.5t147 -98.5q62 -63 98 -147t36 -179t-36 -179t-98 -147q-63 -63 -147 -99.5t-180 -36.5t-180.5 36.5t-146.5 99.5q-63 63 -99 147t-36 179zM120 376q0 -78 30 -147t82 -121t121 -82t147 -30t147 30
t121 82t82 121t30 147t-30 147t-82 121t-121 82t-147 30t-147 -30t-121 -82t-82 -121t-30 -147zM497 357q-26 0 -52.5 -8t-54.5 -22q-2 -13 -4 -23t-2 -20q0 -53 37 -87q32 -31 80 -31q49 0 78 28q14 14 21.5 31.5t7.5 40.5q0 38 -32 65q-31 26 -79 26zM360 520
q70 106 199 184l58 -66q-70 -38 -128 -99q-28 -31 -47 -61t-30 -62q54 24 106 24q79 0 134 -50q53 -50 53 -125q0 -73 -58 -128q-57 -53 -140 -53q-97 0 -156 59q-60 58 -60 156q0 114 69 221z" />
    <glyph glyph-name="uni2466" unicode="&#x2466;" horiz-adv-x="1000" 
d="M38 376q0 95 36 179t99 147q62 62 146.5 98.5t180.5 36.5t180 -36.5t147 -98.5q62 -63 98 -147t36 -179t-36 -179t-98 -147q-63 -63 -147 -99.5t-180 -36.5t-180.5 36.5t-146.5 99.5q-63 63 -99 147t-36 179zM120 376q0 -78 30 -147t82 -121t121 -82t147 -30t147 30
t121 82t82 121t30 147t-30 147t-82 121t-121 82t-147 30t-147 -30t-121 -82t-82 -121t-30 -147zM738 647l-295 -596l-86 33l236 481h-289v82h434z" />
    <glyph glyph-name="uni2467" unicode="&#x2467;" horiz-adv-x="1000" 
d="M38 376q0 95 36 179t99 147q62 62 146.5 98.5t180.5 36.5t180 -36.5t147 -98.5q62 -63 98 -147t36 -179t-36 -179t-98 -147q-63 -63 -147 -99.5t-180 -36.5t-180.5 36.5t-146.5 99.5q-63 63 -99 147t-36 179zM120 376q0 -78 30 -147t82 -121t121 -82t147 -30t147 30
t121 82t82 121t30 147t-30 147t-82 121t-121 82t-147 30t-147 -30t-121 -82t-82 -121t-30 -147zM577 449q31 25 31 61q0 40 -29 65q-28 25 -74 25q-49 0 -76 -24q-30 -26 -30 -63q0 -38 31 -63q30 -26 73 -26q45 0 74 25zM621 385q94 -45 94 -143q0 -35 -15 -65t-47 -54
q-60 -47 -150 -47q-93 0 -155 47q-62 49 -62 120q0 93 95 142q-79 49 -79 126q0 72 59 122q59 47 147 47q84 0 141 -48q56 -50 56 -122q0 -77 -84 -125zM588 185q30 25 30 65q0 39 -32 66q-17 12 -37 19.5t-46 7.5q-54 0 -87 -27q-33 -26 -33 -66q0 -41 33 -68
q32 -25 84 -25q28 0 50 6.5t38 21.5z" />
    <glyph glyph-name="uni2468" unicode="&#x2468;" horiz-adv-x="1000" 
d="M38 376q0 95 36 179t99 147q62 62 146.5 98.5t180.5 36.5t180 -36.5t147 -98.5q62 -63 98 -147t36 -179t-36 -179t-98 -147q-63 -63 -147 -99.5t-180 -36.5t-180.5 36.5t-146.5 99.5q-63 63 -99 147t-36 179zM120 376q0 -78 30 -147t82 -121t121 -82t147 -30t147 30
t121 82t82 121t30 147t-30 147t-82 121t-121 82t-147 30t-147 -30t-121 -82t-82 -121t-30 -147zM430 568q-31 -28 -31 -68q0 -39 34 -67q34 -29 80 -29q52 0 103 33q3 11 4 23t1 26q0 45 -33 78q-32 31 -79 31q-48 0 -79 -27zM644 235q-77 -113 -193 -177l-60 63
q175 100 205 227q-45 -26 -105 -26q-79 0 -134 52t-55 125q0 70 56 124q58 55 149 55t153 -62q60 -62 60 -159q0 -110 -76 -222z" />
    <glyph glyph-name="uni2469" unicode="&#x2469;" horiz-adv-x="1000" 
d="M38 376q0 95 36 179t99 147q62 62 146.5 98.5t180.5 36.5t180 -36.5t147 -98.5q62 -63 98 -147t36 -179t-36 -179t-98 -147q-63 -63 -147 -99.5t-180 -36.5t-180.5 36.5t-146.5 99.5q-63 63 -99 147t-36 179zM120 376q0 -78 30 -147t82 -121t121 -82t147 -30t147 30
t121 82t82 121t30 147t-30 147t-82 121t-121 82t-147 30t-147 -30t-121 -82t-82 -121t-30 -147zM678 212q14 29 20 69t6 91t-6 90.5t-20 68.5q-27 56 -69 56q-44 0 -69 -56q-14 -29 -20 -68.5t-6 -90.5t6 -91t20 -69q25 -56 69 -56q42 0 69 56zM609 674q54 0 89.5 -30.5
t56.5 -75.5q21 -46 29.5 -99t8.5 -97q0 -27 -3.5 -60t-11.5 -66q-8 -34 -22 -65.5t-34 -55.5q-20 -25 -48 -40t-65 -15q-54 0 -89.5 30.5t-56.5 75.5t-29.5 98t-8.5 98q0 27 3.5 60t11.5 67q8 33 22 64.5t34 56.5q20 24 48 39t65 15zM243 663l143 10v-595h-87v514h-56v71z
" />
    <glyph glyph-name="uni246A" unicode="&#x246a;" horiz-adv-x="1000" 
d="M38 376q0 95 36 179t99 147q62 62 146.5 98.5t180.5 36.5t180 -36.5t147 -98.5q62 -63 98 -147t36 -179t-36 -179t-98 -147q-63 -63 -147 -99.5t-180 -36.5t-180.5 36.5t-146.5 99.5q-63 63 -99 147t-36 179zM120 376q0 -78 30 -147t82 -121t121 -82t147 -30t147 30
t121 82t82 121t30 147t-30 147t-82 121t-121 82t-147 30t-147 -30t-121 -82t-82 -121t-30 -147zM273 663l143 10v-595h-87v514h-56v71zM564 663l143 10v-595h-87v514h-56v71z" />
    <glyph glyph-name="uni246B" unicode="&#x246b;" horiz-adv-x="1000" 
d="M38 376q0 95 36 179t99 147q62 62 146.5 98.5t180.5 36.5t180 -36.5t147 -98.5q62 -63 98 -147t36 -179t-36 -179t-98 -147q-63 -63 -147 -99.5t-180 -36.5t-180.5 36.5t-146.5 99.5q-63 63 -99 147t-36 179zM120 376q0 -78 30 -147t82 -121t121 -82t147 -30t147 30
t121 82t82 121t30 147t-30 147t-82 121t-121 82t-147 30t-147 -30t-121 -82t-82 -121t-30 -147zM782 162v-79h-355v5q41 48 68.5 81t42.5 52q64 81 99 138q42 70 42 125q0 49 -29 80q-27 32 -74 32q-72 0 -136 -81v106q73 56 143 56q79 0 132 -51q52 -52 52 -132
q0 -69 -44 -143q-19 -32 -54.5 -79.5t-89.5 -109.5h203zM243 663l143 10v-595h-87v514h-56v71z" />
    <glyph glyph-name="uni246C" unicode="&#x246c;" horiz-adv-x="1000" 
d="M38 376q0 95 36 179t99 147q62 62 146.5 98.5t180.5 36.5t180 -36.5t147 -98.5q62 -63 98 -147t36 -179t-36 -179t-98 -147q-63 -63 -147 -99.5t-180 -36.5t-180.5 36.5t-146.5 99.5q-63 63 -99 147t-36 179zM120 376q0 -78 30 -147t82 -121t121 -82t147 -30t147 30
t121 82t82 121t30 147t-30 147t-82 121t-121 82t-147 30t-147 -30t-121 -82t-82 -121t-30 -147zM479 652q26 13 55 19t61 6q41 0 72.5 -10.5t57.5 -30.5q24 -22 36 -49t12 -64q0 -91 -78 -131q42 -14 67 -57q20 -34 20 -84q0 -78 -53 -129q-55 -49 -138 -49q-60 0 -127 32
v92q69 -43 135 -43q43 0 70 24t27 70q0 43 -34 74q-31 26 -96 24v76q120 0 120 86q0 41 -29 65q-26 22 -75 22q-47 0 -103 -23v80zM243 663l143 10v-595h-87v514h-56v71z" />
    <glyph glyph-name="uni246D" unicode="&#x246d;" horiz-adv-x="1000" 
d="M38 376q0 95 36 179t99 147q62 62 146.5 98.5t180.5 36.5t180 -36.5t147 -98.5q62 -63 98 -147t36 -179t-36 -179t-98 -147q-63 -63 -147 -99.5t-180 -36.5t-180.5 36.5t-146.5 99.5q-63 63 -99 147t-36 179zM120 376q0 -78 30 -147t82 -121t121 -82t147 -30t147 30
t121 82t82 121t30 147t-30 147t-82 121t-121 82t-147 30t-147 -30t-121 -82t-82 -121t-30 -147zM532 332h109v157zM729 663v-331h64v-83h-64v-166h-88v166h-224v45l270 369h42zM243 663l143 10v-595h-87v514h-56v71z" />
    <glyph glyph-name="uni246E" unicode="&#x246e;" horiz-adv-x="1000" 
d="M38 376q0 95 36 179t99 147q62 62 146.5 98.5t180.5 36.5t180 -36.5t147 -98.5q62 -63 98 -147t36 -179t-36 -179t-98 -147q-63 -63 -147 -99.5t-180 -36.5t-180.5 36.5t-146.5 99.5q-63 63 -99 147t-36 179zM120 376q0 -78 30 -147t82 -121t121 -82t147 -30t147 30
t121 82t82 121t30 147t-30 147t-82 121t-121 82t-147 30t-147 -30t-121 -82t-82 -121t-30 -147zM484 663v-292q34 9 66 9q68 0 107 -35q36 -32 36 -80q0 -21 -9 -40.5t-27 -35.5q-20 -16 -41 -24.5t-47 -8.5q-67 0 -131 44v-88q72 -38 145 -38q87 0 142 55q55 54 55 138
q0 88 -58 140q-59 56 -161 50v129h190v77h-267zM243 663l143 10v-595h-87v514h-56v71z" />
    <glyph glyph-name="uni2474" unicode="&#x2474;" horiz-adv-x="1000" 
d="M169 -34q-55 92 -92 194t-37 216t37 216t92 194h85q-23 -46 -45 -96t-39 -102q-17 -53 -27 -106.5t-10 -105.5q0 -53 10 -106.5t27 -105.5q16 -52 38 -102t46 -96h-85zM748 -34q24 46 46 96t39 102q16 52 26 105.5t10 106.5q0 52 -10 105.5t-27 106.5q-17 52 -39 102
t-45 96h85q55 -92 92 -194t37 -216t-37 -216t-92 -194h-85zM395 671l176 13v-619h-99v535h-77v71z" />
    <glyph glyph-name="uni2475" unicode="&#x2475;" horiz-adv-x="1000" 
d="M169 -34q-55 92 -92 194t-37 216t37 216t92 194h85q-23 -46 -45 -96t-39 -102q-17 -53 -27 -106.5t-10 -105.5q0 -53 10 -106.5t27 -105.5q16 -52 38 -102t46 -96h-85zM748 -34q24 46 46 96t39 102q16 52 26 105.5t10 106.5q0 52 -10 105.5t-27 106.5q-17 52 -39 102
t-45 96h85q55 -92 92 -194t37 -216t-37 -216t-92 -194h-85zM722 152v-83h-425v5q48 51 80 85.5t49 54.5q38 43 67 79t49 66q49 74 49 131q0 52 -34 84q-34 34 -87 34q-82 0 -158 -85v111q85 59 167 59q92 0 154 -54q60 -53 60 -138q0 -74 -51 -150q-22 -35 -64 -84.5
t-104 -114.5h248z" />
    <glyph glyph-name="uni2476" unicode="&#x2476;" horiz-adv-x="1000" 
d="M169 -34q-55 92 -92 194t-37 216t37 216t92 194h85q-23 -46 -45 -96t-39 -102q-17 -53 -27 -106.5t-10 -105.5q0 -53 10 -106.5t27 -105.5q16 -52 38 -102t46 -96h-85zM748 -34q24 46 46 96t39 102q16 52 26 105.5t10 106.5q0 52 -10 105.5t-27 106.5q-17 52 -39 102
t-45 96h85q55 -92 92 -194t37 -216t-37 -216t-92 -194h-85zM360 667q30 14 64 20t71 6q92 0 152 -43q28 -23 42 -51.5t14 -67.5q0 -95 -91 -137q51 -15 78 -60q11 -17 17.5 -39.5t6.5 -48.5q0 -82 -62 -136q-32 -25 -71.5 -38t-89.5 -13q-71 0 -149 33v97q40 -22 79 -33.5
t79 -11.5q51 0 82 25t31 74q0 45 -40 77q-19 14 -47 20.5t-64 5.5v79q139 0 139 91q0 42 -33 68q-16 12 -38.5 17.5t-49.5 5.5t-56.5 -5.5t-63.5 -18.5v84z" />
    <glyph glyph-name="uni2477" unicode="&#x2477;" horiz-adv-x="1000" 
d="M169 -34q-55 92 -92 194t-37 216t37 216t92 194h85q-23 -46 -45 -96t-39 -102q-17 -53 -27 -106.5t-10 -105.5q0 -53 10 -106.5t27 -105.5q16 -52 38 -102t46 -96h-85zM748 -34q24 46 46 96t39 102q16 52 26 105.5t10 106.5q0 52 -10 105.5t-27 106.5q-17 52 -39 102
t-45 96h85q55 -92 92 -194t37 -216t-37 -216t-92 -194h-85zM529 511l-162 -181h163v181h-1zM632 677v-347h75v-87h-75v-175h-102v175h-297v47l350 387h49z" />
    <glyph glyph-name="uni2478" unicode="&#x2478;" horiz-adv-x="1000" 
d="M169 -34q-55 92 -92 194t-37 216t37 216t92 194h85q-23 -46 -45 -96t-39 -102q-17 -53 -27 -106.5t-10 -105.5q0 -53 10 -106.5t27 -105.5q16 -52 38 -102t46 -96h-85zM748 -34q24 46 46 96t39 102q16 52 26 105.5t10 106.5q0 52 -10 105.5t-27 106.5q-17 52 -39 102
t-45 96h85q55 -92 92 -194t37 -216t-37 -216t-92 -194h-85zM670 678v-81h-222v-136q118 8 188 -52q67 -55 67 -147q0 -88 -64 -145q-64 -58 -165 -58q-86 0 -170 40v93q76 -47 154 -47q29 0 54 9t48 26q42 33 42 80q0 51 -42 84q-47 37 -124 37q-18 0 -38 -2.5t-40 -7.5v307
h312z" />
    <glyph glyph-name="uni2479" unicode="&#x2479;" horiz-adv-x="1000" 
d="M169 -34q-55 92 -92 194t-37 216t37 216t92 194h85q-23 -46 -45 -96t-39 -102q-17 -53 -27 -106.5t-10 -105.5q0 -53 10 -106.5t27 -105.5q16 -52 38 -102t46 -96h-85zM748 -34q24 46 46 96t39 102q16 52 26 105.5t10 106.5q0 52 -10 105.5t-27 106.5q-17 52 -39 102
t-45 96h85q55 -92 92 -194t37 -216t-37 -216t-92 -194h-85zM497 355q-53 0 -112 -31q-3 -14 -5 -24.5t-2 -21.5q0 -55 39 -91q33 -32 84 -32q52 0 82 29q15 15 22.5 33t7.5 43q0 39 -33 68q-32 27 -83 27zM353 526q73 111 209 193l61 -69q-75 -41 -134 -104
q-29 -32 -49.5 -64t-31.5 -65q54 25 111 25q83 0 141 -52q55 -54 55 -131t-61 -135q-60 -56 -147 -56q-101 0 -163 62q-63 61 -63 164q0 121 72 232z" />
    <glyph glyph-name="uni247A" unicode="&#x247a;" horiz-adv-x="1000" 
d="M169 -34q-55 92 -92 194t-37 216t37 216t92 194h85q-23 -46 -45 -96t-39 -102q-17 -53 -27 -106.5t-10 -105.5q0 -53 10 -106.5t27 -105.5q16 -52 38 -102t46 -96h-85zM748 -34q24 46 46 96t39 102q16 52 26 105.5t10 106.5q0 52 -10 105.5t-27 106.5q-17 52 -39 102
t-45 96h85q55 -92 92 -194t37 -216t-37 -216t-92 -194h-85zM749 662l-310 -626l-90 35l248 505h-304v86h456z" />
    <glyph glyph-name="uni247B" unicode="&#x247b;" horiz-adv-x="1000" 
d="M169 -34q-55 92 -92 194t-37 216t37 216t92 194h85q-23 -46 -45 -96t-39 -102q-17 -53 -27 -106.5t-10 -105.5q0 -53 10 -106.5t27 -105.5q16 -52 38 -102t46 -96h-85zM748 -34q24 46 46 96t39 102q16 52 26 105.5t10 106.5q0 52 -10 105.5t-27 106.5q-17 52 -39 102
t-45 96h85q55 -92 92 -194t37 -216t-37 -216t-92 -194h-85zM581 453q32 25 32 64q0 42 -30 68q-29 26 -78 26q-24 0 -44.5 -5.5t-35.5 -19.5q-31 -27 -31 -66q0 -42 32 -66q34 -28 77 -28q46 0 78 27zM627 385q99 -47 99 -150q0 -36 -16 -67.5t-49 -57.5q-64 -49 -158 -49
q-98 0 -163 49q-65 52 -65 126q0 98 100 149q-83 52 -83 133q0 75 62 128q62 49 154 49q89 0 148 -50q59 -53 59 -128q0 -81 -88 -132zM592 175q32 27 32 69q0 40 -34 69q-17 13 -38.5 20.5t-48.5 7.5q-57 0 -91 -28q-35 -27 -35 -69q0 -43 35 -72q33 -26 88 -26
q29 0 52 6.5t40 22.5z" />
    <glyph glyph-name="uni247C" unicode="&#x247c;" horiz-adv-x="1000" 
d="M169 -34q-55 92 -92 194t-37 216t37 216t92 194h85q-23 -46 -45 -96t-39 -102q-17 -53 -27 -106.5t-10 -105.5q0 -53 10 -106.5t27 -105.5q16 -52 38 -102t46 -96h-85zM748 -34q24 46 46 96t39 102q16 52 26 105.5t10 106.5q0 52 -10 105.5t-27 106.5q-17 52 -39 102
t-45 96h85q55 -92 92 -194t37 -216t-37 -216t-92 -194h-85zM426 578q-33 -30 -33 -71t36 -71q34 -30 84 -30q56 0 108 34q3 12 4 25t1 27q0 48 -34 82q-33 32 -83 32q-51 0 -83 -28zM651 228q-82 -118 -203 -186l-63 67q183 104 215 238q-24 -14 -51.5 -20.5t-58.5 -6.5
q-83 0 -141 54q-57 54 -57 132q0 73 58 130q60 57 157 57q95 0 160 -65q63 -65 63 -167q0 -115 -79 -233z" />
    <glyph glyph-name="uni247D" unicode="&#x247d;" horiz-adv-x="1000" 
d="M169 -34q-55 92 -92 194t-37 216t37 216t92 194h85q-23 -46 -45 -96t-39 -102q-17 -53 -27 -106.5t-10 -105.5q0 -53 10 -106.5t27 -105.5q16 -52 38 -102t46 -96h-85zM748 -34q24 46 46 96t39 102q16 52 26 105.5t10 106.5q0 52 -10 105.5t-27 106.5q-17 52 -39 102
t-45 96h85q55 -92 92 -194t37 -216t-37 -216t-92 -194h-85zM685 204q14 30 20.5 72.5t6.5 95.5t-6.5 95t-20.5 72q-28 59 -72 59q-46 0 -73 -59q-14 -30 -20.5 -72t-6.5 -95t6.5 -95.5t20.5 -72.5q27 -59 73 -59q44 0 72 59zM613 689q37 0 66 -15t51 -40q21 -25 35.5 -57
t23.5 -67q9 -36 13 -71.5t4 -66.5q0 -28 -3.5 -63t-11.5 -70q-9 -35 -23.5 -68t-35.5 -59q-22 -26 -51.5 -41.5t-67.5 -15.5q-57 0 -94.5 32t-59.5 80q-22 47 -31 102.5t-9 102.5q0 28 3.5 62.5t12.5 70.5q8 35 22.5 68t36.5 59q21 26 50.5 41.5t68.5 15.5zM207 682h168
v-613h-90v530h-78v83z" />
    <glyph glyph-name="uni247E" unicode="&#x247e;" horiz-adv-x="1000" 
d="M169 -34q-55 92 -92 194t-37 216t37 216t92 194h85q-23 -46 -45 -96t-39 -102q-17 -53 -27 -106.5t-10 -105.5q0 -53 10 -106.5t27 -105.5q16 -52 38 -102t46 -96h-85zM748 -34q24 46 46 96t39 102q16 52 26 105.5t10 106.5q0 52 -10 105.5t-27 106.5q-17 52 -39 102
t-45 96h85q55 -92 92 -194t37 -216t-37 -216t-92 -194h-85zM272 672l148 10v-613h-90v530h-58v73zM572 672l148 10v-613h-90v530h-58v73z" />
    <glyph glyph-name="uni247F" unicode="&#x247f;" horiz-adv-x="1000" 
d="M169 -34q-55 92 -92 194t-37 216t37 216t92 194h85q-23 -46 -45 -96t-39 -102q-17 -53 -27 -106.5t-10 -105.5q0 -53 10 -106.5t27 -105.5q16 -52 38 -102t46 -96h-85zM748 -34q24 46 46 96t39 102q16 52 26 105.5t10 106.5q0 52 -10 105.5t-27 106.5q-17 52 -39 102
t-45 96h85q55 -92 92 -194t37 -216t-37 -216t-92 -194h-85zM785 151v-83h-363v5q43 51 71.5 85.5t44.5 54.5q35 43 60.5 79t43.5 66q23 38 33.5 70t10.5 61q0 52 -30 84q-29 34 -78 34q-73 0 -143 -85v111q77 59 151 59q84 0 138 -54q55 -53 55 -138q0 -38 -11.5 -75
t-34.5 -75q-20 -35 -57.5 -84.5t-94.5 -114.5h204zM232 672l148 10v-613h-90v530h-58v73z" />
    <glyph glyph-name="uni2480" unicode="&#x2480;" horiz-adv-x="1000" 
d="M169 -34q-55 92 -92 194t-37 216t37 216t92 194h85q-23 -46 -45 -96t-39 -102q-17 -53 -27 -106.5t-10 -105.5q0 -53 10 -106.5t27 -105.5q16 -52 38 -102t46 -96h-85zM748 -34q24 46 46 96t39 102q16 52 26 105.5t10 106.5q0 52 -10 105.5t-27 106.5q-17 52 -39 102
t-45 96h85q55 -92 92 -194t37 -216t-37 -216t-92 -194h-85zM466 666q27 14 58 20t64 6q43 0 76.5 -11t60.5 -32q25 -23 37.5 -51.5t12.5 -67.5q0 -95 -82 -137q45 -15 71 -60q10 -17 15.5 -39.5t5.5 -48.5q0 -82 -56 -136q-29 -25 -64.5 -38t-80.5 -13q-64 0 -133 33v97
q35 -22 70.5 -33.5t70.5 -11.5q46 0 74 25t28 74q0 45 -35 77q-35 28 -101 26v79q126 0 126 91q0 42 -31 68q-14 12 -34 17.5t-44 5.5q-25 0 -51.5 -5.5t-57.5 -18.5v84zM232 672l148 10v-613h-90v530h-58v73z" />
    <glyph glyph-name="uni2481" unicode="&#x2481;" horiz-adv-x="1000" 
d="M169 -34q-55 92 -92 194t-37 216t37 216t92 194h85q-23 -46 -45 -96t-39 -102q-17 -53 -27 -106.5t-10 -105.5q0 -53 10 -106.5t27 -105.5q16 -52 38 -102t46 -96h-85zM748 -34q24 46 46 96t39 102q16 52 26 105.5t10 106.5q0 52 -10 105.5t-27 106.5q-17 52 -39 102
t-45 96h85q55 -92 92 -194t37 -216t-37 -216t-92 -194h-85zM532 330h114v165zM739 677v-347h67v-87h-67v-175h-93v175h-235v47l284 387h44zM222 672l148 10v-613h-90v530h-58v73z" />
    <glyph glyph-name="uni2482" unicode="&#x2482;" horiz-adv-x="1000" 
d="M169 -34q-55 92 -92 194t-37 216t37 216t92 194h85q-23 -46 -45 -96t-39 -102q-17 -53 -27 -106.5t-10 -105.5q0 -53 10 -106.5t27 -105.5q16 -52 38 -102t46 -96h-85zM748 -34q24 46 46 96t39 102q16 52 26 105.5t10 106.5q0 52 -10 105.5t-27 106.5q-17 52 -39 102
t-45 96h85q55 -92 92 -194t37 -216t-37 -216t-92 -194h-85zM762 678v-81h-199v-136q53 3 95 -9.5t74 -42.5q61 -55 61 -147q0 -88 -58 -145q-58 -58 -149 -58q-76 0 -153 40v92q69 -46 138 -46q27 0 49.5 9t42.5 26t29 37t9 43q0 52 -38 84q-40 36 -112 36q-33 0 -69 -9v307
h280zM222 672l148 10v-613h-90v530h-58v73z" />
    <glyph glyph-name="uni249C" unicode="&#x249c;" horiz-adv-x="1000" 
d="M169 -34q-55 92 -92 194t-37 216t37 216t92 194h85q-23 -46 -45 -96t-39 -102q-17 -53 -27 -106.5t-10 -105.5q0 -53 10 -106.5t27 -105.5q16 -52 38 -102t46 -96h-85zM748 -34q24 46 46 96t39 102q16 52 26 105.5t10 106.5q0 52 -10 105.5t-27 106.5q-17 52 -39 102
t-45 96h85q55 -92 92 -194t37 -216t-37 -216t-92 -194h-85zM353 593q18 5 39 9q17 3 39.5 6t45.5 3q94 1 146 -35.5t52 -113.5v-143q-1 -42 2 -72t8 -51t10 -34.5t9 -21.5h-110l-5.5 11t-1.5 4q-1 1 -1.5 2t-1.5 4q-40 -20 -72.5 -23t-54.5 -3q-75 0 -124 42
q-27 24 -40 56.5t-5 69.5q7 32 25 54t42 37t51.5 23.5t53.5 13.5q34 6 64 9q19 2 26.5 2t15.5 8q5 5 5.5 11.5t0.5 26.5q0 14 -8 24.5t-21 16.5q-8 4 -27.5 6t-36.5 2q-23 0 -45 -3.5t-40 -7.5q-21 -5 -40 -11zM494 213q33 0 51.5 9t26.5 14v140h-35.5t-48.5 -5
q-24 -4 -39.5 -11t-25.5 -16q-8 -8 -17.5 -23.5t-9.5 -38.5q0 -36 24 -52.5t74 -16.5z" />
    <glyph glyph-name="uni249D" unicode="&#x249d;" horiz-adv-x="1000" 
d="M169 -34q-55 92 -92 194t-37 216t37 216t92 194h85q-23 -46 -45 -96t-39 -102q-17 -53 -27 -106.5t-10 -105.5q0 -53 10 -106.5t27 -105.5q16 -52 38 -102t46 -96h-85zM748 -34q24 46 46 96t39 102q16 52 26 105.5t10 106.5q0 52 -10 105.5t-27 106.5q-17 52 -39 102
t-45 96h85q55 -92 92 -194t37 -216t-37 -216t-92 -194h-85zM697 463q27 -31 46 -83.5t12 -116.5q-7 -53 -31.5 -92t-61.5 -64q-38 -26 -85 -38t-99 -12q-8 0 -25 1t-39 5q-23 3 -50 8.5t-55 14.5v652h95v-254q59 50 134 50q96 0 159 -71zM529 456q-80 0 -111 -65
q-11 -25 -14 -85v-156q45 -17 83 -17q32 0 60.5 8.5t50.5 26.5q21 18 35.5 45t18.5 65q0 3 1 7q0 4 0.5 9t0.5 11q0 23 -9 54t-27 53q-37 44 -89 44z" />
    <glyph glyph-name="uni249E" unicode="&#x249e;" horiz-adv-x="1000" 
d="M169 -34q-55 92 -92 194t-37 216t37 216t92 194h85q-23 -46 -45 -96t-39 -102q-17 -53 -27 -106.5t-10 -105.5q0 -53 10 -106.5t27 -105.5q16 -52 38 -102t46 -96h-85zM748 -34q24 46 46 96t39 102q16 52 26 105.5t10 106.5q0 52 -10 105.5t-27 106.5q-17 52 -39 102
t-45 96h85q55 -92 92 -194t37 -216t-37 -216t-92 -194h-85zM677 154q-5 -2 -17 -6t-29 -8t-39 -7t-47 -3q-54 2 -98.5 16.5t-81.5 46.5q-75 69 -75 164q0 122 81 190q71 62 186 62q20 0 40 -3.5t37 -7.5q19 -5 38 -11v-99q-18 11 -38 21q-17 8 -41 15t-51 7q-66 0 -107 -43
q-40 -40 -40 -106q0 -39 11.5 -73.5t38.5 -59.5q26 -25 60 -31.5t72 -8.5q28 -2 54.5 9.5t45.5 19.5v-84z" />
    <glyph glyph-name="uni249F" unicode="&#x249f;" horiz-adv-x="1000" 
d="M169 -34q-55 92 -92 194t-37 216t37 216t92 194h85q-23 -46 -45 -96t-39 -102q-17 -53 -27 -106.5t-10 -105.5q0 -53 10 -106.5t27 -105.5q16 -52 38 -102t46 -96h-85zM748 -34q24 46 46 96t39 102q16 52 26 105.5t10 106.5q0 52 -10 105.5t-27 106.5q-17 52 -39 102
t-45 96h85q55 -92 92 -194t37 -216t-37 -216t-92 -194h-85zM307 463q63 71 159 71q75 0 134 -50v254h95v-652q-28 -9 -55 -14.5t-49 -8.5q-23 -4 -40 -5t-25 -1q-52 0 -99 12t-84 38q-38 25 -62.5 64t-31.5 92q-4 32 -0.5 61.5t12.5 55.5q8 25 20 46.5t26 36.5zM475 456
q-52 0 -89 -44q-18 -22 -27 -53t-9 -54v-11t1 -9q0 -4 1 -7q4 -38 18.5 -65t36.5 -45q21 -18 49.5 -26.5t60.5 -8.5q38 0 83 17v156q-3 60 -14 85q-31 65 -111 65z" />
    <glyph glyph-name="uni24A0" unicode="&#x24a0;" horiz-adv-x="1000" 
d="M169 -34q-55 92 -92 194t-37 216t37 216t92 194h85q-23 -46 -45 -96t-39 -102q-17 -53 -27 -106.5t-10 -105.5q0 -53 10 -106.5t27 -105.5q16 -52 38 -102t46 -96h-85zM748 -34q24 46 46 96t39 102q16 52 26 105.5t10 106.5q0 52 -10 105.5t-27 106.5q-17 52 -39 102
t-45 96h85q55 -92 92 -194t37 -216t-37 -216t-92 -194h-85zM705 172q-22 -13 -48 -23q-23 -9 -53.5 -16t-65.5 -6q-59 1 -107 15.5t-86 49.5t-56 80t-18 97t16.5 95t48.5 76q66 67 170 67q96 0 155 -65q29 -30 43.5 -75t14.5 -90q0 -2 -0.5 -4t-0.5 -5v-7h-335
q-1 -38 9 -64.5t34 -49.5t53 -30.5t67 -7.5q34 -1 63 9.5t51 22.5q26 14 46 32zM609 431q-9 42 -36.5 71t-73.5 28q-20 -2 -35 -7t-31 -18q-17 -13 -28.5 -32t-16.5 -42h221z" />
    <glyph glyph-name="uni24A1" unicode="&#x24a1;" horiz-adv-x="1000" 
d="M169 -34q-55 92 -92 194t-37 216t37 216t92 194h85q-23 -46 -45 -96t-39 -102q-17 -53 -27 -106.5t-10 -105.5q0 -53 10 -106.5t27 -105.5q16 -52 38 -102t46 -96h-85zM748 -34q24 46 46 96t39 102q16 52 26 105.5t10 106.5q0 52 -10 105.5t-27 106.5q-17 52 -39 102
t-45 96h85q55 -92 92 -194t37 -216t-37 -216t-92 -194h-85zM605 699q12 0 24 -0.5t22 -0.5h21l1 -79q-16 -1 -31 -1h-53q-10 0 -24 -4t-24 -15q-6 -8 -10.5 -17.5t-4.5 -30.5v-56h131v-79h-131v-379h-102v379h-95v79h95v15q0 53 4 69t10.5 33.5t19.5 32.5q29 32 64 43t83 11
z" />
    <glyph glyph-name="uni24A2" unicode="&#x24a2;" horiz-adv-x="1000" 
d="M169 -34q-55 92 -92 194t-37 216t37 216t92 194h85q-23 -46 -45 -96t-39 -102q-17 -53 -27 -106.5t-10 -105.5q0 -53 10 -106.5t27 -105.5q16 -52 38 -102t46 -96h-85zM748 -34q24 46 46 96t39 102q16 52 26 105.5t10 106.5q0 52 -10 105.5t-27 106.5q-17 52 -39 102
t-45 96h85q55 -92 92 -194t37 -216t-37 -216t-92 -194h-85zM256 209q0 32 22 59t60 47q-4 7 -5.5 21t-1.5 22q0 17 31 33q3 1 7 3q3 2 7 3t9 3q-37 12 -64 41q-34 37 -34 84q0 67 60 109q52 34 125 34h261l-34 -64h-26q-12 0 -28 -0.5t-33 -0.5q45 -37 45 -91
q0 -64 -63 -100q-46 -25 -121 -33q-28 -2 -28 -14l1 -2.5t5 -5.5t13 -5.5t25 -2.5h6q55 0 99.5 -6.5t75.5 -22.5t47.5 -43t16.5 -68q0 -30 -18.5 -55.5t-50.5 -44.5q-33 -19 -76.5 -30t-93.5 -11q-112 0 -175.5 35t-63.5 106zM352 211q0 -37 39.5 -56.5t105.5 -19.5
q30 0 55.5 5t45.5 15q19 9 30 23.5t11 32.5q0 40 -38 58t-104 18q-27 0 -53 -4.5t-46 -13.5q-21 -9 -33.5 -23.5t-12.5 -34.5zM383 537q0 -35 29 -64q27 -27 68 -27q36 0 58 19q23 21 23 54q0 36 -28 60q-30 24 -70 24q-36 0 -58 -18q-22 -17 -22 -48z" />
    <glyph glyph-name="uni24A3" unicode="&#x24a3;" horiz-adv-x="1000" 
d="M169 -34q-55 92 -92 194t-37 216t37 216t92 194h85q-23 -46 -45 -96t-39 -102q-17 -53 -27 -106.5t-10 -105.5q0 -53 10 -106.5t27 -105.5q16 -52 38 -102t46 -96h-85zM748 -34q24 46 46 96t39 102q16 52 26 105.5t10 106.5q0 52 -10 105.5t-27 106.5q-17 52 -39 102
t-45 96h85q55 -92 92 -194t37 -216t-37 -216t-92 -194h-85zM617 315q0 131 -100 131q-58 0 -80 -32q-23 -27 -23 -94l1 -264h-104v672h103v-253q20 20 54 34q39 15 80 15q171 0 171 -180v-288h-103z" />
    <glyph glyph-name="uni24A4" unicode="&#x24a4;" horiz-adv-x="1000" 
d="M169 -34q-55 92 -92 194t-37 216t37 216t92 194h85q-23 -46 -45 -96t-39 -102q-17 -53 -27 -106.5t-10 -105.5q0 -53 10 -106.5t27 -105.5q16 -52 38 -102t46 -96h-85zM748 -34q24 46 46 96t39 102q16 52 26 105.5t10 106.5q0 52 -10 105.5t-27 106.5q-17 52 -39 102
t-45 96h85q55 -92 92 -194t37 -216t-37 -216t-92 -194h-85zM504 591q-30 0 -50 20q-20 22 -20 50q0 27 21 45t49 18q27 0 45 -19q19 -21 19 -46q0 -26 -19 -48q-18 -20 -45 -20zM550 65h-102v450h102v-450z" />
    <glyph glyph-name="uni24A5" unicode="&#x24a5;" horiz-adv-x="1000" 
d="M169 -34q-55 92 -92 194t-37 216t37 216t92 194h85q-23 -46 -45 -96t-39 -102q-17 -53 -27 -106.5t-10 -105.5q0 -53 10 -106.5t27 -105.5q16 -52 38 -102t46 -96h-85zM748 -34q24 46 46 96t39 102q16 52 26 105.5t10 106.5q0 52 -10 105.5t-27 106.5q-17 52 -39 102
t-45 96h85q55 -92 92 -194t37 -216t-37 -216t-92 -194h-85zM532 724q27 0 45 -21q20 -20 20 -47q0 -25 -20 -45q-19 -20 -46 -20q-29 0 -48 20q-19 21 -19 49q0 26 21 46q19 18 47 18zM582 203q0 -78 -12 -111q-15 -44 -47 -63.5t-83 -24.5q-14 -2 -26 -2.5t-21 0.5
q-11 1 -20 2v80h34q32 0 44 11.5t23 30.5q5 9 6.5 33.5t1.5 53.5l1 321h99v-331z" />
    <glyph glyph-name="uni24A6" unicode="&#x24a6;" horiz-adv-x="1000" 
d="M169 -34q-55 92 -92 194t-37 216t37 216t92 194h85q-23 -46 -45 -96t-39 -102q-17 -53 -27 -106.5t-10 -105.5q0 -53 10 -106.5t27 -105.5q16 -52 38 -102t46 -96h-85zM748 -34q24 46 46 96t39 102q16 52 26 105.5t10 106.5q0 52 -10 105.5t-27 106.5q-17 52 -39 102
t-45 96h85q55 -92 92 -194t37 -216t-37 -216t-92 -194h-85zM415 728l-1 -660h-99v660h100zM765 68h-98q-62 0 -104 56l-145 198l174 203h105q-45 -53 -81 -94q-15 -18 -30 -35t-27 -31t-19.5 -23.5t-8.5 -10.5q3 -5 12 -16t21 -26l26 -32.5t28 -35.5q33 -42 73 -93
q27 -32 54 -48z" />
    <glyph glyph-name="uni24A7" unicode="&#x24a7;" horiz-adv-x="1000" 
d="M169 -34q-55 92 -92 194t-37 216t37 216t92 194h85q-23 -46 -45 -96t-39 -102q-17 -53 -27 -106.5t-10 -105.5q0 -53 10 -106.5t27 -105.5q16 -52 38 -102t46 -96h-85zM748 -34q24 46 46 96t39 102q16 52 26 105.5t10 106.5q0 52 -10 105.5t-27 106.5q-17 52 -39 102
t-45 96h85q55 -92 92 -194t37 -216t-37 -216t-92 -194h-85zM550 53h-102v665h102v-665z" />
    <glyph glyph-name="uni24A8" unicode="&#x24a8;" horiz-adv-x="1000" 
d="M169 -34q-55 92 -92 194t-37 216t37 216t92 194h85q-23 -46 -45 -96t-39 -102q-17 -53 -27 -106.5t-10 -105.5q0 -53 10 -106.5t27 -105.5q16 -52 38 -102t46 -96h-85zM748 -34q24 46 46 96t39 102q16 52 26 105.5t10 106.5q0 52 -10 105.5t-27 106.5q-17 52 -39 102
t-45 96h85q55 -92 92 -194t37 -216t-37 -216t-92 -194h-85zM679 379q0 77 -10.5 110.5t-47.5 33.5q-24 0 -38 -17t-21 -40q-7 -24 -9 -49.5t-2 -42.5l-1 -232h-97v246q0 16 -1.5 39t-7.5 44q-7 21 -20.5 36t-36.5 15t-35.5 -13.5t-18.5 -33.5q-6 -21 -7 -46.5t-1 -49.5v-237
h-98v455h78v-51q38 64 100 64q73 0 115 -80q47 80 118 80q40 0 65.5 -15.5t42.5 -43.5q17 -27 24 -62t7 -86l-1 -261h-97v237z" />
    <glyph glyph-name="uni24A9" unicode="&#x24a9;" horiz-adv-x="1000" 
d="M169 -34q-55 92 -92 194t-37 216t37 216t92 194h85q-23 -46 -45 -96t-39 -102q-17 -53 -27 -106.5t-10 -105.5q0 -53 10 -106.5t27 -105.5q16 -52 38 -102t46 -96h-85zM748 -34q24 46 46 96t39 102q16 52 26 105.5t10 106.5q0 52 -10 105.5t-27 106.5q-17 52 -39 102
t-45 96h85q55 -92 92 -194t37 -216t-37 -216t-92 -194h-85zM606 143l1 242q0 77 -24 112q-13 18 -31 27.5t-48 9.5q-25 0 -44 -11t-31 -29q-13 -19 -19.5 -43t-6.5 -49v-259h-102v456h102v-51q54 63 129 63q104 0 151 -69q25 -37 25 -147v-252h-102z" />
    <glyph glyph-name="uni24AA" unicode="&#x24aa;" horiz-adv-x="1000" 
d="M169 -34q-55 92 -92 194t-37 216t37 216t92 194h85q-23 -46 -45 -96t-39 -102q-17 -53 -27 -106.5t-10 -105.5q0 -53 10 -106.5t27 -105.5q16 -52 38 -102t46 -96h-85zM748 -34q24 46 46 96t39 102q16 52 26 105.5t10 106.5q0 52 -10 105.5t-27 106.5q-17 52 -39 102
t-45 96h85q55 -92 92 -194t37 -216t-37 -216t-92 -194h-85zM668 198q-72 -70 -173 -70q-98 0 -168 67q-35 33 -52 76t-17 94q0 54 18 99t56 80q69 66 175 66q94 0 156 -59q77 -70 77 -178q0 -106 -72 -175zM400 490q-38 -44 -38 -108q0 -35 9.5 -65t26.5 -55q40 -57 102 -57
q57 0 97 43q38 43 38 106q0 72 -34 123q-39 55 -105 55q-57 0 -96 -42z" />
    <glyph glyph-name="uni24AB" unicode="&#x24ab;" horiz-adv-x="1000" 
d="M169 -34q-55 92 -92 194t-37 216t37 216t92 194h85q-23 -46 -45 -96t-39 -102q-17 -53 -27 -106.5t-10 -105.5q0 -53 10 -106.5t27 -105.5q16 -52 38 -102t46 -96h-85zM748 -34q24 46 46 96t39 102q16 52 26 105.5t10 106.5q0 52 -10 105.5t-27 106.5q-17 52 -39 102
t-45 96h85q55 -92 92 -194t37 -216t-37 -216t-92 -194h-85zM481 683q70 0 123 -18t89 -48q35 -31 52.5 -71t17.5 -84q0 -45 -18 -80.5t-49 -60.5q-32 -25 -74 -39t-90 -15q-45 -2 -76 5.5t-46 13.5v-153v-70h-100v590q28 9 55.5 15t50.5 9t40 4.5t25 1.5zM501 346
q31 -1 60 8t51 27q21 17 34 42.5t13 57.5q0 29 -13 51.5t-35 38.5t-50 24.5t-59 9.5q-24 1 -47 -3.5t-46 -11.5v-221q13 -8 35 -15t57 -8z" />
    <glyph glyph-name="uni24AC" unicode="&#x24ac;" horiz-adv-x="1000" 
d="M169 -34q-55 92 -92 194t-37 216t37 216t92 194h85q-23 -46 -45 -96t-39 -102q-17 -53 -27 -106.5t-10 -105.5q0 -53 10 -106.5t27 -105.5q16 -52 38 -102t46 -96h-85zM748 -34q24 46 46 96t39 102q16 52 26 105.5t10 106.5q0 52 -10 105.5t-27 106.5q-17 52 -39 102
t-45 96h85q55 -92 92 -194t37 -216t-37 -216t-92 -194h-85zM524 683q8 0 25 -1.5t40 -4.5t50.5 -9t55.5 -15v-590h-100v70q0 32 -0.5 71.5t0.5 81.5q-15 -6 -46 -13.5t-76 -5.5q-48 1 -90 15t-73 39q-32 25 -50 60.5t-18 80.5q0 44 17.5 84t53.5 71q35 30 87.5 48t123.5 18z
M504 346q35 1 57 8t35 15v221q-23 7 -46 11.5t-47 3.5q-31 -1 -59.5 -9.5t-49.5 -24.5q-22 -16 -35 -38.5t-13 -51.5q0 -32 13 -57.5t35 -42.5q21 -18 49.5 -27t60.5 -8z" />
    <glyph glyph-name="uni24AD" unicode="&#x24ad;" horiz-adv-x="1000" 
d="M169 -34q-55 92 -92 194t-37 216t37 216t92 194h85q-23 -46 -45 -96t-39 -102q-17 -53 -27 -106.5t-10 -105.5q0 -53 10 -106.5t27 -105.5q16 -52 38 -102t46 -96h-85zM748 -34q24 46 46 96t39 102q16 52 26 105.5t10 106.5q0 52 -10 105.5t-27 106.5q-17 52 -39 102
t-45 96h85q55 -92 92 -194t37 -216t-37 -216t-92 -194h-85zM658 510h-11h-14.5t-19.5 1q-26 0 -47 -6t-35 -25q-16 -20 -19.5 -43t-3.5 -58l-1 -241h-103v455h104v-52q14 23 36 38q17 11 31 15t39 4h44v-88z" />
    <glyph glyph-name="uni24AE" unicode="&#x24ae;" horiz-adv-x="1000" 
d="M169 -34q-55 92 -92 194t-37 216t37 216t92 194h85q-23 -46 -45 -96t-39 -102q-17 -53 -27 -106.5t-10 -105.5q0 -53 10 -106.5t27 -105.5q16 -52 38 -102t46 -96h-85zM748 -34q24 46 46 96t39 102q16 52 26 105.5t10 106.5q0 52 -10 105.5t-27 106.5q-17 52 -39 102
t-45 96h85q55 -92 92 -194t37 -216t-37 -216t-92 -194h-85zM629 393q71 -39 71 -108q0 -71 -64 -114q-61 -43 -158 -43q-70 0 -128 24l-24 10v90q11 -6 29 -13t41 -13q22 -6 48 -10.5t53 -4.5q18 0 34 2.5t30 8.5q34 15 34 44q0 33 -62 57l-124 47q-71 38 -71 104
q0 74 68 109q50 26 128 26q31 0 58 -2.5t51 -9.5l4 -1v-91q-15 7 -34 13q-17 5 -39.5 9.5t-50.5 4.5q-32 0 -57 -10t-25 -30q0 -28 62 -51q58 -21 89 -32.5t37 -15.5z" />
    <glyph glyph-name="uni24AF" unicode="&#x24af;" horiz-adv-x="1000" 
d="M169 -34q-55 92 -92 194t-37 216t37 216t92 194h85q-23 -46 -45 -96t-39 -102q-17 -53 -27 -106.5t-10 -105.5q0 -53 10 -106.5t27 -105.5q16 -52 38 -102t46 -96h-85zM748 -34q24 46 46 96t39 102q16 52 26 105.5t10 106.5q0 52 -10 105.5t-27 106.5q-17 52 -39 102
t-45 96h85q55 -92 92 -194t37 -216t-37 -216t-92 -194h-85zM611 143q14 0 23 -0.5t14 -0.5h10l-1 -76q-10 -2 -23 -3q-11 -1 -28 -1t-39 2q-50 4 -82 24.5t-47 63.5q-6 18 -9.5 45.5t-3.5 66.5v194h-85v78h86v144h102v-144h124v-79l-124 1v-186q0 -62 6 -83q9 -25 28 -35
t49 -11z" />
    <glyph glyph-name="uni24B0" unicode="&#x24b0;" horiz-adv-x="1000" 
d="M169 -34q-55 92 -92 194t-37 216t37 216t92 194h85q-23 -46 -45 -96t-39 -102q-17 -53 -27 -106.5t-10 -105.5q0 -53 10 -106.5t27 -105.5q16 -52 38 -102t46 -96h-85zM748 -34q24 46 46 96t39 102q16 52 26 105.5t10 106.5q0 52 -10 105.5t-27 106.5q-17 52 -39 102
t-45 96h85q55 -92 92 -194t37 -216t-37 -216t-92 -194h-85zM598 140v50q-12 -14 -23.5 -25.5t-24.5 -19.5q-33 -18 -85 -18q-170 0 -172 199v268h101v-244q0 -138 101 -138q44 0 74 34q29 32 29 87v261h101v-454h-101z" />
    <glyph glyph-name="uni24B1" unicode="&#x24b1;" horiz-adv-x="1000" 
d="M169 -34q-55 92 -92 194t-37 216t37 216t92 194h85q-23 -46 -45 -96t-39 -102q-17 -53 -27 -106.5t-10 -105.5q0 -53 10 -106.5t27 -105.5q16 -52 38 -102t46 -96h-85zM748 -34q24 46 46 96t39 102q16 52 26 105.5t10 106.5q0 52 -10 105.5t-27 106.5q-17 52 -39 102
t-45 96h85q55 -92 92 -194t37 -216t-37 -216t-92 -194h-85zM743 595l-204 -455h-79l-204 455l108 1l144 -339l150 338h85z" />
    <glyph glyph-name="uni24B2" unicode="&#x24b2;" horiz-adv-x="1000" 
d="M169 -34q-55 92 -92 194t-37 216t37 216t92 194h85q-23 -46 -45 -96t-39 -102q-17 -53 -27 -106.5t-10 -105.5q0 -53 10 -106.5t27 -105.5q16 -52 38 -102t46 -96h-85zM748 -34q24 46 46 96t39 102q16 52 26 105.5t10 106.5q0 52 -10 105.5t-27 106.5q-17 52 -39 102
t-45 96h85q55 -92 92 -194t37 -216t-37 -216t-92 -194h-85zM826 593l-159 -455h-68q-26 78 -46 142q-9 27 -17.5 54.5t-15.5 50.5q-7 22 -12.5 38t-6.5 21q-2 -6 -7.5 -22t-12.5 -38q-8 -23 -17 -50l-18 -54q-21 -64 -47 -142h-69l-150 455l89 1l104 -321l105 320h67
l99 -319l110 319h72z" />
    <glyph glyph-name="uni24B3" unicode="&#x24b3;" horiz-adv-x="1000" 
d="M169 -34q-55 92 -92 194t-37 216t37 216t92 194h85q-23 -46 -45 -96t-39 -102q-17 -53 -27 -106.5t-10 -105.5q0 -53 10 -106.5t27 -105.5q16 -52 38 -102t46 -96h-85zM748 -34q24 46 46 96t39 102q16 52 26 105.5t10 106.5q0 52 -10 105.5t-27 106.5q-17 52 -39 102
t-45 96h85q55 -92 92 -194t37 -216t-37 -216t-92 -194h-85zM665 222q17 -23 29 -38.5t21 -25.5q10 -11 18 -18h-92q-30 0 -60 42l-90 129l-132 -171h-106l193 239l-155 219h116l100 -148l113 148h102l-168 -215z" />
    <glyph glyph-name="uni24B4" unicode="&#x24b4;" horiz-adv-x="1000" 
d="M169 -34q-55 92 -92 194t-37 216t37 216t92 194h85q-23 -46 -45 -96t-39 -102q-17 -53 -27 -106.5t-10 -105.5q0 -53 10 -106.5t27 -105.5q16 -52 38 -102t46 -96h-85zM748 -34q24 46 46 96t39 102q16 52 26 105.5t10 106.5q0 52 -10 105.5t-27 106.5q-17 52 -39 102
t-45 96h85q55 -92 92 -194t37 -216t-37 -216t-92 -194h-85zM740 648l-168 -424q-19 -47 -40.5 -90.5t-53.5 -68.5q-23 -18 -48 -25.5t-63 -9.5q-9 0 -9.5 -0.5t2.5 -0.5h5.5h3.5q-1 1 -9 1h-27l-55 87h69q18 0 46.5 6.5t46.5 24.5q14 15 27.5 45t24.5 58l-198 397h109
l138 -281l103 281h96z" />
    <glyph glyph-name="uni24B5" unicode="&#x24b5;" horiz-adv-x="1000" 
d="M169 -34q-55 92 -92 194t-37 216t37 216t92 194h85q-23 -46 -45 -96t-39 -102q-17 -53 -27 -106.5t-10 -105.5q0 -53 10 -106.5t27 -105.5q16 -52 38 -102t46 -96h-85zM748 -34q24 46 46 96t39 102q16 52 26 105.5t10 106.5q0 52 -10 105.5t-27 106.5q-17 52 -39 102
t-45 96h85q55 -92 92 -194t37 -216t-37 -216t-92 -194h-85zM711 219v-78l-438 -1l259 378l-222 1v79h390l-250 -380z" />
    <glyph glyph-name="uni24D0" unicode="&#x24d0;" horiz-adv-x="1000" 
d="M38 376q0 95 36 179t99 147q62 62 146.5 98.5t180.5 36.5t180 -36.5t147 -98.5q62 -63 98 -147t36 -179t-36 -179t-98 -147q-63 -63 -147 -99.5t-180 -36.5t-180.5 36.5t-146.5 99.5q-63 63 -99 147t-36 179zM120 376q0 -78 30 -147t82 -121t121 -82t147 -30t147 30
t121 82t82 121t30 147t-30 147t-82 121t-121 82t-147 30t-147 -30t-121 -82t-82 -121t-30 -147zM353 593q18 5 39 9q17 3 39.5 6t45.5 3q94 1 146 -35.5t52 -113.5v-143q-1 -42 2 -72t8 -51t10 -34.5t9 -21.5h-110l-5.5 11t-1.5 4q-1 1 -1.5 2t-1.5 4q-40 -20 -72.5 -23
t-54.5 -3q-75 0 -124 42q-27 24 -40 56.5t-5 69.5q7 32 25 54t42 37t51.5 23.5t53.5 13.5q34 6 64 9q19 2 26.5 2t15.5 8q5 5 5.5 11.5t0.5 26.5q0 14 -8 24.5t-21 16.5q-8 4 -27.5 6t-36.5 2q-23 0 -45 -3.5t-40 -7.5q-21 -5 -40 -11zM494 213q33 0 51.5 9t26.5 14v140
h-35.5t-48.5 -5q-24 -4 -39.5 -11t-25.5 -16q-8 -8 -17.5 -23.5t-9.5 -38.5q0 -36 24 -52.5t74 -16.5z" />
    <glyph glyph-name="uni24D1" unicode="&#x24d1;" horiz-adv-x="1000" 
d="M38 376q0 95 36 179t99 147q62 62 146.5 98.5t180.5 36.5t180 -36.5t147 -98.5q62 -63 98 -147t36 -179t-36 -179t-98 -147q-63 -63 -147 -99.5t-180 -36.5t-180.5 36.5t-146.5 99.5q-63 63 -99 147t-36 179zM120 376q0 -78 30 -147t82 -121t121 -82t147 -30t147 30
t121 82t82 121t30 147t-30 147t-82 121t-121 82t-147 30t-147 -30t-121 -82t-82 -121t-30 -147zM686 458q12 -14 23.5 -33.5t19.5 -43.5t11 -51.5t0 -57.5q-6 -50 -29.5 -86t-57.5 -59q-35 -23 -79 -34.5t-92 -11.5q-7 0 -23 1t-37 4t-46 8t-51 14v585h88v-215q55 46 125 46
q89 0 148 -66zM530 452q-74 0 -104 -61q-5 -11 -8 -30.5t-5 -48.5v-145q40 -15 77 -15q60 0 103 32t51 102q0 3 1 7q0 3 0.5 8t0.5 10q0 22 -8.5 51t-25.5 49q-34 41 -82 41z" />
    <glyph glyph-name="uni24D2" unicode="&#x24d2;" horiz-adv-x="1000" 
d="M38 376q0 95 36 179t99 147q62 62 146.5 98.5t180.5 36.5t180 -36.5t147 -98.5q62 -63 98 -147t36 -179t-36 -179t-98 -147q-63 -63 -147 -99.5t-180 -36.5t-180.5 36.5t-146.5 99.5q-63 63 -99 147t-36 179zM120 376q0 -78 30 -147t82 -121t121 -82t147 -30t147 30
t121 82t82 121t30 147t-30 147t-82 121t-121 82t-147 30t-147 -30t-121 -82t-82 -121t-30 -147zM677 154q-5 -2 -17 -6t-29 -8t-39 -7t-47 -3q-54 2 -98.5 16.5t-81.5 46.5q-75 69 -75 164q0 122 81 190q71 62 186 62q20 0 40 -3.5t37 -7.5q19 -5 38 -11v-99q-18 11 -38 21
q-17 8 -41 15t-51 7q-66 0 -107 -43q-40 -40 -40 -106q0 -39 11.5 -73.5t38.5 -59.5q26 -25 60 -31.5t72 -8.5q28 -2 54.5 9.5t45.5 19.5v-84z" />
    <glyph glyph-name="uni24D3" unicode="&#x24d3;" horiz-adv-x="1000" 
d="M38 376q0 95 36 179t99 147q62 62 146.5 98.5t180.5 36.5t180 -36.5t147 -98.5q62 -63 98 -147t36 -179t-36 -179t-98 -147q-63 -63 -147 -99.5t-180 -36.5t-180.5 36.5t-146.5 99.5q-63 63 -99 147t-36 179zM120 376q0 -78 30 -147t82 -121t121 -82t147 -30t147 30
t121 82t82 121t30 147t-30 147t-82 121t-121 82t-147 30t-147 -30t-121 -82t-82 -121t-30 -147zM318 458q58 66 148 66q70 0 125 -46v215h88v-585q-26 -9 -51 -14t-46 -8t-37 -4t-23 -1q-48 0 -92 11.5t-78 34.5q-35 23 -58.5 59t-29.5 86q-3 30 0 57.5t11 51.5t19.5 43.5
t23.5 33.5zM474 452q-48 0 -82 -41q-17 -20 -25.5 -49t-8.5 -51v-10t1 -8q0 -4 1 -7q8 -70 50.5 -102t102.5 -32q37 0 78 15v145q-2 29 -5 48.5t-8 30.5q-30 61 -104 61z" />
    <glyph glyph-name="uni24D4" unicode="&#x24d4;" horiz-adv-x="1000" 
d="M38 376q0 95 36 179t99 147q62 62 146.5 98.5t180.5 36.5t180 -36.5t147 -98.5q62 -63 98 -147t36 -179t-36 -179t-98 -147q-63 -63 -147 -99.5t-180 -36.5t-180.5 36.5t-146.5 99.5q-63 63 -99 147t-36 179zM120 376q0 -78 30 -147t82 -121t121 -82t147 -30t147 30
t121 82t82 121t30 147t-30 147t-82 121t-121 82t-147 30t-147 -30t-121 -82t-82 -121t-30 -147zM705 172q-22 -13 -48 -23q-23 -9 -53.5 -16t-65.5 -6q-59 1 -107 15.5t-86 49.5t-56 80t-18 97t16.5 95t48.5 76q66 67 170 67q96 0 155 -65q29 -30 43.5 -75t14.5 -90
q0 -2 -0.5 -4t-0.5 -5v-7h-335q-1 -38 9 -64.5t34 -49.5t53 -30.5t67 -7.5q34 -1 63 9.5t51 22.5q26 14 46 32zM609 431q-9 42 -36.5 71t-73.5 28q-20 -2 -35 -7t-31 -18q-17 -13 -28.5 -32t-16.5 -42h221z" />
    <glyph glyph-name="uni24D5" unicode="&#x24d5;" horiz-adv-x="1000" 
d="M38 376q0 95 36 179t99 147q62 62 146.5 98.5t180.5 36.5t180 -36.5t147 -98.5q62 -63 98 -147t36 -179t-36 -179t-98 -147q-63 -63 -147 -99.5t-180 -36.5t-180.5 36.5t-146.5 99.5q-63 63 -99 147t-36 179zM120 376q0 -78 30 -147t82 -121t121 -82t147 -30t147 30
t121 82t82 121t30 147t-30 147t-82 121t-121 82t-147 30t-147 -30t-121 -82t-82 -121t-30 -147zM605 699q12 0 24 -0.5t22 -0.5h21l1 -79q-16 -1 -31 -1h-53q-10 0 -24 -4t-24 -15q-6 -8 -10.5 -17.5t-4.5 -30.5v-56h131v-79h-131v-379h-102v379h-95v79h95v15q0 53 4 69
t10.5 33.5t19.5 32.5q29 32 64 43t83 11z" />
    <glyph glyph-name="uni24D6" unicode="&#x24d6;" horiz-adv-x="1000" 
d="M38 376q0 95 36 179t99 147q62 62 146.5 98.5t180.5 36.5t180 -36.5t147 -98.5q62 -63 98 -147t36 -179t-36 -179t-98 -147q-63 -63 -147 -99.5t-180 -36.5t-180.5 36.5t-146.5 99.5q-63 63 -99 147t-36 179zM120 376q0 -78 30 -147t82 -121t121 -82t147 -30t147 30
t121 82t82 121t30 147t-30 147t-82 121t-121 82t-147 30t-147 -30t-121 -82t-82 -121t-30 -147zM273 220q0 29 20.5 55t55.5 44q-4 6 -5.5 19t-1.5 21q0 15 29 30q3 1 7 3q6 3 15 6q-34 10 -60 38q-31 34 -31 78q0 63 55 101q48 32 117 32h242l-31 -60h-81q42 -36 42 -85
q0 -60 -59 -93q-42 -23 -112 -31q-27 -2 -27 -13l1 -2.5t5 -5.5q3 -3 11.5 -5t23.5 -2h6q52 0 93 -6t70 -21q28 -15 43.5 -40t15.5 -63q0 -27 -17.5 -51t-47.5 -42t-70.5 -28t-86.5 -10q-105 0 -163.5 32.5t-58.5 98.5zM362 222q0 -35 37 -53t98 -18q27 0 51 4.5t42 13.5
t28.5 22.5t10.5 30.5q0 37 -35.5 54t-96.5 17q-25 0 -49.5 -4t-43.5 -13t-30.5 -22.5t-11.5 -31.5zM391 525q0 -34 27 -59q13 -14 29 -19.5t34 -5.5q34 0 54 17q21 19 21 50q0 34 -26 56q-13 11 -29.5 17t-35.5 6q-32 0 -54 -17q-20 -15 -20 -45z" />
    <glyph glyph-name="uni24D7" unicode="&#x24d7;" horiz-adv-x="1000" 
d="M38 376q0 95 36 179t99 147q62 62 146.5 98.5t180.5 36.5t180 -36.5t147 -98.5q62 -63 98 -147t36 -179t-36 -179t-98 -147q-63 -63 -147 -99.5t-180 -36.5t-180.5 36.5t-146.5 99.5q-63 63 -99 147t-36 179zM120 376q0 -78 30 -147t82 -121t121 -82t147 -30t147 30
t121 82t82 121t30 147t-30 147t-82 121t-121 82t-147 30t-147 -30t-121 -82t-82 -121t-30 -147zM610 320q0 122 -93 122q-55 0 -75 -30q-21 -26 -21 -87l1 -235h-97v603h96v-224q10 10 22.5 17.5t27.5 14.5q37 14 75 14q159 0 159 -168v-257h-96z" />
    <glyph glyph-name="uni24D8" unicode="&#x24d8;" horiz-adv-x="1000" 
d="M38 376q0 95 36 179t99 147q62 62 146.5 98.5t180.5 36.5t180 -36.5t147 -98.5q62 -63 98 -147t36 -179t-36 -179t-98 -147q-63 -63 -147 -99.5t-180 -36.5t-180.5 36.5t-146.5 99.5q-63 63 -99 147t-36 179zM120 376q0 -78 30 -147t82 -121t121 -82t147 -30t147 30
t121 82t82 121t30 147t-30 147t-82 121t-121 82t-147 30t-147 -30t-121 -82t-82 -121t-30 -147zM504 581q-30 0 -50 20q-20 22 -20 50q0 27 21 45t49 18q27 0 45 -19q19 -21 19 -46q0 -26 -19 -48q-18 -20 -45 -20zM550 75h-102v440h102v-440z" />
    <glyph glyph-name="uni24D9" unicode="&#x24d9;" horiz-adv-x="1000" 
d="M38 376q0 95 36 179t99 147q62 62 146.5 98.5t180.5 36.5t180 -36.5t147 -98.5q62 -63 98 -147t36 -179t-36 -179t-98 -147q-63 -63 -147 -99.5t-180 -36.5t-180.5 36.5t-146.5 99.5q-63 63 -99 147t-36 179zM120 376q0 -78 30 -147t82 -121t121 -82t147 -30t147 30
t121 82t82 121t30 147t-30 147t-82 121t-121 82t-147 30t-147 -30t-121 -82t-82 -121t-30 -147zM532 704q27 0 45 -21q20 -20 20 -47q0 -25 -20 -45q-19 -20 -46 -20q-29 0 -48 20q-19 21 -19 49q0 26 21 46q19 18 47 18zM582 253q0 -78 -12 -111q-15 -44 -47 -63.5
t-83 -24.5q-14 -2 -26 -2.5t-21 0.5q-11 1 -20 2v80h34q32 0 44 11.5t23 30.5q5 9 6.5 33.5t1.5 53.5l1 251h99v-261z" />
    <glyph glyph-name="uni24DA" unicode="&#x24da;" horiz-adv-x="1000" 
d="M38 376q0 95 36 179t99 147q62 62 146.5 98.5t180.5 36.5t180 -36.5t147 -98.5q62 -63 98 -147t36 -179t-36 -179t-98 -147q-63 -63 -147 -99.5t-180 -36.5t-180.5 36.5t-146.5 99.5q-63 63 -99 147t-36 179zM120 376q0 -78 30 -147t82 -121t121 -82t147 -30t147 30
t121 82t82 121t30 147t-30 147t-82 121t-121 82t-147 30t-147 -30t-121 -82t-82 -121t-30 -147zM424 693l-1 -602h-92v602h93zM749 91h-91q-57 0 -97 52l-134 184l161 189h98q-42 -48 -75 -87q-14 -17 -28 -33t-25 -28q-11 -13 -18 -22t-8 -10q3 -4 11 -14.5t19 -24.5
t24 -31t26 -33q31 -40 68 -86q25 -30 51 -45z" />
    <glyph glyph-name="uni24DB" unicode="&#x24db;" horiz-adv-x="1000" 
d="M38 376q0 95 36 179t99 147q62 62 146.5 98.5t180.5 36.5t180 -36.5t147 -98.5q62 -63 98 -147t36 -179t-36 -179t-98 -147q-63 -63 -147 -99.5t-180 -36.5t-180.5 36.5t-146.5 99.5q-63 63 -99 147t-36 179zM120 376q0 -78 30 -147t82 -121t121 -82t147 -30t147 30
t121 82t82 121t30 147t-30 147t-82 121t-121 82t-147 30t-147 -30t-121 -82t-82 -121t-30 -147zM550 53h-102v645h102v-645z" />
    <glyph glyph-name="uni24DC" unicode="&#x24dc;" horiz-adv-x="1000" 
d="M38 376q0 95 36 179t99 147q62 62 146.5 98.5t180.5 36.5t180 -36.5t147 -98.5q62 -63 98 -147t36 -179t-36 -179t-98 -147q-63 -63 -147 -99.5t-180 -36.5t-180.5 36.5t-146.5 99.5q-63 63 -99 147t-36 179zM120 376q0 -78 30 -147t82 -121t121 -82t147 -30t147 30
t121 82t82 121t30 147t-30 147t-82 121t-121 82t-147 30t-147 -30t-121 -82t-82 -121t-30 -147zM679 379q0 77 -10.5 110.5t-47.5 33.5q-24 0 -38 -17t-21 -40q-7 -24 -9 -49.5t-2 -42.5l-1 -232h-97v246q0 16 -1.5 39t-7.5 44q-7 21 -20.5 36t-36.5 15t-35.5 -13.5
t-18.5 -33.5q-6 -21 -7 -46.5t-1 -49.5v-237h-98v455h78v-51q38 64 100 64q73 0 115 -80q47 80 118 80q40 0 65.5 -15.5t42.5 -43.5q17 -27 24 -62t7 -86l-1 -261h-97v237z" />
    <glyph glyph-name="uni24DD" unicode="&#x24dd;" horiz-adv-x="1000" 
d="M38 376q0 95 36 179t99 147q62 62 146.5 98.5t180.5 36.5t180 -36.5t147 -98.5q62 -63 98 -147t36 -179t-36 -179t-98 -147q-63 -63 -147 -99.5t-180 -36.5t-180.5 36.5t-146.5 99.5q-63 63 -99 147t-36 179zM120 376q0 -78 30 -147t82 -121t121 -82t147 -30t147 30
t121 82t82 121t30 147t-30 147t-82 121t-121 82t-147 30t-147 -30t-121 -82t-82 -121t-30 -147zM606 143l1 242q0 77 -24 112q-13 18 -31 27.5t-48 9.5q-25 0 -44 -11t-31 -29q-13 -19 -19.5 -43t-6.5 -49v-259h-102v456h102v-51q54 63 129 63q104 0 151 -69q25 -37 25 -147
v-252h-102z" />
    <glyph glyph-name="uni24DE" unicode="&#x24de;" horiz-adv-x="1000" 
d="M38 376q0 95 36 179t99 147q62 62 146.5 98.5t180.5 36.5t180 -36.5t147 -98.5q62 -63 98 -147t36 -179t-36 -179t-98 -147q-63 -63 -147 -99.5t-180 -36.5t-180.5 36.5t-146.5 99.5q-63 63 -99 147t-36 179zM120 376q0 -78 30 -147t82 -121t121 -82t147 -30t147 30
t121 82t82 121t30 147t-30 147t-82 121t-121 82t-147 30t-147 -30t-121 -82t-82 -121t-30 -147zM668 208q-72 -70 -173 -70q-98 0 -168 67q-35 33 -52 76t-17 94q0 54 18 99t56 80q69 66 175 66q94 0 156 -59q77 -70 77 -178q0 -106 -72 -175zM400 500q-38 -44 -38 -108
q0 -35 9.5 -65t26.5 -55q40 -57 102 -57q57 0 97 43q38 43 38 106q0 72 -34 123q-39 55 -105 55q-57 0 -96 -42z" />
    <glyph glyph-name="uni24DF" unicode="&#x24df;" horiz-adv-x="1000" 
d="M38 376q0 95 36 179t99 147q62 62 146.5 98.5t180.5 36.5t180 -36.5t147 -98.5q62 -63 98 -147t36 -179t-36 -179t-98 -147q-63 -63 -147 -99.5t-180 -36.5t-180.5 36.5t-146.5 99.5q-63 63 -99 147t-36 179zM120 376q0 -78 30 -147t82 -121t121 -82t147 -30t147 30
t121 82t82 121t30 147t-30 147t-82 121t-121 82t-147 30t-147 -30t-121 -82t-82 -121t-30 -147zM481 673q70 0 123 -18t89 -48q35 -31 52.5 -71t17.5 -84q0 -45 -18 -80.5t-49 -60.5q-32 -25 -74 -39t-90 -15q-45 -2 -76 5.5t-46 13.5v-153v-70h-100v590q28 9 55.5 15
t50.5 9t40 4.5t25 1.5zM501 336q31 -1 60 8t51 27q21 17 34 42.5t13 57.5q0 29 -13 51.5t-35 38.5t-50 24.5t-59 9.5q-24 1 -47 -3.5t-46 -11.5v-221q13 -8 35 -15t57 -8z" />
    <glyph glyph-name="uni24E0" unicode="&#x24e0;" horiz-adv-x="1000" 
d="M38 376q0 95 36 179t99 147q62 62 146.5 98.5t180.5 36.5t180 -36.5t147 -98.5q62 -63 98 -147t36 -179t-36 -179t-98 -147q-63 -63 -147 -99.5t-180 -36.5t-180.5 36.5t-146.5 99.5q-63 63 -99 147t-36 179zM120 376q0 -78 30 -147t82 -121t121 -82t147 -30t147 30
t121 82t82 121t30 147t-30 147t-82 121t-121 82t-147 30t-147 -30t-121 -82t-82 -121t-30 -147zM524 673q8 0 25 -1.5t40 -4.5t50.5 -9t55.5 -15v-590h-100v70q0 32 -0.5 71.5t0.5 81.5q-15 -6 -46 -13.5t-76 -5.5q-48 1 -90 15t-73 39q-32 25 -50 60.5t-18 80.5
q0 44 17.5 84t53.5 71q35 30 87.5 48t123.5 18zM504 336q35 1 57 8t35 15v221q-23 7 -46 11.5t-47 3.5q-31 -1 -59.5 -9.5t-49.5 -24.5q-22 -16 -35 -38.5t-13 -51.5q0 -32 13 -57.5t35 -42.5q21 -18 49.5 -27t60.5 -8z" />
    <glyph glyph-name="uni24E1" unicode="&#x24e1;" horiz-adv-x="1000" 
d="M38 376q0 95 36 179t99 147q62 62 146.5 98.5t180.5 36.5t180 -36.5t147 -98.5q62 -63 98 -147t36 -179t-36 -179t-98 -147q-63 -63 -147 -99.5t-180 -36.5t-180.5 36.5t-146.5 99.5q-63 63 -99 147t-36 179zM120 376q0 -78 30 -147t82 -121t121 -82t147 -30t147 30
t121 82t82 121t30 147t-30 147t-82 121t-121 82t-147 30t-147 -30t-121 -82t-82 -121t-30 -147zM658 510h-11h-14.5t-19.5 1q-26 0 -47 -6t-35 -25q-16 -20 -19.5 -43t-3.5 -58l-1 -241h-103v455h104v-52q14 23 36 38q17 11 31 15t39 4h44v-88z" />
    <glyph glyph-name="uni24E2" unicode="&#x24e2;" horiz-adv-x="1000" 
d="M38 376q0 95 36 179t99 147q62 62 146.5 98.5t180.5 36.5t180 -36.5t147 -98.5q62 -63 98 -147t36 -179t-36 -179t-98 -147q-63 -63 -147 -99.5t-180 -36.5t-180.5 36.5t-146.5 99.5q-63 63 -99 147t-36 179zM120 376q0 -78 30 -147t82 -121t121 -82t147 -30t147 30
t121 82t82 121t30 147t-30 147t-82 121t-121 82t-147 30t-147 -30t-121 -82t-82 -121t-30 -147zM629 393q71 -39 71 -108q0 -71 -64 -114q-61 -43 -158 -43q-70 0 -128 24l-24 10v90q11 -6 29 -13t41 -13q22 -6 48 -10.5t53 -4.5q18 0 34 2.5t30 8.5q34 15 34 44
q0 33 -62 57l-124 47q-71 38 -71 104q0 74 68 109q50 26 128 26q31 0 58 -2.5t51 -9.5l4 -1v-91q-15 7 -34 13q-17 5 -39.5 9.5t-50.5 4.5q-32 0 -57 -10t-25 -30q0 -28 62 -51q58 -21 89 -32.5t37 -15.5z" />
    <glyph glyph-name="uni24E3" unicode="&#x24e3;" horiz-adv-x="1000" 
d="M38 376q0 95 36 179t99 147q62 62 146.5 98.5t180.5 36.5t180 -36.5t147 -98.5q62 -63 98 -147t36 -179t-36 -179t-98 -147q-63 -63 -147 -99.5t-180 -36.5t-180.5 36.5t-146.5 99.5q-63 63 -99 147t-36 179zM120 376q0 -78 30 -147t82 -121t121 -82t147 -30t147 30
t121 82t82 121t30 147t-30 147t-82 121t-121 82t-147 30t-147 -30t-121 -82t-82 -121t-30 -147zM611 143q14 0 23 -0.5t14 -0.5h10l-1 -76q-10 -2 -23 -3q-11 -1 -28 -1t-39 2q-50 4 -82 24.5t-47 63.5q-6 18 -9.5 45.5t-3.5 66.5v194h-85v78h86v144h102v-144h124v-79
l-124 1v-186q0 -62 6 -83q9 -25 28 -35t49 -11z" />
    <glyph glyph-name="uni24E4" unicode="&#x24e4;" horiz-adv-x="1000" 
d="M38 376q0 95 36 179t99 147q62 62 146.5 98.5t180.5 36.5t180 -36.5t147 -98.5q62 -63 98 -147t36 -179t-36 -179t-98 -147q-63 -63 -147 -99.5t-180 -36.5t-180.5 36.5t-146.5 99.5q-63 63 -99 147t-36 179zM120 376q0 -78 30 -147t82 -121t121 -82t147 -30t147 30
t121 82t82 121t30 147t-30 147t-82 121t-121 82t-147 30t-147 -30t-121 -82t-82 -121t-30 -147zM598 140v50q-12 -14 -23.5 -25.5t-24.5 -19.5q-33 -18 -85 -18q-170 0 -172 199v268h101v-244q0 -138 101 -138q44 0 74 34q29 32 29 87v261h101v-454h-101z" />
    <glyph glyph-name="uni24E5" unicode="&#x24e5;" horiz-adv-x="1000" 
d="M38 376q0 95 36 179t99 147q62 62 146.5 98.5t180.5 36.5t180 -36.5t147 -98.5q62 -63 98 -147t36 -179t-36 -179t-98 -147q-63 -63 -147 -99.5t-180 -36.5t-180.5 36.5t-146.5 99.5q-63 63 -99 147t-36 179zM120 376q0 -78 30 -147t82 -121t121 -82t147 -30t147 30
t121 82t82 121t30 147t-30 147t-82 121t-121 82t-147 30t-147 -30t-121 -82t-82 -121t-30 -147zM743 595l-204 -455h-79l-204 455l108 1l144 -339l150 338h85z" />
    <glyph glyph-name="uni24E6" unicode="&#x24e6;" horiz-adv-x="1000" 
d="M38 376q0 95 36 179t99 147q62 62 146.5 98.5t180.5 36.5t180 -36.5t147 -98.5q62 -63 98 -147t36 -179t-36 -179t-98 -147q-63 -63 -147 -99.5t-180 -36.5t-180.5 36.5t-146.5 99.5q-63 63 -99 147t-36 179zM120 376q0 -78 30 -147t82 -121t121 -82t147 -30t147 30
t121 82t82 121t30 147t-30 147t-82 121t-121 82t-147 30t-147 -30t-121 -82t-82 -121t-30 -147zM826 593l-159 -455h-68q-26 78 -46 142q-9 27 -17.5 54.5t-15.5 50.5q-7 22 -12.5 38t-6.5 21q-2 -6 -7.5 -22t-12.5 -38q-8 -23 -17 -50l-18 -54q-21 -64 -47 -142h-69
l-150 455l89 1l104 -321l105 320h67l99 -319l110 319h72z" />
    <glyph glyph-name="uni24E7" unicode="&#x24e7;" horiz-adv-x="1000" 
d="M38 376q0 95 36 179t99 147q62 62 146.5 98.5t180.5 36.5t180 -36.5t147 -98.5q62 -63 98 -147t36 -179t-36 -179t-98 -147q-63 -63 -147 -99.5t-180 -36.5t-180.5 36.5t-146.5 99.5q-63 63 -99 147t-36 179zM120 376q0 -78 30 -147t82 -121t121 -82t147 -30t147 30
t121 82t82 121t30 147t-30 147t-82 121t-121 82t-147 30t-147 -30t-121 -82t-82 -121t-30 -147zM665 222q17 -23 29 -38.5t21 -25.5q10 -11 18 -18h-92q-30 0 -60 42l-90 129l-132 -171h-106l193 239l-155 219h116l100 -148l113 148h102l-168 -215z" />
    <glyph glyph-name="uni24E8" unicode="&#x24e8;" horiz-adv-x="1000" 
d="M38 376q0 95 36 179t99 147q62 62 146.5 98.5t180.5 36.5t180 -36.5t147 -98.5q62 -63 98 -147t36 -179t-36 -179t-98 -147q-63 -63 -147 -99.5t-180 -36.5t-180.5 36.5t-146.5 99.5q-63 63 -99 147t-36 179zM120 376q0 -78 30 -147t82 -121t121 -82t147 -30t147 30
t121 82t82 121t30 147t-30 147t-82 121t-121 82t-147 30t-147 -30t-121 -82t-82 -121t-30 -147zM740 642l-168 -402q-19 -45 -40.5 -86.5t-53.5 -64.5q-23 -17 -48 -24.5t-63 -9.5q-9 -1 -9.5 -1t2.5 0h5.5h3.5q-1 1 -9 1h-27l-55 83h69q9 0 21.5 1.5t25.5 5.5
q12 3 24.5 8.5t21.5 13.5q14 14 27.5 43t24.5 55l-198 377h109l138 -266l103 266h96z" />
    <glyph glyph-name="uni24E9" unicode="&#x24e9;" horiz-adv-x="1000" 
d="M38 376q0 95 36 179t99 147q62 62 146.5 98.5t180.5 36.5t180 -36.5t147 -98.5q62 -63 98 -147t36 -179t-36 -179t-98 -147q-63 -63 -147 -99.5t-180 -36.5t-180.5 36.5t-146.5 99.5q-63 63 -99 147t-36 179zM120 376q0 -78 30 -147t82 -121t121 -82t147 -30t147 30
t121 82t82 121t30 147t-30 147t-82 121t-121 82t-147 30t-147 -30t-121 -82t-82 -121t-30 -147zM711 219v-78l-438 -1l259 378l-222 1v79h390l-250 -380z" />
    <glyph glyph-name="SF100000" unicode="&#x2500;" horiz-adv-x="950" 
d="M3 375h944v-34h-944v34z" />
    <glyph glyph-name="uni2501" unicode="&#x2501;" horiz-adv-x="950" 
d="M3 395h944v-74h-944v74z" />
    <glyph glyph-name="SF110000" unicode="&#x2502;" horiz-adv-x="950" 
d="M492 855v-994h-34v994h34z" />
    <glyph glyph-name="uni2503" unicode="&#x2503;" horiz-adv-x="950" 
d="M512 855v-994h-74v994h74z" />
    <glyph glyph-name="SF010000" unicode="&#x250c;" horiz-adv-x="950" 
d="M492 -139h-34v514h489v-34h-455v-480z" />
    <glyph glyph-name="uni250D" unicode="&#x250d;" horiz-adv-x="950" 
d="M492 -139h-34v534h489v-74h-455v-460z" />
    <glyph glyph-name="uni250E" unicode="&#x250e;" horiz-adv-x="950" 
d="M512 -139h-73v514h508v-34h-435v-480z" />
    <glyph glyph-name="uni250F" unicode="&#x250f;" horiz-adv-x="950" 
d="M947 395v-74h-435v-460h-73v534h508z" />
    <glyph glyph-name="SF030000" unicode="&#x2510;" horiz-adv-x="950" 
d="M458 341h-455v34h489v-514h-34v480z" />
    <glyph glyph-name="uni2511" unicode="&#x2511;" horiz-adv-x="950" 
d="M458 321h-455v74h489v-534h-34v460z" />
    <glyph glyph-name="uni2512" unicode="&#x2512;" horiz-adv-x="950" 
d="M438 341h-435v34h508v-514h-73v480z" />
    <glyph glyph-name="uni2513" unicode="&#x2513;" horiz-adv-x="950" 
d="M511 395v-534h-73v460h-435v74h508z" />
    <glyph glyph-name="SF020000" unicode="&#x2514;" horiz-adv-x="950" 
d="M492 375h455v-34h-489v514h34v-480z" />
    <glyph glyph-name="uni2515" unicode="&#x2515;" horiz-adv-x="950" 
d="M492 395h455v-74h-489v534h34v-460z" />
    <glyph glyph-name="uni2516" unicode="&#x2516;" horiz-adv-x="950" 
d="M512 375h435v-34h-508v514h73v-480z" />
    <glyph glyph-name="uni2517" unicode="&#x2517;" horiz-adv-x="950" 
d="M439 321v534h73v-460h435v-74h-508z" />
    <glyph glyph-name="SF040000" unicode="&#x2518;" horiz-adv-x="950" 
d="M458 855h34v-514h-489v34h455v480z" />
    <glyph glyph-name="uni2519" unicode="&#x2519;" horiz-adv-x="950" 
d="M458 855h34v-534h-489v74h455v460z" />
    <glyph glyph-name="uni251A" unicode="&#x251a;" horiz-adv-x="950" 
d="M438 855h73v-514h-508v34h435v480z" />
    <glyph glyph-name="uni251B" unicode="&#x251b;" horiz-adv-x="950" 
d="M3 321v74h435v460h73v-534h-508z" />
    <glyph glyph-name="SF080000" unicode="&#x251c;" horiz-adv-x="950" 
d="M492 375h455v-34h-455v-480h-34v994h34v-480z" />
    <glyph glyph-name="uni251D" unicode="&#x251d;" horiz-adv-x="950" 
d="M492 395h455v-74h-455v-460h-34v994h34v-460z" />
    <glyph glyph-name="uni251E" unicode="&#x251e;" horiz-adv-x="950" 
d="M512 375h435v-34h-456q0 -120 0.5 -240t0.5 -240h-34v500h-19v494h73v-480z" />
    <glyph glyph-name="uni251F" unicode="&#x251f;" horiz-adv-x="950" 
d="M492 375h455v-34h-435v-480h-73v494h19v500h34v-480z" />
    <glyph glyph-name="uni2520" unicode="&#x2520;" horiz-adv-x="950" 
d="M439 -139v994h73v-480h435v-34h-435v-480h-73z" />
    <glyph glyph-name="uni2521" unicode="&#x2521;" horiz-adv-x="950" 
d="M512 395h435v-74h-455v-460h-34v500h-19v494h73v-460z" />
    <glyph glyph-name="uni2522" unicode="&#x2522;" horiz-adv-x="950" 
d="M492 395h455v-74h-435v-460h-73v494h19v500h34v-460z" />
    <glyph glyph-name="uni2523" unicode="&#x2523;" horiz-adv-x="950" 
d="M439 -139v994h73v-460h435v-74h-435v-460h-73z" />
    <glyph glyph-name="SF090000" unicode="&#x2524;" horiz-adv-x="950" 
d="M458 341h-455v34h455v480h34v-993h-34v479z" />
    <glyph glyph-name="uni2525" unicode="&#x2525;" horiz-adv-x="950" 
d="M458 321h-455v74h455v460h34v-993h-34v459z" />
    <glyph glyph-name="uni2526" unicode="&#x2526;" horiz-adv-x="950" 
d="M458 341h-455v34h435v480h73v-494h-20v-500h-33v480z" />
    <glyph glyph-name="uni2527" unicode="&#x2527;" horiz-adv-x="950" 
d="M438 341h-435v34h455v480h33v-500h20v-494h-73v480z" />
    <glyph glyph-name="uni2528" unicode="&#x2528;" horiz-adv-x="950" 
d="M438 -139v480h-435v34h435v480h73v-994h-73z" />
    <glyph glyph-name="uni2529" unicode="&#x2529;" horiz-adv-x="950" 
d="M458 321h-455v74h435v460h73v-494h-20v-499h-33v459z" />
    <glyph glyph-name="uni252A" unicode="&#x252a;" horiz-adv-x="950" 
d="M438 321h-435v74h455v460h33v-500h20v-494h-73v460z" />
    <glyph glyph-name="uni252B" unicode="&#x252b;" horiz-adv-x="950" 
d="M438 -139v460h-435v74h435v460h73v-994h-73z" />
    <glyph glyph-name="SF060000" unicode="&#x252c;" horiz-adv-x="950" 
d="M492 341v-480h-34v480h-455v34h944v-34h-455z" />
    <glyph glyph-name="uni252D" unicode="&#x252d;" horiz-adv-x="950" 
d="M492 341v-480h-34v460h-455v74h469v-20h475v-34h-455z" />
    <glyph glyph-name="uni252E" unicode="&#x252e;" horiz-adv-x="950" 
d="M492 321v-460h-34v480h-455v34h475v20h469v-74h-455z" />
    <glyph glyph-name="uni252F" unicode="&#x252f;" horiz-adv-x="950" 
d="M458 -139v460h-455v74h944v-74h-455v-460h-34z" />
    <glyph glyph-name="uni2530" unicode="&#x2530;" horiz-adv-x="950" 
d="M512 341v-480h-74v480h-435v34h944v-34h-435z" />
    <glyph glyph-name="uni2531" unicode="&#x2531;" horiz-adv-x="950" 
d="M512 341v-480h-74v460h-435v74h469v-20h475v-34h-435z" />
    <glyph glyph-name="uni2532" unicode="&#x2532;" horiz-adv-x="950" 
d="M3 341v34h475v20h469v-74h-435v-460h-74v480h-435z" />
    <glyph glyph-name="uni2533" unicode="&#x2533;" horiz-adv-x="950" 
d="M438 -139v460h-435v74h944v-74h-435v-460h-74z" />
    <glyph glyph-name="SF070000" unicode="&#x2534;" horiz-adv-x="950" 
d="M458 375v479h34v-479h455v-34h-944v34h455z" />
    <glyph glyph-name="uni2535" unicode="&#x2535;" horiz-adv-x="950" 
d="M458 395v459h34v-479h455v-34h-475v-20h-469v74h455z" />
    <glyph glyph-name="uni2536" unicode="&#x2536;" horiz-adv-x="950" 
d="M947 395v-74h-469v20h-475v34h455v479h34v-459h455z" />
    <glyph glyph-name="uni2537" unicode="&#x2537;" horiz-adv-x="950" 
d="M492 855v-460h455v-74h-944v74h455v460h34z" />
    <glyph glyph-name="uni2538" unicode="&#x2538;" horiz-adv-x="950" 
d="M438 375v480h74v-480h435v-34h-944v34h435z" />
    <glyph glyph-name="uni2539" unicode="&#x2539;" horiz-adv-x="950" 
d="M438 395v460h74v-480h435v-34h-475v-20h-469v74h435z" />
    <glyph glyph-name="uni253A" unicode="&#x253a;" horiz-adv-x="950" 
d="M947 395v-74h-469v20h-475v34h435v480h74v-460h435z" />
    <glyph glyph-name="uni253B" unicode="&#x253b;" horiz-adv-x="950" 
d="M512 855v-460h435v-74h-944v74h435v460h74z" />
    <glyph glyph-name="SF050000" unicode="&#x253c;" horiz-adv-x="950" 
d="M458 341h-455v34h455v480h34v-480h455v-34h-455v-480h-34v480z" />
    <glyph glyph-name="uni253D" unicode="&#x253d;" horiz-adv-x="950" 
d="M458 321h-455v78h455v456h34v-480h455v-34h-455v-480h-34v460z" />
    <glyph glyph-name="uni253E" unicode="&#x253e;" horiz-adv-x="950" 
d="M458 341h-455v34h455v480h34v-460h455v-74h-455v-460h-34v480z" />
    <glyph glyph-name="uni253F" unicode="&#x253f;" horiz-adv-x="950" 
d="M492 855v-460h455v-74h-455v-460h-34v460h-455v74h455v460h34z" />
    <glyph glyph-name="uni2540" unicode="&#x2540;" horiz-adv-x="950" 
d="M458 341h-455v34h435v480h74v-480h435v-34h-455v-480h-34v480z" />
    <glyph glyph-name="uni2541" unicode="&#x2541;" horiz-adv-x="950" 
d="M458 855h34v-480h455v-34h-435v-480h-74v480h-435v34h455v480z" />
    <glyph glyph-name="uni2542" unicode="&#x2542;" horiz-adv-x="950" 
d="M438 341h-435v34h435v480h74v-480h435v-34h-435v-480h-74v480z" />
    <glyph glyph-name="uni2543" unicode="&#x2543;" horiz-adv-x="950" 
d="M492 -139h-34v460h-455v74h435v460h74v-480h435v-34h-455v-480z" />
    <glyph glyph-name="uni2544" unicode="&#x2544;" horiz-adv-x="950" 
d="M458 341h-455v34h435v480h74v-460h435v-74h-455v-460h-34v480z" />
    <glyph glyph-name="uni2545" unicode="&#x2545;" horiz-adv-x="950" 
d="M492 375h455v-34h-435v-480h-74v460h-435v74h455v460h34v-480z" />
    <glyph glyph-name="uni2546" unicode="&#x2546;" horiz-adv-x="950" 
d="M458 855h34v-460h455v-74h-435v-460h-74v480h-435v34h455v480z" />
    <glyph glyph-name="uni2547" unicode="&#x2547;" horiz-adv-x="950" 
d="M458 321h-455v74h435v460h74v-460h435v-74h-455v-460h-34v460z" />
    <glyph glyph-name="uni2548" unicode="&#x2548;" horiz-adv-x="950" 
d="M458 855h34v-460h455v-74h-435v-460h-74v460h-435v74h455v460z" />
    <glyph glyph-name="uni2549" unicode="&#x2549;" horiz-adv-x="950" 
d="M512 -139h-74v460h-435v74h435v460h74v-480h435v-34h-435v-480z" />
    <glyph glyph-name="uni254A" unicode="&#x254a;" horiz-adv-x="950" 
d="M438 341h-435v34h435v480h74v-460h435v-74h-435v-460h-74v480z" />
    <glyph glyph-name="uni254B" unicode="&#x254b;" horiz-adv-x="950" 
d="M512 855v-460h435v-74h-435v-460h-74v460h-435v74h435v460h74z" />
    <glyph glyph-name="shade" unicode="&#x2592;" horiz-adv-x="950" 
d="M845 -29h-741v776h741v-776z" />
    <glyph glyph-name="filledbox" unicode="&#x25a0;" horiz-adv-x="950" 
d="M207 640h536v-564h-536v564z" />
    <glyph glyph-name="H22073" unicode="&#x25a1;" horiz-adv-x="950" 
d="M207 640h536v-564h-536v564zM269 576v-436h412v436h-412z" />
    <glyph glyph-name="uni25A3" unicode="&#x25a3;" horiz-adv-x="950" 
d="M806 707v-698h-663v698h663zM210 640v-564h530v564h-530zM643 535v-354h-336v354h336z" />
    <glyph glyph-name="uni25A4" unicode="&#x25a4;" horiz-adv-x="950" 
d="M107 -28v772h735v-772h-735zM129 81v-83h692v83h-692zM129 187v-83h692v83h-692zM129 293v-82h692v82h-692zM129 400v-83h692v83h-692zM129 506v-82h692v82h-692zM129 613v-83h692v83h-692zM129 719v-83h692v83h-692z" />
    <glyph glyph-name="uni25A5" unicode="&#x25a5;" horiz-adv-x="950" 
d="M842 -29h-734v774h734v-774zM738 -6h79v728h-79v-728zM637 -6h79v728h-79v-728zM536 -6h79v728h-79v-728zM435 -6h79v728h-79v-728zM334 -6h79v728h-79v-728zM233 -6h79v728h-79v-728zM132 -6h79v728h-79v-728z" />
    <glyph glyph-name="uni25A6" unicode="&#x25a6;" horiz-adv-x="950" 
d="M107 -28v772h735v-772h-735zM435 -2h80v83h-80v-83zM639 81v-83h80v83h-80zM617 -2v83h-80v-83h80zM311 -2v83h-80v-83h80zM209 -2v83h-80v-83h80zM413 -2v83h-80v-83h80zM741 81v-83h80v83h-80zM435 104h80v83h-80v-83zM639 187v-83h80v83h-80zM617 104v83h-80v-83h80z
M311 104v83h-80v-83h80zM209 104v83h-80v-83h80zM413 104v83h-80v-83h80zM741 187v-83h80v83h-80zM435 211h80v82h-80v-82zM639 293v-82h80v82h-80zM617 211v82h-80v-82h80zM311 211v82h-80v-82h80zM209 211v82h-80v-82h80zM413 211v82h-80v-82h80zM741 293v-82h80v82h-80z
M435 317h80v83h-80v-83zM639 400v-83h80v83h-80zM617 317v83h-80v-83h80zM311 317v83h-80v-83h80zM209 317v83h-80v-83h80zM413 317v83h-80v-83h80zM741 400v-83h80v83h-80zM435 424h80v82h-80v-82zM639 506v-82h80v82h-80zM617 424v82h-80v-82h80zM311 424v82h-80v-82h80z
M209 424v82h-80v-82h80zM413 424v82h-80v-82h80zM741 506v-82h80v82h-80zM435 530h80v83h-80v-83zM639 613v-83h80v83h-80zM617 530v83h-80v-83h80zM311 530v83h-80v-83h80zM209 530v83h-80v-83h80zM413 530v83h-80v-83h80zM741 613v-83h80v83h-80zM435 636h80v83h-80v-83z
M639 719v-83h80v83h-80zM617 636v83h-80v-83h80zM311 636v83h-80v-83h80zM209 636v83h-80v-83h80zM413 636v83h-80v-83h80zM741 719v-83h80v83h-80z" />
    <glyph glyph-name="uni25A7" unicode="&#x25a7;" horiz-adv-x="950" 
d="M107 744h734v-774h-734v774zM249 720h-100l672 -707v106zM703 -6h101l-672 707v-106zM132 558v-105l436 -459h101zM132 131v-137h130zM297 -6h101l-266 279v-105zM533 -6l-401 422v-106l300 -316h101zM817 583v137h-130zM652 720h-101l266 -279v105zM416 720l401 -422
v106l-300 316h-101zM821 156v105l-436 459h-101z" />
    <glyph glyph-name="uni25A8" unicode="&#x25a8;" horiz-adv-x="950" 
d="M842 745v-774h-734v774h734zM699 721l-571 -601v-106l672 707h-101zM246 -5l571 601v106l-672 -707h101zM817 559l-537 -564h101l436 459v105zM817 132l-130 -137h130v137zM652 -5l165 174v105l-266 -279h101zM416 -5h101l300 316v106zM132 584l130 137h-130v-137z
M297 721l-165 -174v-105l266 279h-101zM533 721h-101l-300 -316v-106zM128 157l537 564h-101l-436 -459v-105z" />
    <glyph glyph-name="uni25A9" unicode="&#x25a9;" horiz-adv-x="950" 
d="M845 -29h-741v776h741v-776zM732 448l67 -70l17 17v109l-15 15zM799 197l17 18v106l-18 19l-67 -70zM477 719l83 -86l67 69l-16 17h-134zM217 450l-69 70l-18 -16v-107l17 -19zM130 143v-127l77 83l-58 62zM147 197l70 73l-69 70l-18 -19v-106zM270 719h-121l76 -80
l59 65zM389 634l66 70l-14 15h-106l-13 -16zM643 -1h154l-78 81zM130 576l18 -19l59 62l-77 81v-124zM389 84l-67 -71l13 -14h106l14 15zM271 -1l14 14l-60 66l-75 -80h121zM477 -1h134l16 17l-67 70zM816 143l-19 18l-58 -62l77 -83v127zM643 719l76 -81l78 81h-154z
M816 576v124l-77 -81l59 -62zM303 684l-60 -63l67 -70l60 63zM224 601l-59 -62l67 -72l60 64zM474 684l-66 -71l67 -71l66 71zM389 594l-60 -64l67 -70l60 62zM310 511l-59 -63l68 -71l59 63zM234 430l-68 -71l68 -71l68 71zM560 595l-66 -72l58 -62l66 70zM475 504l-61 -63
l59 -63l60 63zM395 422l-59 -63l59 -64l59 63zM320 341l-68 -71l59 -63l68 71zM638 512l-66 -71l58 -63l67 70zM554 422l-61 -64l59 -63l60 63zM474 339l-59 -63l59 -63l59 62zM398 259l-67 -71l58 -65l68 72zM716 430l-66 -71l67 -69l67 70zM631 340l-61 -64l68 -69l60 63z
M552 257l-59 -62l67 -71l59 63zM476 177l-68 -72l68 -70l67 71zM715 251l-60 -64l67 -69l60 62zM636 168l-59 -63l68 -70l59 63zM645 684l-66 -71l57 -63l68 70zM723 601l-66 -71l58 -63l67 71zM233 251l-68 -72l59 -63l68 71zM312 168l-68 -71l59 -64l67 71z" />
    <glyph glyph-name="triagup" unicode="&#x25b2;" horiz-adv-x="950" 
d="M475 655l338 -604h-674z" />
    <glyph glyph-name="uni25B3" unicode="&#x25b3;" horiz-adv-x="950" 
d="M475 655l338 -604h-674zM234 103h481l-240 446z" />
    <glyph glyph-name="uni25B6" unicode="&#x25b6;" horiz-adv-x="950" 
d="M781 358l-573 -355v710z" />
    <glyph glyph-name="uni25B7" unicode="&#x25b7;" horiz-adv-x="950" 
d="M781 358l-573 -355v710zM248 89l442 269l-442 268v-537z" />
    <glyph glyph-name="triagdn" unicode="&#x25bc;" horiz-adv-x="950" 
d="M475 48l-336 604h674z" />
    <glyph glyph-name="uni25BD" unicode="&#x25bd;" horiz-adv-x="950" 
d="M139 655h674l-338 -604zM475 157l240 446h-481z" />
    <glyph glyph-name="uni25C0" unicode="&#x25c0;" horiz-adv-x="950" 
d="M169 358l573 355v-710z" />
    <glyph glyph-name="uni25C1" unicode="&#x25c1;" horiz-adv-x="950" 
d="M741 713v-710l-573 355zM701 626l-442 -268l442 -269v537z" />
    <glyph glyph-name="uni25C6" unicode="&#x25c6;" horiz-adv-x="950" 
d="M129 358l346 364l346 -364l-346 -364z" />
    <glyph glyph-name="uni25C7" unicode="&#x25c7;" horiz-adv-x="950" 
d="M129 358l346 364l346 -364l-346 -364zM201 358l274 -290l274 290l-274 290z" />
    </font>
</defs>
</svg>
