<?xml version="1.0" standalone="no"?>
<!DOCTYPE svg PUBLIC "-//W3C//DTD SVG 1.1//EN" "http://www.w3.org/Graphics/SVG/1.1/DTD/svg11.dtd" >
<svg xmlns="http://www.w3.org/2000/svg" xmlns:xlink="http://www.w3.org/1999/xlink" version="1.1">
<metadata>
Created by FontForge 20190801 at Wed Jan  9 11:24:56 2013
 By Jimmy Wärting
</metadata>
<defs>
<font id="KorUL" horiz-adv-x="800" >
  <font-face 
    font-family="KorUL"
    font-weight="400"
    font-stretch="normal"
    units-per-em="1000"
    panose-1="2 2 6 3 2 1 1 2 1 1"
    ascent="858"
    descent="-142"
    x-height="514"
    cap-height="804"
    bbox="0 -143 7242 950"
    underline-thickness="25"
    underline-position="-154"
    unicode-range="U+0020-FFE6"
  />
<missing-glyph horiz-adv-x="1000" 
d="M100 -42v800h800v-800h-800zM150 8h700v700h-700v-700z" />
    <glyph glyph-name=".notdef" horiz-adv-x="1000" 
d="M100 -42v800h800v-800h-800zM150 8h700v700h-700v-700z" />
    <glyph glyph-name="glyph1" horiz-adv-x="0" 
 />
    <glyph glyph-name="glyph2" horiz-adv-x="1000" 
 />
    <glyph glyph-name="space" unicode=" " horiz-adv-x="280" 
d="M0 58z" />
    <glyph glyph-name="exclam" unicode="!" horiz-adv-x="389" 
d="M196 209h-42l55 519h64zM123 84h70l-10 -75h-69z" />
    <glyph glyph-name="quotedbl" unicode="&#x22;" horiz-adv-x="410" 
d="M98 821h53l-7 -235h-37zM259 821h53l-8 -235h-37z" />
    <glyph glyph-name="numbersign" unicode="#" horiz-adv-x="625" 
d="M67 529h520v-48h-520v48zM38 271h520v-48h-520v48zM222 720h48q-13 -90 -25 -175.5t-24 -169.5q-12 -85 -24.5 -170t-24.5 -175h-48zM448 720h48q-12 -90 -24.5 -175.5t-24.5 -169.5l-24 -170t-25 -175h-48z" />
    <glyph glyph-name="dollar" unicode="$" horiz-adv-x="596" 
d="M290 399v430h49v-450zM328 343v-420h-49v441zM245 437q18 -10 45.5 -23.5t56.5 -27.5q29 -15 55 -28t41 -22q16 -10 32 -25.5t29 -34.5q12 -19 19.5 -40.5t7.5 -43.5q0 -51 -23 -88t-61 -61t-87.5 -35.5t-102.5 -11.5q-61 0 -113 9t-81 25v65q45 -24 99 -36.5t108 -12.5
q35 0 70.5 7.5t64.5 24.5q28 16 46 41.5t18 60.5q0 21 -4.5 38t-15.5 33q-12 15 -32 30t-50 32q-23 13 -50 26t-54 27q-28 13 -55.5 27t-49.5 29q-38 26 -63 63t-25 81q0 49 23.5 83.5t60.5 55.5t82.5 30.5t89.5 9.5q33 0 69 -5t70 -14v-63q-74 30 -141 34q-26 1 -59 -5.5
t-63 -20.5t-50.5 -37.5t-20.5 -56.5q0 -47 26.5 -77.5t87.5 -62.5z" />
    <glyph glyph-name="percent" unicode="%" horiz-adv-x="790" 
d="M580 731h53q-55 -95 -107.5 -184.5t-103.5 -177.5q-52 -89 -104.5 -178.5t-107.5 -183.5h-53zM55 571q0 30 10.5 56t29.5 46q18 19 42.5 30t52.5 11t52.5 -11t43.5 -30q18 -20 28.5 -46t10.5 -56t-10.5 -56t-28.5 -45q-19 -20 -43.5 -31t-52.5 -11t-52.5 11t-42.5 31
q-19 19 -29.5 45t-10.5 56zM97 571q0 -44 26.5 -74t66.5 -30q19 0 36.5 8t30.5 22q12 14 19.5 33t7.5 41t-7.5 41t-19.5 33q-13 14 -30.5 22.5t-36.5 8.5q-40 0 -66.5 -30.5t-26.5 -74.5zM465 167q0 30 10.5 56t29.5 46q18 19 42.5 30t52.5 11t52.5 -11t43.5 -30
q18 -20 28.5 -46t10.5 -56t-10.5 -56t-28.5 -45q-19 -20 -43.5 -31t-52.5 -11t-52.5 11t-42.5 31q-19 19 -29.5 45t-10.5 56zM507 167q0 -44 26.5 -74t66.5 -30q19 0 36.5 8t30.5 22q12 14 19.5 33t7.5 41t-7.5 41t-19.5 33q-13 14 -30.5 22.5t-36.5 8.5q-40 0 -66.5 -30.5
t-26.5 -74.5z" />
    <glyph glyph-name="ampersand" unicode="&#x26;" horiz-adv-x="721" 
d="M608 378q-10 -78 -32.5 -137.5t-59.5 -108.5q24 -28 51.5 -57.5t56.5 -61.5h-57l-78 82q-47 -48 -102 -71t-110 -23q-41 0 -79.5 13.5t-67.5 37.5q-30 25 -47.5 60t-17.5 78q0 34 13 65.5t36 58.5t54 48.5t67 37.5q-32 39 -57.5 80.5t-25.5 87.5q0 40 13.5 70t36.5 49
q22 19 52.5 28.5t65.5 9.5q31 0 59.5 -9t50.5 -27q22 -19 34.5 -47t12.5 -66q0 -29 -14.5 -56t-38.5 -51q-24 -25 -54.5 -46t-62.5 -37l181 -223q15 27 27.5 51t22.5 49q9 25 15 53t8 62h47zM113 196q0 -33 13 -60.5t37 -47.5t57 -31t74 -11q22 0 45.5 6.5t45.5 18.5
q22 11 41.5 25.5t33.5 30.5l-194 241q-32 -10 -59.5 -28t-48.5 -41t-33 -49.5t-12 -53.5zM201 568q0 -34 23.5 -74t56.5 -74q24 12 50 28.5t48 36.5t36 42.5t14 45.5q0 28 -9 48.5t-24 34.5q-16 13 -36.5 19t-43.5 6q-56 0 -85.5 -29.5t-29.5 -83.5z" />
    <glyph glyph-name="quotesingle" unicode="'" horiz-adv-x="242" 
d="M96 821h53l-7 -235h-37z" />
    <glyph glyph-name="parenleft" unicode="(" horiz-adv-x="341" 
d="M227 -51q-32 49 -60 100t-48 105q-21 54 -32.5 110.5t-11.5 116.5t12 116.5t33 110.5q20 54 47.5 105t59.5 100h49q-30 -53 -56 -107t-45 -108q-20 -55 -31 -109.5t-11 -107.5t11 -107.5t31 -108.5q19 -55 45 -109.5t56 -106.5h-49z" />
    <glyph glyph-name="parenright" unicode=")" horiz-adv-x="341" 
d="M65 -51q30 52 56 106.5t46 109.5q19 54 30 108.5t11 107.5t-11 107.5t-30 109.5q-20 54 -46 108t-56 107h49q32 -49 59.5 -100t48.5 -105q20 -54 32 -110.5t12 -116.5t-11.5 -116.5t-31.5 -110.5q-21 -54 -49 -105t-60 -100h-49z" />
    <glyph glyph-name="asterisk" unicode="*" horiz-adv-x="556" 
d="M277 532l-90 -152l-49 35l118 131l-167 34l20 59l157 -63l-17 171h63l-17 -170q13 6 31.5 13.5t39.5 16.5q20 8 41.5 16.5t41.5 16.5l20 -63l-164 -34l113 -129l-51 -33z" />
    <glyph glyph-name="plus" unicode="+" horiz-adv-x="598" 
d="M50 427h222v229h53v-229h223v-46h-223v-231h-53v231h-222v46z" />
    <glyph glyph-name="comma" unicode="," horiz-adv-x="250" 
d="M107 149h58l-85 -204l-39 1z" />
    <glyph glyph-name="hyphen" unicode="-" horiz-adv-x="550" 
d="M50 433h450v-51h-450v51z" />
    <glyph glyph-name="period" unicode="." horiz-adv-x="217" 
d="M149 24h-81v76h81v-76z" />
    <glyph glyph-name="slash" unicode="/" horiz-adv-x="372" 
d="M284 729h45l-241 -720h-45z" />
    <glyph glyph-name="zero" unicode="0" horiz-adv-x="598" 
d="M45 371q0 78 20 146t54 119t80 80.5t99 29.5t99 -29.5t81 -80.5q34 -51 54 -119t20 -146t-20 -146t-54 -119q-35 -51 -81 -80.5t-99 -29.5t-99 29.5t-80 80.5t-54 119t-20 146zM100 371q0 -67 16 -126t43 -103q27 -45 63 -71t76 -26t76.5 26t63.5 71q27 44 43 103t16 126
t-16 126t-43 104q-27 44 -63.5 70t-76.5 26t-76 -26t-63 -70q-27 -45 -43 -104t-16 -126z" />
    <glyph glyph-name="one" unicode="1" horiz-adv-x="334" 
d="M95 718q33 3 70 7t74 9v-724h-56v667h-88v41z" />
    <glyph glyph-name="two" unicode="2" horiz-adv-x="600" 
d="M533 10h-449v18q34 32 69.5 69.5t70.5 77.5q34 40 65.5 81.5t58.5 82.5q33 51 51 93.5t18 83.5q0 37 -12 70t-34 58q-23 24 -55 38t-72 14q-43 0 -84.5 -23.5t-76.5 -54.5v63q39 32 82.5 48.5t84.5 16.5q46 0 86.5 -16t70.5 -45t47.5 -69t17.5 -89q0 -43 -13 -86.5
t-40 -87.5q-13 -22 -35.5 -53.5t-52.5 -69.5q-30 -39 -68 -82.5t-83 -89.5h353v-48z" />
    <glyph glyph-name="three" unicode="3" horiz-adv-x="521" 
d="M101 716q31 12 64.5 21t63.5 9q44 0 83 -10.5t69 -31.5q29 -22 46 -56t17 -81q0 -26 -6 -52.5t-22 -49.5q-16 -24 -43 -44t-70 -33q67 -20 110.5 -65t43.5 -113q0 -50 -17.5 -89t-48.5 -67q-31 -27 -73.5 -41.5t-92.5 -14.5q-34 0 -73 7.5t-73 24.5v60q35 -23 75.5 -32.5
t79.5 -9.5q34 0 64.5 10.5t53.5 31.5q23 20 36.5 49t13.5 66q0 40 -18 68.5t-46 47.5q-29 19 -65 28.5t-72 11.5v48q84 5 136 40.5t52 97.5q0 64 -40.5 106.5t-119.5 42.5q-35 0 -67 -10t-61 -21v51z" />
    <glyph glyph-name="four" unicode="4" horiz-adv-x="632" 
d="M137 279h285v341zM477 729v-450h90v-52h-90v-217h-55v217h-357v40q52 60 99.5 117.5t94.5 113.5q46 56 93.5 113.5t99.5 117.5h25z" />
    <glyph glyph-name="five" unicode="5" horiz-adv-x="533" 
d="M430 677h-255v-228q58 4 112.5 -8.5t97.5 -40.5q42 -29 67.5 -72t25.5 -99q0 -51 -20 -93t-54 -73t-79.5 -48t-96.5 -17q-44 0 -84 7t-87 29v61q28 -20 73 -35.5t98 -15.5q37 0 71.5 12t61.5 36q26 23 42 57t16 78q0 46 -21 79t-55 54t-76 30.5t-84 9.5q-15 0 -30 -1.5
t-32 -3.5v334h309v-52z" />
    <glyph glyph-name="six" unicode="6" horiz-adv-x="578" 
d="M298 364q-54 0 -94 -21t-81 -59q-9 -39 -3 -85t28 -85q21 -40 57.5 -66.5t86.5 -26.5q36 0 66.5 13.5t52.5 36.5t34.5 54.5t12.5 66.5q0 33 -11.5 64t-32.5 55t-50.5 38.5t-65.5 14.5zM61 236q0 76 22 146t62 133q39 63 93.5 118.5t119.5 101.5l35 -43
q-49 -30 -93.5 -71.5t-79.5 -88.5q-36 -48 -59.5 -97.5t-30.5 -94.5q40 40 90.5 55t92.5 15q43 0 80 -18t65 -48q27 -30 43 -69.5t16 -83.5q0 -42 -17 -81t-46 -69t-68.5 -48t-84.5 -18q-55 0 -99.5 20t-75.5 55t-48 82.5t-17 103.5z" />
    <glyph glyph-name="seven" unicode="7" horiz-adv-x="600" 
d="M184 -1l-46 18l303 660h-380v52h467z" />
    <glyph glyph-name="eight" unicode="8" horiz-adv-x="595" 
d="M61 196q0 62 38.5 111t100.5 72q-54 24 -86.5 70.5t-32.5 103.5q0 40 17 76t47 62t70 41.5t86 15.5t86.5 -15.5t70.5 -41.5t47 -62t17 -76q0 -59 -34.5 -106t-90.5 -70q60 -24 97.5 -72.5t37.5 -108.5q0 -42 -18.5 -78.5t-50.5 -63.5t-75 -42.5t-92 -15.5t-91.5 15.5
t-74.5 42.5t-50.5 63.5t-18.5 78.5zM116 196q0 -31 14.5 -58.5t39.5 -47.5q24 -21 57 -33t69 -12q37 0 69.5 12t57.5 33q25 20 39.5 47.5t14.5 58.5t-14.5 58.5t-39.5 48.5q-25 20 -57.5 32t-69.5 12q-36 0 -69 -12t-57 -32q-25 -21 -39.5 -48.5t-14.5 -58.5zM136 553
q0 -30 13.5 -56.5t36.5 -46.5q22 -20 52 -31.5t63 -11.5q34 0 64 11.5t53 31.5q22 20 35.5 46.5t13.5 56.5t-13.5 56.5t-35.5 46.5q-23 20 -53 31.5t-64 11.5q-33 0 -63 -11.5t-52 -31.5q-23 -20 -36.5 -46.5t-13.5 -56.5z" />
    <glyph glyph-name="nine" unicode="9" horiz-adv-x="582" 
d="M289 356q54 0 94 21t81 59q9 39 3 85t-27 86q-22 39 -58.5 65.5t-86.5 26.5q-36 0 -66.5 -13.5t-52.5 -36.5q-22 -24 -34.5 -55t-12.5 -66q0 -33 11.5 -64t32.5 -55t50.5 -38.5t65.5 -14.5zM526 484q0 -76 -22 -146t-61 -133q-40 -63 -94.5 -118.5t-119.5 -101.5l-35 43
q49 30 93.5 71.5t80.5 89.5q35 47 58.5 96.5t30.5 94.5q-40 -40 -90.5 -55t-92.5 -15q-43 0 -80 18t-64 48q-28 30 -44 69.5t-16 83.5q0 42 17 81t46 69t68.5 48t84.5 18q55 0 99.5 -20t75.5 -55t48 -83t17 -103z" />
    <glyph glyph-name="colon" unicode=":" horiz-adv-x="217" 
d="M156 150h-95v90h95v-90zM156 502h-95v90h95v-90z" />
    <glyph glyph-name="semicolon" unicode=";" horiz-adv-x="257" 
d="M81 248h73l-79 -192h-54zM176 518h-95v90h95v-90z" />
    <glyph glyph-name="less" unicode="&#x3c;" horiz-adv-x="598" 
d="M63 404q127 66 247 128.5t245 127.5v-56l-450 -228l450 -239v-55l-492 256v66z" />
    <glyph glyph-name="equal" unicode="=" horiz-adv-x="598" 
d="M40 531h518v-53h-518v53zM40 283h518v-52h-518v52z" />
    <glyph glyph-name="greater" unicode="&#x3e;" horiz-adv-x="598" 
d="M555 338l-492 -256v55l450 233l-450 234v56q124 -65 244.5 -127.5t247.5 -128.5v-66z" />
    <glyph glyph-name="question" unicode="?" horiz-adv-x="436" 
d="M163 246q1 30 12.5 57.5t28.5 53.5q16 26 35.5 51t36.5 50q16 25 27 49.5t11 49.5q0 27 -11.5 51t-31.5 42q-21 18 -50 28.5t-64 10.5t-71 -10.5t-68 -26.5l-6 55q34 15 72 24.5t83 9.5q39 0 76 -11.5t66 -33.5q28 -23 45 -56t17 -77q0 -32 -11.5 -59t-28.5 -51
q-17 -25 -37 -49t-37 -48q-18 -25 -30.5 -52.5t-13.5 -59.5v-33h-50v35zM153 91h71v-81h-71v81z" />
    <glyph glyph-name="at" unicode="@" horiz-adv-x="788" 
d="M350 209q32 0 59 19t47 48q20 28 31.5 61t11.5 62q0 21 -6.5 41t-17.5 36q-12 15 -28 24.5t-36 9.5q-35 0 -63.5 -18t-48.5 -45q-21 -27 -32.5 -59.5t-11.5 -60.5q0 -23 6 -44t18 -37q12 -17 30 -27t41 -10zM691 416q0 70 -27 120.5t-68 83.5q-42 32 -91.5 47.5
t-94.5 15.5q-69 0 -126 -25.5t-98 -68.5q-41 -44 -64 -102t-23 -123q0 -75 24.5 -134t67.5 -99q43 -41 102 -62.5t127 -21.5q31 0 64 8t63 22q29 13 53 31.5t39 38.5h59q-54 -66 -129 -101t-153 -35q-75 0 -141.5 24t-115.5 70q-50 45 -79 111t-29 150q0 81 29 146.5
t78 112.5q49 46 114.5 71t138.5 25q63 0 122 -21t105 -59q45 -39 72 -92t27 -117q0 -69 -25 -120.5t-60 -84.5q-36 -34 -75 -50.5t-67 -16.5q-13 0 -25.5 14.5t-27.5 51.5q-35 -32 -66.5 -48.5t-52.5 -16.5q-28 0 -52 12t-42 33q-18 20 -28.5 47t-10.5 58q0 45 14 89t41 78
q26 34 63 55t83 21q12 0 28.5 -4.5t34.5 -14.5q17 -10 34 -27t32 -41l17 72l42 -1q-8 -33 -18.5 -68.5t-19.5 -68.5q-10 -33 -19 -61t-14 -45t-7.5 -27.5t-2.5 -23.5q0 -17 6.5 -29.5t22.5 -11.5q25 1 51.5 19t48.5 48q22 29 35.5 67t13.5 79z" />
    <glyph glyph-name="A" unicode="A" horiz-adv-x="806" 
d="M437 732l294 -722h-66q-30 77 -55 139q-11 26 -21 51.5t-18 46.5t-13 34.5t-5 15.5h-312l-117 -287h-50l295 722h68zM529 345q-2 5 -11.5 29t-23.5 58t-30 73.5t-30 74.5t-25 61.5t-14 35.5l-134 -332h268z" />
    <glyph glyph-name="B" unicode="B" horiz-adv-x="605" 
d="M340 417q40 -6 78.5 -19.5t67.5 -35.5q29 -23 47 -56t18 -78q0 -68 -34.5 -110.5t-87.5 -66.5q-54 -24 -118 -32.5t-123 -8.5h-107v719h160q35 0 76.5 -5.5t77.5 -22.5q35 -18 59 -50.5t24 -86.5q0 -56 -36 -93t-102 -54zM135 433h67q30 0 67.5 5t70.5 19t55.5 39
t22.5 66q0 37 -18.5 61.5t-47.5 38.5q-30 13 -65 18t-68 4h-84v-251zM135 55q28 -1 65 -1t77 4q39 4 77 13.5t68 28.5t49 49t20 74q1 50 -22 82t-59 51q-36 18 -80 25t-86 7h-109v-333z" />
    <glyph glyph-name="C" unicode="C" horiz-adv-x="708" 
d="M646 33q-26 -12 -71.5 -24t-114.5 -12q-92 0 -165.5 25.5t-124.5 73.5q-52 48 -80 116t-28 153q0 82 27.5 149.5t77.5 117.5q50 49 119 78.5t153 35.5q63 5 110 -5t82 -26v-59q-37 19 -80.5 33t-104.5 10t-119 -25.5t-103 -61.5q-46 -40 -74 -97t-28 -132
q0 -93 27.5 -157t73.5 -104q45 -40 103 -58t119 -19q67 -2 116.5 10t84.5 29v-51z" />
    <glyph glyph-name="D" unicode="D" horiz-adv-x="729" 
d="M274 729q80 0 151.5 -23t125.5 -68t85.5 -111t31.5 -151q0 -75 -31 -142t-85 -116q-54 -50 -127 -79t-157 -29h-192v719h198zM242 55q72 1 138 20.5t117 59.5q50 40 79.5 100.5t29.5 143.5q0 74 -26.5 130.5t-72.5 95.5q-47 38 -109.5 57.5t-135.5 19.5h-132v-627h112z
" />
    <glyph glyph-name="E" unicode="E" horiz-adv-x="582" 
d="M136 58h364v-48h-418v718h369v-48h-315v-255h249v-48h-249v-319z" />
    <glyph glyph-name="F" unicode="F" horiz-adv-x="537" 
d="M138 10h-54v718h369v-48h-315v-255h249v-48h-249v-367z" />
    <glyph glyph-name="G" unicode="G" horiz-adv-x="785" 
d="M711 354v-330q-10 -2 -31 -6t-49 -9t-61 -8.5t-67 -3.5q-89 0 -167.5 22.5t-138.5 67.5q-60 44 -97 110.5t-41 155.5q0 95 36 169.5t97 125.5q60 50 139.5 75t166.5 22q78 -3 124 -18.5t65 -25.5v-56q-29 16 -59.5 27t-72.5 20q-76 16 -153.5 1.5t-139.5 -56.5
q-63 -42 -102.5 -109.5t-39.5 -156.5q0 -74 28.5 -134.5t77.5 -103.5q48 -43 111.5 -67.5t134.5 -25.5q66 -2 113.5 7.5t75.5 19.5v287h50z" />
    <glyph glyph-name="H" unicode="H" horiz-adv-x="740" 
d="M663 728v-718h-55v369h-477v-369h-54v718h54v-301h477v301h55z" />
    <glyph glyph-name="I" unicode="I" horiz-adv-x="284" 
d="M114 728h56v-718h-56v718z" />
    <glyph glyph-name="J" unicode="J" horiz-adv-x="382" 
d="M294 202q0 -40 -6.5 -77.5t-24.5 -67.5q-18 -29 -49 -47.5t-80 -20.5q-9 0 -21 0.5t-24 1.5q-12 2 -23 4t-18 5v45q10 -3 22 -6q22 -5 53 -5q63 0 90 43.5t27 124.5v526h54v-526z" />
    <glyph glyph-name="K" unicode="K" horiz-adv-x="700" 
d="M140 386l357 342h52l-345 -338l342 -304q12 -11 26.5 -22t29.5 -22q14 -10 26.5 -18.5t20.5 -13.5h-41q-29 0 -50.5 8t-44.5 28l-373 332v-368h-54v718h54v-342z" />
    <glyph glyph-name="L" unicode="L" horiz-adv-x="582" 
d="M135 728v-671h366v-47h-420v718h54z" />
    <glyph glyph-name="M" unicode="M" horiz-adv-x="944" 
d="M134 730h82l269 -617l255 618h74l102 -721h-57l-98 668l-277 -668h-16l-298 681l-96 -681h-45z" />
    <glyph glyph-name="N" unicode="N" horiz-adv-x="738" 
d="M662 728v-718h-49l-489 633v-633h-48v718h54l483 -635v635h49z" />
    <glyph glyph-name="O" unicode="O" horiz-adv-x="852" 
d="M55 371q0 78 29 146t80 119q50 51 117.5 80.5t144.5 29.5t144.5 -29.5t118.5 -80.5q50 -51 79 -119t29 -146t-29 -146t-79 -119q-51 -51 -118.5 -80.5t-144.5 -29.5t-144.5 29.5t-117.5 80.5q-51 51 -80 119t-29 146zM114 371q0 -68 25 -127.5t68 -104.5q42 -45 98.5 -71
t119.5 -26t120 26t100 71t68 104.5t25 127.5q0 67 -25 127t-68 105t-100 71t-120 26t-119.5 -26t-98.5 -71q-43 -45 -68 -105t-25 -127z" />
    <glyph glyph-name="P" unicode="P" horiz-adv-x="597" 
d="M276 728q54 0 101.5 -13t83.5 -39q35 -26 56 -65.5t21 -93.5q0 -69 -33.5 -113t-88.5 -68q-56 -25 -129.5 -34.5t-152.5 -9.5q0 -72 0.5 -142.5t0.5 -139.5h-55v718h196zM134 340q58 0 118.5 4.5t109.5 22.5t80 53t31 96q0 33 -13 62.5t-38 52.5q-25 22 -62 35.5
t-86 13.5h-140v-340z" />
    <glyph glyph-name="Q" unicode="Q" horiz-adv-x="852" 
d="M632 93l129 -128q38 -35 73.5 -62t67.5 -46h-22q-23 0 -45 4q-19 3 -40.5 10t-38.5 21q-50 42 -92 80t-85 80zM55 371q0 78 29 146t80 119q50 51 117.5 80.5t144.5 29.5t144.5 -29.5t118.5 -80.5q50 -51 79 -119t29 -146t-29 -146t-79 -119q-51 -51 -118.5 -80.5
t-144.5 -29.5t-144.5 29.5t-117.5 80.5q-51 51 -80 119t-29 146zM114 371q0 -68 25 -127.5t68 -104.5q42 -45 98.5 -71t119.5 -26t120 26t100 71t68 104.5t25 127.5q0 67 -25 127t-68 105t-100 71t-120 26t-119.5 -26t-98.5 -71q-43 -45 -68 -105t-25 -127z" />
    <glyph glyph-name="R" unicode="R" horiz-adv-x="697" 
d="M135 10h-55v718h156q54 0 101.5 -9.5t83.5 -30.5q35 -22 56 -56.5t21 -84.5q0 -37 -18.5 -67t-47.5 -52q-29 -23 -65 -38t-72 -22l198 -227q18 -20 33.5 -37t31.5 -32t33 -28.5t37 -25.5q4 -2 9 -5.5t10 -5.5h-42q-30 0 -57 10.5t-51 38.5l-286 326q48 13 89.5 27
t72.5 33q30 19 47.5 44t17.5 60q0 59 -50.5 96.5t-148.5 37.5h-105z" />
    <glyph glyph-name="S" unicode="S" horiz-adv-x="596" 
d="M245 437q18 -10 45.5 -23.5t56.5 -27.5q29 -15 55 -28t41 -22q16 -10 32 -25.5t29 -34.5q12 -19 19.5 -40.5t7.5 -43.5q0 -51 -23 -88t-61 -61t-87.5 -35.5t-102.5 -11.5q-61 0 -113 9t-81 25v65q45 -24 99 -36.5t108 -12.5q35 0 70.5 7.5t64.5 24.5q28 16 46 41.5
t18 60.5q0 21 -4.5 38t-15.5 33q-12 15 -32 30t-50 32q-23 13 -50 26t-54 27q-28 13 -55.5 27t-49.5 29q-38 26 -63 63t-25 81q0 49 23.5 83.5t60.5 55.5t82.5 30.5t89.5 9.5q33 0 69 -5t70 -14v-63q-74 30 -141 34q-26 1 -59 -5.5t-63 -20.5t-50.5 -37.5t-20.5 -56.5
q0 -47 26.5 -77.5t87.5 -62.5z" />
    <glyph glyph-name="T" unicode="T" horiz-adv-x="629" 
d="M49 728h531v-50l-240 1v-669h-55v669h-236v49z" />
    <glyph glyph-name="U" unicode="U" horiz-adv-x="692" 
d="M568 728h47v-446q0 -60 -11.5 -112.5t-41.5 -91.5t-82 -62t-133 -23q-270 0 -270 289v446h54v-446q0 -84 22 -132.5t55 -72.5q33 -25 70.5 -32t68.5 -7q69 0 112.5 19t67.5 52t32.5 77.5t8.5 95.5v446z" />
    <glyph glyph-name="V" unicode="V" horiz-adv-x="730" 
d="M669 728q-36 -94 -70.5 -183t-68.5 -176q-34 -88 -68.5 -176.5t-70.5 -182.5h-61l-270 718h69l239 -662l255 662h46z" />
    <glyph glyph-name="W" unicode="W" horiz-adv-x="1040" 
d="M1011 728l-222 -718h-58q-54 168 -97 302q-18 57 -36 112t-32 99q-14 43 -23 71t-9 30q-1 -3 -13.5 -41t-30.5 -96q-19 -58 -41.5 -128.5t-43.5 -137.5q-22 -68 -40 -124.5t-27 -86.5h-58l-249 718h61l226 -665l204 665h34l214 -664l200 664h41z" />
    <glyph glyph-name="X" unicode="X" horiz-adv-x="796" 
d="M618 125q28 -42 49.5 -69t38.5 -46h-21q-50 -1 -80 43l-212 308q-30 -39 -64 -84t-69 -91q-36 -46 -70.5 -91t-64.5 -85h-54l297 383l-233 335h65l208 -299l220 299h54l-254 -329l190 -274v0z" />
    <glyph glyph-name="Y" unicode="Y" horiz-adv-x="722" 
d="M617 728h46q-78 -112 -139 -200q-26 -38 -51 -74t-44 -64q-20 -29 -32.5 -46.5t-12.5 -18.5v-315h-55v313l-270 405h62l244 -362z" />
    <glyph glyph-name="Z" unicode="Z" horiz-adv-x="682" 
d="M611 9h-542l430 673l-381 -1l1 48h473l-434 -672h453v-48z" />
    <glyph glyph-name="bracketleft" unicode="[" horiz-adv-x="332" 
d="M114 838h156v-51h-104v-788h104v-51h-156v890z" />
    <glyph glyph-name="backslash" unicode="\" horiz-adv-x="1060" 
d="M20 390h1020v-46h-1020v46zM450 362q-17 -52 -33.5 -105t-31.5 -100t-27.5 -85.5t-19.5 -61.5h-58l-249 718h61l226 -665l92 299h40zM674 362l96 -298l200 664h41l-222 -718h-58q-18 54 -36 113q-17 51 -37 113.5t-40 125.5h56zM628 362q-16 50 -31 96.5t-26 82.5
l-19.5 58.5t-7.5 24.5q-1 -2 -8 -24t-18 -58q-12 -36 -27 -82.5t-31 -97.5h-40l112 366h34l118 -366h-56z" />
    <glyph glyph-name="bracketright" unicode="]" horiz-adv-x="330" 
d="M218 -52h-156v51h104v788h-104v51h156v-890z" />
    <glyph glyph-name="asciicircum" unicode="^" horiz-adv-x="560" 
d="M245 770h71l163 -316h-61l-138 275l-137 -275h-61z" />
    <glyph glyph-name="underscore" unicode="_" horiz-adv-x="550" 
d="M20 39h510v-46h-510v46z" />
    <glyph glyph-name="grave" unicode="`" horiz-adv-x="278" 
d="M188 670h-47l-94 118h72z" />
    <glyph glyph-name="a" unicode="a" horiz-adv-x="543" 
d="M140 514q21 3 41 7q17 2 36.5 4.5t36.5 2.5q96 2 149.5 -36t53.5 -118v-169q-1 -72 6.5 -117.5t17.5 -72.5h-63q-3 8 -7 20t-7 20q-48 -27 -87.5 -36.5t-85.5 -9.5q-36 0 -69.5 11t-57.5 33q-25 22 -37 54.5t-5 74.5q7 41 36 70t71 48q41 18 90.5 26.5t97.5 8.5
q23 0 34 9t11 41q0 29 -12 48t-32 30q-21 11 -47 15.5t-54 4.5q-32 0 -62.5 -5.5t-53.5 -11.5zM274 55q24 0 44.5 5t37.5 12q16 7 27.5 14.5t18.5 12.5v196q-35 1 -83.5 0t-92.5 -13q-45 -12 -76 -40t-31 -81q0 -55 40 -80.5t115 -25.5z" />
    <glyph glyph-name="b" unicode="b" horiz-adv-x="627" 
d="M318 469q-50 0 -97.5 -24.5t-70.5 -68.5q-8 -16 -13.5 -44.5t-7.5 -66.5v-207q13 -5 30.5 -9t36.5 -7q18 -3 36 -4.5t32 -1.5q55 0 101 17.5t79 48.5t51.5 72.5t18.5 89.5q0 38 -14 75t-39 66q-26 29 -62 46.5t-81 17.5zM569 252q0 -60 -25 -108t-68 -81
q-43 -34 -100.5 -52t-121.5 -18q-8 0 -27 1.5t-43 4.5q-25 3 -53.5 8.5t-55.5 14.5v706h54v-311q42 52 95.5 73.5t103.5 21.5q55 0 99.5 -22t76.5 -58q31 -36 48 -83t17 -97z" />
    <glyph glyph-name="c" unicode="c" horiz-adv-x="558" 
d="M376 48q26 0 55 5.5t50 16.5v-46q-23 -8 -57.5 -14t-74.5 -5q-58 1 -110 20.5t-91 53.5q-40 33 -63 78.5t-23 99.5q0 65 22.5 115t63.5 85q40 34 95.5 52t120.5 18q30 0 60.5 -5.5t49.5 -13.5v-57q-15 9 -34 17q-17 7 -40.5 12.5t-55.5 5.5q-39 0 -78.5 -14.5
t-71.5 -41.5q-32 -28 -52 -67t-20 -88q0 -63 22.5 -106.5t58.5 -69.5q36 -27 81.5 -39t91.5 -12z" />
    <glyph glyph-name="d" unicode="d" horiz-adv-x="627" 
d="M309 469q-45 0 -81.5 -17.5t-61.5 -46.5q-26 -29 -39.5 -66t-13.5 -75q0 -48 18.5 -89.5t51.5 -72.5t79 -48.5t101 -17.5q14 0 32 1.5t37 4.5q18 3 35.5 7t30.5 9v207q-2 38 -7.5 66.5t-13.5 44.5q-23 44 -70.5 68.5t-97.5 24.5zM58 252q0 50 17 97t49 83q31 36 75.5 58
t99.5 22q25 0 51 -5t52 -16q26 -12 50.5 -30t45.5 -44v311h54v-706q-27 -9 -55.5 -14.5t-52.5 -8.5q-25 -3 -44 -4.5t-27 -1.5q-64 0 -121.5 18t-100.5 52q-43 33 -68 81t-25 108z" />
    <glyph glyph-name="e" unicode="e" horiz-adv-x="614" 
d="M537 48q-11 -5 -28.5 -12.5t-39.5 -14.5q-23 -7 -50.5 -11.5t-57.5 -4.5q-62 0 -116.5 19.5t-95.5 54.5t-65 83.5t-24 106.5q0 48 19 94.5t53 83.5q34 36 82 59t107 23q52 0 96 -18t75 -50q31 -33 47.5 -78.5t14.5 -99.5h-438q-2 -55 16 -97.5t52 -71.5q33 -29 81 -45
t106 -17q53 -1 95.5 15t71.5 36zM502 327q0 28 -12 56.5t-36 52.5q-24 23 -60 37t-85 14q-38 0 -68.5 -14t-54.5 -36q-24 -23 -40.5 -51.5t-24.5 -58.5h381z" />
    <glyph glyph-name="f" unicode="f" horiz-adv-x="464" 
d="M412 696q-55 1 -88 -3.5t-57 -23.5q-30 -24 -30 -85v-78h156v-49h-156v-449h-54v449h-113v49h113v40q0 17 0.5 36.5t3.5 39.5q3 19 10 37t20 32q15 17 33 28t41 17t52.5 8t67.5 2z" />
    <glyph glyph-name="g" unicode="g" horiz-adv-x="614" 
d="M43 18q1 34 32.5 69t82.5 61q-9 15 -15.5 28t-6.5 24q0 14 19 25q9 5 21 11t23 11q12 6 26 12q-26 7 -52 18.5t-46 29.5q-21 17 -33.5 41.5t-12.5 57.5q0 38 17 66.5t45 47.5t62.5 28.5t70.5 9.5h274q-8 -14 -10.5 -22t-6.5 -16l-150 -2q23 -11 39.5 -27t27.5 -33
q10 -18 15 -35.5t5 -32.5q0 -35 -16 -59.5t-41 -40.5q-26 -16 -57.5 -25t-61.5 -14q-15 -3 -31 -8t-28 -11q-13 -6 -21 -12t-7 -11q1 -6 3.5 -13.5t12.5 -13.5q9 -6 28 -10.5t53 -4.5q60 0 108.5 -7t82.5 -24t52 -46t18 -72q0 -31 -20.5 -58.5t-55.5 -47.5t-83 -32t-102 -12
q-59 0 -107.5 9.5t-82.5 27.5q-35 19 -53.5 47t-17.5 66zM101 21q0 -28 15 -49t42 -35t64.5 -20.5t83.5 -6.5q43 0 80 7t65 20q27 14 42.5 35t15.5 49q0 61 -54 85t-149 24q-39 0 -75.5 -6t-65.5 -19t-46.5 -33.5t-17.5 -50.5zM135 420q0 -29 13 -52.5t34 -40.5t48 -26
t56 -9q24 0 47 6t42 19q19 12 30.5 32t11.5 48q0 29 -13.5 52t-34.5 39q-22 15 -49 23.5t-55 8.5q-22 0 -45 -6t-42 -18q-19 -13 -31 -32t-12 -44z" />
    <glyph glyph-name="h" unicode="h" horiz-adv-x="574" 
d="M444 293q0 52 -11 86.5t-30 55.5q-20 20 -48 28t-62 8q-32 0 -62 -16t-53 -42t-36.5 -61t-13.5 -72v-270h-51v718h51v-320q32 49 83.5 79.5t114.5 30.5q35 0 66 -12.5t55 -37.5q23 -26 36.5 -66t13.5 -95v-297h-53v283v0z" />
    <glyph glyph-name="i" unicode="i" horiz-adv-x="274" 
d="M91 646q0 20 14 34t34 14t34 -14t14 -34t-14 -34t-34 -14t-34 14t-14 34zM162 9h-50v487h50v-487z" />
    <glyph glyph-name="j" unicode="j" horiz-adv-x="271" 
d="M185 85q0 -54 -7.5 -94.5t-27.5 -67.5q-21 -26 -56.5 -40t-90.5 -15v47q44 0 70 11.5t40 33.5t18 52.5t4 69.5v419h50v-416zM112 676q0 20 14 34t34 14t34 -14t14 -34t-14 -34t-34 -14t-34 14t-14 34z" />
    <glyph glyph-name="k" unicode="k" horiz-adv-x="560" 
d="M129 727v-718h-52v718h52zM442 52q11 -11 28 -24t31 -19h-37q-28 0 -53.5 16.5t-51.5 41.5l-226 219l267 232h56q-71 -61 -127 -109q-24 -21 -47.5 -41t-41.5 -36q-19 -17 -31.5 -28t-13.5 -14z" />
    <glyph glyph-name="l" unicode="l" horiz-adv-x="274" 
d="M163 10h-52v718h52v-718z" />
    <glyph glyph-name="m" unicode="m" horiz-adv-x="915" 
d="M798 273q0 104 -42.5 154.5t-114.5 50.5q-46 0 -76.5 -24t-48.5 -58t-25 -69.5t-7 -58.5v-258h-52v274q0 32 -9 66.5t-28 62.5t-47 46t-67 18q-37 0 -67 -23t-51 -57q-22 -34 -33.5 -73t-11.5 -71v-243h-52v504h52v-122q14 36 37 61.5t49 41.5t53.5 23.5t51.5 6.5
q50 -2 87 -32t70 -91q37 61 89 92t103 31q47 0 83 -18.5t60 -49.5q24 -32 36.5 -74.5t12.5 -90.5v-282h-52v263v0z" />
    <glyph glyph-name="n" unicode="n" horiz-adv-x="573" 
d="M444 10v270q0 37 -7 73t-24 64q-18 28 -47 45t-74 16q-28 -1 -56.5 -17.5t-51.5 -43.5q-24 -27 -39 -60t-15 -67v-280h-53v508h53v-128q13 33 35.5 58.5t49.5 42.5q26 17 53.5 25.5t48.5 8.5q48 0 82 -18t55 -49q21 -32 31 -75t11 -92v-281h-52z" />
    <glyph glyph-name="o" unicode="o" horiz-adv-x="654" 
d="M54 268q0 55 21.5 104t58.5 86q37 36 86.5 57t106.5 21t106.5 -21t86.5 -57q37 -37 58.5 -86t21.5 -104q0 -56 -21.5 -104.5t-58.5 -84.5q-37 -37 -86.5 -58t-106.5 -21t-106.5 21t-86.5 58q-37 36 -58.5 84.5t-21.5 104.5zM108 267q0 -46 17 -86.5t47 -70.5
q29 -30 69 -47.5t85 -17.5t85 17.5t70 47.5t47 70.5t17 86.5t-17 86.5t-47 71.5q-30 30 -70 47.5t-85 17.5t-85 -17.5t-69 -47.5q-30 -31 -47 -71.5t-17 -86.5z" />
    <glyph glyph-name="p" unicode="p" horiz-adv-x="635" 
d="M282 556q75 0 130 -17.5t91 -48.5q36 -32 54 -76t18 -97q0 -44 -20 -81.5t-55 -64.5q-35 -28 -81.5 -44.5t-99.5 -17.5q-26 -1 -53.5 3t-52.5 10q-26 5 -48 11.5t-36 11.5v-277h-54v660q31 9 64 14.5t62 8.5t51 4t30 1zM299 152q50 -1 91 13t70 38t45 54.5t16 62.5
q0 87 -63.5 139t-175.5 54q-32 1 -73 -3.5t-80 -13.5v-303q12 -6 31 -13.5t42 -13.5t48 -10t49 -4z" />
    <glyph glyph-name="q" unicode="q" horiz-adv-x="635" 
d="M353 556q8 0 30 -1t51 -4t62 -8.5t64 -14.5v-660h-54v277q-14 -5 -36 -11.5t-47 -11.5q-26 -6 -53.5 -10t-53.5 -3q-53 1 -99.5 17.5t-81.5 44.5q-35 27 -55 64.5t-20 81.5q0 53 18 97t54 76q36 31 91 48.5t130 17.5zM336 152q24 0 49 4t48 10t42 13.5t31 13.5v303
q-39 9 -80 13.5t-73 3.5q-112 -2 -175.5 -54t-63.5 -139q0 -32 16 -62.5t45 -54.5t70 -38t91 -13z" />
    <glyph glyph-name="r" unicode="r" horiz-adv-x="392" 
d="M323 464q-193 8 -193 -205q0 -66 -0.5 -124.5t-0.5 -124.5h-50v504h51v-122q7 27 26.5 50.5t45.5 40.5t57.5 27t63.5 10v-56z" />
    <glyph glyph-name="s" unicode="s" horiz-adv-x="506" 
d="M370 259q34 -17 54 -45.5t20 -65.5q0 -41 -21.5 -69t-55.5 -45t-75 -25t-81 -8q-18 0 -38 2t-40 5q-20 4 -38.5 10t-32.5 14v55q31 -20 76 -32t83 -12q21 0 50 4t55 15q26 10 44 28t18 45q0 23 -14.5 48.5t-55.5 43.5q-10 4 -30.5 11.5t-45.5 16.5t-51 20t-48 24
q-14 8 -27 17.5t-23 22.5q-10 12 -16.5 28t-6.5 37q0 33 20 57t51 39q30 15 67 22.5t70 7.5q55 0 103 -9v-55q-20 6 -40 10q-17 4 -37.5 7.5t-38.5 3.5q-26 0 -50.5 -5t-43.5 -14q-20 -9 -31.5 -22.5t-11.5 -30.5q0 -23 19 -48.5t67 -46.5q19 -8 40 -16t42 -15
q21 -8 40 -15.5t34 -14.5z" />
    <glyph glyph-name="t" unicode="t" horiz-adv-x="447" 
d="M382 -1q-62 3 -101.5 14.5t-62.5 35.5q-23 25 -32 65t-9 100v254h-107v45h108v171h50v-171h148v-46l-148 1v-244q0 -41 3 -74t18 -56t46.5 -35.5t88.5 -13.5z" />
    <glyph glyph-name="u" unicode="u" horiz-adv-x="572" 
d="M446 10v115q-15 -26 -35.5 -49t-45.5 -40q-26 -17 -55 -27t-61 -10q-85 0 -128.5 53.5t-45.5 161.5v300h51v-271q0 -95 31 -146t108 -51q31 0 63 15.5t58 40.5t42.5 56.5t17.5 64.5v291h51v-504h-51z" />
    <glyph glyph-name="v" unicode="v" horiz-adv-x="640" 
d="M582 515l-235 -505h-55q-31 66 -60 128.5t-57 124.5q-29 62 -58 124.5t-59 127.5h63l204 -457l212 457h45z" />
    <glyph glyph-name="w" unicode="w" horiz-adv-x="884" 
d="M857 513l-208 -503h-45q-43 114 -77 206q-15 39 -29 77.5t-26 70.5t-20 54t-10 28q-3 -8 -14.5 -38t-27.5 -72q-17 -42 -36 -91.5t-37 -94.5q-18 -46 -32.5 -83.5t-21.5 -56.5h-50l-197 503l59 1l167 -439l171 438h53l161 -437l175 437h45z" />
    <glyph glyph-name="x" unicode="x" horiz-adv-x="664" 
d="M529 72q18 -21 35.5 -38t28.5 -24h-41q-11 0 -32 8t-40 33l-148 187l-209 -228h-55l240 262l-192 245h71l158 -209l186 209h50l-212 -239l160 -206v0z" />
    <glyph glyph-name="y" unicode="y" horiz-adv-x="556" 
d="M494 518l-179 -436q-10 -25 -22 -52t-25 -51t-27 -43.5t-28 -29.5q-21 -14 -51.5 -25t-88.5 -13l-24 40q54 0 93.5 9t65.5 38q10 11 20.5 28t20.5 37t19 41t16 40q-53 106 -105.5 208t-106.5 209h52l183 -357l142 357h45z" />
    <glyph glyph-name="z" unicode="z" horiz-adv-x="584" 
d="M518 53v-43h-454l344 463h-305v45h400l-345 -465h360z" />
    <glyph glyph-name="braceleft" unicode="{" horiz-adv-x="330" 
d="M282 794h-18q-42 0 -61 -21.5t-19 -76.5v-182q0 -21 -8 -39t-20 -33q-13 -16 -29 -29.5t-32 -23.5q16 -8 31.5 -20t28.5 -27q13 -16 21 -35t8 -43v-173q0 -55 19 -76.5t61 -21.5h18v-40h-44q-15 0 -32.5 7.5t-31.5 22.5t-23.5 37t-9.5 51v177q0 42 -27 71.5t-61 41.5v60
q35 11 61.5 38.5t26.5 68.5v188q0 29 9.5 51t23.5 37t31.5 22.5t32.5 7.5h44v-40z" />
    <glyph glyph-name="bar" unicode="|" horiz-adv-x="314" 
d="M180 -20h-46v818h46v-818z" />
    <glyph glyph-name="braceright" unicode="}" horiz-adv-x="330" 
d="M49 834h44q15 0 32.5 -7.5t31.5 -22.5t23.5 -37t9.5 -51v-188q0 -41 26.5 -68.5t61.5 -38.5v-60q-34 -12 -61 -41.5t-27 -71.5v-177q0 -29 -9.5 -51t-23.5 -37t-31.5 -22.5t-32.5 -7.5h-44v40h18q42 0 61 21.5t19 76.5v173q0 24 8 43t21 35q12 15 28 27t32 20
q-16 10 -32 23.5t-28 29.5q-13 15 -21 33t-8 39v182q0 55 -19 76.5t-61 21.5h-18v40z" />
    <glyph glyph-name="asciitilde" unicode="~" horiz-adv-x="593" 
d="M515 374q-17 -30 -44 -53.5t-65 -23.5q-30 0 -56.5 11t-52.5 24t-53 24t-57 11q-23 0 -46 -14.5t-41 -40.5l-22 27q17 29 44.5 52t65.5 23q30 0 56.5 -11t52.5 -23q26 -13 53 -24t57 -11q23 0 45 16.5t42 41.5z" />
    <glyph glyph-name="uni007F" horiz-adv-x="1000" 
 />
    <glyph glyph-name="uni00A0" unicode="&#xa0;" horiz-adv-x="280" 
d="M0 58z" />
    <glyph glyph-name="exclamdown" unicode="&#xa1;" horiz-adv-x="950" 
d="M457 640h36q1 -17 3 -55t4 -79q2 -42 4 -79.5t3 -54.5v-385h-65v385zM516 762h-83v87h83v-87z" />
    <glyph glyph-name="currency" unicode="&#xa4;" horiz-adv-x="950" 
d="M475 692q-54 -1 -101 -22.5t-82 -58.5t-56 -87t-24 -108q0 -55 19.5 -104t55.5 -86q35 -38 83 -61t105 -25q56 0 103 22t82 60t55 88t22 106q0 52 -20 101.5t-55 88.5q-35 38 -83 61.5t-104 24.5zM160 51l-7 7t-10 11t-10 10.5t-6 6.5l112 118q-35 45 -55 98t-20 114
q0 62 19.5 115.5t55.5 97.5q-8 7 -23.5 24t-32.5 36q-18 18 -33.5 34.5t-22.5 24.5q1 2 6 7t10 11t10 10.5t7 6.5l113 -119q42 38 92.5 58t109.5 20q58 0 108.5 -20t92.5 -57q7 7 23 24t34 35q17 18 32.5 34.5t23.5 24.5q1 -2 6 -6.5t10 -10.5t10 -11l7 -7l-112 -119
q75 -89 75 -213t-74 -213l111 -117q-2 -2 -7 -6.5t-10 -10.5t-10 -11t-6 -7l-111 117q-42 -38 -93 -58.5t-110 -20.5t-110.5 21t-93.5 59z" />
    <glyph glyph-name="section" unicode="&#xa7;" horiz-adv-x="950" 
d="M236 829q22 0 44 -8t39 -21q16 -14 26.5 -31.5t10.5 -36.5t-13 -27t-24 -8q-16 0 -25 19q-10 20 -12 34.5t-5 24.5t-12.5 14.5t-34.5 4.5q-52 0 -52 -74q0 -88 102 -171q98 -78 98 -174q0 -27 -8 -44t-19 -27t-22.5 -14t-18.5 -6l7.5 -12.5t17.5 -30.5q9 -19 16.5 -42
t7.5 -45q0 -26 -7.5 -52t-21.5 -48q-15 -22 -37 -35.5t-50 -13.5q-24 0 -47 8.5t-41 22.5t-29.5 32t-11.5 37q0 16 10 28t23 12q20 0 32 -14t12 -28q0 -8 -2 -17.5t-2 -14.5t13 -14.5t35 -9.5q11 0 21.5 6t19.5 16q8 10 13.5 24t5.5 30q0 9 -2 19t-4 21q-6 25 -22 48t-36 46
q-21 22 -43 44.5t-40 46.5q-19 23 -31 48t-12 52q0 26 8.5 45t21.5 32q12 12 26 18t25 6q0 2 -3 6.5t-8 11.5q-21 32 -34 62.5t-13 71.5q0 63 30.5 94t77.5 34zM299 428q-26 42 -56.5 62t-53.5 20q-31 0 -31 -33q0 -39 18 -69t41 -50q22 -20 43 -30.5t28 -10.5q20 0 29.5 10
t9.5 26q0 19 -10 41t-18 34z" />
    <glyph glyph-name="dieresis" unicode="&#xa8;" horiz-adv-x="950" 
d="M761 900v-96h-94v96h94zM283 900v-96h-94v96h94z" />
    <glyph glyph-name="ordfeminine" unicode="&#xaa;" horiz-adv-x="950" 
d="M769 41h-574v48h574v-48zM681 311q0 -26 5.5 -51t8.5 -35h-56q-4 11 -8 31.5t-5 45.5q-17 -18 -41 -35.5t-52 -30.5q-28 -14 -59 -22.5t-61 -8.5q-36 0 -67.5 9.5t-55.5 27.5t-38 45t-14 63q0 51 21.5 82t55.5 49q33 18 75 27t84 15q20 2 46 5.5t50 11.5q23 7 39 21
t16 37q0 21 -8 42.5t-26 39.5q-18 17 -46.5 28t-69.5 11q-30 0 -58.5 -7.5t-49.5 -23.5q-22 -16 -35.5 -40.5t-13.5 -58.5h-55q0 42 16.5 75.5t45.5 57.5t67.5 36.5t82.5 12.5t81.5 -12.5t65.5 -35.5q28 -24 43.5 -57.5t15.5 -75.5v-279zM625 511q-16 -12 -46 -20t-64 -14
t-66.5 -10t-52.5 -8q-56 -12 -79.5 -42.5t-23.5 -64.5q0 -45 34.5 -69.5t88.5 -24.5q29 0 65.5 12t68.5 33q32 20 53.5 46t21.5 55v107z" />
    <glyph glyph-name="uni00AD" unicode="&#xad;" horiz-adv-x="950" 
d="M729 440v-48h-510v48h510z" />
    <glyph glyph-name="registered" unicode="&#xae;" horiz-adv-x="950" 
d="M762 888q46 0 77 -12t50 -33t27 -48.5t8 -57.5v-624q0 -50 -14 -82.5t-35 -52.5q-22 -19 -48 -26.5t-50 -7.5h-605q-27 0 -53.5 8t-46.5 27q-21 20 -34 52.5t-13 81.5v624q0 151 162 151h575zM779 -14q22 0 41.5 9.5t33.5 24.5q13 16 21 37t8 44v633q0 21 -8 41.5
t-22 36.5q-15 15 -35 24.5t-43 9.5h-601q-25 0 -45 -9t-34 -24q-14 -16 -21.5 -36.5t-7.5 -42.5v-633q0 -23 6 -44t19 -37q12 -16 32 -25t48 -9h608zM786 325q-5 -61 -9.5 -121t-9.5 -120h-597v84q0 37 27 74.5t70 72.5q42 35 94.5 66t103.5 55q63 26 90.5 64t27.5 70
q0 44 -30 66t-97 22q-42 0 -67.5 -12t-30.5 -17q3 -4 7.5 -11.5t8.5 -15.5q3 -9 6 -17t3 -14q0 -41 -25 -71t-66 -30q-54 0 -80 31t-26 76q0 43 27.5 77t68.5 57q40 23 86.5 35.5t84.5 12.5q49 0 86.5 -4t64.5 -10q41 -9 73.5 -27.5t55.5 -42.5q22 -24 34 -52.5t12 -57.5
q0 -53 -22.5 -90.5t-58.5 -64.5t-80.5 -45t-87.5 -33q-33 -11 -64 -23.5t-55 -23.5q-25 -12 -43 -20.5t-26 -11.5q38 0 77 -0.5t78 -0.5h140q22 0 32.5 11.5t18.5 25.5q7 13 16 24.5t28 11.5h54z" />
    <glyph glyph-name="degree" unicode="&#xb0;" horiz-adv-x="950" 
d="M14 775q0 26 9 49t25 40t38 26.5t47 9.5q24 0 45.5 -9.5t38.5 -26.5q16 -17 25.5 -39.5t9.5 -49.5t-9.5 -49.5t-25.5 -38.5q-17 -17 -38.5 -26.5t-45.5 -9.5q-25 0 -46.5 9.5t-37.5 26.5q-16 16 -25.5 38.5t-9.5 49.5zM65 776q0 -30 19.5 -51t48.5 -21t48.5 21t19.5 51
t-19.5 51t-48.5 21t-48.5 -21t-19.5 -51z" />
    <glyph glyph-name="plusminus" unicode="&#xb1;" horiz-adv-x="950" 
d="M155 520h292v242h55v-242h292v-52h-292v-242h-55v242h-292v52zM155 127h639v-50h-639v50z" />
    <glyph glyph-name="uni00B2" unicode="&#xb2;" horiz-adv-x="950" 
d="M227 666q-11 -8 -22 -17t-17 -22h148v-43h-207q1 35 18.5 64t56.5 55q10 7 22.5 16t24.5 17q16 11 25.5 25t9.5 31q0 23 -12 35.5t-37 12.5q-29 0 -40 -18t-12 -40h-48q1 20 7.5 36.5t16.5 30.5q25 33 77 33q50 0 73 -27.5t23 -62.5q0 -18 -5.5 -32.5t-14.5 -25.5
t-19.5 -20t-19.5 -15z" />
    <glyph glyph-name="uni00B3" unicode="&#xb3;" horiz-adv-x="950" 
d="M178 677q0 -20 14 -38.5t44 -18.5q26 0 40 13.5t14 35.5q0 13 -6 21.5t-15 13.5q-10 5 -21.5 7t-21.5 2h-16v42h15q28 0 42.5 12.5t14.5 32.5q0 13 -10.5 24t-30.5 11q-26 0 -41.5 -14t-16.5 -31h-45q1 43 29 67.5t68 24.5q19 0 36.5 -6.5t30.5 -17.5q13 -12 20.5 -27
t7.5 -31q0 -28 -12.5 -43t-23.5 -21q20 -12 32.5 -29t12.5 -40q0 -39 -27.5 -64.5t-75.5 -25.5q-23 0 -42 8t-33 22q-15 13 -23 31.5t-8 38.5h48z" />
    <glyph glyph-name="acute" unicode="&#xb4;" horiz-adv-x="950" 
d="M479 783q-26 -40 -58.5 -79t-64.5 -72q5 19 12.5 42t15.5 48t17 49.5t18 46.5q5 13 15.5 34t18.5 30q23 30 51 15q25 -17 11 -52q-7 -14 -16 -31t-20 -31z" />
    <glyph glyph-name="paragraph" unicode="&#xb6;" horiz-adv-x="950" 
d="M623 859v-887h-61v839h-89v-839h-60v498q-42 1 -77.5 14.5t-60.5 39.5q-26 25 -40.5 60.5t-14.5 80.5q0 39 13.5 74t38.5 62q25 26 58.5 42t74.5 16h218z" />
    <glyph glyph-name="periodcentered" unicode="&#xb7;" horiz-adv-x="200" 
d="M146 464v-96h-94v96h94z" />
    <glyph glyph-name="cedilla" unicode="&#xb8;" horiz-adv-x="200" 
d="M25 21l86 95l-17.5 17.5t-25.5 27.5q-14 14 -26 26.5t-17 17.5v60l149 -149q-8 -9 -29.5 -31.5t-45.5 -47.5t-45 -47t-29 -31v62z" />
    <glyph glyph-name="uni00B9" unicode="&#xb9;" horiz-adv-x="950" 
d="M237 590v202h-62v39q14 0 29 2.5t23 10.5q5 5 10.5 14t6.5 23h37v-291h-44z" />
    <glyph glyph-name="ordmasculine" unicode="&#xba;" horiz-adv-x="950" 
d="M702 495q0 -48 -13.5 -98.5t-41.5 -91.5q-29 -42 -72.5 -68.5t-103.5 -26.5q-58 0 -101 23.5t-71 63.5q-29 39 -43 90t-14 106q0 48 14 98.5t43 91.5q28 40 71.5 66t102.5 26q57 0 100 -23t72 -62q28 -39 42.5 -89.5t14.5 -105.5zM769 40h-574v49h574v-49zM651 493
q0 39 -10.5 79.5t-31.5 73.5q-22 33 -55 55t-79 24q-44 0 -77 -21t-55 -54q-23 -34 -34 -75.5t-12 -81.5q0 -40 10 -80.5t32 -73.5q21 -33 54.5 -54.5t79.5 -23.5q45 0 78 21t56 54q22 33 33 74.5t11 82.5z" />
    <glyph glyph-name="onequarter" unicode="&#xbc;" horiz-adv-x="950" 
d="M137 440h676v-48h-676v48zM460 470v292h-90v48q23 1 43 5.5t32 12.5q11 8 19 22t9 32h43v-412h-56zM293 23v53q8 12 25 34.5t38 50.5q20 27 42.5 57l43.5 58q20 27 36.5 49.5t25.5 34.5h50v-285h69v-52h-69v-81h-57v81h-204zM497 260l-144 -185h144v185z" />
    <glyph glyph-name="onehalf" unicode="&#xbd;" horiz-adv-x="950" 
d="M137 440h676v-49h-676v49zM460 470v292h-90v48q46 2 73.5 17.5t29.5 54.5h43v-412h-56zM532 95q-15 -9 -36.5 -21t-42.5 -28q-21 -15 -37 -33.5t-21 -40.5h226v-49h-302q2 47 29.5 93t75.5 76q19 10 43 22.5t46 29.5q21 16 35.5 37.5t14.5 49.5q0 38 -21.5 58.5
t-63.5 20.5q-50 0 -71 -27.5t-22 -65.5h-55q1 28 11 54t29 46q18 20 45.5 31.5t63.5 11.5t62.5 -10.5t44.5 -27.5q18 -18 26.5 -42t8.5 -51q0 -26 -7.5 -46t-19.5 -35q-13 -16 -29 -29t-33 -25v1z" />
    <glyph glyph-name="threequarters" unicode="&#xbe;" horiz-adv-x="950" 
d="M137 440h676v-48h-676v48zM293 22v53q52 69 105.5 141t105.5 142h50v-284h69v-52h-69v-81h-57v81h-204zM497 258q-36 -47 -72 -92.5t-72 -91.5h144v184zM322 610q14 0 27.5 -0.5t27.5 -0.5q0 -18 5.5 -35t17.5 -30q11 -14 29.5 -22t44.5 -8q44 0 68 24t24 62
q0 19 -8.5 33t-21.5 23q-14 9 -31 13.5t-35 4.5h-15h-18v22.5t1 22.5q52 0 83.5 20t31.5 58q0 30 -21.5 50t-59.5 20q-42 0 -62.5 -23.5t-20.5 -60.5h-56q0 33 11 57.5t30 41.5q19 16 45 24.5t55 8.5q28 0 53 -9t44 -24q19 -16 30.5 -38t11.5 -49q0 -35 -15.5 -56.5
t-40.5 -38.5q30 -15 49.5 -40.5t19.5 -60.5q0 -59 -41 -96t-110 -37q-34 0 -62 10t-48 29q-21 19 -32 45.5t-11 59.5z" />
    <glyph glyph-name="questiondown" unicode="&#xbf;" horiz-adv-x="950" 
d="M691 225v-16q0 -45 -13 -86t-40 -72t-69 -49.5t-100 -18.5q-42 0 -80.5 14t-67.5 39q-30 26 -47.5 61.5t-17.5 78.5q0 36 9 67.5t25 57.5q15 25 35.5 44t44.5 31q36 17 56.5 48.5t20.5 78.5v132h55v-130q0 -119 -91 -165q-45 -23 -71 -59.5t-30 -93.5v1q-1 -5 -1 -8.5
v-8.5q0 -34 15 -59.5t39 -42.5q23 -18 52.5 -26.5t58.5 -8.5q41 0 71.5 13.5t51.5 37.5q20 23 30.5 55t10.5 69v16h53zM516 762h-83v87h83v-87z" />
    <glyph glyph-name="AE" unicode="&#xc6;" horiz-adv-x="950" 
d="M560 254h-379q-6 -14 -18.5 -44t-25.5 -63q-14 -33 -26 -63.5t-18 -43.5h-56q13 32 37 91t54 132q30 72 62 151.5t62 152.5t54 132t37 91h535v-48h-461l118 -288h324v-49h-305l130 -317h203v-48h-240zM200 302h339l-169 416z" />
    <glyph glyph-name="Eth" unicode="&#xd0;" horiz-adv-x="950" 
d="M304 351h277v-48h-277v-215h173q142 0 215 97q77 100 77 230q0 140 -76 233q-74 94 -216 94h-173v-391zM247 303h-157v48h157v439h240q152 0 248 -107q93 -107 93 -268q0 -81 -24 -148.5t-69 -121.5q-47 -51 -110 -78t-138 -27h-240v263z" />
    <glyph glyph-name="multiply" unicode="&#xd7;" horiz-adv-x="950" 
d="M742 75l-268 277q-11 -12 -31.5 -33.5t-45.5 -47.5q-25 -27 -52 -56t-52 -55t-45.5 -48t-31.5 -33q-2 2 -7.5 8t-11.5 13l-11.5 11.5l-7.5 7.5l261 271q-10 11 -29.5 31.5t-43.5 45.5t-50.5 52.5t-50.5 52.5t-43.5 45.5t-29.5 31.5l7.5 7.5t11.5 12.5l10 12t7 8l247 -261
l246 258q1 -2 6 -7.5t11 -11.5q5 -6 9.5 -11.5t6.5 -6.5l-242 -258q11 -12 32 -33.5t47 -47.5q26 -27 54 -56t54 -55q26 -27 46.5 -49t32.5 -33z" />
    <glyph glyph-name="Oslash" unicode="&#xd8;" horiz-adv-x="950" 
d="M672 651q-88 -131 -174 -261.5t-174 -261.5q62 -52 150 -52q65 0 114 28t82 75q32 47 48.5 108.5t16.5 128.5q0 70 -16 128.5t-47 106.5zM286 166q88 132 175.5 263t175.5 263q-32 31 -73 47.5t-90 16.5q-64 0 -113 -28.5t-82 -75.5t-49.5 -108.5t-16.5 -127.5
q0 -77 19 -139.5t54 -110.5zM150 -39q7 11 19 30t27 40q14 22 29.5 44t27.5 40v1q-50 54 -75 130t-25 170q0 80 21 151.5t62 125.5t101 85.5t137 31.5q57 0 106.5 -18t89.5 -52q23 36 47.5 72t47.5 72q11 -8 21.5 -14.5t21.5 -14.5l-52 -76l-52 -76q43 -54 66.5 -126.5
t23.5 -160.5q0 -77 -20 -148.5t-60 -125.5q-40 -55 -100 -87.5t-140 -32.5q-52 0 -97.5 15t-84.5 44q-26 -38 -50 -75t-49 -75q-11 8 -21.5 15t-21.5 15z" />
    <glyph glyph-name="Thorn" unicode="&#xde;" horiz-adv-x="950" 
d="M480 79q-69 0 -116 26.5t-73 68.5q-1 0 -1.5 -0.5t-1.5 -0.5v-143h-56v770h56v-220q15 20 35.5 38.5t45.5 33.5q24 14 52 22.5t59 8.5q56 0 101.5 -24.5t77.5 -65.5q32 -42 49 -96.5t17 -115.5q0 -59 -16.5 -113.5t-47.5 -96.5q-32 -42 -77.5 -67t-103.5 -25zM475 628
q-46 0 -80 -21t-56 -56q-23 -35 -34.5 -79.5t-11.5 -90.5q0 -48 11 -92.5t34 -78.5q22 -35 56 -56t81 -21q46 0 80.5 20.5t57.5 54.5q22 34 33 79t11 94q0 45 -11 89.5t-33 79.5q-23 35 -57 56.5t-81 21.5z" />
    <glyph glyph-name="germandbls" unicode="&#xdf;" horiz-adv-x="950" 
d="M304 17v568v12q0 50 16.5 85t42.5 57q25 21 56 31t61 10h10q40 0 72 -14.5t55 -39.5q22 -25 34 -59t12 -72q0 -34 -7.5 -58t-20.5 -42q-14 -19 -31.5 -33.5t-36.5 -29.5q22 -7 44.5 -22t41.5 -39q18 -24 29.5 -57t11.5 -76q0 -44 -13.5 -81.5t-40.5 -64.5t-67.5 -42.5
t-93.5 -15.5h-54v53h40q38 0 70 8t55 26q22 17 34.5 45.5t12.5 70.5q0 85 -46 122t-127 37h-38v56h30q27 0 54 9t49 27q22 17 36 42.5t14 59.5q0 136 -133 136q-29 0 -51.5 -11.5t-37.5 -29.5q-15 -19 -22.5 -42t-7.5 -46v-580h-53z" />
    <glyph glyph-name="ae" unicode="&#xe6;" horiz-adv-x="950" 
d="M751 367q-1 83 -33 132t-96 49q-28 0 -51.5 -14t-40.5 -39q-18 -25 -29.5 -58t-14.5 -70h265zM430 342q-14 -17 -48.5 -24t-76.5 -14q-37 -4 -62 -14t-40 -24q-16 -14 -23 -33t-7 -41q0 -43 26.5 -66.5t68.5 -23.5q16 0 43.5 10.5t53.5 29.5q26 18 45.5 42.5t19.5 53.5
v104zM625 41q-21 0 -43 7t-41 19q-20 11 -35.5 26t-24.5 31q1 -21 4 -38.5t5 -25.5h-53q-4 10 -6.5 26t-3.5 36h-3q-11 -14 -29 -28.5t-40 -25.5q-23 -12 -47 -19t-46 -7q-31 0 -57.5 9.5t-45.5 27.5q-20 18 -31.5 44.5t-11.5 60.5q0 52 17.5 83.5t47.5 49.5q29 18 66.5 27
t78.5 16q11 2 28.5 5t34.5 11q16 7 28 21t12 38t-8.5 45t-23.5 37q-16 16 -38 25.5t-48 9.5q-51 0 -84 -34t-33 -94h-56v7q0 39 14 71t38 55q23 23 54.5 36t66.5 13q53 0 95.5 -30t62.5 -84q26 51 64 82t89 31q91 0 140.5 -71.5t49.5 -220.5h-326q0 -42 9.5 -81t27.5 -69
q17 -30 41.5 -47.5t55.5 -17.5q52 0 80 29t39 77h58q-8 -30 -22 -59.5t-35 -52.5t-50 -37t-65 -14z" />
    <glyph glyph-name="eth" unicode="&#xf0;" horiz-adv-x="950" 
d="M288 278q3 -43 18.5 -79.5t41.5 -63.5q25 -27 58 -42.5t71 -15.5q35 0 67.5 15t58.5 42q25 26 41.5 63t20.5 81h-377zM446 395q-8 9 -15.5 18t-15.5 18q33 29 66 58.5t65 58.5q-38 18 -69 18q-71 0 -112.5 -32.5t-58.5 -85.5h-59q10 35 29 66t47 55q28 23 65 36.5
t84 13.5q32 0 61.5 -7.5t58.5 -24.5q24 22 49 44.5t49 44.5q8 -9 15.5 -18t15.5 -18l-90 -81q45 -42 69 -103.5t24 -133.5q0 -57 -16.5 -110.5t-47.5 -94.5q-32 -42 -78 -67t-105 -25q-51 0 -96.5 20.5t-79.5 58.5q-34 37 -54 88t-20 113v10.5t1 10.5h439q-1 66 -23 115
t-57 80z" />
    <glyph glyph-name="divide" unicode="&#xf7;" horiz-adv-x="950" 
d="M145 443h658v-55h-658v55zM474 750q26 0 44 -20t18 -47q0 -26 -18 -44.5t-44 -18.5t-44 18.5t-18 44.5q0 27 18 47t44 20zM475 212q12 0 23 -5.5t20 -14.5q8 -9 13.5 -20.5t5.5 -24.5t-5.5 -24.5t-13.5 -20.5q-9 -9 -20 -14.5t-23 -5.5q-23 0 -42.5 16.5t-19.5 48.5
q0 26 18 45.5t44 19.5z" />
    <glyph glyph-name="oslash" unicode="&#xf8;" horiz-adv-x="950" 
d="M239 37q15 22 29.5 43.5t29.5 42.5q-35 42 -53.5 97.5t-18.5 119.5q0 59 16.5 113t48.5 95t78 65t105 24q38 0 72 -10.5t65 -34.5q15 23 31 46t31 46q9 -8 17.5 -14.5t17.5 -14.5l-63 -93q38 -42 57 -98.5t19 -123.5q0 -58 -16.5 -111.5t-47.5 -94.5q-32 -42 -78 -66.5
t-105 -24.5q-42 0 -77.5 12.5t-65.5 35.5q-13 -20 -27.5 -41t-27.5 -41q-10 8 -19 14.5t-18 13.5zM613 511q-63 -94 -125 -186t-125 -186q50 -44 111 -44q45 0 80 21t60 56q24 34 37 78t13 90q0 51 -13 95t-38 76zM331 173q63 94 124.5 187t124.5 187q-23 17 -50 27.5
t-56 10.5q-45 0 -80 -21.5t-60 -55.5q-25 -35 -38 -79t-13 -89q0 -95 48 -167z" />
    <glyph glyph-name="thorn" unicode="&#xfe;" horiz-adv-x="950" 
d="M251 790h55v-268q35 42 82 67t115 25q40 0 75 -15.5t61 -42.5t41 -64t15 -80v-372h-55v363q0 36 -11 65.5t-31 50.5t-47.5 32t-60.5 11q-35 0 -68.5 -15t-58.5 -38q-26 -23 -41.5 -51.5t-15.5 -56.5v-361h-55v750z" />
    <glyph glyph-name="dcroat" unicode="&#x111;" horiz-adv-x="950" 
d="M475 484q-42 0 -75.5 -17.5t-57.5 -45.5q-24 -29 -36.5 -65.5t-12.5 -75.5t12.5 -76t36.5 -65t57.5 -45t75.5 -17t76 17t58 45t37 65t13 76t-13.5 75.5t-37.5 65.5q-24 28 -58 45.5t-75 17.5zM470 538q60 0 108.5 -23.5t77.5 -68.5q1 0 1.5 0.5t1.5 0.5v179h-336v49h336
v127h56v-127h128v-49h-128v-584h-56v71q-1 0 -1.5 0.5t-1.5 0.5q-30 -50 -78 -71t-108 -21q-53 0 -96.5 21.5t-74.5 57.5t-48 82.5t-17 96.5q0 55 16 102.5t47 82.5q30 34 73.5 53.5t99.5 19.5z" />
    <glyph glyph-name="Hbar" unicode="&#x126;" horiz-adv-x="950" 
d="M198 663v127h55v-127h445v127h55v-127h106v-48h-106v-575h-55v370h-445v-370h-55v575h-108v48h108zM253 615v-157h445v157h-445z" />
    <glyph glyph-name="hbar" unicode="&#x127;" horiz-adv-x="950" 
d="M259 654v136h56v-136h330v-48h-330v-175h3q26 41 73.5 68.5t120.5 27.5q40 0 75 -16.5t61 -45.5t41 -67.5t15 -83.5v-274h-56v266q-1 34 -11.5 64t-29.5 53t-46.5 36.5t-61.5 13.5q-36 0 -69 -17t-58 -43q-26 -26 -41 -56.5t-16 -57.5v-259h-56v566h-134v48h134z" />
    <glyph glyph-name="dotlessi" unicode="&#x131;" horiz-adv-x="950" 
d="M503 40h-56v555h56v-555zM503 732h-56v58h56v-58z" />
    <glyph glyph-name="IJ" unicode="&#x132;" horiz-adv-x="950" 
d="M197 791h56v-750h-56v750zM420 284v-69q0 -39 15 -65.5t37 -42.5q21 -17 46 -24t46 -7q22 0 47 8t47 25q21 16 35 42.5t14 63.5v576h56v-570q0 -48 -16 -85t-43 -62q-27 -26 -63 -39.5t-77 -13.5q-38 0 -73.5 11.5t-63.5 35.5t-45 60t-17 84v9v63h55z" />
    <glyph glyph-name="ij" unicode="&#x133;" horiz-adv-x="950" 
d="M356 101h-57v515h57v-515zM356 753h-57v58h57v-58zM651 762h-56v58h56v-58zM651 35q0 -15 -4 -34t-13 -36q-9 -16 -24.5 -27.5t-37.5 -11.5h-41v48h24q24 2 32 18t8 45v588h56v-590z" />
    <glyph glyph-name="kgreenlandic" unicode="&#x138;" horiz-adv-x="950" 
d="M301 40h-54v565h54v-293q32 31 67.5 67t72.5 74t73 76.5t69 75.5h65q-54 -63 -107.5 -121.5t-106.5 -112.5q68 -84 136 -166t136 -165h-66q-61 74 -121.5 147.5t-121.5 148.5q-31 -29 -54 -51.5t-42 -39.5v-205z" />
    <glyph glyph-name="Ldot" unicode="&#x13f;" horiz-adv-x="950" 
d="M661 400q17 0 31 -14t14 -33q0 -18 -14 -31.5t-31 -13.5t-31 13.5t-14 31.5q0 19 14 33t31 14zM291 790v-702h436v-48h-491v750h55z" />
    <glyph glyph-name="ldot" unicode="&#x140;" horiz-adv-x="950" 
d="M641 577q43 0 43 -44t-42 -44q-44 0 -44 44q2 44 43 44zM421 790h55v-750h-55v750z" />
    <glyph glyph-name="Lslash" unicode="&#x141;" horiz-adv-x="950" 
d="M235 451v339h55v-290q8 7 25.5 22.5t37.5 32.5q19 17 36.5 32t25.5 23q1 -2 6 -7t11 -10q5 -6 9.5 -11.5t5.5 -6.5l-157 -140v-347h436v-48h-491v346q-6 -5 -19 -16.5t-27 -23.5q-14 -13 -27 -24.5t-19 -16.5q-2 1 -6.5 6.5t-9.5 12.5q-5 6 -9.5 11.5t-5.5 7.5z" />
    <glyph glyph-name="lslash" unicode="&#x142;" horiz-adv-x="950" 
d="M447 370q-10 -9 -31.5 -27.5t-45.5 -38.5q-24 -21 -45 -40t-31 -28q-2 2 -7 8.5t-11 13.5q-6 6 -11.5 12.5t-6.5 8.5l189 163v348h56v-300q10 9 32 28.5t47 41.5q25 21 47 40.5t32 28.5q1 -2 6.5 -8t11.5 -13q5 -7 10 -13t7 -8l-193 -168v-379h-56v330z" />
    <glyph glyph-name="napostrophe" unicode="&#x149;" horiz-adv-x="950" 
d="M252 600h55v-73q34 41 81.5 67t115.5 26q40 0 75.5 -15.5t61.5 -42.5q25 -27 40 -64.5t15 -80.5v-372h-55v363q0 36 -11 65.5t-31 50.5t-47.5 32t-60.5 11q-35 0 -68.5 -15t-58.5 -38q-26 -23 -41.5 -51.5t-15.5 -56.5v-361h-55v555z" />
    <glyph glyph-name="Eng" unicode="&#x14a;" horiz-adv-x="950" 
d="M423 6q44 4 80.5 23.5t63.5 51.5q26 32 40.5 76t14.5 98q0 48 -11 92.5t-33 79.5q-23 34 -57 54.5t-80 20.5q-44 0 -75 -21t-51 -55t-29.5 -76.5t-10.5 -85.5v-223h-56v701h56v-273q24 38 67.5 63t96.5 25q56 0 101.5 -24.5t77.5 -66.5t49.5 -96.5t17.5 -114.5
q0 -65 -17.5 -119t-51.5 -94q-34 -39 -82.5 -62.5t-110.5 -26.5v53z" />
    <glyph glyph-name="eng" unicode="&#x14b;" horiz-adv-x="950" 
d="M632 27q5 13 7 31t2 36v312q0 37 -11 66.5t-31 50.5t-47.5 32t-60.5 11q-38 0 -71.5 -16t-58.5 -40q-25 -25 -39.5 -53t-14.5 -52v-361h-55v554h55v-73q35 41 81.5 67t115.5 26q40 0 75 -15.5t61 -42.5t41 -64.5t15 -80.5v-352q0 -23 -5 -45.5t-15 -41.5
q-11 -18 -27.5 -29.5t-40.5 -12.5h-60v48h12t18 1q48 3 54 44z" />
    <glyph glyph-name="OE" unicode="&#x152;" horiz-adv-x="950" 
d="M875 778h-375q64 -54 100.5 -130.5t42.5 -175.5h214v-48h-213q-5 -103 -41 -190t-100 -146h381v-47h-532q-80 2 -136 38.5t-91 92.5t-50.5 125t-15.5 136q0 71 17 141t53 126q35 56 90.5 90.5t132.5 34.5h523v-47zM352 772q-66 0 -111.5 -33.5t-73.5 -83.5t-40.5 -110
t-12.5 -112q0 -57 13 -117.5t42 -109.5q28 -49 73 -80.5t110 -31.5q44 0 79 15.5t62 41.5q26 26 44 60t30 72q11 38 16 76.5t5 73.5q0 56 -13 116t-41 110q-29 49 -73.5 81t-108.5 32z" />
    <glyph glyph-name="oe" unicode="&#x153;" horiz-adv-x="950" 
d="M313 548q-35 0 -60 -20t-42 -52q-17 -33 -25 -73t-8 -80q0 -41 8 -81t25 -72q16 -32 41.5 -52t60.5 -20q34 0 59.5 20.5t42.5 52.5q16 32 24 72.5t8 79.5q0 40 -8.5 80t-24.5 72q-17 32 -42 52.5t-59 20.5zM769 367q0 83 -32 132t-96 49q-28 0 -52 -14.5t-41 -39.5
q-18 -25 -29 -57.5t-14 -69.5h264zM313 605q58 0 98.5 -35t63.5 -95q8 21 26 44t41 42t49 31.5t50 12.5q90 0 139.5 -71.5t49.5 -220.5h-325v-12q0 -41 10.5 -78t28.5 -65t42.5 -44t52.5 -16q50 0 78.5 29t40.5 77h58q-8 -30 -22 -59t-34 -52q-21 -24 -49.5 -38t-65.5 -14
q-57 0 -99.5 36t-68.5 99q-24 -61 -65.5 -98t-98.5 -37q-47 0 -82 25t-59 65t-36 90.5t-12 101.5t12 101t36 91q23 40 58.5 65t82.5 25z" />
    <glyph glyph-name="Tbar" unicode="&#x166;" horiz-adv-x="950" 
d="M447 434h-255v49h255v263h-255v49h565v-49h-254v-263h254v-49h-254v-399h-56v399z" />
    <glyph glyph-name="tbar" unicode="&#x167;" horiz-adv-x="950" 
d="M418 413v134h-56v49h56v165h55v-165h65v-49h-65v-134h173v-48h-173v-213q0 -19 2 -31.5t8 -19.5t17.5 -9.5t30.5 -2.5h7v-48h-48q-21 0 -34.5 9.5t-21.5 25.5q-9 15 -12.5 34t-3.5 39v216h-162v48h162z" />
    <glyph glyph-name="caron" unicode="&#x2c7;" horiz-adv-x="950" 
d="M475 761q-55 29 -106.5 57.5t-105.5 57.5l34 50l178 -103q42 25 87.5 50t89.5 51l26 -40z" />
    <glyph glyph-name="uni02D0" unicode="&#x2d0;" horiz-adv-x="950" 
d="M229 524q-4 7 -15 27t-23 42q-13 21 -24 40.5t-15 27.5h150zM227 307q4 -7 14.5 -26.5t23.5 -41.5q12 -22 22.5 -41.5t14.5 -26.5h-150z" />
    <glyph glyph-name="breve" unicode="&#x2d8;" horiz-adv-x="950" 
d="M306 921q28 -42 74 -68.5t95 -26.5t95 26.5t75 68.5q2 -2 8.5 -6.5t14.5 -10.5q7 -6 14 -11t9 -6q-39 -53 -95 -84.5t-121 -31.5t-121.5 31.5t-94.5 84.5z" />
    <glyph glyph-name="dotaccent" unicode="&#x2d9;" horiz-adv-x="950" 
d="M474 681q-89 0 -89 92q0 93 89 93t89 -93q0 -92 -89 -92z" />
    <glyph glyph-name="ring" unicode="&#x2da;" horiz-adv-x="950" 
d="M475 850q-29 0 -47 -18.5t-18 -50.5t18 -50.5t47 -18.5t47 18.5t18 50.5t-18 50.5t-47 18.5zM475 901q24 0 45 -10t37 -27q15 -17 23.5 -38.5t8.5 -44.5q0 -24 -9 -45.5t-24 -37.5q-15 -17 -36 -27t-45 -10q-25 0 -46 10t-36 27q-15 16 -23.5 37.5t-8.5 45.5q0 22 8.5 44
t23.5 39q15 16 36 26.5t46 10.5z" />
    <glyph glyph-name="ogonek" unicode="&#x2db;" horiz-adv-x="950" 
d="M532 -40q-8 9 -29.5 31t-44.5 46q-24 25 -45.5 47.5t-29.5 31.5l149 149v-60l-88 -90q5 -6 17.5 -19t26.5 -27q14 -15 26.5 -28.5t17.5 -19.5v-61z" />
    <glyph glyph-name="hungarumlaut" unicode="&#x2dd;" horiz-adv-x="950" 
d="M429 781q-12 -19 -28 -40t-33 -42q-18 -21 -35.5 -41t-32.5 -36q6 21 13.5 46.5t15.5 51.5t17 52t18 48q3 6 7 15t9 19q5 9 10 17.5t10 13.5q12 17 25 20.5t30 -4.5q28 -19 13 -55q-10 -24 -39 -64v-1zM592 781q-12 -19 -28 -40t-33 -42t-35 -41t-33 -36q6 21 13.5 46.5
t16.5 51.5q8 26 16.5 52t17.5 48q3 6 7 15t9 19q5 9 10 17.5t10 13.5q12 17 25 20.5t30 -4.5q28 -19 13 -55q-10 -24 -39 -64v-1z" />
    <glyph glyph-name="Alpha" unicode="&#x391;" horiz-adv-x="950" 
d="M235 150q91 147 179.5 292.5t179.5 292.5q4 5 9.5 10.5t11.5 5.5q12 0 15 -17q16 -155 32 -309t32 -309q1 -11 2.5 -17.5t7.5 -10.5q5 -4 16 -5t32 -1q22 0 22 -16q0 -11 -9.5 -16.5t-20.5 -5.5h-189q-22 0 -22 19q1 15 15.5 17.5t31.5 3.5q17 0 31 4t14 22q0 40 -6 80.5
t-9 80.5h-255q-22 -35 -41.5 -65.5t-33.5 -53.5q-15 -23 -23.5 -38.5t-8.5 -21.5q0 -10 52 -10q23 0 23 -15q0 -12 -8.5 -17.5t-21.5 -5.5h-166q-11 0 -16 3.5t-5 14.5q1 8 9 14t19 6q19 0 32 2.5t25 10.5q11 7 21 20.5t23 34.5zM604 314q-8 78 -15.5 156t-15.5 156
l-192 -312h223z" />
    <glyph glyph-name="Beta" unicode="&#x392;" horiz-adv-x="950" 
d="M137 43q-24 0 -24 15q0 12 9 18t21 6q58 0 70 8h-1q8 4 13.5 14t9.5 24q33 131 66.5 261t66.5 261q3 12 3 22q0 15 -14 18.5t-55 3.5q-22 0 -22 19q7 20 29 20h277q34 0 67.5 -6t59.5 -21t42.5 -40t16.5 -63q0 -44 -22.5 -85t-55.5 -67q-23 -18 -50.5 -28.5t-51.5 -21.5
q25 -6 48 -16t41 -25t29 -35.5t11 -46.5q0 -11 -1 -23t-5 -24q-18 -60 -54 -97t-82 -57t-98.5 -27t-104.5 -7h-239zM433 649l-30 -116t-29 -116h48q51 0 86 3t61 14q28 12 52.5 28.5t42.5 37.5t28 46t10 53q0 32 -12 51t-37 29q-25 9 -62.5 12t-88.5 3q-20 0 -31.5 -1
t-18.5 -5q-7 -5 -11 -14t-8 -25zM364 377q-16 -63 -32 -125.5t-32 -125.5q-2 -10 -4 -17.5t-2 -12.5q0 -9 10 -11.5t40 -2.5q23 0 49.5 0.5t52.5 2.5q43 0 80.5 15.5t65.5 42.5t44 63.5t16 77.5q0 33 -17.5 51t-45.5 27q-28 8 -63 10.5t-69 4.5h-93z" />
    <glyph glyph-name="Gamma" unicode="&#x393;" horiz-adv-x="950" 
d="M231 151q32 125 63 249t63 250q2 6 2 11v10q0 16 -13.5 19.5t-54.5 3.5q-22 0 -22 14q0 13 8.5 19t21.5 6h482q11 0 15.5 -1.5t4.5 -8.5t-1 -12q-11 -51 -21 -103.5t-21 -103.5q-4 -10 -13 -14t-13 -4q-11 0 -11 15q3 24 4.5 45.5t1.5 38.5q0 67 -20 83q-35 26 -215 26
q-21 0 -33 -1.5t-18 -5.5q-7 -5 -10.5 -14t-7.5 -24q-32 -125 -63 -250t-63 -250q-5 -16 -7.5 -27.5t-2.5 -19.5q0 -14 14 -17t56 -3q23 0 23 -15q0 -24 -31 -24h-224q-24 0 -24 15q0 12 8.5 18t22.5 6q33 0 50 2t26 10q8 7 12 20.5t11 36.5z" />
    <glyph glyph-name="uni0394" unicode="&#x394;" horiz-adv-x="950" 
d="M626 122q-13 127 -26 252t-27 252q-36 -59 -75 -122.5t-78 -127.5q-40 -64 -79 -127t-75 -123q-15 -23 -15 -34q0 -7 11.5 -9.5t41.5 -2.5h259q38 0 51 6t13 22v6.5t-1 7.5zM630 734q17 -155 35 -307t35 -307q2 -12 2 -21.5v-17.5q0 -16 -7 -26.5t-31 -10.5h-433
q-20 0 -30 4t-10 18q0 16 24 55q95 155 189.5 307t190.5 307q5 9 12.5 11.5t10.5 2.5q11 0 12 -15z" />
    <glyph glyph-name="Epsilon" unicode="&#x395;" horiz-adv-x="950" 
d="M664 276q3 9 9 13t12 4q8 0 13 -6.5t1 -14.5q-16 -53 -32 -106.5t-32 -105.5q-8 -17 -27 -17h-495q-23 0 -23 15q0 12 8.5 18t21.5 6q38 0 54.5 3t23.5 21q9 5 14 22l132 522q2 6 2 11v10q0 17 -16 20t-51 3q-22 0 -22 19q6 20 29 20h484q11 0 15.5 -1.5t4.5 -8.5t-1 -12
q-11 -51 -21 -103.5t-21 -103.5q-5 -17 -16 -21t-12 -4q-9 0 -9 14q0 23 4 46t4 49q0 31 -5.5 52.5t-17.5 29.5v-1q-35 25 -216 25q-20 0 -31.5 -1t-18.5 -5q-7 -5 -11 -14t-8 -25q-14 -59 -29.5 -117.5t-29.5 -116.5q58 0 90.5 3t51.5 15q18 11 29 34t27 64q8 19 16.5 24
t10.5 5q4 0 6 -4t2 -9t-0.5 -10t-0.5 -8q-17 -66 -32.5 -133t-35.5 -132q-5 -14 -15 -18t-11 -4q-4 0 -8.5 3.5t-4.5 11.5q0 24 1.5 44.5t1.5 42.5q0 19 -35.5 25t-102.5 6q-16 -61 -32.5 -124t-31.5 -125q-3 -9 -4 -15.5t-1 -11.5q0 -17 49 -17q196 0 241 26q47 27 102 168
z" />
    <glyph glyph-name="Zeta" unicode="&#x396;" horiz-adv-x="950" 
d="M612 693q-146 0 -187 -25q-18 -11 -42 -55.5t-52 -115.5q-7 -16 -21 -16q-8 0 -11 6.5t-1 14.5q9 35 20.5 71t22.5 71q3 12 6.5 27t8.5 29q5 13 12.5 22t19.5 9h414q16 0 16 -10q0 -9 -12 -24q-131 -154 -275.5 -308t-285.5 -309h144q149 0 188 25q19 11 43 55t52 115
q5 14 18 14q10 0 12 -5.5t2 -13.5q-17 -52 -32 -105.5t-32 -105.5q-3 -9 -11 -13t-16 -4h-446q-9 0 -13 3.5t-3 8.5q0 5 3 11t8 11q136 157 276 309.5t280 307.5h-106z" />
    <glyph glyph-name="Eta" unicode="&#x397;" horiz-adv-x="950" 
d="M648 418q14 51 26.5 103t26.5 104q5 19 6.5 30.5t1.5 17.5q0 14 -16 16.5t-53 2.5q-22 0 -22 16q0 12 8 17.5t22 5.5h225q22 0 22 -15q0 -13 -8.5 -18.5t-21.5 -5.5q-33 0 -50 -2.5t-25 -9.5q-9 -8 -13 -21.5t-11 -35.5q-30 -120 -60.5 -238t-60.5 -238q-5 -27 -1 -39.5
t14 -17.5q9 -5 21 -4.5t24 0.5q11 -1 18.5 -5t7.5 -18q0 -11 -8.5 -16.5t-21.5 -5.5h-224q-23 0 -23 14q0 25 31 25q27 0 43.5 2t26.5 10q10 7 15.5 20.5t11.5 36.5q15 57 29.5 113t28.5 113h-332q-15 -57 -29.5 -114t-29.5 -114q-2 -9 -5.5 -19t-2.5 -19q0 -9 7 -15.5
t25 -8.5q3 0 12.5 -0.5t20.5 -2.5t19.5 -6t8.5 -11q0 -24 -31 -24h-224q-23 0 -23 15q0 12 8.5 18t22.5 6q25 0 41 2t27 10q11 7 17.5 20.5t11.5 36.5q30 116 61 237.5t61 238.5q1 4 4 13t3 19q-1 10 -7.5 18t-22.5 10q-3 0 -13 0.5t-20 3.5q-11 2 -19.5 6.5t-8.5 12.5
q0 12 8.5 17.5t21.5 5.5h225q22 0 22 -15q0 -13 -8.5 -18.5t-21.5 -5.5q-34 0 -50.5 -3t-24.5 -13q-9 -11 -19 -41t-20 -68t-19 -78t-17 -71h331z" />
    <glyph glyph-name="Theta" unicode="&#x398;" horiz-adv-x="950" 
d="M562 750q57 0 100.5 -20.5t73.5 -55.5q29 -35 44 -81.5t15 -98.5t-15 -106.5t-42 -105.5q-27 -52 -65 -97.5t-84 -79.5t-99 -54t-109 -20t-99.5 20.5t-73.5 55.5t-45.5 81t-15.5 98q0 54 15.5 109.5t43.5 107.5q27 51 66 96t85 79q46 33 98 52.5t107 19.5zM554 706
q-49 0 -92.5 -18.5t-79.5 -50.5q-37 -32 -66 -74t-50 -89t-33 -97t-14 -96q0 -44 10 -82t31 -66q20 -28 52.5 -43.5t77.5 -15.5q61 0 112.5 27t92.5 72q41 44 70 101t44 117q8 41 11.5 64t3.5 43q0 42 -9.5 80t-29.5 67q-20 28 -52.5 44.5t-78.5 16.5zM388 369
q-17 0 -24.5 -10.5t-11.5 -22.5q-5 -12 -11 -22.5t-20 -10.5q-13 0 -13 16q0 10 6.5 37.5t15.5 56.5q9 28 19.5 50.5t18.5 22.5q15 0 15 -19q0 -8 -0.5 -14t-0.5 -13q0 -9 6 -14t26 -5h150q16 0 24.5 10.5t14.5 22.5q5 12 11 22.5t18 10.5t12 -16q0 -11 -6 -38.5t-15 -56.5
q-10 -29 -20.5 -51.5t-19.5 -22.5q-11 0 -13 10.5t-2 23.5q-1 12 -4 22.5t-15 10.5h-161z" />
    <glyph glyph-name="Iota" unicode="&#x399;" horiz-adv-x="950" 
d="M573 623q-30 -120 -60 -238t-60 -238q-4 -16 -5.5 -29t-1.5 -20q0 -13 14.5 -15.5t53.5 -2.5q23 0 23 -16q0 -11 -9.5 -17t-21.5 -6h-225q-24 0 -24 14q0 13 9 19t23 6q30 0 47 2t27 9q9 7 13.5 20.5t10.5 37.5q29 114 60 237.5t60 238.5q4 15 5 26t1 19q0 14 -14 18
t-52 4q-24 0 -24 15q0 12 9 18t22 6h226q22 0 22 -15q0 -13 -8.5 -18.5t-21.5 -5.5q-32 0 -48 -2t-24 -9q-9 -7 -14 -21t-13 -37z" />
    <glyph glyph-name="Kappa" unicode="&#x39a;" horiz-adv-x="950" 
d="M429 385q-35 -32 -71.5 -63.5t-71.5 -63.5q-5 -20 -11 -43t-11 -45q-6 -22 -9.5 -40.5t-3.5 -28.5q0 -14 15 -17.5t53 -3.5q23 0 23 -16q0 -11 -8.5 -16.5t-21.5 -5.5h-224q-25 0 -25 15q0 12 9.5 17.5t21.5 5.5q28 0 45 2t27 10q10 7 15.5 20.5t11.5 36.5
q29 117 60.5 238.5t60.5 237.5q4 15 5 26t1 19q0 14 -14.5 18.5t-52.5 4.5q-23 0 -23 19q2 10 10.5 14.5t19.5 4.5h224q24 0 24 -15q0 -12 -8.5 -17.5t-21.5 -5.5q-30 0 -46.5 -2.5t-25.5 -9.5q-10 -8 -15 -21.5t-12 -36.5q-19 -74 -37.5 -146.5t-36.5 -146.5l369 324
q15 13 16.5 19.5t2.5 8.5q0 7 -15.5 8t-33.5 2q-19 0 -34.5 2.5t-15.5 11.5q0 12 8.5 18.5t20.5 6.5h237q23 0 23 -16q0 -11 -9.5 -16.5t-20.5 -5.5q-20 0 -34.5 -1t-26.5 -4q-12 -4 -24 -11t-27 -20q-66 -56 -129 -112.5t-128 -113.5q39 -77 80 -157t80 -157q12 -23 29 -30
t55 -7q20 0 20 -15q0 -11 -8 -17t-20 -6h-246q-22 0 -22 19q7 19 30 19q48 0 66 5t18 16q0 3 -4 13q-33 68 -66 135t-67 136z" />
    <glyph glyph-name="Lambda" unicode="&#x39b;" horiz-adv-x="950" 
d="M624 123q-13 126 -25.5 251t-25.5 251l-306 -498q-7 -11 -13 -22t-5 -14q0 -6 12.5 -7.5t38.5 -1.5q23 0 23 -15q0 -13 -8.5 -18.5t-21.5 -5.5h-166q-9 0 -15.5 4t-6.5 12t7.5 15.5t21.5 7.5q20 0 33.5 2.5t24.5 10.5q11 7 20.5 20t22.5 34q87 144 179 292.5t180 292.5
q3 5 9.5 10t11.5 7q12 0 15 -18q17 -155 32 -308.5t32 -308.5q0 -22 12.5 -28t27.5 -7t27.5 -2t12.5 -13q0 -13 -9.5 -18t-20.5 -5h-189q-10 0 -16.5 3.5t-6.5 11.5q0 20 14.5 22.5t31.5 3.5q17 0 31.5 6t14.5 33z" />
    <glyph glyph-name="Mu" unicode="&#x39c;" horiz-adv-x="950" 
d="M364 48q-13 145 -25.5 288.5t-24.5 288.5q-2 7 -3 14t-3 14q-32 -128 -64.5 -254t-65.5 -254q-5 -17 -6 -28.5t-1 -16.5q0 -11 12.5 -14.5t45.5 -3.5q23 0 23 -16q0 -23 -30 -23h-186q-24 0 -24 13q0 14 8.5 20t22.5 6q24 0 38 1.5t23 7.5q8 6 13 19t12 37
q30 120 61.5 241.5t62.5 241.5q4 14 5 24.5t1 17.5q0 14 -12 18t-45 4q-23 0 -23 16q0 12 9.5 17.5t20.5 5.5h152q11 0 12.5 -4.5t3.5 -17.5q11 -136 24 -270t25 -270l312 543q4 8 9.5 13.5t13.5 5.5h152q22 0 22 -16q0 -23 -28 -23q-25 0 -41 -1t-25 -5q-10 -5 -15.5 -14
t-9.5 -26q-31 -125 -63.5 -250t-64.5 -249q-8 -34 -8 -47t15 -16.5t54 -3.5q23 0 23 -16q0 -11 -8 -17t-22 -6h-224q-25 0 -25 15q0 12 9 18t22 6q30 0 47 2t27 9q9 7 14 21t11 37q29 117 59 232.5t59 233.5q2 7 2.5 14t1.5 15q-86 -149 -171.5 -296t-170.5 -296
q-7 -12 -16 -16t-12 -4q-11 0 -11 14z" />
    <glyph glyph-name="Nu" unicode="&#x39d;" horiz-adv-x="950" 
d="M611 177q29 113 57.5 225.5t57.5 225.5q5 17 6 28t1 18q0 11 -12.5 14.5t-44.5 3.5q-24 0 -24 19q2 11 11 15.5t20 4.5h187q22 0 22 -15q0 -13 -8.5 -18.5t-21.5 -5.5q-27 0 -41.5 -2t-21.5 -9q-8 -7 -12.5 -20t-10.5 -35q-36 -144 -74.5 -292t-74.5 -292q-7 -13 -17 -13
q-4 0 -10.5 2.5t-10.5 10.5q-60 151 -120.5 300.5t-120.5 301.5q-32 -126 -64 -250.5t-64 -250.5q-4 -14 -5.5 -26.5t-1.5 -19.5q0 -11 11 -14t47 -3q23 0 23 -16q0 -23 -31 -23h-186q-23 0 -23 14q0 13 8.5 19t22.5 6q25 0 39.5 2t23.5 9q8 6 12.5 19t10.5 35
q29 118 61 241.5t62 241.5q7 31 7 44t-13 16.5t-45 3.5q-22 0 -22 17q0 11 10 16.5t19 5.5h125q15 0 22 -17q54 -135 107 -268.5t107 -268.5z" />
    <glyph glyph-name="Xi" unicode="&#x39e;" horiz-adv-x="950" 
d="M147 42q-19 0 -19 14q0 5 1 7q10 50 21 99t22 100q5 20 18 23q11 0 14.5 -7t3.5 -16q-6 -45 -6 -77t7.5 -49.5t22.5 -25.5q14 -9 36.5 -11t52.5 -2h175q42 0 70.5 6t50.5 24q21 18 39.5 51t39.5 87q5 14 14 18t11 4q10 0 10 -16q0 -7 -1 -11l-63 -198q-4 -12 -10 -16
t-17 -4h-493zM786 731q20 0 20 -13q0 -6 -1 -9q-11 -50 -22 -99t-22 -99q-6 -23 -23 -23q-13 0 -13 19q0 22 2.5 40t2.5 34q0 34 -7 53t-22 29q-15 9 -37 11t-52 2h-120q-43 0 -71.5 -5.5t-49.5 -23.5t-38.5 -51.5t-38.5 -88.5q-7 -17 -23 -17q-6 0 -11 3.5t-5 11.5
q0 1 0.5 1.5t0.5 2.5q17 51 33 101t33 101q7 20 26 20h438zM373 359q-14 0 -21.5 -10t-13.5 -22q-6 -13 -13 -23t-19 -10q-15 0 -15 14q0 10 6.5 37.5t16.5 57.5q9 29 20 51.5t19 22.5q7 0 11 -6t4 -14q0 -4 -0.5 -7.5t-0.5 -6.5q0 -2 0.5 -2.5t0.5 -2.5t-0.5 -4.5
t-0.5 -4.5q0 -11 9 -14.5t23 -3.5h185q16 0 24 10.5t14 23.5q5 12 11 22.5t18 10.5q13 0 13 -17q0 -13 -7 -41t-16 -56q-10 -28 -21 -49.5t-18 -21.5q-13 0 -15 10.5t-2 22.5t-2.5 22.5t-14.5 10.5h-195z" />
    <glyph glyph-name="Omicron" unicode="&#x39f;" horiz-adv-x="950" 
d="M562 751q57 0 100.5 -20.5t73.5 -55.5q29 -35 44 -81.5t15 -98.5t-15 -106.5t-42 -105.5q-27 -52 -65 -97.5t-84 -79.5t-99 -54t-109 -20q-57 0 -100.5 20.5t-72.5 55.5q-30 35 -44.5 81t-14.5 96q0 55 15 111t43 108q27 51 65 96.5t84 79.5q46 33 98 52t108 19zM554 707
q-48 0 -91.5 -19t-80.5 -50q-37 -32 -67 -74.5t-51 -89.5q-22 -48 -33.5 -97t-11.5 -95q0 -44 9.5 -82t30.5 -65q21 -28 53.5 -44t77.5 -16q61 0 112.5 27t92.5 72q41 44 70 101t44 117l6 30q7 36 9 76q0 43 -9.5 81.5t-29.5 66.5q-21 28 -53.5 44.5t-77.5 16.5z" />
    <glyph glyph-name="Pi" unicode="&#x3a0;" horiz-adv-x="950" 
d="M669 646q1 19 -13 29t-36 15q-23 4 -50.5 4.5t-51.5 0.5q-30 0 -49.5 -2t-32.5 -9q-14 -7 -23 -21t-17 -38q-28 -111 -58 -232t-58 -231q-5 -19 -8.5 -32.5t-3.5 -22.5q0 -14 13 -19.5t56 -5.5q23 0 23 -15q0 -12 -9 -18t-22 -6h-225q-23 0 -23 15q0 12 8.5 18t22.5 6
q29 0 45.5 2.5t26.5 12.5t17 31t18 58q31 108 59 221t51 220q4 17 6 27t2 18q0 15 -14.5 18.5t-52.5 3.5q-23 0 -23 14q0 13 8.5 19t22.5 6h561q23 0 23 -15q0 -13 -8.5 -18.5t-21.5 -5.5q-29 0 -45.5 -2t-26.5 -9t-15 -21t-12 -37q-29 -111 -60 -232t-59 -231
q-5 -19 -7.5 -32t-2.5 -22q0 -8 3 -13t11 -8q7 -3 20.5 -4t35.5 -1t22 -15q0 -12 -8.5 -18t-21.5 -6h-225q-25 0 -25 15q0 12 9.5 18t22.5 6q30 0 47 2t27 11q9 8 14.5 24t13.5 45q32 111 60.5 231.5t56.5 231.5q2 5 2 9.5v9.5z" />
    <glyph glyph-name="Rho" unicode="&#x3a1;" horiz-adv-x="950" 
d="M486 692q-18 0 -29 -0.5t-18 -4.5q-8 -5 -12.5 -14t-8.5 -26q-17 -65 -33.5 -130t-33.5 -130h109q44 0 87.5 10.5t78.5 34.5q34 24 55.5 62.5t21.5 95.5q0 49 -31 75.5t-92 26.5h-94zM581 731q38 -1 73 -9.5t62 -25.5q26 -17 42 -43t16 -62q0 -56 -25.5 -101t-65.5 -77
t-89 -49t-95 -17h-158q-13 -51 -26 -100.5t-26 -99.5q-2 -9 -5 -18.5t-2 -17.5q0 -9 7 -15t24 -9q3 0 12.5 -1t20.5 -3q11 -3 19.5 -7t8.5 -11q0 -24 -31 -24h-224q-23 0 -23 14q0 25 31 25q29 0 45.5 2t25.5 9q9 6 14.5 20t11.5 38q31 119 61 237t61 237q3 13 6 25t3 22
q0 14 -15.5 18t-53.5 4q-23 0 -23 15q0 12 9.5 18t20.5 6h288z" />
    <glyph glyph-name="Sigma" unicode="&#x3a3;" horiz-adv-x="950" 
d="M172 41q-33 0 -33 13q0 5 7 15.5t16 23.5q68 73 135 145.5t135 146.5q-30 74 -61 150t-60 151q-3 9 -4 15.5t-1 11.5q0 18 29 18h450q11 0 15.5 -1.5t4.5 -8.5q0 -2 -2 -12q-11 -51 -20.5 -102t-20.5 -101q-8 -19 -22 -21q-11 0 -12.5 10.5t-1.5 24.5q0 11 0.5 22t0.5 22
q0 89 -26 103q-20 11 -76.5 18t-148.5 7h-30h-21q-20 0 -26.5 -11t-1.5 -31q24 -57 48 -114.5t48 -115.5q2 -2 3 -7t1 -9q-1 -6 -4 -14t-11 -17q-64 -69 -128 -136t-128 -135q-6 -8 -6 -12q0 -10 22 -10q250 0 315 25q32 12 63 54t58 111q6 15 20 15q6 0 10.5 -3.5
t4.5 -10.5q0 -1 -0.5 -2t-0.5 -3q-15 -51 -31.5 -102.5t-30.5 -102.5q-3 -10 -11 -15t-16 -5h-451z" />
    <glyph glyph-name="Tau" unicode="&#x3a4;" horiz-adv-x="950" 
d="M766 733q11 0 16 -1.5t5 -8.5q0 -2 -2 -12q-11 -51 -21.5 -103.5t-21.5 -103.5q-5 -19 -14 -22.5t-11 -3.5q-4 0 -8 4t-4 12q0 27 5.5 56t5.5 55q0 27 -5 45t-18 29q-14 10 -37.5 14.5t-60.5 4.5q-26 0 -39 -5.5t-21 -30.5q-32 -129 -64 -257t-66 -256q-7 -26 -3.5 -38.5
t13.5 -17.5q9 -6 22 -6t25 -1q11 -1 19 -4.5t8 -14.5q0 -23 -31 -23h-225q-23 0 -23 14q0 27 29 27q28 0 44.5 1.5t27.5 7.5q10 6 16 19.5t12 37.5q32 129 65 256.5t65 256.5q3 10 3 17q0 11 -9.5 14t-33.5 3q-41 0 -72.5 -7.5t-50.5 -21.5q-18 -14 -41 -57.5t-49 -112.5
q-7 -17 -21 -17q-8 0 -12 7t-1 15q16 53 31.5 104.5t31.5 104.5q4 14 10 17t17 3h494z" />
    <glyph glyph-name="Upsilon" unicode="&#x3a5;" horiz-adv-x="950" 
d="M459 410q-17 -66 -34 -131.5t-34 -131.5q-4 -15 -6.5 -26.5t-2.5 -18.5q0 -11 11 -16.5t45 -5.5q24 0 24 -16q0 -11 -8.5 -16.5t-21.5 -5.5h-193q-25 0 -25 15q0 12 9.5 17.5t22.5 5.5q22 0 35 2t21 9t13 20.5t11 37.5q13 52 29 107.5t30 110.5q13 54 22 105.5t9 96.5
q0 30 -6 52.5t-20 38.5q-14 15 -38.5 22.5t-60.5 7.5q-12 0 -17 3t-5 6t15 12t37 9q45 0 75 -14t49 -38q18 -24 25.5 -55.5t7.5 -65.5h3q20 35 48.5 68t60.5 59t67 42t69 16q28 0 45 -15.5t17 -41.5q0 -12 -6.5 -26t-16.5 -26q-11 -12 -24 -19.5t-26 -7.5q-14 0 -26 11.5
t-12 30.5q0 12 6 24t16 20q-39 -5 -78.5 -35t-72.5 -70q-34 -41 -58 -86t-31 -81z" />
    <glyph glyph-name="Phi" unicode="&#x3a6;" horiz-adv-x="950" 
d="M561 617q-30 -116 -59.5 -231.5t-58.5 -231.5q43 4 78.5 19.5t67.5 39.5q22 17 44 40.5t39 51.5q17 27 27.5 56.5t10.5 58.5q1 40 -4.5 72.5t-21.5 57.5q-17 25 -47 41.5t-76 25.5zM324 539q-48 -45 -75 -103t-27 -125q0 -66 40 -107t113 -52q0 1 0.5 1t0.5 1
q29 116 59 231t59 232q-103 -15 -170 -78zM359 109q3 2 5 9q-46 3 -85.5 20.5t-67.5 45.5q-29 28 -45.5 65t-16.5 80q0 60 31 116.5t81 101.5q50 44 113.5 73t128.5 33q1 4 1 11q0 8 -1 13.5t-7 8.5q-7 3 -21 4.5t-39 1.5q-24 0 -24 19q7 20 30 20h226q22 0 22 -15
q0 -13 -9 -18.5t-20 -5.5q-27 0 -42.5 -1.5t-24.5 -5.5q-10 -5 -15 -13t-9 -20q49 -4 89 -22.5t68 -47.5t43 -66.5t15 -79.5q0 -60 -31 -115.5t-80 -98.5q-50 -44 -113 -72t-127 -32q-2 -10 -2 -14q0 -13 14.5 -17t32.5 -5q17 -2 31.5 -4.5t14.5 -12.5q0 -24 -30 -24h-225
q-24 0 -24 14q0 25 31 25q45 0 61 5.5t21 23.5z" />
    <glyph glyph-name="Chi" unicode="&#x3a7;" horiz-adv-x="950" 
d="M230 149q53 62 105.5 122.5t106.5 122.5q-24 64 -47.5 128.5t-47.5 128.5q-6 17 -12.5 26t-15.5 13q-9 3 -22 3.5t-34 0.5q-22 0 -22 14q0 13 8.5 19t21.5 6h230q23 0 23 -16q0 -13 -9.5 -18t-21.5 -5q-47 0 -61.5 -3.5t-14.5 -16.5q0 -8 6 -21q18 -50 36.5 -98.5
t36.5 -98.5q42 49 83.5 98t83.5 99q18 21 24 33q-7 6 -22 7t-41 1q-22 0 -22 19q7 20 30 20h201q22 0 22 -15q0 -13 -8.5 -18.5t-19.5 -5.5q-24 0 -38 -0.5t-24 -4.5q-10 -5 -20 -14t-26 -26q-51 -60 -102.5 -120.5t-103.5 -120.5q24 -66 47.5 -130.5t47.5 -130.5
q8 -23 16.5 -36t19.5 -19q11 -7 25 -8.5t33 -1.5q21 0 21 -15q0 -24 -28 -24h-241q-22 0 -22 20q7 19 29 19h38.5t24.5 3q9 2 12.5 7t3.5 14q0 7 -1.5 17t-6.5 22q-19 51 -37 100.5t-37 100.5q-17 -20 -39 -45t-45 -51q-24 -27 -46.5 -53t-39.5 -47q-18 -22 -29 -37t-11 -20
q0 -7 15 -9t55 -2q21 0 21 -15q0 -12 -8.5 -18t-20.5 -6h-214q-12 0 -16.5 6.5t-4.5 13.5q8 17 29 19q25 1 40 2.5t27 8.5t25 20t34 36z" />
    <glyph glyph-name="Psi" unicode="&#x3a8;" horiz-adv-x="950" 
d="M525 622q-21 -86 -42.5 -171t-43.5 -171q21 3 43 8.5t42 14.5q20 8 37 20t29 29q17 25 27.5 62.5t20.5 79.5q9 41 20 83t30 76q18 33 46.5 54t73.5 21q33 0 44 -13t11 -35q0 -17 -11.5 -29t-37.5 -12q-11 0 -16.5 8t-8.5 18t-6.5 18t-9.5 8q-23 0 -37.5 -35.5
t-19.5 -104.5q-4 -83 -28.5 -140t-63.5 -92q-39 -36 -89.5 -53t-105.5 -20q-4 -19 -9.5 -40.5t-10.5 -41.5q-5 -21 -8.5 -38t-3.5 -26q0 -14 14 -17.5t55 -3.5q23 0 23 -16q0 -11 -9.5 -17t-21.5 -6h-225q-24 0 -24 14q0 25 32 25q33 0 50 2.5t26 13.5q6 6 11.5 22.5
t11.5 38.5q6 21 12 45t11 45q-32 3 -63 12t-56 27q-25 17 -40.5 44.5t-15.5 67.5q0 67 46 162q37 77 37 108q0 23 -22 23q-18 -1 -37 -37q-12 -21 -28 -21q-4 0 -10 2t-12 7q-6 4 -10.5 10.5t-4.5 15.5q0 21 19 41t60 20q51 0 70.5 -23.5t19.5 -66.5q0 -26 -10 -61t-22 -71
q-13 -37 -23 -70.5t-10 -55.5q0 -23 10.5 -41t27.5 -30q17 -13 38.5 -20t43.5 -10q22 87 43.5 172.5t44.5 172.5q7 28 7 44q0 15 -14 19t-53 4q-24 0 -24 19q2 11 11 15.5t20 4.5h226q22 0 22 -15q0 -13 -8.5 -18.5t-21.5 -5.5q-29 0 -45.5 -2t-26.5 -9t-15 -21t-12 -37z
" />
    <glyph glyph-name="uni03A9" unicode="&#x3a9;" horiz-adv-x="950" 
d="M498 170q-5 -19 -9.5 -37t-9.5 -36h22q41 0 70 5t51 20q21 14 37.5 41t34.5 71q5 8 12 11t9 3q9 0 9 -12q0 -3 -2 -11q-14 -42 -27 -83t-27 -83q-3 -8 -8 -12.5t-17 -4.5h-221q10 41 19.5 79.5t20.5 79.5q57 4 109 34t91 76t62 102.5t23 114.5q0 40 -12 73t-35 57
t-56.5 37t-75.5 13q-62 0 -117.5 -28.5t-97.5 -74.5q-43 -46 -68 -103.5t-25 -115.5q0 -37 9 -69.5t28 -56.5q19 -25 48.5 -40.5t70.5 -18.5q-10 -41 -19.5 -79.5t-20.5 -79.5h-225q-21 0 -21 16q0 4 1 6q15 80 32 163q2 9 7.5 13.5t11.5 4.5q13 0 13 -16q0 -12 -1.5 -24
t-1.5 -20q0 -30 7.5 -47.5t23.5 -26.5q15 -9 39.5 -11.5t58.5 -2.5h25q5 18 9.5 36.5t9.5 36.5q-40 8 -72.5 28.5t-55.5 49.5q-24 29 -36.5 64.5t-12.5 73.5q0 72 33.5 137t88.5 115q55 49 124.5 78.5t141.5 29.5q52 0 96.5 -16t77.5 -45q32 -30 50 -71t18 -90
q0 -59 -25 -117t-68 -106q-44 -49 -102.5 -83.5t-124.5 -47.5z" />
    <glyph glyph-name="alpha" unicode="&#x3b1;" horiz-adv-x="950" 
d="M265 500q19 0 38 -6t35 -17q15 -12 26 -28.5t13 -36.5q2 -14 2.5 -29t2.5 -17q3 5 7.5 13.5t11.5 21.5q3 6 8.5 21t14.5 31q8 15 19 26.5t25 11.5q13 0 19 -9t6 -19q0 -12 -4.5 -23t-14.5 -26q-12 -19 -24 -37.5t-24 -39.5q-12 -22 -25.5 -47.5t-28.5 -57.5
q-8 -15 -14 -39t-5 -46q0 -23 10 -39t34 -16h12q28 0 28 -15q0 -17 -17.5 -26.5t-36.5 -9.5q-42 0 -62.5 22t-30.5 52q-6 -8 -20.5 -22t-33.5 -28q-20 -14 -42 -24t-41 -10q-27 0 -50.5 12t-40.5 32q-18 20 -28 45.5t-10 53.5q0 41 14.5 88.5t40.5 92.5q16 27 36 53.5
t44 46.5t50.5 32.5t55.5 12.5zM302 453q-5 2 -11 3t-11 1q-23 0 -46 -14.5t-44 -38.5q-22 -24 -40 -55t-31 -64q-14 -33 -22 -65.5t-8 -58.5q0 -33 17 -55t52 -22q20 0 38.5 8t35.5 27q56 59 81.5 120.5t25.5 138.5q0 58 -37 75z" />
    <glyph glyph-name="beta" unicode="&#x3b2;" horiz-adv-x="950" 
d="M93 26q-9 -45 -18.5 -68.5t-29.5 -23.5q-9 4 -14.5 14.5t-6.5 22.5q10 67 29 151t42 169q23 84 46.5 162.5t41.5 134.5h-1q12 30 25.5 54.5t30.5 42.5q17 17 39 26.5t51 9.5q33 0 61 -13t49 -35q21 -23 33 -53.5t12 -65.5q0 -21 -8.5 -47t-24.5 -50t-39 -41.5t-52 -22.5
q13 -8 25.5 -24.5t22.5 -37.5q9 -22 13.5 -45.5t3.5 -43.5q-5 -30 -16.5 -65t-30.5 -65t-45.5 -50.5t-60.5 -21.5q-23 -2 -43.5 2t-38.5 16q-19 12 -37 33t-35 54zM279 384q-23 5 -39 17t-16 26q7 27 45 18q8 -2 20 -5.5t36 -9.5q20 -5 37 8t30 33q12 20 19.5 42.5t9.5 36.5
q2 50 -10 83.5t-54 46.5q-45 8 -80.5 -22.5t-57.5 -91.5q-29 -92 -54.5 -188t-32.5 -197q6 -18 18 -34.5t29 -28.5q16 -13 35.5 -20t40.5 -5q32 3 53 23t34 47q12 27 17.5 57t6.5 54q0 15 -3.5 31t-8.5 31q-6 15 -12 27t-11 18q-12 0 -26.5 0.5t-25.5 2.5z" />
    <glyph glyph-name="gamma" unicode="&#x3b3;" horiz-adv-x="950" 
d="M85 436q-23 -48 -38 -48q-11 0 -11.5 11t3.5 26q3 14 9 27t8 17q31 58 96 58q59 0 87.5 -43t30.5 -113v-84v-26.5t3 -15.5q3 3 12 18q7 11 23 36.5t35 56.5l36 60t31 50h-1q20 26 31 40.5t30 14.5q11 0 20.5 -8.5t9.5 -21.5q0 -11 -6 -25t-19 -29q-42 -50 -72 -87.5
t-53 -69.5t-40 -62.5t-33 -66.5q-17 -36 -31 -75t-27 -72q-14 -33 -29 -54.5t-33 -21.5q-9 0 -15 5t-10 12t-5.5 15.5t-1.5 15.5q0 20 22.5 59.5t52.5 90.5q13 25 19.5 37t9.5 28q2 15 2 43v86q0 67 -23 110t-70 43q-35 0 -53 -37z" />
    <glyph glyph-name="delta" unicode="&#x3b4;" horiz-adv-x="950" 
d="M365 317q0 25 -4.5 50.5t-15.5 45.5q-12 19 -31.5 31.5t-48.5 12.5q-36 0 -64.5 -22.5t-48.5 -57.5q-21 -36 -32 -78.5t-11 -81.5q1 -29 7.5 -55.5t18.5 -46.5t31 -32t46 -12q38 0 66.5 25t48.5 63q19 37 28.5 79.5t9.5 78.5zM374 445q14 -15 25.5 -34.5t20.5 -41.5
q8 -22 12.5 -45t4.5 -44q0 -43 -15.5 -87.5t-42.5 -80.5t-64 -58.5t-81 -22.5q-46 0 -82 18.5t-61 48.5t-38 68.5t-13 79.5q0 45 15 89.5t43 80.5q27 35 65.5 57t85.5 22h13q-8 9 -19 23t-22 32q-11 17 -18.5 38.5t-7.5 45.5q0 20 7.5 38t20.5 32q12 14 28.5 22.5t34.5 8.5
t37 -6t38 -16q18 -10 34.5 -23t30.5 -27q10 -11 21.5 -26.5t22.5 -31.5q10 -17 17 -34.5t9 -32.5q0 -16 -12 -26t-26 -10q-11 0 -21 13t-21 33t-23 43t-27 43t-33.5 33t-41.5 13q-5 0 -13 -3t-16 -8q-8 -6 -14 -15t-6 -21q0 -20 13 -44.5t33 -49.5q20 -26 43 -50.5t43 -43.5
z" />
    <glyph glyph-name="epsilon" unicode="&#x3b5;" horiz-adv-x="950" 
d="M348 448q-11 29 -41 36t-65 7q-42 0 -71 -23.5t-29 -64.5q0 -24 11.5 -41t29.5 -27q18 -11 40 -15.5t43 -4.5h32q14 0 24.5 -3.5t10.5 -17.5q0 -11 -10 -14.5t-26 -3.5q-9 0 -20.5 1t-15.5 1h-3q-62 -3 -96.5 -28t-34.5 -73q0 -50 36.5 -78t103.5 -28q18 0 35.5 4.5
t31.5 14.5t22.5 25t8.5 35t12 36.5t32 16.5q17 0 26.5 -11.5t9.5 -28.5q0 -4 -0.5 -7t-1.5 -7q-17 -55 -67 -84t-115 -29q-32 0 -68 6t-66 22q-31 15 -51 41.5t-20 68.5q0 47 31 78t84 42q-25 3 -43.5 13t-30.5 26q-13 15 -19 33.5t-6 38.5q0 28 14 50t38 38q23 15 54 23.5
t64 8.5q27 0 59.5 -4t61.5 -15q28 -11 47.5 -30.5t19.5 -51.5q0 -16 -12 -27.5t-27 -11.5q-17 0 -27 13t-12 34q0 11 -4 16z" />
    <glyph glyph-name="zeta" unicode="&#x3b6;" horiz-adv-x="950" 
d="M230 747q6 -9 5 -17t-6 -15q-6 -7 -14.5 -13.5t-16.5 -12.5q-23 -23 -36 -37.5t-13 -34.5q0 -14 11 -27.5t29 -13.5q25 0 49.5 17.5t51.5 39.5q26 21 55 38.5t62 17.5q15 0 24 -8.5t9 -20.5q0 -11 -8 -23t-21 -23q-27 -24 -56.5 -40.5t-56.5 -27.5t-50 -17t-37 -8
q-11 -14 -31.5 -43.5t-40.5 -65.5q-21 -36 -36.5 -74.5t-15.5 -71.5q0 -56 31.5 -86.5t84.5 -30.5h21q48 0 80 -26t32 -82q0 -27 -15.5 -48.5t-38.5 -36.5t-50.5 -23t-52.5 -8q-11 0 -28.5 1t-33.5 5t-27.5 12t-11.5 21q0 12 12 22t40 10q4 0 32 -5.5t66 -5.5
q22 0 38.5 10.5t16.5 34.5q0 14 -11.5 23.5t-33.5 12.5q-101 13 -150.5 49.5t-49.5 113.5q0 55 19.5 108.5t49.5 102.5q47 68 61 90q-8 4 -19 10.5t-21 17.5t-17.5 27.5t-7.5 40.5q0 20 11.5 42.5t29.5 41.5q17 18 36.5 30.5t35.5 12.5q8 0 14 -6z" />
    <glyph glyph-name="eta" unicode="&#x3b7;" horiz-adv-x="950" 
d="M182 413q-5 54 -43 54q-7 0 -13.5 -1t-11.5 -1q-24 0 -24 13q0 16 17.5 25.5t35.5 9.5q42 0 64 -23.5t33 -53.5q5 8 17.5 22t30.5 28q17 13 37.5 22.5t41.5 9.5q26 0 50.5 -8.5t43.5 -23.5q18 -16 29 -39t11 -51v-11.5t-1 -11.5v1q-3 -34 -13 -75.5t-23 -84.5
q-14 -44 -29.5 -86.5t-29.5 -79.5q-6 -16 -14 -37t-17 -41q-10 -19 -22 -32.5t-26 -13.5q-17 0 -27 11t-10 22q0 10 6 22q5 12 18 37t29 59q15 33 32 73t32 83q14 43 23 87t9 85q0 30 -19 52t-56 22q-23 0 -45 -15.5t-40 -38.5q-19 -24 -32.5 -50.5t-19.5 -47.5
q-6 -20 -13 -47t-14 -56q-8 -30 -16.5 -58.5t-18.5 -51.5t-21 -37t-23 -14q-16 0 -23 11.5t-7 25.5q0 15 10 39t28 55q26 45 40.5 95.5t14.5 102.5q0 6 -0.5 11.5t-0.5 11.5z" />
    <glyph glyph-name="theta" unicode="&#x3b8;" horiz-adv-x="950" 
d="M344 736q31 -8 55 -28.5t40 -50.5q15 -31 23.5 -70.5t10.5 -84.5q0 -45 -8 -96.5t-24 -103.5q-17 -52 -40.5 -99.5t-53.5 -84.5q-31 -37 -69 -59t-82 -22q-41 0 -69.5 22t-46.5 58q-19 36 -27.5 82.5t-8.5 94.5q0 89 23.5 170t62.5 142t88.5 97t100.5 36q11 0 25 -3z
M228 635q-29 -42 -50 -95t-42 -122q1 -1 1 -2h253q6 32 8.5 63.5t2.5 60.5q0 33 -4.5 62t-14.5 51q-10 21 -24.5 33t-34.5 12q-25 0 -49.5 -16.5t-45.5 -46.5zM126 379q-8 -39 -12 -76t-4 -70q0 -71 20.5 -114.5t64.5 -43.5q29 0 59.5 28.5t56.5 72.5t44.5 98t24.5 105h-254
z" />
    <glyph glyph-name="iota" unicode="&#x3b9;" horiz-adv-x="950" 
d="M237 517q14 -3 20.5 -15t2.5 -26q-6 -25 -17 -55t-24 -63q-14 -34 -28 -70.5t-26 -75.5q-4 -12 -7.5 -29t-3.5 -34q0 -22 12 -34t41 -12q15 0 26 6t20 13q8 6 14.5 12t12.5 6q5 0 10 -5.5t5 -15.5q0 -9 -10.5 -22.5t-25.5 -25.5q-16 -13 -35 -22t-36 -9q-28 0 -45.5 9.5
t-27.5 25.5t-13.5 35t-3.5 39q0 29 8.5 68t20.5 80q11 40 23.5 77t20.5 63q4 12 8.5 27.5t11.5 28.5q7 12 18 19.5t28 4.5z" />
    <glyph glyph-name="kappa" unicode="&#x3ba;" horiz-adv-x="950" 
d="M200 501q15 0 23.5 -8.5t8.5 -21.5q0 -9 -8.5 -30t-17.5 -45q-10 -24 -18.5 -47t-8.5 -38h39q29 0 48 25.5t41 70.5q24 45 51.5 70t59.5 25q26 0 47 -15.5t21 -47.5q0 -19 -10.5 -29t-28.5 -10q-12 0 -20 7v-1q-10 5 -20.5 12t-24.5 6t-24.5 -14.5t-17.5 -31.5
q-9 -25 -19.5 -41.5t-21.5 -26.5q-11 -11 -22.5 -17.5t-22.5 -11.5h-1q19 -10 33.5 -29.5t14.5 -46.5q0 -57 6.5 -82t30.5 -25q17 0 29.5 11.5t22.5 25.5q9 14 17 25.5t17 11.5q8 0 12.5 -6t4.5 -14q0 -14 -9 -33q-17 -37 -45 -61.5t-68 -24.5q-31 0 -47 12.5t-23 32.5
q-8 20 -9 44.5t-1 47.5q0 33 -3.5 51t-11.5 27q-9 8 -24.5 9t-39.5 1q-1 -8 -6 -22q-7 -23 -13.5 -56.5t-13.5 -64.5q-8 -32 -18 -54.5t-25 -22.5q-14 0 -24 8.5t-10 25.5q0 3 10.5 36.5t26.5 84.5q15 50 32 109t29 112q3 9 5 24t7 29t14 24t26 10z" />
    <glyph glyph-name="lambda" unicode="&#x3bb;" horiz-adv-x="950" 
d="M235 649q-15 8 -30.5 20.5t-15.5 32.5q0 15 11 24.5t25 9.5q22 0 50 -21q25 -19 40.5 -40t23.5 -42q8 -22 11 -43.5t3 -41.5q0 -44 -3.5 -87.5t-1.5 -88.5q0 -51 7.5 -88t22.5 -73q7 -18 16.5 -37.5t18.5 -37.5q8 -19 14.5 -35t8.5 -26q0 -11 -8.5 -23.5t-19.5 -12.5
q-15 0 -27 13t-22 33q-10 19 -17.5 41t-12.5 39q-8 27 -13 66t-7 78t-2.5 71t-0.5 46q-9 -15 -30.5 -49t-46.5 -77t-47.5 -89.5t-33.5 -84.5q-11 -40 -30.5 -66t-40.5 -26q-14 0 -22 9.5t-8 22.5q0 14 6.5 32t15.5 36t19.5 35.5t19.5 30.5q35 54 77 115t88 128q10 15 16 21
t10 13q3 7 5 20t5 43q0 42 -21.5 68t-52.5 41z" />
    <glyph glyph-name="uni03BC" unicode="&#x3bc;" horiz-adv-x="950" 
d="M128 244q9 38 17 74t18 70q6 19 14 41t18 42q10 19 22 32t25 13q15 0 24 -10t9 -26q0 -24 -21 -66q-48 -94 -73.5 -163.5t-29.5 -102.5q5 -9 10.5 -18.5t13.5 -16.5q7 -8 18 -13t27 -5q43 0 68.5 17.5t40.5 44.5q14 27 21.5 59.5t14.5 61.5q7 28 15.5 67.5t20.5 75.5
q11 35 26 60t35 25q17 0 23 -10t6 -24q0 -17 -6 -39.5t-15 -46.5q-9 -25 -19.5 -49.5t-19.5 -44.5q-6 -14 -14 -31.5t-15 -35.5t-12 -35t-5 -30q0 -18 8.5 -32t28.5 -14q8 0 15 4.5t14 9.5t14 9.5t16 4.5q7 0 7 -11q0 -13 -6.5 -26.5t-17.5 -24.5q-11 -12 -24.5 -19
t-26.5 -7q-14 0 -25 6.5t-19 15.5q-9 9 -14.5 20t-7.5 20q-27 -29 -54 -46.5t-68 -17.5q-35 0 -56 15t-36 38q-6 -13 -10 -42.5t-10 -60.5q-6 -30 -17 -53.5t-30 -23.5q-14 0 -21.5 11t-7.5 24q0 20 11.5 48.5t26.5 59.5q10 22 16.5 37.5t12.5 33.5q5 18 10.5 42t13.5 63z
" />
    <glyph glyph-name="nu" unicode="&#x3bd;" horiz-adv-x="950" 
d="M147 494q29 8 45 -31q8 -20 12 -44.5t4 -50.5q0 -31 -6 -69t-15 -73q-10 -36 -23 -65t-27 -43l6 2q39 14 81.5 43.5t77.5 69.5q35 39 58.5 85.5t24.5 95.5q1 39 9.5 60.5t19.5 17.5q5 -2 8.5 -12.5t3.5 -24.5t-2 -34t-6 -46q-20 -102 -78 -182.5t-157 -127.5
q-42 -17 -73 -23t-39 2q-5 7 -2 21.5t13 33.5q11 22 23 51t21 60q9 30 14.5 60t4.5 56q-1 16 -5 45t-13 80q0 13 5 26t16 18z" />
    <glyph glyph-name="xi" unicode="&#x3be;" horiz-adv-x="950" 
d="M248 375q-2 0 -4.5 0.5t-4.5 0.5q-32 0 -60 -11.5t-49 -31.5t-33.5 -47.5t-12.5 -59.5q0 -46 27 -69.5t75 -23.5h11q52 0 85.5 -24.5t33.5 -77.5q0 -23 -11 -42.5t-29 -34.5t-41 -23.5t-48 -8.5q-13 0 -23 6.5t-10 18.5q0 18 16 22t36 7q19 3 35 10t16 30q0 16 -13 24.5
t-32 13.5t-39.5 8t-36.5 9q-57 20 -78.5 60t-21.5 84q0 37 10.5 66t26.5 52q16 22 36 38.5t39 29.5q-5 5 -9.5 10.5t-9.5 10.5l-9 9q-11 10 -15 24.5t-5 29.5q0 39 17 65t39 39q6 3 10 6t6 10q2 6 3.5 17t2.5 30q6 36 40 62t83 26q20 0 32 -7t12 -24q0 -11 -9.5 -16.5
t-23.5 -7.5q-15 -3 -32 -4t-31 -4q-15 -4 -24.5 -11.5t-9.5 -22.5q0 -17 26 -17q18 0 43.5 2.5t48.5 2.5q12 0 28.5 -1.5t32.5 -5.5q16 -5 27 -13.5t11 -22.5q0 -17 -13 -25t-33 -8q-37 0 -73 9t-68 9q-12 0 -25 -2t-24 -7q-23 -10 -40 -25.5t-17 -43.5q0 -31 16 -44t39 -13
h26q20 0 36 1.5t28 0.5q14 0 34.5 -1.5t39.5 -6.5q18 -6 31.5 -15.5t13.5 -24.5q0 -35 -41 -35q-27 0 -57 6.5t-57 11.5z" />
    <glyph glyph-name="omicron" unicode="&#x3bf;" horiz-adv-x="950" 
d="M41 261q0 45 15 90t44 82q28 37 69 60t92 23q42 0 78 -19t63 -50q26 -32 40.5 -72.5t14.5 -83.5q0 -46 -16.5 -91.5t-45.5 -81.5t-68 -58t-84 -22q-44 0 -81 18.5t-64 49.5t-42 71.5t-15 83.5zM374 241q5 20 7.5 41.5t2.5 42.5q0 29 -6 56.5t-19 48.5q-14 21 -36.5 34
t-55.5 13q-37 0 -66 -22.5t-49 -57.5t-30.5 -77t-10.5 -81q0 -28 6.5 -56.5t20.5 -51.5q13 -24 34.5 -38.5t52.5 -14.5q30 0 54 14t43 38q18 23 31 52t21 59z" />
    <glyph glyph-name="pi" unicode="&#x3c0;" horiz-adv-x="950" 
d="M56 383q-6 6 -6 14q0 15 9 31.5t26 30.5q16 13 40 22t53 9q20 0 50.5 -2t62.5 -2h32h31.5t31.5 2q31 2 59 8.5t43 6.5q24 0 24 -33q0 -17 -3.5 -26.5t-10.5 -13.5q-7 -5 -18 -6t-25 -1h-47q-14 0 -24 -1t-17 -2q-4 -17 -10 -49.5t-11 -69.5q-6 -38 -10 -75.5t-4 -63.5
q0 -22 9.5 -42.5t24.5 -20.5q8 0 18.5 5.5t21.5 5.5q8 0 10 -11q0 -29 -21.5 -44.5t-47.5 -15.5q-22 0 -35.5 8t-20.5 21q-7 12 -9 27t-2 28v13t1 12q1 22 6.5 59.5t12.5 78.5q7 40 12.5 77t7.5 58q-23 2 -47.5 2t-49.5 -1q-6 -21 -12 -50.5t-14 -66.5q-8 -39 -18 -85
t-24 -85q-14 -40 -32 -66t-42 -26q-11 0 -19 7t-8 21q0 17 9 42t33 57q15 22 29.5 53t26.5 65t19 68.5t7 64.5q-10 2 -21 2q-19 0 -34.5 -3.5t-25.5 -14.5q-6 -4 -10.5 -9.5t-8.5 -8.5q-4 -4 -9 -5.5t-13 1.5z" />
    <glyph glyph-name="rho" unicode="&#x3c1;" horiz-adv-x="950" 
d="M407 387q-11 33 -37.5 58t-59.5 25q-32 0 -57.5 -20.5t-44.5 -52.5t-29 -70.5t-10 -73.5q0 -27 6 -53t19 -47t33 -33.5t47 -12.5q34 0 60 20.5t44 51.5q18 30 27.5 67t9.5 70q0 37 -8 71zM285 70q-59 0 -100 33.5t-61 87.5q-3 0 -5 -11t-3 -26t-1.5 -31t-0.5 -26
q0 -22 1 -43.5t1 -43.5q0 -15 -1 -29.5t-5 -26.5q-4 -11 -11.5 -18.5t-20.5 -7.5q-14 0 -19.5 15t-5.5 40q0 29 3.5 63t8.5 69q4 32 10.5 74t17.5 85t27.5 84.5t41.5 74.5q24 32 58 52t80 20q39 0 72.5 -17t58.5 -45q24 -28 37.5 -65.5t13.5 -77.5q0 -42 -15 -83.5
t-41 -73.5q-27 -33 -63 -53t-78 -20z" />
    <glyph glyph-name="sigma" unicode="&#x3c3;" horiz-adv-x="950" 
d="M418 462q-17 0 -33 2.5t-32 4.5q-16 1 -33.5 0.5t-36.5 -6.5q0 -2 7.5 -3.5l17.5 -3.5q10 -3 21 -6t18 -6q84 -49 84 -158q0 -51 -18.5 -95.5t-48.5 -77.5t-68.5 -52t-78.5 -19q-37 0 -68 14t-54 39q-24 25 -38 59.5t-16 75.5q0 28 7.5 60.5t23.5 65.5t40 63.5t57 54.5
t75.5 38t95.5 14q45 0 74 -10t29 -30q0 -11 -8 -17.5t-17 -6.5zM158 97q27 -15 53 -10.5t50 22.5q23 17 43 43.5t35 57.5q14 30 22 59.5t8 53.5q0 42 -23.5 73.5t-68.5 31.5q-34 0 -65.5 -20.5t-55.5 -53.5t-38 -73.5t-14 -80.5q0 -34 12 -60.5t42 -42.5z" />
    <glyph glyph-name="tau" unicode="&#x3c4;" horiz-adv-x="950" 
d="M281 432q-7 -14 -16 -38t-20 -59q-12 -39 -20.5 -66.5t-13.5 -47.5q-5 -21 -7.5 -36t-2.5 -28q0 -26 11 -40t37 -14q17 0 34 6t31 6q20 0 20 -14q0 -13 -11 -24t-27 -19q-17 -8 -35.5 -12.5t-34.5 -4.5q-50 0 -68.5 25t-18.5 61v14t2 14q2 11 9 34t17 52q9 29 19 60
t19 58q8 27 13.5 46.5t5.5 25.5q0 5 -13 6t-33 1q-21 0 -37.5 -7.5t-29.5 -15.5q-14 -9 -25.5 -16.5t-21.5 -7.5q-5 0 -10.5 4t-5.5 15t6.5 26.5t20.5 30.5q14 14 35.5 24t52.5 10q40 0 82 -2t99 -1q32 0 55 3.5t39 9.5q5 2 8.5 3t6.5 1q20 0 20 -33q0 -18 -3.5 -27.5
t-9.5 -14.5t-15 -6t-19 -1q-18 0 -45.5 2t-62.5 2t-37 -5z" />
    <glyph glyph-name="upsilon" unicode="&#x3c5;" horiz-adv-x="950" 
d="M108 448q0 62 42 62q20 0 29 -13t9 -32q0 -25 -6 -49t-13 -41q-8 -20 -19.5 -46.5t-21.5 -55.5q-11 -29 -18.5 -57t-7.5 -51q0 -17 5.5 -32.5t16.5 -27.5q10 -12 24 -19.5t32 -7.5q31 0 59.5 17t53.5 44q24 27 44 61t35 69q14 34 21.5 66t7.5 54q0 20 -3 36t-3 27
q0 36 26 36q10 0 19 -7t16 -18q7 -12 10.5 -26t3.5 -28q0 -23 -9.5 -59.5t-26.5 -77.5t-42 -82.5t-56 -74.5q-31 -34 -68 -55t-78 -21q-32 0 -57 11t-42 29t-26 41.5t-9 49.5v7q4 30 12.5 63.5t17.5 68.5q9 34 15.5 69t6.5 70z" />
    <glyph glyph-name="phi" unicode="&#x3c6;" horiz-adv-x="950" 
d="M39 258q0 42 16.5 84.5t46.5 75.5q29 33 69.5 52.5t87.5 16.5q30 -4 32 -16l2 -11q7 1 15.5 1h14.5q26 0 48 -20t38 -48q16 -29 25 -61t9 -57q0 -43 -15.5 -83.5t-45.5 -72.5t-73 -52t-98 -21q-3 -14 -6 -26.5t-6 -25.5q-9 -36 -22.5 -48.5t-31.5 -6.5v-1q-15 7 -16 23.5
t5 35.5q5 19 13.5 36t12.5 26q-26 13 -48 35t-38 49q-17 27 -26 57t-9 58zM225 345q8 26 19.5 49t42.5 54q-28 0 -55 -8.5t-49 -25.5q-23 -18 -41 -45t-28 -65q-8 -32 -8 -68q0 -37 14 -74t49 -67q11 37 18.5 74.5l14.5 72.5q6 29 11.5 55.5t11.5 47.5zM218 80q40 4 69.5 27
t49.5 56q19 33 28.5 71.5t9.5 71.5q0 35 -8 69.5t-34 54.5q-14 10 -27 -5t-23 -41t-17.5 -54.5t-11.5 -44.5q0 -2 -1.5 -9t-5.5 -28t-10.5 -60.5t-18.5 -107.5z" />
    <glyph glyph-name="chi" unicode="&#x3c7;" horiz-adv-x="950" 
d="M80 108q13 13 28 27.5t33 32.5t40 41t49 53q8 8 11 12q-6 30 -9 62.5t-8 60.5t-14.5 46t-28.5 18q-8 0 -16 -6t-15 -13q-8 -7 -14 -13t-11 -6q-13 0 -13 17q0 14 8 28.5t21 26.5q12 12 27.5 20t30.5 8q33 0 49 -20.5t23 -50.5t8.5 -64t6.5 -61q20 24 43.5 54.5t39.5 53.5
q8 10 17.5 24t19.5 27q9 13 18 22.5t18 9.5q16 0 29.5 -12t13.5 -28q0 -10 -6.5 -18t-19.5 -19q-45 -42 -90 -87t-74 -84q6 -33 13.5 -62.5t17.5 -50.5q9 -22 21.5 -34.5t27.5 -12.5q9 0 16.5 6.5t14.5 14.5q6 7 11.5 13.5t11.5 6.5q5 0 9.5 -6t4.5 -14q0 -17 -9 -32.5
t-22 -27.5q-13 -13 -27 -20.5t-23 -7.5q-38 0 -65.5 46.5t-41.5 127.5q-6 -7 -26 -34t-44 -56q-25 -30 -49.5 -53.5t-40.5 -23.5q-11 0 -19.5 10t-8.5 21q0 14 13 27z" />
    <glyph glyph-name="psi" unicode="&#x3c8;" horiz-adv-x="950" 
d="M119 164q6 -49 50 -68q16 40 27 77.5t22 82.5q6 25 10.5 63.5t10.5 75.5t16.5 63.5t30.5 26.5q23 0 34.5 -13t6.5 -32q-6 -23 -14 -49.5t-17 -52.5q-9 -27 -18 -52.5t-16 -46.5q-5 -14 -15.5 -48t-29.5 -100q26 2 54 19t50 41t33 57t18 69q7 35 13.5 68.5t19.5 59.5
q4 8 12.5 22t20.5 27t28 22.5t35 9.5t19 -11q0 -8 -12 -18t-20 -14q-20 -11 -30 -37t-14 -83q-5 -65 -26 -113t-53 -80q-33 -32 -73 -49.5t-82 -21.5q-5 -20 -9.5 -45t-11.5 -47t-18 -37t-28 -15q-14 0 -25 8.5t-11 22.5q0 10 3.5 17.5t9.5 14.5q5 7 10.5 14.5t10.5 16.5
q5 10 9 24t10 29q-20 5 -38.5 16t-32.5 28q-14 16 -22.5 37.5t-8.5 48.5q0 5 0.5 10t0.5 10q1 22 9.5 50.5t18.5 57.5q9 28 17.5 53.5t10.5 42.5q0 15 -4.5 26t-9.5 20q-5 8 -9.5 14t-4.5 12q0 9 13 9q21 0 33.5 -9t19.5 -22q7 -14 9.5 -29t2.5 -27q0 -23 -7.5 -53
t-16.5 -61q-9 -32 -16.5 -62.5t-7.5 -54.5q0 -7 2 -15z" />
    <glyph glyph-name="omega" unicode="&#x3c9;" horiz-adv-x="950" 
d="M242 475q1 -8 -12 -18.5t-35 -27.5q-18 -13 -32.5 -36.5t-25.5 -52.5t-17 -62t-6 -66q0 -26 2 -48.5t8 -39.5t16.5 -26.5t27.5 -9.5q28 0 48.5 27.5t23.5 63.5q3 38 8.5 80t15.5 78q9 35 24.5 58t39.5 23q13 0 20 -8t10 -20q2 -12 1 -25.5t-3 -23.5q-7 -34 -18.5 -61
t-22.5 -51q-12 -25 -20 -51t-8 -57q0 -7 4 -15.5t11 -16.5q6 -8 15 -13.5t18 -5.5q34 0 55.5 31t34.5 74q12 42 17 86t5 71q0 25 -3.5 44.5t-6.5 35.5q-4 16 -7.5 29.5t-3.5 26.5q0 15 5.5 20t11.5 5q7 0 19 -14.5t23 -41.5t19 -65t8 -84q0 -39 -9 -75q-23 -86 -66.5 -136
t-96.5 -50q-36 2 -58.5 26.5t-31.5 52.5q-5 -9 -15 -20t-23 -21q-14 -10 -30 -16.5t-33 -6.5q-23 0 -41.5 13t-31.5 36q-13 22 -20 51t-7 61q0 51 10.5 97t31.5 85q10 20 26.5 39.5t34.5 34.5t36.5 24.5t34.5 9.5q17 0 19 -16v-2z" />
    <glyph glyph-name="uni0401" unicode="&#x401;" horiz-adv-x="950" 
d="M221 785h509v-48h-454v-288h436v-49h-436v-307h463v-48h-518v740zM378 946q20 0 33.5 -14.5t13.5 -34.5t-13.5 -34t-33.5 -14q-18 0 -31.5 14t-13.5 34t13.5 34.5t31.5 14.5zM571 946q19 0 33 -14.5t14 -34.5t-14 -34t-33 -14q-18 0 -32 14t-14 34t14 34.5t32 14.5z" />
    <glyph glyph-name="uni0410" unicode="&#x410;" horiz-adv-x="950" 
d="M668 254h-385q-6 -14 -18.5 -44t-26.5 -63t-26.5 -63.5t-18.5 -43.5h-57q13 32 37.5 91t55.5 132q30 72 63 151.5t64 152.5q30 73 54.5 132t37.5 91h55q10 -24 26.5 -63.5t37.5 -89.5q20 -50 44 -107t49 -115q24 -59 48 -116t45 -106q20 -50 36.5 -89.5t26.5 -63.5h-58z
M303 302h345l-172 416z" />
    <glyph glyph-name="uni0411" unicode="&#x411;" horiz-adv-x="950" 
d="M285 88h259q77 0 124 44.5t47 121.5q0 34 -14 62.5t-37 48.5t-53.5 31t-63.5 12h-262v-320zM721 741h-436v-285h251q11 0 33 -2t48 -9q26 -8 53.5 -21.5t50.5 -36.5q22 -24 36 -58.5t14 -82.5q0 -46 -17.5 -84t-50.5 -65t-80 -42t-105 -15h-288v749h491v-48z" />
    <glyph glyph-name="uni0412" unicode="&#x412;" horiz-adv-x="950" 
d="M230 40v750h297q43 0 81.5 -12.5t67.5 -36.5t46 -58.5t17 -77.5q0 -31 -9 -55q0 -20 -8 -38t-20 -33q-13 -15 -28 -26t-28 -18q22 -10 44.5 -26.5t40.5 -38.5q18 -23 29 -53t11 -67q0 -47 -17.5 -85.5t-49.5 -66.5q-33 -28 -80 -43t-106 -15h-288zM285 88h259
q77 0 124 45t47 122q0 34 -14 62.5t-37 48.5q-24 20 -54.5 31t-62.5 11h-262v-320zM285 456h251q46 0 63 24q40 11 64.5 39.5t24.5 76.5q0 47 -23.5 77.5t-65.5 43.5q-19 25 -62 25h-252v-286z" />
    <glyph glyph-name="uni0413" unicode="&#x413;" horiz-adv-x="950" 
d="M228 805h510v-49h-453v-721h-57v770z" />
    <glyph glyph-name="uni0414" unicode="&#x414;" horiz-adv-x="950" 
d="M221 186q29 60 47 141t26 178q3 49 5 90.5t4 78.5q1 37 2 72t1 73h414v-633h74v-253h-56v205h-528v-205h-55v253h66zM664 186v585h-303q0 -24 -0.5 -48t-1.5 -54q-2 -30 -3.5 -67.5t-4.5 -86.5q-10 -197 -72 -329h385z" />
    <glyph glyph-name="uni0415" unicode="&#x415;" horiz-adv-x="950" 
d="M221 789h509v-48h-454v-288h436v-48h-436v-318h463v-48h-518v750z" />
    <glyph glyph-name="uni0416" unicode="&#x416;" horiz-adv-x="950" 
d="M447 810h56v-457q13 19 37.5 55t55.5 81q30 44 63 92t63 93q30 44 54.5 80t38.5 56h66l-243 -357q12 -17 36 -49.5t53 -72.5q29 -41 61 -84.5t61 -83.5q29 -41 52.5 -73.5t36.5 -49.5h-69l-265 361l-101 -147v-214h-56v215l-107 151q-11 -15 -31.5 -44t-46.5 -64
q-26 -36 -54 -75t-54 -74q-26 -36 -47 -65t-32 -44h-69l302 413q-10 15 -29.5 43t-42.5 63q-24 35 -50 72.5t-49 72.5q-24 35 -43.5 63t-29.5 43h65l318 -458v458z" />
    <glyph glyph-name="uni0417" unicode="&#x417;" horiz-adv-x="950" 
d="M275 232q3 -71 51 -113t149 -42q39 0 72.5 11.5t59.5 33.5q25 22 39.5 53t15.5 69q0 53 -34 91q-20 22 -40 35t-41 19t-44 8t-50 3h-36l1 56q40 0 78.5 5.5t68.5 21.5t49.5 45t22.5 76q0 34 -12.5 62.5t-34.5 48.5q-23 19 -53.5 30t-66.5 11q-81 0 -122 -36.5t-44 -91.5
h-55q1 39 17.5 72.5t45.5 58.5q29 24 70 37.5t92 13.5q43 0 82.5 -15t70.5 -41q30 -27 48 -63.5t18 -79.5q0 -65 -28 -109t-75 -70q27 -14 50 -31.5t41 -39.5q17 -23 27 -51t10 -62q0 -53 -18.5 -95t-51.5 -71t-78.5 -44.5t-98.5 -15.5t-99.5 14t-80.5 41q-34 26 -53.5 65
t-19.5 90h57z" />
    <glyph glyph-name="uni0418" unicode="&#x418;" horiz-adv-x="950" 
d="M197 40v750h55v-667q19 28 53.5 81t77.5 118q42 64 88 134.5t89 135.5q42 64 76.5 116.5t53.5 81.5h62v-750h-55v668q-19 -29 -53.5 -81.5t-76.5 -116.5q-42 -65 -88.5 -136t-88.5 -135q-42 -65 -76.5 -117.5t-53.5 -81.5h-63z" />
    <glyph glyph-name="uni0419" unicode="&#x419;" horiz-adv-x="950" 
d="M191 37v762h67v-651q19 28 52.5 79.5t75.5 114.5q41 63 86 131.5t87 131.5q41 63 74.5 114t52.5 80h72v-762h-67v653q-14 -22 -36.5 -56.5t-50.5 -77.5q-29 -44 -61 -93t-65 -99q-34 -51 -66 -100.5t-60 -92.5q-29 -43 -51.5 -78t-36.5 -56h-73zM649 950q-9 -30 -26 -56
t-40 -45t-50.5 -29.5t-57.5 -10.5q-62 0 -108.5 39.5t-66.5 101.5h52q17 -38 49 -65t74 -27q20 0 39 8t35 21q16 12 28 28.5t19 34.5h53z" />
    <glyph glyph-name="uni041A" unicode="&#x41a;" horiz-adv-x="950" 
d="M243 40h-55v749h55v-411q43 41 94.5 91.5t105.5 104.5q53 54 105.5 109t98.5 106h68q-71 -84 -141.5 -161t-138.5 -148q90 -111 179.5 -220.5t179.5 -219.5h-71q-83 100 -164.5 200.5t-164.5 201.5l-82.5 -75t-68.5 -61v-266z" />
    <glyph glyph-name="uni041B" unicode="&#x41b;" horiz-adv-x="950" 
d="M340 756v-532q0 -39 -5 -74.5t-20 -62.5q-15 -28 -42.5 -44.5t-71.5 -17.5v58q39 2 55 20t21 54q3 11 5 20.5t2 17.5v609h464v-769h-56v721h-352z" />
    <glyph glyph-name="uni041C" unicode="&#x41c;" horiz-adv-x="950" 
d="M755 40v631q-7 -14 -14 -29t-12 -29q-57 -144 -112 -286.5t-111 -286.5h-62q-62 159 -121.5 316.5t-125.5 314.5v-631h-55v749h70l264 -681q66 171 132 340.5t132 340.5h70v-749h-55z" />
    <glyph glyph-name="uni041D" unicode="&#x41d;" horiz-adv-x="950" 
d="M698 410h-445v-371h-55v750h55v-331h445v331h55v-750h-55v371z" />
    <glyph glyph-name="uni041E" unicode="&#x41e;" horiz-adv-x="950" 
d="M471 810q77 0 137 -31.5t101 -84.5q40 -54 61 -125.5t21 -152.5t-21 -153t-61 -125q-41 -54 -101 -85t-137 -31q-78 0 -138 31t-100 85q-41 53 -62 124.5t-21 153.5q0 81 21 152.5t62 125.5t101 85t137 31zM471 756q-65 0 -114 -28t-82 -74q-33 -47 -49.5 -109
t-16.5 -129q0 -68 17 -130t50 -108q33 -47 82 -74.5t113 -27.5t113 28t82 75t49.5 108.5t16.5 128.5q0 66 -17 127.5t-50 108.5t-81.5 75.5t-112.5 28.5z" />
    <glyph glyph-name="uni041F" unicode="&#x41f;" horiz-adv-x="950" 
d="M257 756v-722h-55v770h547v-770h-56v722h-436z" />
    <glyph glyph-name="uni0420" unicode="&#x420;" horiz-adv-x="950" 
d="M208 789h301q52 0 97 -15.5t78 -44.5q33 -30 52 -72.5t19 -96.5q0 -50 -19 -90.5t-52 -68.5q-34 -29 -79 -44.5t-96 -15.5h-245v-301h-56v749zM264 390h247q37 0 71 10.5t60 32.5q25 21 40 53t15 74q0 45 -15 79t-40 57q-26 22 -60 33.5t-71 11.5h-247v-351z" />
    <glyph glyph-name="uni0421" unicode="&#x421;" horiz-adv-x="950" 
d="M784 261q-12 -43 -35 -86t-59 -77q-37 -34 -88 -55t-119 -21q-78 0 -138 31.5t-100 85.5q-41 54 -61.5 125.5t-20.5 151.5t21 152t62 126q40 54 99.5 85.5t137.5 31.5q65 0 116 -22.5t89 -56.5q37 -35 61.5 -78t36.5 -83h-59q-12 31 -32 64t-50 60t-70 44.5t-92 17.5
q-63 0 -112 -28.5t-82 -75.5t-50 -109t-17 -128q0 -68 16.5 -130t49.5 -108q33 -47 81.5 -74.5t113.5 -27.5q52 0 92.5 17t70.5 44q29 26 48.5 59t29.5 65h60z" />
    <glyph glyph-name="uni0422" unicode="&#x422;" horiz-adv-x="950" 
d="M447 746h-255v48h565v-48h-254v-712h-56v712z" />
    <glyph glyph-name="uni0423" unicode="&#x423;" horiz-adv-x="950" 
d="M475 314q46 120 92.5 240t93.5 240h59q-66 -167 -130 -332t-130 -333q-18 -53 -45 -73.5t-78 -20.5h-22v49h37q17 0 30.5 16t24.5 40q11 23 20 49.5t17 48.5q-54 140 -108.5 278t-108.5 278h59z" />
    <glyph glyph-name="uni0424" unicode="&#x424;" horiz-adv-x="950" 
d="M498 154q59 4 109 24t87 54q36 34 56.5 82.5t20.5 109.5q0 60 -20.5 108t-56.5 83q-37 34 -87 54t-109 25v-540zM452 694q-60 -3 -110.5 -23t-86.5 -55t-56.5 -83.5t-20.5 -108.5t20.5 -108t57.5 -82q36 -34 86.5 -54.5t109.5 -25.5v540zM452 103q-72 3 -132.5 28
t-103.5 68q-44 43 -68.5 100t-24.5 125q0 67 24.5 125t68.5 101q43 42 103.5 67.5t132.5 28.5v73h46v-73q70 -3 130.5 -28t104.5 -68t69 -100.5t25 -125.5q0 -67 -24.5 -125t-68.5 -100q-44 -43 -104.5 -68.5t-131.5 -27.5v-73h-46v73z" />
    <glyph glyph-name="uni0425" unicode="&#x425;" horiz-adv-x="950" 
d="M474 381q-10 -14 -29 -41t-42 -60t-49 -69.5t-49 -69.5t-42 -60.5t-29 -41.5h-63l270 388q-10 15 -30 43.5t-44 63.5q-25 35 -52 74t-51 74q-25 35 -45 63.5t-30 43.5h63l221 -318q9 13 26.5 38t39.5 56t45.5 65t45.5 65t39.5 56t26.5 38h63l-254 -362q11 -17 32.5 -47.5
t48.5 -67.5q26 -38 55 -79t56 -78q26 -38 47 -69t33 -47h-63z" />
    <glyph glyph-name="uni0426" unicode="&#x426;" horiz-adv-x="950" 
d="M267 93h417v702h56v-703h74v-170h-56v123h-547v750h56v-702z" />
    <glyph glyph-name="uni0427" unicode="&#x427;" horiz-adv-x="950" 
d="M764 35h-56v355q-1 0 -1 0.5t-1 0.5q-34 -58 -96 -90t-136 -32q-39 0 -88.5 12.5t-92.5 39.5q-44 27 -74 70t-30 105v308h56v-269q0 -57 18.5 -96t50.5 -63q31 -25 72.5 -36t87.5 -12q39 0 80.5 15.5t75.5 42.5q34 26 56 60.5t22 72.5v285h56v-769z" />
    <glyph glyph-name="uni0428" unicode="&#x428;" horiz-adv-x="950" 
d="M754 83v721h55v-770h-668v770h55v-721h251v721h56v-721h251z" />
    <glyph glyph-name="uni0429" unicode="&#x429;" horiz-adv-x="950" 
d="M141 34v770h56v-721h251v721h56v-721h251v721h55v-721h74v-176h-55v127h-688z" />
    <glyph glyph-name="uni042A" unicode="&#x42a;" horiz-adv-x="950" 
d="M358 454v-371h237q41 0 75.5 15.5t59.5 41.5t39 59t14 69q0 35 -14 68.5t-39 59.5t-59.5 42t-75.5 16h-237zM303 756h-204v48h259v-302h237q52 0 97 -16.5t78 -47.5t51.5 -74t18.5 -96t-18.5 -96t-51.5 -73q-33 -31 -78 -47.5t-97 -16.5h-292v721z" />
    <glyph glyph-name="uni042B" unicode="&#x42b;" horiz-adv-x="950" 
d="M178 88h258q77 0 124.5 45t47.5 122q0 34 -14 62t-37 48t-54 31.5t-65 11.5h-260v-320zM178 456h251q38 0 77 -7.5t76 -41.5q36 -22 59 -58.5t23 -87.5q0 -49 -16.5 -89.5t-48.5 -69.5q-32 -30 -79 -46t-109 -16h-289v750h56v-334zM753 790h56v-750h-56v750z" />
    <glyph glyph-name="uni042C" unicode="&#x42c;" horiz-adv-x="950" 
d="M268 88h259q77 0 124 45t47 122q0 34 -14 62.5t-37 48.5q-24 20 -54.5 31t-62.5 11h-262v-320zM268 456h251q13 0 35.5 -2.5t48.5 -9.5t53 -21t49 -37q21 -23 35 -57t14 -81t-17 -85t-49 -65q-32 -28 -79.5 -43t-107.5 -15h-288v750h55v-334z" />
    <glyph glyph-name="uni042D" unicode="&#x42d;" horiz-adv-x="950" 
d="M340 391v50h399q-2 66 -20 124t-51 101q-33 42 -80.5 66.5t-107.5 24.5q-41 0 -78.5 -10.5t-67.5 -29.5q-31 -20 -53 -48t-31 -63h-61q32 94 102 150.5t188 56.5q78 0 137.5 -31t99.5 -84q39 -54 59.5 -126t20.5 -155t-20.5 -155.5t-60.5 -125.5q-41 -53 -100 -83.5
t-135 -30.5q-115 0 -192 51.5t-108 151.5h63q23 -74 86 -111t150 -37q58 0 104.5 23t80.5 64q33 41 52.5 99t23.5 128h-400z" />
    <glyph glyph-name="uni042E" unicode="&#x42e;" horiz-adv-x="950" 
d="M564 755q-60 0 -103.5 -32t-71.5 -82q-29 -50 -43 -110.5t-14 -116.5q0 -68 14.5 -129.5t43.5 -107.5q28 -47 71.5 -75t102.5 -28q58 0 101.5 29t72.5 77t43.5 109t14.5 125q0 33 -6 71t-18 76q-13 38 -32 73t-45 62t-58.5 43t-72.5 16zM157 438h118q1 76 21 143.5
t57 118.5q36 50 89.5 79.5t121.5 29.5q71 0 125 -32.5t91 -86.5q36 -55 54.5 -126.5t18.5 -149.5q0 -77 -18.5 -148.5t-54.5 -125.5q-36 -55 -90 -87.5t-126 -32.5q-69 0 -121.5 29.5t-88.5 80.5q-37 50 -57 117t-22 143h-118v-350h-56v749h56v-351z" />
    <glyph glyph-name="uni042F" unicode="&#x42f;" horiz-adv-x="950" 
d="M130 40q53 81 105.5 161t105.5 161q-34 8 -64 27.5t-52 47.5q-22 27 -35 61.5t-13 72.5q0 47 17.5 87t49.5 70q31 29 75 45.5t97 16.5h308v-750h-55v312h-270q-52 -78 -103.5 -156t-102.5 -156h-63zM669 400v342h-248q-36 -1 -69.5 -10.5t-58.5 -29.5q-26 -20 -41 -52.5
t-15 -78.5q0 -43 15.5 -75t41.5 -53q25 -22 58.5 -32.5t68.5 -10.5h248z" />
    <glyph glyph-name="uni0430" unicode="&#x430;" horiz-adv-x="950" 
d="M711 136q0 -26 5.5 -52.5t8.5 -37.5h-56q-4 11 -8.5 33.5t-5.5 48.5q-19 -20 -45.5 -38.5t-56.5 -33.5q-30 -14 -63 -22.5t-66 -8.5q-38 0 -72.5 10t-60.5 30q-26 19 -41.5 48t-15.5 66q0 46 20 77.5t53 51.5t74.5 31t84.5 16q12 1 27.5 2t31.5 3t30 6t25 11q28 7 51 21
t23 40q0 27 -13 50.5t-35 41.5q-23 18 -53 28t-64 10q-32 0 -62 -8t-53 -24q-24 -17 -38.5 -42t-14.5 -58v-7h-56q0 3 -0.5 6.5t-0.5 6.5q0 41 20 74t52 56t72 35.5t81 12.5q43 0 83 -13t71 -37t49.5 -59.5t18.5 -80.5v-294zM654 350q-23 -19 -61.5 -27t-99.5 -16
q-53 -5 -91 -14t-62 -24q-25 -16 -37 -39t-12 -55q2 -47 39.5 -72t97.5 -25q27 0 65.5 11t74.5 32q36 20 61 48t25 62v119z" />
    <glyph glyph-name="uni0431" unicode="&#x431;" horiz-adv-x="950" 
d="M474 563q-45 0 -80 -20.5t-59 -54.5q-25 -34 -38 -77.5t-13 -89.5q0 -47 12.5 -90.5t37.5 -76.5q24 -34 59.5 -54t80.5 -20t80 20.5t59 54.5t37 77.5t13 88.5q0 46 -13 89.5t-37 77.5q-25 34 -60 54.5t-79 20.5zM337 715q63 56 151 56q23 0 49.5 -0.5t51.5 4.5
q25 4 45 15t31 34h54q-11 -45 -37 -68t-60 -33t-73.5 -11t-76.5 -1q-23 0 -50 -10.5t-51 -31.5t-41.5 -52.5t-21.5 -73.5q33 35 74 54t92 19q58 0 103.5 -24.5t76.5 -65.5t47.5 -94t16.5 -111t-16.5 -111t-47.5 -93q-31 -41 -76.5 -65t-103.5 -24q-60 0 -105.5 24t-76.5 65
q-31 40 -47 93t-16 111q0 53 2 108.5t13 108.5q10 52 32 97.5t61 79.5z" />
    <glyph glyph-name="uni0432" unicode="&#x432;" horiz-adv-x="950" 
d="M266 40v565h213q35 0 66.5 -11.5t55.5 -30.5q23 -20 37 -46t14 -56q0 -48 -23 -79t-57 -51q17 -5 35 -15.5t33 -26.5q14 -16 23.5 -37.5t9.5 -49.5q0 -36 -14 -66t-38 -51q-25 -22 -59.5 -33.5t-75.5 -11.5h-220zM321 356h142q67 0 100.5 28.5t33.5 69.5t-33.5 71.5
t-100.5 30.5h-142v-200zM321 89h142q74 0 114 30.5t40 79.5q0 21 -10.5 40.5t-30.5 34.5t-48 24.5t-63 9.5h-144v-219z" />
    <glyph glyph-name="uni0433" unicode="&#x433;" horiz-adv-x="950" 
d="M285 605h380v-49h-325v-516h-55v565z" />
    <glyph glyph-name="uni0434" unicode="&#x434;" horiz-adv-x="950" 
d="M294 246q41 91 47 227q5 70 7 134.5t2 116.5h305v-478h55v-206h-56v158h-358v-158h-55v206h53zM600 246v429h-196q0 -32 -2 -84t-5 -121q-4 -69 -15 -125t-32 -99h250z" />
    <glyph glyph-name="uni0435" unicode="&#x435;" horiz-adv-x="950" 
d="M475 625q57 0 102.5 -24.5t77.5 -66.5t49.5 -96.5t18.5 -114.5h-439v-9q0 -48 16.5 -90t43.5 -73q26 -32 60.5 -50t70.5 -18q70 0 112.5 34t57.5 85h60q-13 -35 -32 -66.5t-46 -54.5q-28 -23 -64 -36.5t-83 -13.5q-60 0 -107.5 24t-79.5 65t-49 94.5t-17 113.5
q0 57 16.5 111t48.5 95q31 41 77.5 66t105.5 25zM664 371q-4 44 -20 81t-41 64q-26 27 -58.5 42t-69.5 15q-36 0 -69 -15.5t-58 -42.5q-26 -27 -42 -64t-19 -80h377z" />
    <glyph glyph-name="uni0436" unicode="&#x436;" horiz-adv-x="950" 
d="M447 39v191l-76 87q-9 -12 -26 -34t-37 -49q-21 -27 -43.5 -56t-42.5 -56q-21 -27 -38 -49t-26 -34h-69l246 318q-9 10 -26 29.5t-37 43.5q-21 24 -44 50.5t-43 50.5q-21 24 -37.5 43.5t-25.5 29.5h68l257 -292v292h56v-293q11 12 31.5 35.5t45.5 51.5q24 28 51.5 59.5
t52.5 59.5q24 28 44.5 51t31.5 36h68l-213 -247q10 -13 29.5 -38t43.5 -56q23 -31 49.5 -65t50.5 -65t43.5 -56t29.5 -38h-70l-212 278l-76 -87v-191h-56z" />
    <glyph glyph-name="uni0437" unicode="&#x437;" horiz-adv-x="950" 
d="M335 217q0 -27 8.5 -51.5t26.5 -42.5q18 -19 45 -30.5t63 -11.5q59 0 95 32t38 88q0 32 -13.5 54t-33.5 35q-21 13 -44.5 18.5t-43.5 5.5h-43v56h24q2 0 5 -0.5t6 -0.5q25 0 47.5 6.5t39.5 20.5q17 13 27 34.5t10 52.5q0 46 -33 73.5t-85 27.5q-60 0 -88 -32.5t-30 -78.5
h-53q0 32 11.5 61t33.5 52q22 22 54.5 35.5t74.5 13.5q33 0 63.5 -11.5t53.5 -31.5t37 -48.5t14 -61.5q0 -55 -22 -87t-57 -51q42 -21 70.5 -54.5t28.5 -85.5q0 -40 -14 -72t-39 -55q-26 -23 -60.5 -35.5t-76.5 -12.5q-41 0 -76.5 13t-61.5 37q-26 23 -41.5 55.5t-15.5 71.5
v11h55z" />
    <glyph glyph-name="uni0438" unicode="&#x438;" horiz-adv-x="950" 
d="M325 40h-57v565h55v-467q13 20 37 57t53 82t61 94.5t61 94.5t53 82t37 57h56v-565h-55v467z" />
    <glyph glyph-name="uni0439" unicode="&#x439;" horiz-adv-x="950" 
d="M640 758q-9 -30 -25 -54.5t-38 -41.5q-22 -18 -48 -28t-54 -10q-29 0 -55 10t-47 28q-22 17 -38 41.5t-25 54.5h47q17 -35 48 -60.5t70 -25.5q19 0 37 7t33 19t27 27.5t19 32.5h49zM325 39h-57v565h55v-467q13 20 37 57t53 82t61 94.5t61 94.5t53 82t37 57h56v-565h-55
v468z" />
    <glyph glyph-name="uni043A" unicode="&#x43a;" horiz-adv-x="950" 
d="M322 210v-170h-55v565h55v-324q13 14 37 39.5t54 56.5q29 31 61 65.5t61 65.5t53 57t37 40h66l-241 -260q11 -13 32 -36.5t47 -53.5t54.5 -62.5t54.5 -62.5t47 -54t32 -36h-66l-239 265z" />
    <glyph glyph-name="uni043B" unicode="&#x43b;" horiz-adv-x="950" 
d="M381 556v-377q0 -27 -4 -53t-16 -46q-12 -21 -35 -33.5t-61 -13.5v51q31 1 45.5 21.5t14.5 58.5v441h339v-565h-55v516h-228z" />
    <glyph glyph-name="uni043C" unicode="&#x43c;" horiz-adv-x="950" 
d="M475 132l96 236t96 237h50v-565h-53v354q-1 11 -1.5 22.5t-1.5 23.5q-42 -101 -84.5 -200.5t-84.5 -199.5h-34q-43 100 -85 199.5t-85 200.5q-1 -12 -1.5 -23.5t-1.5 -22.5v-354h-53v565h50q49 -119 96.5 -237t96.5 -236z" />
    <glyph glyph-name="uni043D" unicode="&#x43d;" horiz-adv-x="950" 
d="M621 312h-293v-273h-55v565h55v-243h293v243h55v-565h-55v273z" />
    <glyph glyph-name="uni043E" unicode="&#x43e;" horiz-adv-x="950" 
d="M474 623q59 0 105 -24.5t78 -65.5q31 -42 47.5 -95.5t16.5 -111.5t-16 -111.5t-47 -94.5q-32 -42 -78 -66.5t-106 -24.5t-106.5 24.5t-77.5 65.5q-32 41 -48 94.5t-16 112.5t16 112.5t48 94.5q31 41 77.5 65.5t106.5 24.5zM474 571q-44 0 -79.5 -21t-60.5 -55t-38 -78.5
t-13 -90.5q0 -48 13 -92t38 -78q24 -34 59.5 -54.5t80.5 -20.5t80.5 21t60.5 56q24 34 36.5 78t12.5 90t-13 90t-37 79q-25 34 -60 55t-80 21z" />
    <glyph glyph-name="uni043F" unicode="&#x43f;" horiz-adv-x="950" 
d="M326 556v-516h-55v565h406v-565h-55v516h-296z" />
    <glyph glyph-name="uni0440" unicode="&#x440;" horiz-adv-x="950" 
d="M484 75q-63 0 -110 27.5t-78 76.5h-3v-243h-55v684h55v-85q1 0 1.5 -0.5t1.5 -0.5q31 49 78 77t110 28q57 0 100.5 -23.5t73.5 -62.5q29 -39 44.5 -90.5t15.5 -106.5q0 -54 -15 -104.5t-45 -89.5t-73.5 -63t-100.5 -24zM477 590q-44 0 -78.5 -20.5t-57.5 -53.5
q-24 -33 -36 -75t-12 -85q0 -44 11.5 -85.5t34.5 -73.5q23 -33 57.5 -53t80.5 -20q45 0 79 20t57 53q23 32 35 73.5t12 85.5q0 43 -12 85t-35 75q-24 33 -58 53.5t-78 20.5z" />
    <glyph glyph-name="uni0441" unicode="&#x441;" horiz-adv-x="950" 
d="M717 210q-11 -38 -30.5 -71t-48.5 -57q-29 -25 -67.5 -39t-85.5 -14q-59 0 -105.5 24.5t-78.5 65.5t-48.5 94.5t-16.5 112.5t17 112.5t49 94.5t78 65.5t105 24.5q48 0 88 -17t70 -44t49 -61.5t25 -69.5h-58q-6 24 -20 49t-35 45q-22 20 -51.5 33t-67.5 13
q-45 0 -81 -20.5t-61 -53.5q-25 -34 -38 -78.5t-13 -92.5t12.5 -92t37.5 -78q24 -34 60 -54.5t83 -20.5q65 0 109.5 36t63.5 93h59z" />
    <glyph glyph-name="uni0442" unicode="&#x442;" horiz-adv-x="950" 
d="M447 556h-188v49h432v-49h-188v-516h-56v516z" />
    <glyph glyph-name="uni0443" unicode="&#x443;" horiz-adv-x="950" 
d="M289 671q47 -119 93 -236.5t94 -235.5l94 236l94 236h59q-66 -165 -130 -327.5t-130 -327.5q-8 -25 -18.5 -43t-24.5 -30q-15 -11 -34.5 -16.5t-46.5 -5.5h-21v48h37q20 0 30.5 15t18.5 35l42 105q-54 137 -108.5 273.5t-108.5 273.5h60v0z" />
    <glyph glyph-name="uni0444" unicode="&#x444;" horiz-adv-x="950" 
d="M284 645q-42 0 -73 -20t-51 -53q-21 -33 -31 -75.5t-10 -86.5q0 -45 10.5 -87.5t31.5 -75.5q20 -33 51 -52.5t72 -19.5t71.5 20t50.5 53q20 32 30 74.5t10 87.5t-10 87.5t-30 75.5q-21 32 -51.5 52t-70.5 20zM666 645q-42 0 -72.5 -20.5t-50.5 -53.5t-29.5 -75t-9.5 -86
q0 -46 10 -88.5t30 -74.5q20 -33 50.5 -52.5t71.5 -19.5t72 19.5t52 52.5q20 33 30.5 75.5t10.5 87.5t-10.5 87t-30.5 75q-21 33 -52 53t-72 20zM447 908h56v-307q1 0 1 -0.5t1 -0.5q27 41 67.5 67t93.5 26q51 0 92 -24t69 -64t43 -90.5t15 -104.5t-15 -105.5t-43 -90.5
q-29 -40 -69.5 -64t-91.5 -24t-92.5 28t-70.5 71v-301h-56v293q-32 -42 -73 -66.5t-90 -24.5q-51 0 -92 26.5t-69 68.5q-29 41 -44 91.5t-15 97.5q0 49 15 99t44 91q28 41 68.5 67t92.5 26q51 0 91 -24.5t72 -67.5v307z" />
    <glyph glyph-name="uni0445" unicode="&#x445;" horiz-adv-x="950" 
d="M475 279q-11 -15 -36 -48.5t-53 -70.5q-28 -38 -53 -71.5t-36 -48.5h-67l210 284q-8 11 -24 32.5t-35 48.5q-20 26 -41.5 55t-40.5 56q-20 26 -36 47t-24 32h67l169 -227q7 10 20 28t30 40q16 22 34 46t35 46q16 22 29.5 39.5t20.5 27.5h67l-204 -271q9 -12 26 -34
t38 -50q20 -28 43 -58t44 -58q20 -28 36.5 -50l25.5 -34h-68z" />
    <glyph glyph-name="uni0446" unicode="&#x446;" horiz-adv-x="950" 
d="M332 92h287v517h55v-518h66v-143h-57v96h-407v565h56v-517z" />
    <glyph glyph-name="uni0447" unicode="&#x447;" horiz-adv-x="950" 
d="M691 40h-56v238q-26 -36 -69 -59.5t-106 -23.5q-35 0 -70 11.5t-63 35.5q-28 23 -46 58t-18 82v223h57v-205q0 -44 12.5 -73.5t34.5 -47.5q21 -18 49 -25.5t60 -7.5q27 0 55 11.5t51 31.5q22 19 37 43t16 50v223h56v-565z" />
    <glyph glyph-name="uni0448" unicode="&#x448;" horiz-adv-x="950" 
d="M664 88v516h56v-565h-491v565h55v-516h162v516h57v-516h161z" />
    <glyph glyph-name="uni0449" unicode="&#x449;" horiz-adv-x="950" 
d="M254 47v565h54v-516h163v516h56v-516h162v516h56v-516h56v-142h-57v93h-490z" />
    <glyph glyph-name="uni044A" unicode="&#x44a;" horiz-adv-x="950" 
d="M387 89h155q35 0 58 17v-1q43 8 71 35t28 81q0 34 -13.5 58.5t-35.5 40.5t-50 23.5t-57 8.5h-156v-263zM330 40v516h-148v49h205v-205h160q48 0 86 -13.5t65 -37.5t41.5 -57t14.5 -72q0 -43 -16.5 -76.5t-43.5 -56.5q-28 -23 -64 -35t-75 -12h-225z" />
    <glyph glyph-name="uni044B" unicode="&#x44b;" horiz-adv-x="950" 
d="M238 89h161q37 0 66.5 10.5t49.5 28.5t30.5 42t10.5 51q0 28 -12.5 52t-33.5 42q-21 17 -49.5 27t-60.5 10h-162v-263zM238 605v-205h166q47 0 85.5 -13t65.5 -37t42 -57t15 -73q0 -42 -16 -75.5t-43 -56.5t-63.5 -35.5t-76.5 -12.5h-230v565h55zM688 605h55v-565h-55
v565z" />
    <glyph glyph-name="uni044C" unicode="&#x44c;" horiz-adv-x="950" 
d="M323 89h161q37 0 66 10.5t49 28.5q19 18 29.5 42t10.5 51q0 28 -12.5 52t-33.5 42q-21 17 -49 27t-59 10h-162v-263zM323 605v-205h166q47 0 85 -13.5t65 -37.5q27 -25 42 -58t15 -72q0 -43 -16 -76t-43 -56q-28 -23 -64.5 -35t-76.5 -12h-230v565h57z" />
    <glyph glyph-name="uni044D" unicode="&#x44d;" horiz-adv-x="950" 
d="M452 307v48h209q-5 47 -18.5 89t-37.5 73t-57.5 49t-78.5 18q-30 0 -58 -11.5t-51 -30.5q-24 -20 -42 -46t-27 -54h-58q26 86 87 138.5t148 52.5q60 0 106.5 -24t78.5 -65q32 -42 48.5 -97t16.5 -116q0 -62 -16.5 -117t-48.5 -96t-78.5 -65t-106.5 -24q-88 0 -148.5 50.5
t-85.5 139.5h64q7 -31 23.5 -56t39.5 -42q22 -17 49.5 -26.5t56.5 -9.5q45 0 79.5 16.5t58.5 46.5t37.5 70.5t17.5 88.5h-208z" />
    <glyph glyph-name="uni044E" unicode="&#x44e;" horiz-adv-x="950" 
d="M567 566q-46 0 -81.5 -21t-59.5 -55q-25 -35 -38 -79t-13 -90q0 -47 12.5 -91t37.5 -78q24 -34 60 -54.5t82 -20.5q45 0 80 21t60 56q24 34 37 77.5t13 89.5t-13 90.5t-37 78.5q-25 34 -60 55t-80 21zM215 351h105q4 55 22.5 103.5t50.5 85.5q31 36 75 57t99 21
q59 0 105 -24.5t78 -65.5q31 -41 47.5 -95t16.5 -112t-16.5 -111.5t-47.5 -94.5q-32 -41 -78 -65.5t-105 -24.5q-56 0 -100.5 22t-75.5 60q-32 38 -50.5 88.5t-21.5 107.5h-104v-263h-56v565h56v-254z" />
    <glyph glyph-name="uni044F" unicode="&#x44f;" horiz-adv-x="950" 
d="M223 40q39 61 78 121t78 121q-54 17 -87 57.5t-33 99.5q0 38 14.5 68.5t39.5 52.5q25 21 58 32.5t71 12.5h213v-565h-56v234h-166q-36 -58 -74 -117.5t-74 -116.5h-62zM599 321v235h-135q-70 0 -109.5 -28t-39.5 -90q0 -35 12 -57.5t33 -35.5q20 -13 47 -18t57 -6h135z
" />
    <glyph glyph-name="uni0451" unicode="&#x451;" horiz-adv-x="950" 
d="M378 767q19 0 33 -14.5t14 -34.5t-14 -34t-33 -14q-18 0 -31.5 14t-13.5 34t13.5 34.5t31.5 14.5zM571 767q19 0 33 -14.5t14 -34.5t-14 -34t-33 -14q-18 0 -32 14t-14 34t14 34.5t32 14.5zM475 631q54 0 100 -21.5t81 -60.5q34 -39 53.5 -92.5t19.5 -117.5v-21h-439
q0 -45 14.5 -86.5t39.5 -72.5q25 -32 58.5 -50.5t72.5 -18.5q70 0 110.5 33.5t55.5 84.5h72q-13 -37 -32.5 -70t-47.5 -58t-66 -39.5t-87 -14.5q-60 0 -108 25t-81 67q-34 42 -52 96.5t-18 113.5t17 114t50 97t80 67t107 25zM658 378q-4 40 -19.5 75t-40.5 61
q-25 25 -56.5 39.5t-66.5 14.5q-34 0 -65.5 -14.5t-56.5 -39.5q-25 -26 -41 -61t-19 -75h365z" />
    <glyph glyph-name="uni2015" unicode="&#x2015;" horiz-adv-x="950" 
d="M943 440v-48h-936v48h936z" />
    <glyph glyph-name="quoteleft" unicode="&#x2018;" horiz-adv-x="240" 
d="M184 661h-88v67q0 23 2 46t10 37q5 8 12 16t18 13l23 -13l-12.5 -10t-11.5 -11q-5 -6 -7 -14.5t-3 -17.5q-1 -10 -1 -19.5v-15.5h58v-78z" />
    <glyph glyph-name="quoteright" unicode="&#x2019;" horiz-adv-x="240" 
d="M56 840h88v-67q0 -23 -2 -46t-10 -37q-5 -8 -12 -16t-18 -13l-23 13l12.5 10t11.5 11q4 6 6.5 14.5t3.5 18.5q1 9 1 18.5v15.5h-58v78z" />
    <glyph glyph-name="quotedblleft" unicode="&#x201c;" horiz-adv-x="330" 
d="M149 661h-88v67q0 23 2 46t10 37q5 8 12 16t18 13l23 -13l-12.5 -10t-11.5 -11q-5 -6 -7 -14.5t-3 -17.5q-1 -10 -1 -19.5v-15.5h58v-78zM289 661h-88v67q0 23 2 46t10 37q5 8 12 16t18 13l23 -13l-12.5 -10t-11.5 -11q-5 -6 -7 -14.5t-3 -17.5q-1 -10 -1 -19.5v-15.5h58
v-78z" />
    <glyph glyph-name="quotedblright" unicode="&#x201d;" horiz-adv-x="330" 
d="M41 840h88v-67q0 -23 -2 -46t-10 -37q-5 -8 -12 -16t-18 -13l-23 13l12.5 10t11.5 11q4 6 6.5 14.5t3.5 18.5q1 9 1 18.5v15.5h-58v78zM181 840h88v-67q0 -23 -2 -46t-10 -37q-5 -8 -12 -16t-18 -13l-23 13l12.5 10t11.5 11q4 6 6.5 14.5t3.5 18.5q1 9 1 18.5v15.5h-58
v78z" />
    <glyph glyph-name="dagger" unicode="&#x2020;" horiz-adv-x="950" 
d="M514 792q0 -10 -2.5 -24t-5.5 -30q-4 -17 -6.5 -34t-2.5 -32l2 -2q29 2 63.5 12t66.5 10q57 0 57 -44q0 -23 -17 -34.5t-43 -11.5q-15 0 -32 3.5t-33 8.5q-17 4 -33.5 7.5t-29.5 3.5q0 -16 3.5 -34t10.5 -34q6 -16 14 -29t17 -20q-14 -14 -22.5 -40.5t-13.5 -63.5
q-6 -37 -8 -81.5t-2 -93.5v-110v-58q0 -59 -6 -85.5t-16 -26.5q-8 0 -12.5 8t-6.5 27q-3 20 -3.5 52t-0.5 80q0 26 0.5 54.5t0.5 59.5v37q0 47 -3 88.5t-9 73.5t-15 52.5t-22 26.5q23 19 35 51.5t14 65.5q-15 0 -31.5 -3.5t-32.5 -7.5q-17 -5 -33.5 -8.5t-32.5 -3.5
q-60 0 -60 46q0 44 58 44q15 0 31.5 -3t33.5 -7t34 -7.5t32 -4.5q0 17 -3.5 35.5t-6.5 37.5q-4 18 -7.5 35.5t-3.5 34.5q0 31 9.5 53t34.5 22q22 0 32 -18.5t10 -47.5q0 -8 -1 -15t-2 -15z" />
    <glyph glyph-name="daggerdbl" unicode="&#x2021;" horiz-adv-x="950" 
d="M452 635q-14 0 -29.5 -3.5t-31.5 -7.5q-16 -5 -31 -8.5t-29 -3.5q-20 0 -34 5t-14 23q-14 9 -14 23q0 21 16.5 29t42.5 8q13 0 28.5 -3t32.5 -7q16 -4 32.5 -7t30.5 -4q-4 37 -12 76t-8 72q0 30 12.5 45.5t30.5 15.5q41 0 41 -68q0 -32 -8 -70.5t-10 -70.5q13 1 29 4
t32 7t32 7t29 3q25 0 42.5 -7.5t17.5 -27.5q0 -17 -14 -25q0 -17 -14 -22t-34 -5q-14 0 -29.5 3.5t-31.5 7.5t-31.5 7.5t-27.5 3.5v-94q13 1 28.5 5t32.5 8l32 6t29 3q26 0 43 -8t17 -27q0 -18 -14 -26q0 -16 -13 -21.5t-33 -5.5q-14 0 -29 3.5t-30 7.5t-30 7.5t-28 3.5
q-6 0 -5.5 -3t0.5 -7q0 -35 14.5 -61t25.5 -40q-23 -32 -32.5 -91t-9.5 -128v-121q0 -97 -21 -97q-11 0 -16.5 24.5t-5.5 78.5v115q0 34 -2 66t-7 61q-5 28 -13 51.5t-21 40.5q39 39 42 111q-15 0 -30.5 -3.5t-31.5 -7.5t-32 -7.5t-30 -3.5q-22 0 -40.5 14t-18.5 37
q0 20 16.5 28.5t42.5 8.5q13 0 29 -3t33 -7q16 -4 32 -7.5t30 -4.5v94z" />
    <glyph glyph-name="twodotenleader" unicode="&#x2025;" horiz-adv-x="950" 
d="M761 464v-96h-94v96h94zM283 464v-96h-94v96h94z" />
    <glyph glyph-name="ellipsis" unicode="&#x2026;" horiz-adv-x="950" 
d="M816 464v-96h-92v96h92zM522 464v-96h-93v96h93zM226 464v-96h-92v96h92z" />
    <glyph glyph-name="perthousand" unicode="&#x2030;" horiz-adv-x="950" 
d="M79 34q135 192 269 381t269 381h54q-135 -191 -270 -381.5t-270 -380.5h-52zM291 792q43 0 68.5 -30t25.5 -79q0 -37 -15 -76.5t-40 -71.5q-26 -32 -59.5 -53t-70.5 -21q-44 0 -69 30.5t-25 81.5q1 36 16.5 74.5t41.5 71.5q26 32 59 52.5t68 20.5zM337 677q0 3 0.5 6
t0.5 5q0 23 -11 39t-37 16q-16 0 -32 -8q-23 -12 -42.5 -35t-33.5 -48q-14 -26 -21.5 -49.5t-7.5 -37.5q0 -24 11 -40t36 -16q19 0 42.5 15t44.5 39q20 24 34.5 54t15.5 60zM498 371q42 0 67.5 -30t25.5 -79q0 -36 -14.5 -75t-39.5 -71q-25 -33 -59 -54t-73 -21
q-43 0 -68 30t-25 81q0 37 16.5 76t42.5 71t59.5 52t67.5 20zM404 89q27 0 52.5 18.5t45.5 45.5q19 27 30.5 58t11.5 56q0 23 -11 39t-37 16q-8 0 -15.5 -1t-16.5 -6q-24 -12 -43.5 -35.5t-32.5 -49.5q-14 -26 -21.5 -49.5t-7.5 -36.5q0 -23 10.5 -39t34.5 -16zM783 370
q43 0 67.5 -29.5t24.5 -78.5q0 -36 -15 -75.5t-40 -71.5q-25 -33 -59 -54t-71 -21q-44 0 -68.5 30.5t-24.5 81.5q0 33 16 71.5t42 71.5q26 32 59.5 53.5t68.5 21.5zM828 255q1 11 -0.5 23t-6.5 22q-5 9 -14.5 15t-24.5 6q-20 0 -44.5 -17t-45.5 -43q-21 -27 -35 -58.5
t-14 -59.5q0 -22 10 -38t35 -16q20 0 43 14.5t44 38.5q20 23 35 53t18 60z" />
    <glyph glyph-name="minute" unicode="&#x2032;" horiz-adv-x="950" 
d="M219 891l-165 -267l-17 8l89 259h93z" />
    <glyph glyph-name="second" unicode="&#x2033;" horiz-adv-x="950" 
d="M219 891l-165 -267l-17 8l89 259h93zM357 891l-171 -266l-13 5l91 261h93z" />
    <glyph glyph-name="uni203B" unicode="&#x203b;" horiz-adv-x="950" 
d="M695 469q22 0 37.5 -15t15.5 -38t-15 -38.5t-38 -15.5q-20 0 -35 15.5t-15 37.5q0 21 14 37.5t36 16.5zM254 469q20 0 35.5 -15t15.5 -38t-14.5 -38.5t-36.5 -15.5q-21 0 -36.5 15.5t-15.5 37.5q0 21 14.5 37.5t37.5 16.5zM475 702q20 0 35.5 -16t15.5 -37q0 -23 -14 -39
t-37 -16q-20 0 -36 16t-16 39q0 21 14.5 37t37.5 16zM475 236q20 0 35.5 -15.5t15.5 -36.5q0 -23 -14 -39t-37 -16q-20 0 -36 15.5t-16 38.5q0 21 14.5 37t37.5 16zM758 676l-246 -260q62 -66 122.5 -130.5t123.5 -130.5q-2 -2 -7 -7.5t-11 -11.5t-11 -11.5t-7 -7.5
l-247 259q-11 -11 -30 -31.5t-43 -45.5t-50.5 -52t-50.5 -52t-43.5 -45.5t-29.5 -31.5l-7.5 7.5t-10.5 11.5l-11.5 11.5l-7.5 7.5l247 260q-10 11 -29.5 31.5t-43.5 45.5t-50.5 53t-50.5 53t-43.5 45.5t-29.5 31.5l7.5 7.5l11.5 11.5q5 6 10.5 11.5l7.5 7.5l247 -259
q10 11 29.5 31.5t43.5 45.5t50.5 53t50.5 53t43 45.5t30 31.5z" />
    <glyph glyph-name="uni2074" unicode="&#x2074;" horiz-adv-x="950" 
d="M128 643v46q8 12 27.5 39t41.5 57t41.5 57t27.5 39h44v-196h44v-42h-44v-53h-45v53h-137zM265 803l-87 -118h87v118z" />
    <glyph glyph-name="uni207F" unicode="&#x207f;" horiz-adv-x="969" 
d="M121 879h38v-30q1 0 1 -0.5t1 -0.5q11 14 33 27t56 13q22 0 39 -9t29 -23q12 -15 18.5 -32.5t7.5 -34.5v-198h-39v178q0 17 -3 32t-11 26t-21 17.5t-34 6.5q-15 0 -28.5 -7t-23.5 -19q-11 -12 -17 -27.5t-6 -32.5v-174h-40v288z" />
    <glyph glyph-name="uni2081" unicode="&#x2081;" horiz-adv-x="950" 
d="M212 -19v202h-62v39q11 0 22.5 2t21.5 8q10 5 16.5 15t8.5 25h37v-291h-44z" />
    <glyph glyph-name="uni2082" unicode="&#x2082;" horiz-adv-x="950" 
d="M250 80q-28 -19 -42.5 -31t-20.5 -25h148v-43h-207q1 35 17.5 61.5t50.5 51.5q13 10 29 20.5t29 21.5t22 24t9 29q0 22 -12.5 35t-36.5 13q-29 0 -40 -18t-12 -40h-48q1 19 7.5 37t19.5 32t31.5 22.5t42.5 8.5q50 0 73 -27.5t23 -62.5q0 -24 -10.5 -42.5t-23.5 -31.5
q-14 -13 -28 -21.5t-21 -13.5z" />
    <glyph glyph-name="uni2083" unicode="&#x2083;" horiz-adv-x="950" 
d="M179 78q0 -20 14 -38.5t44 -18.5q26 0 40 14t14 35q0 13 -6 22t-15 14q-10 4 -21.5 6t-22.5 2h-15v21t1 21h14q28 0 42.5 12.5t14.5 32.5q0 13 -10.5 24t-30.5 11q-26 0 -41.5 -14t-16.5 -31h-45q1 43 29 67.5t68 24.5q19 0 36.5 -6.5t30.5 -17.5q13 -12 20.5 -27
t7.5 -31q0 -28 -12.5 -43t-23.5 -21q20 -12 32.5 -29t12.5 -40q0 -38 -27.5 -64t-75.5 -26q-23 0 -42 8t-33 22q-15 14 -23 32t-8 38h48z" />
    <glyph glyph-name="uni2084" unicode="&#x2084;" horiz-adv-x="950" 
d="M129 34v46q8 12 27.5 39t41.5 57t41.5 57t27.5 39h44v-196h44v-42h-44v-53h-45v53h-137zM266 194l-87 -118h87v118z" />
    <glyph glyph-name="Euro" unicode="&#x20ac;" horiz-adv-x="950" 
d="M388 595h-115v79q54 19 105.5 37.5t105.5 36.5h28q20 0 37 -7t17 -30v-4v-492q0 -24 15.5 -31t34.5 -11q18 -4 33.5 -11t15.5 -30v-50h-376v50q0 23 15.5 30.5t34.5 11.5q18 3 33.5 10.5t15.5 30.5v380zM762 888q46 0 77 -12t50 -33t27 -48.5t8 -57.5v-624
q0 -50 -14 -82.5t-35 -52.5q-22 -19 -48 -26.5t-50 -7.5h-605q-27 0 -53.5 8t-46.5 27q-21 20 -34 52.5t-13 81.5v624q0 151 162 151h575zM779 -14q22 0 41.5 9.5t33.5 24.5q13 16 21 37t8 44v633q0 21 -8 41.5t-22 36.5q-15 15 -35 24.5t-43 9.5h-601q-25 0 -45 -9t-34 -24
q-14 -16 -21.5 -36.5t-7.5 -42.5v-633q0 -23 6 -44t19 -37q12 -16 32 -25t48 -9h608z" />
    <glyph glyph-name="uni2103" unicode="&#x2103;" horiz-adv-x="950" 
d="M849 245q-11 -47 -34.5 -89.5t-58.5 -74.5q-36 -32 -83 -51t-104 -19q-70 0 -125 28t-93 77q-38 48 -58 112.5t-20 138.5t20 139t58 114q37 48 92 76t126 28q60 0 107.5 -19t82.5 -50q34 -31 56 -70t33 -78h-59q-11 33 -31 62.5t-48 52.5q-29 22 -65 35.5t-80 13.5
q-56 0 -99.5 -23.5t-73.5 -64.5q-30 -42 -45.5 -97.5t-15.5 -118.5q0 -62 15 -117t45 -96q29 -41 73 -65.5t101 -24.5q43 0 81 16t68 42t49.5 58t25.5 65h60zM201 840q22 0 42.5 -9.5t36.5 -25.5q15 -17 24 -38t9 -44q0 -22 -9 -43t-24 -37q-15 -17 -35.5 -27t-43.5 -10
t-43.5 9.5t-35.5 25.5t-23.5 37.5t-8.5 44.5t8 44t23 38q15 16 35.5 25.5t44.5 9.5zM201 790q-27 0 -45 -18.5t-18 -48.5q0 -29 18 -47.5t45 -18.5q28 0 45.5 18.5t17.5 47.5q0 30 -17.5 48.5t-45.5 18.5z" />
    <glyph glyph-name="uni2109" unicode="&#x2109;" horiz-adv-x="950" 
d="M353 714h450v-49h-394v-267h350v-45h-350v-313h-56v674zM201 840q23 0 43.5 -9.5t35.5 -25.5t24 -37.5t9 -44.5q0 -22 -8.5 -43t-23.5 -37q-15 -17 -35.5 -27t-44.5 -10q-23 0 -43 9.5t-35 26.5q-15 16 -24 37t-9 44q0 22 8.5 43.5t23.5 37.5q14 16 34.5 26t44.5 10z
M201 789q-26 0 -43.5 -18.5t-17.5 -47.5t17.5 -47t43.5 -18q28 0 45.5 18t17.5 47t-17.5 47.5t-45.5 18.5z" />
    <glyph glyph-name="uni2113" unicode="&#x2113;" horiz-adv-x="950" 
d="M283 781q-27 0 -47 -34.5t-33 -83.5q-14 -49 -21 -101.5t-7 -88.5q0 -96 11 -169t31 -125q31 27 55.5 70.5t41.5 96.5q17 52 26 109.5t9 112.5q0 22 -2.5 58.5t-9.5 70.5q-8 34 -21 59t-33 25zM289 840q24 0 41 -16t30 -42q12 -26 19.5 -58.5t11.5 -64.5q4 -33 5.5 -62.5
t1.5 -49.5q0 -62 -12 -124.5t-33 -118.5q-21 -57 -49.5 -102t-61.5 -71q20 -32 39 -45t36 -13q16 0 31 9.5t27 24.5q12 14 21.5 32.5t15.5 36.5q5 -4 16 -16t25 -24q-23 -54 -59.5 -85t-82.5 -31q-65 0 -116 88q-24 -7 -54.5 -13.5t-55.5 -6.5q-3 9 -4.5 15t-2.5 11
q-2 5 -3 10.5t-4 15.5q17 0 46.5 3t53.5 13q-25 65 -36.5 133.5t-11.5 141.5q0 66 11 138t32 132q21 59 52 98t71 41z" />
    <glyph glyph-name="uni2116" unicode="&#x2116;" horiz-adv-x="950" 
d="M385 69q-76 152 -151.5 303.5t-152.5 303.5h-2v-607h-44v695h51q77 -152 152.5 -303l151.5 -303h3v606h43v-695h-51zM657 543q45 0 80 -20t59 -54t36 -77.5t12 -90.5q0 -45 -12 -88.5t-35 -77.5q-24 -34 -59 -54.5t-81 -20.5t-81 20.5t-58 54.5q-24 33 -36 76.5t-12 89.5
t12 89.5t35 77.5t58 54.5t82 20.5zM657 499q-35 0 -61.5 -17.5t-44.5 -45.5t-27 -63.5t-9 -71.5t9 -71t27 -63t44.5 -45t61.5 -17t61.5 17.5t44.5 45.5q18 27 27 62t9 71q0 35 -9 70.5t-27 64.5q-18 28 -44.5 45.5t-61.5 17.5zM869 155q20 0 35 -16t15 -36t-15 -35t-35 -15
t-35.5 15t-15.5 35t15.5 36t35.5 16z" />
    <glyph glyph-name="uni2121" unicode="&#x2121;" horiz-adv-x="950" 
d="M245 716h-209v44h465v-44h-207v-647h-49v647zM568 545q45 0 83.5 -18.5t67.5 -50.5q28 -33 44 -78t16 -98v-13h-359q0 -38 12.5 -71t33.5 -57t47.5 -38t54.5 -14q55 0 88 27t45 69h65q-11 -32 -27.5 -60t-40.5 -48q-24 -21 -56 -32.5t-74 -11.5q-49 1 -88 21.5t-66 54.5
q-27 33 -41.5 77.5t-14.5 93.5q0 48 15 93t43 79q27 34 65.5 54.5t86.5 20.5zM714 340q-2 31 -15 58.5t-33 47.5t-45.5 32t-52.5 12t-52 -11.5t-44 -31.5q-20 -20 -33 -47.5t-16 -59.5h291zM842 761h51v-691h-51v691z" />
    <glyph glyph-name="trademark" unicode="&#x2122;" horiz-adv-x="950" 
d="M174 738h-81v45h226v-45h-93v-312h-52v312zM494 783h68v-362h-54v182q-4 -14 -10.5 -39t-12.5 -52q-7 -27 -13 -52t-9 -39h-52l-45 182v-182h-54v362h69l56 -229z" />
    <glyph glyph-name="Omega" unicode="&#x2126;" horiz-adv-x="950" 
d="M410 180q0 22 8.5 27.5t14.5 6.5q45 8 76.5 36t51.5 67q19 38 28 81.5t9 83.5q0 56 -16 105.5t-45 87.5q-29 37 -70 58.5t-92 21.5q-50 0 -90.5 -22.5t-69.5 -60.5t-45 -87.5t-16 -103.5q0 -51 9.5 -95.5t30.5 -79.5q20 -36 53 -59.5t80 -32.5q4 -1 13 -6t9 -23v-5v-96
q0 -17 -6 -30t-28 -13h-135v48h123v79q-48 13 -85.5 43t-62.5 72q-26 42 -39 92.5t-13 104.5q0 64 21 122.5t58 103.5q36 44 85.5 70.5t107.5 26.5q60 0 110.5 -26t87.5 -70q36 -44 56.5 -102.5t20.5 -122.5q0 -53 -12 -101.5t-36 -88.5q-24 -41 -60.5 -72.5t-85.5 -50.5
v-80h122v-48h-132q-23 0 -29.5 12t-6.5 29v98z" />
    <glyph glyph-name="uni212B" unicode="&#x212b;" horiz-adv-x="950" 
d="M475 841q-26 0 -43 -17.5t-17 -45.5q0 -29 17 -46.5t43 -17.5t43 17.5t17 46.5q0 28 -17 45.5t-43 17.5zM475 895q24 0 44 -10t35 -26q15 -17 23.5 -38t8.5 -43q0 -24 -8.5 -45t-23.5 -37t-35.5 -25.5t-43.5 -9.5q-24 0 -44.5 9.5t-34.5 25.5q-15 16 -23.5 37.5
t-8.5 44.5q0 22 8.5 43.5t23.5 37.5q14 16 34.5 26t44.5 10zM696 32q-18 43 -34.5 85t-34.5 85h-301q-17 -43 -34.5 -85t-34.5 -85h-57q64 152 127 299.5t127 299.5h45q63 -151 126 -299.5t126 -299.5h-55zM476 555q-32 -76 -65 -151.5t-65 -151.5h259z" />
    <glyph glyph-name="onethird" unicode="&#x2153;" horiz-adv-x="950" 
d="M137 440h676v-49h-676v49zM460 470v292h-90v48q23 -2 42.5 3.5t33.5 16.5q14 10 22.5 23.5t8.5 28.5h39v-412h-56zM320 64q14 0 28.5 -0.5t28.5 -0.5q0 -41 24 -68t74 -27q44 0 69 24t25 62q0 34 -26.5 53.5t-61.5 19.5h-15h-29v45q54 0 86 19.5t32 59.5q0 29 -21.5 49
t-60.5 20q-24 0 -40.5 -7t-26.5 -19t-14 -27t-4 -30q-8 0 -19 -0.5t-38 -0.5v10q0 31 12.5 54t33.5 38q20 15 45.5 22.5t52.5 7.5q28 0 53.5 -8.5t45.5 -24.5q19 -16 31 -37.5t12 -48.5q0 -36 -16 -58.5t-41 -37.5q29 -16 49.5 -41t20.5 -59q0 -59 -41.5 -96t-112.5 -37
q-32 0 -60.5 10t-49.5 28t-33.5 43.5t-12.5 55.5v7z" />
    <glyph glyph-name="twothirds" unicode="&#x2154;" horiz-adv-x="950" 
d="M137 440h676v-49h-676v49zM531 642q-19 -12 -38 -23.5t-38 -23.5q-7 -5 -17 -13t-19 -18q-10 -11 -17.5 -22.5t-9.5 -22.5h226v-49h-296q1 22 9 47t22 48t33 43t43 33q34 21 58.5 37.5t41.5 32.5q16 15 24 31t8 37q0 37 -21 58t-62 21q-48 0 -68.5 -28t-22.5 -66h-55
q1 27 10.5 53t27.5 47q18 20 45.5 32t63.5 12q35 0 61 -10.5t44 -28.5q17 -18 25.5 -41.5t8.5 -50.5q0 -25 -7.5 -45t-19.5 -36q-13 -17 -28.5 -30.5t-31.5 -24.5v1zM320 64q14 0 28.5 -0.5t28.5 -0.5q0 -41 24 -68t74 -27q44 0 69 24t25 62q0 34 -26.5 53.5t-61.5 19.5h-15
h-29v45q54 0 86 19.5t32 59.5q0 29 -21.5 49t-60.5 20q-24 0 -40.5 -7t-26.5 -19t-14 -27t-4 -30q-8 0 -19 -0.5t-38 -0.5v10q0 31 12.5 54t33.5 38q20 15 45.5 22.5t52.5 7.5q28 0 53.5 -8.5t45.5 -24.5q19 -16 31 -37.5t12 -48.5q0 -36 -16 -58.5t-41 -37.5
q29 -16 49.5 -41t20.5 -59q0 -59 -41.5 -96t-112.5 -37q-32 0 -60.5 10t-49.5 28t-33.5 43.5t-12.5 55.5v7z" />
    <glyph glyph-name="oneeighth" unicode="&#x215b;" horiz-adv-x="950" 
d="M137 440h676v-49h-676v49zM625 246q0 -25 -11.5 -51.5t-38.5 -40.5q30 -18 47.5 -43t17.5 -63q0 -31 -12.5 -55.5t-33.5 -41.5q-22 -17 -52 -26t-66 -9q-35 0 -64.5 9.5t-51.5 26.5q-23 17 -35.5 41.5t-12.5 54.5q0 73 69 105q-26 17 -40 42t-14 51q0 57 41 88.5
t108 31.5q66 0 107.5 -31.5t41.5 -88.5zM476 132q-51 0 -78.5 -23.5t-27.5 -60.5q0 -34 27.5 -58t78.5 -24t78 24t27 58q0 37 -27 60.5t-78 23.5zM476 317q-46 0 -67.5 -20t-21.5 -50q0 -28 21.5 -48.5t67.5 -20.5q45 0 67.5 20.5t22.5 48.5q0 30 -22.5 50t-67.5 20z
M460 470v292h-90v48q45 2 73 16.5t30 55.5h43v-412h-56z" />
    <glyph glyph-name="threeeighths" unicode="&#x215c;" horiz-adv-x="950" 
d="M137 440h676v-48h-676v48zM476 132q-51 0 -78.5 -23.5t-27.5 -60.5q0 -34 27.5 -58t78.5 -24t78 24t27 58q0 37 -27 60.5t-78 23.5zM476 317q-46 0 -67.5 -20t-21.5 -50q0 -28 21.5 -48.5t67.5 -20.5q45 0 67.5 20.5t22.5 48.5q0 30 -22.5 50t-67.5 20zM321 610
q14 0 28 -0.5t28 -0.5q0 -40 23 -67.5t74 -27.5q45 0 69 24t24 62q0 19 -8.5 33t-22.5 23t-32.5 13.5t-38.5 4.5q-5 0 -12 -0.5t-16 -0.5v46h20q46 3 71.5 23t25.5 55q0 30 -21.5 49.5t-60.5 19.5q-24 0 -40 -7t-25 -19q-10 -12 -14.5 -26.5t-4.5 -29.5q-7 0 -18 -0.5
t-38 -0.5v9q0 30 11.5 53t31.5 39q19 15 45 23t54 8q27 0 52.5 -9t45.5 -24q19 -16 31 -38t12 -49q0 -36 -15.5 -56.5t-40.5 -39.5q29 -15 49 -40.5t20 -59.5q0 -59 -41.5 -96t-111.5 -37q-33 0 -61 10t-48 28q-21 18 -33 43t-12 55v8zM625 246q0 -25 -11.5 -51.5
t-38.5 -40.5q30 -18 47.5 -43t17.5 -63q0 -31 -12.5 -55.5t-33.5 -41.5q-22 -17 -52 -26t-66 -9q-35 0 -64.5 9.5t-51.5 26.5q-23 17 -35.5 41.5t-12.5 54.5q0 73 69 105q-26 17 -40 42t-14 51q0 57 41 88.5t108 31.5q66 0 107.5 -31.5t41.5 -88.5z" />
    <glyph glyph-name="fiveeighths" unicode="&#x215d;" horiz-adv-x="950" 
d="M137 440h676v-49h-676v49zM383 671q-15 -1 -30 -1t-30 -1q3 21 8 51.5t10 63.5t10.5 64t8.5 52h237v-48h-192q-5 -32 -10 -58.5t-10 -58.5q21 15 45 21.5t44 6.5q23 0 48 -9t46 -27q20 -18 33 -45.5t13 -64.5q0 -34 -12.5 -61.5t-33.5 -46.5q-21 -20 -48 -31t-55 -11
q-67 0 -106 35t-47 89q16 -2 31.5 -1.5t31.5 -0.5q3 -32 26.5 -54.5t65.5 -22.5q40 0 65.5 27.5t25.5 72.5q0 44 -23.5 73t-65.5 29q-29 0 -51 -12t-35 -31zM476 132q-51 0 -78.5 -23.5t-27.5 -60.5q0 -34 27.5 -58t78.5 -24t78 24t27 58q0 37 -27 60.5t-78 23.5zM476 317
q-46 0 -67.5 -20t-21.5 -50q0 -28 21.5 -48.5t67.5 -20.5q45 0 67.5 20.5t22.5 48.5q0 30 -22.5 50t-67.5 20zM625 246q0 -25 -11.5 -51.5t-38.5 -40.5q30 -18 47.5 -43t17.5 -63q0 -31 -12.5 -55.5t-33.5 -41.5q-22 -17 -52 -26t-66 -9q-35 0 -64.5 9.5t-51.5 26.5
q-23 17 -35.5 41.5t-12.5 54.5q0 73 69 105q-26 17 -40 42t-14 51q0 57 41 88.5t108 31.5q66 0 107.5 -31.5t41.5 -88.5z" />
    <glyph glyph-name="seveneighths" unicode="&#x215e;" horiz-adv-x="950" 
d="M137 440h676v-49h-676v49zM328 887h297v-45q-12 -15 -25 -32t-29 -40q-23 -33 -42 -71.5t-32 -77.5q-14 -40 -22 -78.5t-8 -72.5h-57q2 34 14.5 84.5t35.5 105.5q11 27 25.5 54t29.5 51q14 24 27.5 43t23.5 31h-238v48zM476 132q-51 0 -78.5 -23.5t-27.5 -60.5
q0 -34 27.5 -58t78.5 -24t78 24t27 58q0 37 -27 60.5t-78 23.5zM476 317q-46 0 -67.5 -20t-21.5 -50q0 -28 21.5 -48.5t67.5 -20.5q45 0 67.5 20.5t22.5 48.5q0 30 -22.5 50t-67.5 20zM625 246q0 -25 -11.5 -51.5t-38.5 -40.5q30 -18 47.5 -43t17.5 -63q0 -31 -12.5 -55.5
t-33.5 -41.5q-22 -17 -52 -26t-66 -9q-35 0 -64.5 9.5t-51.5 26.5q-23 17 -35.5 41.5t-12.5 54.5q0 73 69 105q-26 17 -40 42t-14 51q0 57 41 88.5t108 31.5q66 0 107.5 -31.5t41.5 -88.5z" />
    <glyph glyph-name="uni2160" unicode="&#x2160;" horiz-adv-x="950" 
d="M447 791h56v-750h-56v750z" />
    <glyph glyph-name="uni2161" unicode="&#x2161;" horiz-adv-x="950" 
d="M327 791h55v-750h-55v750zM568 791h55v-750h-55v750z" />
    <glyph glyph-name="uni2162" unicode="&#x2162;" horiz-adv-x="950" 
d="M280 791h56v-750h-56v750zM613 791h57v-750h-57v750zM448 791h56v-750h-56v750z" />
    <glyph glyph-name="uni2163" unicode="&#x2163;" horiz-adv-x="950" 
d="M188 791h56v-750h-56v750zM571 41h-54q-10 31 -28 90.5t-40 132.5q-22 72 -47 152t-47 153q-22 72 -40.5 131t-27.5 91h58l199 -673q8 29 24 82t35 118t40 136t40 136t34.5 118t24.5 83h59z" />
    <glyph glyph-name="uni2164" unicode="&#x2164;" horiz-adv-x="950" 
d="M506 41h-55q-12 31 -34.5 90t-49.5 132q-28 73 -58.5 152.5t-57.5 152.5q-28 73 -50.5 132t-34.5 91h59l254 -679q11 29 31 83t45 120q24 65 51 136.5t52 137.5q24 65 44 118.5t31 83.5h57z" />
    <glyph glyph-name="uni2165" unicode="&#x2165;" horiz-adv-x="950" 
d="M753 791v-750h-57v750h57zM369 41q-9 31 -27.5 90.5t-40.5 132.5q-22 72 -46.5 152t-46.5 153q-22 72 -40.5 131t-27.5 91h59l198 -673q8 29 24 82t35 118t40 136t40 136t34.5 118t24.5 83h58q-7 -24 -19 -63.5t-27 -89.5q-16 -50 -33.5 -107t-34.5 -115
q-18 -59 -35.5 -116t-32.5 -106q-16 -50 -28 -89.5t-19 -63.5h-55z" />
    <glyph glyph-name="uni2166" unicode="&#x2166;" horiz-adv-x="950" 
d="M660 791v-750h-56v750h56zM299 41q-51 189 -100 375t-100 375h58q42 -168 83 -334.5t89 -332.5q86 335 169 667h58q-51 -189 -100.5 -375t-100.5 -375h-56zM799 791v-750h-56v750h56z" />
    <glyph glyph-name="uni2167" unicode="&#x2167;" horiz-adv-x="950" 
d="M850 791v-750h-56v750h56zM590 791v-750h-55v750h55zM253 41q-48 189 -96 375t-96 375h57q37 -152 73 -301.5t73 -301.5l18 -63q40 168 80 333t80 333h57q-48 -190 -96 -375t-96 -375h-54zM721 791v-750h-56v750h56z" />
    <glyph glyph-name="uni2168" unicode="&#x2168;" horiz-adv-x="950" 
d="M570 427q11 -16 30.5 -46.5t43.5 -67.5q24 -38 51 -79t51 -78q24 -38 43.5 -68.5t30.5 -46.5h-60l-221 340q-9 -14 -26.5 -41t-38.5 -60q-22 -33 -45.5 -69t-44.5 -69q-22 -33 -39.5 -60t-26.5 -41h-61l251 386q-10 15 -28.5 44t-40.5 64q-23 35 -48.5 74t-47.5 74
q-23 35 -41.5 64t-28.5 44h60l206 -318q8 14 24.5 39t36.5 56q20 30 41.5 64t41.5 65q20 30 36 55t25 39h61zM160 791h56v-750h-56v750z" />
    <glyph glyph-name="uni2169" unicode="&#x2169;" horiz-adv-x="950" 
d="M505 427q10 -16 30 -46.5t45 -67.5q24 -38 50.5 -79t51.5 -78q24 -38 43.5 -68.5t30.5 -46.5h-61l-221 340q-10 -14 -27 -41t-38 -60q-22 -33 -45.5 -69t-44.5 -69q-22 -33 -39.5 -60t-26.5 -41h-61l250 386q-10 15 -28.5 44t-40.5 64q-23 35 -48 74t-48 74t-41.5 64
t-28.5 44h61l206 -318q9 14 25 39t36 56q20 30 42 64t42 65q20 30 36 55t25 39h60z" />
    <glyph glyph-name="uni2170" unicode="&#x2170;" horiz-adv-x="950" 
d="M502 41h-56v555h56v-555zM505 728h-65v68h65v-68z" />
    <glyph glyph-name="uni2171" unicode="&#x2171;" horiz-adv-x="950" 
d="M382 41h-55v555h55v-555zM386 729h-63v66h63v-66zM624 41h-55v555h55v-555zM628 729h-63v66h63v-66z" />
    <glyph glyph-name="uni2172" unicode="&#x2172;" horiz-adv-x="950" 
d="M336 41h-56v555h56v-555zM340 729h-64v66h64v-66zM671 41h-57v555h57v-555zM674 729h-64v66h64v-66zM504 41h-56v555h56v-555zM508 729h-64v66h64v-66z" />
    <glyph glyph-name="uni2173" unicode="&#x2173;" horiz-adv-x="950" 
d="M254 41h-56v555h56v-555zM258 728h-65v68h65v-68zM584 41h-53q-9 23 -27.5 66.5t-40.5 97.5t-47 113t-47 113t-40.5 98t-27.5 67h61l195 -471q8 21 23.5 58t34.5 83q19 45 40 94.5t40 95.5q19 45 34 82t24 58h62z" />
    <glyph glyph-name="uni2174" unicode="&#x2174;" horiz-adv-x="950" 
d="M501 38h-53q-10 23 -28 67t-40 98t-46.5 113t-46.5 113q-23 54 -41 97.5t-28 66.5h61l196 -471q8 20 23.5 57.5t34.5 83.5q19 45 39.5 94.5t39.5 95.5q19 45 34 82t24 58h61z" />
    <glyph glyph-name="uni2175" unicode="&#x2175;" horiz-adv-x="950" 
d="M421 41h-53q-10 23 -28 66.5t-40 97.5t-47 113t-47 113t-40.5 98t-27.5 67h61l195 -471q8 21 23.5 58t34.5 83q19 45 40 94.5t40 95.5q19 45 34 82t24 58h61zM764 41h-57v555h57v-555zM767 728h-65v68h65v-68z" />
    <glyph glyph-name="uni2176" unicode="&#x2176;" horiz-adv-x="950" 
d="M356 41h-53q-9 23 -24.5 67t-35.5 98q-20 53 -41.5 112t-41.5 113t-36 97.5t-24 67.5h61l169 -471q7 21 20.5 58t29.5 83q16 45 33.5 94.5t33.5 95.5q16 45 29.5 82t20.5 58h62zM661 41h-56v555h56v-555zM665 729h-63v66h63v-66zM800 41h-57v555h57v-555zM802 729h-62v66
h62v-66z" />
    <glyph glyph-name="uni2177" unicode="&#x2177;" horiz-adv-x="950" 
d="M301 41h-53q-8 23 -23.5 67t-33.5 98q-19 53 -40 112t-39 113q-19 54 -34.5 97.5t-23.5 67.5h62l158 -472q7 20 19.5 57.5t28.5 83.5l31.5 94.5t32.5 95.5q15 46 27.5 83t19.5 58h61zM590 41h-56v555h56v-555zM594 729h-63v66h63v-66zM720 41h-56v555h56v-555zM724 729
h-63v66h63v-66zM850 41h-56v555h56v-555zM854 729h-63v66h63v-66z" />
    <glyph glyph-name="uni2178" unicode="&#x2178;" horiz-adv-x="950" 
d="M272 41h-57v555h57v-555zM275 728h-64v68h64v-68zM549 280q-11 -15 -36 -48.5t-53 -70.5q-28 -38 -53 -71.5t-36 -48.5h-67l211 284q-9 11 -24.5 32t-34.5 48q-20 26 -41.5 55t-40.5 56q-20 26 -36 47.5t-24 32.5h67l168 -227q11 14 34.5 46t50.5 67q26 35 49 67t34 47
h68l-201 -272q9 -11 25.5 -33.5t37.5 -49.5q20 -28 42.5 -58.5t43.5 -57.5q20 -28 36.5 -50.5t25.5 -33.5h-68z" />
    <glyph glyph-name="uni2179" unicode="&#x2179;" horiz-adv-x="950" 
d="M475 277q-11 -15 -36 -48.5t-53 -70.5q-28 -38 -53 -71.5t-36 -48.5h-67l210 284q-8 11 -24 32.5t-35 48.5q-20 26 -41.5 55t-40.5 56q-20 26 -36 47t-24 32h67l169 -227q7 10 20 28t30 40q16 22 34 46t35 46q16 22 29.5 39.5t20.5 27.5h67l-204 -271q9 -12 26 -34
t38 -50q20 -28 43 -58t44 -58q20 -28 36.5 -50l25.5 -34h-68z" />
    <glyph glyph-name="arrowleft" unicode="&#x2190;" horiz-adv-x="950" 
d="M923 392h-688l74 -67l-6 -10q-75 26 -145.5 50.5t-144.5 50.5q73 25 144 49t144 49l10 -14l-76 -60h688v-48z" />
    <glyph glyph-name="arrowup" unicode="&#x2191;" horiz-adv-x="950" 
d="M451 -54v723l-57 -82l-16 8l96 308l97 -309l-15 -9q-16 20 -29.5 41.5t-29.5 41.5v-722h-46z" />
    <glyph glyph-name="arrowright" unicode="&#x2192;" horiz-adv-x="950" 
d="M26 440h688l-76 60l10 14q73 -25 144 -49t144 -49q-74 -26 -144.5 -50.5t-145.5 -50.5l-6 10l74 67h-688v48z" />
    <glyph glyph-name="arrowdown" unicode="&#x2193;" horiz-adv-x="950" 
d="M497 890v-722q16 20 29.5 41.5t29.5 41.5l15 -9l-97 -309l-96 308l16 8l57 -82v723h46z" />
    <glyph glyph-name="arrowboth" unicode="&#x2194;" horiz-adv-x="950" 
d="M235 440h479l-76 60l10 14q73 -25 144 -49t144 -49q-74 -26 -144.5 -50.5t-145.5 -50.5l-6 10l74 67h-479l74 -67l-6 -10q-75 26 -145.5 50.5t-144.5 50.5q73 25 144 49t144 49l10 -14z" />
    <glyph glyph-name="arrowupdn" unicode="&#x2195;" horiz-adv-x="950" 
d="M556 585q-16 20 -29.5 41.5t-29.5 41.5v-500q16 20 29.5 41.5t29.5 41.5l15 -9l-97 -309l-96 308l16 8l57 -82v502l-57 -82l-16 8l96 308l97 -309l-15 -9v0z" />
    <glyph glyph-name="uni2196" unicode="&#x2196;" horiz-adv-x="950" 
d="M882 -48q-180 189 -359 377.5t-360 378.5l7 -139l-20 -4q-32 84 -63 162.5t-64 162.5q78 -34 152 -68t152 -69l-9 -16l-119 3q180 -189 358 -376t358 -376z" />
    <glyph glyph-name="uni2197" unicode="&#x2197;" horiz-adv-x="950" 
d="M60 -58q-8 9 -16.5 18t-16.5 17q180 190 359 378.5t359 378.5l-134 -4l-3 17q80 35 155 67.5t155 67.5q-33 -81 -65 -160t-65 -160l-18 6l4 127l-714 -753v0z" />
    <glyph glyph-name="uni2198" unicode="&#x2198;" horiz-adv-x="950" 
d="M31 849l16 18l16 18q181 -190 360 -378t359 -378l-5 139l18 3q33 -84 64 -162.5t64 -162.5q-78 35 -152.5 69t-152.5 69l5 18l123 -5q-180 189 -357.5 376t-357.5 376z" />
    <glyph glyph-name="uni2199" unicode="&#x2199;" horiz-adv-x="950" 
d="M880 880q8 -9 17 -18l17 -17q-181 -190 -359.5 -378.5t-359.5 -378.5l135 6l3 -19q-80 -34 -155 -67t-155 -67q33 81 65 159t65 159l14 -4l-1 -128l714 753v0z" />
    <glyph glyph-name="arrowdblright" unicode="&#x21d2;" horiz-adv-x="950" 
d="M717 518q-9 6 -27 19.5l-38 28.5t-38.5 28.5t-27.5 19.5q1 2 5.5 8t10.5 13q5 6 9 11.5t6 7.5q13 -10 39 -29t58 -42t67.5 -48.5t67.5 -48.5t58 -42t40 -29q-14 -10 -40 -29t-58 -42q-33 -23 -68 -49t-67 -49q-33 -23 -59 -42t-39 -29q-2 2 -6 8t-9 13t-9.5 12.5
t-5.5 7.5l134 98h-703v48h769l74 53l-77 55h-766v48h700z" />
    <glyph glyph-name="arrowdblboth" unicode="&#x21d4;" horiz-adv-x="950" 
d="M718 518q-9 6 -27.5 19.5t-38.5 28.5t-38.5 28.5t-27.5 20.5q1 2 5.5 7.5t9.5 12.5t9.5 12.5t6.5 7.5q13 -10 39 -29t58 -42t67.5 -48.5t67.5 -48.5t58 -42t40 -29q-14 -10 -40 -29t-58 -42q-33 -23 -68 -49t-67 -49q-33 -23 -59 -42t-39 -29q-2 2 -6 8t-9 13t-9.5 12.5
t-5.5 7.5l133 97h-488q9 -7 27.5 -20.5t39.5 -27.5q21 -15 39.5 -28.5t27.5 -20.5q-2 -2 -6 -7.5t-9 -12.5q-6 -7 -10.5 -12.5t-5.5 -7.5q-14 10 -39.5 29t-57.5 42q-33 23 -68 48.5t-67 48.5q-33 23 -59 42t-39 29q14 10 40 29t58 42t68 49t68 49t58 42t40 29
q1 -2 5.5 -7.5t9.5 -12.5t9 -13t6 -8l-134 -97h486zM785 362l75 54l-75 54h-620l-74 -54l75 -54h619z" />
    <glyph glyph-name="universal" unicode="&#x2200;" horiz-adv-x="950" 
d="M301 577h384q6 14 19 44t27 64q14 33 26.5 63t18.5 44h58q-13 -32 -38 -91.5t-55 -131.5q-30 -73 -63.5 -152.5t-63.5 -152.5t-55 -132t-38 -90h-55q-13 32 -37.5 90.5t-54.5 131.5q-31 73 -64 152.5t-63 152.5q-31 73 -55.5 132t-37.5 91h57zM665 529h-345l173 -416z
" />
    <glyph glyph-name="partialdiff" unicode="&#x2202;" horiz-adv-x="950" 
d="M431 226q31 12 54.5 33t40.5 47q17 25 28.5 53t17.5 52l-2 2q-31 -1 -69 -8.5t-80 -37.5q-24 -20 -39 -42.5t-15 -48.5q0 -22 12 -38.5t32 -16.5q8 0 20 5zM474 570q-30 -2 -50 -12.5t-33 -22.5q-14 -12 -22.5 -21.5t-15.5 -9.5q-2 0 -6 1.5t-4 5.5q0 11 12.5 28t32.5 34
q20 16 46 27.5t52 11.5q73 0 110 -44t37 -118q0 -46 -17.5 -93t-48.5 -85t-73.5 -62t-91.5 -24q-36 0 -63.5 22.5t-27.5 67.5q0 23 9 47t27 45t45.5 38t64.5 26q27 6 53.5 8.5t43.5 2.5h21v11q0 20 -4.5 40.5t-14.5 37.5q-11 17 -28.5 27.5t-42.5 10.5h-11z" />
    <glyph glyph-name="existential" unicode="&#x2203;" horiz-adv-x="950" 
d="M729 791v-750h-518v48h463v317h-436v49h436v288h-455v48h510z" />
    <glyph glyph-name="gradient" unicode="&#x2207;" horiz-adv-x="950" 
d="M475 83q-15 27 -43.5 77.5t-62.5 113.5q-35 62 -73.5 130t-72.5 131q-35 62 -63.5 112.5t-43.5 77.5h718zM199 678l278 -492l268 492h-546z" />
    <glyph glyph-name="element" unicode="&#x2208;" horiz-adv-x="950" 
d="M178 392q3 -41 18.5 -78t44.5 -65q28 -28 68.5 -45t93.5 -18h401v-48h-390q-63 0 -116 20t-90 57q-38 37 -59 88t-21 113q0 60 20 110.5t58 87.5q37 36 90 57t118 22h390v-48h-401q-52 0 -93 -17t-69 -45q-29 -28 -44.5 -65.5t-18.5 -77.5h625v-48h-625z" />
    <glyph glyph-name="suchthat" unicode="&#x220b;" horiz-adv-x="950" 
d="M148 392v48h625q-3 40 -18.5 77t-43.5 66q-29 28 -70 45t-93 17h-401v48h390q64 -1 117 -21.5t91 -56.5q37 -37 57.5 -87.5t20.5 -111.5q0 -62 -21 -113t-59 -88t-90.5 -57t-115.5 -20h-390v48h401q52 1 92.5 17.5t69.5 44.5q28 28 44 65t19 79h-625z" />
    <glyph glyph-name="product" unicode="&#x220f;" horiz-adv-x="950" 
d="M794 752v-48h-166v-624h-47v624h-213v-624h-46v624h-167v48h639z" />
    <glyph glyph-name="summation" unicode="&#x2211;" horiz-adv-x="950" 
d="M744 752v-231h-48v183h-442q11 -13 32 -35.5t47 -50.5t53.5 -58t53.5 -58t46.5 -51t32.5 -35l-265 -288h450v183h48v-231h-540q-11 0 -19 5t-11 18q2 12 11 25.5t17 22.5l242 265l-30 33t-44 48t-50 55t-50 56t-44 48t-30 33v63h540z" />
    <glyph glyph-name="radical" unicode="&#x221a;" horiz-adv-x="950" 
d="M92 279q5 4 17.5 13t27.5 20q14 10 26.5 19.5t17.5 13.5l82 -163q4 22 10.5 63t15.5 92q8 50 17 104.5t18 105.5q8 50 15 91t11 64h490v-49h-451l-100 -582q-2 -8 -9.5 -8.5t-13.5 5.5l-104 205q-3 -2 -9.5 -7.5t-13.5 -10.5q-8 -6 -14.5 -11.5t-9.5 -7.5z" />
    <glyph glyph-name="proportional" unicode="&#x221d;" horiz-adv-x="950" 
d="M806 549q-20 16 -39 21t-47 5q-48 0 -78 -17t-47 -48q-18 -31 -29 -54.5t-18 -39.5q5 -16 16 -40t30 -54q19 -32 49.5 -48.5t76.5 -16.5q27 0 48 6.5t38 19.5q8 -10 14.5 -20t13.5 -20q-28 -18 -53.5 -27.5t-60.5 -9.5q-49 0 -84.5 18t-59.5 43q-24 24 -37.5 50t-17.5 42
q-5 -11 -15 -29t-27 -44q-25 -38 -63.5 -59t-92.5 -21q-42 0 -78.5 16.5t-62.5 45.5q-27 28 -42.5 66t-15.5 82q0 42 15.5 79.5t42.5 66.5q26 29 62.5 46t78.5 17q54 0 92.5 -21t63.5 -59q17 -26 27 -43t14 -26q18 27 35.5 54t40.5 48q22 21 51.5 34t72.5 13q34 0 62 -10
t51 -27zM171 416q0 -32 11.5 -60.5t32.5 -50.5q20 -22 47.5 -35t60.5 -13q50 0 83 24t54 64q14 26 22 43.5t13 26.5q-6 15 -18.5 42t-32.5 53q-21 26 -51 45.5t-70 19.5q-32 0 -59.5 -13t-47.5 -34q-21 -22 -33 -51t-12 -61z" />
    <glyph glyph-name="infinity" unicode="&#x221e;" horiz-adv-x="950" 
d="M473 469q13 25 29.5 48t37.5 41t47.5 28.5t58.5 10.5q35 0 66.5 -14.5t55.5 -39.5t38 -58t14 -69q0 -38 -14.5 -71t-38.5 -57q-24 -25 -55.5 -39t-65.5 -14q-32 0 -56.5 10t-44.5 28q-20 17 -36.5 39.5t-32.5 48.5q-17 -26 -33.5 -49t-36.5 -40t-45 -27t-58 -10
q-36 0 -67.5 14.5t-54.5 39.5q-24 24 -37.5 57t-13.5 70t14 69.5t38 57.5q23 25 54.5 39.5t66.5 14.5q33 0 57.5 -10.5t44.5 -28.5q19 -18 35 -41t33 -48zM768 416q0 25 -9.5 48.5t-25.5 41.5q-17 18 -39 28.5t-48 10.5q-31 0 -55.5 -17t-41.5 -39t-27 -43t-13 -30
q3 -10 13.5 -31.5t27.5 -42.5q17 -22 41 -38.5t55 -16.5q27 0 49 10.5t39 28.5q16 18 25 41.5t9 48.5zM182 416q0 -25 9 -48.5t25 -41.5t38 -28.5t49 -10.5q30 0 52.5 14t39.5 34q16 20 27 42t18 38q-6 11 -15.5 32.5t-25.5 43.5q-17 22 -40 38t-56 16q-26 0 -48 -11
t-38 -29q-17 -18 -26 -41t-9 -48z" />
    <glyph glyph-name="angle" unicode="&#x2220;" horiz-adv-x="950" 
d="M237 148h576v-49h-643q-16 0 -23 15q-1 7 6 17t13 15q24 25 68 72t98 105q53 57 112.5 119.5t113.5 120.5q53 57 97 103.5t68 72.5l37 -37z" />
    <glyph glyph-name="uni2225" unicode="&#x2225;" horiz-adv-x="950" 
d="M368 888h46v-945h-46v945zM534 888h47v-945h-47v945z" />
    <glyph glyph-name="logicaland" unicode="&#x2227;" horiz-adv-x="950" 
d="M743 88l-268 574l-267 -574l-39 25l284 612q2 6 8.5 13t12.5 7q14 0 21 -17l286 -616z" />
    <glyph glyph-name="logicalor" unicode="&#x2228;" horiz-adv-x="950" 
d="M789 731q-73 -158 -145.5 -314.5t-146.5 -314.5q-5 -9 -9.5 -15.5t-12.5 -6.5q-5 0 -12.5 7.5t-10.5 14.5q-74 158 -146 314t-146 315l40 24q69 -149 137.5 -295.5t137.5 -295.5q69 148 137.5 295t137.5 296z" />
    <glyph glyph-name="intersection" unicode="&#x2229;" horiz-adv-x="950" 
d="M475 730q-39 0 -77.5 -14.5t-69.5 -43.5q-32 -29 -51.5 -74.5t-19.5 -106.5v-420h-46v409q0 64 19 119t54 96q34 40 83 63t108 23t107.5 -22.5t83.5 -62.5t54 -95t19 -121v-409h-47v420q0 56 -17.5 100.5t-46.5 75.5q-30 30 -68.5 46.5t-79.5 16.5h-5v0z" />
    <glyph glyph-name="union" unicode="&#x222a;" horiz-adv-x="950" 
d="M473 102q42 0 80.5 16t68.5 47q29 30 46.5 74.5t17.5 100.5v421h46v-410q0 -65 -18.5 -119.5t-52.5 -94.5q-35 -41 -84 -63.5t-109 -22.5q-59 0 -107.5 22.5t-83.5 62.5t-54 95t-19 120v410h47v-421q0 -62 19.5 -107t50.5 -74t69.5 -43t77.5 -14h5v0z" />
    <glyph glyph-name="integral" unicode="&#x222b;" horiz-adv-x="950" 
d="M446 490q7 69 18.5 130t29.5 107q17 45 42 71.5t59 26.5q15 0 30 -13t15 -31q0 -17 -12.5 -28t-20.5 -11q-9 0 -19.5 6.5t-21.5 6.5q-20 0 -32 -25t-13 -61q-2 -57 -4.5 -111.5t-6.5 -108.5q-4 -86 -14 -166t-28 -141q-19 -61 -46.5 -97.5t-67.5 -36.5q-14 0 -29.5 11
t-15.5 33q0 20 13.5 30.5t24.5 10.5t19.5 -8t15.5 -8q9 0 17.5 8t14.5 21t9.5 28t4.5 29q3 47 5.5 93.5t4.5 89.5t4 80t4 64z" />
    <glyph glyph-name="uni222C" unicode="&#x222c;" horiz-adv-x="950" 
d="M574 539q7 61 19.5 113.5t30.5 91.5q18 38 42 59.5t54 21.5q15 0 29 -14t14 -31t-12.5 -27t-20.5 -10q-10 0 -20 6t-21 6q-20 0 -30 -23.5t-14 -58.5t-4.5 -74.5t-2.5 -71.5q-4 -65 -9 -128.5t-12 -120.5q-8 -58 -19 -107.5t-27 -85.5q-17 -36 -40 -56.5t-54 -20.5
q-15 0 -30 12t-15 32q0 5 3 12.5t9 14.5q5 6 11.5 10.5t14.5 4.5q11 0 20 -8.5t16 -8.5q10 0 18 8t14 21t9.5 28t4.5 29q3 69 5 116t5 87q2 40 4.5 79.5t7.5 93.5zM325 539q7 61 19.5 113.5t30.5 91.5q18 38 42 59.5t54 21.5q15 0 29 -14t14 -31t-12.5 -27t-20.5 -10
q-10 0 -20 6t-21 6q-20 0 -30 -23.5t-14 -58.5t-4.5 -74.5t-2.5 -71.5q-4 -65 -9 -128.5t-12 -120.5q-8 -58 -19 -107.5t-27 -85.5q-17 -36 -40 -56.5t-54 -20.5q-15 0 -30 12t-15 32q0 5 3 12.5t9 14.5q5 6 11.5 10.5t14.5 4.5q11 0 20 -8.5t16 -8.5q10 0 18 8t14 21
t9.5 28t4.5 29q3 69 5 116t5 87q2 40 4.5 79.5t7.5 93.5z" />
    <glyph glyph-name="uni222E" unicode="&#x222e;" horiz-adv-x="950" 
d="M381 179q8 20 15 46t12 49q-29 20 -48.5 51.5t-19.5 69.5q0 28 11 53.5t29 45.5q18 19 42 31t50 12q5 0 8.5 -0.5t8.5 -1.5q18 53 33.5 89.5t31.5 59.5t33 33.5t38 10.5q10 0 21 -5.5t20 -13.5q8 -8 13.5 -18.5t5.5 -19.5q0 -17 -10 -25.5t-23 -8.5q-11 0 -18 7t-11 15
q-5 8 -8 15t-6 7q-8 0 -17 -14.5t-18 -37.5q-9 -24 -18.5 -53.5t-16.5 -58.5q32 -20 51 -52t19 -70q0 -29 -11 -54.5t-29 -44.5q-19 -19 -43 -30t-51 -11h-16q-28 -88 -56 -138q-19 -32 -39.5 -45t-42.5 -13q-10 0 -20.5 4.5t-18.5 11.5q-9 6 -14.5 14.5t-5.5 17.5
q0 14 9 28t27 14q12 0 26 -9t13 -33q0 -5 4.5 -0.5t11.5 15.5q6 10 14 25t14 32zM389 395q0 -47 33 -71q3 0 10.5 22t16.5 51q9 28 16.5 54t9.5 35q-36 -6 -61 -27.5t-25 -63.5zM561 395q0 23 -9 41.5t-24 29.5q-2 0 -5 -9l-7 -21t-7.5 -24.5t-5.5 -19.5q0 -3 -2 -7
q-6 -20 -12 -39t-14 -41q35 6 60.5 27t25.5 63z" />
    <glyph glyph-name="therefore" unicode="&#x2234;" horiz-adv-x="950" 
d="M709 229q20 0 35 -15.5t15 -36.5q0 -22 -15 -37.5t-35 -15.5t-35 15.5t-15 37.5q0 21 15 36.5t35 15.5zM241 229q20 0 34.5 -15.5t14.5 -36.5q0 -22 -14.5 -37.5t-34.5 -15.5t-35.5 15.5t-15.5 37.5q0 21 15.5 36.5t35.5 15.5zM475 695q20 0 35 -15.5t15 -36.5
q0 -22 -15 -37.5t-35 -15.5t-35.5 15.5t-15.5 37.5q0 21 15.5 36.5t35.5 15.5z" />
    <glyph glyph-name="uni2235" unicode="&#x2235;" horiz-adv-x="950" 
d="M709 601q-20 0 -35 15.5t-15 37.5q0 21 15 36.5t35 15.5t35 -15.5t15 -36.5q0 -22 -15 -37.5t-35 -15.5zM241 601q-20 0 -35.5 15.5t-15.5 37.5q0 21 15.5 36.5t35.5 15.5t34.5 -15.5t14.5 -36.5q0 -22 -14.5 -37.5t-34.5 -15.5zM475 135q-20 0 -35.5 15.5t-15.5 37.5
q0 21 15.5 36.5t35.5 15.5t35 -15.5t15 -36.5q0 -22 -15 -37.5t-35 -15.5z" />
    <glyph glyph-name="similar" unicode="&#x223c;" horiz-adv-x="950" 
d="M80 359q2 42 17.5 83t42.5 73q27 31 64 50.5t83 19.5q59 0 100.5 -28.5t73.5 -82.5q59 -100 151 -100q38 0 65.5 15t46.5 40q18 25 30 57t19 65h49q-8 -43 -23.5 -83.5t-40.5 -71.5q-26 -32 -63 -51t-88 -19q-53 0 -99.5 31t-77.5 82v-1q-27 47 -60 74.5t-70 27.5
q-44 0 -75 -15t-51 -40t-31.5 -58t-15.5 -68h-47z" />
    <glyph glyph-name="uni223D" unicode="&#x223d;" horiz-adv-x="950" 
d="M686 639q38 -1 72 -15.5t60 -40.5q25 -27 39.5 -64.5t14.5 -82.5q0 -40 -13 -76.5t-37 -63.5q-25 -28 -60 -44.5t-79 -16.5q-38 0 -70 10.5t-47 24.5l10 22l10 22q16 -8 42.5 -18.5t59.5 -10.5q26 0 50.5 11.5t43.5 30.5q18 18 29.5 42.5t11.5 51.5q0 36 -10 67t-28 54
q-19 22 -47 35t-64 13q-31 0 -57 -15t-47 -39q-22 -25 -40 -55.5t-33 -60.5q-10 -20 -28 -51.5t-43 -60.5q-26 -30 -60 -51.5t-75 -21.5q-39 0 -77 13t-67 40q-30 26 -48 65t-18 91q0 37 13.5 72t38.5 63t60 45t77 17q17 0 35 -3.5t34 -8.5t28.5 -12.5t20.5 -14.5
q-7 -11 -11.5 -20t-10.5 -20q-15 11 -43.5 21t-56.5 10q-26 0 -50.5 -11t-43.5 -30q-20 -19 -32 -44.5t-12 -54.5q0 -73 37.5 -119.5t105.5 -50.5q41 0 71.5 19.5t53.5 46.5q22 27 36.5 55t23.5 45q20 37 40.5 71t46.5 60q26 25 60.5 41t82.5 18z" />
    <glyph glyph-name="uni2252" unicode="&#x2252;" horiz-adv-x="950" 
d="M137 526h676v-54h-676v54zM137 360h676v-54h-676v54zM287 732q23 0 38 -16.5t15 -39.5t-15 -39.5t-38 -16.5t-38.5 16.5t-15.5 39.5t15.5 39.5t38.5 16.5zM664 213q21 0 37 -17t16 -40t-16 -39.5t-37 -16.5t-38 16.5t-17 39.5t17 40t38 17z" />
    <glyph glyph-name="notequal" unicode="&#x2260;" horiz-adv-x="950" 
d="M479 541q5 15 15.5 48t22.5 69t22 68.5t15 47.5q2 0 9.5 -2t15.5 -4t15.5 -4t9.5 -3l-67 -220h286v-52h-305l-47 -151h352v-54h-370q-5 -14 -16 -46t-23 -68q-13 -36 -24 -68t-16 -47q-2 1 -10 2.5t-17 3.5t-16.5 3.5t-10.5 2.5l75 217h-248v54h267l48 151h-315v52h332z
" />
    <glyph glyph-name="equivalence" unicode="&#x2261;" horiz-adv-x="950" 
d="M137 596h676v-48h-676v48zM137 440h676v-48h-676v48zM137 284h676v-48h-676v48z" />
    <glyph glyph-name="lessequal" unicode="&#x2264;" horiz-adv-x="950" 
d="M798 757q-137 -61 -273 -121.5t-274 -121.5q137 -60 274 -121t274 -121q-7 -13 -12.5 -25.5t-11.5 -25.5q-150 66 -303.5 134.5t-303.5 134.5q-8 4 -15.5 11t-7.5 13t6 12.5t15 11.5q155 69 306.5 135.5t306.5 135.5q5 -14 9.5 -26t9.5 -26zM127 166h695v-54h-695v54z
" />
    <glyph glyph-name="greaterequal" unicode="&#x2265;" horiz-adv-x="950" 
d="M708 514q-137 61 -273.5 121.5t-273.5 121.5q5 14 9.5 26t9.5 26q152 -67 306.5 -135.5t306.5 -135.5q20 -12 20 -24q0 -6 -7.5 -13t-14.5 -11q-153 -68 -303.5 -134.5t-303.5 -134.5q-6 13 -11.5 25.5t-12.5 25.5q138 60 274 121t274 121zM832 112h-695v54h695v-54z" />
    <glyph glyph-name="uni226A" unicode="&#x226a;" horiz-adv-x="950" 
d="M138 439q115 84 228.5 167.5t228.5 167.5q7 -9 13.5 -18.5t14.5 -18.5q-111 -81 -220 -160.5t-220 -160.5q111 -81 220.5 -161t220.5 -161q-8 -10 -15 -18t-15 -17q-115 84 -228 166.5t-228 167.5q-8 0 -14 10.5t-6 12.5q0 6 6.5 12t13.5 11zM362 439q115 84 228.5 167.5
t228.5 167.5q7 -9 13.5 -18.5t14.5 -18.5q-111 -81 -220 -160.5t-220 -160.5q111 -81 220.5 -161t220.5 -161q-8 -10 -15 -18t-15 -17q-115 84 -228 166.5t-228 167.5q-8 0 -14 10.5t-6 12.5q0 6 6.5 12t13.5 11z" />
    <glyph glyph-name="uni226B" unicode="&#x226b;" horiz-adv-x="950" 
d="M355 774q115 -84 228 -167t228 -168q8 -5 14.5 -11.5t6.5 -11.5q0 -6 -5 -11t-12 -10l-3 -2q-115 -85 -228 -167.5t-228 -166.5q-8 8 -15 17.5t-15 17.5q111 81 220.5 161t220.5 161q-111 80 -220 160t-220 161q8 10 14.5 18.5t13.5 18.5zM131 774q115 -84 228 -167
t228 -168q8 -5 14.5 -11.5t6.5 -11.5q0 -6 -5 -11t-12 -10l-3 -2q-115 -85 -228 -167.5t-228 -166.5q-8 8 -15 17.5t-15 17.5q111 81 220.5 161t220.5 161q-111 80 -220 160t-220 161q8 10 14.5 18.5t13.5 18.5z" />
    <glyph glyph-name="propersubset" unicode="&#x2282;" horiz-adv-x="950" 
d="M177 416q0 -42 13.5 -83t41.5 -73q28 -33 70.5 -53t100.5 -21h401v-48h-390q-63 0 -115.5 20t-90.5 57q-38 36 -59 87.5t-21 113.5q0 60 20.5 110.5t58.5 87.5q37 36 89.5 57t117.5 22h390v-48h-401q-55 0 -97 -19.5t-70 -50.5q-29 -32 -43.5 -72t-15.5 -82v-5v0z" />
    <glyph glyph-name="propersuperset" unicode="&#x2283;" horiz-adv-x="950" 
d="M774 421q-1 41 -16 81t-43 72q-29 32 -70.5 51.5t-96.5 19.5h-401v48h390q64 -1 116.5 -21.5t90.5 -56.5q37 -37 58 -87.5t21 -111.5q0 -62 -21.5 -113t-59.5 -88t-90.5 -57t-114.5 -20h-390v48h401q58 1 100.5 21t70.5 53q28 32 41.5 73t13.5 83v5v0z" />
    <glyph glyph-name="reflexsubset" unicode="&#x2286;" horiz-adv-x="950" 
d="M127 147h695v-47h-695v47zM175 494q0 -40 14.5 -75t43.5 -60q28 -26 71 -41t99 -15h400v-48h-390q-66 0 -118.5 16.5t-89.5 47.5q-38 31 -58 75t-20 100q0 52 19 96t54 76q35 31 85.5 48.5t113.5 17.5h14h390v-48h-400h-11q-53 0 -93.5 -15.5t-67.5 -41.5
q-28 -26 -42 -60.5t-14 -72.5z" />
    <glyph glyph-name="reflexsuperset" unicode="&#x2287;" horiz-adv-x="950" 
d="M822 100h-695v47h695v-47zM774 494q0 38 -14 72.5t-42 60.5t-68.5 41.5t-93.5 15.5h-10h-401v48h391h14q63 0 113.5 -18t86.5 -49q35 -32 53.5 -76t18.5 -95q0 -56 -20.5 -100.5t-57.5 -74.5q-38 -31 -90.5 -47.5t-117.5 -16.5h-391v48h401q56 0 99 15t72 41
q28 25 42.5 60t14.5 75z" />
    <glyph glyph-name="uni2299" unicode="&#x2299;" horiz-adv-x="950" 
d="M476 818q80 0 150 -32.5t122 -87.5t82 -128.5t30 -154.5q0 -83 -30 -156t-82 -127q-53 -55 -123 -87t-149 -32q-81 0 -151.5 31.5t-122.5 86.5q-52 54 -82 127.5t-30 156.5q0 82 30 155.5t83 128.5q52 55 122.5 87t150.5 32zM476 763q-71 0 -132 -28t-106 -75
q-45 -48 -70.5 -111t-25.5 -134q0 -70 25.5 -133t70.5 -111t106 -76t132 -28q70 0 130.5 28t105.5 76q44 47 69.5 110t25.5 134q0 69 -26 132t-70 111q-45 48 -105.5 76.5t-129.5 28.5zM476 578q32 0 60.5 -13.5t49.5 -35.5q21 -23 33.5 -53t12.5 -62q0 -33 -12.5 -62.5
t-33.5 -51.5q-21 -23 -49.5 -36t-60.5 -13q-33 0 -61.5 13.5t-49.5 36.5q-21 22 -33 51.5t-12 61.5q0 31 12 61t33 53q21 22 49.5 36t61.5 14z" />
    <glyph glyph-name="perpendicular" unicode="&#x22a5;" horiz-adv-x="950" 
d="M155 147h294v566h52v-566h293v-48h-639v48z" />
    <glyph glyph-name="uni2312" unicode="&#x2312;" horiz-adv-x="950" 
d="M136 435q9 64 38.5 120.5t75.5 98.5q45 42 102.5 66.5t122.5 24.5q64 0 121.5 -24.5t103.5 -66.5q45 -42 75 -98.5t39 -120.5h-54q-9 55 -34.5 102t-62.5 82q-38 34 -86 54t-102 20q-53 0 -101 -19.5t-85 -53.5q-38 -35 -64 -82.5t-36 -102.5h-53z" />
    <glyph glyph-name="uni2460" unicode="&#x2460;" horiz-adv-x="1000" 
d="M47 376q0 93 35.5 175.5t96.5 144.5q61 61 143.5 96.5t177.5 35.5q94 0 176 -35.5t144 -96.5q61 -62 96.5 -144.5t35.5 -175.5t-35.5 -175.5t-96.5 -144.5q-62 -61 -144 -97t-176 -36q-95 0 -177.5 36t-143.5 97q-61 62 -96.5 144.5t-35.5 175.5zM90 376q0 -84 32.5 -159
t88.5 -130q55 -56 130 -88.5t159 -32.5t158.5 32.5t130.5 88.5q56 55 88.5 130t32.5 159t-32.5 158.5t-88.5 130.5t-130.5 88.5t-158.5 32.5t-159 -32.5t-130 -88.5q-56 -56 -88.5 -130.5t-32.5 -158.5zM429 649q27 2 56.5 5t59.5 8v-580h-45v534h-71v33z" />
    <glyph glyph-name="uni2461" unicode="&#x2461;" horiz-adv-x="1000" 
d="M47 376q0 93 35.5 175.5t96.5 144.5q61 61 143.5 96.5t177.5 35.5q94 0 176 -35.5t144 -96.5q61 -62 96.5 -144.5t35.5 -175.5t-35.5 -175.5t-96.5 -144.5q-62 -61 -144 -97t-176 -36q-95 0 -177.5 36t-143.5 97q-61 62 -96.5 144.5t-35.5 175.5zM90 376q0 -84 32.5 -159
t88.5 -130q55 -56 130 -88.5t159 -32.5t158.5 32.5t130.5 88.5q56 55 88.5 130t32.5 159t-32.5 158.5t-88.5 130.5t-130.5 88.5t-158.5 32.5t-159 -32.5t-130 -88.5q-56 -56 -88.5 -130.5t-32.5 -158.5zM698 88h-359v18q54 52 111 115.5t100 129.5q26 40 40.5 74.5
t14.5 66.5q0 30 -9.5 56t-27.5 46q-18 19 -43.5 30.5t-57.5 11.5q-35 0 -68 -18.5t-61 -43.5v50q32 26 66.5 39t67.5 13q37 0 69 -12.5t56 -35.5q24 -24 38 -56t14 -71q0 -34 -10 -69t-32 -70q-21 -35 -70 -98.5t-121 -137.5h282v-38z" />
    <glyph glyph-name="uni2462" unicode="&#x2462;" horiz-adv-x="1000" 
d="M47 376q0 93 35.5 175.5t96.5 144.5q61 61 143.5 96.5t177.5 35.5q94 0 176 -35.5t144 -96.5q61 -62 96.5 -144.5t35.5 -175.5t-35.5 -175.5t-96.5 -144.5q-62 -61 -144 -97t-176 -36q-95 0 -177.5 36t-143.5 97q-61 62 -96.5 144.5t-35.5 175.5zM90 376q0 -84 32.5 -159
t88.5 -130q55 -56 130 -88.5t159 -32.5t158.5 32.5t130.5 88.5q56 55 88.5 130t32.5 159t-32.5 158.5t-88.5 130.5t-130.5 88.5t-158.5 32.5t-159 -32.5t-130 -88.5q-56 -56 -88.5 -130.5t-32.5 -158.5zM394 652q25 10 52 17t51 7q35 0 66 -8t55 -25q23 -18 37 -45t14 -65
q0 -21 -5 -42t-17 -39q-13 -19 -35 -35t-56 -27q54 -16 88.5 -52.5t34.5 -90.5q0 -39 -14 -70.5t-39 -53.5t-58.5 -33.5t-73.5 -11.5q-27 0 -58.5 6t-58.5 19v48q28 -18 60 -25.5t64 -7.5q27 0 51.5 8.5t43.5 24.5q18 16 28.5 39.5t10.5 52.5q0 32 -14 55t-37 38t-52 22.5
t-58 9.5v39q68 4 109.5 32t41.5 78q0 51 -32.5 85t-95.5 34q-29 0 -54 -8t-49 -17v41z" />
    <glyph glyph-name="uni2463" unicode="&#x2463;" horiz-adv-x="1000" 
d="M47 376q0 93 35.5 175.5t96.5 144.5q61 61 143.5 96.5t177.5 35.5q94 0 176 -35.5t144 -96.5q61 -62 96.5 -144.5t35.5 -175.5t-35.5 -175.5t-96.5 -144.5q-62 -61 -144 -97t-176 -36q-95 0 -177.5 36t-143.5 97q-61 62 -96.5 144.5t-35.5 175.5zM90 376q0 -84 32.5 -159
t88.5 -130q55 -56 130 -88.5t159 -32.5t158.5 32.5t130.5 88.5q56 55 88.5 130t32.5 159t-32.5 158.5t-88.5 130.5t-130.5 88.5t-158.5 32.5t-159 -32.5t-130 -88.5q-56 -56 -88.5 -130.5t-32.5 -158.5zM333 303h228v273zM605 663v-360h72v-42h-72v-173h-44v173h-286v32
q42 48 80 94t75 91t75 91t80 94h20z" />
    <glyph glyph-name="uni2464" unicode="&#x2464;" horiz-adv-x="1000" 
d="M47 376q0 93 35.5 175.5t96.5 144.5q61 61 143.5 96.5t177.5 35.5q94 0 176 -35.5t144 -96.5q61 -62 96.5 -144.5t35.5 -175.5t-35.5 -175.5t-96.5 -144.5q-62 -61 -144 -97t-176 -36q-95 0 -177.5 36t-143.5 97q-61 62 -96.5 144.5t-35.5 175.5zM90 376q0 -84 32.5 -159
t88.5 -130q55 -56 130 -88.5t159 -32.5t158.5 32.5t130.5 88.5q56 55 88.5 130t32.5 159t-32.5 158.5t-88.5 130.5t-130.5 88.5t-158.5 32.5t-159 -32.5t-130 -88.5q-56 -56 -88.5 -130.5t-32.5 -158.5zM637 621h-204v-182q46 3 90 -7t78 -32q34 -23 54.5 -57.5t20.5 -79.5
q0 -41 -16 -74.5t-43 -58.5t-63.5 -38.5t-77.5 -13.5q-35 0 -67 6t-70 23v49q23 -16 59 -28.5t78 -12.5q30 0 57.5 9.5t48.5 28.5t34 46t13 62q0 37 -17 63.5t-44 43.5q-27 16 -61 24t-67 8q-12 0 -24 -1t-26 -3v267h247v-42z" />
    <glyph glyph-name="uni2465" unicode="&#x2465;" horiz-adv-x="1000" 
d="M47 376q0 93 35.5 175.5t96.5 144.5q61 61 143.5 96.5t177.5 35.5q94 0 176 -35.5t144 -96.5q61 -62 96.5 -144.5t35.5 -175.5t-35.5 -175.5t-96.5 -144.5q-62 -61 -144 -97t-176 -36q-95 0 -177.5 36t-143.5 97q-61 62 -96.5 144.5t-35.5 175.5zM90 376q0 -84 32.5 -159
t88.5 -130q55 -56 130 -88.5t159 -32.5t158.5 32.5t130.5 88.5q56 55 88.5 130t32.5 159t-32.5 158.5t-88.5 130.5t-130.5 88.5t-158.5 32.5t-159 -32.5t-130 -88.5q-56 -56 -88.5 -130.5t-32.5 -158.5zM501 399q-43 0 -75.5 -17t-64.5 -47q-8 -31 -2.5 -68t22.5 -68
q17 -32 46 -53t69 -21q29 0 53.5 10.5t42.5 29.5q17 19 27 43.5t10 53.5q0 26 -9 51t-25 44q-17 19 -41 30.5t-53 11.5zM312 297q0 60 17.5 116.5t49.5 107.5q31 50 74.5 94t95.5 81l28 -34q-39 -24 -74.5 -57.5t-63.5 -70.5q-29 -38 -48 -78t-24 -76q32 32 72 44t74 12
t64 -14.5t52 -38.5t34.5 -55.5t12.5 -66.5q0 -34 -13.5 -65.5t-36.5 -55.5t-54.5 -38t-67.5 -14q-44 0 -79.5 16t-60.5 44t-38.5 66t-13.5 83z" />
    <glyph glyph-name="uni2466" unicode="&#x2466;" horiz-adv-x="1000" 
d="M47 376q0 93 35.5 175.5t96.5 144.5q61 61 143.5 96.5t177.5 35.5q94 0 176 -35.5t144 -96.5q61 -62 96.5 -144.5t35.5 -175.5t-35.5 -175.5t-96.5 -144.5q-62 -61 -144 -97t-176 -36q-95 0 -177.5 36t-143.5 97q-61 62 -96.5 144.5t-35.5 175.5zM90 376q0 -84 32.5 -159
t88.5 -130q55 -56 130 -88.5t159 -32.5t158.5 32.5t130.5 88.5q56 55 88.5 130t32.5 159t-32.5 158.5t-88.5 130.5t-130.5 88.5t-158.5 32.5t-159 -32.5t-130 -88.5q-56 -56 -88.5 -130.5t-32.5 -158.5zM426 62l-37 14l243 528h-304v42h373z" />
    <glyph glyph-name="uni2467" unicode="&#x2467;" horiz-adv-x="1000" 
d="M47 376q0 93 35.5 175.5t96.5 144.5q61 61 143.5 96.5t177.5 35.5q94 0 176 -35.5t144 -96.5q61 -62 96.5 -144.5t35.5 -175.5t-35.5 -175.5t-96.5 -144.5q-62 -61 -144 -97t-176 -36q-95 0 -177.5 36t-143.5 97q-61 62 -96.5 144.5t-35.5 175.5zM90 376q0 -84 32.5 -159
t88.5 -130q55 -56 130 -88.5t159 -32.5t158.5 32.5t130.5 88.5q56 55 88.5 130t32.5 159t-32.5 158.5t-88.5 130.5t-130.5 88.5t-158.5 32.5t-159 -32.5t-130 -88.5q-56 -56 -88.5 -130.5t-32.5 -158.5zM308 238q0 50 31 89t80 58q-43 19 -69 56t-26 83q0 32 13.5 60.5
t37.5 49.5t56 33.5t69 12.5t69 -12.5t56 -33.5t38 -49.5t14 -60.5q0 -48 -27.5 -85t-72.5 -56q48 -20 78 -58.5t30 -86.5q0 -33 -15 -62.5t-40 -50.5q-26 -22 -60.5 -34.5t-73.5 -12.5t-73.5 12.5t-59.5 34.5q-26 21 -40.5 50.5t-14.5 62.5zM352 238q0 -25 11.5 -47
t31.5 -38q19 -17 45.5 -26.5t55.5 -9.5t55.5 9.5t46.5 26.5q20 16 31.5 38t11.5 47t-11.5 47t-31.5 39q-20 16 -46.5 25.5t-55.5 9.5t-55.5 -9.5t-45.5 -25.5q-20 -17 -31.5 -39t-11.5 -47zM368 524q0 -24 10.5 -45.5t28.5 -36.5q18 -16 42 -25.5t51 -9.5t51 9.5t43 25.5
q18 15 28.5 36.5t10.5 45.5t-10.5 45.5t-28.5 37.5q-19 15 -43 24.5t-51 9.5t-51 -9.5t-42 -24.5q-18 -16 -28.5 -37.5t-10.5 -45.5z" />
    <glyph glyph-name="uni2468" unicode="&#x2468;" horiz-adv-x="1000" 
d="M47 376q0 93 35.5 175.5t96.5 144.5q61 61 143.5 96.5t177.5 35.5q94 0 176 -35.5t144 -96.5q61 -62 96.5 -144.5t35.5 -175.5t-35.5 -175.5t-96.5 -144.5q-62 -61 -144 -97t-176 -36q-95 0 -177.5 36t-143.5 97q-61 62 -96.5 144.5t-35.5 175.5zM90 376q0 -84 32.5 -159
t88.5 -130q55 -56 130 -88.5t159 -32.5t158.5 32.5t130.5 88.5q56 55 88.5 130t32.5 159t-32.5 158.5t-88.5 130.5t-130.5 88.5t-158.5 32.5t-159 -32.5t-130 -88.5q-56 -56 -88.5 -130.5t-32.5 -158.5zM505 364q43 0 75.5 17t64.5 47q7 31 2 68t-22 69q-17 31 -46 52
t-69 21q-29 0 -53.5 -10.5t-41.5 -29.5q-18 -19 -28 -44t-10 -53q0 -26 9 -51t26 -44q16 -19 40 -30.5t53 -11.5zM694 466q0 -60 -17.5 -116.5t-48.5 -106.5q-32 -51 -75.5 -95t-95.5 -81l-28 34q39 24 74.5 57.5t64.5 71.5q28 37 47 77t24 76q-32 -32 -72 -44t-74 -12
t-64 14.5t-52 38.5t-34.5 55.5t-12.5 66.5q0 34 13.5 65.5t36.5 55.5t54.5 38t67.5 14q44 0 79.5 -16t60.5 -44t38.5 -66t13.5 -83z" />
    <glyph glyph-name="uni2469" unicode="&#x2469;" horiz-adv-x="1000" 
d="M47 376q0 93 35.5 175.5t96.5 144.5q61 61 143.5 96.5t177.5 35.5q94 0 176 -35.5t144 -96.5q61 -62 96.5 -144.5t35.5 -175.5t-35.5 -175.5t-96.5 -144.5q-62 -61 -144 -97t-176 -36q-95 0 -177.5 36t-143.5 97q-61 62 -96.5 144.5t-35.5 175.5zM90 376q0 -84 32.5 -159
t88.5 -130q55 -56 130 -88.5t159 -32.5t158.5 32.5t130.5 88.5q56 55 88.5 130t32.5 159t-32.5 158.5t-88.5 130.5t-130.5 88.5t-158.5 32.5t-159 -32.5t-130 -88.5q-56 -56 -88.5 -130.5t-32.5 -158.5zM426 371q0 62 14 117t39 96q25 40 58 63.5t71 23.5t71.5 -23.5
t58.5 -63.5q24 -41 38.5 -96t14.5 -117t-14.5 -117t-38.5 -95q-25 -41 -58.5 -64.5t-71.5 -23.5t-71 23.5t-58 64.5q-25 40 -39 95t-14 117zM466 371q0 -53 11.5 -100.5t31.5 -82.5q19 -36 44.5 -57t54.5 -21t55 21t46 57q19 35 30.5 82.5t11.5 100.5t-11.5 100.5
t-30.5 83.5q-20 35 -46 56t-55 21t-54.5 -21t-44.5 -56q-20 -36 -31.5 -83.5t-11.5 -100.5zM234 649q27 2 54 5t57 8v-580h-40v534h-71v33z" />
    <glyph glyph-name="uni246A" unicode="&#x246a;" horiz-adv-x="1000" 
d="M47 376q0 93 35.5 175.5t96.5 144.5q61 61 143.5 96.5t177.5 35.5q94 0 176 -35.5t144 -96.5q61 -62 96.5 -144.5t35.5 -175.5t-35.5 -175.5t-96.5 -144.5q-62 -61 -144 -97t-176 -36q-95 0 -177.5 36t-143.5 97q-61 62 -96.5 144.5t-35.5 175.5zM90 376q0 -84 32.5 -159
t88.5 -130q55 -56 130 -88.5t159 -32.5t158.5 32.5t130.5 88.5q56 55 88.5 130t32.5 159t-32.5 158.5t-88.5 130.5t-130.5 88.5t-158.5 32.5t-159 -32.5t-130 -88.5q-56 -56 -88.5 -130.5t-32.5 -158.5zM274 649q27 2 54 5t57 8v-580h-40v534h-71v33zM564 649q27 2 54 5
t57 8v-580h-40v534h-71v33z" />
    <glyph glyph-name="uni246B" unicode="&#x246b;" horiz-adv-x="1000" 
d="M47 376q0 93 35.5 175.5t96.5 144.5q61 61 143.5 96.5t177.5 35.5q94 0 176 -35.5t144 -96.5q61 -62 96.5 -144.5t35.5 -175.5t-35.5 -175.5t-96.5 -144.5q-62 -61 -144 -97t-176 -36q-95 0 -177.5 36t-143.5 97q-61 62 -96.5 144.5t-35.5 175.5zM90 376q0 -84 32.5 -159
t88.5 -130q55 -56 130 -88.5t159 -32.5t158.5 32.5t130.5 88.5q56 55 88.5 130t32.5 159t-32.5 158.5t-88.5 130.5t-130.5 88.5t-158.5 32.5t-159 -32.5t-130 -88.5q-56 -56 -88.5 -130.5t-32.5 -158.5zM244 649q27 2 54 5t57 8v-580h-40v534h-71v33zM780 88h-323v18
q49 52 100 115.5t90 129.5q23 40 36 74.5t13 66.5q0 30 -8.5 56t-24.5 46q-16 19 -39 30.5t-52 11.5q-31 0 -61 -18.5t-55 -43.5v50q29 26 60 39t61 13q33 0 62 -12.5t51 -35.5q21 -24 33.5 -56t12.5 -71q0 -34 -9 -69t-29 -70q-19 -35 -63 -98.5t-109 -137.5h254v-38z" />
    <glyph glyph-name="uni246C" unicode="&#x246c;" horiz-adv-x="1000" 
d="M47 376q0 93 35.5 175.5t96.5 144.5q61 61 143.5 96.5t177.5 35.5q94 0 176 -35.5t144 -96.5q61 -62 96.5 -144.5t35.5 -175.5t-35.5 -175.5t-96.5 -144.5q-62 -61 -144 -97t-176 -36q-95 0 -177.5 36t-143.5 97q-61 62 -96.5 144.5t-35.5 175.5zM90 376q0 -84 32.5 -159
t88.5 -130q55 -56 130 -88.5t159 -32.5t158.5 32.5t130.5 88.5q56 55 88.5 130t32.5 159t-32.5 158.5t-88.5 130.5t-130.5 88.5t-158.5 32.5t-159 -32.5t-130 -88.5q-56 -56 -88.5 -130.5t-32.5 -158.5zM244 649q27 2 54 5t57 8v-580h-40v534h-71v33zM497 652q23 10 47 17
t46 7q31 0 59.5 -8t49.5 -25q21 -18 33.5 -45t12.5 -65q0 -21 -4.5 -42t-15.5 -39q-12 -19 -31.5 -35t-50.5 -27q48 -16 79.5 -52.5t31.5 -90.5q0 -39 -12.5 -70.5t-34.5 -53.5q-23 -22 -53.5 -33.5t-66.5 -11.5q-24 0 -52.5 6t-52.5 19v48q25 -18 54 -25.5t58 -7.5
q24 0 46 8.5t39 24.5q16 16 25.5 39.5t9.5 52.5q0 32 -12.5 55t-32.5 38q-21 15 -47 22.5t-53 9.5v39q61 4 98.5 32t37.5 78q0 51 -29 85t-86 34q-26 0 -48.5 -8t-44.5 -17v41z" />
    <glyph glyph-name="uni246D" unicode="&#x246d;" horiz-adv-x="1000" 
d="M47 376q0 93 35.5 175.5t96.5 144.5q61 61 143.5 96.5t177.5 35.5q94 0 176 -35.5t144 -96.5q61 -62 96.5 -144.5t35.5 -175.5t-35.5 -175.5t-96.5 -144.5q-62 -61 -144 -97t-176 -36q-95 0 -177.5 36t-143.5 97q-61 62 -96.5 144.5t-35.5 175.5zM90 376q0 -84 32.5 -159
t88.5 -130q55 -56 130 -88.5t159 -32.5t158.5 32.5t130.5 88.5q56 55 88.5 130t32.5 159t-32.5 158.5t-88.5 130.5t-130.5 88.5t-158.5 32.5t-159 -32.5t-130 -88.5q-56 -56 -88.5 -130.5t-32.5 -158.5zM244 649q27 2 54 5t57 8v-580h-40v534h-71v33zM477 303h205v273z
M722 663v-360h65v-42h-65v-173h-40v173h-257v32q37 48 71.5 94t68.5 91q33 45 67 91t72 94h18z" />
    <glyph glyph-name="uni246E" unicode="&#x246e;" horiz-adv-x="1000" 
d="M47 376q0 93 35.5 175.5t96.5 144.5q61 61 143.5 96.5t177.5 35.5q94 0 176 -35.5t144 -96.5q61 -62 96.5 -144.5t35.5 -175.5t-35.5 -175.5t-96.5 -144.5q-62 -61 -144 -97t-176 -36q-95 0 -177.5 36t-143.5 97q-61 62 -96.5 144.5t-35.5 175.5zM90 376q0 -84 32.5 -159
t88.5 -130q55 -56 130 -88.5t159 -32.5t158.5 32.5t130.5 88.5q56 55 88.5 130t32.5 159t-32.5 158.5t-88.5 130.5t-130.5 88.5t-158.5 32.5t-159 -32.5t-130 -88.5q-56 -56 -88.5 -130.5t-32.5 -158.5zM244 649q27 2 54 5t57 8v-580h-40v534h-71v33zM724 621h-184v-182
q42 3 81.5 -7t70.5 -32q30 -23 48.5 -57.5t18.5 -79.5q0 -41 -14.5 -74.5t-38.5 -58.5q-25 -25 -57.5 -38.5t-69.5 -13.5q-32 0 -60.5 6t-62.5 23v49q20 -16 52.5 -28.5t70.5 -12.5q27 0 51.5 9.5t44.5 28.5q19 19 30.5 46t11.5 62q0 37 -15.5 63.5t-39.5 43.5
q-24 16 -54.5 24t-60.5 8q-11 0 -22 -1t-23 -3v267h222v-42z" />
    <glyph glyph-name="uni2474" unicode="&#x2474;" horiz-adv-x="1000" 
d="M179 -34q-55 92 -92 194t-37 216t37 216t92 194h45q-23 -46 -45 -96t-39 -102q-17 -53 -27 -106.5t-10 -105.5q0 -53 10 -106.5t27 -105.5q16 -52 38 -102t46 -96h-45zM780 -34q24 46 46 96t39 102q16 52 26 105.5t10 106.5q0 52 -10 105.5t-27 106.5q-17 52 -39 102
t-45 96h45q55 -92 92 -194t37 -216t-37 -216t-92 -194h-45zM424 670q28 2 59.5 5.5t62.5 8.5v-616h-47v567h-75v35z" />
    <glyph glyph-name="uni2475" unicode="&#x2475;" horiz-adv-x="1000" 
d="M179 -34q-55 92 -92 194t-37 216t37 216t92 194h45q-23 -46 -45 -96t-39 -102q-17 -53 -27 -106.5t-10 -105.5q0 -53 10 -106.5t27 -105.5q16 -52 38 -102t46 -96h-45zM780 -34q24 46 46 96t39 102q16 52 26 105.5t10 106.5q0 52 -10 105.5t-27 106.5q-17 52 -39 102
t-45 96h45q55 -92 92 -194t37 -216t-37 -216t-92 -194h-45zM719 68h-381v20q57 55 118 122.5t106 137.5q28 43 43.5 79t15.5 71q0 32 -10 60t-29 49q-19 20 -46.5 32t-61.5 12q-37 0 -72.5 -20t-64.5 -46v54q33 26 70 40.5t72 14.5q39 0 73 -13.5t60 -37.5q25 -25 40 -59.5
t15 -75.5q0 -37 -11 -74t-34 -74q-11 -19 -30 -46t-44 -59q-26 -33 -58.5 -70t-70.5 -76h300v-41z" />
    <glyph glyph-name="uni2476" unicode="&#x2476;" horiz-adv-x="1000" 
d="M179 -34q-55 92 -92 194t-37 216t37 216t92 194h45q-23 -46 -45 -96t-39 -102q-17 -53 -27 -106.5t-10 -105.5q0 -53 10 -106.5t27 -105.5q16 -52 38 -102t46 -96h-45zM780 -34q24 46 46 96t39 102q16 52 26 105.5t10 106.5q0 52 -10 105.5t-27 106.5q-17 52 -39 102
t-45 96h45q55 -92 92 -194t37 -216t-37 -216t-92 -194h-45zM376 668q26 11 54.5 18.5t54.5 7.5q37 0 70.5 -8.5t58.5 -26.5q25 -19 39.5 -48t14.5 -69q0 -23 -5 -45t-18 -42q-14 -20 -37.5 -37t-59.5 -28q57 -17 94 -55.5t37 -96.5q0 -42 -15 -75.5t-41 -56.5
q-27 -23 -63.5 -35.5t-78.5 -12.5q-29 0 -62 6.5t-62 20.5v51q29 -20 64 -27.5t68 -7.5q29 0 55 9t46 27q19 17 30.5 41.5t11.5 55.5q0 34 -15 58t-39 40q-25 16 -55.5 24.5t-61.5 10.5v40q72 5 116 35t44 83q0 54 -34.5 90t-101.5 36q-30 0 -57 -8.5t-52 -17.5v43z" />
    <glyph glyph-name="uni2477" unicode="&#x2477;" horiz-adv-x="1000" 
d="M179 -34q-55 92 -92 194t-37 216t37 216t92 194h45q-23 -46 -45 -96t-39 -102q-17 -53 -27 -106.5t-10 -105.5q0 -53 10 -106.5t27 -105.5q16 -52 38 -102t46 -96h-45zM780 -34q24 46 46 96t39 102q16 52 26 105.5t10 106.5q0 52 -10 105.5t-27 106.5q-17 52 -39 102
t-45 96h45q55 -92 92 -194t37 -216t-37 -216t-92 -194h-45zM334 297h242v289zM623 679v-382h76v-45h-76v-184h-47v184h-303v34q44 51 84.5 99.5t80.5 96.5q39 48 79.5 97t84.5 100h21z" />
    <glyph glyph-name="uni2478" unicode="&#x2478;" horiz-adv-x="1000" 
d="M179 -34q-55 92 -92 194t-37 216t37 216t92 194h45q-23 -46 -45 -96t-39 -102q-17 -53 -27 -106.5t-10 -105.5q0 -53 10 -106.5t27 -105.5q16 -52 38 -102t46 -96h-45zM780 -34q24 46 46 96t39 102q16 52 26 105.5t10 106.5q0 52 -10 105.5t-27 106.5q-17 52 -39 102
t-45 96h45q55 -92 92 -194t37 -216t-37 -216t-92 -194h-45zM646 635h-217v-194q49 4 95.5 -7t82.5 -35t57.5 -60.5t21.5 -84.5q0 -43 -17 -79t-45 -62q-29 -26 -68 -40.5t-82 -14.5q-37 0 -71.5 6t-73.5 24v52q23 -17 61.5 -30t83.5 -13q31 0 60.5 10.5t52.5 30.5
q22 19 35.5 48t13.5 66q0 40 -18 68t-46 46q-29 18 -64.5 26t-71.5 8q-13 0 -26 -1.5t-27 -3.5v284h263v-44z" />
    <glyph glyph-name="uni2479" unicode="&#x2479;" horiz-adv-x="1000" 
d="M179 -34q-55 92 -92 194t-37 216t37 216t92 194h45q-23 -46 -45 -96t-39 -102q-17 -53 -27 -106.5t-10 -105.5q0 -53 10 -106.5t27 -105.5q16 -52 38 -102t46 -96h-45zM780 -34q24 46 46 96t39 102q16 52 26 105.5t10 106.5q0 52 -10 105.5t-27 106.5q-17 52 -39 102
t-45 96h45q55 -92 92 -194t37 -216t-37 -216t-92 -194h-45zM512 399q-46 0 -80 -18t-69 -50q-8 -33 -2.5 -72.5t24.5 -72.5q18 -34 48.5 -56.5t73.5 -22.5q30 0 56 11.5t45 31.5t29.5 46t10.5 56q0 28 -9.5 54.5t-27.5 47.5q-18 20 -43 32.5t-56 12.5zM310 290q0 64 19 124
t53 114q33 53 79.5 100t101.5 86l29 -37q-41 -26 -79 -61t-68 -75t-50 -82t-26 -81q34 34 77 47t78 13q36 0 68 -15t56 -40q23 -26 36.5 -60t13.5 -71q0 -36 -14.5 -69.5t-39.5 -58.5q-25 -26 -58.5 -41t-71.5 -15q-47 0 -84.5 17t-63.5 47q-27 30 -41.5 70.5t-14.5 87.5z
" />
    <glyph glyph-name="uni247A" unicode="&#x247a;" horiz-adv-x="1000" 
d="M179 -34q-55 92 -92 194t-37 216t37 216t92 194h45q-23 -46 -45 -96t-39 -102q-17 -53 -27 -106.5t-10 -105.5q0 -53 10 -106.5t27 -105.5q16 -52 38 -102t46 -96h-45zM780 -34q24 46 46 96t39 102q16 52 26 105.5t10 106.5q0 52 -10 105.5t-27 106.5q-17 52 -39 102
t-45 96h45q55 -92 92 -194t37 -216t-37 -216t-92 -194h-45zM430 43l-40 15l258 561h-323v44h397z" />
    <glyph glyph-name="uni247B" unicode="&#x247b;" horiz-adv-x="1000" 
d="M179 -34q-55 92 -92 194t-37 216t37 216t92 194h45q-23 -46 -45 -96t-39 -102q-17 -53 -27 -106.5t-10 -105.5q0 -53 10 -106.5t27 -105.5q16 -52 38 -102t46 -96h-45zM780 -34q24 46 46 96t39 102q16 52 26 105.5t10 106.5q0 52 -10 105.5t-27 106.5q-17 52 -39 102
t-45 96h45q55 -92 92 -194t37 -216t-37 -216t-92 -194h-45zM307 228q0 53 33 94.5t85 61.5q-45 20 -73 59.5t-28 88.5q0 34 14.5 64.5t40.5 53.5q25 22 59 35t73 13t73.5 -13t60.5 -35q25 -23 39.5 -53.5t14.5 -64.5q0 -50 -29 -90t-77 -60q51 -20 83 -61.5t32 -92.5
q0 -35 -16 -66t-43 -54t-63.5 -36.5t-78.5 -13.5q-41 0 -77.5 13.5t-63.5 36.5t-43 54t-16 66zM354 228q0 -26 12.5 -49.5t33.5 -40.5q21 -18 48.5 -28t58.5 -10t59 10t49 28q21 17 33.5 40.5t12.5 49.5q0 27 -12.5 50.5t-33.5 41.5q-21 17 -49 27t-59 10t-58.5 -10
t-48.5 -27q-21 -18 -33.5 -41.5t-12.5 -50.5zM371 532q0 -26 11.5 -48.5t30.5 -38.5q19 -17 44.5 -27t53.5 -10q29 0 54.5 10t45.5 27q19 16 30 38.5t11 48.5q0 25 -11 48t-30 40q-20 16 -45.5 26t-54.5 10q-28 0 -53.5 -10t-44.5 -26q-19 -17 -30.5 -40t-11.5 -48z" />
    <glyph glyph-name="uni247C" unicode="&#x247c;" horiz-adv-x="1000" 
d="M179 -34q-55 92 -92 194t-37 216t37 216t92 194h45q-23 -46 -45 -96t-39 -102q-17 -53 -27 -106.5t-10 -105.5q0 -53 10 -106.5t27 -105.5q16 -52 38 -102t46 -96h-45zM780 -34q24 46 46 96t39 102q16 52 26 105.5t10 106.5q0 52 -10 105.5t-27 106.5q-17 52 -39 102
t-45 96h45q55 -92 92 -194t37 -216t-37 -216t-92 -194h-45zM505 358q46 0 80 18t69 50q8 33 2.5 72.5t-23.5 73.5q-19 33 -49.5 55.5t-73.5 22.5q-30 0 -56 -11.5t-45 -31.5t-29.5 -46t-10.5 -56q0 -28 9.5 -54.5t27.5 -46.5q18 -21 43 -33.5t56 -12.5zM707 467
q0 -65 -19 -124.5t-52 -112.5q-34 -54 -80.5 -101t-101.5 -86l-29 37q41 25 79 60.5t68 75.5t50 82t26 81q-34 -34 -77 -47t-78 -13q-36 0 -68 15t-55 41q-24 25 -37.5 59t-13.5 71q0 36 14.5 69t39.5 59q25 25 58.5 40.5t71.5 15.5q47 0 84.5 -17t64.5 -47
q26 -30 40.5 -70.5t14.5 -87.5z" />
    <glyph glyph-name="uni247D" unicode="&#x247d;" horiz-adv-x="1000" 
d="M179 -34q-55 92 -92 194t-37 216t37 216t92 194h45q-23 -46 -45 -96t-39 -102q-17 -53 -27 -106.5t-10 -105.5q0 -53 10 -106.5t27 -105.5q16 -52 38 -102t46 -96h-45zM780 -34q24 46 46 96t39 102q16 52 26 105.5t10 106.5q0 52 -10 105.5t-27 106.5q-17 52 -39 102
t-45 96h45q55 -92 92 -194t37 -216t-37 -216t-92 -194h-45zM416 377q0 66 15 124t42 102q26 43 61 68t75 25t75.5 -25t62.5 -68q26 -44 41 -102t15 -124t-15 -124t-41 -101q-27 -44 -62.5 -69t-75.5 -25t-75 25t-61 69q-27 43 -42 101t-15 124zM458 377q0 -57 12 -107
t33 -88q20 -38 47.5 -60t58.5 -22t58.5 22t48.5 60t33 88t12 107t-12 107t-33 88t-48.5 60t-58.5 22t-58.5 -22t-47.5 -60q-21 -38 -33 -88t-12 -107zM230 670q25 2 53.5 5.5t56.5 8.5v-616h-42v567h-68v35z" />
    <glyph glyph-name="uni247E" unicode="&#x247e;" horiz-adv-x="1000" 
d="M179 -34q-55 92 -92 194t-37 216t37 216t92 194h45q-23 -46 -45 -96t-39 -102q-17 -53 -27 -106.5t-10 -105.5q0 -53 10 -106.5t27 -105.5q16 -52 38 -102t46 -96h-45zM780 -34q24 46 46 96t39 102q16 52 26 105.5t10 106.5q0 52 -10 105.5t-27 106.5q-17 52 -39 102
t-45 96h45q55 -92 92 -194t37 -216t-37 -216t-92 -194h-45zM276 670q25 2 53.5 5.5t56.5 8.5v-616h-42v567h-68v35zM586 670q25 2 53.5 5.5t56.5 8.5v-616h-42v567h-68v35z" />
    <glyph glyph-name="uni247F" unicode="&#x247f;" horiz-adv-x="1000" 
d="M179 -34q-55 92 -92 194t-37 216t37 216t92 194h45q-23 -46 -45 -96t-39 -102q-17 -53 -27 -106.5t-10 -105.5q0 -53 10 -106.5t27 -105.5q16 -52 38 -102t46 -96h-45zM780 -34q24 46 46 96t39 102q16 52 26 105.5t10 106.5q0 52 -10 105.5t-27 106.5q-17 52 -39 102
t-45 96h45q55 -92 92 -194t37 -216t-37 -216t-92 -194h-45zM226 670q25 2 53.5 5.5t56.5 8.5v-616h-42v567h-68v35zM790 68h-333v20q25 27 52.5 58t54.5 65q26 33 50.5 67.5t44.5 69.5q25 43 39 79t14 71q0 32 -9.5 60t-26.5 49q-17 20 -41.5 32t-55.5 12q-33 0 -65 -20
t-58 -46v54q30 26 63 40.5t65 14.5q35 0 65.5 -13.5t53.5 -37.5q23 -25 36.5 -59.5t13.5 -75.5q0 -75 -40 -148q-20 -38 -67 -105.5t-116 -145.5h260v-41z" />
    <glyph glyph-name="uni2480" unicode="&#x2480;" horiz-adv-x="1000" 
d="M179 -34q-55 92 -92 194t-37 216t37 216t92 194h45q-23 -46 -45 -96t-39 -102q-17 -53 -27 -106.5t-10 -105.5q0 -53 10 -106.5t27 -105.5q16 -52 38 -102t46 -96h-45zM780 -34q24 46 46 96t39 102q16 52 26 105.5t10 106.5q0 52 -10 105.5t-27 106.5q-17 52 -39 102
t-45 96h45q55 -92 92 -194t37 -216t-37 -216t-92 -194h-45zM226 670q25 2 53.5 5.5t56.5 8.5v-616h-42v567h-68v35zM490 668q24 11 49.5 18.5t48.5 7.5q33 0 63 -8.5t53 -26.5q22 -19 35.5 -48t13.5 -69q0 -23 -4.5 -45t-16.5 -42t-33 -37t-54 -28q51 -17 84.5 -55.5
t33.5 -96.5q0 -42 -13.5 -75.5t-37.5 -56.5t-56.5 -35.5t-70.5 -12.5q-26 0 -56 6.5t-56 20.5v51q26 -20 57.5 -27.5t61.5 -7.5q26 0 49.5 9t41.5 27q17 17 27.5 41.5t10.5 55.5q0 34 -14 58t-36 40t-49.5 24.5t-54.5 10.5v40q64 5 104 35t40 83q0 54 -31.5 90t-91.5 36
q-27 0 -51 -8.5t-47 -17.5v43z" />
    <glyph glyph-name="uni2481" unicode="&#x2481;" horiz-adv-x="1000" 
d="M179 -34q-55 92 -92 194t-37 216t37 216t92 194h45q-23 -46 -45 -96t-39 -102q-17 -53 -27 -106.5t-10 -105.5q0 -53 10 -106.5t27 -105.5q16 -52 38 -102t46 -96h-45zM780 -34q24 46 46 96t39 102q16 52 26 105.5t10 106.5q0 52 -10 105.5t-27 106.5q-17 52 -39 102
t-45 96h45q55 -92 92 -194t37 -216t-37 -216t-92 -194h-45zM226 670q25 2 53.5 5.5t56.5 8.5v-616h-42v567h-68v35zM469 297h218v289zM729 679v-382h69v-45h-69v-184h-42v184h-273v34q40 51 76 99.5t72 96.5t72 97t76 100h19z" />
    <glyph glyph-name="uni2482" unicode="&#x2482;" horiz-adv-x="1000" 
d="M179 -34q-55 92 -92 194t-37 216t37 216t92 194h45q-23 -46 -45 -96t-39 -102q-17 -53 -27 -106.5t-10 -105.5q0 -53 10 -106.5t27 -105.5q16 -52 38 -102t46 -96h-45zM780 -34q24 46 46 96t39 102q16 52 26 105.5t10 106.5q0 52 -10 105.5t-27 106.5q-17 52 -39 102
t-45 96h45q55 -92 92 -194t37 -216t-37 -216t-92 -194h-45zM226 670q25 2 53.5 5.5t56.5 8.5v-616h-42v567h-68v35zM742 635h-195v-194q45 4 86.5 -7t73.5 -35t51.5 -60.5t19.5 -84.5q0 -43 -15 -79t-41 -62t-61 -40.5t-74 -14.5q-33 0 -64 6t-66 24v52q21 -17 55 -30
t75 -13q28 0 54.5 10.5t47.5 30.5q20 19 32 48t12 66q0 40 -16 68t-41 46q-26 18 -58.5 26t-64.5 8q-11 0 -22.5 -1.5t-25.5 -3.5v284h237v-44z" />
    <glyph glyph-name="uni249C" unicode="&#x249c;" horiz-adv-x="1000" 
d="M179 -34q-55 92 -92 194t-37 216t37 216t92 194h45q-23 -46 -45 -96t-39 -102q-17 -53 -27 -106.5t-10 -105.5q0 -53 10 -106.5t27 -105.5q16 -52 38 -102t46 -96h-45zM780 -34q24 46 46 96t39 102q16 52 26 105.5t10 106.5q0 52 -10 105.5t-27 106.5q-17 52 -39 102
t-45 96h45q55 -92 92 -194t37 -216t-37 -216t-92 -194h-45zM370 597q19 3 37 6q16 2 34.5 4.5t33.5 2.5q88 2 137 -33t49 -108v-156q-1 -66 6.5 -108t15.5 -67h-57q-3 8 -7 18.5t-6 18.5q-44 -25 -80.5 -33.5t-79.5 -8.5q-33 0 -63.5 10t-52.5 31q-23 20 -34 49.5t-5 68.5
q6 38 32.5 64.5t65.5 43.5q38 17 83.5 25t89.5 8q22 0 32 8.5t10 37.5q0 27 -11 44t-30 28q-19 10 -43 14t-50 4q-29 0 -57 -5t-49 -11zM493 175q22 0 41 4.5t34 11.5t26 13.5t17 11.5v180q-32 1 -77 0t-86 -12t-69.5 -37t-28.5 -74q0 -51 37 -74.5t106 -23.5z" />
    <glyph glyph-name="uni249D" unicode="&#x249d;" horiz-adv-x="1000" 
d="M179 -34q-55 92 -92 194t-37 216t37 216t92 194h45q-23 -46 -45 -96t-39 -102q-17 -53 -27 -106.5t-10 -105.5q0 -53 10 -106.5t27 -105.5q16 -52 38 -102t46 -96h-45zM780 -34q24 46 46 96t39 102q16 52 26 105.5t10 106.5q0 52 -10 105.5t-27 106.5q-17 52 -39 102
t-45 96h45q55 -92 92 -194t37 -216t-37 -216t-92 -194h-45zM528 500q-23 0 -46 -6t-43 -17q-21 -11 -38 -26.5t-27 -35.5q-8 -15 -13 -41t-7 -61v-191q12 -5 28.5 -8.5t33.5 -5.5q17 -3 33.5 -4.5t29.5 -1.5q51 0 93 16t73 45q30 28 47 66.5t17 82.5q0 35 -12.5 69t-35.5 61
q-24 26 -57.5 42t-75.5 16zM759 301q0 -56 -23 -100t-62 -75q-40 -31 -93 -47.5t-112 -16.5q-7 0 -24.5 1.5t-39.5 4.5q-23 3 -49 8t-51 13v650h49v-287q39 49 88.5 68.5t95.5 19.5q51 0 91.5 -20t69.5 -53q29 -34 44.5 -77t15.5 -89z" />
    <glyph glyph-name="uni249E" unicode="&#x249e;" horiz-adv-x="1000" 
d="M179 -34q-55 92 -92 194t-37 216t37 216t92 194h45q-23 -46 -45 -96t-39 -102q-17 -53 -27 -106.5t-10 -105.5q0 -53 10 -106.5t27 -105.5q16 -52 38 -102t46 -96h-45zM780 -34q24 46 46 96t39 102q16 52 26 105.5t10 106.5q0 52 -10 105.5t-27 106.5q-17 52 -39 102
t-45 96h45q55 -92 92 -194t37 -216t-37 -216t-92 -194h-45zM578 165q24 0 50 5.5t46 15.5v-43q-20 -7 -52 -12.5t-69 -4.5q-53 1 -101 18.5t-84 48.5t-57.5 73t-21.5 92q0 60 21 106t58 78q37 31 88 47.5t111 16.5q27 0 55.5 -5t45.5 -12v-53q-13 9 -31 16q-15 6 -37.5 11
t-51.5 5q-36 0 -72 -13.5t-65 -38.5q-30 -25 -48.5 -61t-18.5 -81q0 -58 20.5 -98t53.5 -64q33 -25 75 -36t85 -11z" />
    <glyph glyph-name="uni249F" unicode="&#x249f;" horiz-adv-x="1000" 
d="M179 -34q-55 92 -92 194t-37 216t37 216t92 194h45q-23 -46 -45 -96t-39 -102q-17 -53 -27 -106.5t-10 -105.5q0 -53 10 -106.5t27 -105.5q16 -52 38 -102t46 -96h-45zM780 -34q24 46 46 96t39 102q16 52 26 105.5t10 106.5q0 52 -10 105.5t-27 106.5q-17 52 -39 102
t-45 96h45q55 -92 92 -194t37 -216t-37 -216t-92 -194h-45zM482 500q-42 0 -75.5 -16t-56.5 -42q-24 -27 -36.5 -61t-12.5 -69q0 -44 17 -82.5t48 -66.5q30 -29 72 -45t93 -16q13 0 29.5 1.5t33.5 4.5q17 2 33.5 5.5t28.5 8.5v191q-2 35 -7 61t-13 41q-10 20 -27 35.5
t-37 26.5q-21 11 -44.5 17t-45.5 6zM251 301q0 46 15.5 89t44.5 77q29 33 69.5 53t91.5 20q46 0 95.5 -19.5t88.5 -68.5v287h49v-650q-25 -8 -51 -13t-48 -8q-23 -3 -40.5 -4.5t-24.5 -1.5q-59 0 -112 16.5t-92 47.5q-40 31 -63 75t-23 100z" />
    <glyph glyph-name="uni24A0" unicode="&#x24a0;" horiz-adv-x="1000" 
d="M179 -34q-55 92 -92 194t-37 216t37 216t92 194h45q-23 -46 -45 -96t-39 -102q-17 -53 -27 -106.5t-10 -105.5q0 -53 10 -106.5t27 -105.5q16 -52 38 -102t46 -96h-45zM780 -34q24 46 46 96t39 102q16 52 26 105.5t10 106.5q0 52 -10 105.5t-27 106.5q-17 52 -39 102
t-45 96h45q55 -92 92 -194t37 -216t-37 -216t-92 -194h-45zM705 166q-10 -5 -26 -12t-37 -13t-46.5 -10.5t-52.5 -4.5q-57 0 -107 18t-88 50t-60 76.5t-22 98.5q0 44 17.5 87t49.5 77q31 33 75 54t98 21q48 0 88.5 -16.5t69.5 -46.5q28 -30 43 -71.5t13 -91.5h-403
q-2 -51 14.5 -90t48.5 -66q31 -27 75 -41.5t97 -15.5q48 -1 87.5 14t66.5 33zM673 422q0 26 -11 52.5t-33 47.5t-55.5 34t-78.5 13q-35 0 -63.5 -13t-49.5 -33q-22 -21 -37.5 -47.5t-22.5 -53.5h351z" />
    <glyph glyph-name="uni24A1" unicode="&#x24a1;" horiz-adv-x="1000" 
d="M179 -34q-55 92 -92 194t-37 216t37 216t92 194h45q-23 -46 -45 -96t-39 -102q-17 -53 -27 -106.5t-10 -105.5q0 -53 10 -106.5t27 -105.5q16 -52 38 -102t46 -96h-45zM780 -34q24 46 46 96t39 102q16 52 26 105.5t10 106.5q0 52 -10 105.5t-27 106.5q-17 52 -39 102
t-45 96h45q55 -92 92 -194t37 -216t-37 -216t-92 -194h-45zM668 650q-51 1 -81 -3t-52 -21q-28 -22 -28 -79v-71h144v-45h-144v-393h-49v393h-104v45h104v36q0 16 0.5 34t3.5 36t9 34.5t18 29.5q14 16 30.5 25.5t37.5 15.5q21 5 48 7t62 2z" />
    <glyph glyph-name="uni24A2" unicode="&#x24a2;" horiz-adv-x="1000" 
d="M179 -34q-55 92 -92 194t-37 216t37 216t92 194h45q-23 -46 -45 -96t-39 -102q-17 -53 -27 -106.5t-10 -105.5q0 -53 10 -106.5t27 -105.5q16 -52 38 -102t46 -96h-45zM780 -34q24 46 46 96t39 102q16 52 26 105.5t10 106.5q0 52 -10 105.5t-27 106.5q-17 52 -39 102
t-45 96h45q55 -92 92 -194t37 -216t-37 -216t-92 -194h-45zM258 198q1 29 30 59.5t76 53.5q-8 14 -14.5 25t-6.5 21q0 5 5 11t13 10q18 10 40 20q11 5 24 10q-24 6 -47.5 16t-42.5 26q-19 15 -30.5 36.5t-11.5 50.5q0 33 15.5 57.5t41.5 41.5q25 16 57 24.5t65 8.5h252
q-8 -12 -10 -18.5t-5 -14.5l-138 -1q21 -10 36 -24t25 -29q10 -16 14.5 -31t4.5 -28q0 -31 -15 -52.5t-38 -35.5q-24 -14 -52.5 -22t-56.5 -12q-14 -2 -28.5 -6.5t-25.5 -9.5q-12 -5 -19.5 -11t-6.5 -10q0 -5 2.5 -11t11.5 -11q8 -6 25.5 -10t49.5 -4q55 0 99.5 -6t76.5 -21
q31 -15 47.5 -40t16.5 -63q0 -27 -19 -51t-51 -42q-33 -18 -76.5 -28t-93.5 -10q-54 0 -99 8t-76 25q-32 16 -49 40.5t-16 57.5zM311 200q0 -50 52 -74t137 -23q40 0 74 6t59 18t39 30t14 43q0 53 -49.5 74.5t-136.5 21.5q-36 0 -70 -5.5t-60 -16.5q-27 -12 -43 -30t-16 -44
zM342 548q0 -25 12 -45.5t32 -34.5q19 -15 44 -23t51 -8q22 0 43.5 5t38.5 17q17 11 28 28.5t11 41.5q0 25 -12.5 45t-31.5 34q-20 13 -45.5 20.5t-50.5 7.5q-20 0 -41.5 -5.5t-38.5 -15.5q-18 -11 -29 -28t-11 -39z" />
    <glyph glyph-name="uni24A3" unicode="&#x24a3;" horiz-adv-x="1000" 
d="M179 -34q-55 92 -92 194t-37 216t37 216t92 194h45q-23 -46 -45 -96t-39 -102q-17 -53 -27 -106.5t-10 -105.5q0 -53 10 -106.5t27 -105.5q16 -52 38 -102t46 -96h-45zM780 -34q24 46 46 96t39 102q16 52 26 105.5t10 106.5q0 52 -10 105.5t-27 106.5q-17 52 -39 102
t-45 96h45q55 -92 92 -194t37 -216t-37 -216t-92 -194h-45zM657 318q0 48 -10 80t-28 51q-18 18 -43.5 25.5t-56.5 7.5q-30 0 -57.5 -14.5t-48.5 -38.5q-21 -25 -33.5 -57t-12.5 -66v-248h-47v670h47v-304q29 45 76.5 73t105.5 28q32 0 60.5 -11.5t50.5 -34.5
q21 -24 33.5 -60.5t12.5 -87.5v-273h-49v260z" />
    <glyph glyph-name="uni24A4" unicode="&#x24a4;" horiz-adv-x="1000" 
d="M179 -34q-55 92 -92 194t-37 216t37 216t92 194h45q-23 -46 -45 -96t-39 -102q-17 -53 -27 -106.5t-10 -105.5q0 -53 10 -106.5t27 -105.5q16 -52 38 -102t46 -96h-45zM780 -34q24 46 46 96t39 102q16 52 26 105.5t10 106.5q0 52 -10 105.5t-27 106.5q-17 52 -39 102
t-45 96h45q55 -92 92 -194t37 -216t-37 -216t-92 -194h-45zM457 654q0 19 12.5 32t31.5 13t31.5 -13t12.5 -32q0 -18 -12.5 -31t-31.5 -13t-31.5 13t-12.5 31zM522 68h-46v448h46v-448z" />
    <glyph glyph-name="uni24A5" unicode="&#x24a5;" horiz-adv-x="1000" 
d="M179 -34q-55 92 -92 194t-37 216t37 216t92 194h45q-23 -46 -45 -96t-39 -102q-17 -53 -27 -106.5t-10 -105.5q0 -53 10 -106.5t27 -105.5q16 -52 38 -102t46 -96h-45zM780 -34q24 46 46 96t39 102q16 52 26 105.5t10 106.5q0 52 -10 105.5t-27 106.5q-17 52 -39 102
t-45 96h45q55 -92 92 -194t37 -216t-37 -216t-92 -194h-45zM556 203q0 -50 -7 -87t-26 -62q-19 -24 -51.5 -37t-83.5 -14v43q40 0 64.5 10.5t37.5 30.5q12 20 16 48.5t4 64.5v315h46v-312zM488 676q0 18 13 31t32 13q18 0 31 -13t13 -31q0 -19 -13 -32t-31 -13q-19 0 -32 13
t-13 32z" />
    <glyph glyph-name="uni24A6" unicode="&#x24a6;" horiz-adv-x="1000" 
d="M179 -34q-55 92 -92 194t-37 216t37 216t92 194h45q-23 -46 -45 -96t-39 -102q-17 -53 -27 -106.5t-10 -105.5q0 -53 10 -106.5t27 -105.5q16 -52 38 -102t46 -96h-45zM780 -34q24 46 46 96t39 102q16 52 26 105.5t10 106.5q0 52 -10 105.5t-27 106.5q-17 52 -39 102
t-45 96h45q55 -92 92 -194t37 -216t-37 -216t-92 -194h-45zM392 728v-660h-48v660h48zM680 107q11 -11 26 -22.5t28 -16.5h-34q-26 0 -49.5 15t-47.5 38l-208 202l246 213h52q-65 -55 -117 -100q-22 -19 -43.5 -38t-38.5 -34t-28.5 -25.5t-12.5 -12.5z" />
    <glyph glyph-name="uni24A7" unicode="&#x24a7;" horiz-adv-x="1000" 
d="M179 -34q-55 92 -92 194t-37 216t37 216t92 194h45q-23 -46 -45 -96t-39 -102q-17 -53 -27 -106.5t-10 -105.5q0 -53 10 -106.5t27 -105.5q16 -52 38 -102t46 -96h-45zM780 -34q24 46 46 96t39 102q16 52 26 105.5t10 106.5q0 52 -10 105.5t-27 106.5q-17 52 -39 102
t-45 96h45q55 -92 92 -194t37 -216t-37 -216t-92 -194h-45zM521 58h-48v660h48v-660z" />
    <glyph glyph-name="uni24A8" unicode="&#x24a8;" horiz-adv-x="1000" 
d="M179 -34q-55 92 -92 194t-37 216t37 216t92 194h45q-23 -46 -45 -96t-39 -102q-17 -53 -27 -106.5t-10 -105.5q0 -53 10 -106.5t27 -105.5q16 -52 38 -102t46 -96h-45zM780 -34q24 46 46 96t39 102q16 52 26 105.5t10 106.5q0 52 -10 105.5t-27 106.5q-17 52 -39 102
t-45 96h45q55 -92 92 -194t37 -216t-37 -216t-92 -194h-45zM732 383q0 96 -26.5 142t-77.5 46q-32 0 -52.5 -22.5t-31.5 -52.5q-12 -31 -16.5 -64t-4.5 -54v-237h-42v252q0 30 -6 61t-18 57t-31 42.5t-46 16.5q-26 0 -45.5 -21t-32.5 -52q-14 -32 -21 -68t-7 -65v-223h-43
v463h43v-112q10 33 24.5 56.5t31.5 38.5t35 21.5t34 5.5q35 -1 60 -28.5t48 -84.5q26 57 62 85t71 28q33 0 57.5 -17t41.5 -46t25.5 -68t8.5 -83v-259h-41v242z" />
    <glyph glyph-name="uni24A9" unicode="&#x24a9;" horiz-adv-x="1000" 
d="M179 -34q-55 92 -92 194t-37 216t37 216t92 194h45q-23 -46 -45 -96t-39 -102q-17 -53 -27 -106.5t-10 -105.5q0 -53 10 -106.5t27 -105.5q16 -52 38 -102t46 -96h-45zM780 -34q24 46 46 96t39 102q16 52 26 105.5t10 106.5q0 52 -10 105.5t-27 106.5q-17 52 -39 102
t-45 96h45q55 -92 92 -194t37 -216t-37 -216t-92 -194h-45zM651 141v248q0 34 -6.5 67t-21.5 59q-16 26 -43 41.5t-68 14.5q-26 -1 -52.5 -16.5t-47.5 -39.5q-22 -25 -35.5 -55.5t-13.5 -61.5v-257h-49v467h49v-118q12 31 32.5 54t45.5 39q24 15 49 23t45 8q44 0 75 -16.5
t51 -45.5q19 -29 28 -68.5t10 -84.5v-258h-48z" />
    <glyph glyph-name="uni24AA" unicode="&#x24aa;" horiz-adv-x="1000" 
d="M179 -34q-55 92 -92 194t-37 216t37 216t92 194h45q-23 -46 -45 -96t-39 -102q-17 -53 -27 -106.5t-10 -105.5q0 -53 10 -106.5t27 -105.5q16 -52 38 -102t46 -96h-45zM780 -34q24 46 46 96t39 102q16 52 26 105.5t10 106.5q0 52 -10 105.5t-27 106.5q-17 52 -39 102
t-45 96h45q55 -92 92 -194t37 -216t-37 -216t-92 -194h-45zM257 369q0 49 19 93t52 77q33 32 77 51t95 19t95 -19t77 -51q33 -33 52 -77t19 -93q0 -50 -19 -93.5t-52 -75.5q-33 -33 -77 -52t-95 -19t-95 19t-77 52q-33 32 -52 75.5t-19 93.5zM305 368q0 -41 15 -77t42 -63
q26 -27 61 -42.5t76 -15.5q40 0 76 15.5t63 42.5q26 27 41.5 63t15.5 77t-15.5 77.5t-41.5 63.5q-27 27 -63 42.5t-76 15.5q-41 0 -76 -15.5t-61 -42.5q-27 -27 -42 -63.5t-15 -77.5z" />
    <glyph glyph-name="uni24AB" unicode="&#x24ab;" horiz-adv-x="1000" 
d="M179 -34q-55 92 -92 194t-37 216t37 216t92 194h45q-23 -46 -45 -96t-39 -102q-17 -53 -27 -106.5t-10 -105.5q0 -53 10 -106.5t27 -105.5q16 -52 38 -102t46 -96h-45zM780 -34q24 46 46 96t39 102q16 52 26 105.5t10 106.5q0 52 -10 105.5t-27 106.5q-17 52 -39 102
t-45 96h45q55 -92 92 -194t37 -216t-37 -216t-92 -194h-45zM496 682q67 0 116.5 -16t82.5 -44q33 -29 49 -68.5t16 -87.5q0 -39 -18 -72.5t-49 -58.5q-32 -25 -74 -40t-89 -16q-24 -1 -48.5 2.5t-47.5 8.5t-42.5 11t-32.5 11v-250h-49v594q28 8 57.5 13t55.5 8t45.5 4
t27.5 1zM512 318q45 -1 81.5 12t63.5 34q26 21 40 48.5t14 56.5q0 78 -57.5 125t-157.5 49q-29 1 -65.5 -3t-71.5 -12v-273q10 -6 27.5 -12t38.5 -11q20 -6 42.5 -10t44.5 -4z" />
    <glyph glyph-name="uni24AC" unicode="&#x24ac;" horiz-adv-x="1000" 
d="M179 -34q-55 92 -92 194t-37 216t37 216t92 194h45q-23 -46 -45 -96t-39 -102q-17 -53 -27 -106.5t-10 -105.5q0 -53 10 -106.5t27 -105.5q16 -52 38 -102t46 -96h-45zM780 -34q24 46 46 96t39 102q16 52 26 105.5t10 106.5q0 52 -10 105.5t-27 106.5q-17 52 -39 102
t-45 96h45q55 -92 92 -194t37 -216t-37 -216t-92 -194h-45zM507 682q7 0 27 -1t46 -4t55.5 -8t57.5 -13v-594h-49v250q-13 -5 -32.5 -11t-42.5 -11t-47.5 -8.5t-48.5 -2.5q-47 1 -89 16t-73 40q-32 25 -50 58.5t-18 72.5q0 48 16 87.5t49 68.5q33 28 82.5 44t116.5 16z
M491 318q22 0 44.5 4t43.5 10q20 5 37 11t28 12v273q-35 8 -71.5 12t-65.5 3q-50 -1 -90 -13.5t-68 -34.5q-28 -23 -42.5 -55t-14.5 -71q0 -29 14 -56.5t41 -48.5q26 -21 62.5 -34t81.5 -12z" />
    <glyph glyph-name="uni24AD" unicode="&#x24ad;" horiz-adv-x="1000" 
d="M179 -34q-55 92 -92 194t-37 216t37 216t92 194h45q-23 -46 -45 -96t-39 -102q-17 -53 -27 -106.5t-10 -105.5q0 -53 10 -106.5t27 -105.5q16 -52 38 -102t46 -96h-45zM780 -34q24 46 46 96t39 102q16 52 26 105.5t10 106.5q0 52 -10 105.5t-27 106.5q-17 52 -39 102
t-45 96h45q55 -92 92 -194t37 -216t-37 -216t-92 -194h-45zM643 548q-177 8 -177 -189q0 -60 -0.5 -114.5t-0.5 -114.5h-46v464h47v-112q7 25 24.5 46.5t41.5 37.5t53 25t58 9v-52z" />
    <glyph glyph-name="uni24AE" unicode="&#x24ae;" horiz-adv-x="1000" 
d="M179 -34q-55 92 -92 194t-37 216t37 216t92 194h45q-23 -46 -45 -96t-39 -102q-17 -53 -27 -106.5t-10 -105.5q0 -53 10 -106.5t27 -105.5q16 -52 38 -102t46 -96h-45zM780 -34q24 46 46 96t39 102q16 52 26 105.5t10 106.5q0 52 -10 105.5t-27 106.5q-17 52 -39 102
t-45 96h45q55 -92 92 -194t37 -216t-37 -216t-92 -194h-45zM623 363q31 -16 49.5 -42.5t18.5 -60.5q0 -37 -20 -63t-51 -42t-69 -23t-75 -7q-32 0 -71.5 7t-65.5 22v50q29 -18 70.5 -29t76.5 -11q19 0 45.5 4t50.5 14q24 9 40.5 25t16.5 41q0 21 -13.5 44.5t-50.5 40.5
q-9 4 -28 10.5t-42 15.5q-23 8 -47 18t-44 22q-25 15 -46 36.5t-21 60.5q0 30 18.5 52t46.5 37q28 14 61.5 20.5t64.5 6.5q26 0 49 -2t46 -6v-51q-19 5 -37 9q-16 4 -34.5 7t-35.5 3q-24 0 -46.5 -4.5t-39.5 -12.5q-18 -9 -29 -21t-11 -28q0 -21 17 -44.5t62 -42.5
q17 -8 36.5 -15.5t39.5 -13.5q19 -7 36.5 -14t31.5 -13z" />
    <glyph glyph-name="uni24AF" unicode="&#x24af;" horiz-adv-x="1000" 
d="M179 -34q-55 92 -92 194t-37 216t37 216t92 194h45q-23 -46 -45 -96t-39 -102q-17 -53 -27 -106.5t-10 -105.5q0 -53 10 -106.5t27 -105.5q16 -52 38 -102t46 -96h-45zM780 -34q24 46 46 96t39 102q16 52 26 105.5t10 106.5q0 52 -10 105.5t-27 106.5q-17 52 -39 102
t-45 96h45q55 -92 92 -194t37 -216t-37 -216t-92 -194h-45zM640 64q-57 3 -93.5 13.5t-57.5 33.5q-22 22 -30 59t-8 92v219h-98v41h99v158h46v-158h136v-42l-136 1v-210q0 -38 3 -68t17 -51q13 -21 42 -32.5t81 -12.5z" />
    <glyph glyph-name="uni24B0" unicode="&#x24b0;" horiz-adv-x="1000" 
d="M179 -34q-55 92 -92 194t-37 216t37 216t92 194h45q-23 -46 -45 -96t-39 -102q-17 -53 -27 -106.5t-10 -105.5q0 -53 10 -106.5t27 -105.5q16 -52 38 -102t46 -96h-45zM780 -34q24 46 46 96t39 102q16 52 26 105.5t10 106.5q0 52 -10 105.5t-27 106.5q-17 52 -39 102
t-45 96h45q55 -92 92 -194t37 -216t-37 -216t-92 -194h-45zM643 141v106q-28 -48 -75 -82t-106 -34q-157 0 -160 197v266h47v-239q0 -88 28.5 -134.5t99.5 -46.5q29 0 58 14t53 38q24 23 39 52t16 59v257h47v-453h-47z" />
    <glyph glyph-name="uni24B1" unicode="&#x24b1;" horiz-adv-x="1000" 
d="M179 -34q-55 92 -92 194t-37 216t37 216t92 194h45q-23 -46 -45 -96t-39 -102q-17 -53 -27 -106.5t-10 -105.5q0 -53 10 -106.5t27 -105.5q16 -52 38 -102t46 -96h-45zM780 -34q24 46 46 96t39 102q16 52 26 105.5t10 106.5q0 52 -10 105.5t-27 106.5q-17 52 -39 102
t-45 96h45q55 -92 92 -194t37 -216t-37 -216t-92 -194h-45zM741 596l-216 -455h-51l-215 455h58l188 -411l195 411h41z" />
    <glyph glyph-name="uni24B2" unicode="&#x24b2;" horiz-adv-x="1000" 
d="M179 -34q-55 92 -92 194t-37 216t37 216t92 194h45q-23 -46 -45 -96t-39 -102q-17 -53 -27 -106.5t-10 -105.5q0 -53 10 -106.5t27 -105.5q16 -52 38 -102t46 -96h-45zM780 -34q24 46 46 96t39 102q16 52 26 105.5t10 106.5q0 52 -10 105.5t-27 106.5q-17 52 -39 102
t-45 96h45q55 -92 92 -194t37 -216t-37 -216t-92 -194h-45zM836 594l-168 -453h-40q-33 101 -59 185q-11 35 -22.5 70t-20.5 64q-9 28 -15.5 48t-8.5 26q-3 -7 -12 -34t-21 -65q-13 -39 -27.5 -83t-28.5 -85q-14 -42 -25.5 -75.5t-18.5 -50.5h-45l-157 453l54 1l129 -396
l134 395h48l125 -394l138 394h41z" />
    <glyph glyph-name="uni24B3" unicode="&#x24b3;" horiz-adv-x="1000" 
d="M179 -34q-55 92 -92 194t-37 216t37 216t92 194h45q-23 -46 -45 -96t-39 -102q-17 -53 -27 -106.5t-10 -105.5q0 -53 10 -106.5t27 -105.5q16 -52 38 -102t46 -96h-45zM780 -34q24 46 46 96t39 102q16 52 26 105.5t10 106.5q0 52 -10 105.5t-27 106.5q-17 52 -39 102
t-45 96h45q55 -92 92 -194t37 -216t-37 -216t-92 -194h-45zM673 198q17 -19 32.5 -34.5t26.5 -22.5h-38q-11 0 -30 7.5t-36 30.5l-136 172l-192 -210h-51l221 241l-177 226h65l146 -193l171 193h46l-195 -220z" />
    <glyph glyph-name="uni24B4" unicode="&#x24b4;" horiz-adv-x="1000" 
d="M179 -34q-55 92 -92 194t-37 216t37 216t92 194h45q-23 -46 -45 -96t-39 -102q-17 -53 -27 -106.5t-10 -105.5q0 -53 10 -106.5t27 -105.5q16 -52 38 -102t46 -96h-45zM780 -34q24 46 46 96t39 102q16 52 26 105.5t10 106.5q0 52 -10 105.5t-27 106.5q-17 52 -39 102
t-45 96h45q55 -92 92 -194t37 -216t-37 -216t-92 -194h-45zM716 648l-164 -401q-9 -23 -20 -47.5t-23 -46.5q-12 -23 -25 -41t-26 -27q-10 -7 -21.5 -13t-26.5 -10q-15 -5 -34.5 -8t-46.5 -4l-22 37q50 0 86 8.5t60 34.5q9 10 18.5 26t19.5 34q9 18 17.5 37.5t14.5 36.5
q-48 98 -97 191.5t-98 192.5h48l168 -328l131 328h41z" />
    <glyph glyph-name="uni24B5" unicode="&#x24b5;" horiz-adv-x="1000" 
d="M179 -34q-55 92 -92 194t-37 216t37 216t92 194h45q-23 -46 -45 -96t-39 -102q-17 -53 -27 -106.5t-10 -105.5q0 -53 10 -106.5t27 -105.5q16 -52 38 -102t46 -96h-45zM780 -34q24 46 46 96t39 102q16 52 26 105.5t10 106.5q0 52 -10 105.5t-27 106.5q-17 52 -39 102
t-45 96h45q55 -92 92 -194t37 -216t-37 -216t-92 -194h-45zM700 181v-40h-418l317 415h-281v42h368l-317 -417h331z" />
    <glyph glyph-name="uni24D0" unicode="&#x24d0;" horiz-adv-x="1000" 
d="M47 376q0 93 35.5 175.5t96.5 144.5q61 61 143.5 96.5t177.5 35.5q94 0 176 -35.5t144 -96.5q61 -62 96.5 -144.5t35.5 -175.5t-35.5 -175.5t-96.5 -144.5q-62 -61 -144 -97t-176 -36q-95 0 -177.5 36t-143.5 97q-61 62 -96.5 144.5t-35.5 175.5zM90 376q0 -84 32.5 -159
t88.5 -130q55 -56 130 -88.5t159 -32.5t158.5 32.5t130.5 88.5q56 55 88.5 130t32.5 159t-32.5 158.5t-88.5 130.5t-130.5 88.5t-158.5 32.5t-159 -32.5t-130 -88.5q-56 -56 -88.5 -130.5t-32.5 -158.5zM370 600q19 3 37 6q16 2 34.5 4.5t33.5 2.5q88 2 137 -33t49 -108
v-156q-1 -66 6.5 -108t15.5 -67h-57q-3 8 -7 18.5t-6 18.5q-44 -25 -80.5 -33.5t-79.5 -8.5q-33 0 -63.5 10t-52.5 31q-23 20 -34 49.5t-5 68.5q6 38 32.5 64.5t65.5 43.5q38 17 83.5 25t89.5 8q22 0 32 8.5t10 37.5q0 27 -11 44t-30 28q-19 10 -43 14t-50 4q-29 0 -57 -5
t-49 -11zM493 178q22 0 41 4.5t34 11.5t26 13.5t17 11.5v180q-32 1 -77 0t-86 -12t-69.5 -37t-28.5 -74q0 -51 37 -74.5t106 -23.5z" />
    <glyph glyph-name="uni24D1" unicode="&#x24d1;" horiz-adv-x="1000" 
d="M47 376q0 93 35.5 175.5t96.5 144.5q61 61 143.5 96.5t177.5 35.5q94 0 176 -35.5t144 -96.5q61 -62 96.5 -144.5t35.5 -175.5t-35.5 -175.5t-96.5 -144.5q-62 -61 -144 -97t-176 -36q-95 0 -177.5 36t-143.5 97q-61 62 -96.5 144.5t-35.5 175.5zM90 376q0 -84 32.5 -159
t88.5 -130q55 -56 130 -88.5t159 -32.5t158.5 32.5t130.5 88.5q56 55 88.5 130t32.5 159t-32.5 158.5t-88.5 130.5t-130.5 88.5t-158.5 32.5t-159 -32.5t-130 -88.5q-56 -56 -88.5 -130.5t-32.5 -158.5zM528 494q-21 0 -42.5 -5.5t-40.5 -15.5q-20 -11 -36 -25.5t-26 -33.5
q-7 -14 -11.5 -39t-6.5 -57v-179q12 -5 27 -8.5t31 -5.5q16 -3 31.5 -4t27.5 -1q48 0 87.5 15t68.5 42q28 26 44 62t16 78q0 33 -12 65t-34 57t-53.5 40t-70.5 15zM745 307q0 -52 -21.5 -93.5t-58.5 -70.5q-38 -30 -87.5 -45.5t-104.5 -15.5q-7 0 -23 1t-37 4q-22 3 -46.5 8
t-47.5 13v590h46v-249q37 46 83 64.5t90 18.5q48 0 86 -19t65 -50t41.5 -72t14.5 -84z" />
    <glyph glyph-name="uni24D2" unicode="&#x24d2;" horiz-adv-x="1000" 
d="M47 376q0 93 35.5 175.5t96.5 144.5q61 61 143.5 96.5t177.5 35.5q94 0 176 -35.5t144 -96.5q61 -62 96.5 -144.5t35.5 -175.5t-35.5 -175.5t-96.5 -144.5q-62 -61 -144 -97t-176 -36q-95 0 -177.5 36t-143.5 97q-61 62 -96.5 144.5t-35.5 175.5zM90 376q0 -84 32.5 -159
t88.5 -130q55 -56 130 -88.5t159 -32.5t158.5 32.5t130.5 88.5q56 55 88.5 130t32.5 159t-32.5 158.5t-88.5 130.5t-130.5 88.5t-158.5 32.5t-159 -32.5t-130 -88.5q-56 -56 -88.5 -130.5t-32.5 -158.5zM578 165q24 0 50 5.5t46 15.5v-43q-20 -7 -52 -12.5t-69 -4.5
q-53 1 -101 18.5t-84 48.5t-57.5 73t-21.5 92q0 60 21 106t58 78q37 31 88 47.5t111 16.5q27 0 55.5 -5t45.5 -12v-53q-13 9 -31 16q-15 6 -37.5 11t-51.5 5q-36 0 -72 -13.5t-65 -38.5q-30 -25 -48.5 -61t-18.5 -81q0 -58 20.5 -98t53.5 -64q33 -25 75 -36t85 -11z" />
    <glyph glyph-name="uni24D3" unicode="&#x24d3;" horiz-adv-x="1000" 
d="M47 376q0 93 35.5 175.5t96.5 144.5q61 61 143.5 96.5t177.5 35.5q94 0 176 -35.5t144 -96.5q61 -62 96.5 -144.5t35.5 -175.5t-35.5 -175.5t-96.5 -144.5q-62 -61 -144 -97t-176 -36q-95 0 -177.5 36t-143.5 97q-61 62 -96.5 144.5t-35.5 175.5zM90 376q0 -84 32.5 -159
t88.5 -130q55 -56 130 -88.5t159 -32.5t158.5 32.5t130.5 88.5q56 55 88.5 130t32.5 159t-32.5 158.5t-88.5 130.5t-130.5 88.5t-158.5 32.5t-159 -32.5t-130 -88.5q-56 -56 -88.5 -130.5t-32.5 -158.5zM468 494q-39 0 -70.5 -15t-53.5 -40t-34 -57t-12 -65q0 -42 16 -78
t45 -62q28 -27 67.5 -42t87.5 -15q12 0 27.5 1t31.5 4q16 2 31 5.5t27 8.5v179q-2 32 -6.5 57t-11.5 39q-10 19 -26 33.5t-35 25.5q-20 10 -41.5 15.5t-42.5 5.5zM251 307q0 43 14.5 84t41.5 72t65 50t86 19q44 0 90 -18.5t83 -64.5v249h46v-590q-23 -8 -47.5 -13t-45.5 -8
q-22 -3 -38 -4t-23 -1q-56 0 -105 15.5t-86 45.5q-38 29 -59.5 70.5t-21.5 93.5z" />
    <glyph glyph-name="uni24D4" unicode="&#x24d4;" horiz-adv-x="1000" 
d="M47 376q0 93 35.5 175.5t96.5 144.5q61 61 143.5 96.5t177.5 35.5q94 0 176 -35.5t144 -96.5q61 -62 96.5 -144.5t35.5 -175.5t-35.5 -175.5t-96.5 -144.5q-62 -61 -144 -97t-176 -36q-95 0 -177.5 36t-143.5 97q-61 62 -96.5 144.5t-35.5 175.5zM90 376q0 -84 32.5 -159
t88.5 -130q55 -56 130 -88.5t159 -32.5t158.5 32.5t130.5 88.5q56 55 88.5 130t32.5 159t-32.5 158.5t-88.5 130.5t-130.5 88.5t-158.5 32.5t-159 -32.5t-130 -88.5q-56 -56 -88.5 -130.5t-32.5 -158.5zM705 166q-10 -5 -26 -12t-37 -13t-46.5 -10.5t-52.5 -4.5
q-57 0 -107 18t-88 50t-60 76.5t-22 98.5q0 44 17.5 87t49.5 77q31 33 75 54t98 21q48 0 88.5 -16.5t69.5 -46.5q28 -30 43 -71.5t13 -91.5h-403q-2 -51 14.5 -90t48.5 -66q31 -27 75 -41.5t97 -15.5q48 -1 87.5 14t66.5 33zM673 422q0 26 -11 52.5t-33 47.5t-55.5 34
t-78.5 13q-35 0 -63.5 -13t-49.5 -33q-22 -21 -37.5 -47.5t-22.5 -53.5h351z" />
    <glyph glyph-name="uni24D5" unicode="&#x24d5;" horiz-adv-x="1000" 
d="M47 376q0 93 35.5 175.5t96.5 144.5q61 61 143.5 96.5t177.5 35.5q94 0 176 -35.5t144 -96.5q61 -62 96.5 -144.5t35.5 -175.5t-35.5 -175.5t-96.5 -144.5q-62 -61 -144 -97t-176 -36q-95 0 -177.5 36t-143.5 97q-61 62 -96.5 144.5t-35.5 175.5zM90 376q0 -84 32.5 -159
t88.5 -130q55 -56 130 -88.5t159 -32.5t158.5 32.5t130.5 88.5q56 55 88.5 130t32.5 159t-32.5 158.5t-88.5 130.5t-130.5 88.5t-158.5 32.5t-159 -32.5t-130 -88.5q-56 -56 -88.5 -130.5t-32.5 -158.5zM668 650q-51 1 -81 -3t-52 -21q-28 -22 -28 -79v-71h144v-45h-144
v-393h-49v393h-104v45h104v36q0 16 0.5 34t3.5 36t9 34.5t18 29.5q14 16 30.5 25.5t37.5 15.5q21 5 48 7t62 2z" />
    <glyph glyph-name="uni24D6" unicode="&#x24d6;" horiz-adv-x="1000" 
d="M47 376q0 93 35.5 175.5t96.5 144.5q61 61 143.5 96.5t177.5 35.5q94 0 176 -35.5t144 -96.5q61 -62 96.5 -144.5t35.5 -175.5t-35.5 -175.5t-96.5 -144.5q-62 -61 -144 -97t-176 -36q-95 0 -177.5 36t-143.5 97q-61 62 -96.5 144.5t-35.5 175.5zM90 376q0 -84 32.5 -159
t88.5 -130q55 -56 130 -88.5t159 -32.5t158.5 32.5t130.5 88.5q56 55 88.5 130t32.5 159t-32.5 158.5t-88.5 130.5t-130.5 88.5t-158.5 32.5t-159 -32.5t-130 -88.5q-56 -56 -88.5 -130.5t-32.5 -158.5zM258 212q1 28 30 56.5t76 49.5q-8 13 -14.5 23.5t-6.5 20.5q0 4 5 10
t13 9q8 5 19 9.5t21 9.5q11 5 24 10q-24 6 -47.5 15.5t-42.5 23.5t-30.5 34.5t-11.5 47.5q0 31 15.5 54.5t41.5 39.5q25 15 57 22.5t65 7.5h252q-8 -11 -10 -17.5t-5 -13.5l-138 -1q42 -19 61 -50t19 -55q0 -29 -15 -49t-38 -33q-24 -14 -52.5 -21.5t-56.5 -11.5
q-14 -2 -28.5 -6t-25.5 -9q-12 -5 -19.5 -10.5t-6.5 -9.5q0 -5 2.5 -10.5t11.5 -10.5q8 -6 25.5 -9.5t49.5 -3.5q55 0 99.5 -5.5t76.5 -19.5q31 -14 47.5 -37.5t16.5 -59.5q0 -26 -19 -48t-51 -39q-33 -17 -76.5 -26.5t-93.5 -9.5q-54 0 -99 7.5t-76 23.5q-32 15 -49 38
t-16 54zM311 214q0 -47 52 -69.5t137 -21.5q40 0 74 5.5t59 17.5q25 11 39 28t14 40q0 50 -49.5 70t-136.5 20q-36 0 -70 -5t-60 -15q-27 -11 -43 -28.5t-16 -41.5zM342 541q0 -23 12 -42.5t32 -32.5q19 -14 44 -21.5t51 -7.5q22 0 43.5 5t38.5 16q17 10 28 26t11 39
q0 24 -12.5 42.5t-31.5 31.5q-20 13 -45.5 20t-50.5 7q-20 0 -41.5 -5t-38.5 -15q-18 -10 -29 -26t-11 -37z" />
    <glyph glyph-name="uni24D7" unicode="&#x24d7;" horiz-adv-x="1000" 
d="M47 376q0 93 35.5 175.5t96.5 144.5q61 61 143.5 96.5t177.5 35.5q94 0 176 -35.5t144 -96.5q61 -62 96.5 -144.5t35.5 -175.5t-35.5 -175.5t-96.5 -144.5q-62 -61 -144 -97t-176 -36q-95 0 -177.5 36t-143.5 97q-61 62 -96.5 144.5t-35.5 175.5zM90 376q0 -84 32.5 -159
t88.5 -130q55 -56 130 -88.5t159 -32.5t158.5 32.5t130.5 88.5q56 55 88.5 130t32.5 159t-32.5 158.5t-88.5 130.5t-130.5 88.5t-158.5 32.5t-159 -32.5t-130 -88.5q-56 -56 -88.5 -130.5t-32.5 -158.5zM657 318q0 48 -10 80t-28 51q-18 18 -43.5 25.5t-56.5 7.5
q-30 0 -57.5 -14.5t-48.5 -38.5q-21 -25 -33.5 -57t-12.5 -66v-218h-47v610h47v-274q29 45 76.5 73t105.5 28q32 0 60.5 -11.5t50.5 -34.5q21 -24 33.5 -60.5t12.5 -87.5v-243h-49v230z" />
    <glyph glyph-name="uni24D8" unicode="&#x24d8;" horiz-adv-x="1000" 
d="M47 376q0 93 35.5 175.5t96.5 144.5q61 61 143.5 96.5t177.5 35.5q94 0 176 -35.5t144 -96.5q61 -62 96.5 -144.5t35.5 -175.5t-35.5 -175.5t-96.5 -144.5q-62 -61 -144 -97t-176 -36q-95 0 -177.5 36t-143.5 97q-61 62 -96.5 144.5t-35.5 175.5zM90 376q0 -84 32.5 -159
t88.5 -130q55 -56 130 -88.5t159 -32.5t158.5 32.5t130.5 88.5q56 55 88.5 130t32.5 159t-32.5 158.5t-88.5 130.5t-130.5 88.5t-158.5 32.5t-159 -32.5t-130 -88.5q-56 -56 -88.5 -130.5t-32.5 -158.5zM457 664q0 19 12.5 32t31.5 13t31.5 -13t12.5 -32q0 -18 -12.5 -31
t-31.5 -13t-31.5 13t-12.5 31zM522 78h-46v448h46v-448z" />
    <glyph glyph-name="uni24D9" unicode="&#x24d9;" horiz-adv-x="1000" 
d="M47 376q0 93 35.5 175.5t96.5 144.5q61 61 143.5 96.5t177.5 35.5q94 0 176 -35.5t144 -96.5q61 -62 96.5 -144.5t35.5 -175.5t-35.5 -175.5t-96.5 -144.5q-62 -61 -144 -97t-176 -36q-95 0 -177.5 36t-143.5 97q-61 62 -96.5 144.5t-35.5 175.5zM90 376q0 -84 32.5 -159
t88.5 -130q55 -56 130 -88.5t159 -32.5t158.5 32.5t130.5 88.5q56 55 88.5 130t32.5 159t-32.5 158.5t-88.5 130.5t-130.5 88.5t-158.5 32.5t-159 -32.5t-130 -88.5q-56 -56 -88.5 -130.5t-32.5 -158.5zM556 253q0 -50 -7 -87t-26 -61q-19 -25 -51.5 -38t-83.5 -14v43
q40 0 64.5 10.5t37.5 30.5q12 20 16 48.5t4 64.5v265h46v-262zM488 666q0 18 13 31t32 13q18 0 31 -13t13 -31q0 -19 -13 -32t-31 -13q-19 0 -32 13t-13 32z" />
    <glyph glyph-name="uni24DA" unicode="&#x24da;" horiz-adv-x="1000" 
d="M47 376q0 93 35.5 175.5t96.5 144.5q61 61 143.5 96.5t177.5 35.5q94 0 176 -35.5t144 -96.5q61 -62 96.5 -144.5t35.5 -175.5t-35.5 -175.5t-96.5 -144.5q-62 -61 -144 -97t-176 -36q-95 0 -177.5 36t-143.5 97q-61 62 -96.5 144.5t-35.5 175.5zM90 376q0 -84 32.5 -159
t88.5 -130q55 -56 130 -88.5t159 -32.5t158.5 32.5t130.5 88.5q56 55 88.5 130t32.5 159t-32.5 158.5t-88.5 130.5t-130.5 88.5t-158.5 32.5t-159 -32.5t-130 -88.5q-56 -56 -88.5 -130.5t-32.5 -158.5zM392 698v-610h-48v610h48zM680 125q11 -10 26 -21t28 -16h-34
q-26 0 -49.5 14.5t-47.5 35.5l-208 190l246 200h52q-65 -52 -117 -94q-22 -18 -43.5 -35.5t-38.5 -31.5q-17 -15 -28.5 -24.5t-12.5 -11.5z" />
    <glyph glyph-name="uni24DB" unicode="&#x24db;" horiz-adv-x="1000" 
d="M47 376q0 93 35.5 175.5t96.5 144.5q61 61 143.5 96.5t177.5 35.5q94 0 176 -35.5t144 -96.5q61 -62 96.5 -144.5t35.5 -175.5t-35.5 -175.5t-96.5 -144.5q-62 -61 -144 -97t-176 -36q-95 0 -177.5 36t-143.5 97q-61 62 -96.5 144.5t-35.5 175.5zM90 376q0 -84 32.5 -159
t88.5 -130q55 -56 130 -88.5t159 -32.5t158.5 32.5t130.5 88.5q56 55 88.5 130t32.5 159t-32.5 158.5t-88.5 130.5t-130.5 88.5t-158.5 32.5t-159 -32.5t-130 -88.5q-56 -56 -88.5 -130.5t-32.5 -158.5zM521 58h-48v640h48v-640z" />
    <glyph glyph-name="uni24DC" unicode="&#x24dc;" horiz-adv-x="1000" 
d="M47 376q0 93 35.5 175.5t96.5 144.5q61 61 143.5 96.5t177.5 35.5q94 0 176 -35.5t144 -96.5q61 -62 96.5 -144.5t35.5 -175.5t-35.5 -175.5t-96.5 -144.5q-62 -61 -144 -97t-176 -36q-95 0 -177.5 36t-143.5 97q-61 62 -96.5 144.5t-35.5 175.5zM90 376q0 -84 32.5 -159
t88.5 -130q55 -56 130 -88.5t159 -32.5t158.5 32.5t130.5 88.5q56 55 88.5 130t32.5 159t-32.5 158.5t-88.5 130.5t-130.5 88.5t-158.5 32.5t-159 -32.5t-130 -88.5q-56 -56 -88.5 -130.5t-32.5 -158.5zM732 383q0 96 -26.5 142t-77.5 46q-32 0 -52.5 -22.5t-31.5 -52.5
q-12 -31 -16.5 -64t-4.5 -54v-237h-42v252q0 30 -6 61t-18 57t-31 42.5t-46 16.5q-26 0 -45.5 -21t-32.5 -52q-14 -32 -21 -68t-7 -65v-223h-43v463h43v-112q10 33 24.5 56.5t31.5 38.5t35 21.5t34 5.5q35 -1 60 -28.5t48 -84.5q26 57 62 85t71 28q33 0 57.5 -17t41.5 -46
t25.5 -68t8.5 -83v-259h-41v242z" />
    <glyph glyph-name="uni24DD" unicode="&#x24dd;" horiz-adv-x="1000" 
d="M47 376q0 93 35.5 175.5t96.5 144.5q61 61 143.5 96.5t177.5 35.5q94 0 176 -35.5t144 -96.5q61 -62 96.5 -144.5t35.5 -175.5t-35.5 -175.5t-96.5 -144.5q-62 -61 -144 -97t-176 -36q-95 0 -177.5 36t-143.5 97q-61 62 -96.5 144.5t-35.5 175.5zM90 376q0 -84 32.5 -159
t88.5 -130q55 -56 130 -88.5t159 -32.5t158.5 32.5t130.5 88.5q56 55 88.5 130t32.5 159t-32.5 158.5t-88.5 130.5t-130.5 88.5t-158.5 32.5t-159 -32.5t-130 -88.5q-56 -56 -88.5 -130.5t-32.5 -158.5zM651 141v248q0 34 -6.5 67t-21.5 59q-16 26 -43 41.5t-68 14.5
q-26 -1 -52.5 -16.5t-47.5 -39.5q-22 -25 -35.5 -55.5t-13.5 -61.5v-257h-49v467h49v-118q12 31 32.5 54t45.5 39q24 15 49 23t45 8q44 0 75 -16.5t51 -45.5q19 -29 28 -68.5t10 -84.5v-258h-48z" />
    <glyph glyph-name="uni24DE" unicode="&#x24de;" horiz-adv-x="1000" 
d="M47 376q0 93 35.5 175.5t96.5 144.5q61 61 143.5 96.5t177.5 35.5q94 0 176 -35.5t144 -96.5q61 -62 96.5 -144.5t35.5 -175.5t-35.5 -175.5t-96.5 -144.5q-62 -61 -144 -97t-176 -36q-95 0 -177.5 36t-143.5 97q-61 62 -96.5 144.5t-35.5 175.5zM90 376q0 -84 32.5 -159
t88.5 -130q55 -56 130 -88.5t159 -32.5t158.5 32.5t130.5 88.5q56 55 88.5 130t32.5 159t-32.5 158.5t-88.5 130.5t-130.5 88.5t-158.5 32.5t-159 -32.5t-130 -88.5q-56 -56 -88.5 -130.5t-32.5 -158.5zM257 379q0 49 19 93t52 77q33 32 77 51t95 19t95 -19t77 -51
q33 -33 52 -77t19 -93q0 -50 -19 -93.5t-52 -75.5q-33 -33 -77 -52t-95 -19t-95 19t-77 52q-33 32 -52 75.5t-19 93.5zM305 378q0 -41 15 -77t42 -63q26 -27 61 -42.5t76 -15.5q40 0 76 15.5t63 42.5q26 27 41.5 63t15.5 77t-15.5 77.5t-41.5 63.5q-27 27 -63 42.5t-76 15.5
q-41 0 -76 -15.5t-61 -42.5q-27 -27 -42 -63.5t-15 -77.5z" />
    </font>
</defs>
</svg>
